<svg xmlns="http://www.w3.org/2000/svg" width="36" height="33" fill="none" viewBox="0 0 36 33">
  <path fill="#3E4E73" d="M5.73 9.143l-.61 3.048h14.142l-.61-3.048H5.73z" opacity=".5"/>
  <path fill="#3E4E73" d="M4.064 4.064h16.255v2.032H4.064V4.064z"/>
  <path fill="#3E4E73" fill-rule="evenodd"
        d="M20.319 7.112H4.064l-1.016 5.08v2.031h1.016v6.096h10.16v-6.096h4.063v6.096h2.032v-6.096h1.016v-2.032l-1.016-5.08zM12.19 18.287H6.096v-4.064h6.095v4.064zM5.73 9.144l-.61 3.047h14.142l-.61-3.048H5.73z"
        clip-rule="evenodd"/>
  <circle cx="24.383" cy="21.335" r="6.096" fill="#fff"/>
  <path fill="#3E4E73" d="M23.396 17.78v2.569h-2.57v1.398h2.57v2.57h1.399v-2.57h2.57V20.35h-2.57v-2.57h-1.399z"/>
  <path fill="#3E4E73" fill-rule="evenodd"
        d="M19.136 26.008a7.008 7.008 0 0 1 0-9.92 7.008 7.008 0 0 1 9.92 0 7.008 7.008 0 0 1 0 9.92 7.008 7.008 0 0 1-9.92 0zm.992-.992a5.62 5.62 0 0 0 7.936 0 5.62 5.62 0 0 0 0-7.936 5.62 5.62 0 0 0-7.936 0 5.62 5.62 0 0 0 0 7.936z"
        clip-rule="evenodd"/>
</svg>
