<svg xmlns="http://www.w3.org/2000/svg" width="14" height="15" fill="none" viewBox="0 0 14 15">
    <path fill="#3E4E73" fill-rule="evenodd" d="M1.779 14.813a.074.074 0 0 1-.017-.007l-.016-.008a.17.17 0 0 0 .036.015h-.003zm-.154-.095zm0 0zM14 2.75a.583.583 0 0 1-.171.42.546.546 0 0 1-.406.177h-.312v10.477c0 .325-.109.602-.327.832-.218.23-.478.345-.78.345H2.152c-.301 0-.56-.115-.78-.345a1.165 1.165 0 0 1-.326-.832V3.346H.56a.522.522 0 0 1-.397-.176A.597.597 0 0 1 0 2.75c0-.163.055-.303.164-.421a.522.522 0 0 1 .397-.177h2.884v-.975c0-.325.107-.602.32-.832.213-.23.476-.345.787-.345h4.896c.301 0 .56.115.78.345.217.23.327.507.327.832v.975h2.868a.54.54 0 0 1 .413.177c.11.118.164.258.164.42zM4.537 1.194v.959h4.911v-.959h-4.91zm7.467 12.63V3.346H2.151v10.476h9.853zM7.382 5.54c.109.118.163.26.163.429v5.616a.608.608 0 0 1-.163.429.514.514 0 0 1-.39.177.514.514 0 0 1-.39-.177.608.608 0 0 1-.164-.429V5.97c0-.169.055-.311.164-.43a.514.514 0 0 1 .39-.176c.15 0 .28.06.39.177zm-3.025 0c.11.118.164.26.164.429v5.616a.608.608 0 0 1-.164.429.522.522 0 0 1-.397.177.522.522 0 0 1-.398-.177.608.608 0 0 1-.164-.429V5.97c0-.169.055-.311.164-.43a.522.522 0 0 1 .398-.176c.156 0 .288.06.397.177zm6.033 0c.11.118.164.26.164.429v5.616a.607.607 0 0 1-.164.429.522.522 0 0 1-.397.177.522.522 0 0 1-.398-.177.608.608 0 0 1-.163-.429V5.97c0-.169.054-.311.163-.43a.522.522 0 0 1 .398-.176c.156 0 .288.06.397.177z" clip-rule="evenodd"/>
</svg>
