<svg xmlns="http://www.w3.org/2000/svg" fill="none" viewBox="0 0 21 21">
    <g clip-path="url(#a)">
        <path d="M19.368 9.515l-3.942 3.94a5.572 5.572 0 0 1-7.881 0 5.566 5.566 0 0 1-.847-1.123L8.53 10.5c.087-.088.195-.138.297-.197.127.432.348.842.688 1.182a2.79 2.79 0 0 0 3.94 0l3.942-3.94a2.789 2.789 0 0 0 0-3.942 2.79 2.79 0 0 0-3.941 0l-1.401 1.403a6.992 6.992 0 0 0-3.556-.387l2.987-2.987a5.574 5.574 0 0 1 7.882 7.883zm-10.421 6.48l-1.402 1.403a2.791 2.791 0 0 1-3.942 0 2.791 2.791 0 0 1 0-3.942l3.942-3.941a2.788 2.788 0 0 1 3.94 0c.34.34.561.749.69 1.181.102-.06.209-.109.296-.196l1.831-1.83a5.476 5.476 0 0 0-.846-1.126 5.574 5.574 0 0 0-7.882 0l-3.941 3.941a5.574 5.574 0 0 0 7.882 7.883l2.987-2.987a6.988 6.988 0 0 1-3.555-.386z"/>
    </g>
    <defs>
        <clipPath id="a">
            <path  d="M0 0h21v21H0z"/>
        </clipPath>
    </defs>
</svg>
