<svg width="100" height="18" viewBox="0 0 100 18" fill="none" xmlns="http://www.w3.org/2000/svg">
<path d="M73.3273 2.41V14.5706H79.4035V13.1236H75.2095V2.41H73.3273Z" fill="white"/>
<path d="M12.309 2.42018C12.8924 2.42018 13.417 2.44879 13.8475 2.62689C15.0787 3.13256 15.9038 4.20287 15.9038 5.88745C15.9038 7.36066 15.0787 8.58513 13.9279 9.09138L17.1995 14.5802H14.8709L12.0292 9.62216H10.0819V14.5802H8.06799V2.42018H12.309ZM10.0819 8.21493H11.4369L11.8658 8.2196C13.105 8.2196 13.7957 7.4646 13.7957 5.91548C13.7957 5.03669 13.5677 3.65924 11.9975 3.65924H10.0819V8.21493Z" fill="white"/>
<path d="M3.65081 2.42018C4.26007 2.42018 4.7149 2.39507 5.07823 2.4593C6.82087 2.76411 7.7739 4.14506 7.7739 6.21094C7.7739 7.55569 7.17891 8.55301 6.32108 9.24028C5.66845 9.75996 4.76514 9.9328 3.67619 9.9328H1.98539V14.5802H0V2.42018H3.65081ZM3.81211 8.60206C5.49498 8.54425 5.75731 7.11542 5.75731 6.08598C5.75731 3.9477 4.64826 3.68494 3.67619 3.68494H1.98539V8.60206H3.81211Z" fill="white"/>
<path d="M23.7854 14.5787C24.3941 14.2389 25.0547 13.69 25.3773 13.2293H27.8355C28.7859 13.2293 29.5194 12.8924 30.0885 12.4428C31.179 11.5809 31.8089 10.1276 31.8089 8.1633C31.8089 6.45302 30.9024 4.79587 30.0917 4.31823C29.2159 3.79972 29.0969 3.71155 27.7916 3.71155H25.8152V10.0943C25.8152 11.4542 25.5688 12.42 24.8236 13.2375C23.9176 14.2336 22.5336 14.8164 21.0707 14.8164C17.9741 14.8164 16.1353 13.2188 16.1353 10.374V2.41293H18.0096V10.1036C18.0096 10.6852 18.0614 11.1634 18.1577 11.5231C18.4443 12.6267 19.6279 13.3222 21.0707 13.3222C22.9096 13.3222 23.8626 12.197 23.8626 10.1317V2.41293L28.4961 2.41877C29.4718 2.41877 30.3196 2.56358 30.9643 2.87889C32.7455 3.75359 33.9339 5.55029 33.9339 8.31219C33.9339 11.3742 32.2722 14.5787 27.7699 14.5787H23.7854Z" fill="white"/>
<path d="M60.5513 14.5626H62.5076V2.4061H60.5513V14.5626Z" fill="white"/>
<path d="M50.7932 3.77916H54.6777V14.5623H56.6372V3.77916H60.2208V2.4128H49.3239V11.3776L42.7575 2.41864H41.0984V13.1474H35.7832V8.98824H40.3728V7.57984H35.7832V3.74821H40.6034V2.41864H33.864V14.5786H42.5745V5.67454L49.2113 14.5786H50.7932V3.77916Z" fill="white"/>
<path d="M68.7476 2.40564L73.3969 14.5621H71.2682L70.0872 11.3342H65.4463L64.2167 14.5621H62.4635L67.2514 2.40564H68.7476ZM65.9705 9.94394H69.5768L67.7512 5.09981L65.9705 9.94394Z" fill="white"/>
<path d="M87.5675 0.141008C87.753 0.141008 87.7103 0.450354 88.1052 0.450354C88.3313 0.450354 88.358 0.328148 88.6243 0.328148C89.3922 0.328148 89.6731 1.34895 90.2057 1.34895C90.449 1.34895 90.472 1.17028 90.7281 1.17028C90.8245 1.17028 91.002 1.23118 91.0722 1.31225C91.1434 1.38888 91.295 1.53084 91.6782 2.68313C91.7213 2.80937 91.6599 2.86018 91.6015 2.86018C91.5438 2.86018 91.424 2.80049 91.1558 2.49034C91.0035 2.31449 90.8767 2.39596 90.2115 1.93578C89.8985 1.72121 89.5975 1.40864 89.2632 1.2703C88.9264 1.13398 88.3657 1.07993 88.1527 1.02347C87.8747 0.952082 87.4308 0.717754 87.4308 0.361624C87.4308 0.243854 87.4937 0.141008 87.5675 0.141008Z" fill="white"/>
<path d="M91.3538 -0.000163005C91.5083 -0.000163005 91.6317 0.266834 91.7943 0.444698C92.175 0.84721 92.7656 0.587473 93.2131 1.08234C93.3275 1.2106 93.4192 1.5139 93.4192 1.80509C93.4192 2.09831 93.3607 2.39757 93.2245 2.39757C92.907 2.39757 93.1127 1.82969 92.4712 1.40823C91.8279 0.985145 91.7212 0.965786 91.4575 0.671766C91.1912 0.37694 91.1791 0.263204 91.1791 0.184154C91.1791 0.106313 91.2292 -0.000163005 91.3538 -0.000163005Z" fill="white"/>
<path d="M94.2577 1.32937C94.4148 1.32937 94.3691 1.57217 94.547 1.73269C94.7213 1.89401 94.836 1.84158 95.0807 2.11019C95.1903 2.23038 95.2185 2.31105 95.2185 2.34452C95.2185 2.3784 95.1578 2.80067 94.7618 2.80067C94.6763 2.80067 94.6084 2.78132 94.547 2.63894C94.451 2.42881 94.4941 2.1352 94.2913 1.87425C94.1163 1.6488 94.0933 1.62823 94.0933 1.49715C94.0933 1.36849 94.2025 1.32937 94.2577 1.32937Z" fill="white"/>
<path d="M94.8893 3.5121C95.3887 3.66738 95.6316 3.89122 95.6316 4.22678C95.6316 4.5692 95.51 4.58896 95.4062 4.75472C95.3277 4.87653 95.2491 5.05278 95.259 5.57386C95.259 5.68115 95.229 5.73842 95.1578 5.73842C95.0895 5.73842 95.0511 5.69688 95.0511 5.62146C95.0511 5.57023 95.0807 5.53515 95.0807 5.48957C95.0807 5.44561 95.0943 5.19676 94.939 5.04874C94.4879 4.59743 92.2613 4.29333 90.8447 4.29333C89.126 4.29333 87.7531 4.69544 87.367 4.69544C86.6682 4.69544 86.3438 4.31269 86.3438 4.02552C86.3438 3.73957 86.4958 3.68754 86.4958 3.55122C86.4958 3.41369 86.4552 3.39312 86.4552 3.27656C86.4552 3.15879 86.5392 2.92446 86.6247 2.92446C86.7515 2.92446 86.7413 3.08176 86.8629 3.31649C87.02 3.6093 87.3455 3.99648 87.9606 3.99648C88.5082 3.99648 88.9714 3.76659 89.7806 3.56251C90.7713 3.31246 91.5545 3.19267 92.3348 3.19267C92.692 3.19267 94.0305 3.21042 94.8893 3.5121Z" fill="white"/>
<path d="M95.0511 6.59327C95.1578 6.59327 95.2228 6.62231 95.2228 6.70136C95.2228 6.7792 95.1114 6.7792 95.0464 6.79412C94.9821 6.80501 94.5547 6.89173 94.3691 7.22205C94.3388 7.27528 94.3643 7.3257 94.4027 7.34546C94.4462 7.36563 94.9291 7.6294 94.9291 7.82944C94.9291 8.02183 94.5565 8.213 94.4462 8.213C94.3315 8.213 94.2909 8.06417 94.2909 8.03675C94.2909 7.9827 94.3972 7.91938 94.3972 7.86494C94.3972 7.81613 94.3077 7.74192 94.2577 7.74192C94.2018 7.74192 94.1795 7.77016 94.1488 7.90648C94.1214 8.04482 94.0096 8.59051 93.9841 8.92607C93.9607 9.26687 93.8661 10.1267 93.8661 10.2344C93.8661 10.3482 93.85 10.6519 93.6293 10.8229C93.4113 10.9894 93.218 11.11 93.218 11.11C93.218 11.11 93.1362 11.1693 93.1073 11.1693C93.0774 11.1693 93.0061 11.0887 92.9196 11.01C92.829 10.9346 92.7355 10.9269 92.6759 10.9269C92.5619 10.9269 92.3395 11.1225 92.1747 11.1225C92.0107 11.1225 91.6724 10.9213 91.6724 10.8063C91.6724 10.7696 91.7389 10.7362 91.7564 10.7362C91.828 10.7362 91.957 10.8374 92.117 10.8374C92.2737 10.8374 92.4158 10.6801 92.6229 10.6801C92.7424 10.6801 93.0145 10.7471 93.2293 10.7471C93.4471 10.7471 93.5311 10.6857 93.5661 10.616C93.6016 10.5438 93.6728 10.451 93.6728 10.1764C93.6728 9.90533 93.5132 8.98536 93.5132 8.42797C93.5132 7.86494 93.6067 7.37934 93.862 7.09903C94.1163 6.81832 94.6588 6.59327 95.0511 6.59327Z" fill="white"/>
<path d="M95.3649 8.19552C95.4241 8.19552 95.4895 8.28223 95.4895 8.51011C95.4895 8.7404 95.3422 10.2742 94.9689 11.3374C94.5974 12.3981 94.4936 12.4066 94.1663 13.0168C93.8427 13.6286 93.5892 14.2751 93.2363 14.6644C93.1004 14.8132 92.8998 14.9951 92.4154 14.9951C91.9343 14.9951 91.2417 14.8813 90.4636 14.5333C89.6855 14.1896 88.9126 13.679 88.4472 13.1672C88.3789 13.0894 88.4168 13.0168 88.5352 13.0894C88.655 13.1596 89.2859 13.7012 90.4918 14.1041C91.3736 14.399 91.6151 14.401 91.9844 14.401C92.3398 14.401 92.7197 14.472 93.1665 13.9815C93.6114 13.4895 93.984 12.6586 94.1441 12.3384C94.3044 12.0202 94.6204 11.4612 94.9214 10.4255C95.2235 9.39015 95.2769 8.81744 95.3079 8.36895C95.3116 8.27255 95.3174 8.19552 95.3649 8.19552Z" fill="white"/>
<path d="M92.3473 11.5647C92.5226 11.5647 92.6614 11.8325 92.8488 11.8325C93.0359 11.8325 93.0899 11.6044 93.2043 11.6044C93.3131 11.6044 93.3431 11.8686 93.3836 11.9568C93.4242 12.0527 93.449 12.0992 93.449 12.124C93.449 12.1505 93.4063 12.1854 93.361 12.1854C93.3179 12.1854 93.2295 12.0992 93.0289 12.0992C92.8821 12.0992 92.7655 12.2046 92.7553 12.2303C92.748 12.2551 92.717 12.2479 92.6892 12.2287C92.6278 12.1801 92.4996 11.956 92.2863 11.956C92.1723 11.956 92.0251 12.0374 91.8658 12.138C91.7087 12.2479 91.5893 12.2896 91.4497 12.2896C91.3277 12.2896 91.1633 12.2359 91.1633 12.1437C91.1633 12.0911 91.2291 12.0579 91.2824 12.0579C91.4063 12.0579 91.5261 12.0887 91.8019 11.9163C91.9896 11.7937 92.1946 11.5647 92.3473 11.5647Z" fill="white"/>
<path d="M91.8074 12.4808C91.9013 12.4808 92.0533 12.6841 92.5168 12.6841C92.9654 12.6841 93.0871 12.4552 93.1828 12.4552C93.2401 12.4552 93.2518 12.5221 93.2518 12.5478C93.2518 12.5719 93.0776 13.2037 92.6052 13.2037C92.3312 13.2037 92.0357 12.9451 91.9287 12.828C91.8231 12.7114 91.7464 12.5967 91.7464 12.5478C91.7464 12.4965 91.784 12.4808 91.8074 12.4808Z" fill="white"/>
<path d="M91.0021 7.07945C91.3243 7.07945 92.0359 7.15803 92.0359 7.3637C92.0359 7.47756 91.7162 7.37092 91.4707 7.37092C91.222 7.37092 91.1993 7.38575 91.1993 7.4054C91.1993 7.42544 91.2044 7.43867 91.2242 7.45832C91.2472 7.47756 91.4097 7.67201 91.4097 7.72493C91.4097 7.93422 90.9158 8.14751 90.7986 8.14751C90.7357 8.14751 90.6031 8.07053 90.6031 7.97832C90.6031 7.91176 90.8625 7.842 90.8625 7.77505C90.8625 7.70489 90.7127 7.56657 90.5761 7.56657C90.4384 7.56657 90.0201 7.88851 89.965 7.88851C89.9072 7.88851 89.8945 7.84722 89.8945 7.7979C89.8945 7.75059 89.9321 7.66399 89.9321 7.61989C89.9321 7.47195 89.8411 7.48839 89.8411 7.37092C89.8411 7.30757 89.9146 7.19932 90.3277 7.13838C90.7409 7.07624 90.8417 7.07945 91.0021 7.07945Z" fill="white"/>
<path d="M90.8088 6.08423C91.1409 6.08423 91.8408 6.14317 91.95 6.16682C92.0611 6.18968 92.0837 6.2446 92.0837 6.27868C92.0837 6.33802 92.0483 6.34564 91.9193 6.34564C91.6808 6.34564 91.0769 6.34724 90.464 6.55412C89.5014 6.88087 89.3648 7.19078 89.204 7.19078C89.1562 7.19078 89.0806 7.12463 89.0806 7.05407C89.0806 6.98831 89.177 6.82634 89.177 6.71088C89.177 6.62388 89.0981 6.53206 89.0981 6.47954C89.0981 6.2867 89.9124 6.08423 90.8088 6.08423Z" fill="white"/>
<path d="M99.3115 5.7499C99.8032 5.7499 100 6.28107 100 6.91347C100 7.01188 99.9573 7.17684 99.877 7.17684C99.7626 7.17684 99.9124 6.82394 99.6205 6.82394C99.5493 6.82394 99.413 6.90944 99.2936 7.03971C99.1719 7.17119 98.4527 8.24201 97.9299 10.0194C97.6695 10.9088 97.5522 11.4657 97.5522 11.9417C97.5522 12.2558 97.6358 12.4958 97.6358 12.6059C97.6358 12.8007 97.4488 12.6741 97.4189 12.6164C97.3473 12.4781 97.2128 12.0877 97.2128 11.5605C97.2128 11.033 97.4189 9.70323 97.7911 8.35695C97.9909 7.62211 98.5655 5.7499 99.3115 5.7499Z" fill="white"/>
<path d="M97.8823 14.3431C97.9422 14.3431 97.993 14.3763 97.993 14.416C97.993 14.4846 97.7533 14.7067 97.6496 14.8298C97.4808 15.0242 97.4333 15.3414 97.2919 15.3414C97.2456 15.3414 97.2182 15.2832 97.2182 15.2383C97.2182 15.1934 97.2361 15.1529 97.2361 15.1205C97.2361 14.9653 97.0538 15.0046 97.0538 14.8827C97.0538 14.7849 97.315 14.5965 97.4278 14.5183C97.54 14.4425 97.7833 14.3431 97.8823 14.3431Z" fill="white"/>
<path d="M97.6837 15.6135C97.7604 15.6135 97.8178 15.6409 97.8178 15.6764C97.8178 15.7555 97.5314 15.9422 97.4766 16.0035C97.421 16.066 97.1215 16.4996 97.0755 16.7464C97.0276 16.9917 96.9571 17.0707 96.8932 17.0707C96.7569 17.0707 96.8406 16.8247 96.739 16.7464C96.666 16.6872 96.4727 16.7146 96.4727 16.5331C96.4727 16.4153 96.6499 16.2254 96.8143 16.0628C96.9794 15.9007 97.3246 15.6135 97.6837 15.6135Z" fill="white"/>
<path d="M96.5209 13.2578C96.5947 13.2578 96.6499 13.2993 96.6853 13.3695C96.7237 13.4385 96.7069 13.4832 96.7693 13.5474C96.8303 13.6179 97.0539 13.6542 97.0539 13.772C97.0539 13.887 96.9341 13.887 96.8756 13.9341C96.8139 13.9813 96.6543 14.0563 96.5311 14.2919C96.4099 14.5274 96.3386 14.8356 96.3153 15.2582C96.29 15.6797 96.1666 16.0935 95.9715 16.4464C95.7662 16.828 95.4546 17.1236 95.2814 17.437C95.1379 17.7036 95.1876 18 95.0378 18C94.8942 18 94.8712 17.5495 94.8712 17.393C94.8712 17.2353 94.907 16.7021 95.2814 16.3121C95.6975 15.881 96.0314 15.8616 96.0314 15.1647C96.0314 14.7287 95.9839 14.5911 95.9839 14.3258C95.9839 14.0563 96.0676 13.2578 96.5209 13.2578Z" fill="white"/>
<path d="M80.1254 3.66743C80.3705 3.66743 80.0987 3.77754 80.4871 4.20546C80.6697 4.40672 80.7767 4.49424 81.2045 4.49424C81.4602 4.49424 81.8306 4.4289 82.7607 3.97073C83.1275 3.78843 83.7156 3.59242 84.1415 3.59242C84.6858 3.59242 85.1114 3.88442 85.4135 4.12681C85.7156 4.37365 86.0755 4.71485 86.2347 4.85239C86.3936 4.98951 86.6322 5.1464 86.7235 5.18512C86.8126 5.22505 86.8305 5.2799 86.802 5.36137C86.7768 5.43599 86.6709 5.61304 86.6457 5.65257C86.6172 5.69089 86.5105 5.75017 86.4495 5.77841C86.3867 5.80946 86.1485 5.91553 85.8548 6.16115C85.5651 6.40557 85.0771 6.69878 84.4864 6.69878C83.8906 6.69878 82.9806 6.43299 82.4765 6.43299C82.2661 6.43299 81.9541 6.56125 81.7335 6.80485C81.6498 6.89721 81.5797 7.07306 81.5205 7.13436C81.4632 7.1997 81.2725 7.3336 81.2045 7.3336C81.1329 7.3336 81.0091 7.28319 81.0091 7.20817C81.0091 7.05935 81.3006 7.00006 81.3006 6.74637C81.3006 6.49228 81.2294 6.4826 81.2294 6.36564C81.2294 6.24787 81.3152 6.03895 81.4493 5.88851C81.7393 5.57029 82.4864 5.37831 83.1578 5.37831C83.6444 5.37831 84.5905 5.61304 85.2364 5.61304C85.51 5.61304 85.7229 5.56747 85.8468 5.50657C86.0196 5.42066 85.9805 5.31741 85.9019 5.31741C85.8318 5.31741 85.8395 5.35532 85.6543 5.35532C85.487 5.35532 85.0917 5.24965 84.7549 5.00282C84.4203 4.75478 83.8825 4.41841 83.3653 4.41841C82.844 4.41841 82.4739 4.62007 82.3147 4.69025C81.9315 4.85239 81.0398 5.41744 80.5634 5.41744C80.0863 5.41744 79.5318 5.1577 79.5318 4.70921C79.5318 4.2587 79.9344 4.29339 79.9344 4.02558C79.9344 3.9788 79.9146 3.94855 79.9146 3.89491C79.9146 3.84247 79.9629 3.66743 80.1254 3.66743Z" fill="white"/>
<path d="M85.9894 7.5018C86.0928 7.5018 86.0822 7.62723 86.1491 7.70911C86.2144 7.79582 86.2422 7.68854 86.3361 7.80106C86.4329 7.91278 86.385 7.97207 86.4501 8.0366C86.5129 8.10315 86.6177 8.09508 86.6199 8.15356C86.6375 8.39435 86.5366 8.77709 86.5366 9.36352C86.5366 9.77692 86.6017 10.25 86.7317 10.6662C86.784 10.8397 86.6711 10.8707 86.6155 10.7501C86.2298 9.95519 85.8824 8.7904 85.8824 7.87931C85.8824 7.66313 85.9127 7.5018 85.9894 7.5018Z" fill="white"/>
<path d="M85.4918 8.37227C85.54 8.37227 85.5652 8.40857 85.5652 8.46987C85.5652 8.534 85.3957 9.14664 85.1422 9.51044C84.8913 9.87181 84.4938 10.3481 84.3492 10.3481C84.283 10.3481 84.283 10.2622 84.271 10.2332C84.2556 10.2029 84.2074 10.1348 84.3042 10.0477C84.4025 9.96014 84.4153 9.91174 84.4153 9.85487C84.4153 9.79639 84.3722 9.71774 84.3722 9.66612C84.3722 9.61732 84.4098 9.50237 84.4723 9.46083C84.5336 9.42292 84.919 9.20835 85.1342 8.92038C85.3504 8.63201 85.4155 8.37227 85.4918 8.37227Z" fill="white"/>
<path d="M85.8802 11.6394C85.8802 11.5615 85.8824 11.4906 85.8824 11.418C85.8824 10.4242 85.687 9.79017 85.5653 9.79017C85.383 9.79017 85.1828 10.7662 85.1017 11.2816C84.8128 11.1832 84.6086 11.1667 84.4475 11.1667C83.9971 11.1667 83.9109 11.2728 83.9109 11.4022C83.9109 11.5277 84.0095 11.718 84.122 11.8386C84.3952 12.1423 84.7123 12.1347 85.0108 12.148C84.9629 12.7671 84.9096 13.5624 84.9096 13.8411C84.9096 13.9314 84.9125 14.0762 84.9165 14.2505C84.6086 14.4291 84.0983 14.7393 83.9288 14.9272C83.68 15.2015 83.6526 15.3584 83.6526 15.5423C83.6526 16.213 84.1921 16.1832 84.1921 16.6454C84.1921 16.8212 84.0862 17.0055 84.2199 17.0055C84.3795 17.0055 84.5114 16.6655 84.5114 16.4603C84.5114 16.2562 84.351 15.9117 84.351 15.7C84.351 15.4806 84.4175 15.2434 84.6963 14.9349C84.762 14.8659 84.8413 14.7986 84.9322 14.7393C84.952 15.3406 84.9772 16.0295 84.9878 16.1949C85.0057 16.4683 85.0163 17.1031 85.1397 17.1031C85.2636 17.1031 85.4846 15.873 85.5887 15.014C85.6135 14.8232 85.642 14.586 85.6723 14.3231C85.7892 14.261 85.9021 14.1912 86.0143 14.1162C86.5392 13.7641 86.891 13.3515 86.891 12.8788C86.891 12.3049 86.4099 11.9314 85.8802 11.6394ZM85.7176 13.8669C85.7659 13.3962 85.8137 12.882 85.8448 12.4061C86.1023 12.5372 86.2977 12.7074 86.2977 13.0607C86.2977 13.4838 85.8773 13.775 85.7176 13.8669Z" fill="white"/>
</svg>
