<svg width="97" height="26" viewBox="0 0 97 26" fill="none" xmlns="http://www.w3.org/2000/svg">
<rect x="12.7285" width="26.0229" height="25.8814" fill="white"/>
<path fill-rule="evenodd" clip-rule="evenodd" d="M38.7936 0V26L51.5872 13.0002L38.7936 0Z" fill="#E42713"/>
<path fill-rule="evenodd" clip-rule="evenodd" d="M12.7936 0L25.7938 12.7937L38.7936 0H12.7936Z" fill="#E42713"/>
<path fill-rule="evenodd" clip-rule="evenodd" d="M12.7937 0L0 13.0002L12.7937 26V0Z" fill="#E42713"/>
<path fill-rule="evenodd" clip-rule="evenodd" d="M12.7936 25.9889H38.7936L25.7938 12.7936L12.7936 25.9889Z" fill="#E42713"/>
<path fill-rule="evenodd" clip-rule="evenodd" d="M63.2424 13.5728H58.5039V18.1587H56.1271V7.42859H58.5039V11.8217H63.2424V7.42859H65.6192V18.1587H63.2424V13.5728Z" fill="white"/>
<path fill-rule="evenodd" clip-rule="evenodd" d="M71.1645 18.5494C68.8323 18.5494 66.9189 17.6316 66.874 15.0709H69.2211C69.2508 16.2108 69.9237 16.8914 71.2094 16.8914C72.1664 16.8914 73.2427 16.4178 73.2427 15.3519C73.2427 14.5233 72.5103 14.2568 71.299 13.9163L70.5217 13.6942C68.8177 13.2059 67.128 12.5543 67.128 10.6301C67.128 8.24702 69.3707 7.44794 71.4189 7.44794C73.5265 7.44794 75.3355 8.17309 75.3507 10.5415H73.0036C72.9137 9.56449 72.3458 9.00192 71.2392 9.00192C70.3723 9.00192 69.5052 9.46081 69.5052 10.408C69.5052 11.1927 70.2227 11.4295 71.7476 11.9031L72.6448 12.1844C74.4984 12.7617 75.6645 13.3979 75.6645 15.1746C75.6645 17.6166 73.2873 18.5494 71.1645 18.5494Z" fill="white"/>
<path fill-rule="evenodd" clip-rule="evenodd" d="M80.978 16.7583C82.0694 16.7583 83.146 16.5065 83.146 15.2041C83.146 13.9311 82.2188 13.6347 81.1124 13.6347H79.2588V16.7583H80.978ZM80.754 12.1102C81.7853 12.1102 82.8316 11.9031 82.8316 10.6596C82.8316 9.54978 81.8448 9.25347 80.9033 9.25347H79.2588V12.1102H80.754ZM76.9866 7.65503H80.739C81.9203 7.65503 82.3986 7.68478 82.8618 7.78816C84.1776 8.08417 85.1643 8.92772 85.1643 10.3639C85.1643 11.7403 84.2823 12.4507 83.0114 12.7765C84.4765 13.043 85.5528 13.7832 85.5528 15.3669C85.5528 17.7942 83.131 18.3568 81.2325 18.3568H76.9866V7.65503Z" fill="white"/>
<path fill-rule="evenodd" clip-rule="evenodd" d="M91.6687 18.5494C88.1852 18.5494 86.6157 16.3436 86.6157 13.0872C86.6157 9.8605 88.3497 7.44794 91.7886 7.44794C93.9411 7.44794 96.0342 8.39517 96.094 10.8225H93.6722C93.5523 9.75682 92.8348 9.19425 91.7886 9.19425C89.6803 9.19425 89.0374 11.4442 89.0374 13.1611C89.0374 14.8635 89.6803 16.8469 91.7133 16.8469C92.775 16.8469 93.5523 16.2847 93.7168 15.204H96.1535C95.8849 17.6316 93.9114 18.5494 91.6687 18.5494Z" fill="white"/>
</svg>
