<svg width="260" height="200" viewBox="0 0 260 200" fill="none" xmlns="http://www.w3.org/2000/svg">
<circle cx="160.591" cy="34.3836" r="20.3836" fill="#D4DDE6"/>
<circle cx="160.591" cy="34.3832" r="17.4716" fill="white"/>
<rect x="159.426" y="23.3179" width="2.32955" height="12.2301" rx="1.16478" fill="#D4DDE6"/>
<rect x="159.426" y="35.8188" width="2.32955" height="9.05594" rx="1.16478" transform="rotate(-60 159.426 35.8188)" fill="#D4DDE6"/>
<circle cx="160.591" cy="34.9663" r="2.32955" fill="#D4DDE6"/>
<path d="M214.098 71.3286H250.406V147.767H214.098V71.3286Z" fill="#B4C0CC"/>
<rect x="210.097" y="74.8125" width="32.7849" height="1.07492" rx="0.537458" transform="rotate(-90 210.097 74.8125)" fill="#D4DDE6"/>
<rect x="217.083" y="74.8125" width="27.4103" height="1.07492" rx="0.537458" transform="rotate(-90 217.083 74.8125)" fill="#D4DDE6"/>
<rect x="224.071" y="75.3496" width="27.4103" height="1.07492" rx="0.537458" transform="rotate(-90 224.071 75.3496)" fill="#D4DDE6"/>
<rect x="231.057" y="71.8999" width="24.8061" height="0.97279" rx="0.486395" transform="rotate(-75 231.057 71.8999)" fill="#D4DDE6"/>
<rect x="243.419" y="72.125" width="27.4103" height="1.07492" rx="0.537458" transform="rotate(-90 243.419 72.125)" fill="#D4DDE6"/>
<rect x="216.009" y="74.8125" width="32.7849" height="1.07492" rx="0.537458" transform="rotate(-90 216.009 74.8125)" fill="#D4DDE6"/>
<rect x="222.996" y="74.8125" width="27.4103" height="1.07492" rx="0.537458" transform="rotate(-90 222.996 74.8125)" fill="#D4DDE6"/>
<rect x="229.983" y="75.3496" width="27.4103" height="1.07492" rx="0.537458" transform="rotate(-90 229.983 75.3496)" fill="#D4DDE6"/>
<rect x="236.226" y="73.2852" width="24.8061" height="0.97279" rx="0.486395" transform="rotate(-75 236.226 73.2852)" fill="#D4DDE6"/>
<rect x="249.331" y="72.125" width="27.4103" height="1.07492" rx="0.537458" transform="rotate(-90 249.331 72.125)" fill="#D4DDE6"/>
<path d="M211.172 74.8125L211.172 42.8338C212.742 43.3571 214.439 43.3571 216.009 42.8338L216.009 74.8125L211.172 74.8125Z" fill="#E6EBF0"/>
<path d="M218.158 74.8125L218.158 47.9396C219.74 48.3828 221.414 48.3828 222.996 47.9396L222.996 74.8125L218.158 74.8125Z" fill="#E6EBF0"/>
<path d="M225.146 75.3496L225.146 48.4767C226.727 48.9199 228.401 48.9199 229.983 48.4767L229.983 75.3496L225.146 75.3496Z" fill="#E6EBF0"/>
<path d="M231.997 72.1519L238.291 48.6608C239.57 49.4187 241.033 49.8106 242.52 49.7938L236.225 73.2848L231.997 72.1519Z" fill="#E6EBF0"/>
<path d="M244.494 72.125L244.494 45.2521C246.076 45.6953 247.749 45.6953 249.331 45.2521L249.331 72.125L244.494 72.125Z" fill="#E6EBF0"/>
<path d="M203.647 71.0503H247.719C249.203 71.0503 250.406 72.2534 250.406 73.7376C250.406 75.2217 249.203 76.4249 247.719 76.4249H203.647V71.0503Z" fill="#B3C0CC"/>
<path opacity="0.4" d="M214.098 76.4248H249.291C249.907 76.4248 250.406 76.9239 250.406 77.5395C250.406 78.1552 249.907 78.6543 249.291 78.6543H214.098V76.4248Z" fill="#5C6E80"/>
<path d="M203.647 71.0503H247.719C249.203 71.0503 250.406 72.2534 250.406 73.7376C250.406 75.2217 249.203 76.4249 247.719 76.4249H203.647V71.0503Z" fill="#B4C0CC"/>
<rect x="23.002" y="25.4658" width="51.5959" height="51.5959" rx="10" fill="#D4DDE6"/>
<rect x="28.1616" y="30.6255" width="41.2767" height="41.2767" rx="10" fill="white"/>
<rect x="40.5444" y="43.0083" width="12.383" height="12.383" transform="rotate(-30 40.5444 43.0083)" fill="#E6EBF0"/>
<path d="M30.2278 60.8818L40.8916 49.2004L48.1415 61.9373L30.2278 60.8818Z" fill="#E6EBF0"/>
<rect x="50.3477" y="51.7798" width="12.383" height="12.383" rx="6.19151" fill="#E6EBF0"/>
<path d="M99.1983 88.1501C114.168 64.1993 149.049 64.1993 164.018 88.1501L213.103 166.686C215.754 170.928 212.704 176.431 207.701 176.431H55.5153C50.5122 176.431 47.462 170.928 50.1137 166.686L99.1983 88.1501Z" fill="#FEEFF0"/>
<path d="M104.855 75.1506L158.362 72.2842L180.656 113.37C180.656 113.37 165.935 122.125 135.43 124.199C102.625 126.428 86.7007 106.681 86.7007 106.681L104.855 75.1506Z" fill="#F95563"/>
<circle cx="98.1664" cy="127.383" r="3.18493" fill="#FEEFF0"/>
<circle cx="98.1664" cy="92.9862" r="3.18493" fill="#FEEFF0"/>
<circle cx="152.947" cy="92.9862" r="3.18493" fill="#FEEFF0"/>
<circle cx="167.598" cy="108.911" r="3.18493" fill="#FEEFF0"/>
<path opacity="0.3" d="M167.457 139.494L149.152 93.144L197.483 109.869L167.457 139.494Z" fill="#FB725D"/>
<path opacity="0.3" d="M87.9744 133.623L112.817 98.0821L101.033 138.212L87.9744 133.623Z" fill="#FB725D"/>
<path opacity="0.2" d="M112.18 100.63L101.67 127.702L100.641 130.274C98.9981 134.381 93.726 135.531 90.5225 132.48V132.48" stroke="#EC1B2E"/>
<path d="M7 148H251C251 176.719 227.719 200 199 200H59C30.2812 200 7 176.719 7 148Z" fill="#E9EEF3"/>
<path d="M29.3717 170.776C28.3266 169.995 24.9824 169.193 19.9662 172.241C13.6958 176.052 8.47056 174 7.07715 173.707" stroke="#5C6E80" stroke-width="2" stroke-linecap="round"/>
<path d="M252.317 170.776C251.511 169.995 248.931 169.193 245.061 172.241C240.224 176.052 236.193 174 235.118 173.707" stroke="#5C6E80" stroke-width="2" stroke-linecap="round"/>
<path d="M161.228 150.315C162.926 150.315 167.343 151.334 171.42 155.411" stroke="#5C6E80" stroke-width="2"/>
<path d="M111.543 150.952C109.844 150.952 105.428 151.971 101.351 156.048" stroke="#5C6E80" stroke-width="2"/>
<rect x="83.958" y="81.543" width="37.8079" height="105.214" rx="18.904" transform="rotate(39.8679 83.958 81.543)" fill="#FCC4BF"/>
<rect width="37.8079" height="97.3837" rx="18.904" transform="matrix(-0.744924 0.66715 0.66715 0.744924 188.039 88.2246)" fill="#FCC4BF"/>
<path opacity="0.2" d="M184.725 141.27L182.248 138.212L215.65 140.642C221.38 141.058 227.051 142.307 232.429 144.327C232.429 144.327 226.412 142.708 221.812 142.629C201.995 142.289 184.725 141.27 184.725 141.27Z" fill="#FB725D" stroke="#FB8297"/>
<rect x="95.6182" y="142.671" width="37.5822" height="70.7055" rx="18.7911" transform="rotate(90 95.6182 142.671)" fill="#FCC4BF"/>
<rect width="37.5822" height="66.5586" rx="18.7911" transform="matrix(-0.0306122 0.999531 0.999531 0.0306122 176.074 141.141)" fill="#FCC4BF"/>
<path d="M116.641 89.0285C121.003 77.6264 108.379 67.2105 98.0132 73.6588L57.512 98.8524C53.6207 101.273 53.4819 106.887 57.2489 109.497L91.3318 133.11C94.7285 135.463 99.4322 134.01 100.909 130.15L116.641 89.0285Z" fill="#F95563"/>
<mask id="mask0_371_489" style="mask-type:alpha" maskUnits="userSpaceOnUse" x="54" y="71" width="64" height="64">
<path d="M116.482 88.8688C120.844 77.4667 108.22 67.0509 97.854 73.4991L57.3528 98.6927C53.4615 101.113 53.3227 106.728 57.0898 109.338L91.1726 132.951C94.5693 135.304 99.273 133.85 100.75 129.991L116.482 88.8688Z" fill="#FDA5AB"/>
</mask>
<g mask="url(#mask0_371_489)">
<rect x="56.9863" y="90.9214" width="62.5511" height="16.1017" transform="rotate(34.166 56.9863 90.9214)" fill="#FEEFF0"/>
</g>
<path d="M146.687 87.4391C141.754 76.3271 153.706 65.2789 164.397 71.0674L205.614 93.3841C209.572 95.5272 210.119 100.988 206.665 103.874L174.715 130.569C171.467 133.282 166.526 132.133 164.809 128.265L146.687 87.4391Z" fill="#F95563"/>
<mask id="mask1_371_489" style="mask-type:alpha" maskUnits="userSpaceOnUse" x="153" y="79" width="57" height="53">
<path d="M155.4 107.888C147.127 90.5997 165.559 72.6992 182.597 81.4733L206.313 93.6857C210.151 95.6619 210.709 100.922 207.371 103.66L174.508 130.607C171.499 133.075 166.972 132.068 165.292 128.557L155.4 107.888Z" fill="#FDA5AB"/>
</mask>
<g mask="url(#mask1_371_489)">
<rect width="62.5511" height="16.1017" transform="matrix(-0.779301 0.626649 0.626649 0.779301 205.549 85.6519)" fill="#FEEFF0"/>
</g>
<path d="M141.611 78.8019C142.113 81.3449 142.164 84.0198 141.758 86.5982C141.351 89.1777 140.504 91.5564 139.312 93.5441C138.12 95.5326 136.635 97.0431 135.021 98.0087C133.416 98.9691 131.714 99.3737 130.042 99.2434C128.366 99.113 126.684 98.4423 125.137 97.2128C123.584 95.9788 122.217 94.2186 121.19 92.0353C120.162 89.8534 119.519 87.3433 119.333 84.7125C119.146 82.0822 119.423 79.4361 120.133 76.9989" stroke="white" stroke-width="4"/>
<path opacity="0.2" d="M150.862 97.0369L164.159 125.756L165.269 128.239C167.071 132.272 172.45 133.074 175.351 129.742V129.742" stroke="#FB8297"/>
<path opacity="0.2" d="M112.747 58.4608C112.712 53.1895 116.975 48.8975 122.247 48.8975H144.019C149.34 48.8975 153.623 53.2674 153.517 58.5874L153.184 75.2444C152.947 87.0705 144.1 97.0139 132.393 98.7356C131.878 98.8112 131.351 98.8067 130.839 98.7214C120.526 97.0025 112.944 88.1132 112.875 77.658L112.747 58.4608Z" fill="#FB725D" stroke="#FB8297"/>
<path d="M112.247 52.094C112.21 46.5452 116.698 42.0273 122.247 42.0273H144.019C149.62 42.0273 154.129 46.6273 154.017 52.2273L153.675 69.3131C153.429 81.6274 145.544 92.4871 133.91 96.5335L133.659 96.621C132.132 97.1522 130.463 97.1091 128.966 96.4999C118.997 92.4449 112.451 82.7856 112.38 72.024L112.247 52.094Z" fill="#FCC4BF"/>
<ellipse cx="127.25" cy="76.5925" rx="1.25" ry="1.59247" fill="#2D3145"/>
<ellipse cx="138.272" cy="76.5925" rx="1.25" ry="1.59247" fill="#2D3145"/>
<path fill-rule="evenodd" clip-rule="evenodd" d="M77.4741 142.618C81.6116 142.445 85.5936 140.993 88.8705 138.461L101.619 128.609C103.501 127.155 106.148 127.228 107.947 128.784L114.041 134.055C115.76 135.542 117.72 136.724 119.836 137.552L122.379 138.547C123.335 138.921 123.964 139.843 123.964 140.87C123.964 142.244 122.902 143.384 121.532 143.482L116.624 143.832C112.802 144.105 109.4 142.905 106.765 140.123C105.018 140.578 103.696 142.009 103.379 143.786L102.859 146.703C102.32 149.724 103.443 152.801 105.8 154.766C108.265 156.819 111.409 157.874 114.614 157.721L121.723 157.383C127.149 157.003 128.741 163.692 126.512 164.647C129.697 164.329 129.378 170.698 126.512 171.335C128.741 171.654 128.104 174.52 125.556 176.75C126.83 178.342 124.192 180.717 121.995 181.464L120.035 182.13C113.226 184.446 105.918 184.882 98.881 183.393L76.5084 178.661L76.1899 142.671L77.4741 142.618Z" fill="#FCC4BF"/>
<path d="M126.831 164.966C121.416 166.877 108.995 167.195 101.988 164.966" stroke="#F9A2A2" stroke-linecap="round"/>
<path d="M126.512 171.973C121.098 172.928 108.995 173.884 102.625 171.973" stroke="#F9A2A2" stroke-linecap="round"/>
<path d="M125.238 177.387C121.098 178.661 112.817 181.209 102.307 178.98" stroke="#F9A2A2" stroke-linecap="round"/>
<path fill-rule="evenodd" clip-rule="evenodd" d="M191.47 142.386C187.765 142.113 184.209 140.814 181.2 138.634L168.353 129.325C166.474 127.963 163.904 128.073 162.149 129.592L155.958 134.946C154.239 136.432 152.28 137.615 150.163 138.443L147.621 139.438C146.665 139.812 146.036 140.734 146.036 141.76C146.036 143.134 147.097 144.274 148.468 144.372L153.375 144.723C157.197 144.996 160.599 143.795 163.234 141.014C164.981 141.469 166.304 142.899 166.621 144.676L167.141 147.594C167.679 150.615 166.556 153.692 164.199 155.656C161.735 157.71 158.59 158.765 155.386 158.612L148.276 158.274C144.193 158.079 140.965 162.034 142.557 165.219C142.557 165.219 139.054 168.723 142.557 172.226C140.965 175.411 143.784 177.441 143.784 177.441C144.19 179.725 145.807 181.608 148.004 182.355L149.964 183.021C156.774 185.336 164.082 185.773 171.118 184.284L193.491 179.551L194.471 142.606L191.47 142.386Z" fill="#FCC4BF"/>
<path d="M181.611 138.531C188.618 145.538 224.926 138.531 235.118 146.175" stroke="#F9A2A2" stroke-linecap="round"/>
<path d="M107.599 56.8643C106.817 51.7471 108.63 46.3463 112.817 43.3016L117.381 40.0415C124.315 35.0889 133.206 33.7711 141.278 36.4997L144.968 37.7471C148.871 39.0664 152.139 41.7995 154.127 45.4079C157.58 51.6748 157.565 59.1759 155.44 66.0086C154.328 69.5837 153.528 73.3591 153.903 76.1064C153.584 76.1064 150.718 75.7879 150.718 75.7879C150.718 75.7879 150.661 66.9437 145.94 65.2776C140.526 63.3666 131.115 65.5059 123.327 64.6406C117.594 64.0036 116.32 57.9522 116.32 57.9522C116.32 57.9522 117.913 64.0036 116.32 66.8701C113.369 72.1825 116.32 72.6029 116.32 76.7433C115.98 76.7433 114.091 76.7433 114.091 76.7433H112.817C112.817 76.7433 108.988 76.7433 108.676 76.7433C108.979 68.5667 108.346 61.7578 107.599 56.8643Z" fill="#283542"/>
<path d="M112.499 71.6492C111.425 67.9813 110.329 67.6384 108.953 68.2145C108.302 68.7389 107.76 69.3865 107.358 70.1204C106.957 70.8542 106.704 71.66 106.614 72.4916C106.524 73.3233 106.598 74.1645 106.833 74.9673C107.068 75.7701 107.459 76.5188 107.984 77.1705C108.508 77.8223 109.155 78.3643 109.889 78.7658C110.623 79.1673 111.429 79.4203 112.261 79.5103C113.092 79.6004 113.933 79.5258 114.736 79.2908L112.946 73.1775L112.499 71.6492Z" fill="#FCC4BF"/>
<path d="M153.097 71.0388C154.086 67.3471 155.174 66.9791 156.562 67.5234C157.226 68.0326 157.783 68.6676 158.201 69.392C158.619 70.1165 158.891 70.9162 159 71.7455C159.109 72.5749 159.054 73.4176 158.837 74.2256C158.621 75.0336 158.247 75.791 157.738 76.4547C157.229 77.1183 156.594 77.6752 155.869 78.0934C155.145 78.5117 154.345 78.7831 153.516 78.8923C152.687 79.0015 151.844 78.9463 151.036 78.7298L152.685 72.577L153.097 71.0388Z" fill="#FCC4BF"/>
<rect x="145.303" y="142.671" width="15.2877" height="15.2877" rx="4" fill="#EC1B2E"/>
<rect x="117.276" y="145.856" width="15.2877" height="2.54795" rx="1.27397" fill="#5C6E80"/>
<rect x="117.276" y="153.5" width="15.2877" height="2.54795" rx="1.27397" fill="#5C6E80"/>
<rect x="112.18" y="143.308" width="15.2877" height="15.2877" rx="4" fill="#EC1B2E"/>
<rect x="145.94" y="143.945" width="3.82192" height="12.7397" rx="1.91096" fill="white"/>
<rect x="146.577" y="145.219" width="2.54795" height="3.82192" rx="1.27397" fill="#283542"/>
<rect x="146.577" y="152.226" width="2.54795" height="3.82192" rx="1.27397" fill="#283542"/>
<path d="M160.591 147.767C161.294 147.767 161.865 148.337 161.865 149.041V151.589C161.865 152.293 161.294 152.863 160.591 152.863V147.767Z" fill="#2D3145"/>
<path d="M112.18 148.404C111.476 148.404 110.906 148.975 110.906 149.678V152.226C110.906 152.93 111.476 153.5 112.18 153.5V148.404Z" fill="#2D3145"/>
<rect x="129.378" y="86.6162" width="6.36986" height="1" rx="0.5" fill="#2D3145"/>
<rect x="122.372" y="71.9658" width="7.00685" height="2" rx="1" transform="rotate(-26.3936 122.372 71.9658)" fill="#2D3145"/>
<rect width="7.00685" height="2" rx="1" transform="matrix(-0.895762 -0.444534 -0.444534 0.895762 142.457 71.8955)" fill="#2D3145"/>
<ellipse opacity="0.1" cx="119.505" cy="82.7943" rx="3.50342" ry="3.18493" fill="#EC1B2E"/>
<ellipse opacity="0.1" cx="31.9993" cy="168.32" rx="5.73288" ry="3.18493" transform="rotate(56.6342 31.9993 168.32)" fill="#EC1B2E"/>
<path opacity="0.1" d="M112.096 139.25C111.492 138.217 112.728 136.78 112.728 136.78C112.728 136.78 114.797 134.547 115.304 135.415C115.811 136.282 114.81 137.627 114.81 137.627C114.81 137.627 112.604 140.117 112.096 139.25Z" fill="#EC1B2E"/>
<path opacity="0.1" d="M157.315 139.659C156.159 139.968 155.1 138.396 155.1 138.396C155.1 138.396 153.494 135.811 154.464 135.551C155.435 135.291 156.467 136.612 156.467 136.612C156.467 136.612 158.286 139.398 157.315 139.659Z" fill="#EC1B2E"/>
<ellipse opacity="0.1" cx="239.678" cy="163.047" rx="5.73288" ry="3.18493" transform="rotate(105 239.678 163.047)" fill="#EC1B2E"/>
<ellipse opacity="0.1" cx="144.985" cy="82.7943" rx="3.50342" ry="3.18493" fill="#EC1B2E"/>
<path d="M142.755 164.329C148.17 166.24 160.591 166.558 167.598 164.329" stroke="#F9A2A2" stroke-linecap="round"/>
<path d="M143.074 171.335C148.488 172.291 160.591 173.246 166.961 171.335" stroke="#F9A2A2" stroke-linecap="round"/>
<path d="M144.348 176.75C148.488 178.024 156.769 180.572 167.279 178.342" stroke="#F9A2A2" stroke-linecap="round"/>
<path opacity="0.2" d="M82.5601 142.034L84.7895 139.168L51.2432 140.716C46.0398 140.956 40.9109 142.047 36.0601 143.945C36.0601 143.945 41.4751 142.427 45.6149 142.353C63.4505 142.034 82.5601 142.034 82.5601 142.034Z" fill="#FB725D" stroke="#FB8297"/>
<path opacity="0.2" d="M35.7287 144.325V144.325C39.7006 143.102 43.831 142.47 47.987 142.451L82.254 142.291" stroke="#EC1B2E" stroke-linecap="round"/>
</svg>
