<svg width="24" height="24" viewBox="0 0 24 24" fill="none" xmlns="http://www.w3.org/2000/svg">
<path fill-rule="evenodd" clip-rule="evenodd" d="M3 5C3 3.89543 3.89543 3 5 3H19C20.1046 3 21 3.89543 21 5V19C21 20.1046 20.1046 21 19 21H5C3.89543 21 3 20.1046 3 19V5ZM6 8.5C6 8.22386 6.22386 8 6.5 8H17.5C17.7761 8 18 8.22386 18 8.5V9.5C18 9.77614 17.7761 10 17.5 10H6.5C6.22386 10 6 9.77614 6 9.5V8.5ZM6.5 13C6.22386 13 6 13.2239 6 13.5V14.5C6 14.7761 6.22386 15 6.5 15H13.5C13.7761 15 14 14.7761 14 14.5V13.5C14 13.2239 13.7761 13 13.5 13H6.5Z" fill="#DA3738"/>
</svg>
