<svg width="24" height="24" viewBox="0 0 24 24" fill="none" xmlns="http://www.w3.org/2000/svg">
<path d="M10.5257 2.60834C11.3184 1.7436 12.6816 1.7436 13.4743 2.60834L22.232 12.1621C22.5259 12.4828 22.2984 13 21.8634 13H2.13662C1.70156 13 1.47406 12.4828 1.76804 12.1621L10.5257 2.60834Z" fill="#676666"/>
<path fill-rule="evenodd" clip-rule="evenodd" d="M20 12H4V20C4 21.1046 4.89543 22 6 22H10V16.5C10 16.2239 10.2239 16 10.5 16H13.5C13.7761 16 14 16.2239 14 16.5V22H18C19.1046 22 20 21.1046 20 20V12Z" fill="#676666"/>
</svg>
