<svg width="24" height="24" viewBox="0 0 24 24" fill="none" xmlns="http://www.w3.org/2000/svg">
<path fill-rule="evenodd" clip-rule="evenodd" d="M7.6001 4.15576H3.2001C1.98507 4.15576 1.0001 5.09832 1.0001 6.26102V8.36629C1.0001 10.6917 2.97004 12.5768 5.4001 12.5768H7.6001V4.15576ZM5.4001 6.26102V10.4716C4.18507 10.4716 3.2001 9.52899 3.2001 8.36629V6.26102H5.4001Z" fill="#676666"/>
<rect x="10.8999" y="13.6294" width="2.2" height="7.36842" fill="#676666"/>
<path d="M5.3999 20.9979C5.3999 20.4166 5.87118 19.9453 6.45253 19.9453H17.5473C18.1286 19.9453 18.5999 20.4166 18.5999 20.9979C18.5999 21.5793 18.1286 22.0506 17.5473 22.0506H6.45253C5.87118 22.0506 5.3999 21.5793 5.3999 20.9979Z" fill="#676666"/>
<path fill-rule="evenodd" clip-rule="evenodd" d="M5.83993 2.05029C5.59698 2.05029 5.40002 2.24725 5.40002 2.4902V10.1871C5.40002 13.8322 8.35494 16.7871 12 16.7871C15.6451 16.7871 18.6 13.8322 18.6 10.1871V2.4902C18.6 2.24725 18.4031 2.05029 18.1601 2.05029H5.83993ZM12.1818 6.00132C12.0945 5.87312 11.9055 5.87312 11.8182 6.00132L10.9802 7.23152L9.55622 7.65389C9.40845 7.69773 9.35039 7.87601 9.44402 7.99845L10.35 9.18321L10.3092 10.676C10.305 10.8307 10.4575 10.9413 10.6032 10.8892L12 10.3894L13.3968 10.8892C13.5425 10.9413 13.695 10.8307 13.6908 10.676L13.65 9.18321L14.556 7.99845C14.6496 7.87601 14.5916 7.69773 14.4438 7.65389L13.0198 7.23152L12.1818 6.00132Z" fill="#676666"/>
<path fill-rule="evenodd" clip-rule="evenodd" d="M16.3999 4.15576H20.7999C22.0149 4.15576 22.9999 5.09832 22.9999 6.26102V8.36629C22.9999 10.6917 21.03 12.5768 18.5999 12.5768H16.3999V4.15576ZM18.5999 6.26102V10.4716C19.8149 10.4716 20.7999 9.52899 20.7999 8.36629V6.26102H18.5999Z" fill="#676666"/>
</svg>
