<svg width="24" height="24" viewBox="0 0 24 24" fill="none" xmlns="http://www.w3.org/2000/svg">
<path fill-rule="evenodd" clip-rule="evenodd" d="M7.6001 4.10547H3.2001C1.98507 4.10547 1.0001 5.04803 1.0001 6.21073V8.316C1.0001 10.6414 2.97004 12.5265 5.4001 12.5265H7.6001V4.10547ZM5.4001 6.21073V10.4213C4.18507 10.4213 3.2001 9.4787 3.2001 8.316V6.21073H5.4001Z" fill="#DA3738"/>
<rect x="10.8999" y="13.5791" width="2.2" height="7.36842" fill="#DA3738"/>
<path d="M5.3999 20.9477C5.3999 20.3663 5.87118 19.895 6.45253 19.895H17.5473C18.1286 19.895 18.5999 20.3663 18.5999 20.9477C18.5999 21.529 18.1286 22.0003 17.5473 22.0003H6.45253C5.87118 22.0003 5.3999 21.529 5.3999 20.9477Z" fill="#DA3738"/>
<path fill-rule="evenodd" clip-rule="evenodd" d="M5.83993 2C5.59698 2 5.40002 2.19695 5.40002 2.43991V10.1368C5.40002 13.7819 8.35494 16.7368 12 16.7368C15.6451 16.7368 18.6 13.7819 18.6 10.1368V2.43991C18.6 2.19695 18.4031 2 18.1601 2H5.83993ZM12.1818 5.95103C12.0945 5.82283 11.9055 5.82283 11.8182 5.95103L10.9802 7.18123L9.55622 7.6036C9.40845 7.64743 9.35039 7.82571 9.44402 7.94816L10.35 9.13292L10.3092 10.6257C10.305 10.7804 10.4575 10.891 10.6032 10.8389L12 10.3391L13.3968 10.8389C13.5425 10.891 13.695 10.7804 13.6908 10.6257L13.65 9.13292L14.556 7.94816C14.6496 7.82571 14.5916 7.64743 14.4438 7.6036L13.0198 7.18123L12.1818 5.95103Z" fill="#DA3738"/>
<path fill-rule="evenodd" clip-rule="evenodd" d="M16.4 4.10547H20.8C22.0151 4.10547 23 5.04803 23 6.21073V8.316C23 10.6414 21.0301 12.5265 18.6 12.5265H16.4V4.10547ZM18.6 6.21073V10.4213C19.8151 10.4213 20.8 9.4787 20.8 8.316V6.21073H18.6Z" fill="#DA3738"/>
</svg>
