<svg width="24" height="24" viewBox="0 0 24 24" fill="none" xmlns="http://www.w3.org/2000/svg">
<path fill-rule="evenodd" clip-rule="evenodd" d="M5 3C3.89543 3 3 3.89543 3 5V19C3 20.1046 3.89543 21 5 21H19C20.1046 21 21 20.1046 21 19V17H11C9.89543 17 9 16.1046 9 15V9C9 7.89543 9.89543 7 11 7H21V5C21 3.89543 20.1046 3 19 3H5Z" fill="#DA3738"/>
<path fill-rule="evenodd" clip-rule="evenodd" d="M12 9C11.4477 9 11 9.44772 11 10V14C11 14.5523 11.4477 15 12 15H21V9H12ZM14 13C14.5523 13 15 12.5523 15 12C15 11.4477 14.5523 11 14 11C13.4477 11 13 11.4477 13 12C13 12.5523 13.4477 13 14 13Z" fill="#DA3738"/>
</svg>
