<svg width="35" height="35" viewBox="0 0 35 35" fill="none" xmlns="http://www.w3.org/2000/svg">
<path fill-rule="evenodd" clip-rule="evenodd" d="M17.5 35C27.165 35 35 27.165 35 17.5C35 7.83502 27.165 0 17.5 0C7.83502 0 0 7.83502 0 17.5C0 27.165 7.83502 35 17.5 35Z" fill="#EEF9E4"/>
<path fill-rule="evenodd" clip-rule="evenodd" d="M11.2845 16.6053H14.752L14.7519 16.6052C15.4585 16.6052 16.0364 16.0882 16.0575 15.4328V12.1928C16.0575 11.5366 15.4796 11 14.773 11H11.2845C10.5779 11 10 11.5366 10 12.1928V15.4125C10 16.0687 10.5779 16.6053 11.2845 16.6053ZM19.3325 16.6053H22.8217L22.8217 16.6052C23.5275 16.6052 24.1055 16.0882 24.1055 15.4328V12.1928C24.1055 11.5366 23.5275 11 22.821 11H19.3325C18.6259 11 18.048 11.5366 18.048 12.1928V15.4125C18.048 16.0687 18.6259 16.6053 19.3325 16.6053ZM14.7952 23.8999H11.306C10.5994 23.8999 10.0215 23.3633 10.0215 22.7072L10.0222 19.4874C10.0222 18.8313 10.6001 18.2947 11.3067 18.2947H14.7952C15.5018 18.2947 16.0797 18.8313 16.0797 19.4874V22.7267C16.0579 23.3632 15.48 23.8999 14.7952 23.8999L14.7952 23.8999ZM19.3753 23.8999H22.8428V23.8999C23.5494 23.8999 24.1273 23.3632 24.1273 22.7274V19.4881C24.1273 18.832 23.5494 18.2954 22.8428 18.2954L19.3753 18.2947C18.6687 18.2947 18.0908 18.8313 18.0908 19.4874V22.7072C18.0908 23.3633 18.6687 23.8999 19.3753 23.8999Z" fill="#73C20E"/>
</svg>
