<svg width="35" height="35" viewBox="0 0 35 35" fill="none" xmlns="http://www.w3.org/2000/svg">
<path d="M17.5 35C27.165 35 35 27.165 35 17.5C35 7.83502 27.165 0 17.5 0C7.83502 0 0 7.83502 0 17.5C0 27.165 7.83502 35 17.5 35Z" fill="#EEF9E4"/>
<path fill-rule="evenodd" clip-rule="evenodd" d="M12.464 23.3857C11.727 23.3857 11.124 23.9977 11.124 24.7457C11.124 25.4937 11.727 26.1057 12.464 26.1057C13.201 26.1057 13.804 25.4937 13.804 24.7457C13.804 23.9977 13.201 23.3857 12.464 23.3857ZM22.761 23.3857C22.024 23.3857 21.421 23.9977 21.421 24.7457C21.421 25.4937 22.024 26.1057 22.761 26.1057C23.498 26.1057 24.101 25.4937 24.101 24.7457C24.101 23.9977 23.498 23.3857 22.761 23.3857Z" fill="#73C20E"/>
<path d="M10 10.6279H11.886L14.286 21.4109H23.543" stroke="#73C20E" stroke-width="2" stroke-linecap="round" stroke-linejoin="round"/>
<path fill-rule="evenodd" clip-rule="evenodd" d="M12.9141 13.0635H24.2301L22.5151 17.2375L14.2871 18.9765L12.9141 13.0635Z" fill="#73C20E" stroke="#73C20E" stroke-width="2" stroke-linecap="round" stroke-linejoin="round"/>
</svg>
