<svg width="20" height="16" viewBox="0 0 20 16" fill="none" xmlns="http://www.w3.org/2000/svg">
<g id="icon_Campaign" opacity="0.5">
<path id="Shape" d="M19.4141 7.03125H17.6562C17.3327 7.03125 17.0703 7.29359 17.0703 7.61719C17.0703 7.94078 17.3327 8.20312 17.6562 8.20312H19.4141C19.7377 8.20312 20 7.94078 20 7.61719C20 7.29359 19.7377 7.03125 19.4141 7.03125Z" fill="white"/>
<path id="Shape_2" d="M18.6565 10.7185L17.4847 9.54659C17.2559 9.3178 16.8849 9.3178 16.656 9.54659C16.4272 9.77538 16.4272 10.1464 16.656 10.3752L17.8279 11.5471C18.0567 11.7759 18.4277 11.7759 18.6565 11.5471C18.8854 11.3183 18.8854 10.9473 18.6565 10.7185Z" fill="white"/>
<path id="Shape_3" d="M18.6565 3.68722C18.4277 3.45843 18.0567 3.45843 17.8279 3.68722L16.656 4.85909C16.4272 5.08792 16.4272 5.4589 16.656 5.68772C16.8848 5.91655 17.2558 5.91651 17.4846 5.68772L18.6565 4.51585C18.8853 4.28702 18.8853 3.91604 18.6565 3.68722Z" fill="white"/>
<path id="Shape_4" fill-rule="evenodd" clip-rule="evenodd" d="M11.8165 1.49547C11.9436 0.650195 12.6746 0 13.5547 0C14.5239 0 15.3125 0.788555 15.3125 1.75781V12.3047C15.3125 13.2739 14.5239 14.0625 13.5547 14.0625C12.6746 14.0625 11.9436 13.4123 11.8165 12.567L11.282 12.0325C10.3517 11.1023 8.98172 10.5469 7.61719 10.5469H7.03125V13.4766C7.03125 14.4458 6.2427 15.2344 5.27348 15.2344C4.30422 15.2344 3.51562 14.4458 3.51562 13.4766V10.4461C3.01703 10.2693 2.62137 9.87359 2.44453 9.375H2.34375C1.05141 9.375 0 8.32359 0 7.03125C0 5.73891 1.05141 4.6875 2.34375 4.6875H2.44453C2.68641 4.00551 3.3377 3.51562 4.10156 3.51562H7.61719C8.98176 3.51562 10.3518 2.96023 11.282 2.02996L11.8165 1.49547ZM1.17188 7.03125C1.17188 7.67742 1.69758 8.20312 2.34375 8.20312V5.85938C1.69758 5.85938 1.17188 6.38508 1.17188 7.03125ZM5.85938 13.4766C5.85938 13.7996 5.59652 14.0625 5.27344 14.0625C4.95035 14.0625 4.6875 13.7996 4.6875 13.4766V10.5469H5.85938V13.4766ZM4.10156 9.375H7.03125V4.6875H4.10156C3.77848 4.6875 3.51562 4.95035 3.51562 5.27344V8.78906C3.51562 9.11215 3.77848 9.375 4.10156 9.375ZM11.7969 10.912C10.807 10.0552 9.5343 9.52293 8.19922 9.40156L8.19926 4.6609C9.5343 4.53957 10.807 4.00727 11.7969 3.15051V10.912ZM13.5547 12.8906C13.8778 12.8906 14.1406 12.6278 14.1406 12.3047V1.75781C14.1406 1.43473 13.8778 1.17188 13.5547 1.17188C13.2316 1.17188 12.9688 1.43473 12.9688 1.75781V12.3047C12.9688 12.6278 13.2316 12.8906 13.5547 12.8906H13.5547Z" fill="white"/>
</g>
</svg>
