<svg width="16" height="16" viewBox="0 0 16 16" fill="none" xmlns="http://www.w3.org/2000/svg">
<path d="M14.6312 6.11931C14.5452 5.86731 14.3178 5.68931 14.0525 5.66865L10.2518 5.36665L8.60716 1.72598C8.49982 1.48665 8.26182 1.33331 7.99982 1.33331C7.73782 1.33331 7.49982 1.48665 7.39249 1.72531L5.74782 5.36665L1.94716 5.66865C1.68649 5.68931 1.46182 5.86065 1.37316 6.10665C1.28449 6.35265 1.34716 6.62798 1.53449 6.81065L4.34316 9.54865L3.34982 13.85C3.28849 14.116 3.39582 14.3926 3.62049 14.548C3.73516 14.6266 3.86716 14.6666 3.99982 14.6666C4.12849 14.6666 4.25782 14.6293 4.36982 14.5546L7.99982 12.1346L11.6298 14.5546C11.8618 14.7093 12.1665 14.7033 12.3932 14.5386C12.6185 14.374 12.7178 14.0853 12.6412 13.8173L11.4218 9.55065L14.4458 6.82931C14.6438 6.65065 14.7165 6.37198 14.6312 6.11931Z" fill="white"/>
</svg>
