<svg width="15" height="15" viewBox="0 0 15 15" fill="none" xmlns="http://www.w3.org/2000/svg">
<path d="M1.35312 12.2194C1.46937 12.3944 1.665 12.5 1.875 12.5H11.25C11.5 12.5 11.7263 12.3512 11.8244 12.1212L13.6994 7.74625C13.7825 7.55313 13.7625 7.33187 13.6469 7.15625C13.5306 6.98062 13.335 6.875 13.125 6.875H12.5V5C12.5 4.31062 11.9394 3.75 11.25 3.75H6.46563L4.86813 2.5H2.5C1.81062 2.5 1.25 3.06062 1.25 3.75V11.875H1.25437C1.25437 11.995 1.285 12.1156 1.35312 12.2194ZM4.4375 3.75L6.035 5H11.25V6.875H3.75C3.5 6.875 3.27375 7.02375 3.17562 7.25375L2.5 8.83062V3.75H4.4375Z" fill="white"/>
</svg>
