<svg width="16" height="16" viewBox="0 0 16 16" fill="none" xmlns="http://www.w3.org/2000/svg">
<path d="M2 3.33333V12.6667C2 13.4027 2.59733 14 3.33333 14H12.6667C13.4027 14 14 13.4027 14 12.6667V3.33333C14 2.59733 13.4027 2 12.6667 2H3.33333C2.59733 2 2 2.59733 2 3.33333ZM6.66667 4.66667H12V6H6.66667V4.66667ZM6.66667 7.33333H12V8.66667H6.66667V7.33333ZM6.66667 10H12V11.3333H6.66667V10ZM4 4.66667H5.33333V6H4V4.66667ZM4 7.33333H5.33333V8.66667H4V7.33333ZM4 10H5.33333V11.3333H4V10Z" fill="white"/>
</svg>
