<svg width="12" height="12" viewBox="0 0 12 12" fill="none" xmlns="http://www.w3.org/2000/svg">
<path d="M7.78846 7.37407L6.64425 8.51797C6.24653 8.44286 5.44903 8.19341 4.6274 7.37407C3.80508 6.55197 3.55694 5.75192 3.4825 5.35776L4.6274 4.21385L5.11059 3.73079L1.3788 0L0.895606 0.48306L0.20632 1.17216C0.0863848 1.29206 0.014699 1.45056 0.00573824 1.61939C-0.00460105 1.79166 -0.202426 5.87252 2.96346 9.03824C5.72474 11.7981 9.18358 12 10.1362 12C10.2754 12 10.3609 11.9959 10.3829 11.9945C10.5518 11.9848 10.711 11.9139 10.8303 11.794L11.5196 11.1049L12 10.6246L8.26821 6.89376L7.78846 7.37407Z" fill="white"/>
</svg>
