<svg width="160" height="153" viewBox="0 0 160 153" fill="none" xmlns="http://www.w3.org/2000/svg">
<path d="M77.5202 124.107C104.343 124.107 126.087 102.43 126.087 75.691C126.087 48.9516 104.343 27.275 77.5202 27.275C50.6976 27.275 28.9536 48.9516 28.9536 75.691C28.9536 102.43 50.6976 124.107 77.5202 124.107Z" fill="#004699"/>
<path d="M106.759 90.3944V85.8782C106.755 85.7524 106.703 85.6329 106.613 85.5438C106.524 85.4548 106.404 85.403 106.278 85.3988H105.493C105.367 85.403 105.247 85.4548 105.158 85.5438C105.068 85.6328 105.016 85.7523 105.012 85.8782V90.3944H106.759Z" fill="white"/>
<path d="M53.1452 90.9815C51.0435 90.9815 50.1065 92.3193 50.1065 92.3193L49.904 91.5876C49.8858 91.4875 49.8326 91.3971 49.7538 91.3325C49.675 91.2678 49.5758 91.233 49.4738 91.2344H48.9923C48.8661 91.2386 48.7462 91.2904 48.6569 91.3794C48.5676 91.4684 48.5156 91.588 48.5115 91.7138V100.852C48.5156 100.978 48.5676 101.098 48.6569 101.187C48.7462 101.276 48.8661 101.328 48.9923 101.332H49.7769C49.9033 101.328 50.0233 101.276 50.1127 101.187C50.2021 101.098 50.2542 100.978 50.2583 100.852V94.1124C50.2583 94.1124 51.0941 92.6983 53.0193 92.6983C53.3585 92.7011 53.6939 92.7697 54.0069 92.9002C54.26 93.0017 54.4877 93.0017 54.6143 92.6708L54.9186 91.8107C55.1711 91.1077 53.9051 90.9815 53.1452 90.9815Z" fill="white"/>
<path d="M59.9079 90.9815C56.8433 90.9815 54.9446 93.4306 54.9446 96.2827C54.9446 99.1859 56.8427 101.584 59.9079 101.584C61.6548 101.584 63.0226 100.903 63.63 100.423C64.0097 100.146 63.909 99.9938 63.7318 99.7668C63.5794 99.5649 63.4529 99.3883 63.301 99.1859C63.0985 98.9084 62.9467 99.0351 62.5918 99.2369C62.0097 99.5902 61.1486 99.9938 60.0851 99.9938C58.2876 99.9938 56.7927 98.4038 56.6914 96.7122H63.9843C64.1003 96.7101 64.2113 96.6649 64.2956 96.5854C64.3798 96.506 64.4313 96.398 64.4399 96.2827C64.4693 96.0568 64.4862 95.8293 64.4905 95.6015C64.4911 92.9501 62.5665 90.9815 59.9079 90.9815ZM56.7173 95.301C56.8939 93.7356 58.2128 92.524 59.9079 92.524C61.4529 92.524 62.6689 93.8366 62.7442 95.301H56.7173Z" fill="white"/>
<path d="M78.8989 91.2344H78.1137C77.9113 91.2344 77.7335 91.3606 77.6829 91.5119L75.8595 98.2019H75.8342L72.9985 91.2344C72.9473 91.1077 72.7955 90.9815 72.5677 90.9815H72.4412C72.2111 90.9815 72.061 91.1077 72.0103 91.2344L69.1493 98.1767H69.124L67.2799 91.5119C67.2293 91.3606 67.0499 91.2344 66.8244 91.2344H66.0392C65.659 91.2344 65.5578 91.4638 65.659 91.8147L68.4694 101.333C68.5206 101.485 68.6725 101.586 68.9003 101.586H69.0274C69.2575 101.586 69.407 101.459 69.4576 101.333L72.4486 93.7597L75.538 101.333C75.5886 101.459 75.7411 101.586 75.9683 101.586H76.0948C76.2978 101.586 76.475 101.485 76.5256 101.333L79.2865 91.8147C79.382 91.4592 79.2808 91.2344 78.8989 91.2344Z" fill="white"/>
<path d="M85.1821 90.9815C83.284 90.9815 81.8138 91.5624 81.6619 91.6381C81.4318 91.739 81.2823 91.8904 81.3835 92.1937L81.586 92.8245C81.6619 93.0538 81.8161 93.1777 82.0674 93.0768C83.0402 92.7168 84.0686 92.5289 85.1062 92.5217C86.5493 92.5217 86.7777 93.3818 86.7518 95.2483C86.7518 95.2483 85.6883 94.9197 84.6 94.9197C81.9915 94.9197 80.5483 96.359 80.5483 98.2776C80.5483 100.297 81.8903 101.584 83.663 101.584C85.2327 101.584 86.2709 100.802 86.803 100.272L87.0055 100.953C87.0814 101.183 87.1573 101.332 87.4357 101.332H87.9172C88.0434 101.328 88.1633 101.276 88.2526 101.187C88.3419 101.098 88.3939 100.978 88.398 100.852V95.2483C88.398 92.2941 87.7653 90.9815 85.1821 90.9815ZM86.7265 98.6561C86.2963 99.2868 85.2074 100.07 83.9414 100.07C82.8526 100.07 82.1687 99.2874 82.1687 98.2776C82.1687 96.9645 83.181 96.2581 84.6 96.2581C85.7136 96.2581 86.4228 96.4874 86.7282 96.6595L86.7265 98.6561Z" fill="white"/>
<path d="M95.4143 90.9815C93.3125 90.9815 92.3755 92.3193 92.3755 92.3193L92.1731 91.5876C92.1548 91.4875 92.1016 91.3971 92.0228 91.3325C91.9441 91.2678 91.8449 91.233 91.7428 91.2344H91.2614C91.1352 91.2386 91.0153 91.2904 90.926 91.3794C90.8367 91.4684 90.7847 91.588 90.7805 91.7138V100.852C90.7845 100.978 90.8365 101.098 90.9258 101.187C91.0151 101.276 91.1351 101.328 91.2614 101.332H92.0459C92.1724 101.328 92.2925 101.276 92.382 101.187C92.4715 101.098 92.5236 100.978 92.528 100.852V94.1124C92.528 94.1124 93.3631 92.6983 95.2889 92.6983C95.6281 92.7011 95.9636 92.7696 96.2765 92.9002C96.5302 93.0017 96.7574 93.0017 96.8839 92.6708L97.1882 91.8107C97.4407 91.1077 96.1741 90.9815 95.4143 90.9815Z" fill="white"/>
<path d="M105.013 91.638C105.013 91.638 103.977 90.9815 102.303 90.9815C99.2643 90.9815 97.4415 93.3044 97.4415 96.2569C97.4415 99.1595 99.4668 101.583 102.05 101.583C103.948 101.583 105.165 100.246 105.165 100.246L105.317 100.927C105.367 101.156 105.52 101.328 105.747 101.328H106.278C106.405 101.324 106.524 101.272 106.614 101.183C106.703 101.094 106.755 100.974 106.759 100.848V90.3943H105.013V91.638ZM104.987 98.3275C104.987 98.3275 104.051 99.9938 102.226 99.9938C100.377 99.9938 99.2131 98.2523 99.2131 96.2827C99.2131 94.2637 100.327 92.6731 102.53 92.6731C103.385 92.6797 104.226 92.8874 104.986 93.2791L104.987 98.3275Z" fill="white"/>
<path d="M112.533 95.3009C111.498 94.7957 110.659 94.4172 110.659 93.5841C110.659 93.1546 110.964 92.5743 112.104 92.5743C113.04 92.5743 114.129 93.1798 114.129 93.1798C114.257 93.2432 114.405 93.2548 114.542 93.212C114.679 93.1693 114.794 93.0756 114.863 92.9504L115.066 92.5491C115.218 92.271 115.142 91.9183 114.914 91.7664C114.433 91.4378 113.418 90.9836 112.104 90.9836C109.745 90.9836 108.887 92.5491 108.887 93.6093C108.887 95.3261 110.432 96.2097 111.774 96.8657C113.242 97.5979 114.002 98.0016 114.002 98.8853C114.002 99.567 113.394 100.097 112.356 100.097C111.065 100.097 109.976 99.2132 109.976 99.2132C109.698 99.0372 109.419 99.0877 109.292 99.2895C109.216 99.4157 109.039 99.7689 108.938 99.9203C108.905 100.011 108.9 100.11 108.923 100.204C108.945 100.298 108.994 100.383 109.064 100.45C109.622 100.879 110.659 101.586 112.356 101.586C114.433 101.586 115.851 100.198 115.851 98.7333C115.851 96.9139 114.281 96.1317 112.533 95.3009Z" fill="white"/>
<path d="M60.5447 55.5774C60.5516 55.3698 60.6373 55.1727 60.7846 55.0258C60.9319 54.879 61.1297 54.7935 61.3379 54.7866H65.9302C66.1384 54.7935 66.3362 54.879 66.4835 55.0258C66.6307 55.1727 66.7165 55.3698 66.7234 55.5774V83.1286C66.7164 83.3361 66.6306 83.5332 66.4833 83.68C66.3361 83.8268 66.1384 83.9124 65.9302 83.9194H61.3379C61.1297 83.9124 60.932 83.8268 60.7848 83.68C60.6375 83.5332 60.5517 83.3361 60.5447 83.1286V55.5774Z" fill="white"/>
<path d="M68.9782 68.0254C68.9781 67.9215 68.9986 67.8187 69.0384 67.7227C69.0783 67.6268 69.1367 67.5396 69.2104 67.4661C69.284 67.3927 69.3715 67.3344 69.4678 67.2947C69.564 67.255 69.6672 67.2346 69.7714 67.2347H74.2401C74.3443 67.2346 74.4474 67.255 74.5437 67.2947C74.64 67.3344 74.7274 67.3927 74.8011 67.4661C74.8748 67.5396 74.9332 67.6268 74.973 67.7227C75.0129 67.8187 75.0334 67.9215 75.0333 68.0254V75.7246C75.0333 77.4311 75.9938 78.9294 77.7051 78.9294C79.3334 78.9294 80.21 77.3892 80.21 75.974V68.0254C80.21 67.3591 80.6702 67.2347 81.0866 67.2347H85.3431C85.4472 67.2346 85.5504 67.255 85.6467 67.2947C85.743 67.3344 85.8304 67.3927 85.9041 67.4661C85.9778 67.5396 86.0362 67.6268 86.076 67.7227C86.1159 67.8187 86.1363 67.9215 86.1362 68.0254V83.0912C86.1291 83.2987 86.0432 83.4957 85.896 83.6424C85.7488 83.7892 85.5511 83.8748 85.3431 83.882H83.3805C83.0049 83.882 82.7127 83.5907 82.5873 83.2988L81.9615 81.7592C80.8761 82.7999 79.5399 84.2977 76.3246 84.2977C71.3566 84.2977 68.9771 80.3027 68.9771 75.5583L68.9782 68.0254Z" fill="white"/>
<path d="M88.5658 82.0507L90.0268 79.179C90.1522 78.9296 90.5692 78.6796 90.9034 78.8459C90.9034 78.8459 92.8654 79.9285 94.6606 79.9285C95.0782 79.9285 95.4538 79.6785 95.4538 79.179C95.4538 78.7627 95.2036 78.1801 93.0742 77.4313C89.818 76.3074 88.3984 74.4346 88.3984 71.8543C88.3984 69.0658 90.4024 66.8186 94.9114 66.8186C97.5412 66.8186 99.5451 67.5262 100.464 68.1087C100.839 68.3582 101.132 68.7326 100.881 69.1489L99.3363 71.9793C99.2109 72.2287 98.7939 72.3537 98.4597 72.2287C98.4597 72.2287 96.5392 71.2717 94.9114 71.2717C94.3684 71.2717 93.9911 71.3967 93.9911 71.8543C93.9911 72.2706 94.4512 72.6869 95.8696 73.1857C99.2512 74.3515 101.589 75.6829 101.589 79.0127C101.589 81.9257 99.2512 84.2979 94.5335 84.2979C91.7783 84.2979 89.6909 83.5909 88.8563 82.9246C88.5658 82.6751 88.357 82.4251 88.5658 82.0507Z" fill="white"/>
<path d="M38.2454 65.885C38.2453 65.7812 38.2657 65.6783 38.3055 65.5823C38.3452 65.4863 38.4036 65.3991 38.4772 65.3256C38.5508 65.2521 38.6382 65.1938 38.7345 65.154C38.8307 65.1142 38.9339 65.0937 39.0381 65.0937H49.1005C54.2359 65.0937 58.4532 69.2555 58.4532 74.2918C58.4532 79.4525 54.2359 83.6568 49.1425 83.6568H44.759V93.4375C44.7519 93.6451 44.666 93.8423 44.5187 93.9892C44.3713 94.1361 44.1735 94.2218 43.9652 94.2288H39.0381C38.9339 94.2288 38.8307 94.2083 38.7344 94.1685C38.6381 94.1287 38.5507 94.0704 38.477 93.997C38.4033 93.9235 38.3449 93.8362 38.3051 93.7402C38.2653 93.6442 38.2448 93.5413 38.2449 93.4375L38.2454 65.885ZM48.7249 77.5826C49.1589 77.5853 49.589 77.5021 49.9904 77.3377C50.3919 77.1734 50.7566 76.9313 51.0634 76.6254C51.3703 76.3195 51.6132 75.9559 51.778 75.5557C51.9428 75.1555 52.0263 74.7267 52.0237 74.2941C52.0237 72.5458 50.5201 71.2143 48.7249 71.2143H44.759V77.5826H48.7249Z" fill="white"/>
<path d="M108.592 73.755C111.395 73.755 113.768 76.1198 113.768 78.9157C113.768 81.6572 111.396 83.9686 108.592 83.9686C105.842 83.9686 103.524 81.6572 103.524 78.9157C103.524 76.1198 105.842 73.755 108.592 73.755ZM106.489 67.9492L103.847 52.9534V46.8265C103.847 46.2892 104.332 45.8052 104.871 45.8052H112.42C112.959 45.8052 113.444 46.2892 113.444 46.8265V52.8473L110.802 67.9492C110.748 68.3793 110.263 68.8093 109.778 68.8093H107.513C107.026 68.8093 106.543 68.3798 106.489 67.9492Z" fill="white"/>
<g opacity="0.5">
<path opacity="0.5" d="M89.0223 0H69.4203C69.184 0.000151901 68.9575 0.0937802 68.7904 0.26032C68.6234 0.426859 68.5294 0.652692 68.5293 0.888214V13.1019C68.5292 13.2186 68.5522 13.3342 68.5969 13.442C68.6417 13.5499 68.7073 13.6479 68.79 13.7305C68.8728 13.8131 68.971 13.8786 69.0791 13.9234C69.1873 13.9681 69.3032 13.9912 69.4203 13.9912H89.0223C89.2585 13.9909 89.485 13.8973 89.652 13.7308C89.819 13.5642 89.913 13.3385 89.9133 13.103V0.889361C89.9133 0.653687 89.8195 0.427648 89.6524 0.260893C89.4854 0.0941384 89.2587 0.0003039 89.0223 0V0ZM88.5766 12.6569H69.8684V1.33203H88.5783L88.5766 12.6569Z" fill="#29ABE2"/>
<path opacity="0.5" d="M78.5539 14.4333V15.5434H75.6584C75.5994 15.5434 75.5427 15.5668 75.501 15.6084C75.4592 15.65 75.4358 15.7065 75.4358 15.7653V16.6535C75.4358 16.7124 75.4592 16.7688 75.501 16.8105C75.5427 16.8521 75.5994 16.8754 75.6584 16.8754H82.7862C82.8452 16.8754 82.9019 16.8521 82.9436 16.8105C82.9853 16.7688 83.0088 16.7124 83.0088 16.6535V15.7653C83.0088 15.7065 82.9853 15.65 82.9436 15.6084C82.9019 15.5668 82.8452 15.5434 82.7862 15.5434H79.8907V14.4333H78.5539Z" fill="#29ABE2"/>
<path opacity="0.5" d="M3.43362 39.0407C3.60036 39.0407 3.76027 38.9747 3.87817 38.8571C3.99607 38.7396 4.06231 38.5802 4.06231 38.414V35.4896C4.06231 35.3233 3.99607 35.1639 3.87817 35.0464C3.76027 34.9289 3.60036 34.8628 3.43362 34.8628C3.26688 34.8628 3.10697 34.9289 2.98907 35.0464C2.87117 35.1639 2.80493 35.3233 2.80493 35.4896V38.414C2.80493 38.5802 2.87117 38.7396 2.98907 38.8571C3.10697 38.9747 3.26688 39.0407 3.43362 39.0407Z" fill="#29ABE2"/>
<path opacity="0.5" d="M3.43362 41.7564C3.26688 41.7564 3.10697 41.8224 2.98907 41.9399C2.87117 42.0575 2.80493 42.2169 2.80493 42.3831V46.9784C2.80493 47.1447 2.87117 47.3041 2.98907 47.4216C3.10697 47.5391 3.26688 47.6052 3.43362 47.6052C3.60036 47.6052 3.76027 47.5391 3.87817 47.4216C3.99607 47.3041 4.06231 47.1447 4.06231 46.9784V42.3831C4.06231 42.2169 3.99607 42.0575 3.87817 41.9399C3.76027 41.8224 3.60036 41.7564 3.43362 41.7564Z" fill="#29ABE2"/>
<path opacity="0.5" d="M1.33806 53.0366H15.1675C15.3896 53.0363 15.6026 52.9482 15.7597 52.7916C15.9168 52.635 16.0052 52.4226 16.0055 52.2012V33.8187C16.0054 33.5971 15.917 33.3847 15.7599 33.2279C15.6028 33.0712 15.3897 32.983 15.1675 32.9827H1.33806C1.11579 32.983 0.902712 33.0712 0.745595 33.2279C0.588478 33.3847 0.500152 33.5971 0.5 33.8187L0.5 52.2012C0.500304 52.4226 0.588697 52.635 0.745798 52.7916C0.902898 52.9482 1.11588 53.0363 1.33806 53.0366ZM1.75738 51.7831V41.1297H14.7487V51.7831H1.75738ZM14.7487 34.2367V39.8768H1.75738V34.2362L14.7487 34.2367Z" fill="#29ABE2"/>
<path opacity="0.5" d="M70.473 138.544H87.9681V148.985H89.3486V138.085C89.3486 137.842 89.2516 137.608 89.079 137.436C88.9064 137.264 88.6724 137.167 88.4283 137.167H70.0128C69.7688 137.167 69.5347 137.264 69.3621 137.436C69.1895 137.608 69.0925 137.842 69.0925 138.085V148.985H70.473V138.544Z" fill="#29ABE2"/>
<path opacity="0.5" d="M69.0919 149.559C68.8479 149.559 68.6138 149.656 68.4412 149.828C68.2686 150 68.1716 150.234 68.1716 150.477V152.082C68.1716 152.326 68.2686 152.559 68.4412 152.731C68.6138 152.903 68.8479 153 69.0919 153H89.3497C89.5938 153 89.8279 152.903 90.0005 152.731C90.1731 152.559 90.27 152.326 90.27 152.082V150.477C90.27 150.234 90.1731 150 90.0005 149.828C89.8279 149.656 89.5938 149.559 89.3497 149.559H69.0919ZM69.5521 150.936H85.6662V151.624H69.5521V150.936ZM87.0472 151.624V150.936H88.8878V151.624H87.0472Z" fill="#29ABE2"/>
<path opacity="0.5" d="M8.25305 115.061C8.12666 115.061 8.00311 115.099 7.89802 115.169C7.79293 115.239 7.71103 115.338 7.66266 115.455C7.61429 115.571 7.60164 115.699 7.62629 115.823C7.65095 115.946 7.71181 116.06 7.80118 116.149C7.89056 116.238 8.00442 116.299 8.12838 116.323C8.25235 116.348 8.38084 116.335 8.49761 116.287C8.61437 116.239 8.71418 116.157 8.7844 116.052C8.85462 115.948 8.8921 115.824 8.8921 115.698C8.89217 115.615 8.87569 115.532 8.84361 115.454C8.81152 115.377 8.76445 115.307 8.70509 115.248C8.64574 115.189 8.57526 115.142 8.49769 115.11C8.42013 115.078 8.337 115.061 8.25305 115.061Z" fill="#29ABE2"/>
<path opacity="0.5" d="M1.86098 118.247H14.6453C14.8712 118.247 15.0878 118.158 15.2477 117.998C15.4075 117.839 15.4974 117.623 15.4977 117.398V98.7048C15.4974 98.4795 15.4075 98.2636 15.2477 98.1043C15.0879 97.945 14.8712 97.8553 14.6453 97.855H1.86098C1.635 97.8553 1.41835 97.945 1.25855 98.1043C1.09876 98.2636 1.00885 98.4795 1.00854 98.7048V117.398C1.00885 117.623 1.09878 117.839 1.25859 117.998C1.4184 118.158 1.63505 118.247 1.86098 118.247ZM2.2872 99.1303H14.219V116.976H2.2872V99.1303Z" fill="#29ABE2"/>
<path opacity="0.5" d="M12.3012 100.192H4.20473C3.97875 100.192 3.7621 100.282 3.6023 100.441C3.44251 100.601 3.3526 100.817 3.35229 101.042V113.149C3.3526 113.375 3.44251 113.591 3.6023 113.75C3.7621 113.909 3.97875 113.999 4.20473 113.999H12.3012C12.5273 113.999 12.7441 113.91 12.904 113.75C13.0639 113.591 13.1539 113.375 13.1542 113.149V101.042C13.1539 100.817 13.0639 100.6 12.904 100.441C12.7441 100.282 12.5273 100.192 12.3012 100.192ZM11.875 112.725H4.63095V101.467H11.875V112.725Z" fill="#29ABE2"/>
<path opacity="0.5" d="M138.276 49.1546H156.343C156.607 49.1542 156.861 49.0495 157.047 48.8633C157.234 48.6771 157.339 48.4247 157.339 48.1614V37.8578C157.339 37.5945 157.234 37.342 157.047 37.1558C156.861 36.9697 156.607 36.8649 156.343 36.8646H138.276C138.012 36.8654 137.759 36.9703 137.573 37.1565C137.386 37.3426 137.282 37.5948 137.281 37.8578V48.1614C137.282 48.4244 137.386 48.6766 137.573 48.8627C137.759 49.0489 138.012 49.1538 138.276 49.1546ZM138.533 38.1147H156.086V47.9051H138.533V38.1147Z" fill="#29ABE2"/>
<path opacity="0.5" d="M143.13 46.6551C144.839 46.6551 143.309 43.0839 143.309 43.0839H142.951C142.951 43.0839 141.423 46.6551 143.13 46.6551Z" fill="#29ABE2"/>
<path opacity="0.5" d="M143.309 42.7271V43.0838C143.309 43.0838 146.891 44.6096 146.891 42.9055C146.891 41.2013 143.309 42.7271 143.309 42.7271Z" fill="#29ABE2"/>
<path opacity="0.5" d="M143.131 39.1559C141.421 39.1559 142.951 42.7271 142.951 42.7271H143.309C143.309 42.7271 144.839 39.1559 143.131 39.1559Z" fill="#29ABE2"/>
<path opacity="0.5" d="M139.369 42.9055C139.369 44.6096 142.951 43.0838 142.951 43.0838V42.7271C142.951 42.7271 139.369 41.2013 139.369 42.9055Z" fill="#29ABE2"/>
<path opacity="0.5" d="M154.623 38.7392H148.772C148.606 38.7392 148.446 38.805 148.329 38.9222C148.211 39.0394 148.145 39.1984 148.145 39.3642C148.145 39.5299 148.211 39.6889 148.329 39.8061C148.446 39.9234 148.606 39.9892 148.772 39.9892H154.623C154.789 39.9892 154.949 39.9234 155.066 39.8061C155.184 39.6889 155.25 39.5299 155.25 39.3642C155.25 39.1984 155.184 39.0394 155.066 38.9222C154.949 38.805 154.789 38.7392 154.623 38.7392Z" fill="#29ABE2"/>
<path opacity="0.5" d="M154.623 40.1962H148.772C148.606 40.1962 148.446 40.2621 148.329 40.3793C148.211 40.4965 148.145 40.6555 148.145 40.8212C148.145 40.987 148.211 41.146 148.329 41.2632C148.446 41.3804 148.606 41.4463 148.772 41.4463H154.623C154.789 41.4463 154.949 41.3804 155.066 41.2632C155.184 41.146 155.25 40.987 155.25 40.8212C155.25 40.6555 155.184 40.4965 155.066 40.3793C154.949 40.2621 154.789 40.1962 154.623 40.1962Z" fill="#29ABE2"/>
<path opacity="0.5" d="M154.623 41.6555H148.772C148.606 41.6555 148.446 41.7213 148.329 41.8385C148.211 41.9558 148.145 42.1147 148.145 42.2805C148.145 42.4463 148.211 42.6052 148.329 42.7225C148.446 42.8397 148.606 42.9055 148.772 42.9055H154.623C154.789 42.9055 154.949 42.8397 155.066 42.7225C155.184 42.6052 155.25 42.4463 155.25 42.2805C155.25 42.1147 155.184 41.9558 155.066 41.8385C154.949 41.7213 154.789 41.6555 154.623 41.6555Z" fill="#29ABE2"/>
<path opacity="0.5" d="M154.623 43.1136H148.772C148.606 43.1136 148.446 43.1795 148.329 43.2967C148.211 43.4139 148.145 43.5729 148.145 43.7387C148.145 43.9044 148.211 44.0634 148.329 44.1806C148.446 44.2978 148.606 44.3637 148.772 44.3637H154.623C154.789 44.3637 154.949 44.2978 155.066 44.1806C155.184 44.0634 155.25 43.9044 155.25 43.7387C155.25 43.5729 155.184 43.4139 155.066 43.2967C154.949 43.1795 154.789 43.1136 154.623 43.1136Z" fill="#29ABE2"/>
<path opacity="0.5" d="M154.623 44.5719H148.772C148.606 44.5719 148.446 44.6378 148.329 44.755C148.211 44.8722 148.145 45.0312 148.145 45.1969C148.145 45.3627 148.211 45.5217 148.329 45.6389C148.446 45.7561 148.606 45.8219 148.772 45.8219H154.623C154.705 45.8219 154.787 45.8058 154.863 45.7744C154.939 45.7429 155.008 45.6969 155.066 45.6389C155.124 45.5808 155.171 45.5119 155.202 45.4361C155.234 45.3603 155.25 45.279 155.25 45.1969C155.25 45.1148 155.234 45.0336 155.202 44.9577C155.171 44.8819 155.124 44.813 155.066 44.755C155.008 44.6969 154.939 44.6509 154.863 44.6195C154.787 44.5881 154.705 44.5719 154.623 44.5719Z" fill="#29ABE2"/>
<path opacity="0.5" d="M154.623 46.0302H148.772C148.606 46.0302 148.446 46.096 148.329 46.2132C148.211 46.3304 148.145 46.4894 148.145 46.6552C148.145 46.8209 148.211 46.9799 148.329 47.0971C148.446 47.2143 148.606 47.2802 148.772 47.2802H154.623C154.789 47.2802 154.949 47.2143 155.066 47.0971C155.184 46.9799 155.25 46.8209 155.25 46.6552C155.25 46.4894 155.184 46.3304 155.066 46.2132C154.949 46.096 154.789 46.0302 154.623 46.0302Z" fill="#29ABE2"/>
<path opacity="0.5" d="M156.249 114.263H138.37V111.016C138.371 110.302 138.656 109.617 139.163 109.112C139.669 108.606 140.357 108.322 141.073 108.321H153.545C154.262 108.322 154.949 108.606 155.456 109.112C155.963 109.617 156.248 110.302 156.249 111.016V114.263ZM139.725 112.913H154.894V111.016C154.894 110.66 154.751 110.318 154.499 110.066C154.246 109.814 153.903 109.672 153.545 109.672H141.073C140.716 109.672 140.373 109.814 140.12 110.066C139.867 110.318 139.725 110.66 139.725 111.016V112.913Z" fill="#29ABE2"/>
<path opacity="0.5" d="M139.725 114.263H135.119V108.356C135.12 107.846 135.324 107.357 135.685 106.997C136.047 106.636 136.538 106.433 137.049 106.433H137.797C138.309 106.433 138.799 106.636 139.161 106.997C139.523 107.357 139.727 107.846 139.728 108.356L139.725 114.263ZM136.476 112.913H138.374V108.355C138.374 108.203 138.314 108.057 138.206 107.95C138.098 107.842 137.952 107.782 137.799 107.782H137.051C136.899 107.782 136.752 107.842 136.645 107.95C136.537 108.057 136.476 108.203 136.476 108.355V112.913Z" fill="#29ABE2"/>
<path opacity="0.5" d="M159.5 114.263H154.894V108.356C154.895 107.846 155.099 107.357 155.461 106.997C155.822 106.636 156.313 106.433 156.825 106.433H157.57C158.081 106.433 158.572 106.636 158.934 106.997C159.295 107.357 159.499 107.846 159.5 108.356V114.263ZM156.249 112.913H158.147V108.355C158.147 108.203 158.086 108.057 157.979 107.95C157.871 107.842 157.724 107.782 157.572 107.782H156.827C156.674 107.782 156.528 107.842 156.42 107.95C156.312 108.057 156.252 108.203 156.252 108.355L156.249 112.913Z" fill="#29ABE2"/>
<path opacity="0.5" d="M154.353 101.838H140.267C139.333 101.839 138.438 102.209 137.777 102.867C137.117 103.526 136.746 104.418 136.745 105.349V106.429H138.099V105.349C138.1 104.776 138.328 104.227 138.735 103.822C139.141 103.417 139.692 103.189 140.267 103.188H154.353C154.927 103.189 155.478 103.417 155.884 103.822C156.291 104.227 156.519 104.776 156.52 105.349V106.429H157.873V105.349C157.872 104.418 157.501 103.526 156.841 102.868C156.181 102.21 155.286 101.839 154.353 101.838Z" fill="#29ABE2"/>
<path opacity="0.5" d="M142.714 105.044C142.588 105.044 142.464 105.082 142.359 105.152C142.253 105.222 142.171 105.321 142.123 105.438C142.074 105.554 142.061 105.682 142.086 105.806C142.111 105.93 142.172 106.043 142.261 106.133C142.35 106.222 142.464 106.283 142.588 106.307C142.713 106.332 142.841 106.319 142.958 106.271C143.075 106.223 143.175 106.141 143.245 106.036C143.316 105.931 143.353 105.808 143.353 105.682C143.353 105.598 143.337 105.515 143.305 105.438C143.273 105.361 143.225 105.29 143.166 105.231C143.107 105.172 143.036 105.125 142.959 105.093C142.881 105.061 142.798 105.044 142.714 105.044Z" fill="#29ABE2"/>
<path opacity="0.5" d="M151.988 106.307C152.336 106.251 152.573 105.924 152.516 105.577C152.46 105.229 152.132 104.993 151.784 105.049C151.435 105.106 151.198 105.433 151.255 105.78C151.311 106.127 151.639 106.363 151.988 106.307Z" fill="#29ABE2"/>
<path opacity="0.5" d="M149.862 76.7579C149.862 77.0593 149.772 77.3538 149.604 77.6044C149.436 77.8549 149.198 78.0502 148.918 78.1655C148.639 78.2808 148.332 78.311 148.035 78.2522C147.739 78.1934 147.467 78.0483 147.253 77.8352C147.039 77.6222 146.894 77.3507 146.835 77.0552C146.776 76.7596 146.806 76.4533 146.922 76.1749C147.037 75.8965 147.233 75.6585 147.485 75.4911C147.736 75.3237 148.031 75.2344 148.334 75.2344C148.534 75.2343 148.733 75.2737 148.919 75.3502C149.104 75.4267 149.272 75.539 149.414 75.6804C149.556 75.8219 149.669 75.9899 149.746 76.1748C149.822 76.3597 149.862 76.5578 149.862 76.7579Z" fill="#29ABE2"/>
<path opacity="0.5" d="M114.948 135.94C115.792 135.94 116.476 135.258 116.476 134.417C116.476 133.575 115.792 132.893 114.948 132.893C114.104 132.893 113.419 133.575 113.419 134.417C113.419 135.258 114.104 135.94 114.948 135.94Z" fill="#29ABE2"/>
<path opacity="0.5" d="M38.0654 135.94C38.9095 135.94 39.5937 135.258 39.5937 134.417C39.5937 133.575 38.9095 132.893 38.0654 132.893C37.2213 132.893 36.5371 133.575 36.5371 134.417C36.5371 135.258 37.2213 135.94 38.0654 135.94Z" fill="#29ABE2"/>
<path opacity="0.5" d="M114.948 20.6227C115.792 20.6227 116.476 19.9406 116.476 19.0991C116.476 18.2577 115.792 17.5756 114.948 17.5756C114.104 17.5756 113.419 18.2577 113.419 19.0991C113.419 19.9406 114.104 20.6227 114.948 20.6227Z" fill="#29ABE2"/>
<path opacity="0.5" d="M38.0654 20.6227C38.9095 20.6227 39.5937 19.9406 39.5937 19.0991C39.5937 18.2577 38.9095 17.5756 38.0654 17.5756C37.2213 17.5756 36.5371 18.2577 36.5371 19.0991C36.5371 19.9406 37.2213 20.6227 38.0654 20.6227Z" fill="#29ABE2"/>
<path opacity="0.5" d="M9.78144 76.7579C9.78144 77.0593 9.6918 77.3538 9.52387 77.6044C9.35594 77.8549 9.11726 78.0502 8.838 78.1655C8.55874 78.2808 8.25145 78.311 7.95499 78.2522C7.65853 78.1934 7.38622 78.0483 7.17248 77.8352C6.95875 77.6222 6.81319 77.3507 6.75422 77.0552C6.69525 76.7596 6.72552 76.4533 6.84119 76.1749C6.95686 75.8965 7.15275 75.6585 7.40407 75.4911C7.6554 75.3237 7.95088 75.2344 8.25315 75.2344C8.65847 75.2344 9.0472 75.3949 9.33381 75.6806C9.62042 75.9663 9.78144 76.3539 9.78144 76.7579Z" fill="#29ABE2"/>
</g>
</svg>
