<?xml version="1.0" encoding="UTF-8"?>
<svg width="120px" height="120px" viewBox="0 0 120 120" version="1.1" xmlns="http://www.w3.org/2000/svg" xmlns:xlink="http://www.w3.org/1999/xlink">
    <title>C58EC6F5-D297-47CE-98A9-2263454C6DEA</title>
    <defs>
        <path d="M0,0 L0.573,41.108 L11.118,40.803 C11.118,46.675 31.103,51.433 55.756,51.433 L55.756,51.433 C80.409,51.433 100.394,46.675 100.394,40.803 L100.394,40.803 L107.254,40.803 L115.277,23.074 L100.394,0" id="path-1"></path>
        <path d="M0,0 L0.573,41.108 L11.118,40.803 C11.118,46.675 31.103,51.433 55.756,51.433 L55.756,51.433 C80.409,51.433 100.394,46.675 100.394,40.803 L100.394,40.803 L107.254,40.803 L115.277,23.074 L100.394,0" id="path-3"></path>
        <path d="M0,0 L0.573,41.108 L11.118,40.803 C11.118,46.675 31.103,51.433 55.756,51.433 L55.756,51.433 C80.409,51.433 100.394,46.675 100.394,40.803 L100.394,40.803 L107.254,40.803 L115.277,23.074 L100.394,0" id="path-5"></path>
        <path d="M0,0 L0.573,41.108 L11.118,40.803 C11.118,46.675 31.103,51.433 55.756,51.433 L55.756,51.433 C80.409,51.433 100.394,46.675 100.394,40.803 L100.394,40.803 L107.254,40.803 L115.277,23.074 L100.394,0" id="path-7"></path>
        <path d="M0,0 L0.573,41.108 L11.118,40.803 C11.118,46.675 31.103,51.433 55.756,51.433 L55.756,51.433 C80.409,51.433 100.394,46.675 100.394,40.803 L100.394,40.803 L107.254,40.803 L115.277,23.074 L100.394,0" id="path-9"></path>
        <path d="M0,0 L0.573,41.108 L11.118,40.803 C11.118,46.675 31.103,51.433 55.756,51.433 L55.756,51.433 C80.409,51.433 100.394,46.675 100.394,40.803 L100.394,40.803 L107.254,40.803 L115.277,23.074 L100.394,0" id="path-11"></path>
        <path d="M0,0 L0.573,41.108 L11.118,40.803 C11.118,46.675 31.103,51.433 55.756,51.433 L55.756,51.433 C80.409,51.433 100.394,46.675 100.394,40.803 L100.394,40.803 L107.254,40.803 L115.277,23.074 L100.394,0" id="path-13"></path>
        <path d="M0,0 L0.573,41.108 L11.118,40.803 C11.118,46.675 31.103,51.433 55.756,51.433 L55.756,51.433 C80.409,51.433 100.394,46.675 100.394,40.803 L100.394,40.803 L107.254,40.803 L115.277,23.074 L100.394,0" id="path-15"></path>
        <path d="M0,0 L0.573,41.108 L11.118,40.803 C11.118,46.675 31.103,51.433 55.756,51.433 L55.756,51.433 C80.409,51.433 100.394,46.675 100.394,40.803 L100.394,40.803 L107.254,40.803 L115.277,23.074 L100.394,0" id="path-17"></path>
        <path d="M0,0 L0.573,41.108 L11.118,40.803 C11.118,46.675 31.103,51.433 55.756,51.433 L55.756,51.433 C80.409,51.433 100.394,46.675 100.394,40.803 L100.394,40.803 L107.254,40.803 L115.277,23.074 L100.394,0" id="path-19"></path>
        <path d="M0,0 L0.573,41.108 L11.118,40.803 C11.118,46.675 31.103,51.433 55.756,51.433 L55.756,51.433 C80.409,51.433 100.394,46.675 100.394,40.803 L100.394,40.803 L107.254,40.803 L115.277,23.074 L100.394,0" id="path-21"></path>
        <path d="M0,0 L0.573,41.108 L11.118,40.803 C11.118,46.675 31.103,51.433 55.756,51.433 L55.756,51.433 C80.409,51.433 100.394,46.675 100.394,40.803 L100.394,40.803 L107.254,40.803 L115.277,23.074 L100.394,0" id="path-23"></path>
        <path d="M0,0 L0.573,41.108 L11.118,40.803 C11.118,46.675 31.103,51.433 55.756,51.433 L55.756,51.433 C80.409,51.433 100.394,46.675 100.394,40.803 L100.394,40.803 L107.254,40.803 L115.277,23.074 L100.394,0" id="path-25"></path>
        <path d="M0,0 L0.573,41.108 L11.118,40.803 C11.118,46.675 31.103,51.433 55.756,51.433 L55.756,51.433 C80.409,51.433 100.394,46.675 100.394,40.803 L100.394,40.803 L107.254,40.803 L115.277,23.074 L100.394,0 L0,0 Z" id="path-27"></path>
        <path d="M0,0 L0.573,41.108 L11.118,40.803 C11.118,46.675 31.103,51.433 55.756,51.433 L55.756,51.433 C80.409,51.433 100.394,46.675 100.394,40.803 L100.394,40.803 L107.254,40.803 L115.277,23.074 L100.394,0 L0,0 Z" id="path-29"></path>
        <path d="M0,0 L0.573,41.108 L11.118,40.803 C11.118,46.675 31.103,51.433 55.756,51.433 L55.756,51.433 C80.409,51.433 100.394,46.675 100.394,40.803 L100.394,40.803 L107.254,40.803 L115.277,23.074 L100.394,0" id="path-31"></path>
    </defs>
    <g id="zeplin" stroke="none" stroke-width="1" fill="none" fill-rule="evenodd">
        <g id="1.0.2-E&amp;R-home-page-(Landing)---Overview---No-mission-Empty-state" transform="translate(-125.000000, -406.000000)">
            <g id="_new-icon/nav/home-copy-28" transform="translate(125.000000, 406.000000)">
                <g id="Group-52" transform="translate(2.000000, 49.000000)">
                    <path d="M100.3943,40.8038 C100.3943,46.6748 80.4093,51.4338 55.7563,51.4338 C31.1023,51.4338 11.1183,46.6748 11.1183,40.8038 C11.1183,34.9338 31.1023,30.1748 55.7563,30.1748 C80.4093,30.1748 100.3943,34.9338 100.3943,40.8038" id="Fill-1" fill="#333333"></path>
                    <g id="Group-51" transform="translate(0.000000, -0.000000)">
                        <g id="Group-5">
                            <mask id="mask-2" fill="white">
                                <use xlink:href="#path-1"></use>
                            </mask>
                            <g id="Clip-4"></g>
                            <path d="M82.0862,20.6231 L82.0862,20.6231 C81.2382,20.6231 80.4232,20.9141 79.7262,21.4651 C79.5322,21.5901 79.3662,21.7301 79.2222,21.8941 C73.6682,28.1821 70.3532,37.2691 69.8912,47.4801 C69.8332,48.7441 70.3912,50.0271 71.3142,50.7481 L74.1932,52.9961 C74.3822,53.1441 74.6002,53.2371 74.8302,53.2701 C74.8902,53.2811 74.9522,53.2871 75.0152,53.2871 L75.0232,53.2871 C75.4292,53.2841 76.8592,53.0941 77.5532,52.2891 C78.1402,52.8341 78.5302,53.7721 78.5402,54.6891 L78.5482,55.4141 C78.5542,56.0351 78.8342,56.6211 79.2972,56.9821 L82.5652,59.5351 C82.8702,59.7731 83.2092,59.9401 83.5732,60.0321 C83.6452,60.0591 83.7192,60.0771 83.7952,60.0861 C83.8142,60.0881 83.8382,60.0911 83.8612,60.0921 C83.9242,60.1001 84.0052,60.1031 84.0862,60.1031 C84.1642,60.1051 84.2242,60.1061 84.2852,60.1061 C86.0452,60.1061 87.9882,59.0021 88.1912,57.1521 L88.3942,55.3201 C89.2032,47.9751 91.5842,41.4191 95.2792,36.3631 L96.2042,35.0951 C97.2592,33.6521 96.8562,31.1931 95.3742,30.0351 L92.1042,27.4811 C92.0712,27.4551 92.0372,27.4321 92.0022,27.4101 C91.5732,27.1521 91.0952,27.0161 90.6202,27.0161 C89.8512,27.0161 89.1232,27.3571 88.5602,27.9801 L88.5032,28.0291 L87.1592,26.9631 C87.0202,26.8531 86.9172,26.6301 86.8962,26.4001 C86.8782,26.2091 86.9232,26.0861 86.9472,26.0601 L87.2102,25.7861 C87.4882,25.4981 87.6322,25.0841 87.6012,24.6511 C87.5682,24.1881 87.3492,23.7681 87.0002,23.4961 L84.1232,21.2481 C84.0972,21.2281 84.0692,21.2091 84.0412,21.1901 C83.4572,20.8191 82.7812,20.6231 82.0862,20.6231 M82.0862,21.6561 C82.5952,21.6561 83.0822,21.8051 83.4872,22.0621 L86.3672,24.3111 C86.5922,24.4861 86.6442,24.8871 86.4652,25.0701 L86.2032,25.3441 C85.6322,25.9371 85.7972,27.2091 86.5172,27.7711 L88.5312,29.3691 C88.5342,29.3671 88.5382,29.3671 88.5412,29.3641 L89.2882,28.7161 C89.6602,28.2831 90.1322,28.0491 90.6202,28.0491 C90.9032,28.0491 91.1912,28.1281 91.4682,28.2951 L94.7382,30.8501 C95.7892,31.6701 96.1042,33.4821 95.3702,34.4861 L94.4452,35.7541 C90.6462,40.9511 88.1952,47.6891 87.3682,55.2071 L87.1662,57.0401 C87.0202,58.3591 85.5042,59.0741 84.2852,59.0741 C84.2392,59.0741 84.1942,59.0721 84.1502,59.0701 L84.1332,59.0701 L84.0862,59.0701 C84.0442,59.0701 84.0022,59.0701 83.9592,59.0631 C83.9472,59.0621 83.9332,59.0621 83.9212,59.0611 L83.9122,59.0511 C83.6762,59.0041 83.4352,58.9041 83.2002,58.7211 L79.9312,56.1681 C79.7202,56.0031 79.5832,55.7051 79.5802,55.4041 L79.5732,54.6791 C79.5592,53.3671 78.9622,52.0681 78.0452,51.3531 L76.9612,50.5051 C76.9132,50.6501 76.8782,50.8071 76.8762,50.9861 L76.8682,51.4581 C76.6782,51.9391 75.5672,52.2501 75.0152,52.2551 L75.0132,52.2521 C74.9532,52.2501 74.8902,52.2301 74.8292,52.1841 L71.9492,49.9341 C71.2882,49.4181 70.8792,48.4591 70.9222,47.5271 C71.3742,37.5501 74.5972,28.6891 79.9982,22.5761 C80.0992,22.4611 80.2142,22.3731 80.3352,22.3021 L80.3372,22.2981 C80.8912,21.8501 81.5032,21.6561 82.0862,21.6561" id="Fill-3" fill="#6E6E6E" mask="url(#mask-2)"></path>
                        </g>
                        <g id="Group-8">
                            <mask id="mask-4" fill="white">
                                <use xlink:href="#path-3"></use>
                            </mask>
                            <g id="Clip-7"></g>
                            <path d="M89.2879,28.7149 L88.5329,29.3709 L86.5169,27.7709 C85.7969,27.2079 85.6319,25.9369 86.2019,25.3429 L86.4649,25.0699 C86.6429,24.8859 86.5919,24.4859 86.3659,24.3109 L83.4869,22.0619 C82.6169,21.5079 81.3749,21.4579 80.3359,22.2969 C80.3359,22.2969 72.9259,37.1269 72.4749,47.1059 C72.4329,48.0379 72.8419,48.9969 73.5009,49.5129 L75.0149,52.2539 C75.5669,52.2499 76.6779,51.9379 76.8679,51.4569 L76.8749,50.9859 C76.8919,49.9609 77.7049,49.4529 78.4249,50.0149 L79.5979,50.9299 C80.5149,51.6469 81.1109,52.9459 81.1249,54.2569 L81.1329,54.9839 C81.1359,55.2819 81.2729,55.5819 81.4829,55.7449 L83.9199,59.0609 C85.1779,59.2229 87.0049,58.4909 87.1649,57.0389 L87.3679,55.2069 C88.1949,47.6889 90.6459,40.9509 94.4449,35.7519 L95.3699,34.4859 C96.1029,33.4819 95.7879,31.6689 94.7379,30.8489 L91.4679,28.2939 C90.7139,27.8399 89.8759,28.0319 89.2879,28.7149" id="Fill-6" fill="#898989" mask="url(#mask-4)"></path>
                        </g>
                        <g id="Group-11">
                            <mask id="mask-6" fill="white">
                                <use xlink:href="#path-5"></use>
                            </mask>
                            <g id="Clip-10"></g>
                            <path d="M89.2879,28.7149 L88.8729,29.1099 C88.1229,29.8239 87.0529,29.8239 86.1369,29.1079 L84.9639,28.1919 C84.2429,27.6299 84.0779,26.3579 84.6489,25.7649 L84.9119,25.4909 C85.0909,25.3049 85.0389,24.9069 84.8139,24.7319 L81.9339,22.4829 C81.2739,21.9669 80.5019,22.0039 79.9969,22.5749 C74.5969,28.6889 71.3729,37.5489 70.9219,47.5269 C70.8789,48.4579 71.2879,49.4169 71.9489,49.9339 L74.8279,52.1829 C75.0539,52.3589 75.3089,52.1989 75.3139,51.8779 L75.3219,51.4049 C75.3389,50.3809 76.1519,49.8729 76.8719,50.4359 L78.0449,51.3529 C78.9619,52.0679 79.5579,53.3659 79.5729,54.6779 L79.5799,55.4029 C79.5829,55.7039 79.7189,56.0019 79.9309,56.1669 L83.1999,58.7209 C84.2489,59.5389 85.4529,58.9119 85.6129,57.4599 L85.8139,55.6279 C86.6419,48.1099 89.0929,41.3729 92.8909,36.1729 L93.8169,34.9059 C94.5499,33.9019 94.2349,32.0899 93.1849,31.2699 L89.9149,28.7159 C89.7049,28.5519 89.4599,28.5519 89.2879,28.7149" id="Fill-9" fill="#9B9B9B" mask="url(#mask-6)"></path>
                        </g>
                        <g id="Group-14">
                            <mask id="mask-8" fill="white">
                                <use xlink:href="#path-7"></use>
                            </mask>
                            <g id="Clip-13"></g>
                            <path d="M80.3645,37.502 C79.7075,39.31 78.3825,39.781 77.2575,39.647 C75.4645,39.435 74.5885,33.709 76.2565,32.656 C76.7305,32.356 78.1005,31.898 79.2315,32.837 C80.5165,33.904 81.0395,35.646 80.3645,37.502 M77.3165,35.102 C76.8475,36.39 76.9865,37.138 77.5125,37.548 C78.0545,37.972 78.5465,37.689 78.9995,36.44 C79.4395,35.235 79.2625,34.565 78.7445,34.162 C78.2445,33.772 77.7475,33.916 77.3165,35.102 M76.1395,42.159 L82.9045,37.274 C83.0605,37.171 84.0175,36.691 84.4315,37.102 C84.8285,37.41 84.8945,38.092 84.5515,38.316 L76.7915,43.424 C76.6375,43.524 76.0855,43.823 75.6405,43.712 C75.6405,43.712 75.7995,42.383 76.1395,42.159 M84.8345,46.266 C84.1685,48.097 82.7085,48.531 81.8905,48.424 C80.1005,48.185 79.0025,42.962 80.4215,41.597 C81.1485,40.895 82.5925,40.708 83.7015,41.601 C85.0065,42.648 85.5105,44.409 84.8345,46.266 M81.7865,43.865 C81.3185,45.154 81.4565,45.9 81.9835,46.313 C82.5175,46.73 83.0215,46.441 83.4715,45.205 C83.9105,43.996 83.7335,43.329 83.2155,42.925 C82.7145,42.534 82.2155,42.686 81.7865,43.865" id="Fill-12" fill="#D3D3D3" mask="url(#mask-8)"></path>
                        </g>
                        <g id="Group-17">
                            <mask id="mask-10" fill="white">
                                <use xlink:href="#path-9"></use>
                            </mask>
                            <g id="Clip-16"></g>
                            <path d="M79.3758,37.7335 C78.7178,39.5425 77.4928,40.2425 76.0268,39.0965 C74.6048,37.9865 74.2548,36.1765 74.9288,34.3235 C75.5468,32.6205 76.8268,31.9625 78.2418,33.0695 C79.5608,34.0985 80.0508,35.8785 79.3758,37.7335 M76.3288,35.3345 C75.8588,36.6215 75.9978,37.3695 76.5248,37.7805 C77.0658,38.2035 77.5578,37.9215 78.0118,36.6735 C78.4508,35.4675 78.2738,34.7975 77.7558,34.3935 C77.2558,34.0035 76.7588,34.1485 76.3288,35.3345 M75.1508,42.3905 L82.9048,37.2735 C83.0608,37.1715 83.2658,37.1945 83.4438,37.3355 C83.8408,37.6435 83.9058,38.3235 83.5628,38.5495 L75.8038,43.6565 C75.6498,43.7575 75.4468,43.7345 75.2698,43.5955 C74.8768,43.2895 74.8108,42.6155 75.1508,42.3905 M83.8468,46.4995 C83.1798,48.3295 81.9638,49.0045 80.4968,47.8605 C79.0748,46.7495 78.7258,44.9385 79.3988,43.0875 C80.0168,41.3895 81.2958,40.7265 82.7128,41.8335 C84.0318,42.8625 84.5218,44.6415 83.8468,46.4995 M80.7978,44.0975 C80.3298,45.3865 80.4688,46.1325 80.9948,46.5455 C81.5288,46.9625 82.0328,46.6745 82.4828,45.4375 C82.9218,44.2295 82.7448,43.5625 82.2278,43.1585 C81.7258,42.7665 81.2268,42.9195 80.7978,44.0975" id="Fill-15" fill="#F6F6F6" mask="url(#mask-10)"></path>
                        </g>
                        <g id="Group-20">
                            <mask id="mask-12" fill="white">
                                <use xlink:href="#path-11"></use>
                            </mask>
                            <g id="Clip-19"></g>
                            <path d="M91.032,37.1563 C91.081,37.1213 91.126,37.0793 91.165,37.0293 C91.385,36.7503 91.337,36.3443 91.058,36.1243 L90.197,35.4453 C89.919,35.2243 89.512,35.2663 89.292,35.5523 C89.072,35.8313 89.119,36.2363 89.399,36.4563 L90.26,37.1353 C90.49,37.3173 90.805,37.3173 91.032,37.1563" id="Fill-18" fill="#F6F6F6" mask="url(#mask-12)"></path>
                        </g>
                        <g id="Group-23">
                            <mask id="mask-14" fill="white">
                                <use xlink:href="#path-13"></use>
                            </mask>
                            <g id="Clip-22"></g>
                            <path d="M81.6458,30.3341 L80.0948,29.1091 C79.8158,28.8891 79.7678,28.4831 79.9888,28.2041 C80.2108,27.9211 80.6148,27.8781 80.8938,28.0981 L82.4438,29.3231 C82.7228,29.5431 82.7708,29.9481 82.5508,30.2281 C82.5118,30.2771 82.4668,30.3191 82.4178,30.3551 C82.1898,30.5161 81.8748,30.5161 81.6458,30.3341 M84.7468,32.7821 L83.1968,31.5591 C82.9178,31.3381 82.8698,30.9331 83.0898,30.6531 C83.3118,30.3681 83.7168,30.3261 83.9948,30.5471 L85.5448,31.7711 C85.8238,31.9911 85.8728,32.3971 85.6518,32.6761 C85.6128,32.7261 85.5678,32.7681 85.5188,32.8031 C85.2918,32.9641 84.9768,32.9641 84.7468,32.7821 M87.8478,35.2311 L86.2978,34.0071 C86.0188,33.7871 85.9708,33.3821 86.1908,33.1031 C86.4138,32.8191 86.8158,32.7741 87.0958,32.9961 L88.6458,34.2201 C88.9248,34.4401 88.9738,34.8461 88.7528,35.1251 C88.7138,35.1751 88.6688,35.2171 88.6198,35.2521 C88.3928,35.4131 88.0778,35.4131 87.8478,35.2311" id="Fill-21" fill="#F6F6F6" mask="url(#mask-14)"></path>
                        </g>
                        <g id="Group-26">
                            <mask id="mask-16" fill="white">
                                <use xlink:href="#path-15"></use>
                            </mask>
                            <g id="Clip-25"></g>
                            <path d="M79.3172,27.9053 C79.3662,27.8713 79.4112,27.8293 79.4502,27.7793 C79.6702,27.5003 79.6222,27.0943 79.3432,26.8743 L78.4822,26.1953 C78.2032,25.9743 77.7982,26.0183 77.5772,26.3013 C77.3572,26.5813 77.4042,26.9863 77.6842,27.2063 L78.5452,27.8853 C78.7752,28.0673 79.0902,28.0663 79.3172,27.9053" id="Fill-24" fill="#F6F6F6" mask="url(#mask-16)"></path>
                        </g>
                        <g id="Group-29">
                            <mask id="mask-18" fill="white">
                                <use xlink:href="#path-17"></use>
                            </mask>
                            <g id="Clip-28"></g>
                            <path d="M71.8499,25.3018 C71.8499,25.3018 67.5299,20.8898 64.9339,18.8998 C64.2379,18.3658 63.4349,17.9918 62.5829,17.7788 L46.3479,13.6968 C44.5919,13.2548 42.7299,13.7148 41.3859,14.9228 L21.1889,33.0738 C20.0489,34.0988 19.3969,35.5568 19.3969,37.0858 L19.3969,57.4898 C19.3969,58.0658 19.5429,58.6288 19.8229,59.1328 C21.7379,62.5938 27.6379,68.7428 26.0799,67.1778 L40.7269,67.8108 C42.4829,68.2518 44.3449,67.7908 45.6889,66.5828 L65.8859,48.4318 C67.0259,47.4068 67.6759,45.9488 67.6759,44.4208 L71.8499,25.3018" id="Fill-27" fill="#9B9B9B" mask="url(#mask-18)"></path>
                        </g>
                        <g id="Group-32">
                            <mask id="mask-20" fill="white">
                                <use xlink:href="#path-19"></use>
                            </mask>
                            <g id="Clip-31"></g>
                            <path d="M73.0828,28.7257 C73.0828,26.2507 71.3938,24.0917 68.9848,23.4857 L51.7528,19.1537 C49.9978,18.7117 48.1358,19.1717 46.7908,20.3807 L26.5948,38.5317 C25.4548,39.5557 24.8038,41.0147 24.8038,42.5437 L24.8038,63.6957 C24.8038,66.1697 26.4918,68.3297 28.9008,68.9347 L46.1328,73.2677 C47.8888,73.7087 49.7498,73.2487 51.0948,72.0397 L71.2908,53.8897 C72.4308,52.8657 73.0828,51.4067 73.0828,49.8767 L73.0828,28.7257" id="Fill-30" fill="#AEAFAC" mask="url(#mask-20)"></path>
                        </g>
                        <g id="Group-35">
                            <mask id="mask-22" fill="white">
                                <use xlink:href="#path-21"></use>
                            </mask>
                            <g id="Clip-34"></g>
                            <path d="M67.7156,32.6134 C67.7156,30.6874 66.4026,29.0094 64.5286,28.5384 L51.1286,25.1694 C49.7626,24.8264 48.3156,25.1834 47.2696,26.1234 L31.5626,40.2394 C30.6756,41.0354 30.1706,42.1704 30.1706,43.3594 L30.1706,59.8084 C30.1706,61.7324 31.4836,63.4124 33.3576,63.8834 L46.7576,67.2524 C48.1226,67.5954 49.5706,67.2384 50.6156,66.2984 L66.3236,52.1824 C67.2096,51.3854 67.7156,50.2524 67.7156,49.0624 L67.7156,32.6134" id="Fill-33" fill="#F6F6F6" mask="url(#mask-22)"></path>
                        </g>
                        <g id="Group-38">
                            <mask id="mask-24" fill="white">
                                <use xlink:href="#path-23"></use>
                            </mask>
                            <g id="Clip-37"></g>
                            <path d="M48.7986,51.3116 C48.4076,51.7466 47.8546,51.9256 47.4626,51.7446 L38.7266,48.5796 C38.7266,48.5796 37.2326,47.5216 36.9796,47.2416 C36.2036,46.3746 36.8836,45.2126 37.9066,44.8816 L58.3556,38.2636 C59.2766,38.0786 60.5676,39.0976 60.7656,40.0496 C60.8296,40.3586 59.5686,40.1536 59.2676,40.4876 L48.7986,51.3116" id="Fill-36" fill="#007A43" mask="url(#mask-24)"></path>
                        </g>
                        <g id="Group-41">
                            <mask id="mask-26" fill="white">
                                <use xlink:href="#path-25"></use>
                            </mask>
                            <g id="Clip-40"></g>
                            <path d="M50.2879,52.8761 C49.8969,53.3111 49.3429,53.4901 48.9519,53.3091 L38.7269,48.5791 C37.9239,48.2081 38.3719,46.7771 39.3949,46.4471 L59.8439,39.8281 C60.8669,39.4971 61.3149,40.6381 60.5129,41.5291 L50.2879,52.8761" id="Fill-39" fill="#009250" mask="url(#mask-26)"></path>
                        </g>
                        <g id="Group-44">
                            <mask id="mask-28" fill="white">
                                <use xlink:href="#path-27"></use>
                            </mask>
                            <g id="Clip-43"></g>
                            <polygon id="Stroke-42" stroke="#003A20" stroke-width="1.359" stroke-linejoin="round" mask="url(#mask-28)" points="58.4998 52.8067 49.6198 52.5117 40.7388 58.5547 49.6198 36.3757"></polygon>
                        </g>
                        <g id="Group-47">
                            <mask id="mask-30" fill="white">
                                <use xlink:href="#path-29"></use>
                            </mask>
                            <g id="Clip-46"></g>
                            <path d="M19.3973,37.087 L19.3973,57.489 C19.3973,58.066 19.5433,58.628 19.8223,59.133 C21.1963,61.615 24.6023,65.462 25.8523,66.869 C25.9303,66.976 26.0133,67.077 26.0993,67.179 L26.0803,67.178 C26.1773,67.275 26.2373,67.335 26.2773,67.373 C26.9713,68.112 27.8623,68.674 28.9003,68.936 L46.1323,73.268 C47.8893,73.71 49.7503,73.249 51.0943,72.04 L71.2923,53.89 C72.4313,52.865 73.0823,51.407 73.0823,49.877 L73.0823,28.726 C73.0823,27.442 72.6213,26.25 71.8493,25.309 L71.8503,25.303 C71.8503,25.303 71.8023,25.254 71.7333,25.184 C71.5673,24.995 71.3943,24.816 71.2033,24.65 C69.9033,23.351 66.9173,20.42 64.9343,18.9 C64.2373,18.365 63.4353,17.992 62.5833,17.778 L46.3483,13.696 C44.5913,13.255 42.7303,13.715 41.3853,14.924 L21.1893,33.074 C20.0493,34.099 19.3973,35.558 19.3973,37.087 Z" id="Stroke-45" stroke="#6E6E6E" stroke-width="1.136" stroke-linejoin="round" mask="url(#mask-30)"></path>
                        </g>
                        <g id="Group-50">
                            <mask id="mask-32" fill="white">
                                <use xlink:href="#path-31"></use>
                            </mask>
                            <g id="Clip-49"></g>
                            <path d="M66.3284,22.8184 L51.7534,19.1534 C49.9974,18.7124 48.1354,19.1724 46.7904,20.3804 L26.5954,38.5314 C25.4544,39.5554 24.8034,41.0134 24.8034,42.5444 L24.8034,60.5804" id="Stroke-48" stroke="#6E6E6E" stroke-width="1.136" stroke-linecap="round" stroke-linejoin="round" mask="url(#mask-32)"></path>
                        </g>
                    </g>
                </g>
            </g>
        </g>
    </g>
</svg>