<svg width="71" height="45" viewBox="0 0 71 45" xmlns="http://www.w3.org/2000/svg">
    <g fill="none" fill-rule="evenodd">
        <path d="M63.44 18.943h.006l-2.868-3.811h-.002a12.448 12.448 0 0 0-6.997-4.903L21.084 1.523C14.684-.192 7.838 3.155 5.686 9.422c-1.421 4.138-.552 8.427 1.853 11.612h-.014l3.047 4.06.014-.001a12.425 12.425 0 0 0 6.68 4.484l2.156.578-1.805 3.763c-.161.336-.122.734.1 1.032l1.836 2.45c.247.33.67.475 1.068.366l3.799-1.056 9.56-2.654 15.796 4.232c6.35 1.702 13.145-1.586 15.34-7.783 1.453-4.1.652-8.364-1.676-11.562" fill="#E50000"/>
        <path d="M5.096 9.617A12.945 12.945 0 0 0 6.514 20.43l.108.168-.048.003 3.776 5.03.021-.003.048.06a12.911 12.911 0 0 0 6.717 4.372l1.574.421-1.544 3.22c-.242.504-.183 1.101.151 1.548l1.836 2.451c.37.495 1.005.711 1.6.548l13.23-3.675 15.663 4.198c6.67 1.787 13.681-1.72 15.942-8.1A12.988 12.988 0 0 0 63.85 18.65l-2.925-3.888.06.084a12.945 12.945 0 0 0-7.277-5.1L21.213 1.04c-6.723-1.802-13.785 1.768-16 8.22l-.117.357zm15.858-7.611 32.495 8.706c2.76.74 5.11 2.41 6.717 4.706l.15.214.012-.001 2.718 3.612a11.985 11.985 0 0 1 1.6 11.095c-2.084 5.88-8.566 9.121-14.74 7.467l-15.928-4.268-13.491 3.747a.502.502 0 0 1-.534-.183l-1.835-2.451a.501.501 0 0 1-.05-.516l2.065-4.306-2.738-.734a11.922 11.922 0 0 1-6.412-4.305l-.178-.233-.011.002-2.32-3.091h.018l-.554-.735c-2.393-3.17-3.1-7.3-1.78-11.148C8.2 3.639 14.73.338 20.955 2.006z" fill="#E50000" fill-rule="nonzero"/>
        <path d="M53.578 10.229c6.743 1.807 10.714 8.796 8.775 15.535-1.902 6.614-8.999 10.288-15.646 8.506L30.98 30.056l-12.647 3.51a.3.3 0 0 1-.35-.42l2.8-5.823-6.117-1.638C8.018 23.903 3.71 17.174 5.37 10.495 7.06 3.69 13.993-.377 20.736 1.429l32.842 8.8z" fill="#FFF"/>
        <path d="M53.578 10.229c6.743 1.807 10.714 8.796 8.775 15.535-1.902 6.614-8.999 10.288-15.646 8.506L30.98 30.056l-12.647 3.51a.3.3 0 0 1-.35-.42l2.8-5.823-6.117-1.638C8.018 23.903 3.71 17.174 5.37 10.495 7.06 3.69 13.993-.377 20.736 1.429l32.842 8.8z" stroke="#E50000"/>
    </g>
</svg>
