<svg width="73" height="56" viewBox="0 0 73 56" xmlns="http://www.w3.org/2000/svg">
    <g fill="none" fill-rule="evenodd">
        <g stroke="#E50000">
            <path d="M58.733 16.94c6.866 1.839 10.941 8.896 9.101 15.763l-.549 2.048c-1.84 6.867-8.897 10.941-15.763 9.101l-15.768-4.225-13.492 4.462 3.294-7.195-6.16-1.65c-6.865-1.84-10.94-8.897-9.1-15.763l.549-2.049c1.84-6.866 8.897-10.94 15.763-9.1l32.125 8.607z" fill="#E50000"/>
            <path d="M55.733 12.94c6.866 1.839 10.941 8.896 9.101 15.763l-.65 2.43c-1.84 6.866-8.898 10.94-15.764 9.1L31.59 35.724l-12.224 3.972 2.969-6.452-6.041-1.618c-6.866-1.84-10.941-8.898-9.101-15.764l.65-2.43c1.84-6.866 8.898-10.94 15.764-9.1l32.125 8.607z" fill="#FFF"/>
        </g>
        <text font-family="OpenSans-SemiBold, Open Sans" font-size="12" font-weight="500" fill="#E50000" transform="rotate(15 1.79 42.945)">
                            <tspan x="18.753" y="17.448">New</tspan>
                        </text>
    </g>
</svg>
