<svg width="32" height="32" viewBox="0 0 32 32" fill="none" xmlns="http://www.w3.org/2000/svg">
<path fill-rule="evenodd" clip-rule="evenodd" d="M16 32C24.8366 32 32 24.8366 32 16C32 7.16344 24.8366 0 16 0C7.16344 0 0 7.16344 0 16C0 24.8366 7.16344 32 16 32Z" fill="#8db5e3"/>
<path fill-rule="evenodd" clip-rule="evenodd" d="M17.6753 15.1815H20.8655L20.8654 15.1814C21.5108 15.1814 22.0392 14.7087 22.0392 14.1094V11.1472C22.0392 10.5473 21.5108 10.0566 20.8647 10.0566H17.6753C17.0293 10.0566 16.5009 10.5473 16.5009 11.1472V14.091C16.5009 14.6908 17.0293 15.1815 17.6753 15.1815ZM10.317 15.182H13.4872L13.4872 15.1819C14.1332 15.1819 14.6616 14.7092 14.6808 14.1099V11.1476C14.6808 10.5477 14.1525 10.0571 13.5064 10.0571H10.317C9.67095 10.0571 9.14258 10.5477 9.14258 11.1476V14.0914C9.14258 14.6913 9.67095 15.182 10.317 15.182ZM13.5271 21.8502H10.3369C9.69088 21.8502 9.1625 21.3596 9.1625 20.7597L9.16319 17.8159C9.16319 17.216 9.69156 16.7254 10.3376 16.7254H13.527C14.1731 16.7254 14.7014 17.216 14.7014 17.8159V20.7775C14.6815 21.3595 14.1531 21.8502 13.527 21.8502L13.5271 21.8502ZM17.7146 21.8502H20.8848V21.8502C21.5309 21.8502 22.0592 21.3595 22.0592 20.7782V17.8165C22.0592 17.2167 21.5309 16.726 20.8848 16.726L17.7146 16.7254C17.0686 16.7254 16.5402 17.216 16.5402 17.8159V20.7597C16.5402 21.3596 17.0686 21.8502 17.7146 21.8502Z" fill="#1862b8"/>
</svg>
