<svg width="32" height="32" viewBox="0 0 32 32" fill="none" xmlns="http://www.w3.org/2000/svg">
<path fill-rule="evenodd" clip-rule="evenodd" d="M16 32C24.8366 32 32 24.8366 32 16C32 7.16344 24.8366 0 16 0C7.16344 0 0 7.16344 0 16C0 24.8366 7.16344 32 16 32Z" fill="#8db5e3"/>
<path d="M20.75 15L18.95 12.6001C18.6186 12.1582 18.7082 11.5314 19.15 11.2001C19.5918 10.8687 20.2186 10.9582 20.55 11.4001L24 16.0001L20.55 20.6001C20.2186 21.0419 19.5918 21.1314 19.15 20.8001C18.7082 20.4687 18.6186 19.8419 18.95 19.4001L20.75 17H9C8.44772 17 8 16.5523 8 16C8 15.4477 8.44772 15 9 15H20.75Z" fill="#1862b8"/>
</svg>
