<svg width="71" height="71" viewBox="0 0 71 71" fill="none" xmlns="http://www.w3.org/2000/svg">
<path d="M35.5 71C55.1061 71 71 55.1061 71 35.5C71 15.8939 55.1061 0 35.5 0C15.8939 0 0 15.8939 0 35.5C0 55.1061 15.8939 71 35.5 71Z" fill="#F8F8F8"/>
<path fill-rule="evenodd" clip-rule="evenodd" d="M16.7608 30.0138H53.6968V22.4678H16.7598L16.7608 30.0138Z" fill="url(#paint0_linear)"/>
<path fill-rule="evenodd" clip-rule="evenodd" d="M32.4196 20.6877H38.0336V14.4287H32.4196V20.6877ZM32.4196 30.2427H38.0336V22.0147H32.4196V30.2427ZM30.9286 21.2107H24.3086V14.5947L30.9286 17.2367V21.2107Z" fill="#1A1919"/>
<mask id="mask0" mask-type="alpha" maskUnits="userSpaceOnUse" x="16" y="14" width="38" height="44">
<path d="M16.75 14.5947H53.7V57.9497H16.75V14.5947Z" fill="white"/>
</mask>
<g mask="url(#mask0)">
<path fill-rule="evenodd" clip-rule="evenodd" d="M39.5273 21.2107H46.1463V14.5947L39.5273 17.2367V21.2107Z" fill="#1A1919"/>
<path fill-rule="evenodd" clip-rule="evenodd" d="M46.175 50.4193C47.887 48.8623 48.665 46.7863 48.665 44.1393V37.3413H21.785V44.1393C21.785 46.7863 22.564 48.8623 24.276 50.4193C26.404 52.3393 30.4 52.3913 35.486 52.3913C40.571 52.3913 44.048 52.3383 46.176 50.4193H46.175ZM20.227 54.2593C17.892 51.9243 16.75 48.5503 16.75 44.7103V31.7373H53.7V44.7093C53.7 48.5493 52.558 51.9233 50.222 54.2583C46.226 58.2543 40.829 57.9953 35.485 57.9953C30.139 57.9953 24.222 58.2543 20.227 54.2583V54.2593Z" fill="url(#paint1_linear)"/>
</g>
<circle cx="59.5" cy="59.5" r="8.5" fill="##1862b8"/>
<circle cx="59.5" cy="55.5" r="1.5" fill="white"/>
<rect x="58" y="58" width="3" height="7" fill="white"/>
<defs>
<linearGradient id="paint0_linear" x1="35.2283" y1="25.9257" x2="35.1654" y2="26.6509" gradientUnits="userSpaceOnUse">
<stop stop-color="#FFDB1B"/>
<stop offset="1" stop-color="#DDBE1B"/>
</linearGradient>
<linearGradient id="paint1_linear" x1="35.225" y1="31.6015" x2="34.5745" y2="57.6882" gradientUnits="userSpaceOnUse">
<stop stop-color="#FFDB1B"/>
<stop offset="1" stop-color="#DDBE1B"/>
</linearGradient>
</defs>
</svg>
