<svg width="71" height="71" viewBox="0 0 71 71" fill="none" xmlns="http://www.w3.org/2000/svg">
<path d="M35.5 71C55.1061 71 71 55.1061 71 35.5C71 15.8939 55.1061 0 35.5 0C15.8939 0 0 15.8939 0 35.5C0 55.1061 15.8939 71 35.5 71Z" fill="#F8F8F8"/>
<path fill-rule="evenodd" clip-rule="evenodd" d="M16.7549 30.0138H53.4049V22.4678H16.7549V30.0138Z" fill="url(#paint0_linear)"/>
<path fill-rule="evenodd" clip-rule="evenodd" d="M32.2921 20.6877H37.8641V14.4287H32.2921V20.6877ZM32.2921 30.2427H37.8641V22.0147H32.2921V30.2427ZM30.8141 21.2107H24.2451V14.5947L30.8141 17.2367V21.2107Z" fill="#1A1919"/>
<mask id="mask0" mask-type="alpha" maskUnits="userSpaceOnUse" x="16" y="14" width="38" height="44">
<path d="M16.7441 14.5947H53.4081V57.9497H16.7441V14.5947Z" fill="white"/>
</mask>
<g mask="url(#mask0)">
<path fill-rule="evenodd" clip-rule="evenodd" d="M39.3447 21.2107H45.9117V14.5947L39.3447 17.2367V21.2107Z" fill="#1A1919"/>
<path fill-rule="evenodd" clip-rule="evenodd" d="M45.9421 50.4193C47.6401 48.8623 48.4131 46.7863 48.4131 44.1393V37.3413H21.7401V44.1393C21.7401 46.7863 22.5131 48.8623 24.2121 50.4193C26.3231 52.3393 30.2881 52.3913 35.3351 52.3913C40.3811 52.3913 43.8311 52.3383 45.9431 50.4193H45.9421ZM20.1951 54.2593C17.8771 51.9243 16.7441 48.5503 16.7441 44.7103V31.7373H53.4081V44.7093C53.4081 48.5493 52.2751 51.9233 49.9581 54.2583C45.9931 58.2543 40.6371 57.9953 35.3341 57.9953C30.0291 57.9953 24.1591 58.2543 20.1941 54.2583L20.1951 54.2593Z" fill="url(#paint1_linear)"/>
</g>
<circle cx="59.5" cy="59.5" r="8.5" fill="#1862b8"/>
<circle cx="59.5" cy="55.5" r="1.5" fill="white"/>
<rect x="58" y="58" width="3" height="7" fill="white"/>
<defs>
<linearGradient id="paint0_linear" x1="40.4979" y1="26.0808" x2="39.0312" y2="28.7021" gradientUnits="userSpaceOnUse">
<stop stop-color="#1862b8"/>
<stop offset="1" stop-color="#38AD2B"/>
</linearGradient>
<linearGradient id="paint1_linear" x1="40.4962" y1="38.1309" x2="37.6489" y2="55.8324" gradientUnits="userSpaceOnUse">
<stop stop-color="#1862b8"/>
<stop offset="1" stop-color="#38AD2B"/>
</linearGradient>
</defs>
</svg>
