<svg width="32" height="32" viewBox="0 0 32 32" fill="none" xmlns="http://www.w3.org/2000/svg">
<path fill-rule="evenodd" clip-rule="evenodd" d="M16 32C24.8366 32 32 24.8366 32 16C32 7.16344 24.8366 0 16 0C7.16344 0 0 7.16344 0 16C0 24.8366 7.16344 32 16 32Z" fill="#8db5e3"/>
<path d="M14.6354 10.0566C14.2674 10.0566 13.9688 10.3524 13.9688 10.717C13.9688 11.0815 14.2674 11.3773 14.6354 11.3773H25.1154C25.4835 11.3773 25.7821 11.0815 25.7821 10.717C25.7821 10.3524 25.4835 10.0566 25.1154 10.0566H14.6354Z" fill="#1862b8"/>
<path d="M20.2265 17.6125C20.2265 17.2479 19.9279 16.9521 19.5599 16.9521H14.6354C14.2674 16.9521 13.9688 17.2479 13.9688 17.6125C13.9688 17.9779 14.2674 18.2728 14.6354 18.2728H19.5599C19.9279 18.2728 20.2265 17.9779 20.2265 17.6125Z" fill="#1862b8"/>
<path d="M23.5599 14.1662C23.5599 13.8008 23.2612 13.5059 22.8932 13.5059H14.6354C14.2674 13.5059 13.9688 13.8008 13.9688 14.1662C13.9688 14.5307 14.2674 14.8265 14.6354 14.8265H22.8932C23.2612 14.8265 23.5599 14.5307 23.5599 14.1662Z" fill="#1862b8"/>
<path d="M14.6354 20.4014C14.2674 20.4014 13.9688 20.6971 13.9688 21.0617C13.9688 21.4262 14.2674 21.722 14.6354 21.722H17.3376C17.7057 21.722 18.0043 21.4262 18.0043 21.0617C18.0043 20.6971 17.7057 20.4014 17.3376 20.4014H14.6354Z" fill="#1862b8"/>
<path d="M9.87599 10.0566C9.50706 10.0566 9.20933 10.3524 9.20933 10.717V19.4688L8.43588 18.6959C8.17286 18.4534 7.76315 18.4603 7.50966 18.7122C7.25619 18.9632 7.24837 19.3691 7.49317 19.6287L9.40463 21.522C9.66506 21.7799 10.0861 21.7799 10.3465 21.522L12.2579 19.6287C12.5027 19.3691 12.4949 18.9633 12.2415 18.7122C11.988 18.4603 11.5783 18.4534 11.3152 18.6959L10.5418 19.4619L10.5427 10.7171C10.5427 10.3526 10.244 10.0568 9.87599 10.0568L9.87599 10.0566Z" fill="#1862b8"/>
</svg>
