<svg width="344" height="638" viewBox="0 0 344 638" fill="none" xmlns="http://www.w3.org/2000/svg">
<g clip-path="url(#clip0)">
<mask id="mask0" mask-type="alpha" maskUnits="userSpaceOnUse" x="0" y="0" width="344" height="638">
<path fill-rule="evenodd" clip-rule="evenodd" d="M344 0H0V638H344V0ZM76.1841 565.102H267.096C280.567 565.102 291.302 554.143 291.302 540.866V78.2674C291.302 64.9901 280.567 54.031 267.096 54.031H235.734C232.576 54.031 229.84 56.7708 229.84 60.1428C229.84 67.0976 224.157 72.7878 217.211 72.7878H126.701C119.755 72.7878 114.072 67.0976 114.072 60.1428C114.072 56.7708 111.335 54.031 107.968 54.031H76.1841C62.9234 54.031 51.978 64.9901 51.978 78.2674V540.866C51.978 554.143 62.7129 565.102 76.1841 565.102Z" fill="#C4C4C4"/>
</mask>
<g mask="url(#mask0)">
<g filter="url(#filter0_dd)">
<path d="M38 78.8C38 56.2667 56.2668 38 78.8 38H265.2C287.733 38 306 56.2668 306 78.8V539.2C306 561.733 287.733 580 265.2 580H78.8C56.2668 580 38 561.733 38 539.2V78.8Z" fill="white"/>
</g>
</g>
<path fill-rule="evenodd" clip-rule="evenodd" d="M78.8 38C56.2668 38 38 56.2667 38 78.8V539.2C38 561.733 56.2668 580 78.8 580H265.2C287.733 580 306 561.733 306 539.2V78.8C306 56.2668 287.733 38 265.2 38H78.8ZM76.1841 565.102H267.096C280.567 565.102 291.302 554.143 291.302 540.866V78.2673C291.302 64.99 280.567 54.031 267.096 54.031H235.734C232.576 54.031 229.84 56.7707 229.84 60.1428C229.84 67.0975 224.157 72.7878 217.211 72.7878H126.701C119.755 72.7878 114.072 67.0975 114.072 60.1428C114.072 56.7707 111.335 54.031 107.968 54.031H76.1841C62.9234 54.031 51.978 64.99 51.978 78.2673V540.866C51.978 554.143 62.7129 565.102 76.1841 565.102Z" fill="white"/>
<path fill-rule="evenodd" clip-rule="evenodd" d="M78.8 38C56.2668 38 38 56.2667 38 78.8V539.2C38 561.733 56.2668 580 78.8 580H265.2C287.733 580 306 561.733 306 539.2V78.8C306 56.2668 287.733 38 265.2 38H78.8ZM76.1841 565.102H267.096C280.567 565.102 291.302 554.143 291.302 540.866V78.2673C291.302 64.99 280.567 54.031 267.096 54.031H235.734C232.576 54.031 229.84 56.7707 229.84 60.1428C229.84 67.0975 224.157 72.7878 217.211 72.7878H126.701C119.755 72.7878 114.072 67.0975 114.072 60.1428C114.072 56.7707 111.335 54.031 107.968 54.031H76.1841C62.9234 54.031 51.978 64.99 51.978 78.2673V540.866C51.978 554.143 62.7129 565.102 76.1841 565.102Z" stroke="black" stroke-opacity="0.1"/>
<path d="M263.944 577.736H80.3006C58.3136 577.736 40.5146 559.891 40.5146 537.848V81.2401C40.5146 59.197 58.3136 41.3525 80.3006 41.3525H263.944C285.931 41.3525 303.73 59.197 303.73 81.2401V537.848C303.73 559.891 285.931 577.736 263.944 577.736ZM80.3006 44.0817C59.9888 44.0817 43.4462 60.6665 43.4462 81.0302V537.638C43.4462 558.002 59.9888 574.587 80.3006 574.587H263.944C284.256 574.587 300.799 558.002 300.799 537.638V81.2401C300.799 60.8765 284.256 44.2916 263.944 44.2916H80.3006V44.0817Z" fill="url(#paint0_linear)"/>
<g opacity="0.8">
<g opacity="0.8">
<path opacity="0.8" d="M143.433 58.0096C141.986 56.1472 139.3 55.9403 137.647 57.3888C135.787 58.8372 135.58 61.3203 137.027 63.1826C138.473 65.0449 140.953 65.2519 142.813 63.8034C144.673 62.3549 144.88 59.8719 143.433 58.0096ZM141.986 62.7688C140.746 63.8034 139.093 63.5965 138.06 62.3549C137.027 61.1134 137.233 59.458 138.473 58.4234C139.713 57.3888 141.366 57.5957 142.4 58.8372C143.433 60.0788 143.226 61.7342 141.986 62.7688Z" fill="url(#paint1_linear)"/>
<path opacity="0.8" d="M143.227 58.2157C141.78 56.5603 139.3 56.3533 137.647 57.5949C135.994 59.0433 135.787 61.3195 137.027 63.1818C138.474 64.8372 140.747 65.0441 142.607 63.8026C144.467 62.3541 144.673 59.871 143.227 58.2157ZM141.78 62.3541C140.747 63.1818 139.3 62.9749 138.474 61.9403C137.647 60.9057 137.854 59.4572 138.887 58.6295C139.92 57.8018 141.367 58.0087 142.193 59.0433C142.813 60.078 142.813 61.7334 141.78 62.3541Z" fill="url(#paint2_linear)"/>
<path opacity="0.8" d="M141.78 62.5618C142.813 61.7341 143.02 60.0787 142.193 59.0441C141.367 58.0095 139.713 57.8025 138.68 58.6302C137.647 59.4579 137.44 61.1133 138.267 62.1479C139.093 63.3895 140.747 63.5964 141.78 62.5618Z" fill="url(#paint3_radial)"/>
</g>
<g opacity="0.6">
<path opacity="0.05" d="M139.507 60.4925C139.3 59.4578 139.92 58.4232 139.093 58.6301C138.474 58.8371 138.06 59.4578 137.854 60.2855C137.854 61.3202 138.474 62.1478 138.887 62.3548C139.713 62.9755 139.713 61.734 139.507 60.4925Z" fill="white"/>
<path opacity="0.080645" d="M139.506 60.4926C139.3 59.4579 139.92 58.6302 139.093 58.6302C138.473 58.8372 138.06 59.4579 137.853 60.2856C137.853 61.3203 138.266 62.1479 138.886 62.3549C139.713 62.9756 139.713 61.7341 139.506 60.4926Z" fill="white"/>
<path opacity="0.1113" d="M139.506 60.4931C139.3 59.4585 139.713 58.6308 139.093 58.8377C138.473 59.0446 138.06 59.4585 137.853 60.4931C137.853 61.5277 138.266 62.3554 138.886 62.5623C139.713 62.9762 139.713 61.7346 139.506 60.4931Z" fill="white"/>
<path opacity="0.1419" d="M139.506 60.4931C139.3 59.4585 139.713 58.6308 139.093 58.8377C138.473 59.0446 138.06 59.4585 137.853 60.4931C137.853 61.5277 138.266 62.3554 138.68 62.5623C139.713 62.7692 139.713 61.7346 139.506 60.4931Z" fill="white"/>
<path opacity="0.1726" d="M139.505 60.4924C139.298 59.4577 139.712 58.6301 139.298 58.837C138.678 59.0439 138.265 59.4577 138.265 60.4924C138.265 61.527 138.678 62.1477 139.092 62.5616C139.712 62.7685 139.505 61.7339 139.505 60.4924Z" fill="white"/>
<path opacity="0.2032" d="M139.3 60.4931C139.093 59.6654 139.506 58.6308 139.093 58.8377C138.68 59.0446 138.06 59.4585 138.06 60.4931C138.06 61.3208 138.473 62.1485 138.886 62.3554C139.713 62.7692 139.506 61.5277 139.3 60.4931Z" fill="white"/>
<path opacity="0.2339" d="M139.3 60.4931C139.093 59.6654 139.506 58.6308 139.093 58.8377C138.68 59.0446 138.06 59.4585 138.06 60.4931C138.06 61.3208 138.473 62.1485 138.886 62.3554C139.713 62.7692 139.506 61.5277 139.3 60.4931Z" fill="white"/>
<path opacity="0.2645" d="M139.3 60.4932C139.093 59.6655 139.506 58.8378 139.093 58.8378C138.68 59.0447 138.06 59.4585 138.06 60.4932C138.06 61.3208 138.473 62.1485 138.886 62.3555C139.713 62.5624 139.506 61.5278 139.3 60.4932Z" fill="white"/>
<path opacity="0.2952" d="M139.3 60.4932C139.093 59.6655 139.506 58.8378 139.093 58.8378C138.68 59.0447 138.06 59.4585 138.06 60.2862C138.06 61.1139 138.473 61.9416 138.886 62.1485C139.506 62.5624 139.506 61.5278 139.3 60.4932Z" fill="white"/>
<path opacity="0.3258" d="M139.3 60.4932C139.093 59.6655 139.506 58.8378 139.093 58.8378C138.68 59.0447 138.06 59.4585 138.06 60.2862C138.06 61.1139 138.473 61.9416 138.886 62.1485C139.506 62.5624 139.506 61.5278 139.3 60.4932Z" fill="white"/>
<path opacity="0.3565" d="M139.299 60.4916C139.093 59.6639 139.506 58.8362 139.093 59.0431C138.679 59.2501 138.266 59.6639 138.059 60.4916C138.059 61.3193 138.473 61.9401 138.886 62.147C139.506 62.5608 139.506 61.5262 139.299 60.4916Z" fill="white"/>
<path opacity="0.3871" d="M139.299 60.4916C139.093 59.6639 139.506 58.8362 139.093 59.0431C138.679 59.2501 138.266 59.6639 138.059 60.4916C138.059 61.3193 138.473 61.9401 138.886 62.147C139.506 62.3539 139.506 61.5262 139.299 60.4916Z" fill="white"/>
<path opacity="0.4177" d="M139.298 60.4923C139.092 59.6646 139.505 58.837 139.092 59.0439C138.678 59.0439 138.265 59.6646 138.265 60.4923C138.265 61.32 138.678 61.9408 139.092 62.1477C139.505 62.3546 139.505 61.527 139.298 60.4923Z" fill="white"/>
<path opacity="0.4484" d="M139.298 60.4934C139.092 59.6657 139.505 59.0449 139.092 59.0449C138.678 59.0449 138.265 59.6657 138.265 60.4934C138.265 61.3211 138.678 61.9418 139.092 62.1488C139.505 62.3557 139.298 61.3211 139.298 60.4934Z" fill="white"/>
<path opacity="0.479" d="M139.298 60.4934C139.092 59.6657 139.505 59.0449 139.092 59.0449C138.678 59.0449 138.265 59.6657 138.265 60.4934C138.265 61.3211 138.678 61.9418 138.885 62.1488C139.505 62.1488 139.298 61.3211 139.298 60.4934Z" fill="white"/>
<path opacity="0.5097" d="M139.093 60.4925C138.886 59.6648 139.299 59.0441 138.886 59.0441C138.473 59.0441 138.059 59.6648 138.059 60.2856C138.059 61.1133 138.473 61.7341 138.679 61.7341C139.506 62.1479 139.299 61.3202 139.093 60.4925Z" fill="white"/>
<path opacity="0.5403" d="M139.093 60.4925C138.886 59.6648 139.299 59.0441 138.886 59.0441C138.473 59.0441 138.059 59.6648 138.059 60.2856C138.059 61.1133 138.473 61.5271 138.679 61.7341C139.299 62.1479 139.299 61.3202 139.093 60.4925Z" fill="white"/>
<path opacity="0.571" d="M139.093 60.4923C138.886 59.8716 139.299 59.0439 138.886 59.2508C138.473 59.2508 138.059 59.8716 138.059 60.4923C138.059 61.1131 138.266 61.7339 138.679 61.9408C139.299 62.1477 139.299 61.32 139.093 60.4923Z" fill="white"/>
<path opacity="0.6016" d="M139.093 60.4923C138.886 59.8716 139.299 59.0439 138.886 59.2508C138.473 59.2508 138.059 59.8716 138.059 60.4923C138.059 61.1131 138.266 61.7339 138.679 61.9408C139.299 61.9408 139.299 61.32 139.093 60.4923Z" fill="white"/>
<path opacity="0.6323" d="M139.093 60.4926C138.886 59.8719 139.299 59.2511 138.886 59.2511C138.473 59.2511 138.266 59.8719 138.059 60.4926C138.059 61.1134 138.266 61.7342 138.679 61.9411C139.299 61.9411 139.299 61.3203 139.093 60.4926Z" fill="white"/>
<path opacity="0.6629" d="M139.093 60.4926C139.093 59.8719 139.299 59.2511 138.886 59.2511C138.473 59.2511 138.266 59.8719 138.059 60.4926C138.059 61.1134 138.266 61.7342 138.679 61.7342C139.299 61.9411 139.299 61.3203 139.093 60.4926Z" fill="white"/>
<path opacity="0.6935" d="M139.091 60.4926C139.091 59.8719 139.298 59.2511 138.885 59.2511C138.472 59.2511 138.265 59.8719 138.265 60.4926C138.265 61.1134 138.472 61.7342 138.885 61.7342C139.298 61.9411 139.091 61.1134 139.091 60.4926Z" fill="white"/>
<path opacity="0.7242" d="M139.091 60.4926C139.091 59.8719 139.298 59.2511 138.885 59.2511C138.472 59.2511 138.265 59.6649 138.265 60.4926C138.265 61.1134 138.472 61.7342 138.885 61.7342C139.298 61.7342 139.091 61.1134 139.091 60.4926Z" fill="white"/>
<path opacity="0.7548" d="M139.093 60.4926C139.093 59.8719 139.3 59.2511 139.093 59.2511C138.68 59.2511 138.474 59.6649 138.474 60.2857C138.474 60.9065 138.68 61.3203 139.093 61.5273C139.3 61.7342 139.093 61.1134 139.093 60.4926Z" fill="white"/>
<path opacity="0.7855" d="M139.093 60.4926C139.093 59.8719 139.3 59.2511 139.093 59.2511C138.68 59.2511 138.474 59.6649 138.474 60.2857C138.474 60.9065 138.68 61.3203 138.887 61.5273C139.093 61.7342 139.093 61.1134 139.093 60.4926Z" fill="white"/>
<path opacity="0.8161" d="M138.885 60.4924C138.885 59.8717 139.091 59.2509 138.885 59.4578C138.678 59.4578 138.265 59.8717 138.265 60.4924C138.265 61.1132 138.472 61.5271 138.678 61.5271C139.091 61.734 139.091 61.1132 138.885 60.4924Z" fill="white"/>
<path opacity="0.8468" d="M138.885 60.4924C138.885 59.8716 139.091 59.4578 138.885 59.4578C138.678 59.4578 138.265 59.8716 138.265 60.4924C138.265 61.1132 138.472 61.527 138.678 61.527C139.091 61.527 139.091 61.1132 138.885 60.4924Z" fill="white"/>
<path opacity="0.8774" d="M138.885 60.4924C138.885 59.8716 139.091 59.4578 138.885 59.4578C138.678 59.4578 138.265 59.8716 138.265 60.4924C138.265 61.1132 138.472 61.527 138.678 61.527C139.091 61.527 139.091 61.1132 138.885 60.4924Z" fill="white"/>
<path opacity="0.9081" d="M138.885 60.4924C138.885 60.0785 139.091 59.4578 138.885 59.4578C138.678 59.4578 138.472 59.8716 138.265 60.4924C138.265 61.1132 138.472 61.527 138.678 61.527C139.091 61.527 139.091 61.1132 138.885 60.4924Z" fill="white"/>
<path opacity="0.9387" d="M138.885 60.4924C138.885 60.0785 139.091 59.4578 138.885 59.4578C138.678 59.4578 138.472 59.8716 138.265 60.4924C138.265 60.9062 138.472 61.3201 138.678 61.527C139.091 61.527 138.885 60.9062 138.885 60.4924Z" fill="white"/>
<path opacity="0.9694" d="M138.887 60.4924C138.887 60.0785 139.093 59.4578 138.887 59.4578C138.68 59.4578 138.474 59.8716 138.474 60.2855C138.474 60.6993 138.68 61.1131 138.887 61.1131C139.093 61.3201 138.887 60.9062 138.887 60.4924Z" fill="white"/>
<path opacity="0.6" d="M138.887 60.4924C138.887 60.0785 139.093 59.4578 138.887 59.4578C138.68 59.4578 138.474 59.8716 138.474 60.2855C138.474 60.6993 138.68 61.1131 138.887 61.1131C139.093 61.3201 138.887 60.9062 138.887 60.4924Z" fill="white"/>
</g>
<g opacity="0.5">
<path opacity="0.05" d="M142.401 59.8718C141.988 58.8372 141.368 58.2164 140.541 58.4233C139.714 58.6302 139.714 59.8718 139.921 60.9064C139.921 62.1479 140.954 62.3549 141.781 62.1479C142.608 61.7341 142.814 60.9064 142.401 59.8718Z" fill="white"/>
<path opacity="0.080645" d="M142.401 59.8718C141.988 59.0441 141.368 58.4233 140.541 58.4233C139.714 58.6303 139.714 59.8718 139.921 60.6995C139.921 61.7341 140.954 62.148 141.781 61.941C142.608 61.7341 142.814 60.6995 142.401 59.8718Z" fill="white"/>
<path opacity="0.1113" d="M142.402 59.8718C142.195 59.0441 141.369 58.4233 140.542 58.4233C139.715 58.6303 139.922 59.6649 139.922 60.6995C139.922 61.7341 140.955 62.148 141.782 61.941C142.609 61.7341 142.815 60.6995 142.402 59.8718Z" fill="white"/>
<path opacity="0.1419" d="M142.402 59.8725C142.195 59.0448 141.369 58.424 140.542 58.6309C139.715 58.8378 139.922 59.8725 139.922 60.9071C139.922 61.9417 140.955 62.3555 141.575 61.9417C142.609 61.5279 142.609 60.7002 142.402 59.8725Z" fill="white"/>
<path opacity="0.1726" d="M142.401 59.8719C142.194 59.0442 141.367 58.4234 140.747 58.6303C139.921 58.8372 140.127 59.8719 140.127 60.9065C140.127 61.9411 141.161 62.3549 141.781 61.9411C142.401 61.5272 142.607 60.6995 142.401 59.8719Z" fill="white"/>
<path opacity="0.2032" d="M142.401 59.8719C142.194 59.0442 141.367 58.4234 140.747 58.6303C139.921 58.8372 140.127 59.8719 140.127 60.6995C140.127 61.7342 140.954 61.9411 141.781 61.7342C142.401 61.5272 142.607 60.6995 142.401 59.8719Z" fill="white"/>
<path opacity="0.2339" d="M142.194 59.8725C141.987 59.0448 141.367 58.424 140.54 58.6309C139.92 58.8378 139.92 59.8725 139.92 60.7002C139.92 61.7348 140.747 61.9417 141.574 61.7348C142.4 61.5279 142.607 60.7002 142.194 59.8725Z" fill="white"/>
<path opacity="0.2645" d="M142.194 59.8726C141.987 59.045 141.367 58.6311 140.54 58.6311C139.92 58.838 139.92 59.8726 139.92 60.7003C139.92 61.735 140.747 61.9419 141.574 61.735C142.4 61.3211 142.607 60.7003 142.194 59.8726Z" fill="white"/>
<path opacity="0.2952" d="M142.194 59.8726C141.987 59.045 141.367 58.6311 140.54 58.6311C139.92 58.838 139.92 59.8726 139.92 60.4934C139.92 61.3211 140.747 61.735 141.367 61.528C142.4 61.3211 142.4 60.7003 142.194 59.8726Z" fill="white"/>
<path opacity="0.3258" d="M142.194 59.8716C141.987 59.044 141.367 58.6301 140.747 58.837C140.127 59.044 140.127 59.8716 140.334 60.6993C140.334 61.527 141.16 61.9409 141.78 61.734C142.194 61.3201 142.4 60.4924 142.194 59.8716Z" fill="white"/>
<path opacity="0.3565" d="M142.194 59.8716C141.987 59.044 141.367 58.6301 140.747 58.837C140.127 59.044 140.127 59.8716 140.334 60.6993C140.334 61.527 141.16 61.734 141.78 61.527C142.194 61.3201 142.4 60.4924 142.194 59.8716Z" fill="white"/>
<path opacity="0.3871" d="M142.194 59.8724C141.987 59.2517 141.367 58.6309 140.747 58.8378C140.127 59.0448 140.127 59.8724 140.334 60.7001C140.334 61.5278 141.16 61.7348 141.78 61.5278C142.194 61.3209 142.4 60.4932 142.194 59.8724Z" fill="white"/>
<path opacity="0.4177" d="M142.194 59.8724C141.987 59.2517 141.367 58.6309 140.747 58.8378C140.127 59.0448 140.127 59.8724 140.334 60.4932C140.334 61.3209 141.16 61.5278 141.574 61.3209C142.194 61.114 142.4 60.4932 142.194 59.8724Z" fill="white"/>
<path opacity="0.4484" d="M141.986 59.8728C141.78 59.252 141.16 58.8381 140.54 58.8381C139.92 59.0451 140.126 59.8728 140.126 60.4935C140.126 61.3212 140.746 61.5281 141.366 61.3212C142.193 61.1143 142.193 60.4935 141.986 59.8728Z" fill="white"/>
<path opacity="0.479" d="M141.988 59.8728C141.781 59.252 141.161 58.8381 140.748 58.8381C140.128 59.0451 140.335 59.8728 140.335 60.4935C140.335 61.3212 140.955 61.5281 141.575 61.3212C142.195 61.1143 142.195 60.4935 141.988 59.8728Z" fill="white"/>
<path opacity="0.5097" d="M141.988 59.8719C141.781 59.2511 141.368 58.8373 140.748 59.0442C140.128 59.2511 140.335 60.0788 140.335 60.6996C140.335 61.5273 140.955 61.7342 141.575 61.5273C141.988 61.1134 142.195 60.4926 141.988 59.8719Z" fill="white"/>
<path opacity="0.5403" d="M141.988 59.8719C141.781 59.2511 141.368 58.8373 140.748 59.0442C140.128 59.2511 140.335 59.8719 140.335 60.4926C140.335 61.1134 140.955 61.3203 141.575 61.3203C141.988 60.9065 142.195 60.2857 141.988 59.8719Z" fill="white"/>
<path opacity="0.571" d="M141.987 59.8719C141.781 59.2511 141.367 58.8373 140.747 59.0442C140.334 59.2511 140.334 59.8719 140.334 60.4926C140.541 61.1134 140.954 61.3203 141.367 61.1134C141.987 60.9065 142.194 60.2857 141.987 59.8719Z" fill="white"/>
<path opacity="0.6016" d="M141.987 59.6658C141.781 59.0451 141.367 58.8381 140.747 58.8381C140.334 59.0451 140.334 59.6658 140.334 60.2866C140.541 60.9074 140.954 61.1143 141.367 60.9074C141.987 60.9074 142.194 60.2866 141.987 59.6658Z" fill="white"/>
<path opacity="0.6323" d="M141.781 59.6658C141.574 59.0451 141.161 58.8381 140.747 58.8381C140.334 59.0451 140.334 59.6658 140.334 60.2866C140.541 60.9074 140.954 61.1143 141.367 60.9074C141.987 60.9074 141.987 60.2866 141.781 59.6658Z" fill="white"/>
<path opacity="0.6629" d="M141.779 59.6658C141.573 59.252 141.159 58.8381 140.746 58.8381C140.333 59.0451 140.333 59.6658 140.539 60.0797C140.746 60.7004 141.159 60.9074 141.573 60.7004C141.986 60.7004 141.986 60.2866 141.779 59.6658Z" fill="white"/>
<path opacity="0.6935" d="M141.779 59.6647C141.573 59.2509 141.159 58.837 140.746 59.0439C140.333 59.0439 140.333 59.8716 140.539 60.2855C140.746 60.9062 140.953 61.1132 141.366 60.9062C141.779 60.6993 141.986 60.2855 141.779 59.6647Z" fill="white"/>
<path opacity="0.7242" d="M141.779 59.6647C141.573 59.2509 141.159 58.837 140.746 59.0439C140.333 59.0439 140.333 59.8716 140.539 60.2855C140.746 60.9062 140.953 60.9062 141.366 60.9062C141.779 60.6993 141.986 60.2855 141.779 59.6647Z" fill="white"/>
<path opacity="0.7548" d="M141.781 59.6647C141.574 59.2509 141.161 58.837 140.954 59.0439C140.541 59.0439 140.541 59.6647 140.748 60.2855C140.954 60.6993 141.161 60.9062 141.574 60.9062C141.781 60.6993 141.988 60.2855 141.781 59.6647Z" fill="white"/>
<path opacity="0.7855" d="M141.781 59.6647C141.574 59.2509 141.161 59.0439 140.954 59.0439C140.541 59.0439 140.541 59.6647 140.748 60.0786C140.954 60.4924 141.161 60.6993 141.574 60.4924C141.781 60.4924 141.781 60.0786 141.781 59.6647Z" fill="white"/>
<path opacity="0.8161" d="M141.78 59.6647C141.573 59.2509 141.367 59.0439 140.953 59.0439C140.54 59.0439 140.747 59.6647 140.747 60.0786C140.953 60.4924 141.16 60.6993 141.573 60.4924C141.78 60.4924 141.78 60.0786 141.78 59.6647Z" fill="white"/>
<path opacity="0.8468" d="M141.573 59.6647C141.366 59.2509 141.16 59.0439 140.746 59.0439C140.333 59.0439 140.54 59.6647 140.54 60.0786C140.746 60.4924 140.953 60.6993 141.16 60.4924C141.78 60.4924 141.78 60.0786 141.573 59.6647Z" fill="white"/>
<path opacity="0.8774" d="M141.574 59.6648C141.367 59.251 141.16 59.0441 140.747 59.251C140.54 59.251 140.54 59.8717 140.54 60.2856C140.747 60.6994 140.954 60.6994 141.16 60.6994C141.574 60.4925 141.78 60.0787 141.574 59.6648Z" fill="white"/>
<path opacity="0.9081" d="M141.573 59.6648C141.367 59.251 141.16 59.0441 140.954 59.251C140.747 59.251 140.747 59.8717 140.747 60.0787C140.954 60.4925 141.16 60.4925 141.367 60.4925C141.573 60.4925 141.779 60.0787 141.573 59.6648Z" fill="white"/>
<path opacity="0.9387" d="M141.573 59.6648C141.367 59.251 141.16 59.0441 140.954 59.251C140.747 59.251 140.747 59.8717 140.747 60.0787C140.954 60.4925 140.954 60.4925 141.367 60.4925C141.573 60.2856 141.779 60.0787 141.573 59.6648Z" fill="white"/>
<path opacity="0.9694" d="M141.573 59.6648C141.366 59.4579 141.16 59.251 140.954 59.251C140.747 59.251 140.747 59.6648 140.747 60.0787C140.954 60.2856 140.954 60.4925 141.16 60.2856C141.573 60.2856 141.573 60.0787 141.573 59.6648Z" fill="white"/>
<path opacity="0.5" d="M141.574 59.6648C141.574 59.4579 141.161 59.251 140.954 59.251C140.748 59.251 140.748 59.6648 140.954 60.0787C141.161 60.2856 141.161 60.4925 141.367 60.2856C141.574 60.2856 141.574 59.8717 141.574 59.6648Z" fill="white"/>
</g>
</g>
<g opacity="0.6">
<g opacity="0.8">
<path opacity="0.8" d="M187.453 62.9755H156.66C155.42 62.9755 154.387 61.9409 154.387 60.6994C154.387 59.4578 155.42 58.4232 156.66 58.4232H187.453C188.693 58.4232 189.726 59.4578 189.726 60.6994C189.52 61.9409 188.693 62.9755 187.453 62.9755ZM156.66 59.2509C155.833 59.2509 155.007 59.8717 155.007 60.9063C155.007 61.734 155.627 62.5617 156.66 62.5617H187.453C188.28 62.5617 189.106 61.9409 189.106 60.9063C189.106 60.0786 188.486 59.2509 187.453 59.2509H156.66Z" fill="#A7A7A7"/>
</g>
<g opacity="0.6">
<path opacity="0.6" d="M187.453 59.2507H156.66C155.834 59.2507 155.007 59.8715 155.007 60.9061C155.007 61.7338 155.627 62.5615 156.66 62.5615H187.453C188.28 62.5615 189.107 61.9407 189.107 60.9061C188.9 59.8715 188.28 59.2507 187.453 59.2507Z" fill="#CCCCCC"/>
</g>
</g>
<mask id="mask1" mask-type="alpha" maskUnits="userSpaceOnUse" x="38" y="38" width="268" height="542">
<path d="M38 78.2287C38 56.011 56.0146 38 78.2368 38H265.763C287.985 38 306 56.011 306 78.2287V539.771C306 561.989 287.985 580 265.763 580H78.2368C56.0147 580 38 561.989 38 539.771V78.2287Z" fill="white"/>
</mask>
<g mask="url(#mask1)">
<rect x="38" y="38" width="268" height="542" fill="url(#paint4_radial)"/>
</g>
</g>
<defs>
<filter id="filter0_dd" x="8" y="8" width="328" height="602" filterUnits="userSpaceOnUse" color-interpolation-filters="sRGB">
<feFlood flood-opacity="0" result="BackgroundImageFix"/>
<feColorMatrix in="SourceAlpha" type="matrix" values="0 0 0 0 0 0 0 0 0 0 0 0 0 0 0 0 0 0 127 0"/>
<feOffset/>
<feGaussianBlur stdDeviation="15"/>
<feColorMatrix type="matrix" values="0 0 0 0 0 0 0 0 0 0 0 0 0 0 0 0 0 0 0.45 0"/>
<feBlend mode="normal" in2="BackgroundImageFix" result="effect1_dropShadow"/>
<feColorMatrix in="SourceAlpha" type="matrix" values="0 0 0 0 0 0 0 0 0 0 0 0 0 0 0 0 0 0 127 0"/>
<feOffset dy="4"/>
<feGaussianBlur stdDeviation="2"/>
<feColorMatrix type="matrix" values="0 0 0 0 0 0 0 0 0 0 0 0 0 0 0 0 0 0 0.25 0"/>
<feBlend mode="normal" in2="effect1_dropShadow" result="effect2_dropShadow"/>
<feBlend mode="normal" in="SourceGraphic" in2="effect2_dropShadow" result="shape"/>
</filter>
<linearGradient id="paint0_linear" x1="172.131" y1="577.671" x2="172.131" y2="41.3993" gradientUnits="userSpaceOnUse">
<stop offset="0.0215054" stop-color="#EDEDED"/>
<stop offset="0.025484" stop-color="#E3E3E3"/>
<stop offset="0.0318932" stop-color="#D9D9D9"/>
<stop offset="0.0403761" stop-color="#D6D6D6"/>
<stop offset="0.0436682" stop-color="#DFDFDF"/>
<stop offset="0.0498104" stop-color="#EDEDED"/>
<stop offset="0.9477" stop-color="#EDEDED"/>
<stop offset="0.9651" stop-color="#D6D6D6"/>
<stop offset="0.9757" stop-color="#E1E1E1"/>
<stop offset="0.9839" stop-color="#EDEDED"/>
</linearGradient>
<linearGradient id="paint1_linear" x1="143.627" y1="62.9883" x2="136.855" y2="58.253" gradientUnits="userSpaceOnUse">
<stop stop-color="#ABABAB"/>
<stop offset="1" stop-color="#C2C2C2"/>
</linearGradient>
<linearGradient id="paint2_linear" x1="143.457" y1="62.8681" x2="137.027" y2="58.3714" gradientUnits="userSpaceOnUse">
<stop stop-color="#C7C7C7"/>
<stop offset="0.0576971" stop-color="#C1C1C1"/>
<stop offset="0.2348" stop-color="#B4B4B4"/>
<stop offset="0.4705" stop-color="#ADADAD"/>
<stop offset="1" stop-color="#ABABAB"/>
</linearGradient>
<radialGradient id="paint3_radial" cx="0" cy="0" r="1" gradientUnits="userSpaceOnUse" gradientTransform="translate(140.244 60.6193) rotate(141.143) scale(2.56597 2.56666)">
<stop stop-color="#B0B0B0"/>
<stop offset="0.3796" stop-color="#B8B8B8"/>
<stop offset="0.664" stop-color="#C2C2C2"/>
<stop offset="0.7826" stop-color="#BFBFBF"/>
<stop offset="0.8701" stop-color="#B6B6B6"/>
<stop offset="0.9423" stop-color="#A7A7A7"/>
<stop offset="1" stop-color="#CBCBCB"/>
</radialGradient>
<radialGradient id="paint4_radial" cx="0" cy="0" r="1" gradientUnits="userSpaceOnUse" gradientTransform="translate(74.5048 172.13) rotate(64.0647) scale(406.334 200.902)">
<stop stop-color="white" stop-opacity="0.35"/>
<stop offset="0.608614" stop-color="white" stop-opacity="0"/>
</radialGradient>
<clipPath id="clip0">
<rect width="344" height="638" fill="white"/>
</clipPath>
</defs>
</svg>
