<svg width="121" height="130" viewBox="0 0 121 130" fill="none" xmlns="http://www.w3.org/2000/svg">
  <g clip-path="url(#clip0_246_29070)">
    <path d="M63.1651 112.699C62.6285 112.699 62.0987 112.578 61.6151 112.344C61.1314 112.111 60.7062 111.771 60.3709 111.35C53.2781 102.489 30.1464 72.3922 30.1464 57.1086C30.0939 52.7171 30.9092 48.3587 32.5451 44.2861C34.1809 40.2136 36.6049 36.5078 39.6764 33.3837C42.7479 30.2595 46.4059 27.7791 50.4383 26.0862C54.4707 24.3933 58.7973 23.5216 63.1674 23.5216C67.5376 23.5216 71.8642 24.3933 75.8966 26.0862C79.929 27.7791 83.587 30.2595 86.6585 33.3837C89.73 36.5078 92.154 40.2136 93.7898 44.2861C95.4257 48.3587 96.241 52.7171 96.1885 57.1086C96.1885 72.4066 73.052 102.503 65.964 111.35C65.6277 111.771 65.2017 112.111 64.7172 112.344C64.2328 112.578 63.7023 112.699 63.1651 112.699ZM63.1651 31.3945C58.1073 31.3945 53.1632 32.9018 48.9578 35.7257C44.7525 38.5496 41.4748 42.5634 39.5393 47.2594C37.6038 51.9554 37.0974 57.1227 38.0841 62.108C39.0708 67.0933 41.5063 71.6725 45.0827 75.2667C48.659 78.8609 53.2156 81.3085 58.1761 82.3002C63.1367 83.2918 68.2784 82.7828 72.9512 80.8377C77.6239 78.8925 81.6178 75.5985 84.4277 71.3722C87.2376 67.1459 88.7374 62.1772 88.7374 57.0942C88.7298 50.2806 86.0332 43.7482 81.2391 38.9302C76.445 34.1122 69.9449 31.4021 63.1651 31.3945Z" fill="#ECB760"/>
    <path d="M63.1652 78.9923C58.8544 78.9923 54.6406 77.7076 51.0564 75.3007C47.4722 72.8937 44.6788 69.4727 43.0294 65.4702C41.38 61.4677 40.9487 57.0635 41.79 52.8146C42.6313 48.5658 44.7075 44.6631 47.756 41.6001C50.8044 38.5371 54.6882 36.4515 58.9162 35.6069C63.1442 34.7623 67.5265 35.1967 71.5088 36.8552C75.4911 38.5137 78.8946 41.3218 81.2888 44.9244C83.683 48.5269 84.9604 52.7621 84.9595 57.0942C84.9531 62.9008 82.6548 68.4677 78.5688 72.5732C74.4828 76.6786 68.943 78.9872 63.1652 78.9923Z" fill="#ECB760"/>
    <path d="M63.1651 24.4872C58.9045 24.4872 54.6856 25.3306 50.7494 26.9693C46.8132 28.6081 43.2368 31.01 40.2243 34.0379C37.2119 37.0658 34.8224 40.6604 33.1924 44.6164C31.5624 48.5725 30.7237 52.8125 30.7244 57.0943C30.7244 72.1378 53.3688 101.673 60.8151 110.985C61.0971 111.337 61.4542 111.622 61.8601 111.817C62.2659 112.013 62.7102 112.114 63.1603 112.114C63.6103 112.114 64.0547 112.013 64.4605 111.817C64.8664 111.622 65.2235 111.337 65.5055 110.985C72.9565 101.673 95.5962 72.1378 95.5962 57.0943C95.5962 48.4488 92.1798 40.1573 86.0982 34.0427C80.0166 27.9281 71.7677 24.491 63.1651 24.4872ZM63.1651 83.37C57.9938 83.3652 52.9401 81.8198 48.6428 78.9289C44.3454 76.0381 40.9974 71.9317 39.0219 67.1289C37.0465 62.326 36.5323 57.0424 37.5444 51.9459C38.5565 46.8494 41.0494 42.1689 44.708 38.4961C48.3666 34.8233 53.0267 32.3231 58.099 31.3116C63.1713 30.3 68.4282 30.8225 73.205 32.8131C77.9819 34.8036 82.0643 38.1728 84.9361 42.4948C87.8079 46.8167 89.3402 51.8973 89.3392 57.0943C89.3392 60.5473 88.662 63.9664 87.3463 67.1562C86.0306 70.346 84.1021 73.2439 81.6713 75.6842C79.2404 78.1245 76.3548 80.0594 73.1793 81.3781C70.0039 82.6969 66.6009 83.3738 63.1651 83.37Z" fill="#ECB760"/>
    <path d="M84.3815 57.0943C84.3815 61.3114 83.1372 65.4337 80.8059 68.9401C78.4746 72.4465 75.161 75.1794 71.2843 76.7932C67.4075 78.4071 63.1416 78.8293 59.026 78.0066C54.9104 77.1839 51.13 75.1531 48.1629 72.1712C45.1957 69.1893 43.175 65.39 42.3564 61.254C41.5378 57.1179 41.9579 52.8308 43.5637 48.9347C45.1696 45.0386 47.8889 41.7085 51.3779 39.3656C54.8669 37.0227 58.9689 35.7722 63.1651 35.7722C65.9515 35.7716 68.7106 36.3227 71.285 37.394C73.8594 38.4653 76.1985 40.0358 78.1687 42.0159C80.139 43.996 81.7018 46.3467 82.7678 48.9339C83.8338 51.5211 84.3821 54.294 84.3815 57.0943Z" fill="#ECB760"/>
    <g opacity="0.5">
      <path d="M37.0195 57.0942C37.0133 52.1712 38.3849 47.3456 40.9777 43.1687C43.5705 38.9918 47.2799 35.6319 51.6823 33.4728C56.0847 31.3137 61.0026 30.4425 65.8742 30.9586C70.7459 31.4746 75.3749 33.3573 79.2326 36.3914C79.2929 33.7506 79.1331 31.1093 78.7549 28.4952C73.814 25.7758 68.2537 24.396 62.6212 24.4918C56.9886 24.5875 51.4779 26.1554 46.6313 29.0412C41.7848 31.9271 37.7694 36.0313 34.9802 40.9501C32.1911 45.8689 30.7244 51.4328 30.7244 57.0942C30.7244 65.3456 37.5402 77.9602 44.9243 89.2021C48.9286 87.4244 52.6844 85.1281 56.0961 82.3715C50.609 80.8246 45.7754 77.5176 42.3315 72.9543C38.8876 68.391 37.0223 62.8216 37.0195 57.0942Z" fill="url(#paint0_linear_246_29070)" fill-opacity="0.5"/>
      <path d="M37.0195 57.0942C37.0133 52.1712 38.3849 47.3456 40.9777 43.1687C43.5705 38.9918 47.2799 35.6319 51.6823 33.4728C56.0847 31.3137 61.0026 30.4425 65.8742 30.9586C70.7459 31.4746 75.3749 33.3573 79.2326 36.3914C79.2929 33.7506 79.1331 31.1093 78.7549 28.4952C73.814 25.7758 68.2537 24.396 62.6212 24.4918C56.9886 24.5875 51.4779 26.1554 46.6313 29.0412C41.7848 31.9271 37.7694 36.0313 34.9802 40.9501C32.1911 45.8689 30.7244 51.4328 30.7244 57.0942C30.7244 65.3456 37.5402 77.9602 44.9243 89.2021C48.9286 87.4244 52.6844 85.1281 56.0961 82.3715C50.609 80.8246 45.7754 77.5176 42.3315 72.9543C38.8876 68.391 37.0223 62.8216 37.0195 57.0942Z" fill="url(#paint1_linear_246_29070)" fill-opacity="0.5"/>
      <path d="M71.0029 64.7504C74.9544 57.9351 77.5757 50.4246 78.7262 42.6219C76.4068 40.0979 73.5144 38.1749 70.2957 37.0169C67.077 35.859 63.6274 35.5004 60.241 35.9718C56.8546 36.4432 53.6319 37.7306 50.8475 39.7242C48.0632 41.7178 45.7998 44.3585 44.2505 47.4211C42.7011 50.4838 41.9116 53.8775 41.9493 57.3131C41.987 60.7486 42.8508 64.124 44.4671 67.1516C46.0834 70.1791 48.4041 72.7689 51.2316 74.7003C54.059 76.6317 57.3092 77.8473 60.7051 78.2435C64.7231 74.2291 68.1866 69.6909 71.0029 64.7504Z" fill="white" fill-opacity="0.5"/>
    </g>
    <path d="M91.417 127.411C104.079 127.411 114.343 117.095 114.343 104.37C114.343 91.6455 104.079 81.3299 91.417 81.3299C78.7552 81.3299 68.4907 91.6455 68.4907 104.37C68.4907 117.095 78.7552 127.411 91.417 127.411Z" fill="#4EBC8D" stroke="white" stroke-width="4" stroke-miterlimit="10"/>
    <path d="M87.5291 113.721L79.5623 105.719L82.428 102.839L87.5291 107.966L100.401 95.0246L103.267 97.8999L87.5291 113.721Z" fill="white"/>
    <path d="M28.5512 82.4436L17.0594 88.8085L15.6265 85.0356L28.5512 82.4436ZM17.9955 76.5154V79.5587L28.5512 79.1555L17.9955 76.5154ZM24.5629 94.1702L30.7721 83.9988L23.2733 91.4006L24.5629 94.1702Z" fill="#ECB760"/>
    <path d="M28.4749 33.8474L16.8351 27.852L19.1516 24.5784L28.4749 33.8474ZM27.4671 21.7751L24.9644 23.4696L31.1736 32.0089L27.4671 21.7751ZM16.6106 37.073L28.4463 36.593L18.1724 34.457L16.6106 37.073Z" fill="#ECB760"/>
    <path d="M70.7356 18.2662L73.3339 5.87238L76.9448 7.2068L70.7356 18.2662ZM81.6447 14.2677L79.4428 12.3477L73.0999 20.3303L81.6447 14.2677ZM64.7461 7.99882L68.2041 18.9286L67.5593 8.79084L64.7461 7.99882Z" fill="#ECB760"/>
    <path d="M107.824 68.1105L119.764 63.944L120.495 67.7553L107.824 68.1105ZM116.899 75.469L117.376 72.589L107.284 71.2545L116.899 75.469ZM113.512 57.6223L105.947 66.2624L114.291 60.4591L113.512 57.6223Z" fill="#ECB760"/>
    <path d="M12.8181 71.5137C11.3183 63.8624 10.7977 62.7728 10.1052 61.8607C9.19288 61.1647 8.10866 60.6415 0.5 59.1343C8.10866 57.627 9.19288 57.1038 10.1052 56.4078C10.7977 55.491 11.3183 54.4062 12.8181 46.7548C14.3131 54.4062 14.8337 55.491 15.5263 56.4078C16.4385 57.1038 17.5228 57.627 25.1314 59.1343C17.5228 60.6415 16.4385 61.1647 15.5263 61.8607C14.8289 62.7728 14.3131 63.8624 12.8181 71.5137Z" fill="#F9CB42"/>
    <path d="M6.73303 51.8765L9.04476 52.1021L6.73303 52.3278C6.52411 52.36 6.33087 52.4584 6.18141 52.6086C6.03195 52.7588 5.93405 52.953 5.90195 53.163L5.67746 55.4862L5.45775 53.163C5.42398 52.9529 5.32493 52.759 5.17478 52.609C5.02464 52.4589 4.83111 52.3605 4.6219 52.3278L2.31494 52.1021L4.6219 51.8765C4.83111 51.8438 5.02464 51.7454 5.17478 51.5953C5.32493 51.4453 5.42398 51.2514 5.45775 51.0413L5.67746 48.7181L5.90195 51.0413C5.93405 51.2513 6.03195 51.4455 6.18141 51.5957C6.33087 51.7459 6.52411 51.8443 6.73303 51.8765Z" fill="#F9CB42"/>
    <path d="M18.6882 64.6736L19.6053 64.7504L18.693 64.8368C18.6112 64.8509 18.5358 64.8904 18.4775 64.9498C18.4192 65.0093 18.381 65.0856 18.3682 65.168L18.2774 66.0848L18.1724 65.1776C18.1586 65.0948 18.1194 65.0183 18.0603 64.959C18.0013 64.8996 17.9252 64.8602 17.8428 64.8464L16.9353 64.76L17.8428 64.6736C17.9252 64.6597 18.0013 64.6204 18.0603 64.561C18.1194 64.5016 18.1586 64.4252 18.1724 64.3424L18.2583 63.4304L18.3491 64.3424C18.3627 64.4269 18.4031 64.5047 18.4641 64.5644C18.5252 64.624 18.6038 64.6623 18.6882 64.6736Z" fill="#F9CB42"/>
    <path d="M9.45073 48.9101L10.363 48.9965L9.45073 49.0877C9.36929 49.1008 9.29405 49.1394 9.23573 49.198C9.17741 49.2566 9.13899 49.3322 9.12595 49.4141L9.0352 50.3501L8.94922 49.4333C8.93618 49.3514 8.89776 49.2758 8.83944 49.2172C8.78112 49.1586 8.70587 49.12 8.62443 49.1069L7.71216 49.0157L8.61966 48.9101C8.70148 48.896 8.77685 48.8564 8.83512 48.797C8.89339 48.7376 8.93163 48.6613 8.94445 48.5789L9.03042 47.6668L9.12117 48.5789C9.13426 48.662 9.1732 48.7388 9.2324 48.7983C9.29161 48.8578 9.36804 48.8969 9.45073 48.9101Z" fill="#F9CB42"/>
    <path d="M9.40791 64.9184L10.9936 65.0384L9.40791 65.1584C8.91191 65.2025 8.4476 65.4221 8.0977 65.7781C7.7478 66.1341 7.53506 66.6035 7.49739 67.1024L7.37798 68.6913L7.25857 67.1024C7.2209 66.6035 7.00816 66.1341 6.65826 65.7781C6.30836 65.4221 5.84404 65.2025 5.34805 65.1584L3.76709 65.0384L5.34805 64.9184C5.84029 64.8751 6.30163 64.6589 6.65102 64.3078C7.00042 63.9567 7.21553 63.493 7.25857 62.9984L7.37798 61.4095L7.49739 62.9984C7.54043 63.493 7.75554 63.9567 8.10494 64.3078C8.45433 64.6589 8.91567 64.8751 9.40791 64.9184Z" fill="#F9CB42"/>
    <path d="M17.0213 68.0577L17.9766 68.1345L17.0213 68.2065C16.7127 68.2307 16.4227 68.3649 16.2038 68.5849C15.9849 68.8049 15.8514 69.0963 15.8273 69.4065L15.7556 70.3665L15.6792 69.4065C15.6571 69.0964 15.5249 68.8045 15.3066 68.5842C15.0882 68.3639 14.7984 68.2299 14.4899 68.2065L13.5107 68.1345L14.4899 68.0577C14.7976 68.0344 15.0869 67.901 15.3051 67.6817C15.5233 67.4624 15.6561 67.1717 15.6792 66.8624L15.7556 65.8784L15.8273 66.8624C15.8524 67.1718 15.9865 67.462 16.2053 67.681C16.4241 67.9001 16.7134 68.0336 17.0213 68.0577Z" fill="#F9CB42"/>
    <path d="M17.795 53.0334L14.9292 52.947L17.795 52.8558C17.938 52.8558 18.0796 52.8275 18.2117 52.7725C18.3439 52.7175 18.4639 52.6368 18.565 52.5352C18.6661 52.4336 18.7464 52.3129 18.8011 52.1802C18.8558 52.0474 18.884 51.9051 18.884 51.7613L18.9747 48.8813L19.0607 51.7613C19.062 52.052 19.1778 52.3304 19.3828 52.5355C19.5877 52.7406 19.8652 52.8558 20.1545 52.8558L23.0203 52.947L20.1545 53.0334C19.8648 53.0346 19.5873 53.1509 19.3825 53.3567C19.1776 53.5626 19.062 53.8414 19.0607 54.1326L18.9747 57.0127L18.884 54.1326C18.884 53.8419 18.7694 53.563 18.5653 53.357C18.3612 53.151 18.0842 53.0346 17.795 53.0334Z" fill="#F9CB42"/>
    <path d="M37.5976 121.243C36.0979 113.596 35.5773 112.507 34.8847 111.59C33.9724 110.894 32.8882 110.371 25.2795 108.863C32.893 107.361 33.9724 106.838 34.8847 106.137C35.5773 105.225 36.0979 104.135 37.5976 96.4886C39.0974 104.135 39.618 105.225 40.3106 106.137C41.2181 106.838 42.3023 107.361 49.911 108.863C42.3023 110.371 41.2181 110.894 40.3106 111.59C39.618 112.507 39.0974 113.596 37.5976 121.243Z" fill="#F9CB42"/>
    <path d="M31.5126 101.61L33.8243 101.831L31.5126 102.057C31.3045 102.091 31.1124 102.19 30.9633 102.34C30.8142 102.49 30.7157 102.683 30.6815 102.892L30.4618 105.215L30.2373 102.892C30.2031 102.683 30.1045 102.49 29.9554 102.34C29.8064 102.19 29.6143 102.091 29.4062 102.057L27.0945 101.831L29.4062 101.61C29.614 101.575 29.8057 101.476 29.9547 101.326C30.1036 101.177 30.2024 100.984 30.2373 100.775L30.4618 98.4519L30.6815 100.775C30.7163 100.984 30.8151 101.177 30.9641 101.326C31.1131 101.476 31.3048 101.575 31.5126 101.61Z" fill="#F9CB42"/>
    <path d="M43.4868 114.403L44.3943 114.489L43.4868 114.58C43.4045 114.592 43.3281 114.631 43.2689 114.689C43.2096 114.748 43.1705 114.824 43.1572 114.907L43.0712 115.823L42.9805 114.907C42.9681 114.824 42.9299 114.748 42.8715 114.69C42.813 114.631 42.7374 114.593 42.6557 114.58L41.7434 114.489L42.6557 114.403C42.7378 114.389 42.8136 114.35 42.872 114.29C42.9303 114.231 42.9684 114.154 42.9805 114.071L43.0712 113.159L43.1572 114.071C43.1703 114.155 43.2092 114.231 43.2684 114.291C43.3276 114.35 43.4041 114.389 43.4868 114.403Z" fill="#F9CB42"/>
    <path d="M34.235 98.6487L35.1425 98.7399L34.235 98.8263C34.1533 98.8398 34.0777 98.8785 34.0187 98.9369C33.9597 98.9954 33.9201 99.0707 33.9055 99.1527L33.8195 100.07L33.7287 99.1527C33.7157 99.0708 33.6773 98.9952 33.6189 98.9366C33.5606 98.878 33.4854 98.8394 33.4039 98.8263L32.5012 98.7399L33.4135 98.6487C33.4949 98.6356 33.5702 98.597 33.6285 98.5384C33.6868 98.4797 33.7252 98.4041 33.7383 98.3223L33.829 97.4055L33.915 98.3223C33.9291 98.4029 33.9672 98.4773 34.0244 98.5356C34.0816 98.5939 34.155 98.6333 34.235 98.6487Z" fill="#F9CB42"/>
    <path d="M34.192 114.671L35.773 114.791L34.192 114.916C33.6955 114.954 33.2285 115.168 32.8743 115.52C32.52 115.871 32.3015 116.338 32.2576 116.836L32.1382 118.425L32.0236 116.831C31.9824 116.336 31.7679 115.871 31.4181 115.52C31.0684 115.168 30.606 114.953 30.1131 114.911L28.5273 114.787L30.1131 114.671C30.606 114.63 31.0684 114.414 31.4181 114.063C31.7679 113.711 31.9824 113.247 32.0236 112.751L32.143 111.158L32.2624 112.751C32.3061 113.249 32.5239 113.715 32.8772 114.067C33.2305 114.418 33.6964 114.632 34.192 114.671Z" fill="#F9CB42"/>
    <path d="M41.8006 117.787L42.7559 117.863L41.8006 117.935C41.4945 117.963 41.208 118.099 40.992 118.318C40.776 118.538 40.6445 118.828 40.6209 119.135L40.5445 120.096L40.4728 119.135C40.4487 118.825 40.3152 118.534 40.0963 118.314C39.8773 118.094 39.5874 117.96 39.2787 117.935L38.3235 117.863L39.2787 117.787C39.5873 117.765 39.8777 117.632 40.0969 117.412C40.3161 117.193 40.4495 116.901 40.4728 116.591L40.5445 115.607L40.6209 116.591C40.6437 116.899 40.7751 117.189 40.9914 117.408C41.2076 117.627 41.4946 117.761 41.8006 117.787Z" fill="#F9CB42"/>
    <path d="M42.5745 102.767L39.7087 102.676L42.5745 102.585C42.7179 102.585 42.8601 102.558 42.9927 102.503C43.1254 102.448 43.246 102.368 43.3477 102.266C43.4493 102.164 43.5299 102.043 43.585 101.91C43.64 101.777 43.6683 101.634 43.6683 101.49L43.7543 98.6103L43.845 101.49C43.8438 101.779 43.9561 102.055 44.1575 102.261C44.3589 102.466 44.633 102.582 44.9197 102.585L47.7855 102.676L44.9197 102.767C44.7765 102.767 44.6346 102.794 44.5022 102.849C44.3698 102.904 44.2495 102.985 44.1482 103.086C44.047 103.188 43.9668 103.309 43.9123 103.442C43.8578 103.575 43.8301 103.718 43.8307 103.862L43.7399 106.742L43.654 103.862C43.654 103.573 43.5406 103.296 43.3384 103.091C43.1362 102.886 42.8617 102.77 42.5745 102.767Z" fill="#F9CB42"/>
    <path d="M105.488 40.3419C104.055 32.9593 103.539 31.9081 102.871 31.0249C101.992 30.3529 100.96 29.8441 93.5999 28.3944C100.946 26.9544 101.992 26.436 102.871 25.764C103.539 24.8808 104.041 23.8439 105.488 16.447C106.921 23.8295 107.437 24.8808 108.106 25.764C108.984 26.436 110.016 26.94 117.376 28.3944C110.03 29.8345 108.984 30.3529 108.106 31.0249C107.437 31.9081 106.935 32.9593 105.488 40.3419Z" fill="#F9CB42"/>
    <path d="M99.6179 21.3911L101.848 21.6071L99.6179 21.8231C99.416 21.8537 99.2291 21.9485 99.0846 22.0936C98.9402 22.2387 98.8459 22.4266 98.8155 22.6295L98.6006 24.8712L98.3856 22.6295C98.3552 22.4266 98.2609 22.2387 98.1165 22.0936C97.9721 21.9485 97.7852 21.8537 97.5832 21.8231L95.3479 21.6071L97.5832 21.3911C97.7831 21.3574 97.9676 21.2621 98.1113 21.1186C98.255 20.975 98.3509 20.7901 98.3856 20.5895L98.6006 18.343L98.8155 20.5895C98.8468 20.7916 98.9416 20.9783 99.0859 21.1225C99.2303 21.2667 99.4166 21.3608 99.6179 21.3911Z" fill="#F9CB42"/>
    <path d="M111.158 33.737L112.036 33.8234L111.158 33.9098C111.078 33.9213 111.004 33.9584 110.948 34.0155C110.891 34.0726 110.854 34.1467 110.842 34.2266L110.756 35.1098L110.67 34.2266C110.659 34.1467 110.622 34.0726 110.565 34.0155C110.508 33.9584 110.435 33.9213 110.355 33.9098L109.476 33.8234L110.355 33.737C110.435 33.7254 110.508 33.6883 110.565 33.6312C110.622 33.5741 110.659 33.5001 110.67 33.4201L110.756 32.5369L110.842 33.4201C110.854 33.5001 110.891 33.5741 110.948 33.6312C111.004 33.6883 111.078 33.7254 111.158 33.737Z" fill="#F9CB42"/>
    <path d="M102.235 18.5351L103.114 18.6167L102.235 18.7031C102.157 18.7167 102.084 18.7545 102.028 18.8112C101.971 18.868 101.934 18.9408 101.92 19.0199L101.834 19.9031L101.758 19.0199C101.744 18.9408 101.707 18.868 101.65 18.8112C101.594 18.7545 101.521 18.7167 101.443 18.7031L100.564 18.6167L101.443 18.5351C101.522 18.5204 101.594 18.4817 101.651 18.4242C101.707 18.3667 101.744 18.2931 101.758 18.2134L101.839 17.3302L101.925 18.2134C101.938 18.2924 101.975 18.3655 102.03 18.423C102.086 18.4804 102.157 18.5195 102.235 18.5351Z" fill="#F9CB42"/>
    <path d="M102.202 33.977L103.73 34.0922L102.202 34.2074C101.717 34.2427 101.261 34.4515 100.917 34.7959C100.573 35.1403 100.363 35.5974 100.325 36.0842L100.21 37.6202L100.096 36.0842C100.058 35.5989 99.8496 35.143 99.5071 34.7988C99.1647 34.4546 98.711 34.2449 98.2281 34.2074L96.6997 34.0922L98.2281 33.977C98.7112 33.942 99.1659 33.7345 99.5102 33.3921C99.8544 33.0497 100.065 32.5948 100.105 32.1097L100.22 30.5737L100.325 32.1097C100.365 32.5948 100.576 33.0497 100.92 33.3921C101.264 33.7345 101.719 33.942 102.202 33.977Z" fill="#F9CB42"/>
    <path d="M109.548 37.0058L110.503 37.0778L109.548 37.1498C109.25 37.173 108.971 37.3023 108.76 37.5144C108.549 37.7266 108.42 38.0075 108.397 38.3066L108.325 39.2667L108.254 38.3066C108.231 38.0075 108.102 37.7266 107.891 37.5144C107.68 37.3023 107.4 37.173 107.102 37.1498L106.147 37.0778L107.102 37.0058C107.4 36.9827 107.68 36.8534 107.891 36.6412C108.102 36.4291 108.231 36.1481 108.254 35.849L108.325 34.889L108.397 35.849C108.42 36.1481 108.549 36.4291 108.76 36.6412C108.971 36.8534 109.25 36.9827 109.548 37.0058Z" fill="#F9CB42"/>
    <path d="M110.293 22.5095L107.489 22.4183L110.274 22.3319C110.553 22.3319 110.821 22.2208 111.019 22.0229C111.216 21.825 111.328 21.5564 111.329 21.2759L111.415 18.4774L111.501 21.2759C111.501 21.556 111.612 21.8246 111.809 22.0226C112.006 22.2207 112.273 22.3319 112.552 22.3319L115.337 22.4183L112.552 22.5047C112.273 22.5047 112.006 22.616 111.809 22.814C111.612 23.0121 111.501 23.2807 111.501 23.5608L111.434 26.3496L111.349 23.5464C111.342 23.2692 111.228 23.0055 111.031 22.8117C110.834 22.6179 110.569 22.5095 110.293 22.5095Z" fill="#F9CB42"/>
    <path d="M44.8337 25.6632C43.3387 18.0166 42.818 16.927 42.1207 16.0102C41.2132 15.3094 40.1433 14.791 32.5012 13.2885C40.1099 11.7813 41.1941 11.2581 42.1016 10.5621C42.818 9.64527 43.3387 8.55564 44.8337 0.909088C46.3525 8.55564 46.854 9.64527 47.5466 10.5621C48.4589 11.2581 49.5431 11.7813 57.1518 13.2885C49.5431 14.791 48.4589 15.3142 47.5466 16.0102C46.854 16.927 46.3525 18.0166 44.8337 25.6632Z" fill="#F9CB42"/>
    <path d="M38.7487 6.03078L41.0604 6.25158L38.7487 6.47719C38.5409 6.51222 38.3492 6.61151 38.2002 6.76122C38.0512 6.91093 37.9524 7.1036 37.9176 7.31241L37.6979 9.63565L37.4734 7.31241C37.4385 7.1036 37.3397 6.91093 37.1908 6.76122C37.0418 6.61151 36.8501 6.51222 36.6423 6.47719L34.3306 6.25158L36.6423 6.03078C36.8501 5.99575 37.0418 5.89646 37.1908 5.74675C37.3397 5.59704 37.4385 5.40437 37.4734 5.19556L37.6979 2.87231L37.9176 5.19556C37.9524 5.40437 38.0512 5.59704 38.2002 5.74675C38.3492 5.89646 38.5409 5.99575 38.7487 6.03078Z" fill="#F9CB42"/>
    <path d="M50.7087 18.8231L51.6162 18.9143L50.7087 19.0007C50.6263 19.0145 50.5502 19.0539 50.4911 19.1132C50.4321 19.1726 50.3929 19.249 50.3791 19.3319L50.2931 20.2439L50.2024 19.3319C50.1903 19.2492 50.1523 19.1725 50.0939 19.1129C50.0355 19.0534 49.9597 19.014 49.8776 19.0007L48.9653 18.9143L49.8776 18.8231C49.959 18.81 50.0343 18.7713 50.0926 18.7127C50.1509 18.6541 50.1894 18.5785 50.2024 18.4967L50.2931 17.5798L50.3791 18.4967C50.3938 18.5786 50.4334 18.654 50.4924 18.7124C50.5514 18.7709 50.6269 18.8095 50.7087 18.8231Z" fill="#F9CB42"/>
    <path d="M41.4712 3.06912L42.3787 3.16032L41.4712 3.24673C41.3891 3.26124 41.3134 3.30081 41.2544 3.36007C41.1955 3.41933 41.1561 3.49539 41.1416 3.57793L41.0557 4.48995L40.9697 3.57793C40.9541 3.49266 40.9119 3.41458 40.8492 3.35503C40.7865 3.29548 40.7066 3.25754 40.621 3.24673L39.7087 3.16032L40.621 3.06912C40.703 3.05625 40.779 3.01782 40.8381 2.95925C40.8972 2.90069 40.9366 2.82495 40.9506 2.74272L41.0366 1.8259L41.1225 2.74272C41.1376 2.82775 41.1797 2.90557 41.2426 2.96444C41.3055 3.02331 41.3857 3.06005 41.4712 3.06912Z" fill="#F9CB42"/>
    <path d="M41.4282 19.0679L43.0139 19.1879L41.4282 19.3127C40.9353 19.3541 40.4729 19.5697 40.1232 19.9212C39.7734 20.2727 39.5589 20.7373 39.5177 21.2327L39.3935 22.8263L39.2741 21.2327C39.2329 20.7373 39.0184 20.2727 38.6686 19.9212C38.3189 19.5697 37.8565 19.3541 37.3636 19.3127L35.7778 19.1879L37.3636 19.0679C37.8565 19.0265 38.3189 18.8109 38.6686 18.4594C39.0184 18.1079 39.2329 17.6432 39.2741 17.1478L39.3935 15.5542L39.5177 17.1478C39.5589 17.6432 39.7734 18.1079 40.1232 18.4594C40.4729 18.8109 40.9353 19.0265 41.4282 19.0679Z" fill="#F9CB42"/>
    <path d="M49.0368 22.2119L49.992 22.2839L49.0368 22.3607C48.729 22.384 48.4398 22.5174 48.2215 22.7367C48.0033 22.956 47.8706 23.2467 47.8475 23.556L47.771 24.516L47.6994 23.556C47.6761 23.2459 47.5427 22.9546 47.3235 22.7352C47.1043 22.5158 46.8139 22.3829 46.5053 22.3607L45.55 22.2839L46.5053 22.2119C46.814 22.1877 47.1039 22.0535 47.3228 21.8335C47.5417 21.6135 47.6753 21.3221 47.6994 21.0119L47.771 20.0519L47.8475 21.0119C47.8714 21.3213 48.0043 21.6121 48.2222 21.832C48.4402 22.0519 48.7289 22.1866 49.0368 22.2119Z" fill="#F9CB42"/>
    <path d="M49.8155 7.18762L46.9497 7.09641L49.8155 7.01001C50.1048 7.00874 50.3817 6.89237 50.5858 6.68637C50.7899 6.48036 50.9045 6.20149 50.9045 5.91079L50.9905 3.03073L51.0812 5.91079C51.0812 6.20149 51.1958 6.48036 51.3999 6.68637C51.604 6.89237 51.881 7.00874 52.1702 7.01001L55.036 7.09641L52.1702 7.18762C51.8818 7.18888 51.6055 7.30459 51.4016 7.50956C51.1976 7.71453 51.0825 7.99217 51.0812 8.28204L50.9905 11.1621L50.9045 8.28204C50.9032 7.99217 50.7881 7.71453 50.5841 7.50956C50.3802 7.30459 50.1039 7.18888 49.8155 7.18762Z" fill="#F9CB42"/>
  </g>
  <defs>
    <linearGradient id="paint0_linear_246_29070" x1="91.5411" y1="81.4931" x2="44.1514" y2="45.7239" gradientUnits="userSpaceOnUse">
      <stop stop-color="white" stop-opacity="0.1"/>
      <stop offset="1" stop-color="white"/>
    </linearGradient>
    <linearGradient id="paint1_linear_246_29070" x1="92.6253" y1="134.826" x2="69.2538" y2="79.8631" gradientUnits="userSpaceOnUse">
      <stop stop-color="white" stop-opacity="0.1"/>
      <stop offset="1" stop-color="white"/>
    </linearGradient>
    <clipPath id="clip0_246_29070">
      <rect width="120" height="128.182" fill="white" transform="translate(0.5 0.909088)"/>
    </clipPath>
  </defs>
</svg>
