<svg width="20" height="18" viewBox="0 0 20 18" fill="none" xmlns="http://www.w3.org/2000/svg">
<path fill-rule="evenodd" clip-rule="evenodd" d="M9.48277 0.927922L1.0661 8.81459C0.537767 9.30959 0.966933 10.0846 1.76943 10.0846C2.28527 10.0846 2.7036 10.4271 2.7036 10.8504V16.6796C2.7036 17.1029 3.12193 17.4454 3.63777 17.4454H7.75527C8.2711 17.4454 8.68943 17.1029 8.68943 16.6796V13.3046C8.68943 12.8813 9.10777 12.5388 9.6236 12.5388H10.7478C11.2636 12.5388 11.6819 12.8813 11.6819 13.3046V16.6796C11.6819 17.1029 12.1003 17.4454 12.6161 17.4454H16.7336C17.2494 17.4454 17.6678 17.1029 17.6678 16.6796V10.8504C17.6678 10.4271 18.0861 10.0846 18.6019 10.0846C19.4044 10.0846 19.8336 9.30959 19.3053 8.81459L10.8886 0.927922C10.5169 0.579588 9.85527 0.579588 9.48277 0.927922Z" fill="#E42713"/>
</svg>
