<svg width="108" height="108" viewBox="0 0 108 108" fill="none" xmlns="http://www.w3.org/2000/svg">
<path d="M54 0.666687C24.56 0.666687 0.666687 24.56 0.666687 54C0.666687 83.44 24.56 107.333 54 107.333C83.44 107.333 107.333 83.44 107.333 54C107.333 24.56 83.44 0.666687 54 0.666687ZM39.5467 76.88L20.4 57.7334C18.32 55.6534 18.32 52.2934 20.4 50.2134C22.48 48.1334 25.84 48.1334 27.92 50.2134L43.3334 65.5734L80.0267 28.88C82.1067 26.8 85.4667 26.8 87.5467 28.88C89.6267 30.96 89.6267 34.32 87.5467 36.4L47.0667 76.88C45.04 78.96 41.6267 78.96 39.5467 76.88Z" fill="#149B5F"/>
</svg>
