<?xml version="1.0" encoding="UTF-8"?>
<svg width="1000px" height="1000px" viewBox="0 0 1000 1000" version="1.1" xmlns="http://www.w3.org/2000/svg" xmlns:xlink="http://www.w3.org/1999/xlink">
    <!-- Generator: Sketch 57.1 (83088) - https://sketch.com -->
    <title>dashboard-empty-illustration</title>
    <desc>Created with Sketch.</desc>
    <g id="dashboard-empty-illustration" stroke="none" stroke-width="1" fill="none" fill-rule="evenodd">
        <g id="Group" transform="translate(39.000000, 0.000000)">
            <circle id="Oval" fill="#FAFAFA" cx="461" cy="461" r="461"></circle>
            <g id="drawkit-charts-and-graphs-monochrome" transform="translate(1.000000, 112.000000)">
                <path d="M92.5454545,574.588235 C94.3677686,579.447332 96.0321488,584.865226 95.4733058,590.185937 C94.3920661,600.45078 91.2698347,606.816197 85.1833058,609.816689 C80.0565289,604.957592 64.8098347,589.870096 63.8622314,587.173297 C63.631405,586.505171 63.4491736,578.135376 63.3033884,565.902599 L18.3529752,552.540082 L0.129834711,613.983365 L107.19686,645.774008 L125.42,584.318577 L92.5454545,574.588235 Z" id="Path" fill="#2665EE" fill-rule="nonzero"></path>
                <path d="M426.441983,26.4698683 C383.212423,26.4206778 345.227629,55.1324576 333.485668,96.7333442 C321.743707,138.334231 339.111534,182.666818 375.988182,205.223967 L382.487769,192.189439 L380.21595,180.794856 L380.349587,175.413406 L383.726942,170.11699 L391.380661,162.378878 L399.253058,154.774391 L405.436777,149.307907 L411.984959,145.384186 L414.827769,146.453187 L415.313719,149.927442 L414.159587,153.790424 L411.887769,158.017839 L409.628099,161.443502 L406.603058,165.537291 L402.423884,170.396389 L407.101157,170.396389 L413.369917,171.246731 L416.710826,173.506211 L419.140579,178.365308 L421.230165,183.345882 L423.465537,188.994583 L423.866446,193.088372 L424.267355,196.246785 L420.707769,199.757483 L410.381322,208.941176 L407.623554,213.338659 L406.28719,217.432449 C442.381566,225.112098 479.696414,211.544039 502.42644,182.475238 C525.156466,153.406436 529.324136,113.92365 513.164166,80.75044 C497.004197,47.5772296 463.344426,26.5185844 426.441983,26.4942271 L426.441983,26.4698683 Z" id="Path" fill="#DFDFDF" fill-rule="nonzero"></path>
                <path d="M277.400992,351.871518 C281.04562,381.135431 282.151157,415.841532 281.04562,455.856197 C254.318347,477.15119 231.758099,476.714552 197.279917,476.714552 C162.801736,476.714552 126.30686,469.194419 113.647851,458.382927 C112.153554,339.833105 130.145868,236.795951 195.044545,236.795951 C216.098347,236.795951 232.972975,244.716279 246.069339,260.326129" id="Path" stroke="#000000" stroke-width="1.75" stroke-linecap="round" stroke-linejoin="round"></path>
                <path d="M226.704215,262.609904 C255.448182,252.673051 310.129752,281.41461 321.962645,289.116279 C325.34,305.479289 303.302149,350.110096 288.954463,356.050342 C285.029365,354.796992 281.207269,353.241476 277.522479,351.397756" id="Path" stroke="#000000" stroke-width="1.75" stroke-linecap="round" stroke-linejoin="round"></path>
                <path d="M277.522479,351.385609 C262.006896,343.67578 247.551849,333.994976 234.515868,322.583311" id="Path" stroke="#000000" stroke-width="1.75" stroke-linecap="round" stroke-linejoin="round"></path>
                <path d="M117.717686,361.917702 C99.3244628,355.357921 78.683719,342.699973 74.7110744,333.273324 C75.9490893,329.338279 77.4884371,325.504446 79.3154545,321.805855" id="Path" stroke="#000000" stroke-width="1.75" stroke-linecap="round" stroke-linejoin="round"></path>
                <path d="M79.3154545,321.805855 C92.521157,294.16974 127.27876,245.724542 153.763058,255.649248" id="Path" stroke="#000000" stroke-width="1.75" stroke-linecap="round" stroke-linejoin="round"></path>
                <path d="M113.574959,445.664241 C112.129256,447.656471 103.187769,460.36301 102.568182,461.456306 C101.948595,462.549603 88.1961983,556.2087 88.7914876,562.82922 C89.3867769,569.44974 96.6031405,580.018276 95.5219008,590.283119 C94.4406612,600.547962 91.3305785,606.85264 85.2561983,609.816689 C80.1294215,604.957592 64.8827273,589.870096 63.935124,587.173297 C62.9875207,584.476498 62.9146281,459.779918 62.8415205,455.054446 C62.768843,450.328974 81.2471074,345.044487 82.1947107,342.371984" id="Path" stroke="#000000" stroke-width="1.75" stroke-linecap="round" stroke-linejoin="round"></path>
                <path d="M171.050744,242.01948 C171.172231,236.771655 170.783471,209.8887 170.917107,206.560219 C165.923967,206.426594 134.859587,181.47513 134.810903,146.526074 C134.713802,74.441368 214.786281,77.8791792 240.420165,37.4029001" id="Path" stroke="#000000" stroke-width="1.75" stroke-linecap="round" stroke-linejoin="round"></path>
                <path d="M244.562893,52.2352941 C242.558347,57.0943912 227.33595,82.7382763 221.796116,89.0672503" id="Path" stroke="#000000" stroke-width="1.75" stroke-linecap="round" stroke-linejoin="round"></path>
                <path d="M251.475537,63.058933 C249.956942,67.3349384 241.173388,90.2577291 232.219752,104.361259" id="Path" stroke="#000000" stroke-width="1.75" stroke-linecap="round" stroke-linejoin="round"></path>
                <path d="M211.032314,209.585007 C232.134711,198.008208 239.472562,177.721477 239.849174,159.852148 C244.259174,155.721915 247.733719,154.300629 247.393554,151.06933 C247.016942,147.546484 231.126364,140.95026 228.866694,125.218933" id="Path" stroke="#000000" stroke-width="1.75" stroke-linecap="round" stroke-linejoin="round"></path>
                <path d="M321.500992,300.049248 C322.951778,300.79711 324.439927,301.470167 325.959587,302.065773 C327.39314,299.077428 381.406529,195.09275 382.609256,191.825007 C381.746694,187.828399 379.596364,178.972695 380.665455,174.951792 C381.734545,170.930889 409.057107,141.654829 414.147438,146.06446 C419.237769,150.47409 406.48157,165.86528 401.998678,170.189877 C406.77314,170.372093 415.362314,167.225828 419.71157,178.899808 C419.90595,179.446457 420.100331,179.96881 420.294711,180.479015 C424.182314,190.974665 425.044876,195.056306 422.94314,197.388673 C420.841405,199.72104 409.688843,207.774993 408.04876,211.832339 C406.408678,215.889685 358.238843,344.995896 347.025537,360.362791 C339.979256,367.457073 313.96876,357.338003 298.940744,348.895321" id="Path" stroke="#000000" stroke-width="1.75" stroke-linecap="round" stroke-linejoin="round"></path>
                <polyline id="Path" stroke="#000000" stroke-width="1.75" stroke-linecap="round" stroke-linejoin="round" points="124.265868 867.203064 124.265868 886.639453 64.2509917 887.368317 100.284215 872.961094 100.43 867.373133"></polyline>
                <polygon id="Path" stroke="#000000" stroke-width="1.75" stroke-linecap="round" stroke-linejoin="round" points="248.70562 866.134063 276.331901 866.134063 276.331901 886.688044 248.70562 886.688044"></polygon>
                <polygon id="Path" fill="#2665EE" fill-rule="nonzero" points="425.336446 132.531874 440.801818 66.7275513 456.279339 0.911080711 486.165289 16.5573735 516.014793 32.2036662 470.699917 82.373844"></polygon>
                <polygon id="Path" fill="#DFDFDF" fill-rule="nonzero" points="584.205785 30.5758687 880.854215 30.5758687 880.854215 212.986375 584.205785 212.986375"></polygon>
                <polygon id="Path" fill="#2665EE" fill-rule="nonzero" points="602.100909 45.2260465 628.427273 45.2260465 628.427273 198.287606 602.100909 198.287606"></polygon>
                <polygon id="Path" fill="#2665EE" fill-rule="nonzero" points="641.183471 67.4199726 667.509835 67.4199726 667.509835 198.336197 641.183471 198.336197"></polygon>
                <polygon id="Path" fill="#2665EE" fill-rule="nonzero" points="680.278182 101.093516 706.604545 101.093516 706.604545 198.275458 680.278182 198.275458"></polygon>
                <polygon id="Path" fill="#2665EE" fill-rule="nonzero" points="719.421488 146.781176 745.735702 146.781176 745.735702 198.336197 719.421488 198.336197"></polygon>
                <polygon id="Path" fill="#2665EE" fill-rule="nonzero" points="758.455455 102.526949 784.781818 102.526949 784.781818 198.336197 758.455455 198.336197"></polygon>
                <polygon id="Path" fill="#2665EE" fill-rule="nonzero" points="797.550165 69.1328044 823.900826 69.1328044 823.900826 198.336197 797.550165 198.336197"></polygon>
                <polygon id="Path" fill="#2665EE" fill-rule="nonzero" points="836.644876 45.2260465 862.959091 45.2260465 862.959091 198.287606 836.644876 198.287606"></polygon>
                <path d="M444.009091,389.067907 L499.771901,333.29762" id="Path" stroke="#000000" stroke-linecap="round" stroke-linejoin="round"></path>
                <path d="M531.212893,362.95026 L591.069835,303.110479" id="Path" stroke="#000000" stroke-linecap="round" stroke-linejoin="round"></path>
                <path d="M622.231405,331.961368 L635.242727,318.951135" id="Path" stroke="#000000" stroke-linecap="round" stroke-linejoin="round"></path>
                <path d="M686.097438,369.036279 L763.849504,291.290725" id="Path" stroke="#000000" stroke-linecap="round" stroke-linejoin="round"></path>
                <path d="M499.954132,332.374391 L529.827934,362.257839" id="Path" stroke="#000000" stroke-linecap="round" stroke-linejoin="round"></path>
                <path d="M591.154876,303.69357 L620.773554,333.309767" id="Path" stroke="#000000" stroke-linecap="round" stroke-linejoin="round"></path>
                <path d="M636.008099,318.270862 L686.146033,368.404596" id="Path" stroke="#000000" stroke-linecap="round" stroke-linejoin="round"></path>
                <path d="M765.829752,289.371382 L785.170579,308.69844" id="Path" stroke="#000000" stroke-linecap="round" stroke-linejoin="round"></path>
                <path d="M496.771157,333.358358 C496.771157,331.51338 498.266933,330.017729 500.112066,330.017729 C501.957199,330.017729 503.452975,331.51338 503.452975,333.358358 C503.452975,335.203337 501.957199,336.698988 500.112066,336.698988 C498.266933,336.698988 496.771157,335.203337 496.771157,333.358358 Z" id="Path" fill="#000000" fill-rule="nonzero"></path>
                <path d="M527.337438,361.796224 C527.337438,359.951246 528.833214,358.455595 530.678347,358.455595 C532.52348,358.455595 534.019256,359.951246 534.019256,361.796224 C534.019256,363.641203 532.52348,365.136854 530.678347,365.136854 C528.833214,365.136854 527.337438,363.641203 527.337438,361.796224 Z" id="Path" fill="#000000" fill-rule="nonzero"></path>
                <path d="M587.473802,304.713981 C587.473802,303.361719 588.289118,302.142843 589.539022,301.626497 C590.788926,301.110151 592.226859,301.398194 593.181389,302.356128 C594.13592,303.314062 594.418747,304.752914 593.897808,306.000824 C593.376869,307.248734 592.154928,308.059527 590.802562,308.054632 C588.962175,308.047918 587.473802,306.554226 587.473802,304.713981 Z" id="Path" fill="#000000" fill-rule="nonzero"></path>
                <path d="M618.112975,332.54446 C618.112975,330.699481 619.608751,329.20383 621.453884,329.20383 C623.299017,329.20383 624.794793,330.699481 624.794793,332.54446 C624.794793,334.389438 623.299017,335.885089 621.453884,335.885089 C619.608751,335.885089 618.112975,334.389438 618.112975,332.54446 Z" id="Path" fill="#000000" fill-rule="nonzero"></path>
                <path d="M632.594298,318.501669 C632.594298,316.65669 634.090073,315.16104 635.935207,315.16104 C637.78034,315.16104 639.276116,316.65669 639.276116,318.501669 C639.276116,320.346648 637.78034,321.842298 635.935207,321.842298 C634.090073,321.842298 632.594298,320.346648 632.594298,318.501669 Z" id="Path" fill="#000000" fill-rule="nonzero"></path>
                <path d="M683.03595,367.602845 C683.03595,365.757867 684.531726,364.262216 686.37686,364.262216 C688.221993,364.262216 689.717769,365.757867 689.717769,367.602845 C689.717769,369.447824 688.221993,370.943475 686.37686,370.943475 C684.531726,370.943475 683.03595,369.447824 683.03595,367.602845 L683.03595,367.602845 Z" id="Path" fill="#000000" fill-rule="nonzero"></path>
                <path d="M762.440248,290.331053 C762.440248,288.486075 763.936024,286.990424 765.781157,286.990424 C767.62629,286.990424 769.122066,288.486075 769.122066,290.331053 C769.122066,292.176032 767.62629,293.671683 765.781157,293.671683 C763.936024,293.671683 762.440248,292.176032 762.440248,290.331053 Z" id="Path" fill="#000000" fill-rule="nonzero"></path>
                <g id="Pants" transform="translate(93.760331, 455.540356)" fill="#000000" fill-rule="nonzero">
                    <path d="M0.37661157,413.156881 C0.583140496,408.74725 19.0249587,4.9927223 19.3165289,3.18270862 C94.3715702,35.6779207 166.11,21.0520383 188.050661,0.607387141 C188.500165,10.8843776 187.844132,412.877483 187.844132,412.877483 L153.353802,413.436279 L94.8453719,172.254993 L34.6847107,413.023256 C34.6847107,413.023256 4.39785124,413.132585 0.37661157,413.156881 Z" id="Path"></path>
                </g>
            </g>
        </g>
    </g>
</svg>