<?xml version="1.0" encoding="UTF-8"?>
<svg width="1000px" height="1000px" viewBox="0 0 1000 1000" version="1.1" xmlns="http://www.w3.org/2000/svg" xmlns:xlink="http://www.w3.org/1999/xlink">
    <!-- Generator: Sketch 57.1 (83088) - https://sketch.com -->
    <title>reward-empty-illustration</title>
    <desc>Created with Sketch.</desc>
    <g id="reward-empty-illustration" stroke="none" stroke-width="1" fill="none" fill-rule="evenodd">
        <g id="hiker-man-monochrome" transform="translate(0.000000, 90.000000)">
            <g id="vector">
                <path d="M746.804233,102.410065 C688.888889,69.4619355 623.746032,55.6753548 556.26455,50.1945806 L560.285714,59.4103226 L559.417989,69.5677419 L556.15873,77.0482581 L547.089947,82.8464516 L540.740741,84.9625806 L534.899471,99.532129 L530.529101,120.354839 L559.174603,120.005677 L586.687831,120.767484 L592.698413,127.115871 L593.640212,138.987355 L592.359788,173.067613 L599.915344,181.701419 L607.185185,192.197419 L609.142857,198.958452 L605.851852,207.094968 L614.05291,217.273548 L637.089947,249.364645 L662.984127,286.217032 L680.857143,314.022968 L686.253968,321.101419 L699.365079,328.507871 L703.89418,337.808258 L702.994709,348.219613 L698.095238,355.72129 L689.417989,359.900645 L678.835979,358.842581 L671.015873,352.822194 L665.809524,338.443097 L636.719577,309.304 L593.248677,261.236129 L593.693122,287.687742 L593.693122,328.560774 L593.248677,346.547871 L588.031746,353.192516 L583.216931,355.372129 L566.613757,355.657806 L430.857143,334.179097 L426.814815,332.634323 C425.247587,332.316106 423.742801,331.744289 422.359788,330.941419 L422.359788,330.941419 L422.359788,330.941419 C422.148477,330.801073 421.953293,330.63785 421.777778,330.45471 C421.174603,329.756387 420.497354,327.788387 419.830688,324.762323 L419.830688,324.762323 C418.37037,318.117677 416.952381,306.373161 416.433862,291.803613 L416.21164,289.687484 L416.26455,285.571613 C416.15873,279.223226 416.26455,272.356387 416.518519,265.256774 L416.613757,257.850323 L417.386243,251.639484 C418.021164,244.042581 418.952381,236.265806 420.232804,228.478452 L420.232804,228.414968 L420.232804,228.340903 C421.365079,221.516387 422.772487,214.68129 424.465608,207.973161 L424.465608,207.899097 L424.465608,207.899097 C427.029974,197.724135 430.526224,187.806974 434.910053,178.27329 L434.910053,178.27329 C430.065481,176.206919 425.454083,173.631963 421.153439,170.591742 L421.153439,170.591742 L420.984127,170.475355 C420.021164,169.798194 419.058201,169.110452 418.126984,168.359226 L409.957672,162.423484 L404.031746,155.535484 C402.888889,154.301075 401.830688,153.105462 400.857143,151.948645 L400.857143,151.948645 L400.857143,151.948645 C399.374095,150.193356 398.01961,148.33339 396.804233,146.383226 L395.089947,143.896774 L395.269841,143.039742 C395.199796,142.822649 395.150198,142.599485 395.121693,142.373161 C395.095363,140.428088 395.59634,138.51219 396.571429,136.828903 L396.571429,136.828903 L377.52381,113.868903 L365.079365,92.0516129 L363.57672,81.3969032 L366.31746,73.5989677 L378.761905,60.3625806 L394.857143,48.1842581 C318.783069,52.0144516 249.449735,65.4730323 210.582011,107.806194 C160.751323,162.116645 161.470899,264.452645 153.915344,357.795097 C146.359788,451.137548 130.359788,535.666323 154.634921,614.798968 C174.47619,679.922839 221.724868,741.629161 279.343915,768.059613 C370.529101,704.956645 544.42328,612.323097 710.804233,548.320774 C713.753086,545.682667 716.751323,543.023398 719.798942,540.342968 C788,480.086194 879.015873,404.91071 889.94709,322.709677 C900.772487,240.349935 831.52381,150.784774 746.804233,102.410065 Z" id="Path" fill-opacity="0.1" fill="#2665EE" fill-rule="nonzero"></path>
                <path d="M480.592593,61.0926452 C479.312893,65.5363266 478.668062,70.1386168 478.677152,74.7628387 C478.677152,91.9775484 487.365079,106.631742 499.52381,112.144258 L497.978836,127.073548" id="Path" stroke="#000000" stroke-width="2.5" stroke-linecap="round"></path>
                <path d="M509.555556,141.304516 C517.026455,143.018581 525.248677,143.420645 525.957672,141.008258 C527.015873,137.220387 532.920635,109.097032 534.973545,99.2464516 C537.569185,95.0244381 539.436477,90.3961539 540.497354,85.5550968" id="Path" stroke="#000000" stroke-width="2.5" stroke-linecap="round"></path>
                <path d="M773.460317,525.508903 C764.624339,522.482839 735.714286,484.244387 735.714286,438.864 C735.714286,386.193548 791.534392,286.344 796.825397,250.76129 C800.201058,228.150452 815.428571,28.9486452 931.068783,28.9486452 C994.126984,28.9486452 999.386243,152.223742 999.386243,207.359484 C999.386243,336.157677 812.084656,445.868387 812.084656,512.769806 C799.528272,517.926542 786.620918,522.183651 773.460317,525.508903 Z" id="Path" fill="#2665EE" fill-rule="nonzero"></path>
                <path d="M787.68254,520.726452 C787.68254,417.438194 864.772487,229.250839 932.582011,163.026581" id="Path" stroke="#FFFFFF" stroke-width="4" stroke-linecap="round"></path>
                <path d="M342.518519,727.588645 C336.613757,725.832258 320.560847,705.36929 320.560847,679.002323 C320.560847,653.608774 327.693122,616.576516 327.693122,582.221161 C327.693122,563.112516 320.560847,556.340903 320.560847,533.603097 C320.560847,497.364387 354.910053,486.328774 366.952381,486.328774 C384.677249,486.328774 394.15873,501.490839 394.15873,509.521548 C394.15873,520.726452 390.984127,529.23329 390.984127,541.633806 C390.984127,565.874065 399.449735,568.91071 398.560847,589.796903 C395.915344,650.857806 370.560847,710.553806 348.275132,724.097032 L342.518519,727.588645 Z" id="Path" fill="#2665EE" fill-rule="nonzero"></path>
                <path d="M342.518519,727.588645 C349.756614,721.346065 309.227513,523.911226 274.074074,488.973935 C235.830688,450.957677 204.391534,430.886194 194.010582,418.432774 C175.597884,396.329806 163.873016,312.975484 82.8253968,312.975484 C61.3862434,312.975484 10.8677249,330.698065 1.77777778,405.704258 C-1.1957672,430.325419 -6.6031746,467.992516 44.6455026,522.578065 C79.1640212,559.356387 122.338624,546.691355 164.539683,586.538065 C194.920635,615.222194 190.666667,658.486452 219.037037,695.042581 C241.73545,724.245161 300.666667,763.636903 342.518519,727.588645 Z" id="Path" fill="#2665EE" fill-rule="nonzero"></path>
                <path d="M332.571429,732.297032 C332.571429,682.747871 176.243386,459.115355 113.693122,427.130065" id="Path" stroke="#FFFFFF" stroke-width="4" stroke-linecap="round"></path>
                <path d="M342.518519,727.588645 C340.962963,715.844129 334.402116,616.068645 352.994709,579.713548" id="Path" stroke="#FFFFFF" stroke-width="4" stroke-linecap="round"></path>
                <path d="M219.047619,819.248774 C265.820106,752.453161 683.73545,524.567226 934.793651,482.477419" id="Path" stroke="#000000" stroke-width="7" stroke-linecap="round"></path>
                <path d="M466.338624,139.114323 L466.338624,132.448516 C466.338624,125.436281 472.023897,119.751742 479.037037,119.751742 L498.730159,119.751742" id="Path" stroke="#000000" stroke-width="2.5" stroke-linecap="round"></path>
                <path d="M593.248677,261.236129 L593.248677,342.982194 C593.248677,349.994428 587.563404,355.678968 580.550265,355.678968 L562.465608,355.678968" id="Path" stroke="#000000" stroke-width="2.5" stroke-linecap="round"></path>
                <path d="M530.666667,119.751742 L580.550265,119.751742 C587.563404,119.751742 593.248677,125.436281 593.248677,132.448516 L593.248677,173.850581" id="Path" stroke="#000000" stroke-width="2.5" stroke-linecap="round"></path>
                <polygon id="Path" stroke="#000000" stroke-width="2.5" stroke-linecap="round" points="477.248677 741.428129 477.248677 768.937806 402.539683 768.937806 402.539683 757.299097 448.825397 736.042581"></polygon>
                <path d="M639.312169,715.050581 C643.089947,723.515097 652.010582,745.448774 652.010582,745.448774 L614.730159,768.884903 L580.952381,768.884903 L576.994709,755.934194 L619.428571,723.462194 L639.312169,715.050581 Z" id="Path" stroke="#000000" stroke-width="2.5" stroke-linecap="round"></path>
                <path d="M488.529101,10.5806452 C489.039577,8.23504861 488.573501,5.78273755 487.238095,3.78787097 C483.111111,-1.90451613 471.460317,-0.571354839 461.216931,6.80335484 C457.339883,9.53809161 454.045028,13.0159445 451.52381,17.0348387 C451.190044,16.8863294 450.830726,16.8036968 450.465608,16.7914839 C445.492063,16.7914839 362.814815,61.008 363.597884,81.4074839 C364.275132,98.9290323 384.761905,125.497032 396.730159,136.649032" id="Path" stroke="#000000" stroke-width="2.5" stroke-linecap="round" stroke-linejoin="round"></path>
                <path d="M434.740741,103.690323 C426.275132,95.2258065 414.137566,85.0366452 411.174603,82.2433548 C416.359788,79.5347097 457.862434,38.4183226 462.550265,33.7628387 C467.489804,32.7002234 472.142209,30.5854387 476.190476,27.5625806 C483.132275,22.5579355 487.640212,16.0614194 488.539683,10.6335484" id="Path" stroke="#000000" stroke-width="2.5" stroke-linecap="round" stroke-linejoin="round"></path>
                <path d="M462.878307,141.621935 C458.201058,123.031742 449.417989,103.965419 440.306878,103.118968 C423.375661,101.553032 393.936508,133.379613 395.121693,142.415484 C395.904762,148.404129 415.111111,169.925161 434.962963,178.156903" id="Path" stroke="#000000" stroke-width="2.5" stroke-linecap="round"></path>
                <path d="M528.243386,131.051871 C535.904762,135.612129 542.275132,143.156129 547.513228,152.699871" id="Path" stroke="#000000" stroke-width="2.5" stroke-linecap="round"></path>
                <path d="M567.936508,239.059097 C570.857143,281.826065 566.380952,321.588129 559.830688,326.719742 C545.015873,338.358452 429.142857,338.887484 421.73545,330.422968 C414.613757,322.286452 398.21164,141.114065 497.925926,127.073548" id="Path" stroke="#000000" stroke-width="2.5" stroke-linecap="round"></path>
                <path d="M523.936508,62.4258065 C526.37037,66.4781935 528.994709,70.2343226 531.693122,71.1442581 C531.855212,71.1949134 532.014212,71.2549723 532.169312,71.324129" id="Path" stroke="#000000" stroke-width="2.5" stroke-linecap="round" stroke-linejoin="round"></path>
                <path d="M461.756614,34.4823226 C460.849696,35.6248361 460.343972,37.0339902 460.31746,38.4923871 C460.31746,48.1419355 460.571429,61.0926452 480.613757,61.0926452 C481.94709,56.4583226 486.962963,46.2797419 492.677249,41.7512258 C493.73545,42.1956129 496.359788,43.3065806 499.544974,44.608" id="Path" stroke="#000000" stroke-width="2.5" stroke-linecap="round" stroke-linejoin="round"></path>
                <path d="M542.783069,84.1055484 C547.301587,83.6082581 560.285714,81.7143226 560.285714,61.2725161 C560.285714,53.2206452 552.592593,47.411871 552.592593,42.9468387 C552.592593,38.4818065 555.227513,30.4828387 549.333333,24.7587097 C542.169312,17.8072258 530.751323,20.7063226 520.529101,20.7063226 C510.920635,20.7063226 505.619048,9.54374194 492.507937,9.54374194 C491.110115,9.500405 489.73032,9.86830287 488.539683,10.6018065" id="Path" stroke="#000000" stroke-width="2.5" stroke-linecap="round" stroke-linejoin="round"></path>
                <path d="M531.121693,72.308129 C533.410932,69.7795213 537.010939,68.902446 540.206926,70.0946798 C543.402913,71.2869137 545.548606,74.3073706 545.621948,77.7173177 C545.695291,81.1272648 543.681452,84.2371636 540.539683,85.5656774" id="Path" stroke="#000000" stroke-width="2.5" stroke-linecap="round"></path>
                <path d="M677.957672,357.192 L602.878307,729.355613" id="Path" stroke="#000000" stroke-width="7" stroke-linecap="round"></path>
                <path d="M716.571429,165.788129 L685.68254,318.921806" id="Path" stroke="#000000" stroke-width="7" stroke-linecap="round"></path>
                <path d="M572.190476,237.006452 C587.005291,254.147097 637.714286,313.271742 665.873016,337.829419 C665.837209,343.54924 668.129147,349.037723 672.222222,353.033806 C680.063492,360.884645 692.10582,361.561806 699.111111,354.568 C706.116402,347.574194 705.460317,335.522839 697.587302,327.672 C694.433843,324.483805 690.365206,322.357291 685.94709,321.588129 C672.507937,299.897806 628.391534,235.228903 605.925926,207.052645" id="Path" stroke="#000000" stroke-width="2.5" stroke-linecap="round"></path>
                <path d="M537.428571,157.122581 C564.804233,136.776 609.936508,185.976 609.195767,198.916129 C608.455026,211.856258 573.767196,240.550968 561.904762,240.582715 C547.417989,240.603871 514.126984,174.443097 537.428571,157.122581 Z" id="Path" stroke="#000000" stroke-width="2.5" stroke-linecap="round"></path>
                <path d="M562.05291,323.492645 C561.556835,324.717742 560.798307,325.819273 559.830688,326.719742 C550.592593,333.978065 501.989418,336.919484 464.952381,336.04129 C482.751323,424.347355 605.693122,712.077419 615.460317,727.355871 C623.058201,728.98529 640.433862,721.388387 643.142857,716.500129 C645.767196,711.781161 572.804233,360.609548 562.05291,323.492645 Z" id="Path" fill="#000000" fill-rule="nonzero"></path>
                <path d="M425.703704,332.338065 C426.010582,362.768 431.259259,708.046194 440.518519,738.835871 C448.984127,743.068129 471.206349,744.126194 478.613757,740.952 C485.312169,738.084645 524.613757,409.386323 532.063492,333.512516 C497.111111,337.522581 441.502646,336.940645 425.703704,332.338065 Z" id="Path" fill="#000000" fill-rule="nonzero"></path>
            </g>
        </g>
    </g>
</svg>