<svg width="375" height="360" viewBox="0 0 375 360" xmlns="http://www.w3.org/2000/svg" xmlns:xlink="http://www.w3.org/1999/xlink">
    <defs>
        <path id="4moheerwra" d="M0 0h375v360H0z"/>
    </defs>
    <g fill="none" fill-rule="evenodd">
        <mask id="4nlfhsrwbb" fill="#fff">
            <use xlink:href="#4moheerwra"/>
        </mask>
        <use fill="#FFF" xlink:href="#4moheerwra"/>
        <path d="M44.643-112.344C-105.345-51.856-65.165 90.676 2.182 177.758c45.126 58.353 55.825 39.814 125.42 23.022 110.488-26.658 86.253-28.025 223.543-72.633 74.765-24.293 168.56-442.398 7.45-325.199-161.11 117.2-149.468 18.373-313.952 84.708z" fill="#B5FF76" mask="url(#4nlfhsrwbb)" transform="scale(1 -1) rotate(17 193.647 0)"/>
        <g mask="url(#4nlfhsrwbb)">
            <path d="m266.94 30.1 9.95 45.64c0 3.651 1.55 7.132 4.27 9.577l48.153 43.332a12.959 12.959 0 0 0 11.832 2.93l34.92-1.509c-3.712 3.737 10.354-10.944 14.92-19.206A8.072 8.072 0 0 0 392 106.94V58.232a12.89 12.89 0 0 0-4.272-9.578L339.573 5.322a12.958 12.958 0 0 0-11.83-2.93l-38.71 9.745c-2.03.511-3.945 1.405-5.604 2.677-6.19 4.751-16.49 15.286-16.49 15.286" fill="#75AD27"/>
            <path d="M264 38.273v50.495c0 3.65 1.554 7.133 4.27 9.578l48.155 43.331a12.96 12.96 0 0 0 11.83 2.93l41.085-10.344c5.744-1.444 9.77-6.599 9.77-12.507V71.26c0-3.651-1.553-7.133-4.271-9.578L326.687 18.35a12.96 12.96 0 0 0-11.832-2.93l-41.084 10.342C268.027 27.21 264 32.364 264 38.273" fill="#8CCC27"/>
            <path d="M276.796 47.553v39.27c0 2.839 1.207 5.546 3.32 7.448l37.45 33.698a10.08 10.08 0 0 0 9.201 2.278l31.949-8.043a10.04 10.04 0 0 0 7.599-9.728v-39.27a10.02 10.02 0 0 0-3.321-7.448l-37.45-33.698a10.08 10.08 0 0 0-9.2-2.278l-31.95 8.043a10.038 10.038 0 0 0-7.598 9.728" fill="#ECF8DD"/>
            <path d="m321.9 92.192-24.962-25.84c-.718-.797-3.724-.31-3.572-1.044.474-2.273 3.55-4.709 5.748-4.265l48.754 15.798c2.44.79 4.061 3.563 2.21 5.633-.602.67-4.165 3.196-4.165 3.196l-20.829 7.555c-.934.433-2.252.004-3.185-1.033" fill="#097C3F"/>
            <path d="m318.349 95.927-24.378-27.089c-1.913-2.128-.844-4.85 1.594-4.06l48.755 15.8c2.438.789 3.507 4.206 1.592 5.092l-24.378 11.29c-.933.433-2.253.004-3.185-1.033" fill="#00954B"/>
            <path stroke="#003B1E" stroke-width="3.24" stroke-linejoin="round" d="m319.942 56.537 21.174 52.946-21.174-14.426-21.173.704z"/>
            <path d="M387.728 48.654 339.573 5.323a12.958 12.958 0 0 0-11.83-2.93l-38.71 9.745c-2.03.51-3.945 1.403-5.604 2.677-4.73 3.63-11.849 10.627-14.947 13.73-.457.392-.87.82-1.264 1.272l-.278.283.001.016c-1.841 2.246-2.94 5.093-2.94 8.156v50.495c0 3.653 1.551 7.133 4.268 9.579l48.156 43.331a12.953 12.953 0 0 0 11.831 2.93l41.085-10.342c2.477-.624 4.6-1.965 6.254-3.73.096-.091.24-.233.47-.466l-.044.002c.205-.241.403-.484.589-.739 2.98-3.36 11.1-12.542 14.375-18.467A8.078 8.078 0 0 0 392 106.94V58.232c0-3.65-1.554-7.133-4.272-9.578z" stroke="#5D9029" stroke-width="1.5" stroke-linejoin="round"/>
        </g>
    </g>
</svg>
