<?xml version="1.0" encoding="UTF-8"?>
<svg width="375px" height="360px" viewBox="0 0 375 360" version="1.1" xmlns="http://www.w3.org/2000/svg" xmlns:xlink="http://www.w3.org/1999/xlink">
    <title>2E2C5148-448B-4416-9D5E-96666B421318</title>
    <defs>
        <rect id="path-1" x="0" y="0" width="375" height="360"></rect>
    </defs>
    <g id="zeplin" stroke="none" stroke-width="1" fill="none" fill-rule="evenodd">
        <g id="1.0.0-E&amp;R-home-page-(Landing)---Overview" transform="translate(0.000000, -152.000000)">
            <g id="Group-7" transform="translate(0.000000, 152.000000)">
                <mask id="mask-2" fill="white">
                    <use xlink:href="#path-1"></use>
                </mask>
                <use id="Rectangle" fill="#FFFFFF" xlink:href="#path-1"></use>
                <path d="M44.6429111,-120.344431 C-105.344972,-59.8557882 -65.1646277,82.6752859 2.18179804,169.758056 C47.3079671,228.111199 58.0066451,209.571976 127.602252,192.780292 C238.090056,166.122341 213.855376,164.754953 351.144965,120.146862 C425.910373,95.8541082 519.704591,-322.251251 358.595098,-205.051775 C197.485605,-87.8522983 209.126714,-186.679135 44.6429111,-120.344431 Z" id="Fill-1" fill="#B5FF76" mask="url(#mask-2)" transform="translate(194.509734, -8.128984) scale(1, -1) rotate(17.000000) translate(-194.509734, 8.128984) "></path>
                <g id="Group-8" mask="url(#mask-2)">
                    <g transform="translate(264.000000, 2.000000)" id="Group-17">
                        <path d="M2.93950767,28.0999169 L12.8907061,73.7407901 C12.8907061,77.3914476 14.4408446,80.8718177 17.1593424,83.3170695 L65.313397,126.648538 C68.5191909,129.533859 72.9566542,130.634031 77.144714,129.579779 L112.065037,128.070152 C108.352762,131.80691 122.419118,117.125832 126.98512,108.864019 C127.652754,107.660527 128,106.315447 128,104.939754 L128,56.2317924 C128,52.5811348 126.446025,49.1007647 123.727527,46.6535996 L75.5734721,3.32213094 C72.3676783,0.436810379 67.930215,-0.661448243 63.7421552,0.392803501 L25.0328181,10.1374571 C23.0030576,10.6483196 21.0884063,11.5418505 19.428914,12.8142233 C13.239871,17.5650529 2.93950767,28.0999169 2.93950767,28.0999169" id="Fill-1" fill="#75AD27"></path>
                        <path d="M0,36.2727596 L0,86.7677828 C0,90.4184404 1.55397547,93.9007238 4.2705548,96.3459756 L52.4246094,139.677444 C55.6304032,142.562765 60.069785,143.661023 64.2559263,142.606772 L105.340352,132.263242 C111.084306,130.818668 115.109294,125.664123 115.109294,119.755722 L115.109294,69.2606985 C115.109294,65.6100409 113.557237,62.1277575 110.838739,59.6825057 L62.686603,16.351037 C59.4808091,13.4657165 55.0414274,12.3674578 50.855286,13.4217096 L9.77086056,23.763326 C4.0269068,25.209813 0,30.3643578 0,36.2727596" id="Fill-3" fill="#8CCC27"></path>
                        <path d="M12.7961247,45.5526623 L12.7961247,84.8221048 C12.7961247,87.6615051 14.0028538,90.3688848 16.1151093,92.2707473 L53.5659181,125.968536 C56.0580343,128.212887 59.5113131,129.066238 62.7669876,128.247327 L94.7155721,120.203635 C99.1837312,119.07859 102.314704,115.070137 102.314704,110.476202 L102.314704,71.2067592 C102.314704,68.3673589 101.107975,65.6599791 98.9938009,63.7581167 L61.5449106,30.0603277 C59.0508759,27.8159769 55.6014341,26.9626261 52.3438411,27.7815367 L20.393338,35.8252288 C15.9270974,36.9502742 12.7961247,40.9568135 12.7961247,45.5526623" id="Fill-5" fill="#ECF8DD"></path>
                        <path d="M57.8993993,90.192092 L32.9379489,64.3524009 C32.2204343,63.554537 29.2141632,64.0424394 29.3657238,63.3077158 C29.8395904,61.0346649 32.9168455,58.5989798 35.1135146,59.0428753 L83.868056,74.8413447 C86.308373,75.6315552 87.9294956,78.4039885 86.0781544,80.4742252 C85.4757491,81.1438951 81.9131165,83.6695072 81.9131165,83.6695072 L61.0840897,91.2252969 C60.149786,91.6577123 58.8317846,91.2291236 57.8993993,90.192092" id="Fill-7" fill="#097C3F"></path>
                        <path d="M54.349045,93.9271279 L29.970815,66.8380242 C28.0580822,64.7103872 29.1266802,61.9877008 31.5650787,62.7779113 L80.3196201,78.578294 C82.7580187,79.3665912 83.8266166,82.7838209 81.9119654,83.6696985 L57.5337354,94.9603329 C56.6013501,95.3927483 55.2814302,94.9641596 54.349045,93.9271279" id="Fill-9" fill="#00954B"></path>
                        <polygon id="Stroke-11" stroke="#003B1E" stroke-width="3.24" stroke-linejoin="round" points="55.941582 54.5373363 77.1159366 107.483351 55.941582 93.0567484 34.7691459 93.7608585"></polygon>
                        <path d="M123.727527,46.6541736 L75.5734721,3.32270494 C72.3676783,0.437384382 67.930215,-0.66087424 63.7421552,0.393377504 L25.0328181,10.1380311 C23.0030576,10.6488936 21.0884063,11.5405112 19.428914,12.8147973 C14.6998405,16.4444081 7.5803307,23.4415018 4.48197221,26.5449434 C4.02537201,26.9371787 3.61289704,27.3657674 3.21768846,27.8173162 C3.05269847,27.983777 2.93950767,28.1004909 2.93950767,28.1004909 L2.94142616,28.1157977 C1.09967745,30.3620618 0.000383697646,33.2091155 0.000383697646,36.272377 L0.000383697646,86.7674001 C0.000383697646,90.4199711 1.55244068,93.9003411 4.26902001,96.3455929 L52.4249931,139.677062 C55.6307869,142.562382 60.0682502,143.662554 64.25631,142.606389 L105.340736,132.264773 C107.817504,131.641023 109.94127,130.29977 111.595007,128.535668 C111.690932,128.443828 111.834818,128.30224 112.065037,128.068812 L112.020912,128.070726 C112.22619,127.829645 112.423794,127.58665 112.609887,127.332175 C115.5893,123.972346 123.71026,114.790215 126.98512,108.864593 C127.652754,107.659187 128,106.316021 128,104.940328 L128,56.2323664 C128,52.5817088 126.446025,49.0994254 123.727527,46.6541736 Z" id="Stroke-13" stroke="#5D9029" stroke-width="1.5" stroke-linejoin="round"></path>
                    </g>
                </g>
            </g>
        </g>
    </g>
</svg>