<?xml version="1.0" encoding="UTF-8"?>
<svg width="48px" height="48px" viewBox="0 0 48 48" version="1.1" xmlns="http://www.w3.org/2000/svg" xmlns:xlink="http://www.w3.org/1999/xlink">
    <title>F1B24D34-B612-4FB0-BB4F-EDBB33A34CEA</title>
    <defs>
        <polygon id="path-1" points="0 0 26 0 26 29.3333333 0 29.3333333"></polygon>
    </defs>
    <g id="zeplin" stroke="none" stroke-width="1" fill="none" fill-rule="evenodd">
        <g id="overlay--activate" transform="translate(-164.000000, -39.000000)">
            <g id="Overlay" transform="translate(0.000000, 24.000000)">
                <g id="overlay-lock" transform="translate(164.000000, 15.000000)">
                    <g id="Group-10" transform="translate(10.666667, 4.666667)">
                        <path d="M5.43296613,15.3333333 L3.33333333,15.3333333 L3.33333333,9.5878512 C3.33333333,4.30101059 7.67018707,0 13.0003141,0 C18.3304412,0 22.6666667,4.30101059 22.6666667,9.5878512 L22.6666667,15.0323498 L20.5670339,15.0323498 L20.5670339,9.5878512 C20.5670339,5.44948387 17.1725647,2.08195833 13.0003141,2.08195833 C8.82743531,2.08195833 5.43296613,5.44948387 5.43296613,9.5878512 L5.43296613,15.3333333 Z" id="Fill-1" fill="#009250"></path>
                        <g id="Group-5" transform="translate(0.000000, 9.333333)">
                            <mask id="mask-2" fill="white">
                                <use xlink:href="#path-1"></use>
                            </mask>
                            <g id="Clip-4"></g>
                            <path d="M12.9996889,2.11072546 C12.7265679,2.11072546 12.4528248,2.18211485 12.2089445,2.3255254 L2.86994807,7.80039695 C2.38218755,8.08595452 2.07920366,8.61979556 2.07920366,9.19154247 L2.07920366,20.1419173 C2.07920366,20.7136642 2.38218755,21.2475053 2.86994807,21.5330629 L12.2089445,27.0079344 C12.6960829,27.293492 13.3026728,27.2941237 13.7904333,27.0079344 L23.1300519,21.5330629 C23.6178124,21.2468735 23.9207963,20.7136642 23.9207963,20.1419173 L23.9207963,9.19154247 C23.9207963,8.61979556 23.6178124,8.08658628 23.1294298,7.80039695 L13.7904333,2.3255254 C13.5465531,2.18211485 13.2734321,2.11072546 12.9996889,2.11072546 M12.9996889,29.3334597 C12.366969,29.3334597 11.7336269,29.1673056 11.1693427,28.8368928 L1.83034625,23.3620212 C0.701155751,22.699932 0,21.4660958 0,20.1419173 L0,9.19154247 C0,7.86736399 0.701155751,6.63352783 1.8297241,5.97143859 L11.1693427,0.496567045 C12.2985332,-0.166153962 13.7008447,-0.164890433 14.8306573,0.496567045 L24.1696538,5.97143859 C25.2988442,6.6341596 26,7.86736399 26,9.19154247 L26,20.1419173 C26,21.4660958 25.2988442,22.6993002 24.1696538,23.3620212 L14.8300352,28.8368928 C14.265751,29.1673056 13.633031,29.3334597 12.9996889,29.3334597" id="Fill-3" fill="#003B1E" mask="url(#mask-2)"></path>
                        </g>
                        <path d="M16.6666667,22.3330066 C16.6666667,24.3589698 15.0251292,26 13,26 C10.9748708,26 9.33333333,24.3589698 9.33333333,22.3330066 C9.33333333,20.3076969 10.9748708,18.6666667 13,18.6666667 C15.0251292,18.6666667 16.6666667,20.3076969 16.6666667,22.3330066" id="Fill-6" fill="#009250"></path>
                        <path d="M14.1609489,29.3333333 L12.5051495,29.3333333 C12.2261524,29.3333333 12,29.0848492 12,28.7769041 L12,24.5558033 C12,24.2484841 12.2261524,24 12.5051495,24 L14.1609489,24 C14.439946,24 14.6666667,24.2484841 14.6666667,24.5558033 L14.6666667,28.7769041 C14.6666667,29.0848492 14.439946,29.3333333 14.1609489,29.3333333" id="Fill-8" fill="#009250"></path>
                    </g>
                </g>
            </g>
        </g>
    </g>
</svg>