<svg width="60" height="60" viewBox="0 0 60 60" xmlns="http://www.w3.org/2000/svg" xmlns:xlink="http://www.w3.org/1999/xlink">
    <defs>
        <path id="uturw3v84a" d="M0 0h50v56.04H0z"/>
    </defs>
    <g fill="none" fill-rule="evenodd">
        <g transform="translate(5 1.667)">
            <mask id="efhx8k27fb" fill="#fff">
                <use xlink:href="#uturw3v84a"/>
            </mask>
            <path d="M0 16.75v22.54a5.48 5.48 0 0 0 2.74 4.745l19.52 11.271a5.487 5.487 0 0 0 5.48 0l19.52-11.271A5.48 5.48 0 0 0 50 39.29V16.75a5.476 5.476 0 0 0-2.74-4.745L27.74.732a5.483 5.483 0 0 0-5.48 0L2.74 12.004A5.476 5.476 0 0 0 0 16.75" fill="#8CCC27" mask="url(#efhx8k27fb)"/>
        </g>
        <path d="M10.558 20.922V38.45c0 1.522.813 2.93 2.131 3.69l15.18 8.764a4.256 4.256 0 0 0 4.262 0l15.18-8.763a4.263 4.263 0 0 0 2.13-3.691v-17.53c0-1.522-.811-2.93-2.13-3.69l-15.18-8.763a4.26 4.26 0 0 0-4.262 0l-15.18 8.763a4.262 4.262 0 0 0-2.13 3.69" fill="#F2F8E8"/>
        <path d="M29.308 36.198 18.72 27.84c-.832-.657-.367-1.994.692-1.994h21.178c1.06 0 1.523 1.337.692 1.994l-10.59 8.357c-.404.32-.978.32-1.383 0" fill="#00954B"/>
        <path d="M30 21.417 37.14 37l-6.775-2.426-.12-.036a1.083 1.083 0 0 0-.61.036l-6.776 2.426L30 21.417zm-10.182 17.02-.038.094c-.3.843.518 1.689 1.388 1.377L30 36.745l8.832 3.163c.903.324 1.75-.599 1.35-1.47l-9.197-20.072c-.386-.843-1.583-.843-1.97 0l-9.197 20.072z" fill="#2E3A29"/>
        <g transform="translate(35.833 40.833)">
            <circle fill="#00954B" cx="9.583" cy="9.583" r="9.583"/>
            <path d="M8.214 13.333a.92.92 0 0 1-.627-.243l-2.308-2.135a.85.85 0 0 1-.027-1.234.93.93 0 0 1 1.28-.025l1.665 1.54 4.42-4.31a.93.93 0 0 1 1.28-.008.85.85 0 0 1 .008 1.234l-5.048 4.922a.92.92 0 0 1-.643.26" fill="#FFF"/>
        </g>
    </g>
</svg>
