<svg width="28" height="28" viewBox="0 0 28 28" xmlns="http://www.w3.org/2000/svg" xmlns:xlink="http://www.w3.org/1999/xlink">
    <defs>
        <path id="0sv8im2xma" d="M0 0h23.265v26.152H0z"/>
    </defs>
    <g fill="none" fill-rule="evenodd">
        <g transform="translate(2.327 .778)">
            <mask id="4kq6opomeb" fill="#fff">
                <use xlink:href="#0sv8im2xma"/>
            </mask>
            <path d="M0 7.816v10.52c0 .912.486 1.756 1.275 2.213l9.083 5.26c.789.457 1.76.457 2.55 0l9.082-5.26a2.558 2.558 0 0 0 1.275-2.214V7.816c0-.913-.486-1.758-1.275-2.214L12.908.342a2.545 2.545 0 0 0-2.55 0l-9.083 5.26A2.557 2.557 0 0 0 0 7.816" fill="#8CCC27" mask="url(#4kq6opomeb)"/>
        </g>
        <path d="M4.913 9.764v8.18c0 .71.378 1.367.991 1.722l7.064 4.09c.613.356 1.37.356 1.983 0l7.063-4.09a1.99 1.99 0 0 0 .991-1.722v-8.18a1.99 1.99 0 0 0-.99-1.723l-7.064-4.09a1.977 1.977 0 0 0-1.983 0l-7.064 4.09a1.99 1.99 0 0 0-.991 1.723" fill="#F2F8E8"/>
        <path d="m13.637 16.892-4.927-3.9c-.387-.306-.17-.93.322-.93h9.854c.493 0 .71.624.322.93l-4.927 3.9a.517.517 0 0 1-.644 0" fill="#00954B"/>
        <path d="m13.96 9.994 3.322 7.273-3.153-1.132-.055-.017a.502.502 0 0 0-.285.017l-3.153 1.132 3.323-7.273zm-4.738 7.944-.018.043a.505.505 0 0 0 .646.643l4.11-1.476 4.109 1.476c.42.15.814-.28.628-.686l-4.28-9.367a.504.504 0 0 0-.916 0l-4.28 9.367z" fill="#2E3A29"/>
    </g>
</svg>
