<svg width="28" height="28" viewBox="0 0 28 28" xmlns="http://www.w3.org/2000/svg" xmlns:xlink="http://www.w3.org/1999/xlink">
    <defs>
        <path id="a8t4py3iva" d="M0 0h23.333v26.152H0z"/>
    </defs>
    <g fill="none" fill-rule="evenodd">
        <path d="M2.333 8.652V19.17c0 .913.488 1.757 1.279 2.214l9.11 5.26a2.56 2.56 0 0 0 2.556 0l9.11-5.26a2.558 2.558 0 0 0 1.279-2.214V8.65c0-.913-.488-1.757-1.279-2.213l-9.11-5.26a2.556 2.556 0 0 0-2.557 0l-9.11 5.26a2.556 2.556 0 0 0-1.278 2.214" fill="#00954B"/>
        <path d="M21.76 9.068a.39.39 0 0 1 .426.649l-.038.024-7.954 4.593a.389.389 0 0 1-.342.023l-.047-.023-7.954-4.593a.389.389 0 0 1 .348-.693l.04.02 7.76 4.48 7.76-4.48z" fill="#00B768"/>
        <path d="M13.704 8.523a.506.506 0 0 1 .55.847l-.045.028-3.91 2.258a.66.66 0 0 0-.328.514l-.002.058v10.569a.506.506 0 0 1-1.009.052l-.002-.052V12.228c0-.567.287-1.094.76-1.401l.076-.047 3.91-2.257z" fill="#F7DB60"/>
        <path d="M13.605 8.708a.505.505 0 0 1 .644-.21l.047.025 3.91 2.257c.491.284.803.796.834 1.359l.002.09v10.179a.506.506 0 0 1-1.008.052l-.003-.052v-10.18a.661.661 0 0 0-.281-.54l-.05-.032-3.91-2.258a.505.505 0 0 1-.185-.69" fill="#F7DB60"/>
        <path d="M14.111 13.522c.256 0 .468.15.497.344l.003.045v9.405c0 .214-.224.388-.5.388-.256 0-.468-.15-.497-.343l-.003-.045V13.91c0-.215.224-.389.5-.389" fill="#00B768"/>
        <g transform="translate(2.333 .835)">
            <mask id="gwo2yg8h4b" fill="#fff">
                <use xlink:href="#a8t4py3iva"/>
            </mask>
            <path d="m22.055 5.602-9.11-5.26a2.556 2.556 0 0 0-2.557 0l-9.11 5.26A2.558 2.558 0 0 0 0 7.816v10.519c0 .914.487 1.758 1.278 2.215l9.11 5.259a2.554 2.554 0 0 0 2.557 0l9.11-5.26a2.558 2.558 0 0 0 1.278-2.214V7.816c0-.913-.487-1.757-1.278-2.214zm-1.316 11.564c0 .71-.379 1.367-.994 1.722l-7.084 4.09a1.989 1.989 0 0 1-1.99 0l-7.083-4.09a1.987 1.987 0 0 1-.994-1.722v-8.18c0-.711.378-1.367.994-1.723l7.084-4.09a1.992 1.992 0 0 1 1.99 0l7.083 4.09c.615.356.994 1.012.994 1.722v8.18z" fill="#8CCC27" mask="url(#gwo2yg8h4b)"/>
        </g>
        <path d="M14 4.909c.144 0 .286.038.411.11l7.084 4.09a.824.824 0 0 1 .411.712V18a.825.825 0 0 1-.411.712l-7.084 4.09a.826.826 0 0 1-.822 0l-7.084-4.09a.825.825 0 0 1-.412-.712v-8.18c0-.293.158-.566.412-.712l7.084-4.09a.826.826 0 0 1 .411-.11m0-1.167c-.343 0-.687.09-.995.267l-7.084 4.09a1.988 1.988 0 0 0-.994 1.722V18c0 .71.379 1.367.994 1.722l7.084 4.09a1.989 1.989 0 0 0 1.99 0l7.083-4.09a1.988 1.988 0 0 0 .995-1.722v-8.18c0-.71-.38-1.367-.995-1.722l-7.084-4.09A1.99 1.99 0 0 0 14 3.742" fill="#F2F8E8"/>
        <path d="M13.6 8.921a.435.435 0 0 0 .373-.582c-.289-.796-.93-2.294-1.867-2.956a1.84 1.84 0 0 0-1.013-.341c-1.355-.05-2.319 1.428-1.717 2.641.148.296.375.57.722.77.995.58 2.648.538 3.502.468" fill="#00954B"/>
        <path d="M11.084 5.547c.258.01.503.089.73.25l.079.057c.574.45 1.092 1.335 1.497 2.372l.076.198-.218.015c-1.179.066-2.253-.048-2.895-.422a1.296 1.296 0 0 1-.524-.56c-.421-.847.24-1.897 1.18-1.91h.075zm.027-1.01c-1.738-.064-2.96 1.814-2.188 3.37.203.41.509.744.921.984.934.544 2.3.656 3.797.534a.94.94 0 0 0 .808-1.258c-.505-1.392-1.172-2.575-2.052-3.197a2.344 2.344 0 0 0-1.286-.434z" fill="#F7DB60"/>
        <path d="M14.4 8.921a.435.435 0 0 1-.374-.582c.29-.796.931-2.294 1.868-2.956a1.84 1.84 0 0 1 1.013-.341c1.355-.05 2.319 1.428 1.716 2.641-.147.296-.375.57-.722.77-.995.58-2.648.538-3.501.468" fill="#00954B"/>
        <path d="M16.926 5.547c.951-.035 1.643.995 1.272 1.851l-.027.06a1.296 1.296 0 0 1-.523.559l-.087.047c-.65.337-1.682.439-2.81.375l-.217-.015.075-.198c.424-1.084.97-2.002 1.577-2.43.227-.16.472-.24.74-.25m-.038-1.01c-.459.017-.894.157-1.286.435-.88.62-1.547 1.804-2.051 3.196a.94.94 0 0 0 .807 1.258c1.497.122 2.864.01 3.798-.534.412-.24.717-.575.92-.983.773-1.557-.45-3.435-2.188-3.372" fill="#F7DB60"/>
    </g>
</svg>
