<svg width="48" height="48" viewBox="0 0 48 48" xmlns="http://www.w3.org/2000/svg" xmlns:xlink="http://www.w3.org/1999/xlink">
    <defs>
        <path id="38wjy4ccaa" d="M0 0h1.932v2H0z"/>
        <path id="lqj1bl5o2c" d="M0 0h1.932v2H0z"/>
    </defs>
    <g fill="none" fill-rule="evenodd">
        <path fill="#00954B" d="M12.294 41.952 9.992 33.18l.847-5.387 1.08-3.355 4.748 16.043zM20.14 39.581 13.403 18.87l3.263 5.185 4.249 4.294 3.596 9.76zM16.705 12.757c-.316-1.06-.694-2.155-1.35-3.057-.517-.708-1.158-1.264-1.907-1.718-1.963-1.192-4.12-1.447-6.38-1.427-1.285.011-1.289 2.011 0 2 1.958-.017 3.663.137 5.293 1.107a8.184 8.184 0 0 1 .655.434c-.139-.105.01.008.061.054.128.113.252.228.368.352.06.064.116.13.172.197.135.16-.07-.11.064.085.54.79.823 1.591 1.095 2.504.366 1.232 2.297.707 1.929-.531"/>
        <path d="M30.155 18.814c.29-.721.68-1.544 1.382-1.95.298-.172.661-.284 1.003-.197.413.105.75.443 1.157.589 1.828.653 3.56-1.01 3.912-2.701.212-1.017.097-2.027.1-3.053.001-.444.001-1.328.542-1.47.363-.095.806.049 1.18.044.558-.008 1.134-.14 1.564-.514.772-.672.826-1.722.192-2.498-.342-.42-1.059-.355-1.414 0-.414.413-.342.994 0 1.414-.15-.15-.178-.29-.084-.42.032-.038.008-.035-.076.01-.14-.034-.398.002-.547-.008-.452-.028-.9-.072-1.347.044-.84.216-1.419.856-1.726 1.644-.295.758-.296 1.578-.268 2.377.028.81.144 1.77-.244 2.516-.216.416-.689.874-1.188.705-.428-.145-.769-.483-1.222-.607-.442-.122-.904-.116-1.352-.04-1.859.315-2.847 1.981-3.493 3.583-.202.5.22 1.099.699 1.23.57.157 1.027-.195 1.23-.698" fill="#87C840"/>
        <path d="M38.418 39.808c1.287 0 1.29-2 0-2-1.287 0-1.29 2 0 2" fill="#FFD94F"/>
        <g transform="translate(5.307 1.333)">
            <mask id="xo78kqa22b" fill="#fff">
                <use xlink:href="#38wjy4ccaa"/>
            </mask>
            <path d="M.966 2c1.287 0 1.29-2 0-2-1.287 0-1.29 2 0 2" fill="#87C840" mask="url(#xo78kqa22b)"/>
        </g>
        <path d="M31.737 6.28c1.286 0 1.29-2 0-2-1.287 0-1.29 2 0 2" fill="#FFD94F"/>
        <path d="M36.708 21.644c1.286 0 1.29-2 0-2-1.288 0-1.29 2 0 2" fill="#00954B"/>
        <path d="M4.895 46.243A1.114 1.114 0 0 1 3.788 45c.059-.5 3.29-9.805 9.608-27.655l2.1.744c-2.96 8.362-7.131 20.218-8.794 25.089l24.912-10.275.849 2.06L5.32 46.16a1.109 1.109 0 0 1-.425.084" fill="#003B1E"/>
        <path d="M15.569 18.42a.627.627 0 0 0-.32.066c-.334.713 1.592 4.591 6.422 9.044 4.786 4.411 8.776 6.021 9.544 5.645.32-.795-1.616-4.643-6.4-9.055-4.337-3.997-8.022-5.7-9.246-5.7m15.377 17.024c-3.073 0-7.928-3.642-10.785-6.276-2.424-2.234-4.46-4.619-5.735-6.713-1.547-2.542-1.815-4.39-.799-5.493 1.017-1.106 2.882-.987 5.54.35 2.192 1.1 4.733 2.936 7.157 5.17 3.57 3.292 8.966 9.567 6.533 12.206-.486.528-1.143.756-1.91.756" fill="#003B1E"/>
        <path fill="#00954B" d="m42.96 18.008 1.173.986 1.475-.408-.575 1.419.844 1.277-1.528-.108-.954 1.197-.369-1.486-1.433-.537 1.299-.81zM27.685 30.036c1.246-2.072 3.135-3.643 5.49-4.277 2.53-.681 5.22-.22 7.58.84 1.164.523 2.182-1.2 1.009-1.727-2.861-1.285-6.042-1.868-9.121-1.042-2.848.766-5.178 2.69-6.685 5.196-.665 1.106 1.063 2.112 1.727 1.01"/>
        <path d="M23.43 10.726a.385.385 0 0 0-.076.008c-.759.146-.935.527-.992.652-.142.306-.14.681-.092.93.058.143.484.655.961.762.177.042.426.044.773-.292.296-.288.517-.63.676-1.016-.387-.699-.925-1.044-1.25-1.044m-1.596 9.91a1 1 0 0 1-.517-1.856c2.218-1.339 3.302-2.844 3.66-4.208-.734.518-1.575.66-2.416.396-1.155-.363-2.099-1.468-2.255-2.272-.066-.345-.177-1.245.24-2.149.302-.654.97-1.495 2.428-1.777.68-.134 1.382.04 2.012.444-.168-2.21-1.148-4.638-1.736-5.779a1 1 0 0 1 1.777-.918c.136.263 2.693 5.285 1.78 9.14.86 2.495.13 6.067-4.457 8.835a.991.991 0 0 1-.516.144" fill="#87C840"/>
        <g transform="translate(2.667 19.644)">
            <mask id="ev7ejpiqld" fill="#fff">
                <use xlink:href="#lqj1bl5o2c"/>
            </mask>
            <path d="M.966 2c1.287 0 1.29-2 0-2-1.287 0-1.29 2 0 2" fill="#FFD94F" mask="url(#ev7ejpiqld)"/>
        </g>
        <path fill="#87C840" d="m7.203 14.626 1.494.333 1.122-1.042.144 1.524 1.338.744-1.404.61-.296 1.501-1.012-1.148-1.52.184.778-1.318z"/>
    </g>
</svg>
