<svg width="28" height="28" viewBox="0 0 28 28" xmlns="http://www.w3.org/2000/svg">
    <g fill="none" fill-rule="evenodd">
        <path d="M18.01 17.207a.774.774 0 0 1-.388-.104l-4.06-2.344a.777.777 0 0 1-.389-.674v-6.19a.778.778 0 1 1 1.556 0v5.741l3.67 2.12a.778.778 0 0 1-.39 1.451" stroke="#333" fill="#333" opacity=".7"/>
        <path d="M14.062 3.952c-5.575 0-10.11 4.535-10.11 10.11 0 5.576 4.535 10.112 10.11 10.112 5.576 0 10.112-4.536 10.112-10.111 0-5.576-4.536-10.111-10.112-10.111m0 22.618c-6.896 0-12.506-5.61-12.506-12.507 0-6.897 5.61-12.507 12.506-12.507S26.57 7.166 26.57 14.063c0 6.896-5.61 12.507-12.507 12.507" fill="#666" opacity=".5"/>
    </g>
</svg>
