<svg width="66" height="62" viewBox="0 0 66 62" fill="none" xmlns="http://www.w3.org/2000/svg">
<g clip-path="url(#clip0)">
<path d="M17.6099 30.2268V25.4883" stroke="#344154" stroke-width="1.5" stroke-miterlimit="10" stroke-linecap="round" stroke-linejoin="round"/>
<path d="M60.7522 25.4883V57.0619C60.7522 58.7578 59.3899 60.1045 57.6743 60.1045H31.0825" stroke="#344154" stroke-width="1.5" stroke-miterlimit="10" stroke-linecap="round" stroke-linejoin="round"/>
<path d="M35.6742 25.4883H15.7935C14.3301 25.4883 13.1191 24.2912 13.1191 22.8447V18.3057C13.1191 16.8592 14.3301 15.6621 15.7935 15.6621" stroke="#344154" stroke-width="1.5" stroke-miterlimit="10" stroke-linecap="round" stroke-linejoin="round"/>
<path d="M62.5689 15.7119C64.0322 15.7119 65.2432 16.909 65.2432 18.3555V22.8945C65.2432 24.341 64.0322 25.5381 62.5689 25.5381H51.2661" stroke="#344154" stroke-width="1.5" stroke-miterlimit="10" stroke-linecap="round" stroke-linejoin="round"/>
<path d="M43.647 5.88557C45.9681 4.08991 48.5415 2.59353 51.2662 1.49619C52.6791 0.947516 54.1928 0.498602 55.6562 0.897637C57.1195 1.29667 58.3305 2.89281 57.7754 4.28943C57.4727 5.0875 56.7158 5.58629 56.3121 6.33448C55.3534 8.03038 56.5139 10.1253 57.624 11.7215C58.7846 13.3176 60.0461 15.2629 59.2892 17.0585C58.6332 18.6547 56.7158 19.353 55.0002 19.1535C53.2846 18.954 51.7708 18.0561 50.2571 17.2581C49.0461 16.6096 47.7846 16.0111 46.4727 15.8614" stroke="#FFC124" stroke-width="1.5" stroke-miterlimit="10" stroke-linecap="round" stroke-linejoin="round"/>
<path d="M34.9172 6.03521C32.5457 4.13979 29.9218 2.59353 27.0961 1.49619C25.6833 0.947516 24.1695 0.498602 22.7062 0.897637C21.2429 1.29667 20.0319 2.89281 20.5869 4.28943C20.8897 5.0875 21.6466 5.58629 22.0503 6.33448C23.009 8.03038 21.8484 10.1253 20.7383 11.7215C19.5778 13.3176 18.3163 15.2629 19.0732 17.0585C19.7292 18.6547 21.6466 19.353 23.3622 19.1535C25.0778 18.954 26.5915 18.0561 28.1053 17.2581C29.3163 16.6096 30.5778 16.0111 31.8897 15.8614" stroke="#FFC124" stroke-width="1.5" stroke-miterlimit="10" stroke-linecap="round" stroke-linejoin="round"/>
<path d="M43.4955 14.3654V11.3227C43.4955 9.52707 42.0322 8.08057 40.2156 8.08057H38.1973C36.3808 8.08057 34.9175 9.52707 34.9175 11.3227V14.3654C34.9175 15.1136 35.523 15.7121 36.2799 15.7121H37.5918C39.9634 15.6123 42.6881 16.8593 43.7478 18.9044C44.5046 20.4008 44.8074 21.4981 44.7569 23.593V26.486" stroke="#FFC124" stroke-width="1.5" stroke-miterlimit="10" stroke-linecap="round" stroke-linejoin="round"/>
<path d="M25.7843 56.9619H23.9678" stroke="#344154" stroke-width="1.5" stroke-miterlimit="10" stroke-linecap="round" stroke-linejoin="round"/>
<path d="M26.9956 52.3232H24.3213" stroke="#344154" stroke-width="1.5" stroke-miterlimit="10" stroke-linecap="round" stroke-linejoin="round"/>
<path d="M27.9037 47.6846H24.6743" stroke="#344154" stroke-width="1.5" stroke-miterlimit="10" stroke-linecap="round" stroke-linejoin="round"/>
<path d="M0.756836 41.9985H7.92197C8.47702 41.9985 8.93115 42.4474 8.93115 42.9961V60.3042C8.93115 60.8529 8.47702 61.3018 7.92197 61.3018H0.756836" stroke="#344154" stroke-width="1.5" stroke-miterlimit="10" stroke-linecap="round" stroke-linejoin="round"/>
<path d="M8.93116 58.658C8.93116 58.658 14.1789 61.2517 25.6835 61.2517C26.9449 61.2517 28.1055 60.6033 28.1055 59.1568C28.1055 57.9597 27.0963 57.012 25.7339 57.012H26.7431C28.0046 57.012 29.1146 56.0643 29.1651 54.8173C29.266 53.4706 28.1559 52.3233 26.7935 52.3233H27.8027C29.0642 52.3233 30.1743 51.3756 30.2247 50.1286C30.3257 48.7819 29.2156 47.6347 27.8532 47.6347H28.8624C30.1238 47.6347 31.2339 46.687 31.2844 45.44C31.3853 44.0932 30.2752 42.946 28.9128 42.946H20.3348C19.6284 42.946 19.0734 42.2976 19.2247 41.5993C19.8807 38.6564 19.3257 36.1624 18.3165 34.1174C17.4587 32.3217 14.6835 32.9203 14.6835 34.9154C14.6835 43.0458 8.77979 43.9935 8.77979 43.9935" stroke="#344154" stroke-width="1.5" stroke-miterlimit="10" stroke-linecap="round" stroke-linejoin="round"/>
<path d="M57.7249 57.0618V31.0747C54.2937 31.0747 50.8625 31.374 47.4818 31.9725C46.0184 32.2219 44.5047 32.5711 43.2432 33.3692C41.9817 34.1672 40.9726 35.514 40.9726 37.0103C41.023 40.5518 46.1698 42.098 46.7753 45.5896C47.0276 47.1358 46.2707 48.6821 45.2111 49.8293C44.1515 50.9766 42.7891 51.8245 41.5276 52.7722C39.812 54.0691 38.1973 55.5156 36.835 57.1616L57.7249 57.0618C57.7249 57.1117 57.7249 57.1117 57.7249 57.0618Z" fill="#35B4CF"/>
</g>
<defs>
<clipPath id="clip0">
<rect width="66" height="62" fill="white"/>
</clipPath>
</defs>
</svg>
