<svg width="62" height="59" viewBox="0 0 62 59" fill="none" xmlns="http://www.w3.org/2000/svg">
<path fill-rule="evenodd" clip-rule="evenodd" d="M11.7283 6.30276C13.6725 2.46873 17.7012 0 22.0024 0C26.3041 0 30.3277 2.46906 32.2717 6.30276L32.2719 6.30302C33.4485 8.62568 33.7893 11.3093 33.2026 13.8555L33.2022 13.8573C32.8925 15.1867 32.385 16.4499 31.8143 17.639C31.3674 18.5742 30.9848 19.4578 30.6215 20.4216L30.6214 20.4216C29.9295 22.2568 29.315 24.1258 28.7828 26.0187C28.0896 28.4865 27.5423 30.9957 27.1732 33.5282C28.7998 33.9185 30.0082 35.3745 30.0082 37.1206C30.0082 39.0436 28.5337 40.6252 26.6523 40.7996C26.6617 41.1889 26.6867 42.0611 26.708 42.7436H38.2439C41.4219 42.7436 44 45.3167 44 48.4886V54.2678C44 54.6722 43.6716 55 43.2664 55H0.733578C0.328434 55 0 54.6722 0 54.2678V48.4935C0 45.3167 2.57807 42.7436 5.76103 42.7436H17.2969C17.3182 42.0611 17.3432 41.1889 17.3526 40.7996C15.4712 40.6252 13.9967 39.0436 13.9967 37.1206C13.9967 35.3766 15.2034 33.9152 16.8315 33.5267C16.4624 30.9939 15.9152 28.4816 15.2223 26.0192C14.6904 24.1322 14.0711 22.2632 13.3786 20.4218C13.014 19.4595 12.6361 18.5716 12.1866 17.6409L12.1853 17.6382C11.6154 16.4456 11.1077 15.1873 10.7978 13.8573L10.7974 13.8555C10.2107 11.3093 10.5515 8.62568 11.7281 6.30302L11.7283 6.30276ZM13.0374 6.96375C12.0135 8.98503 11.7185 11.3188 12.227 13.5266C12.5039 14.7144 12.9642 15.8665 13.5088 17.0064C13.9783 17.9784 14.3728 18.9057 14.7513 19.9048L14.7519 19.9065C15.4581 21.7842 16.0906 23.6929 16.6346 25.6226L16.6347 25.6229C17.4111 28.3821 18.0103 31.2084 18.387 34.0622C18.4143 34.2697 18.3514 34.479 18.2141 34.6372C18.0768 34.7954 17.8782 34.8874 17.6685 34.8899C16.4469 34.9046 15.4638 35.8957 15.4638 37.1206C15.4638 38.3514 16.4656 39.3513 17.6988 39.3513H18.0802C18.4854 39.3513 18.8138 39.6791 18.8138 40.0834C18.8138 40.1593 18.8159 40.2357 18.8184 40.3239L18.8185 40.3282C18.8209 40.4122 18.8236 40.5075 18.8236 40.6057C18.8236 40.7928 18.7643 42.8288 18.74 43.5021C18.7258 43.896 18.4018 44.2079 18.0069 44.2079H5.76103C3.38836 44.2079 1.46716 46.1254 1.46716 48.4935V53.5357H42.5328V48.4886C42.5328 46.1254 40.6116 44.2079 38.2439 44.2079H25.998C25.6031 44.2079 25.2791 43.896 25.2649 43.5021C25.2406 42.8288 25.1813 40.7928 25.1813 40.6057C25.1813 40.5075 25.184 40.4122 25.1863 40.3282L25.1865 40.3239C25.189 40.2357 25.1911 40.1593 25.1911 40.0834C25.1911 39.6791 25.5195 39.3513 25.9246 39.3513H26.3061C27.5393 39.3513 28.5411 38.3514 28.5411 37.1206C28.5411 35.8977 27.5595 34.9083 26.3342 34.8899C26.1249 34.8867 25.9269 34.7945 25.7901 34.6364C25.6532 34.4782 25.5906 34.2693 25.6179 34.0622C25.9946 31.2082 26.5938 28.3869 27.3701 25.6233L27.3702 25.6231C27.9139 23.6893 28.5415 21.7803 29.2483 19.9059C29.6282 18.898 30.0279 17.9758 30.4905 17.0078L30.491 17.0067C31.0353 15.8726 31.4961 14.7149 31.7731 13.5259C32.2814 11.3185 31.9864 8.98502 30.9627 6.96402C29.2682 3.62253 25.7506 1.46432 22.0024 1.46432C18.254 1.46432 14.7318 3.62275 13.0374 6.96375Z" fill="#344154"/>
<path fill-rule="evenodd" clip-rule="evenodd" d="M4 58C4 57.4477 4.31997 57 4.71466 57H39.2853C39.68 57 40 57.4477 40 58C40 58.5523 39.68 59 39.2853 59H4.71466C4.31997 59 4 58.5523 4 58Z" fill="#344154"/>
<path fill-rule="evenodd" clip-rule="evenodd" d="M49.5 14.4758C43.4115 14.4758 38.4758 19.4115 38.4758 25.5C38.4758 31.5885 43.4115 36.5242 49.5 36.5242C55.5885 36.5242 60.5242 31.5885 60.5242 25.5C60.5242 19.4115 55.5885 14.4758 49.5 14.4758ZM37 25.5C37 18.5964 42.5964 13 49.5 13C56.4036 13 62 18.5964 62 25.5C62 32.4036 56.4036 38 49.5 38C42.5964 38 37 32.4036 37 25.5Z" fill="#344154"/>
<path fill-rule="evenodd" clip-rule="evenodd" d="M54.7746 20.2049C55.0751 20.4781 55.0751 20.9211 54.7746 21.1943L45.3138 29.7951C45.0132 30.0683 44.526 30.0683 44.2254 29.7951C43.9249 29.5219 43.9249 29.0789 44.2254 28.8057L53.6862 20.2049C53.9868 19.9317 54.474 19.9317 54.7746 20.2049Z" fill="#FFC124"/>
<path fill-rule="evenodd" clip-rule="evenodd" d="M55.7849 25.2151C56.0717 25.5018 56.0717 25.9667 55.7849 26.2535L50.2535 31.7849C49.9667 32.0717 49.5018 32.0717 49.2151 31.7849C48.9283 31.4982 48.9283 31.0333 49.2151 30.7465L54.7465 25.2151C55.0333 24.9283 55.4982 24.9283 55.7849 25.2151Z" fill="#FFC124"/>
<path fill-rule="evenodd" clip-rule="evenodd" d="M49.7851 19.2149C50.0716 19.5015 50.0716 19.966 49.7851 20.2526L44.2526 25.7851C43.966 26.0716 43.5015 26.0716 43.2149 25.7851C42.9284 25.4985 42.9284 25.034 43.2149 24.7474L48.7474 19.2149C49.034 18.9284 49.4985 18.9284 49.7851 19.2149Z" fill="#FFC124"/>
<path d="M26.5012 6.062C26.6691 6.062 26.8321 6.06659 27 6.07578C25.5803 4.77153 23.6665 4 21.6664 4C18.7934 4 16.0979 5.58439 14.8029 8.04133C14.021 9.52009 13.8004 11.2193 14.1841 12.8175C14.3904 13.6716 14.7405 14.5718 15.2825 15.6602C15.34 15.775 15.3928 15.8852 15.4456 16C15.8053 10.4524 20.616 6.062 26.5012 6.062Z" fill="#35B4CF"/>
</svg>
