<svg width="35" height="35" viewBox="0 0 35 35" fill="none" xmlns="http://www.w3.org/2000/svg">
<circle cx="17.5" cy="17.5" r="17" fill="white" stroke="#1ED760"/>
<path fill-rule="evenodd" clip-rule="evenodd" d="M11.2845 16.6053H14.752L14.7519 16.6052C15.4585 16.6052 16.0364 16.0882 16.0575 15.4328V12.1928C16.0575 11.5366 15.4796 11 14.773 11H11.2845C10.5779 11 10 11.5366 10 12.1928V15.4125C10 16.0687 10.5779 16.6053 11.2845 16.6053ZM19.3325 16.6053H22.8217L22.8217 16.6052C23.5275 16.6052 24.1055 16.0882 24.1055 15.4328V12.1928C24.1055 11.5366 23.5275 11 22.821 11H19.3325C18.6259 11 18.048 11.5366 18.048 12.1928V15.4125C18.048 16.0687 18.6259 16.6053 19.3325 16.6053ZM14.7949 23.8994H11.3057C10.5991 23.8994 10.0212 23.3627 10.0212 22.7066L10.0219 19.4868C10.0219 18.8307 10.5999 18.2941 11.3064 18.2941H14.7949C15.5015 18.2941 16.0794 18.8307 16.0794 19.4868V22.7261C16.0576 23.3627 15.4797 23.8993 14.7949 23.8993L14.7949 23.8994ZM19.3753 23.8994H22.8427V23.8993C23.5493 23.8993 24.1272 23.3627 24.1272 22.7268V19.4875C24.1272 18.8314 23.5493 18.2948 22.8427 18.2948L19.3753 18.2941C18.6687 18.2941 18.0908 18.8307 18.0908 19.4868V22.7066C18.0908 23.3627 18.6687 23.8994 19.3753 23.8994Z" fill="#0F6B30"/>
</svg>

