<svg width="176" height="176" viewBox="0 0 176 176" fill="none" xmlns="http://www.w3.org/2000/svg">
<g clip-path="url(#clip0)">
<path d="M168 73.3985H158.498V82.9004H168V73.3985Z" fill="#0F6B30"/>
<path d="M158.498 82.5939H148.996V92.0959H158.498V82.5939Z" fill="#0F6B30"/>
<path d="M158.498 73.3985H148.996V82.9004H158.498V73.3985Z" fill="#03F182"/>
<path d="M158.498 63.8967H148.996V73.3986H158.498V63.8967Z" fill="#0F6B30"/>
<path d="M149.303 138.992H139.801V148.494H149.303V138.992Z" fill="#0F6B30"/>
<path d="M149.303 92.0958H139.801V101.598H149.303V92.0958Z" fill="#0F6B30"/>
<path d="M149.303 82.5939H139.801V92.0959H149.303V82.5939Z" fill="#1ED760"/>
<path d="M149.303 73.3985H139.801V82.9004H149.303V73.3985Z" fill="#03F182"/>
<path d="M149.303 63.8967H139.801V73.3986H149.303V63.8967Z" fill="#0F6B30"/>
<path d="M139.801 148.494H130.299V157.996H139.801V148.494Z" fill="#0F6B30"/>
<path d="M139.801 138.992H130.299V148.494H139.801V138.992Z" fill="#1ED760"/>
<path d="M139.801 129.797H130.299V139.299H139.801V129.797Z" fill="#0F6B30"/>
<path d="M139.801 120.295H130.299V129.797H139.801V120.295Z" fill="#0F6B30"/>
<path d="M139.801 92.0958H130.299V101.598H139.801V92.0958Z" fill="#0F6B30"/>
<path d="M139.801 82.5939H130.299V92.0959H139.801V82.5939Z" fill="#1ED760"/>
<path d="M139.801 73.3985H130.299V82.9004H139.801V73.3985Z" fill="#03F182"/>
<path d="M139.801 63.8967H130.299V73.3986H139.801V63.8967Z" fill="#0F6B30"/>
<path d="M130.298 148.494H120.796V157.996H130.298V148.494Z" fill="#0F6B30"/>
<path d="M130.298 138.992H120.796V148.494H130.298V138.992Z" fill="#1ED760"/>
<path d="M130.298 129.797H120.796V139.299H130.298V129.797Z" fill="#03F182"/>
<path d="M130.298 120.295H120.796V129.797H130.298V120.295Z" fill="#03F182"/>
<path d="M130.298 110.793H120.796V120.295H130.298V110.793Z" fill="#0F6B30"/>
<path d="M130.298 101.598H120.796V111.1H130.298V101.598Z" fill="#0F6B30"/>
<path d="M130.298 92.0958H120.796V101.598H130.298V92.0958Z" fill="#1ED760"/>
<path d="M130.298 82.5939H120.796V92.0959H130.298V82.5939Z" fill="#03F182"/>
<path d="M130.298 73.3985H120.796V82.9004H130.298V73.3985Z" fill="#03F182"/>
<path d="M130.298 63.8967H120.796V73.3986H130.298V63.8967Z" fill="#0F6B30"/>
<path d="M121.103 138.992H111.601V148.494H121.103V138.992Z" fill="#0F6B30"/>
<path d="M121.103 129.797H111.601V139.299H121.103V129.797Z" fill="#1ED760"/>
<path d="M121.103 120.295H111.601V129.797H121.103V120.295Z" fill="#03F182"/>
<path d="M121.103 110.793H111.601V120.295H121.103V110.793Z" fill="#03F182"/>
<path d="M121.103 101.598H111.601V111.1H121.103V101.598Z" fill="#03F182"/>
<path d="M121.103 92.0958H111.601V101.598H121.103V92.0958Z" fill="#03F182"/>
<path d="M121.103 82.5939H111.601V92.0959H121.103V82.5939Z" fill="white"/>
<path d="M121.103 73.3985H111.601V82.9004H121.103V73.3985Z" fill="#03F182"/>
<path d="M121.103 63.8967H111.601V73.3986H121.103V63.8967Z" fill="#0F6B30"/>
<path d="M111.602 138.992H102.1V148.494H111.602V138.992Z" fill="#0F6B30"/>
<path d="M111.602 129.797H102.1V139.299H111.602V129.797Z" fill="#1ED760"/>
<path d="M111.602 120.295H102.1V129.797H111.602V120.295Z" fill="#03F182"/>
<path d="M111.602 110.793H102.1V120.295H111.602V110.793Z" fill="#03F182"/>
<path d="M111.602 101.598H102.1V111.1H111.602V101.598Z" fill="#03F182"/>
<path d="M111.602 92.0958H102.1V101.598H111.602V92.0958Z" fill="#03F182"/>
<path d="M111.602 82.5939H102.1V92.0959H111.602V82.5939Z" fill="white"/>
<path d="M111.602 73.3985H102.1V82.9004H111.602V73.3985Z" fill="#03F182"/>
<path d="M111.602 63.8967H102.1V73.3986H111.602V63.8967Z" fill="#03F182"/>
<path d="M111.602 54.7012H102.1V64.2031H111.602V54.7012Z" fill="#0F6B30"/>
<path d="M111.602 45.1992H102.1V54.7011H111.602V45.1992Z" fill="#0F6B30"/>
<path d="M102.1 129.797H92.5977V139.299H102.1V129.797Z" fill="#0F6B30"/>
<path d="M102.1 120.295H92.5977V129.797H102.1V120.295Z" fill="#1ED760"/>
<path d="M102.1 110.793H92.5977V120.295H102.1V110.793Z" fill="#03F182"/>
<path d="M102.1 101.598H92.5977V111.1H102.1V101.598Z" fill="#03F182"/>
<path d="M102.1 92.0958H92.5977V101.598H102.1V92.0958Z" fill="#03F182"/>
<path d="M102.1 82.5939H92.5977V92.0959H102.1V82.5939Z" fill="#03F182"/>
<path d="M102.1 73.3985H92.5977V82.9004H102.1V73.3985Z" fill="white"/>
<path d="M102.1 63.8967H92.5977V73.3986H102.1V63.8967Z" fill="#03F182"/>
<path d="M102.1 54.7012H92.5977V64.2031H102.1V54.7012Z" fill="#03F182"/>
<path d="M102.1 45.1992H92.5977V54.7011H102.1V45.1992Z" fill="#03F182"/>
<path d="M102.1 35.6973H92.5977V45.1992H102.1V35.6973Z" fill="#0F6B30"/>
<path d="M102.1 26.5019H92.5977V36.0038H102.1V26.5019Z" fill="#0F6B30"/>
<path d="M92.5976 120.295H83.0957V129.797H92.5976V120.295Z" fill="#0F6B30"/>
<path d="M92.5976 110.793H83.0957V120.295H92.5976V110.793Z" fill="#03F182"/>
<path d="M92.5976 101.598H83.0957V111.1H92.5976V101.598Z" fill="#03F182"/>
<path d="M92.5976 92.0958H83.0957V101.598H92.5976V92.0958Z" fill="#03F182"/>
<path d="M92.5976 82.5939H83.0957V92.0959H92.5976V82.5939Z" fill="#03F182"/>
<path d="M92.5976 73.3985H83.0957V82.9004H92.5976V73.3985Z" fill="#03F182"/>
<path d="M92.5976 63.8967H83.0957V73.3986H92.5976V63.8967Z" fill="white"/>
<path d="M92.5976 54.7012H83.0957V64.2031H92.5976V54.7012Z" fill="white"/>
<path d="M92.5976 45.1992H83.0957V54.7011H92.5976V45.1992Z" fill="#03F182"/>
<path d="M92.5976 35.6973H83.0957V45.1992H92.5976V35.6973Z" fill="#03F182"/>
<path d="M92.5976 26.5019H83.0957V36.0038H92.5976V26.5019Z" fill="#03F182"/>
<path d="M92.5976 17H83.0957V26.5019H92.5976V17Z" fill="#0F6B30"/>
<path d="M83.4023 129.797H73.9004V139.299H83.4023V129.797Z" fill="#0F6B30"/>
<path d="M83.4023 120.295H73.9004V129.797H83.4023V120.295Z" fill="#1ED760"/>
<path d="M83.4023 110.793H73.9004V120.295H83.4023V110.793Z" fill="#03F182"/>
<path d="M83.4023 101.598H73.9004V111.1H83.4023V101.598Z" fill="#03F182"/>
<path d="M83.4023 92.0958H73.9004V101.598H83.4023V92.0958Z" fill="#03F182"/>
<path d="M83.4023 82.5939H73.9004V92.0959H83.4023V82.5939Z" fill="#03F182"/>
<path d="M83.4023 73.3985H73.9004V82.9004H83.4023V73.3985Z" fill="#03F182"/>
<path d="M83.4023 63.8967H73.9004V73.3986H83.4023V63.8967Z" fill="#03F182"/>
<path d="M83.4023 54.7012H73.9004V64.2031H83.4023V54.7012Z" fill="#1ED760"/>
<path d="M83.4023 45.1992H73.9004V54.7011H83.4023V45.1992Z" fill="#1ED760"/>
<path d="M83.4023 35.6973H73.9004V45.1992H83.4023V35.6973Z" fill="#0F6B30"/>
<path d="M83.4023 26.5019H73.9004V36.0038H83.4023V26.5019Z" fill="#0F6B30"/>
<path d="M73.9004 138.992H64.3984V148.494H73.9004V138.992Z" fill="#0F6B30"/>
<path d="M73.9004 129.797H64.3984V139.299H73.9004V129.797Z" fill="#1ED760"/>
<path d="M73.9004 120.295H64.3984V129.797H73.9004V120.295Z" fill="#03F182"/>
<path d="M73.9004 110.793H64.3984V120.295H73.9004V110.793Z" fill="#03F182"/>
<path d="M73.9004 101.598H64.3984V111.1H73.9004V101.598Z" fill="#03F182"/>
<path d="M73.9004 92.0958H64.3984V101.598H73.9004V92.0958Z" fill="#03F182"/>
<path d="M73.9004 82.5939H64.3984V92.0959H73.9004V82.5939Z" fill="#03F182"/>
<path d="M73.9004 73.3985H64.3984V82.9004H73.9004V73.3985Z" fill="#03F182"/>
<path d="M73.9004 63.8967H64.3984V73.3986H73.9004V63.8967Z" fill="#1ED760"/>
<path d="M73.9004 54.7012H64.3984V64.2031H73.9004V54.7012Z" fill="#0F6B30"/>
<path d="M73.9004 45.1992H64.3984V54.7011H73.9004V45.1992Z" fill="#0F6B30"/>
<path d="M64.3979 138.992H54.896V148.494H64.3979V138.992Z" fill="#0F6B30"/>
<path d="M64.3979 129.797H54.896V139.299H64.3979V129.797Z" fill="#1ED760"/>
<path d="M64.3979 120.295H54.896V129.797H64.3979V120.295Z" fill="#03F182"/>
<path d="M64.3979 110.793H54.896V120.295H64.3979V110.793Z" fill="#1ED760"/>
<path d="M64.3979 101.598H54.896V111.1H64.3979V101.598Z" fill="#1ED760"/>
<path d="M64.3979 92.0958H54.896V101.598H64.3979V92.0958Z" fill="#03F182"/>
<path d="M64.3979 82.5939H54.896V92.0959H64.3979V82.5939Z" fill="#03F182"/>
<path d="M64.3979 73.3985H54.896V82.9004H64.3979V73.3985Z" fill="#03F182"/>
<path d="M64.3979 63.8967H54.896V73.3986H64.3979V63.8967Z" fill="#0F6B30"/>
<path d="M55.2026 148.494H45.7007V157.996H55.2026V148.494Z" fill="#0F6B30"/>
<path d="M55.2026 138.992H45.7007V148.494H55.2026V138.992Z" fill="#1ED760"/>
<path d="M55.2026 129.797H45.7007V139.299H55.2026V129.797Z" fill="#1ED760"/>
<path d="M55.2026 120.295H45.7007V129.797H55.2026V120.295Z" fill="#1ED760"/>
<path d="M55.2026 110.793H45.7007V120.295H55.2026V110.793Z" fill="#0F6B30"/>
<path d="M55.2026 101.598H45.7007V111.1H55.2026V101.598Z" fill="#0F6B30"/>
<path d="M55.2026 92.0958H45.7007V101.598H55.2026V92.0958Z" fill="#1ED760"/>
<path d="M55.2026 82.5939H45.7007V92.0959H55.2026V82.5939Z" fill="#03F182"/>
<path d="M55.2026 73.3985H45.7007V82.9004H55.2026V73.3985Z" fill="#03F182"/>
<path d="M55.2026 63.8967H45.7007V73.3986H55.2026V63.8967Z" fill="#0F6B30"/>
<path d="M45.7016 148.494H36.1997V157.996H45.7016V148.494Z" fill="#0F6B30"/>
<path d="M45.7016 138.992H36.1997V148.494H45.7016V138.992Z" fill="#1ED760"/>
<path d="M45.7016 129.797H36.1997V139.299H45.7016V129.797Z" fill="#0F6B30"/>
<path d="M45.7016 120.295H36.1997V129.797H45.7016V120.295Z" fill="#0F6B30"/>
<path d="M45.7016 92.0958H36.1997V101.598H45.7016V92.0958Z" fill="#0F6B30"/>
<path d="M45.7016 82.5939H36.1997V92.0959H45.7016V82.5939Z" fill="#1ED760"/>
<path d="M45.7016 73.3985H36.1997V82.9004H45.7016V73.3985Z" fill="#03F182"/>
<path d="M45.7016 63.8967H36.1997V73.3986H45.7016V63.8967Z" fill="#0F6B30"/>
<path d="M36.1997 138.992H26.6978V148.494H36.1997V138.992Z" fill="#0F6B30"/>
<path d="M36.1997 92.0958H26.6978V101.598H36.1997V92.0958Z" fill="#0F6B30"/>
<path d="M36.1997 82.5939H26.6978V92.0959H36.1997V82.5939Z" fill="#1ED760"/>
<path d="M36.1997 73.3985H26.6978V82.9004H36.1997V73.3985Z" fill="#03F182"/>
<path d="M36.1997 63.8967H26.6978V73.3986H36.1997V63.8967Z" fill="#0F6B30"/>
<path d="M27.0039 82.5939H17.502V92.0959H27.0039V82.5939Z" fill="#0F6B30"/>
<path d="M27.0039 73.3985H17.502V82.9004H27.0039V73.3985Z" fill="#1ED760"/>
<path d="M27.0039 63.8967H17.502V73.3986H27.0039V63.8967Z" fill="#0F6B30"/>
<path d="M17.5019 73.3985H8V82.9004H17.5019V73.3985Z" fill="#0F6B30"/>
</g>
<defs>
<clipPath id="clip0">
<rect width="160" height="140.69" fill="white" transform="translate(8 17)"/>
</clipPath>
</defs>
</svg>
