<svg width="71" height="71" viewBox="0 0 71 71" fill="none" xmlns="http://www.w3.org/2000/svg">
<circle cx="35.5" cy="35.5" r="35.5" fill="#F8F9F9"/>
<path fill-rule="evenodd" clip-rule="evenodd" d="M17.0112 29.5849H53.9468V22.0381H17.0112V29.5849Z" fill="#E5E5E5"/>
<path fill-rule="evenodd" clip-rule="evenodd" d="M17.0112 29.5849H53.9468V22.0381H17.0112V29.5849Z" fill="#E4E4E4"/>
<path fill-rule="evenodd" clip-rule="evenodd" d="M17.0112 29.5468H53.9468V27L17.0112 22V29.5468Z" fill="#BABABA"/>
<path fill-rule="evenodd" clip-rule="evenodd" d="M17.0112 29.5468H53.9468V27L17.0112 22V29.5468Z" fill="#BABABA"/>
<path fill-rule="evenodd" clip-rule="evenodd" d="M32.6694 20.2586H38.2843V14H32.6694V20.2586Z" fill="#727272"/>
<path fill-rule="evenodd" clip-rule="evenodd" d="M32.6694 29.8131H38.2843V21.5859H32.6694V29.8131Z" fill="#727272"/>
<path fill-rule="evenodd" clip-rule="evenodd" d="M31.1791 20.7818H24.5596V14.1655L31.1791 16.808V20.7818Z" fill="#727272"/>
<path fill-rule="evenodd" clip-rule="evenodd" d="M39.7773 20.7818H46.3961V14.1655L39.7773 16.808V20.7818Z" fill="#727272"/>
<mask id="mask0" mask-type="alpha" maskUnits="userSpaceOnUse" x="17" y="14" width="37" height="44">
<path fill-rule="evenodd" clip-rule="evenodd" d="M17 14.1655H53.9502V57.5218H17V14.1655Z" fill="white"/>
</mask>
<g mask="url(#mask0)">
<path fill-rule="evenodd" clip-rule="evenodd" d="M46.4254 49.9907C48.1373 48.4336 48.9163 46.3582 48.9163 43.7109V36.9129H22.0339V43.7109C22.0339 46.3582 22.8129 48.4336 24.5256 49.9907C26.6531 51.9104 30.649 51.9625 35.735 51.9625C40.8203 51.9625 44.2971 51.9104 46.4254 49.9907ZM20.4776 53.8309C18.1424 51.4956 17 48.1223 17 44.2821V31.3086H53.9502V44.2821C53.9502 48.1223 52.8087 51.4956 50.4726 53.8309C46.4767 57.8267 41.0794 57.5676 35.735 57.5676C30.389 57.5676 24.4727 57.8267 20.4776 53.8309Z" fill="#E8E8E8"/>
<path fill-rule="evenodd" clip-rule="evenodd" d="M46.4254 49.9907C48.1373 48.4336 48.9163 46.3582 48.9163 43.7109V36.9129H22.0339V43.7109C22.0339 46.3582 22.8129 48.4336 24.5256 49.9907C26.6531 51.9104 30.649 51.9625 35.735 51.9625C40.8203 51.9625 44.2971 51.9104 46.4254 49.9907ZM20.4776 53.8309C18.1424 51.4956 17 48.1223 17 44.2821V31.3086H53.9502V44.2821C53.9502 48.1223 52.8087 51.4956 50.4726 53.8309C46.4767 57.8267 41.0794 57.5676 35.735 57.5676C30.389 57.5676 24.4727 57.8267 20.4776 53.8309Z" fill="#BABABA"/>
</g>
<circle cx="63" cy="63" r="8" fill="#1ED760"/>
<circle cx="63.0003" cy="59.2357" r="1.41176" transform="rotate(-180 63.0003 59.2357)" fill="white"/>
<rect x="61.5884" y="61.5884" width="2.82353" height="6.58824" fill="white"/>
</svg>
