<svg width="24" height="24" viewBox="0 0 24 24" fill="none" xmlns="http://www.w3.org/2000/svg">
<rect width="24" height="24" rx="12" fill="white"/>
<path fill-rule="evenodd" clip-rule="evenodd" d="M8.5793 7.34985C8.28861 7.05916 7.8173 7.05916 7.52661 7.34985C7.23592 7.64055 7.23592 8.11185 7.52661 8.40254L11.3515 12.2274L7.83351 15.7454C7.52344 16.0554 7.52344 16.5582 7.83351 16.8682C8.14358 17.1783 8.6463 17.1783 8.95637 16.8682L12.4743 13.3503L16.299 17.1749C16.5897 17.4656 17.061 17.4656 17.3517 17.1749C17.6424 16.8842 17.6424 16.4129 17.3517 16.1222L13.527 12.2976L17.0445 8.78009C17.3546 8.47002 17.3546 7.9673 17.0445 7.65723C16.7344 7.34716 16.2317 7.34716 15.9216 7.65723L12.4042 11.1747L8.5793 7.34985Z" fill="#1ED760"/>
</svg>
