<svg width="19" height="19" viewBox="0 0 19 19" fill="none" xmlns="http://www.w3.org/2000/svg">
<rect width="19" height="19" rx="9.5" fill="white"/>
<path fill-rule="evenodd" clip-rule="evenodd" d="M6.79186 5.81957C6.56173 5.58944 6.18862 5.58944 5.95849 5.81957C5.72836 6.0497 5.72836 6.42282 5.95849 6.65295L8.98642 9.68088L6.20154 12.4658C5.95606 12.7112 5.95606 13.1092 6.20154 13.3547C6.44701 13.6002 6.845 13.6002 7.09047 13.3547L9.87536 10.5698L12.9033 13.5977C13.1334 13.8279 13.5065 13.8279 13.7367 13.5977C13.9668 13.3676 13.9668 12.9945 13.7367 12.7644L10.7087 9.73644L13.4936 6.9516C13.739 6.70613 13.739 6.30814 13.4936 6.06267C13.2481 5.81719 12.8501 5.81719 12.6046 6.06267L9.8198 8.84751L6.79186 5.81957Z" fill="#1ED760"/>
</svg>
