<svg width="35" height="35" viewBox="0 0 35 35" fill="none" xmlns="http://www.w3.org/2000/svg">
<circle cx="17.5" cy="17.5" r="17" fill="white" stroke="#1ED760"/>
<path d="M16.0075 11C15.6049 11 15.2783 11.3235 15.2783 11.7222C15.2783 12.1209 15.6049 12.4444 16.0075 12.4444H27.47C27.8725 12.4444 28.1992 12.1209 28.1992 11.7222C28.1992 11.3235 27.8725 11 27.47 11H16.0075Z" fill="#0F6B30"/>
<path d="M22.1228 19.2642C22.1228 18.8655 21.7961 18.542 21.3936 18.542H16.0075C15.6049 18.542 15.2783 18.8655 15.2783 19.2642C15.2783 19.6639 15.6049 19.9864 16.0075 19.9864H21.3936C21.7961 19.9864 22.1228 19.6639 22.1228 19.2642Z" fill="#0F6B30"/>
<path d="M25.7686 15.4952C25.7686 15.0955 25.442 14.7729 25.0394 14.7729H16.0075C15.6049 14.7729 15.2783 15.0955 15.2783 15.4952C15.2783 15.8939 15.6049 16.2174 16.0075 16.2174H25.0394C25.442 16.2174 25.7686 15.8939 25.7686 15.4952Z" fill="#0F6B30"/>
<path d="M16.0075 22.3149C15.6049 22.3149 15.2783 22.6384 15.2783 23.0372C15.2783 23.4359 15.6049 23.7594 16.0075 23.7594H18.963C19.3656 23.7594 19.6922 23.4359 19.6922 23.0372C19.6922 22.6384 19.3656 22.3149 18.963 22.3149H16.0075Z" fill="#0F6B30"/>
<path d="M10.8017 11C10.3982 11 10.0725 11.3235 10.0725 11.7222V21.2946L9.22656 20.4491C8.93888 20.1839 8.49076 20.1915 8.21351 20.467C7.93628 20.7416 7.92772 21.1855 8.19547 21.4695L10.2861 23.5402C10.571 23.8224 11.0314 23.8224 11.3163 23.5402L13.4069 21.4695C13.6747 21.1855 13.6661 20.7416 13.3889 20.467C13.1117 20.1915 12.6635 20.184 12.3758 20.4491L11.5299 21.287L11.5308 11.7224C11.5308 11.3237 11.2042 11.0002 10.8017 11.0002L10.8017 11Z" fill="#0F6B30"/>
</svg>

