<svg width="29" height="28" viewBox="0 0 29 28" xmlns="http://www.w3.org/2000/svg" xmlns:xlink="http://www.w3.org/1999/xlink">
    <defs>
        <path id="wbdefp0ysa" d="M0 0h19.71v21.92H0z"/>
    </defs>
    <g fill="none" fill-rule="evenodd">
        <g transform="translate(5.087 3.033)">
            <mask id="8p0yd1p1rb" fill="#fff">
                <use xlink:href="#wbdefp0ysa"/>
            </mask>
            <path d="M9.855 1.4c-.226 0-.452.058-.653.174L2.053 5.7A1.31 1.31 0 0 0 1.4 6.833v8.254c0 .465.25.899.653 1.131l7.149 4.128a1.31 1.31 0 0 0 1.306 0l7.149-4.128a1.31 1.31 0 0 0 .653-1.131V6.833c0-.466-.25-.9-.653-1.132l-7.149-4.127a1.307 1.307 0 0 0-.653-.175m0 20.52c-.468 0-.936-.12-1.353-.361l-7.149-4.127A2.714 2.714 0 0 1 0 15.087V6.833c0-.964.519-1.862 1.353-2.344L8.502.36a2.714 2.714 0 0 1 2.706 0l7.149 4.128a2.714 2.714 0 0 1 1.353 2.344v8.254c0 .964-.519 1.862-1.353 2.344l-7.149 4.127a2.706 2.706 0 0 1-1.353.361" fill="#003B1E" mask="url(#8p0yd1p1rb)"/>
        </g>
        <path d="M14.568 17.035 8.85 12.522a.603.603 0 0 1 .374-1.077h11.435c.573 0 .823.722.374 1.077l-5.718 4.513a.603.603 0 0 1-.747 0" fill="#00954B"/>
        <path d="M14.942 16.009a.7.7 0 0 1 .236.04l3.401 1.219-3.637-7.938-3.638 7.938 3.402-1.218a.7.7 0 0 1 .236-.041m-4.967 3.179a.7.7 0 0 1-.636-.992l4.966-10.838a.7.7 0 0 1 1.273 0l4.966 10.838a.7.7 0 0 1-.872.95l-4.73-1.694-4.73 1.695a.7.7 0 0 1-.237.04" fill="#003B1E"/>
    </g>
</svg>
