<svg width="56" height="58" viewBox="0 0 56 58" xmlns="http://www.w3.org/2000/svg" xmlns:xlink="http://www.w3.org/1999/xlink">
    <defs>
        <filter x="-14.6%" y="-18.8%" width="129.2%" height="129.2%" filterUnits="objectBoundingBox" id="znwognwipa">
            <feOffset dy="-2" in="SourceAlpha" result="shadowOffsetOuter1"/>
            <feGaussianBlur stdDeviation="2" in="shadowOffsetOuter1" result="shadowBlurOuter1"/>
            <feColorMatrix values="0 0 0 0 0 0 0 0 0 0 0 0 0 0 0 0 0 0 0.1 0" in="shadowBlurOuter1"/>
        </filter>
        <circle id="63zl4e2z0b" cx="28" cy="28" r="24"/>
        <path id="eoass2z5mc" d="M0 0h22.526v25.05H0z"/>
    </defs>
    <g fill="none" fill-rule="evenodd">
        <g transform="translate(0 2)">
            <use fill="#000" filter="url(#znwognwipa)" xlink:href="#63zl4e2z0b"/>
            <use fill="#057F4D" xlink:href="#63zl4e2z0b"/>
        </g>
        <path d="M0 2h56v56H0z"/>
        <g transform="translate(16.747 17.467)">
            <mask id="dlyumma37d" fill="#fff">
                <use xlink:href="#eoass2z5mc"/>
            </mask>
            <path d="M11.263 1.6c-.258 0-.517.066-.747.199l-8.17 4.716c-.46.266-.746.762-.746 1.294v9.433c0 .532.286 1.027.747 1.293l8.17 4.717c.46.266 1.032.266 1.492 0l8.17-4.717c.46-.266.747-.761.747-1.293V7.81c0-.532-.286-1.028-.747-1.294L12.01 1.8c-.23-.133-.488-.2-.746-.2m0 23.452c-.535 0-1.07-.138-1.547-.413l-8.17-4.717A3.102 3.102 0 0 1 0 17.242V7.81c0-1.102.593-2.128 1.547-2.68L9.717.414c.953-.55 2.139-.55 3.092 0l8.17 4.717a3.102 3.102 0 0 1 1.547 2.679v9.433a3.102 3.102 0 0 1-1.547 2.679l-8.17 4.717a3.092 3.092 0 0 1-1.546.413" fill="#FFF" mask="url(#dlyumma37d)"/>
        </g>
        <path d="m27.583 33.468-6.535-5.158c-.513-.405-.227-1.23.427-1.23h13.07c.653 0 .94.825.426 1.23l-6.534 5.158a.69.69 0 0 1-.854 0" fill="#8CCC27"/>
        <path d="M28.01 32.295a.8.8 0 0 1 .27.047l3.887 1.393-4.157-9.073-4.158 9.073 3.888-1.393a.8.8 0 0 1 .27-.047m-5.676 3.634a.8.8 0 0 1-.728-1.134l5.676-12.386a.8.8 0 0 1 1.455 0l5.676 12.386a.8.8 0 0 1-.997 1.087l-5.406-1.937-5.406 1.937a.8.8 0 0 1-.27.047" fill="#FFF"/>
        <path d="M0 2h56v56H0z"/>
    </g>
</svg>
