<svg width="29" height="28" viewBox="0 0 29 28" xmlns="http://www.w3.org/2000/svg">
    <g fill="none" fill-rule="evenodd">
        <path d="M14.942 4.433c-.226 0-.452.058-.654.174L7.14 8.734a1.31 1.31 0 0 0-.653 1.132v8.254c0 .466.25.9.653 1.132l7.148 4.127a1.31 1.31 0 0 0 1.307 0l7.148-4.127a1.31 1.31 0 0 0 .654-1.132V9.866c0-.465-.25-.899-.654-1.132l-7.148-4.127a1.307 1.307 0 0 0-.653-.174m0 20.52c-.468 0-.936-.12-1.354-.362L6.44 20.464a2.714 2.714 0 0 1-1.353-2.344V9.866c0-.964.518-1.862 1.353-2.344l7.148-4.127a2.714 2.714 0 0 1 2.707 0l7.148 4.127a2.714 2.714 0 0 1 1.354 2.344v8.254c0 .964-.519 1.862-1.354 2.344l-7.148 4.127a2.706 2.706 0 0 1-1.353.362" fill="#003B1E"/>
        <path d="M14.925 22.439a.7.7 0 0 1-.7-.7v-8.03a.7.7 0 0 1 1.4 0v8.03a.7.7 0 0 1-.7.7" fill="#003B1E"/>
        <path d="M14.926 14.409a.7.7 0 0 1-.35-1.306l6.954-4.015a.7.7 0 1 1 .7 1.212l-6.955 4.015a.696.696 0 0 1-.349.094" fill="#003B1E"/>
        <path d="M14.925 14.409a.696.696 0 0 1-.35-.094L7.621 10.3a.7.7 0 1 1 .7-1.212l6.954 4.015a.7.7 0 0 1-.35 1.306" fill="#003B1E"/>
        <path d="M16.044 8.54a.536.536 0 0 1-.461-.717c.356-.984 1.148-2.832 2.305-3.649a2.27 2.27 0 0 1 1.25-.421c1.671-.061 2.862 1.762 2.118 3.26a2.225 2.225 0 0 1-.89.95c-1.229.715-3.269.664-4.322.577" fill="#8CCC27"/>
        <path d="M16.316 7.859c1.62.109 2.96-.071 3.697-.5.274-.16.475-.375.616-.658.236-.476.196-1.043-.11-1.516-.309-.478-.815-.752-1.355-.733-.324.012-.61.108-.872.294-.695.49-1.41 1.619-1.976 3.113m.892 1.431c-.374 0-.78-.016-1.221-.052a1.228 1.228 0 0 1-.94-.564 1.228 1.228 0 0 1-.122-1.09c.921-2.542 1.999-3.586 2.559-3.982a2.965 2.965 0 0 1 1.629-.549c1.037-.036 2.003.476 2.583 1.373a2.92 2.92 0 0 1-.978 4.143c-.499.29-1.567.721-3.51.721" fill="#00954B"/>
        <path d="M19.612 20.468a.7.7 0 0 1-.7-.7v-8.244l-4.034-2.329a.7.7 0 1 1 .7-1.212l4.384 2.531a.7.7 0 0 1 .35.606v8.648a.7.7 0 0 1-.7.7" fill="#00954B"/>
        <path d="M14.08 8.54a.536.536 0 0 0 .461-.717c-.357-.984-1.149-2.832-2.305-3.649a2.27 2.27 0 0 0-1.25-.421c-1.672-.061-2.862 1.762-2.118 3.26.181.365.463.702.89.95 1.228.715 3.269.664 4.322.577" fill="#8CCC27"/>
        <path d="M10.906 4.451c-.52 0-1.003.272-1.302.734-.305.473-.346 1.04-.11 1.516.142.283.343.499.616.658.738.429 2.077.609 3.698.5-.567-1.494-1.281-2.623-1.976-3.113a1.566 1.566 0 0 0-.926-.295m2.01 4.84c-1.943 0-3.011-.432-3.51-.722a2.92 2.92 0 0 1-1.165-1.245c-.458-.923-.388-2.006.187-2.898.58-.897 1.545-1.41 2.583-1.373a2.965 2.965 0 0 1 1.63.55c.56.395 1.637 1.439 2.558 3.981.133.366.088.763-.121 1.09-.21.327-.553.532-.94.564-.442.036-.848.052-1.222.052" fill="#00954B"/>
        <path d="M10.239 20.525a.7.7 0 0 1-.7-.7v-8.647a.7.7 0 0 1 .35-.607l4.384-2.531a.7.7 0 1 1 .7 1.212l-4.034 2.33v8.243a.7.7 0 0 1-.7.7" fill="#00954B"/>
    </g>
</svg>
