<svg width="56" height="58" viewBox="0 0 56 58" xmlns="http://www.w3.org/2000/svg" xmlns:xlink="http://www.w3.org/1999/xlink">
    <defs>
        <filter x="-14.6%" y="-18.8%" width="129.2%" height="129.2%" filterUnits="objectBoundingBox" id="9cslnvm6aa">
            <feOffset dy="-2" in="SourceAlpha" result="shadowOffsetOuter1"/>
            <feGaussianBlur stdDeviation="2" in="shadowOffsetOuter1" result="shadowBlurOuter1"/>
            <feColorMatrix values="0 0 0 0 0 0 0 0 0 0 0 0 0 0 0 0 0 0 0.1 0" in="shadowBlurOuter1"/>
        </filter>
        <circle id="ptcnxh5swb" cx="28" cy="28" r="24"/>
    </defs>
    <g fill="none" fill-rule="evenodd">
        <g transform="translate(0 2)">
            <use fill="#000" filter="url(#9cslnvm6aa)" xlink:href="#ptcnxh5swb"/>
            <use fill="#057F4D" xlink:href="#ptcnxh5swb"/>
        </g>
        <path d="M0 2h56v56H0z"/>
        <path d="M28.01 19.066c-.259 0-.517.066-.747.2l-8.17 4.716c-.46.266-.746.762-.746 1.293v9.434c0 .532.286 1.027.746 1.293l8.17 4.717c.46.266 1.033.266 1.493 0l8.17-4.717c.46-.266.746-.761.746-1.293v-9.434c0-.531-.286-1.027-.746-1.293l-8.17-4.717c-.23-.133-.488-.199-.746-.199m0 23.451c-.535 0-1.07-.137-1.547-.413l-8.17-4.716a3.102 3.102 0 0 1-1.546-2.68v-9.433c0-1.101.592-2.128 1.546-2.679l8.17-4.716c.954-.551 2.14-.551 3.093 0l8.17 4.716a3.102 3.102 0 0 1 1.546 2.68v9.433a3.102 3.102 0 0 1-1.546 2.679l-8.17 4.716a3.092 3.092 0 0 1-1.546.413" fill="#FFF"/>
        <path d="M27.991 39.644a.8.8 0 0 1-.8-.8v-9.177a.8.8 0 0 1 1.6 0v9.177a.8.8 0 0 1-.8.8" fill="#FFF"/>
        <path d="M27.992 30.467a.8.8 0 0 1-.401-1.493l7.948-4.588a.8.8 0 1 1 .8 1.386L28.39 30.36a.796.796 0 0 1-.4.107" fill="#FFF"/>
        <path d="M27.99 30.467a.796.796 0 0 1-.399-.107l-7.948-4.588a.8.8 0 1 1 .8-1.386l7.948 4.588a.8.8 0 0 1-.4 1.493" fill="#FFF"/>
        <path d="M29.269 23.76a.612.612 0 0 1-.527-.82c.408-1.124 1.313-3.236 2.634-4.17.467-.33.957-.464 1.43-.481 1.91-.07 3.27 2.014 2.42 3.725a2.543 2.543 0 0 1-1.018 1.087c-1.403.817-3.735.758-4.94.66" fill="#8CCC27"/>
        <path d="M29.58 22.981c1.852.125 3.383-.08 4.226-.571a1.74 1.74 0 0 0 .703-.752c.27-.544.224-1.192-.125-1.732-.353-.547-.932-.86-1.55-.838-.37.014-.696.124-.996.336-.793.56-1.61 1.85-2.258 3.557m1.02 1.636c-.428 0-.892-.018-1.396-.06a1.404 1.404 0 0 1-1.075-.644 1.403 1.403 0 0 1-.139-1.245c1.053-2.906 2.285-4.099 2.925-4.551a3.388 3.388 0 0 1 1.862-.628c1.185-.041 2.29.544 2.951 1.57.658 1.018.738 2.256.214 3.311a3.336 3.336 0 0 1-1.332 1.423c-.57.331-1.79.824-4.01.824" fill="#FFF"/>
        <path d="M33.347 37.392a.8.8 0 0 1-.8-.8v-9.421l-4.61-2.662a.8.8 0 1 1 .8-1.386l5.01 2.893a.8.8 0 0 1 .4.693v9.883a.8.8 0 0 1-.8.8" fill="#FFF"/>
        <path d="M27.025 23.76a.612.612 0 0 0 .527-.82c-.408-1.124-1.313-3.236-2.635-4.17a2.595 2.595 0 0 0-1.429-.481c-1.91-.07-3.27 2.014-2.42 3.725.208.418.53.803 1.018 1.087 1.403.817 3.735.758 4.939.66" fill="#8CCC27"/>
        <path d="M23.397 19.087c-.594 0-1.146.31-1.487.84-.349.54-.396 1.187-.125 1.731.16.324.39.57.703.752.843.49 2.374.696 4.226.571-.648-1.707-1.465-2.997-2.258-3.557a1.79 1.79 0 0 0-1.06-.337m2.298 5.53c-2.22 0-3.441-.493-4.01-.824a3.337 3.337 0 0 1-1.332-1.423c-.524-1.055-.444-2.293.213-3.311.662-1.026 1.766-1.612 2.952-1.57a3.388 3.388 0 0 1 1.862.628c.64.452 1.872 1.645 2.925 4.55.151.419.1.872-.14 1.246-.239.373-.63.609-1.074.645-.504.041-.968.06-1.396.06" fill="#FFF"/>
        <path d="M22.635 37.458a.8.8 0 0 1-.8-.8v-9.884a.8.8 0 0 1 .4-.692l5.01-2.893a.8.8 0 1 1 .8 1.385l-4.61 2.662v9.422a.8.8 0 0 1-.8.8" fill="#FFF"/>
    </g>
</svg>
