<svg width="32" height="32" viewBox="0 0 32 32" xmlns="http://www.w3.org/2000/svg">
    <g fill="none" fill-rule="evenodd">
        <path d="M25.57 9.598H13.077a.8.8 0 0 1 0-1.6H25.57a.8.8 0 0 1 0 1.6" fill="#FFF"/>
        <path d="M10.726 8.798a2.138 2.138 0 1 1-4.277 0 2.138 2.138 0 0 1 4.277 0" fill="#99C849"/>
        <path d="M8.587 7.46c-.738 0-1.338.6-1.338 1.338 0 .738.6 1.338 1.338 1.338.738 0 1.339-.6 1.339-1.338 0-.738-.6-1.338-1.339-1.338m0 4.276A2.942 2.942 0 0 1 5.65 8.798 2.942 2.942 0 0 1 8.587 5.86a2.942 2.942 0 0 1 2.939 2.938 2.942 2.942 0 0 1-2.939 2.938M25.57 16.804H13.077a.8.8 0 0 1 0-1.6H25.57a.8.8 0 0 1 0 1.6" fill="#FFF"/>
        <path d="M10.726 16.004a2.138 2.138 0 1 1-4.277 0 2.138 2.138 0 0 1 4.277 0" fill="#8CCC27"/>
        <path d="M8.587 14.665a1.34 1.34 0 0 0 0 2.677c.738 0 1.339-.6 1.339-1.338 0-.738-.6-1.339-1.339-1.339m0 4.277a2.942 2.942 0 0 1-2.938-2.938 2.942 2.942 0 0 1 2.938-2.939 2.942 2.942 0 0 1 2.939 2.939 2.942 2.942 0 0 1-2.939 2.938M25.57 24.01H13.077a.8.8 0 0 1 0-1.6H25.57a.8.8 0 0 1 0 1.6" fill="#FFF"/>
        <path d="M10.726 23.21a2.138 2.138 0 1 1-4.277 0 2.138 2.138 0 0 1 4.277 0" fill="#8CCC27"/>
        <path d="M8.587 21.87a1.34 1.34 0 0 0 0 2.677c.738 0 1.339-.6 1.339-1.338 0-.738-.6-1.338-1.339-1.338m0 4.277a2.942 2.942 0 0 1-2.938-2.939 2.942 2.942 0 0 1 2.938-2.938 2.942 2.942 0 0 1 2.939 2.938 2.942 2.942 0 0 1-2.939 2.939" fill="#FFF"/>
    </g>
</svg>
