<svg width="29" height="28" viewBox="0 0 29 28" xmlns="http://www.w3.org/2000/svg">
    <g fill="none" fill-rule="evenodd">
        <path d="M23.307 8.398H12.375a.7.7 0 0 1 0-1.4h10.932a.7.7 0 0 1 0 1.4" fill="#003B1E"/>
        <path d="M10.318 7.698a1.871 1.871 0 1 1-3.742 0 1.871 1.871 0 0 1 3.742 0" fill="#99C849"/>
        <path d="M8.447 6.527c-.645 0-1.17.526-1.17 1.171 0 .646.525 1.171 1.17 1.171.646 0 1.171-.525 1.171-1.17 0-.646-.525-1.172-1.17-1.172m0 3.742A2.574 2.574 0 0 1 5.875 7.7a2.574 2.574 0 0 1 2.571-2.572 2.574 2.574 0 0 1 2.571 2.571 2.574 2.574 0 0 1-2.57 2.571M23.307 14.703H12.375a.7.7 0 0 1 0-1.4h10.932a.7.7 0 0 1 0 1.4" fill="#003B1E"/>
        <path d="M10.318 14.003a1.871 1.871 0 1 1-3.742 0 1.871 1.871 0 0 1 3.742 0" fill="#FFF"/>
        <path d="M8.447 12.832c-.645 0-1.17.525-1.17 1.171s.525 1.171 1.17 1.171c.646 0 1.171-.525 1.171-1.17 0-.647-.525-1.172-1.17-1.172m0 3.742a2.574 2.574 0 0 1-2.572-2.57 2.574 2.574 0 0 1 2.571-2.572 2.574 2.574 0 0 1 2.571 2.571 2.574 2.574 0 0 1-2.57 2.571M23.307 21.008H12.375a.7.7 0 0 1 0-1.4h10.932a.7.7 0 0 1 0 1.4" fill="#003B1E"/>
        <path d="M10.318 20.308a1.871 1.871 0 1 1-3.742 0 1.871 1.871 0 0 1 3.742 0" fill="#00954B"/>
        <path d="M8.447 19.137c-.645 0-1.17.525-1.17 1.171s.525 1.171 1.17 1.171c.646 0 1.171-.525 1.171-1.171s-.525-1.171-1.17-1.171m0 3.742a2.574 2.574 0 0 1-2.572-2.571 2.574 2.574 0 0 1 2.571-2.571 2.574 2.574 0 0 1 2.571 2.571 2.574 2.574 0 0 1-2.57 2.571" fill="#003B1E"/>
    </g>
</svg>
