<svg width="56" height="58" viewBox="0 0 56 58" xmlns="http://www.w3.org/2000/svg" xmlns:xlink="http://www.w3.org/1999/xlink">
    <defs>
        <filter x="-14.6%" y="-18.8%" width="129.2%" height="129.2%" filterUnits="objectBoundingBox" id="m0yfxw874a">
            <feOffset dy="-2" in="SourceAlpha" result="shadowOffsetOuter1"/>
            <feGaussianBlur stdDeviation="2" in="shadowOffsetOuter1" result="shadowBlurOuter1"/>
            <feColorMatrix values="0 0 0 0 0 0 0 0 0 0 0 0 0 0 0 0 0 0 0.1 0" in="shadowBlurOuter1"/>
        </filter>
        <circle id="ai2zehydwb" cx="28" cy="28" r="24"/>
    </defs>
    <g fill="none" fill-rule="evenodd">
        <g transform="translate(0 2)">
            <use fill="#000" filter="url(#m0yfxw874a)" xlink:href="#ai2zehydwb"/>
            <use fill="#057F4D" xlink:href="#ai2zehydwb"/>
        </g>
        <path d="M0 2h56v56H0z"/>
        <path d="M37.57 23.598H25.077a.8.8 0 0 1 0-1.6H37.57a.8.8 0 0 1 0 1.6" fill="#FFF"/>
        <path d="M22.726 22.798a2.138 2.138 0 1 1-4.277 0 2.138 2.138 0 0 1 4.277 0" fill="#99C849"/>
        <path d="M20.587 21.46c-.738 0-1.338.6-1.338 1.338 0 .738.6 1.338 1.338 1.338.738 0 1.339-.6 1.339-1.338 0-.738-.6-1.338-1.339-1.338m0 4.276a2.942 2.942 0 0 1-2.938-2.938 2.942 2.942 0 0 1 2.938-2.938 2.942 2.942 0 0 1 2.939 2.938 2.942 2.942 0 0 1-2.939 2.938M37.57 30.804H25.077a.8.8 0 0 1 0-1.6H37.57a.8.8 0 0 1 0 1.6" fill="#FFF"/>
        <path d="M22.726 30.004a2.138 2.138 0 1 1-4.277 0 2.138 2.138 0 0 1 4.277 0" fill="#8CCC27"/>
        <path d="M20.587 28.665a1.34 1.34 0 0 0 0 2.677c.738 0 1.339-.6 1.339-1.338 0-.738-.6-1.339-1.339-1.339m0 4.277a2.942 2.942 0 0 1-2.938-2.938 2.942 2.942 0 0 1 2.938-2.939 2.942 2.942 0 0 1 2.939 2.939 2.942 2.942 0 0 1-2.939 2.938M37.57 38.01H25.077a.8.8 0 0 1 0-1.6H37.57a.8.8 0 0 1 0 1.6" fill="#FFF"/>
        <path d="M22.726 37.21a2.138 2.138 0 1 1-4.277 0 2.138 2.138 0 0 1 4.277 0" fill="#8CCC27"/>
        <path d="M20.587 35.87a1.34 1.34 0 0 0 0 2.677c.738 0 1.339-.6 1.339-1.338 0-.738-.6-1.338-1.339-1.338m0 4.277a2.942 2.942 0 0 1-2.938-2.939 2.942 2.942 0 0 1 2.938-2.938 2.942 2.942 0 0 1 2.939 2.938 2.942 2.942 0 0 1-2.939 2.939" fill="#FFF"/>
    </g>
</svg>
