<svg width="29" height="28" viewBox="0 0 29 28" xmlns="http://www.w3.org/2000/svg">
    <g fill="none" fill-rule="evenodd">
        <path d="M14.94 10.433a3.566 3.566 0 1 1 .001 7.133 3.566 3.566 0 0 1 0-7.133" fill="#00954B"/>
        <path d="M14.94 11.133A2.87 2.87 0 0 0 12.074 14a2.87 2.87 0 0 0 2.866 2.867A2.87 2.87 0 0 0 17.807 14a2.87 2.87 0 0 0-2.867-2.867zm0 7.134A4.271 4.271 0 0 1 10.674 14a4.272 4.272 0 0 1 4.266-4.267A4.272 4.272 0 0 1 19.207 14a4.271 4.271 0 0 1-4.267 4.267zm-2.079 4.114a8.66 8.66 0 0 0 2.08.252 8.66 8.66 0 0 0 2.078-.252v-1.425c0-.7.363-1.328.969-1.678.606-.35 1.33-.35 1.936 0l1.233.712a8.573 8.573 0 0 0 2.081-3.6l-1.234-.712A1.919 1.919 0 0 1 21.035 14c0-.7.362-1.327.968-1.677l1.235-.713a8.572 8.572 0 0 0-2.081-3.6l-1.232.711c-.607.35-1.33.35-1.937 0a1.919 1.919 0 0 1-.969-1.677V5.619a8.66 8.66 0 0 0-2.079-.252 8.66 8.66 0 0 0-2.079.252v1.425c0 .7-.362 1.328-.968 1.678-.607.35-1.33.35-1.937 0L8.724 8.01a8.57 8.57 0 0 0-2.082 3.6l1.235.712c.606.351.968.978.968 1.678s-.362 1.327-.968 1.677l-1.235.713a8.574 8.574 0 0 0 2.082 3.6l1.232-.711a1.92 1.92 0 0 1 1.937 0c.606.35.968.977.968 1.677v1.425zm2.08 1.652c-1.02 0-2.024-.152-2.988-.452a.7.7 0 0 1-.492-.668v-1.957a.513.513 0 0 0-.269-.465.513.513 0 0 0-.536 0l-1.692.977a.7.7 0 0 1-.824-.092 9.98 9.98 0 0 1-2.99-5.174.7.7 0 0 1 .333-.76l1.694-.977A.506.506 0 0 0 7.445 14a.513.513 0 0 0-.269-.465l-1.693-.978a.7.7 0 0 1-.333-.759 9.978 9.978 0 0 1 2.99-5.174.7.7 0 0 1 .824-.092l1.692.977a.513.513 0 0 0 .537 0 .511.511 0 0 0 .268-.465V5.087a.7.7 0 0 1 .492-.668c.964-.3 1.97-.452 2.987-.452 1.019 0 2.024.152 2.988.452a.7.7 0 0 1 .491.668v1.957c0 .203.093.364.27.465.174.101.36.101.536 0l1.691-.977a.7.7 0 0 1 .825.092 9.98 9.98 0 0 1 2.99 5.174.7.7 0 0 1-.334.76l-1.693.977a.513.513 0 0 0-.269.465c0 .206.09.362.27.465l1.692.978a.7.7 0 0 1 .333.76 9.982 9.982 0 0 1-2.99 5.173.7.7 0 0 1-.824.092l-1.692-.977a.513.513 0 0 0-.537 0 .512.512 0 0 0-.268.465v1.957a.7.7 0 0 1-.491.668c-.965.3-1.97.452-2.988.452z" fill="#003B1E"/>
    </g>
</svg>
