<svg width="56" height="58" viewBox="0 0 56 58" xmlns="http://www.w3.org/2000/svg" xmlns:xlink="http://www.w3.org/1999/xlink">
    <defs>
        <filter x="-14.6%" y="-18.8%" width="129.2%" height="129.2%" filterUnits="objectBoundingBox" id="76wwwtxm5a">
            <feOffset dy="-2" in="SourceAlpha" result="shadowOffsetOuter1"/>
            <feGaussianBlur stdDeviation="2" in="shadowOffsetOuter1" result="shadowBlurOuter1"/>
            <feColorMatrix values="0 0 0 0 0 0 0 0 0 0 0 0 0 0 0 0 0 0 0.1 0" in="shadowBlurOuter1"/>
        </filter>
        <circle id="eh38x4j2sb" cx="28" cy="28" r="24"/>
    </defs>
    <g fill="none" fill-rule="evenodd">
        <g transform="translate(0 2)">
            <use fill="#000" filter="url(#76wwwtxm5a)" xlink:href="#eh38x4j2sb"/>
            <use fill="#057F4D" xlink:href="#eh38x4j2sb"/>
        </g>
        <path d="M0 2h56v56H0z"/>
        <path d="M28.008 25.924a4.076 4.076 0 1 1 0 8.151 4.076 4.076 0 0 1 0-8.151" fill="#8CCC27"/>
        <path d="M28.008 26.724A3.28 3.28 0 0 0 24.732 30a3.28 3.28 0 0 0 3.276 3.276A3.28 3.28 0 0 0 31.284 30a3.28 3.28 0 0 0-3.276-3.276zm0 8.152A4.882 4.882 0 0 1 23.132 30a4.882 4.882 0 0 1 4.876-4.876A4.882 4.882 0 0 1 32.884 30a4.882 4.882 0 0 1-4.876 4.876zm-2.376 4.703c.773.191 1.57.288 2.376.288.805 0 1.602-.097 2.376-.288v-1.63c0-.8.414-1.517 1.107-1.917.693-.4 1.52-.4 2.213 0l1.409.814a9.798 9.798 0 0 0 2.378-4.114l-1.41-.815A2.193 2.193 0 0 1 34.974 30c0-.8.413-1.517 1.106-1.917l1.411-.815a9.797 9.797 0 0 0-2.378-4.114l-1.409.813c-.693.4-1.52.4-2.213 0a2.193 2.193 0 0 1-1.107-1.917v-1.629a9.897 9.897 0 0 0-2.376-.288c-.805 0-1.602.097-2.376.288v1.63a2.19 2.19 0 0 1-1.107 1.917c-.693.4-1.52.4-2.213 0l-1.409-.814a9.794 9.794 0 0 0-2.378 4.114l1.41.815A2.193 2.193 0 0 1 21.042 30c0 .8-.413 1.516-1.106 1.917l-1.411.815a9.799 9.799 0 0 0 2.378 4.114l1.409-.813c.693-.4 1.52-.4 2.213 0a2.193 2.193 0 0 1 1.107 1.917v1.629zm2.376 1.888c-1.164 0-2.313-.174-3.414-.517a.8.8 0 0 1-.562-.764V37.95a.586.586 0 0 0-.307-.532.586.586 0 0 0-.614 0l-1.933 1.117a.8.8 0 0 1-.942-.105 11.406 11.406 0 0 1-3.417-5.913.8.8 0 0 1 .381-.868l1.936-1.117a.579.579 0 0 0 .306-.532.586.586 0 0 0-.307-.532L17.2 28.351a.8.8 0 0 1-.38-.867 11.403 11.403 0 0 1 3.416-5.914.8.8 0 0 1 .942-.105l1.934 1.117c.2.115.413.115.614 0 .2-.116.306-.3.306-.532v-2.236a.8.8 0 0 1 .562-.764 11.473 11.473 0 0 1 3.414-.517c1.164 0 2.313.174 3.414.517a.8.8 0 0 1 .562.764v2.236c0 .232.106.416.307.532.2.116.413.115.614 0l1.932-1.117a.8.8 0 0 1 .943.105 11.406 11.406 0 0 1 3.417 5.913.8.8 0 0 1-.381.868l-1.936 1.117c-.2.116-.306.3-.306.532 0 .235.103.414.307.532l1.935 1.117a.8.8 0 0 1 .38.868 11.408 11.408 0 0 1-3.416 5.913.8.8 0 0 1-.943.105l-1.933-1.117a.586.586 0 0 0-.614 0c-.2.116-.306.3-.306.532v2.236a.8.8 0 0 1-.562.764c-1.102.343-2.25.517-3.414.517z" fill="#FFF"/>
    </g>
</svg>
