<svg width="32" height="32" viewBox="0 0 32 32" xmlns="http://www.w3.org/2000/svg">
    <g fill="none" fill-rule="evenodd">
        <path d="M16.008 11.924a4.076 4.076 0 1 1 0 8.151 4.076 4.076 0 0 1 0-8.151" fill="#8CCC27"/>
        <path d="M16.008 12.724A3.28 3.28 0 0 0 12.732 16a3.28 3.28 0 0 0 3.276 3.276A3.28 3.28 0 0 0 19.284 16a3.28 3.28 0 0 0-3.276-3.276zm0 8.152A4.882 4.882 0 0 1 11.132 16a4.882 4.882 0 0 1 4.876-4.876A4.882 4.882 0 0 1 20.884 16a4.882 4.882 0 0 1-4.876 4.876zm-2.376 4.703c.773.191 1.57.288 2.376.288.805 0 1.602-.097 2.376-.288v-1.63c0-.8.414-1.517 1.107-1.917.693-.4 1.52-.4 2.213 0l1.409.814a9.798 9.798 0 0 0 2.378-4.114l-1.41-.815A2.193 2.193 0 0 1 22.974 16c0-.8.413-1.517 1.106-1.917l1.411-.815a9.797 9.797 0 0 0-2.378-4.114l-1.409.813c-.693.4-1.52.4-2.213 0a2.193 2.193 0 0 1-1.107-1.917V6.421a9.897 9.897 0 0 0-2.376-.288c-.805 0-1.602.097-2.376.288v1.63a2.19 2.19 0 0 1-1.107 1.917c-.693.4-1.52.4-2.213 0l-1.409-.814a9.794 9.794 0 0 0-2.378 4.114l1.41.815A2.193 2.193 0 0 1 9.042 16c0 .8-.413 1.516-1.106 1.917l-1.411.815a9.799 9.799 0 0 0 2.378 4.114l1.409-.813c.693-.4 1.52-.4 2.213 0a2.193 2.193 0 0 1 1.107 1.917v1.629zm2.376 1.888c-1.164 0-2.313-.174-3.414-.517a.8.8 0 0 1-.562-.764V23.95a.586.586 0 0 0-.307-.532.586.586 0 0 0-.614 0l-1.933 1.117a.8.8 0 0 1-.942-.105 11.406 11.406 0 0 1-3.417-5.913.8.8 0 0 1 .381-.868l1.936-1.117A.579.579 0 0 0 7.442 16a.586.586 0 0 0-.307-.532L5.2 14.351a.8.8 0 0 1-.38-.867A11.403 11.403 0 0 1 8.235 7.57a.8.8 0 0 1 .942-.105l1.934 1.117c.2.115.413.115.614 0 .2-.116.306-.3.306-.532V5.814a.8.8 0 0 1 .562-.764 11.473 11.473 0 0 1 3.414-.517c1.164 0 2.313.174 3.414.517a.8.8 0 0 1 .562.764V8.05c0 .232.106.416.307.532.2.116.413.115.614 0l1.932-1.117a.8.8 0 0 1 .943.105 11.406 11.406 0 0 1 3.417 5.913.8.8 0 0 1-.381.868l-1.936 1.117c-.2.116-.306.3-.306.532 0 .235.103.414.307.532l1.935 1.117a.8.8 0 0 1 .38.868 11.408 11.408 0 0 1-3.416 5.913.8.8 0 0 1-.943.105l-1.933-1.117a.586.586 0 0 0-.614 0c-.2.116-.306.3-.306.532v2.236a.8.8 0 0 1-.562.764c-1.102.343-2.25.517-3.414.517z" fill="#FFF"/>
    </g>
</svg>
