<svg width="18" height="17" viewBox="0 0 18 17" fill="none" xmlns="http://www.w3.org/2000/svg">
<path d="M16.2193 0.898025L5.66602 4.66636V10.4997L6.28935 10.7222L5.35018 12.6005C5.13352 13.033 5.11602 13.5364 5.30018 13.983C5.48602 14.4297 5.85435 14.7739 6.31352 14.9272L9.71685 16.0614C9.88768 16.118 10.0635 16.1455 10.2368 16.1455C10.8543 16.1455 11.446 15.8005 11.7343 15.2255L12.8202 13.0539L16.2193 14.268C16.761 14.4622 17.3327 14.0597 17.3327 13.4839V1.68219C17.3327 1.10636 16.761 0.703858 16.2193 0.898025ZM10.2435 14.4805L6.84102 13.3464L7.87018 11.2872L11.2385 12.4905L10.2435 14.4805ZM2.33268 10.4997H3.99935V4.66636H2.33268C1.41352 4.66636 0.666016 5.41386 0.666016 6.33302V8.83302C0.666016 9.75219 1.41352 10.4997 2.33268 10.4997Z" fill="white"/>
</svg>
