<?xml version="1.0" encoding="utf-8"?>
<!-- Generator: Adobe Illustrator 19.1.0, SVG Export Plug-In . SVG Version: 6.00 Build 0)  -->
<svg version="1.1" id="Layer_1" xmlns="http://www.w3.org/2000/svg" xmlns:xlink="http://www.w3.org/1999/xlink" x="0px" y="0px"
	 viewBox="-444 246 70 70" style="enable-background:new -444 246 70 70;" xml:space="preserve">
<g>
	<g>
		<g>
			<path d="M-374.3,258.5c0.2,0.4,0.3,0.7,0.3,0.9c0,0.2-0.1,0.5-0.3,0.9l-41.9,49.4c-0.7,0.6-1.2,0.9-1.5,0.9
				c-0.6,0-1.1-0.3-1.7-0.8l-23.7-21l-0.5-0.5c-0.2-0.4-0.3-0.7-0.3-0.9c0-0.1,0.1-0.4,0.3-0.8l0.3-0.3c3.1-3.1,5.6-5.5,7.4-7.1
				c0.7-0.6,1.1-0.9,1.3-0.9c0.4,0,1,0.3,1.7,0.9l13.5,12l33.7-39.7c0.2-0.2,0.6-0.3,1-0.3c0.3,0,0.7,0.1,1.2,0.3L-374.3,258.5z"/>
		</g>
	</g>
</g>
</svg>
