<svg width="15" height="15" viewBox="0 0 15 15" fill="none" xmlns="http://www.w3.org/2000/svg">
<path d="M7.4751 13.7043H1.86876C1.5249 13.7043 1.24585 13.4253 1.24585 13.0814V1.86879C1.24585 1.52493 1.52493 1.24588 1.86876 1.24588H7.4751C7.81957 1.24588 8.09801 0.967441 8.09801 0.622969C8.09801 0.278496 7.81957 0 7.4751 0H1.86876C0.838447 0 0 0.838477 0 1.86879V13.0814C0 14.1117 0.838447 14.9502 1.86876 14.9502H7.4751C7.81957 14.9502 8.09801 14.6717 8.09801 14.3273C8.09801 13.9828 7.81957 13.7043 7.4751 13.7043Z" fill="white"/>
<path d="M14.8154 7.03212L11.028 3.29457C10.7838 3.05287 10.3889 3.05601 10.1472 3.30081C9.90546 3.54562 9.90795 3.93992 10.1534 4.18162L12.86 6.85271H5.60729C5.26281 6.85271 4.98438 7.13114 4.98438 7.47562C4.98438 7.82009 5.26281 8.09856 5.60729 8.09856H12.86L10.1534 10.7696C9.90798 11.0113 9.9061 11.4056 10.1472 11.6504C10.2692 11.7738 10.43 11.8361 10.5907 11.8361C10.7489 11.8361 10.9071 11.7763 11.028 11.6567L14.8154 7.91911C14.9337 7.80201 15.001 7.64252 15.001 7.47559C15.001 7.30871 14.9343 7.14986 14.8154 7.03212Z" fill="white" fill-opacity="0.7"/>
</svg>
