<svg width="18" height="17" viewBox="0 0 18 17" fill="none" xmlns="http://www.w3.org/2000/svg">
<path d="M14.8327 0.666992H3.16602C1.78768 0.666992 0.666016 1.78866 0.666016 3.16699V5.52616C0.666016 6.40366 0.984349 7.20116 1.49935 7.81449V16.5003H6.49935V12.3337H11.4993V16.5003H16.4993V7.81366C17.0143 7.20116 17.3327 6.40366 17.3327 5.52533V3.16699C17.3327 1.78866 16.211 0.666992 14.8327 0.666992ZM15.666 3.16699V5.52616C15.666 6.47616 14.9585 7.28616 14.0902 7.33199L13.9993 7.33366C13.0802 7.33366 12.3327 6.58616 12.3327 5.66699V2.33366H14.8327C15.2927 2.33366 15.666 2.70783 15.666 3.16699ZM7.33268 5.66699V2.33366H10.666V5.66699C10.666 6.58616 9.91852 7.33366 8.99935 7.33366C8.08018 7.33366 7.33268 6.58616 7.33268 5.66699ZM2.33268 3.16699C2.33268 2.70783 2.70602 2.33366 3.16602 2.33366H5.66602V5.66699C5.66602 6.58616 4.91852 7.33366 3.99935 7.33366L3.90852 7.33116C3.04018 7.28616 2.33268 6.47616 2.33268 5.52616V3.16699Z" fill="white" />
</svg>
