<svg width="18" height="18" viewBox="0 0 18 18" fill="none" xmlns="http://www.w3.org/2000/svg">
<path d="M8.16602 17.3337V9.83366H3.99935H3.16602H2.33268V15.667C2.33268 16.587 3.07935 17.3337 3.99935 17.3337H8.16602ZM15.666 15.667V9.83366H14.8327H13.9993H9.83268V17.3337H13.9993C14.9193 17.3337 15.666 16.587 15.666 15.667ZM14.8327 3.58366C14.8327 1.97533 13.5243 0.666992 11.916 0.666992C10.5643 0.666992 9.66185 1.90199 9.07935 3.23783C8.50518 1.97533 7.55685 0.666992 6.08268 0.666992C4.47435 0.666992 3.16602 1.97533 3.16602 3.58366C3.16602 4.08033 3.23185 4.49116 3.34018 4.83366H0.666016V8.16699H8.16602V6.50033H8.99935H9.83268V6.57616V8.16699H17.3327V4.83366H14.6585C14.7677 4.49116 14.8327 4.08033 14.8327 3.58366ZM4.83268 3.58366C4.83268 2.89449 5.39352 2.33366 6.08268 2.33366C6.82268 2.33366 7.51102 3.60449 7.91435 4.83366H5.66602C5.35435 4.83366 4.83268 4.83366 4.83268 3.58366ZM11.916 2.33366C12.6052 2.33366 13.166 2.89449 13.166 3.58366C13.166 4.83366 12.6443 4.83366 12.3327 4.83366H10.2685C10.6935 3.52033 11.311 2.33366 11.916 2.33366Z" fill="white" />
</svg>
