<svg width="18" height="18" viewBox="0 0 18 18" fill="none" xmlns="http://www.w3.org/2000/svg">
<path d="M0.953329 11.7262L2.62 14.6095C2.85 15.0078 3.36 15.1445 3.75833 14.9137L4.92166 14.242C5.40499 14.6228 5.93916 14.9353 6.50083 15.1687V16.5003C6.50083 16.9603 6.87333 17.3337 7.33416 17.3337H10.6675C11.1283 17.3337 11.5008 16.9603 11.5008 16.5003V15.1687C12.0625 14.9353 12.5958 14.6228 13.08 14.242L14.2433 14.9137C14.6408 15.1428 15.1525 15.0053 15.3817 14.6095L17.0483 11.7262C17.2775 11.3295 17.14 10.817 16.7442 10.5878L15.6008 9.92699C15.6442 9.61949 15.6667 9.30949 15.6667 9.00033C15.6667 8.69116 15.6442 8.38116 15.5992 8.07366L16.7425 7.41283C17.1392 7.18366 17.2767 6.67116 17.0467 6.27449L15.38 3.39116C15.15 2.99283 14.64 2.85616 14.2417 3.08699L13.0783 3.75866C12.595 3.37783 12.0617 3.06449 11.5 2.83199V1.50033C11.5 1.04033 11.1275 0.666992 10.6667 0.666992H7.33333C6.87249 0.666992 6.49999 1.04033 6.49999 1.50033V2.83199C5.93833 3.06533 5.40499 3.37783 4.92083 3.75866L3.75833 3.08699C3.35916 2.85616 2.85 2.99283 2.62 3.39116L0.953329 6.27449C0.724162 6.67116 0.861662 7.18366 1.2575 7.41283L2.40083 8.07366C2.35583 8.38116 2.33333 8.69116 2.33333 9.00033C2.33333 9.30949 2.35583 9.61949 2.40083 9.92699L1.2575 10.5878C0.860829 10.817 0.723329 11.3295 0.953329 11.7262ZM9 5.66699C10.8383 5.66699 12.3333 7.16199 12.3333 9.00033C12.3333 10.8387 10.8383 12.3337 9 12.3337C7.16166 12.3337 5.66666 10.8387 5.66666 9.00033C5.66666 7.16199 7.16166 5.66699 9 5.66699Z" fill="white"/>
</svg>
