<svg width="17" height="14" viewBox="0 0 17 14" fill="none" xmlns="http://www.w3.org/2000/svg">
<path d="M14.8327 12.833H16.4994C16.4994 11.0555 15.7052 8.64217 13.5385 6.85634C14.1394 5.99967 14.4569 5.00967 14.4452 3.99384C14.4302 2.71467 13.8844 1.49634 12.9077 0.563841L11.7577 1.76884C12.416 2.39884 12.7694 3.17467 12.7794 4.01301C12.7893 4.88134 12.421 5.73217 11.7444 6.41051L11.0235 7.13051L11.8735 7.69384C14.0569 9.14301 14.8327 11.368 14.8327 12.833ZM6.91602 6.99967C8.75435 6.99967 10.2494 5.50467 10.2494 3.66634C10.2494 1.82801 8.75435 0.333008 6.91602 0.333008C5.07768 0.333008 3.58268 1.82801 3.58268 3.66634C3.58268 5.50467 5.07768 6.99967 6.91602 6.99967ZM2.33268 13.6663H11.4994H12.3327H13.166V12.833C13.166 10.0755 10.9235 7.83301 8.16602 7.83301H5.66602C2.90852 7.83301 0.666016 10.0755 0.666016 12.833V13.6663H1.49935H2.33268Z" fill="white" />
</svg>
