<svg width="20" height="20" viewBox="0 0 20 20" fill="none" xmlns="http://www.w3.org/2000/svg">
  <path d="M9.99999 1.66669C5.48249 1.66669 1.66666 5.48252 1.66666 10C1.66666 12.6575 2.99332 15.065 4.99999 16.6034V16.6667H5.08499C6.47499 17.7042 8.17749 18.3334 9.99999 18.3334C11.8225 18.3334 13.525 17.7042 14.915 16.6667H15V16.6034C17.0067 15.065 18.3333 12.6584 18.3333 10C18.3333 5.48252 14.5175 1.66669 9.99999 1.66669ZM6.72832 15.7725C6.97582 14.6517 7.97332 13.8109 9.16666 13.8109H10.8333C12.0267 13.8109 13.0242 14.6525 13.2717 15.7725C12.2983 16.3367 11.18 16.6667 9.99999 16.6667C8.81999 16.6667 7.70166 16.3367 6.72832 15.7725ZM14.675 14.7009C14.0442 13.2009 12.56 12.1442 10.8333 12.1442H9.16666C7.43999 12.1442 5.95499 13.2017 5.32499 14.7009C4.10249 13.485 3.33332 11.8134 3.33332 10C3.33332 6.38585 6.38582 3.33335 9.99999 3.33335C13.6142 3.33335 16.6667 6.38585 16.6667 10C16.6667 11.8134 15.8975 13.485 14.675 14.7009Z" fill="#666666"/>
  <path d="M9.99999 5C8.09999 5 6.66666 6.43333 6.66666 8.33333C6.66666 10.2333 8.09999 11.6667 9.99999 11.6667C11.9 11.6667 13.3333 10.2333 13.3333 8.33333C13.3333 6.43333 11.9 5 9.99999 5ZM9.99999 10C9.01832 10 8.33332 9.315 8.33332 8.33333C8.33332 7.35167 9.01832 6.66667 9.99999 6.66667C10.9817 6.66667 11.6667 7.35167 11.6667 8.33333C11.6667 9.315 10.9817 10 9.99999 10Z" fill="#666666"/>
</svg>