<svg width="97" height="26" viewBox="0 0 97 26" fill="none" xmlns="http://www.w3.org/2000/svg">
<rect x="12.7285" width="26.0229" height="25.8814" fill="white"/>
<path fill-rule="evenodd" clip-rule="evenodd" d="M38.7936 0V26L51.5872 13.0002L38.7936 0Z" fill="#E42713"/>
<path fill-rule="evenodd" clip-rule="evenodd" d="M12.7936 0L25.7937 12.7937L38.7936 0H12.7936Z" fill="#E42713"/>
<path fill-rule="evenodd" clip-rule="evenodd" d="M12.7937 0L0 13.0002L12.7937 26V0Z" fill="#E42713"/>
<path fill-rule="evenodd" clip-rule="evenodd" d="M12.7936 25.989H38.7936L25.7937 12.7937L12.7936 25.989Z" fill="#E42713"/>
<path fill-rule="evenodd" clip-rule="evenodd" d="M63.2424 13.5728H58.5039V18.1587H56.1271V7.42859H58.5039V11.8217H63.2424V7.42859H65.6191V18.1587H63.2424V13.5728Z" fill="white"/>
<path fill-rule="evenodd" clip-rule="evenodd" d="M71.1646 18.5494C68.8323 18.5494 66.9189 17.6316 66.874 15.0709H69.2211C69.2509 16.2108 69.9238 16.8915 71.2095 16.8915C72.1665 16.8915 73.2428 16.4178 73.2428 15.3519C73.2428 14.5234 72.5104 14.2568 71.299 13.9163L70.5217 13.6942C68.8178 13.2059 67.1281 12.5544 67.1281 10.6302C67.1281 8.24705 69.3708 7.44797 71.4189 7.44797C73.5266 7.44797 75.3356 8.17312 75.3507 10.5415H73.0036C72.9138 9.56452 72.3459 9.00195 71.2392 9.00195C70.3724 9.00195 69.5052 9.46084 69.5052 10.4081C69.5052 11.1927 70.2228 11.4295 71.7476 11.9032L72.6449 12.1844C74.4984 12.7617 75.6646 13.3979 75.6646 15.1746C75.6646 17.6166 73.2874 18.5494 71.1646 18.5494Z" fill="white"/>
<path fill-rule="evenodd" clip-rule="evenodd" d="M80.978 16.7584C82.0694 16.7584 83.146 16.5065 83.146 15.2041C83.146 13.9311 82.2188 13.6348 81.1124 13.6348H79.2588V16.7584H80.978ZM80.754 12.1102C81.7853 12.1102 82.8316 11.9032 82.8316 10.6596C82.8316 9.54981 81.8448 9.2535 80.9033 9.2535H79.2588V12.1102H80.754ZM76.9866 7.65506H80.739C81.9203 7.65506 82.3986 7.68481 82.8618 7.78819C84.1776 8.0842 85.1643 8.92776 85.1643 10.3639C85.1643 11.7403 84.2823 12.4507 83.0114 12.7765C84.4765 13.0431 85.5528 13.7832 85.5528 15.367C85.5528 17.7942 83.131 18.3568 81.2325 18.3568H76.9866V7.65506Z" fill="white"/>
<path fill-rule="evenodd" clip-rule="evenodd" d="M91.6687 18.5494C88.1852 18.5494 86.6157 16.3436 86.6157 13.0872C86.6157 9.86053 88.3497 7.44797 91.7886 7.44797C93.9412 7.44797 96.0343 8.3952 96.094 10.8225H93.6723C93.5524 9.75685 92.8349 9.19428 91.7886 9.19428C89.6804 9.19428 89.0375 11.4443 89.0375 13.1611C89.0375 14.8636 89.6804 16.847 91.7133 16.847C92.7751 16.847 93.5524 16.2847 93.7169 15.204H96.1535C95.8849 17.6316 93.9114 18.5494 91.6687 18.5494Z" fill="white"/>
</svg>
