<svg width="195" height="50" viewBox="0 0 195 50" fill="none" xmlns="http://www.w3.org/2000/svg">
<path d="M124.135 26.4474H115.315V35.1316H110.84V14.7368H115.315V23.0263H124.135V14.7368H128.611V35.1316H124.135V26.4474Z" fill="black"/>
<path d="M139.274 35.5263C134.93 35.5263 131.244 33.8158 131.112 28.9474H135.588C135.588 31.1842 136.904 32.3684 139.405 32.3684C141.248 32.3684 143.223 31.4474 143.223 29.4737C143.223 27.8947 141.775 27.3684 139.537 26.7105L138.089 26.3158C134.93 25.3947 131.639 24.079 131.639 20.5263C131.639 15.9211 135.851 14.4737 139.8 14.4737C143.749 14.4737 147.172 15.9211 147.172 20.3947H142.696C142.565 18.5526 141.511 17.5 139.405 17.5C137.826 17.5 136.114 18.4211 136.114 20.1316C136.114 21.579 137.431 22.1053 140.327 23.0263L142.038 23.5526C145.592 24.6053 147.698 25.9211 147.698 29.2105C147.698 33.8158 143.223 35.5263 139.274 35.5263Z" fill="black"/>
<path d="M150.2 14.7368H157.308C159.546 14.7368 160.467 14.7368 161.257 15C163.758 15.5263 165.601 17.2368 165.601 19.8684C165.601 22.5 163.89 23.8158 161.52 24.4737C164.285 25 166.259 26.4474 166.259 29.4737C166.259 34.079 161.652 35.1316 158.098 35.1316H150.068V14.7368H150.2ZM157.308 23.2895C159.283 23.2895 161.257 22.8947 161.257 20.5263C161.257 18.4211 159.414 17.8947 157.571 17.8947H154.412V23.2895H157.308ZM157.835 32.1053C159.941 32.1053 161.915 31.579 161.915 29.079C161.915 26.7105 160.204 26.0526 158.098 26.0526H154.544V31.9737H157.835V32.1053Z" fill="black"/>
<path d="M177.975 35.5263C171.393 35.5263 168.366 31.3158 168.366 25.1316C168.366 18.9474 171.657 14.3421 178.107 14.3421C182.188 14.3421 186.137 16.1842 186.269 20.7895H181.661C181.398 18.8158 180.082 17.6316 178.107 17.6316C174.158 17.6316 172.973 21.9737 172.973 25.1316C172.973 28.421 174.158 32.1053 177.975 32.1053C179.95 32.1053 181.398 31.0526 181.793 28.9474H186.4C185.874 33.8158 182.188 35.5263 177.975 35.5263Z" fill="black"/>
<path d="M78.3249 0.657898H29.6187V49.3421H78.3249V0.657898Z" fill="white"/>
<path d="M78.4565 49.3421L102.81 25L78.4565 0.657898V49.3421Z" fill="#DB0011"/>
<path d="M29.6187 49.3421L5.26562 25L29.6187 0.657898V49.3421Z" fill="#DB0011"/>
<path d="M78.4565 0.657898L53.9718 25L29.6187 0.657898H78.4565Z" fill="#DB0011"/>
<path d="M29.6187 49.3421L53.9718 25L78.4565 49.3421H29.6187Z" fill="#DB0011"/>
</svg>
