<svg width="20" height="20" viewBox="0 0 20 20" fill="none" xmlns="http://www.w3.org/2000/svg">
<path d="M13.3334 9.16666H15V13.3333H13.3334V9.16666Z" fill="#666666"/>
<path d="M16.6666 4.99999V3.33332C16.6666 2.41416 15.9191 1.66666 15 1.66666H4.16663C3.16163 1.66666 1.66663 2.33249 1.66663 4.16666V15C1.66663 16.8342 3.16163 17.5 4.16663 17.5H16.6666C17.5858 17.5 18.3333 16.7525 18.3333 15.8333V6.66666C18.3333 5.74749 17.5858 4.99999 16.6666 4.99999ZM4.16663 3.33332H15V4.99999H4.17663C3.79163 4.98999 3.33329 4.83749 3.33329 4.16666C3.33329 3.49582 3.79163 3.34332 4.16663 3.33332ZM16.6666 15.8333H4.17663C3.79163 15.8233 3.33329 15.6708 3.33329 15V6.52749C3.62163 6.62332 3.90913 6.66666 4.16663 6.66666H16.6666V15.8333Z" fill="#666666"/>
</svg>
