<svg width="313" height="175" viewBox="0 0 313 175" fill="none" xmlns="http://www.w3.org/2000/svg">
  <path opacity="0.07" fill-rule="evenodd" clip-rule="evenodd" d="M156 175C194.66 175 226 171.642 226 167.5C226 163.358 194.66 160 156 160C117.34 160 86 163.358 86 167.5C86 171.642 117.34 175 156 175Z" fill="#777776"/>
  <path fill-rule="evenodd" clip-rule="evenodd" d="M287.568 158.742C287.096 158.673 286.743 158.442 286.678 158.159C286.404 156.983 285.682 153.874 285.281 152.147C285.235 151.95 284.77 151.951 284.724 152.148L283.327 158.159C283.262 158.442 282.912 158.672 282.44 158.742C281.177 158.927 278.676 159.294 277.215 159.508C276.928 159.551 276.928 159.799 277.215 159.841C278.675 160.055 281.177 160.422 282.44 160.607C282.912 160.677 283.262 160.907 283.327 161.19L284.72 167.183C284.766 167.383 285.239 167.383 285.285 167.183L286.678 161.19C286.743 160.907 287.093 160.676 287.565 160.607C288.827 160.422 291.325 160.056 292.786 159.841C293.074 159.799 293.07 159.549 292.782 159.507L287.568 158.742Z" fill="#73C20E" stroke="#73C20E" stroke-width="2"/>
  <path fill-rule="evenodd" clip-rule="evenodd" d="M253.568 63.742C253.096 63.6728 252.743 63.4421 252.678 63.1593C252.404 61.9829 251.682 58.874 251.281 57.1475C251.235 56.9503 250.77 56.9511 250.724 57.1482L249.327 63.1592C249.262 63.442 248.912 63.6723 248.44 63.7416C247.177 63.927 244.676 64.2941 243.215 64.5084C242.928 64.5505 242.928 64.7987 243.215 64.8408C244.675 65.0551 247.177 65.4222 248.44 65.6074C248.912 65.6766 249.262 65.907 249.327 66.1898L250.72 72.1834C250.766 72.3833 251.239 72.3833 251.285 72.1834L252.678 66.1897C252.743 65.9069 253.093 65.6765 253.565 65.6073C254.827 65.4221 257.325 65.0556 258.786 64.8412C259.074 64.799 259.07 64.5494 258.782 64.5072L253.568 63.742Z" fill="#73C20E" stroke="#73C20E" stroke-width="2"/>
  <path fill-rule="evenodd" clip-rule="evenodd" d="M22.5677 7.74205C22.0959 7.67284 21.7435 7.44208 21.6777 7.15926C21.4045 5.98292 20.6822 2.874 20.281 1.14749C20.2352 0.950341 19.7698 0.951084 19.7239 1.14824L18.3273 7.1592C18.2617 7.44196 17.9122 7.67235 17.4405 7.74161C16.1775 7.927 13.6755 8.29413 12.215 8.50843C11.9283 8.55052 11.9283 8.79874 12.215 8.84083C13.6754 9.05513 16.1773 9.42219 17.4404 9.6074C17.9122 9.6766 18.2617 9.90699 18.3274 10.1898L19.72 16.1834C19.7665 16.3833 20.2387 16.3833 20.2852 16.1834L21.6777 10.1897C21.7435 9.90687 22.093 9.67648 22.5647 9.60727C23.8267 9.42213 26.3251 9.05556 27.7861 8.8412C28.0738 8.79899 28.07 8.54941 27.7824 8.50719L22.5677 7.74205Z" fill="#73C20E" stroke="#73C20E" stroke-width="2"/>
  <path opacity="0.5" d="M290.492 95L296 88" stroke="#73C20E" stroke-width="4" stroke-linecap="round" stroke-linejoin="round" stroke-dasharray="2"/>
  <path opacity="0.5" d="M28 93L20 88" stroke="#73C20E" stroke-width="4" stroke-linecap="round" stroke-linejoin="round"/>
  <path fill-rule="evenodd" clip-rule="evenodd" d="M46.5677 143.742C46.0959 143.673 45.7435 143.442 45.6777 143.159C45.4045 141.983 44.6822 138.874 44.281 137.147C44.2352 136.95 43.7698 136.951 43.7239 137.148L42.3273 143.159C42.2617 143.442 41.9122 143.672 41.4405 143.742C40.1775 143.927 37.6755 144.294 36.215 144.508C35.9283 144.551 35.9283 144.799 36.215 144.841C37.6754 145.055 40.1773 145.422 41.4404 145.607C41.9122 145.677 42.2617 145.907 42.3274 146.19L43.72 152.183C43.7665 152.383 44.2387 152.383 44.2852 152.183L45.6777 146.19C45.7435 145.907 46.093 145.676 46.5647 145.607C47.8267 145.422 50.3251 145.056 51.7861 144.841C52.0738 144.799 52.07 144.549 51.7824 144.507L46.5677 143.742Z" fill="#73C20E" stroke="#73C20E" stroke-width="2"/>
  <rect x="72" y="106" width="6" height="6" fill="#78BB42"/>
  <rect x="237" y="127" width="6" height="6" fill="#78BB42"/>
  <path d="M155 116.788C153.848 116.788 152.913 115.851 152.913 114.695V102.143C152.913 100.988 153.848 100.051 155 100.051C156.152 100.051 157.087 100.988 157.087 102.144V114.696C157.087 115.851 156.152 116.788 155 116.788ZM129.956 116.788C128.804 116.788 127.869 115.851 127.869 114.695V104.235C127.869 103.08 128.804 102.143 129.956 102.143C131.108 102.143 132.044 103.08 132.044 104.236V114.696C132.044 115.851 131.11 116.788 129.956 116.788ZM180.044 116.788C178.892 116.788 177.956 115.851 177.956 114.695V104.235C177.956 103.08 178.891 102.143 180.044 102.143C181.196 102.143 182.131 103.08 182.131 104.236V114.696C182.131 115.851 181.196 116.788 180.044 116.788Z" fill="#009B3E"/>
  <path d="M194.653 141.892H115.348V118.878C115.349 118.053 115.512 117.236 115.828 116.474C116.143 115.712 116.605 115.02 117.186 114.437C117.768 113.854 118.458 113.393 119.217 113.078C119.976 112.763 120.789 112.602 121.61 112.604H188.392C189.213 112.602 190.026 112.764 190.785 113.079C191.544 113.393 192.234 113.855 192.815 114.438C193.396 115.021 193.858 115.713 194.173 116.475C194.488 117.237 194.651 118.054 194.653 118.88V141.893V141.892Z" fill="#E9E9E9"/>
  <path d="M200.913 167H109.087C107.935 167 107 166.064 107 164.906V143.986C107.001 143.161 107.164 142.343 107.479 141.581C107.795 140.819 108.256 140.127 108.838 139.544C109.419 138.961 110.109 138.499 110.869 138.185C111.628 137.87 112.441 137.709 113.262 137.71H196.738C197.559 137.709 198.372 137.87 199.131 138.185C199.891 138.499 200.581 138.961 201.162 139.544C201.744 140.127 202.205 140.819 202.521 141.581C202.836 142.343 202.999 143.161 203 143.986V164.906C203 166.064 202.065 167 200.913 167Z" fill="#D3D3D3"/>
  <path d="M155 104.235C149.24 104.229 144.573 99.5491 144.566 93.7749C144.566 88.7535 151.825 77.9594 153.283 75.8496C153.485 75.5852 153.745 75.3712 154.043 75.2239C154.341 75.0766 154.668 75 155 75C155.332 75 155.66 75.0766 155.957 75.2239C156.255 75.3712 156.515 75.5852 156.718 75.8496C158.174 77.9594 165.435 88.7535 165.435 93.7749C165.429 99.5491 160.76 104.228 155 104.235ZM129.956 106.327C129.135 106.328 128.322 106.167 127.563 105.852C126.804 105.537 126.114 105.075 125.533 104.492C124.951 103.91 124.49 103.218 124.175 102.455C123.859 101.693 123.696 100.876 123.695 100.051C123.695 97.3784 126.872 92.4788 128.24 90.4936C128.442 90.2296 128.702 90.0158 129 89.8687C129.298 89.7215 129.625 89.645 129.957 89.645C130.288 89.645 130.616 89.7215 130.913 89.8687C131.211 90.0158 131.471 90.2296 131.674 90.4936C133.041 92.4773 136.218 97.3769 136.218 100.051C136.217 100.876 136.054 101.694 135.739 102.456C135.423 103.218 134.962 103.91 134.38 104.493C133.799 105.076 133.109 105.538 132.35 105.852C131.59 106.167 130.777 106.328 129.956 106.327ZM180.044 106.327C179.223 106.328 178.41 106.167 177.651 105.852C176.892 105.538 176.202 105.076 175.62 104.493C175.039 103.91 174.577 103.218 174.262 102.456C173.946 101.694 173.783 100.876 173.782 100.051C173.782 97.3784 176.959 92.4788 178.327 90.4936C178.529 90.2296 178.789 90.0158 179.087 89.8687C179.385 89.7215 179.712 89.645 180.044 89.645C180.375 89.645 180.703 89.7215 181 89.8687C181.298 90.0158 181.558 90.2296 181.761 90.4936C183.128 92.4773 186.305 97.3769 186.305 100.051C186.304 100.876 186.141 101.694 185.826 102.456C185.51 103.218 185.049 103.91 184.467 104.493C183.886 105.076 183.196 105.538 182.436 105.852C181.677 106.167 180.864 106.328 180.043 106.327H180.044Z" fill="#54C500"/>
</svg>
