<svg height="122" viewBox="0 0 122 122" width="122" xmlns="http://www.w3.org/2000/svg"><g fill="none"><path d="m0 0h121.873v121.873h-121.873z" fill="#000"/><path d="m9.624 53.721h9.976v30.443h4.077v-30.444h9.966v-3.79h-24.02zm39.485 6.845a8.416 8.416 0 0 0 -7.494 3.838v-14.464h-3.93v34.235h3.93v-13.461c.399-4.43 3.485-6.606 6.765-6.606 4.316 0 5.934 2.79 5.934 6.298v13.758h3.929v-12.892c0-3.576-.376-4.67-.775-5.695-1.161-3.03-4.373-5.01-8.36-5.01zm35.146 12.152a12.926 12.926 0 0 0 -2.779-8.485 10.58 10.58 0 0 0 -8.28-3.656 10.592 10.592 0 0 0 -7.915 3.52 12.778 12.778 0 0 0 -2.95 8.621 12.653 12.653 0 0 0 2.848 8.44 10.603 10.603 0 0 0 7.972 3.564 10.375 10.375 0 0 0 10.079-6.526l-3.28-1.139a7.642 7.642 0 0 1 -1.276 2.027 7.255 7.255 0 0 1 -5.512 2.347 6.742 6.742 0 0 1 -5.296-2.358 8.872 8.872 0 0 1 -1.754-4.635h18.063c.046-.604.08-1.15.08-1.72zm-11.093-1.253h-7.095a9.373 9.373 0 0 1 1.88-5.182 6.697 6.697 0 0 1 5.204-2.403 6.412 6.412 0 0 1 5.364 2.403 9.715 9.715 0 0 1 1.674 5.194z" fill="#fff"/><path d="m88.97 26.434v8.382h6.264v49.348h8.382v-57.73z" fill="#fff"/><path d="m86.602 88.628h25.648v6.606h-25.648z" fill="#dd1a22"/></g></svg>