<?xml version="1.0" encoding="utf-8"?>
<!-- Generator: Adobe Illustrator 26.0.1, SVG Export Plug-In . SVG Version: 6.00 Build 0)  -->
<svg width="40px" height="40px" version="1.1" id="Layer_1" xmlns="http://www.w3.org/2000/svg" xmlns:xlink="http://www.w3.org/1999/xlink" x="0px" y="0px"
	 viewBox="0 0 71.42 74.6" style="enable-background:new 0 0 71.42 74.6;" xml:space="preserve">
<style type="text/css">
	.st0{fill:#FFFFFF;}
	.st1{fill:#006FCF;}
</style>
<polyline class="st0" points="57.89,60.55 13.45,60.55 13.45,16.11 57.89,16.11 57.89,38.5 "/>
<path class="st1" d="M35.75,32.21h-3.38l1.69-4.07 M37.97,37.49h3.82L36.3,25.05h-4.37l-5.49,12.44h3.73L31.2,35h5.72L37.97,37.49z
	 M54.53,37.49h3.36V25.05h-5.22l-2.79,7.75l-2.77-7.75h-5.31v12.44h3.36v-8.71l3.2,8.71h2.99l3.2-8.73V37.49z M34.6,48.85v-1.93
	h7.02V44.1H34.6v-1.94h7.2v-2.88H31.2v12.44h10.59v-2.88H34.6z M54.47,45.48l3.42,3.63v-7.24L54.47,45.48z M53.43,51.73h4.46
	l-5.9-6.25l5.9-6.18H53.5l-3.64,3.98l-3.61-3.98h-4.46l5.86,6.22l-5.86,6.22h4.33l3.66-4.02L53.43,51.73z M57.89,60.55v-7.04h-5.36
	l-2.76-3.05l-2.78,3.05H29.32V39.28h-5.71l7.08-16.02h6.82l2.44,5.49v-5.49h8.45l1.47,4.13l1.48-4.13h6.55v-7.16H13.45v44.44H57.89z
	"/>
</svg>
