<svg version="1.0" xmlns="http://www.w3.org/2000/svg"
 width="1280.000000pt" height="1280.000000pt" viewBox="0 0 1280.000000 1280.000000"
 preserveAspectRatio="xMidYMid meet">
<g transform="translate(0.000000,1280.000000) scale(0.100000,-0.100000)"
fill="#000000" stroke="none">
<path d="M4844 9580 c-74 -30 -128 -81 -166 -158 -29 -59 -33 -76 -32 -147 0
-146 -99 -36 1389 -1548 l1336 -1358 -128 -133 c-70 -73 -668 -683 -1328
-1354 -969 -987 -1206 -1232 -1230 -1279 -27 -51 -30 -66 -30 -147 0 -76 4
-99 24 -141 88 -178 316 -239 478 -128 22 15 693 693 1491 1506 1619 1649
1507 1525 1507 1673 0 153 111 29 -1528 1694 -1169 1186 -1469 1486 -1510
1507 -71 37 -198 43 -273 13z" fill="#0072d8"/>
</g>
</svg>
