<svg xmlns="http://www.w3.org/2000/svg" xmlns:xlink="http://www.w3.org/1999/xlink" width="20" height="20" viewBox="0 0 20 20">
  <defs>
    <clipPath id="clip-path">
      <rect id="Rectangle_17637" data-name="Rectangle 17637" width="20" height="20" fill="none"/>
    </clipPath>
  </defs>
  <g id="catalog-selected" clip-path="url(#clip-path)">
    <path id="Path_2519" data-name="Path 2519" d="M322.511,294.343a2.238,2.238,0,0,0,2.227,2.017h9.075a2.238,2.238,0,0,0,2.227-2.018.5.5,0,0,0,.009-.14c0-.027,0-.053,0-.08v-4.885A2.238,2.238,0,0,0,333.813,287h-9.075a2.238,2.238,0,0,0-2.238,2.238v4.885c0,.027,0,.053,0,.08a.5.5,0,0,0,.009.14m11.3,1.017h-9.075a1.24,1.24,0,0,1-1.2-.935l4.228-3.89,2.661,2.511a.5.5,0,0,0,.65.031l1.32-1.024,2.615,2.375a1.24,1.24,0,0,1-1.2.933M324.738,288h9.075a1.239,1.239,0,0,1,1.238,1.238v3.873l-2.292-2.081a.5.5,0,0,0-.643-.025l-1.314,1.019-2.689-2.536a.5.5,0,0,0-.682,0L323.5,293.1v-3.863A1.239,1.239,0,0,1,324.738,288" transform="translate(-319.275 -284.13)" fill="#0072d8"/>
    <path id="Path_2520" data-name="Path 2520" d="M335.55,1352H323a.5.5,0,1,0,0,1h12.55a.5.5,0,1,0,0-1" transform="translate(-319.275 -1338.48)" fill="#0072d8"/>
    <path id="Path_2521" data-name="Path 2521" d="M335.55,1613H323a.5.5,0,1,0,0,1h12.55a.5.5,0,1,0,0-1" transform="translate(-319.275 -1596.87)" fill="#0072d8"/>
    <g id="Group_11128" data-name="Group 11128">
      <g id="Group_11158" data-name="Group 11158">
        <g id="Group_11157" data-name="Group 11157" clip-path="url(#clip-path)">
          <g id="icon-n-catalogue">
            <path id="Path_2519-2" data-name="Path 2519" d="M3.236,10.213A2.238,2.238,0,0,0,5.463,12.23h9.075a2.238,2.238,0,0,0,2.227-2.018.47.47,0,0,0,.009-.14V5.107A2.238,2.238,0,0,0,14.538,2.87H5.463A2.238,2.238,0,0,0,3.225,5.108h0v4.965a.47.47,0,0,0,.009.14m11.3,1.017H5.459a1.24,1.24,0,0,1-1.2-.935l4.228-3.89,2.661,2.511a.5.5,0,0,0,.65.031l1.32-1.024L15.733,10.3a1.241,1.241,0,0,1-1.2.933" fill="#0072d8"/>
            <path id="Path_2520-2" data-name="Path 2520" d="M16.275,13.52H3.725a.5.5,0,1,0,0,1h12.55a.5.5,0,0,0,0-1" fill="#0072d8"/>
            <path id="Path_2521-2" data-name="Path 2521" d="M16.275,16.13H3.725a.5.5,0,0,0,0,1h12.55a.5.5,0,1,0,0-1" fill="#0072d8"/>
          </g>
        </g>
      </g>
    </g>
  </g>
</svg>
