<svg id="catalog-default" xmlns="http://www.w3.org/2000/svg" width="20" height="20" viewBox="0 0 20 20">
  <rect id="Rectangle_20259" data-name="Rectangle 20259" width="20" height="20" fill="none"/>
  <path id="Path_7642" data-name="Path 7642" d="M11817.758-5227.739a.5.5,0,0,1-.5-.5.5.5,0,0,1,.5-.5h12.551a.5.5,0,0,1,.5.5.5.5,0,0,1-.5.5Zm0-2.61a.5.5,0,0,1-.5-.5.5.5,0,0,1,.5-.5h12.551a.5.5,0,0,1,.5.5.5.5,0,0,1-.5.5Zm1.738-2.29a2.22,2.22,0,0,1-1.582-.655,2.22,2.22,0,0,1-.646-1.362.492.492,0,0,1-.009-.141c0-.027,0-.053,0-.08v-4.885a2.225,2.225,0,0,1,.656-1.583,2.22,2.22,0,0,1,1.582-.654h9.074a2.221,2.221,0,0,1,1.582.654,2.225,2.225,0,0,1,.656,1.583v4.885c0,.027,0,.054,0,.08a.484.484,0,0,1-.01.14,2.219,2.219,0,0,1-.645,1.363,2.222,2.222,0,0,1-1.582.655Zm-1.2-1.935a1.241,1.241,0,0,0,1.2.935h9.074a1.238,1.238,0,0,0,1.2-.933l-2.615-2.375-1.32,1.024a.5.5,0,0,1-.649-.031l-2.661-2.511Zm9.221-3.4,2.293,2.081v-3.874a1.239,1.239,0,0,0-1.238-1.237h-9.074a1.239,1.239,0,0,0-1.238,1.237v3.863l3.932-3.617a.5.5,0,0,1,.682,0l2.688,2.537,1.313-1.019a.5.5,0,0,1,.307-.1A.5.5,0,0,1,11827.516-5237.97Z" transform="translate(-11814.032 5244.869)" fill="#0072d8" stroke="rgba(0,0,0,0)" stroke-width="1"/>
</svg>
