<svg id="close" xmlns="http://www.w3.org/2000/svg" width="24" height="24" viewBox="0 0 24 24">
  <rect id="Rectangle_814" data-name="Rectangle 814" width="24" height="24" fill="none"/>
  <path id="Path_7653" data-name="Path 7653" d="M11728.813-5498.339l-4.894-4.894-4.895,4.894a.6.6,0,0,1-.426.176.6.6,0,0,1-.425-.176.6.6,0,0,1,0-.848l4.9-4.895-4.895-4.9a.6.6,0,0,1,0-.848.6.6,0,0,1,.85,0l4.895,4.895,4.895-4.895a.6.6,0,0,1,.848,0,.6.6,0,0,1,0,.848l-4.895,4.9,4.895,4.895a.6.6,0,0,1,0,.848.6.6,0,0,1-.424.176A.6.6,0,0,1,11728.813-5498.339Z" transform="translate(-11711.919 5516.08)" fill="#0072d8"/>
</svg>
