<svg xmlns="http://www.w3.org/2000/svg" width="64" height="64" viewBox="0 0 64 64">
  <g id="creditcards-enclosed-outline-fullcolor" transform="translate(-484 -337)">
    <g id="enclosure-backgroundblue" transform="translate(484 337)">
      <rect id="enclosed-lightmonochrome" width="64" height="64" rx="32" fill="#e5f5ff"/>
    </g>
    <g id="icon-pg-creditcard" transform="translate(492.585 346.585)">
      <rect id="Rectangle_17904" data-name="Rectangle 17904" width="35.422" height="22.814" rx="8" transform="translate(5.704 12.008)" fill="#fff"/>
      <g id="Group_88" data-name="Group 88" transform="translate(0)">
        <rect id="Rectangle_15" data-name="Rectangle 15" width="46.829" height="46.829" fill="none"/>
      </g>
      <rect id="Rectangle_17905" data-name="Rectangle 17905" width="11.407" height="4.203" rx="2.101" transform="translate(10.206 26.417)" fill="#fdb913"/>
      <g id="Group_89" data-name="Group 89" transform="translate(4.803 10.44)">
        <path id="Path_68" data-name="Path 68" d="M245.095,471.6H218.689a5.392,5.392,0,0,1-5.389-5.389V450.989a5.392,5.392,0,0,1,5.389-5.389h26.406a5.392,5.392,0,0,1,5.389,5.389V455.7a1.172,1.172,0,0,1-1.171,1.171H215.861a1.149,1.149,0,0,1-.22-.021v9.36a3.049,3.049,0,0,0,3.046,3.046h26.406a3.049,3.049,0,0,0,3.046-3.046v-3.362a1.171,1.171,0,0,1,2.343,0v3.362a5.392,5.392,0,0,1-5.387,5.389Zm-26.408-23.657a3.049,3.049,0,0,0-3.046,3.046v3.564a1.132,1.132,0,0,1,.22-.021h32.277v-3.545a3.049,3.049,0,0,0-3.046-3.046H218.687Z" transform="translate(-213.3 -445.6)" fill="#0072d8"/>
      </g>
    </g>
  </g>
</svg>
