<svg xmlns="http://www.w3.org/2000/svg" width="64" height="64" viewBox="0 0 64 64">
  <g id="diamond-selected" transform="translate(-197)">
    <g id="essentials" transform="translate(197)">
      <g id="grocery-enclosed-filled-fullcolor">
        <rect id="Rectangle_17952" data-name="Rectangle 17952" width="64" height="64" rx="32" fill="#0072d8"/>
      </g>
    </g>
    <g id="card-diamond" transform="translate(208.038 19.323)">
      <g id="Path_8754" data-name="Path 8754" transform="translate(0 0)" fill="#e2e2e2" stroke-linecap="round">
        <path d="M 3.870462894439697 24.92024421691895 C 2.945903062820435 24.92024421691895 2.081012964248657 24.5638256072998 1.435112953186035 23.91664505004883 C 0.8057229518890381 23.2860050201416 0.4600629806518555 22.45121574401855 0.4618229866027832 21.56605529785156 L 0.4969029724597931 3.871284961700439 C 0.5005829930305481 2.015934944152832 2.040562868118286 0.5035049319267273 3.929792881011963 0.4998149275779724 L 38.04619216918945 0.4332349300384521 L 38.05316162109375 0.4332249164581299 C 38.97772216796875 0.4332249164581299 39.84261322021484 0.7896448969841003 40.4885139465332 1.436824917793274 C 41.11790466308594 2.067464828491211 41.46356201171875 2.902254819869995 41.4618034362793 3.787415027618408 L 41.42672348022461 21.48217582702637 C 41.42305374145508 23.3375244140625 39.88306427001953 24.8499641418457 37.99383163452148 24.8536548614502 L 3.877433061599731 24.92023468017578 L 3.870462894439697 24.92024421691895 Z" stroke="none"/>
        <path d="M 38.05316162109375 0.9332256317138672 L 38.04716491699219 0.9332351684570312 L 3.930763244628906 0.9998149871826172 C 2.316162109375 1.002964019775391 1.000034332275391 2.291545867919922 0.9969024658203125 3.872274398803711 L 0.9618110656738281 21.56704521179199 C 0.9603233337402344 22.3184642791748 1.254104614257812 23.0274658203125 1.789024353027344 23.56344413757324 C 2.3404541015625 24.11596488952637 3.079654693603516 24.42024421691895 3.870464324951172 24.42024421691895 L 3.87646484375 24.42023468017578 L 37.99286270141602 24.3536548614502 C 39.60747146606445 24.35050582885742 40.92360305786133 23.06192398071289 40.92672348022461 21.48118591308594 L 40.9618034362793 3.78642463684082 C 40.96329116821289 3.035005569458008 40.66952133178711 2.326004028320312 40.13460159301758 1.79002571105957 C 39.58317184448242 1.237504959106445 38.84397125244141 0.9332256317138672 38.05316162109375 0.9332256317138672 M 38.05316162109375 -0.0667724609375 C 40.21680450439453 -0.0667724609375 41.96602630615234 1.657629013061523 41.9618034362793 3.78840446472168 L 41.92672348022461 21.4831657409668 C 41.92250442504883 23.61655426025391 40.16211318969727 25.34942436218262 37.99481201171875 25.3536548614502 L 3.878414154052734 25.42023468017578 C 3.875766754150391 25.42024040222168 3.87310791015625 25.42024230957031 3.870464324951172 25.42024230957031 C 1.706821441650391 25.42024230957031 -0.04240036010742188 23.69584083557129 -0.03818893432617188 21.56506538391113 L -0.0030975341796875 3.870294570922852 C 0.001132965087890625 1.736915588378906 1.761501312255859 0.004045486450195312 3.928813934326172 -0.0001850128173828125 L 38.04521179199219 -0.06676483154296875 C 38.04785919189453 -0.06677055358886719 38.05051803588867 -0.0667724609375 38.05316162109375 -0.0667724609375 Z" stroke="none" fill="#4d4d4d"/>
      </g>
      <g id="BDOonBlue" transform="translate(3.518 3.481)">
        <g id="Group_4058" data-name="Group 4058" transform="translate(7.97 0)">
          <path id="Path_964" data-name="Path 964" d="M2.5,0A2.29,2.29,0,0,0,0,2.217a2.269,2.269,0,0,0,2.5,2.212A2.291,2.291,0,0,0,5,2.208,2.269,2.269,0,0,0,2.5,0ZM2.5,3.9c-1,0-1.423-.793-1.422-1.685S1.5.527,2.5.525s1.424.792,1.422,1.685S3.5,3.9,2.5,3.9Z" transform="translate(0.004 0.004)" fill="#231f20"/>
        </g>
        <path id="Path_965" data-name="Path 965" d="M5.88-.01l-1.7,0L4.179,2.528A1.169,1.169,0,0,0,3.265,1.9a.917.917,0,0,0,.564-.872C3.831.4,3.41,0,2.416,0h0L0,0-.007,4.18l2.634-.005c.783,0,1.341-.216,1.55-.718v.715l1.695,0a2.57,2.57,0,0,0,2.374-1,2.133,2.133,0,0,1-.281-1.09A2.137,2.137,0,0,1,8.249.984,2.546,2.546,0,0,0,5.88-.01ZM1.014.553l1,0c.513,0,.76.236.759.6s-.248.6-.761.605l-1,0,0-1.208ZM2.389,3.621l-1.38,0,0-1.309,1.38,0c.556,0,.823.255.822.653S2.945,3.62,2.389,3.621Zm3.364-.007H5.192L5.2.545h.561c1.2,0,1.684.651,1.682,1.532S6.955,3.613,5.754,3.615Z" transform="translate(0.007 0.145)" fill="#231f20"/>
      </g>
      <path id="Path_8755" data-name="Path 8755" d="M1.211,0l5.246-.01A1.2,1.2,0,0,1,7.665,1.178,1.207,1.207,0,0,1,6.452,2.372l-5.246.01A1.2,1.2,0,0,1,0,1.193,1.207,1.207,0,0,1,1.211,0Z" transform="translate(31.471 3.52)" fill="#adadad"/>
      <g id="Group_17201" data-name="Group 17201" transform="translate(3.592 16.225)">
        <path id="Path_8756" data-name="Path 8756" d="M1.211,0,6.053-.011A1.2,1.2,0,0,1,7.261,1.179,1.207,1.207,0,0,1,6.048,2.373l-4.842.009A1.2,1.2,0,0,1,0,1.193,1.207,1.207,0,0,1,1.211,0Z" transform="translate(0.011 0.059)" fill="#adadad"/>
        <path id="Path_8757" data-name="Path 8757" d="M1.211,0,5.649-.01A1.2,1.2,0,0,1,6.858,1.179,1.207,1.207,0,0,1,5.645,2.373l-4.439.009A1.2,1.2,0,0,1,0,1.193,1.207,1.207,0,0,1,1.211,0Z" transform="translate(8.485 0.043)" fill="#adadad"/>
        <path id="Path_8758" data-name="Path 8758" d="M1.211,0,5.649-.01A1.2,1.2,0,0,1,6.858,1.179,1.207,1.207,0,0,1,5.645,2.373l-4.439.009A1.2,1.2,0,0,1,0,1.193,1.207,1.207,0,0,1,1.211,0Z" transform="translate(16.555 0.027)" fill="#adadad"/>
        <path id="Path_8759" data-name="Path 8759" d="M1.211,0,6.053-.011A1.2,1.2,0,0,1,7.261,1.179,1.207,1.207,0,0,1,6.048,2.373l-4.842.009A1.2,1.2,0,0,1,0,1.193,1.207,1.207,0,0,1,1.211,0Z" transform="translate(25.029 0.011)" fill="#adadad"/>
        <path id="Path_8760" data-name="Path 8760" d="M1.009,0,19.167-.034a1,1,0,0,1,1.007.991,1.006,1.006,0,0,1-1.011.995L1.005,1.988A1,1,0,0,1,0,1,1.006,1.006,0,0,1,1.009,0Z" transform="translate(0.002 4.823)" fill="#adadad"/>
      </g>
    </g>
  </g>
</svg>
