<svg xmlns="http://www.w3.org/2000/svg" xmlns:xlink="http://www.w3.org/1999/xlink" width="50" height="50" viewBox="0 0 50 50">
  <defs>
    <clipPath id="clip-path">
      <rect id="Rectangle_21491" data-name="Rectangle 21491" width="35" height="28" transform="translate(129.961 -1.074)" fill="#fff" stroke="#707070" stroke-width="1"/>
    </clipPath>
  </defs>
  <g id="dinersclub-default" transform="translate(-371 -919)">
   <!-- <g id="essentials" transform="translate(371 919)">
      <g id="grocery-enclosed-outline-fullcolor">
        <rect id="enclosed-lightmonochrome" width="50" height="50" rx="8" fill="#e5f5ff" opacity="0.8"/>
      </g>
    </g>-->
    <g id="dinersclub" transform="translate(249.039 931.074)" clip-path="url(#clip-path)">
      <g id="__x0023_Layer_x0020_1" transform="translate(131.039 0.014)">
        <path id="Path_8775" data-name="Path 8775" d="M19.1,25.823c7.058.034,13.5-5.756,13.5-12.8C32.6,5.321,26.153,0,19.1,0H13.021A12.736,12.736,0,0,0,0,13.024a12.937,12.937,0,0,0,13.021,12.8Z" transform="translate(0 0)" fill="#0079be"/>
        <path id="Path_8776" data-name="Path 8776" d="M35.888,20.83A11.821,11.821,0,1,0,47.706,32.651,11.821,11.821,0,0,0,35.888,20.83ZM28.4,32.651h0a7.5,7.5,0,0,1,4.809-6.992V39.642A7.5,7.5,0,0,1,28.4,32.651Zm10.171,6.994h0V25.659a7.488,7.488,0,0,1,0,13.987Z" transform="translate(-22.838 -19.763)" fill="#fff"/>
        <path id="Path_8777" data-name="Path 8777" d="M693.849,80.518c0-1.222-.637-1.141-1.248-1.154v-.353c.529.026,1.072.026,1.6.026.57,0,1.344-.026,2.35-.026,3.516,0,5.431,2.349,5.431,4.754,0,1.345-.787,4.726-5.594,4.726-.692,0-1.331-.027-1.969-.027-.611,0-1.209.013-1.819.027v-.353c.814-.082,1.209-.109,1.248-1.033V80.518Zm1.331,6.37h0c0,1.046.747,1.168,1.413,1.168,2.934,0,3.9-2.214,3.9-4.238a4.081,4.081,0,0,0-4.25-4.372c-.557,0-.814.04-1.06.054v7.388Z" transform="translate(-657.114 -74.963)" fill="#211e1f"/>
        <path id="Path_8778" data-name="Path 8778" d="M885.022,85.357h.257c.38,0,.652,0,.652-.449v-3.68c0-.6-.2-.68-.706-.95v-.218c.638-.192,1.4-.448,1.453-.489a.483.483,0,0,1,.245-.069c.067,0,.1.082.1.191v5.214c0,.449.3.449.679.449h.231v.353c-.462,0-.938-.027-1.425-.027s-.978.013-1.48.027v-.353Zm1.453-7.945h0a.666.666,0,0,1,0-1.332.666.666,0,0,1,.666.653A.679.679,0,0,1,886.475,77.412Z" transform="translate(-839.676 -72.182)" fill="#211e1f"/>
        <path id="Path_8779" data-name="Path 8779" d="M950.305,144.7c0-.5-.15-.637-.787-.9v-.258a18.188,18.188,0,0,0,1.792-.653c.041,0,.08.028.08.136v.883a3.982,3.982,0,0,1,2.352-1.019c1.153,0,1.56.842,1.56,1.9v3.5c0,.449.3.449.679.449h.244v.353c-.477,0-.951-.027-1.439-.027s-.979.013-1.467.027v-.353h.244c.381,0,.651,0,.651-.449V144.78c0-.775-.473-1.155-1.248-1.155a3.629,3.629,0,0,0-1.577.652V148.3c0,.449.3.449.681.449h.244v.353c-.475,0-.951-.027-1.44-.027s-.978.013-1.466.027v-.353h.245c.38,0,.651,0,.651-.449v-3.6Z" transform="translate(-900.765 -135.57)" fill="#211e1f"/>
        <path id="Path_8780" data-name="Path 8780" d="M1082.485,145.349a3.3,3.3,0,0,0,0,.788,2.268,2.268,0,0,0,2,2.349,2.6,2.6,0,0,0,1.834-.909l.189.191a3.185,3.185,0,0,1-2.512,1.534c-2.16,0-2.594-2.092-2.594-2.96,0-2.662,1.792-3.45,2.742-3.45a2.157,2.157,0,0,1,2.3,2.132,1.561,1.561,0,0,1-.013.245l-.123.081Zm2.4-.435h0c.339,0,.379-.177.379-.339a1.151,1.151,0,0,0-1.182-1.25c-.827,0-1.4.61-1.561,1.589Z" transform="translate(-1025.991 -135.569)" fill="#211e1f"/>
        <path id="Path_8781" data-name="Path 8781" d="M1185.821,148.744h.367c.379,0,.651,0,.651-.449v-3.816c0-.421-.5-.5-.706-.611v-.2c.991-.422,1.535-.775,1.658-.775.081,0,.12.041.12.177v1.222h.029c.339-.529.91-1.4,1.737-1.4a.74.74,0,0,1,.774.72.659.659,0,0,1-.637.694c-.423,0-.423-.327-.9-.327a1.146,1.146,0,0,0-.991,1.128v3.191c0,.449.271.449.652.449h.76v.353c-.747-.014-1.315-.027-1.9-.027-.556,0-1.127.013-1.616.027v-.353Z" transform="translate(-1125.064 -135.569)" fill="#211e1f"/>
        <path id="Path_8782" data-name="Path 8782" d="M1283.324,147.21a1.789,1.789,0,0,0,1.711,1.658.959.959,0,0,0,1.1-.964c0-1.6-2.959-1.087-2.959-3.273a1.867,1.867,0,0,1,2.1-1.739,3.565,3.565,0,0,1,1.547.4l.1,1.384h-.313a1.394,1.394,0,0,0-1.48-1.344.954.954,0,0,0-1.059.9c0,1.59,3.15,1.1,3.15,3.232,0,.9-.72,1.848-2.336,1.848a3.577,3.577,0,0,1-1.656-.461l-.15-1.562.245-.069Z" transform="translate(-1217.338 -135.57)" fill="#211e1f"/>
        <path id="Path_8783" data-name="Path 8783" d="M1446.095,77.683h-.339a2.583,2.583,0,0,0-2.906-2.227c-1.563,0-3.83,1.045-3.83,4.3,0,2.745,1.957,4.714,4.047,4.714a2.761,2.761,0,0,0,2.73-2.35l.312.081-.312,1.983a7.608,7.608,0,0,1-3,.72,4.833,4.833,0,0,1-5.186-5.107,4.993,4.993,0,0,1,5.146-4.781,9.8,9.8,0,0,1,3.2.721l.135,1.941Z" transform="translate(-1363.951 -71.176)" fill="#211e1f"/>
        <path id="Path_8784" data-name="Path 8784" d="M1612.78,71.534h.257c.381,0,.653,0,.653-.449V63.521c0-.883-.2-.911-.72-1.06v-.217a8.641,8.641,0,0,0,1.4-.585,1.421,1.421,0,0,1,.3-.15c.083,0,.11.082.11.191v9.383c0,.449.3.449.679.449h.229v.353c-.46,0-.935-.027-1.425-.027s-.977.013-1.48.027v-.353Z" transform="translate(-1530.146 -58.358)" fill="#211e1f"/>
        <path id="Path_8785" data-name="Path 8785" d="M1675.32,152.133c0,.245.149.259.379.259.163,0,.366-.013.544-.013v.286a13.867,13.867,0,0,0-1.956.42l-.068-.041v-1.1a3.664,3.664,0,0,1-2.4,1.14,1.464,1.464,0,0,1-1.494-1.615v-3.478c0-.353-.054-.693-.813-.76v-.258c.489-.013,1.573-.095,1.751-.095.151,0,.151.095.151.394v3.5c0,.408,0,1.576,1.18,1.576a3.032,3.032,0,0,0,1.642-.827v-3.655c0-.271-.651-.42-1.139-.556v-.244c1.22-.082,1.982-.19,2.117-.19.11,0,.11.095.11.245v5.01Z" transform="translate(-1583.968 -139.352)" fill="#211e1f"/>
        <path id="Path_8786" data-name="Path 8786" d="M1802.226,66.658a3.429,3.429,0,0,1,2.023-.978,2.644,2.644,0,0,1,2.525,2.852,3.429,3.429,0,0,1-3.246,3.558,4.009,4.009,0,0,1-1.887-.475l-.407.312-.284-.149a16.077,16.077,0,0,0,.19-2.417v-5.84c0-.883-.2-.91-.72-1.06v-.217a8.58,8.58,0,0,0,1.4-.585,1.4,1.4,0,0,1,.3-.15c.081,0,.108.082.108.191v4.957h0Zm0,3.694h0a1.461,1.461,0,0,0,1.4,1.386c1.453,0,2.064-1.427,2.064-2.636a2.59,2.59,0,0,0-2.172-2.688,2.088,2.088,0,0,0-1.29.639v3.3Z" transform="translate(-1708.172 -58.358)" fill="#211e1f"/>
        <path id="Path_8787" data-name="Path 8787" d="M692.3,326.756h.1c.265,0,.546-.036.546-.421v-3.871c0-.385-.281-.422-.546-.422h-.1v-.222c.289,0,.732.029,1.095.029s.812-.029,1.159-.029v.222h-.1c-.265,0-.546.036-.546.422v3.871c0,.385.281.421.546.421h.1v.223c-.355,0-.8-.029-1.167-.029s-.8.029-1.087.029v-.223Z" transform="translate(-656.828 -305.331)" fill="#211e1f"/>
        <path id="Path_8788" data-name="Path 8788" d="M693.97,326.4c-.357,0-.8-.03-1.168-.03s-.8.03-1.086.03h-.032v-.286h.135c.268-.006.512-.028.514-.389v-3.872c0-.361-.246-.385-.514-.39h-.135v-.286h.032c.291,0,.733.029,1.094.029s.81-.029,1.159-.029H694v.286h-.136c-.268.005-.513.029-.515.39v3.872c0,.361.247.383.515.389H694v.286Zm-.032-.063h0v-.158h-.072c-.264,0-.578-.046-.58-.454v-3.872c0-.408.316-.454.58-.454h.072v-.157c-.341,0-.769.029-1.128.029s-.776-.027-1.062-.029v.157h.071c.263,0,.578.046.578.454v3.872c0,.408-.315.454-.578.454h-.071v.158c.286,0,.7-.03,1.053-.03s.788.028,1.136.03Z" transform="translate(-656.244 -304.724)" fill="#211e1f"/>
        <path id="Path_8789" data-name="Path 8789" d="M746.558,325.521l.015-.014v-2.771a.609.609,0,0,0-.643-.695h-.163v-.222c.348,0,.688.029,1.034.029.3,0,.607-.029.909-.029v.222H747.6c-.311,0-.658.059-.658.938v3.363a4.892,4.892,0,0,0,.044.746H746.7l-3.8-4.242v3.045c0,.643.125.864.694.864h.125v.223c-.317,0-.634-.029-.953-.029s-.672.029-1,.029v-.223h.1c.51,0,.665-.346.665-.937V322.7a.663.663,0,0,0-.672-.664h-.1v-.222c.281,0,.569.029.849.029.222,0,.437-.029.658-.029l3.289,3.7Z" transform="translate(-703.757 -305.33)" fill="#211e1f"/>
        <path id="Path_8790" data-name="Path 8790" d="M746.372,326.534l-.3-.011-3.75-4.179V325.3c.009.643.107.825.663.832h.158v.286h-.033c-.32,0-.638-.03-.953-.03-.331,0-.67.03-1.005.03h-.032v-.286h.136c.488,0,.628-.316.633-.905v-3.112a.633.633,0,0,0-.64-.633h-.129V321.2h.032c.282,0,.572.028.849.028.22,0,.434-.028.683-.017l3.247,3.656V322.15c0-.588-.4-.659-.611-.664h-.2V321.2h.033c.349,0,.689.028,1.034.028.3,0,.6-.028.909-.028h.032v.285h-.142c-.3.009-.618.035-.627.907v3.363a4.839,4.839,0,0,0,.044.74l.007.038h-.038Zm-.281-.065h.244a4.934,4.934,0,0,1-.039-.713v-3.363c0-.887.371-.971.69-.971h.078v-.157c-.291,0-.583.029-.877.029-.338,0-.667-.027-1-.029v.157h.131a.647.647,0,0,1,.675.728l-.01,2.792-.015.015-.025.023-3.286-3.716c-.219,0-.434.029-.658.029-.271,0-.548-.027-.816-.029l0,.157h.066a.7.7,0,0,1,.7.7v3.112c0,.591-.164.969-.7.971l-.071,0v.159c.32,0,.649-.03.972-.03s.615.027.921.03V326.2h-.093c-.582,0-.726-.255-.727-.9v-3.128l3.837,4.292Zm-.147-1.535h0l.024-.022Zm-.017-.014h0v0l-.006-.005Z" transform="translate(-703.144 -304.744)" fill="#211e1f"/>
        <path id="Path_8791" data-name="Path 8791" d="M862.627,317.939c-.555,0-.576.133-.687.672h-.222c.029-.206.066-.413.089-.628a4.393,4.393,0,0,0,.044-.627h.178c.059.222.244.214.444.214h3.812c.2,0,.384-.007.4-.229l.176.03c-.029.2-.058.4-.081.6s-.013.4-.013.6l-.222.083c-.015-.273-.052-.711-.547-.711h-1.212v3.932c0,.57.259.635.612.635h.141v.223c-.288,0-.806-.029-1.2-.029-.443,0-.961.029-1.25.029v-.223h.141c.407,0,.613-.036.613-.62v-3.947Z" transform="translate(-817.567 -301.081)" fill="#211e1f"/>
        <path id="Path_8792" data-name="Path 8792" d="M864.858,322.066c-.291,0-.808-.03-1.205-.03-.443,0-.96.03-1.25.03h-.031v-.286h.172c.407-.01.571-.015.581-.588v-3.915h-1.18v-.065h1.244v3.98c0,.593-.239.653-.645.653h-.109V322c.292,0,.789-.028,1.217-.028.385,0,.879.027,1.171.028v-.156h-.108c-.357,0-.645-.088-.645-.669v-3.965h1.244c.5,0,.561.424.577.7l.159-.059c0-.193,0-.386.014-.581s.049-.379.076-.567l-.113-.019c-.034.215-.242.226-.428.224h-3.849c-.174,0-.364-.008-.43-.215H861.2a4.369,4.369,0,0,1-.044.6c-.022.2-.055.4-.083.593h.158c.1-.515.161-.682.712-.674v.065c-.546.01-.535.1-.655.648l-.005.025H861l0-.038c.03-.207.067-.413.089-.628a4.162,4.162,0,0,0,.045-.622v-.032h.234l.005.023c.051.186.188.188.376.191H865.6c.206,0,.356-.006.368-.2l0-.035.033.007.208.033,0,.032c-.03.2-.059.4-.08.6s-.015.4-.015.6v.023l-.021.008-.262.1,0-.043c-.02-.278-.049-.679-.516-.679h-1.18v3.9c.007.557.228.6.58.6h.173v.286Z" transform="translate(-816.885 -300.387)" fill="#211e1f"/>
        <path id="Path_8793" data-name="Path 8793" d="M966.691,326.756h.1c.266,0,.547-.036.547-.421v-3.871c0-.385-.281-.422-.547-.422h-.1v-.222c.45,0,1.219.029,1.839.029s1.389-.029,1.891-.029c-.012.317-.006.806.016,1.13l-.223.059c-.035-.48-.124-.864-.9-.864h-1.026v1.935h.878c.443,0,.54-.251.583-.651h.221q-.021.434-.022.865c0,.281.008.562.022.842l-.221.044c-.044-.443-.066-.731-.576-.731h-.885v1.721c0,.481.427.481.9.481.887,0,1.278-.06,1.5-.9l.207.051c-.1.392-.185.783-.251,1.176-.474,0-1.323-.029-1.988-.029s-1.545.029-1.966.029v-.223Z" transform="translate(-917.161 -305.331)" fill="#211e1f"/>
        <path id="Path_8794" data-name="Path 8794" d="M970.063,326.422c-.474,0-1.324-.03-1.987-.03s-1.544.03-1.965.03h-.031v-.286h.135c.268,0,.511-.028.514-.389v-3.871c0-.361-.246-.385-.514-.39h-.135V321.2h.031c.451,0,1.219.028,1.839.028s1.388-.028,1.891-.028h.033l0,.033c-.005.111-.007.242-.007.382,0,.256.007.535.022.745v.027l-.025.007-.26.068v-.038c-.044-.48-.108-.827-.868-.835h-1v1.871h.849c.425,0,.5-.222.552-.62l0-.029h.283v.033c-.014.288-.024.576-.024.864s.009.56.024.841v.026l-.027.006-.257.051,0-.035c-.051-.451-.054-.7-.545-.7h-.854v1.69c0,.449.388.446.87.449.889-.005,1.246-.048,1.469-.878l.007-.03.031.006.237.061-.007.031c-.1.391-.184.782-.25,1.173l-.006.026Zm-.027-.065h0c.064-.373.148-.747.239-1.119l-.146-.037c-.221.827-.65.9-1.522.9-.465,0-.932,0-.934-.513v-1.753h.918c.516-.006.569.306.605.727l.16-.033c-.014-.272-.021-.545-.021-.816s.007-.555.021-.833h-.16c-.041.385-.161.655-.612.65h-.911v-2h1.06c.769-.005.9.391.929.856l.159-.043c-.013-.209-.022-.476-.022-.723,0-.127,0-.246.007-.35-.5,0-1.25.029-1.858.029s-1.355-.027-1.807-.029v.157h.072c.263,0,.578.046.579.454v3.871c0,.407-.316.452-.579.454h-.072v.156c.431,0,1.285-.028,1.934-.028s1.484.028,1.96.028Z" transform="translate(-916.58 -304.744)" fill="#211e1f"/>
        <path id="Path_8795" data-name="Path 8795" d="M1056.02,322.593c0-.539-.3-.561-.525-.561h-.133v-.222c.237,0,.694.03,1.145.03s.8-.03,1.189-.03c.93,0,1.759.252,1.759,1.3a1.4,1.4,0,0,1-1.027,1.3l1.263,1.891a.819.819,0,0,0,.717.443v.223c-.244,0-.481-.029-.724-.029s-.466.029-.694.029a20.654,20.654,0,0,1-1.538-2.4h-.486v1.582c0,.57.265.59.6.59h.133v.223c-.422,0-.849-.029-1.271-.029-.355,0-.7.029-1.071.029v-.223h.133c.275,0,.525-.124.525-.4v-3.755Zm.946,1.714h.361c.739,0,1.137-.281,1.137-1.153a1.009,1.009,0,0,0-1.079-1.079,3.75,3.75,0,0,0-.419.03v2.2Z" transform="translate(-1001.289 -305.322)" fill="#211e1f"/>
        <path id="Path_8796" data-name="Path 8796" d="M1059.809,326.405c-.247,0-.483-.03-.725-.03-.225,0-.461.03-.719.017a20.626,20.626,0,0,1-1.53-2.381h-.437v1.548c.008.556.231.551.573.56h.166v.286h-.033c-.422,0-.851-.03-1.271-.03-.353,0-.7.03-1.07.03h-.032v-.286h.165c.266,0,.491-.117.492-.366V322c-.006-.525-.262-.522-.492-.529h-.165v-.286h.032c.239,0,.7.029,1.145.029s.8-.029,1.19-.029c.931,0,1.789.259,1.791,1.332a1.416,1.416,0,0,1-1.011,1.317l1.242,1.859a.792.792,0,0,0,.695.429l.027,0v.282h-.032Zm-3.443-2.458h.505l.009.016a23.014,23.014,0,0,0,1.511,2.379c.225,0,.463-.03.693-.03s.464.026.694.029v-.162a.845.845,0,0,1-.711-.453l-1.285-1.924.036-.015a1.36,1.36,0,0,0,1.006-1.272c0-1.025-.8-1.263-1.726-1.267-.39,0-.745.029-1.19.029s-.872-.027-1.114-.029v.157h.1c.229,0,.556.038.556.594v3.755c0,.3-.278.432-.556.432h-.1v.156c.356,0,.692-.029,1.039-.029.413,0,.83.028,1.239.029v-.156h-.1c-.337,0-.637-.043-.637-.626v-1.613h.032Zm0-.2h-.032v-2.263l.028,0a3.621,3.621,0,0,1,.424-.029,1.044,1.044,0,0,1,1.112,1.111c0,.882-.425,1.182-1.17,1.183h-.362Zm.362-.063h0c.732-.006,1.1-.26,1.107-1.119a.979.979,0,0,0-1.049-1.049,3.133,3.133,0,0,0-.388.027v2.141Z" transform="translate(-1000.689 -304.727)" fill="#211e1f"/>
        <path id="Path_8797" data-name="Path 8797" d="M1162.968,325.521l.013-.014v-2.771a.609.609,0,0,0-.642-.695h-.162v-.222c.347,0,.686.029,1.034.029.3,0,.605-.029.91-.029v.222h-.111c-.31,0-.658.059-.658.938v3.363a4.893,4.893,0,0,0,.044.746h-.28l-3.8-4.242v3.045c0,.643.125.864.694.864h.126v.223c-.317,0-.635-.029-.952-.029-.334,0-.673.029-1.005.029v-.223h.1c.51,0,.666-.346.666-.937V322.7a.662.662,0,0,0-.672-.664h-.1v-.222c.28,0,.569.029.849.029.22,0,.435-.029.657-.029l3.288,3.7Z" transform="translate(-1098.832 -305.33)" fill="#211e1f"/>
        <path id="Path_8798" data-name="Path 8798" d="M1162.776,326.514l-.3-.01-3.75-4.18v2.961c.009.643.106.825.664.833h.156v.286h-.032c-.319,0-.636-.03-.953-.03s-.671.03-1,.03h-.033v-.286h.136c.488,0,.628-.316.632-.907V322.1a.631.631,0,0,0-.638-.633h-.13v-.286h.033c.282,0,.571.029.849.029.217,0,.431-.029.679-.019l3.248,3.657V322.13c0-.587-.4-.66-.61-.663h-.2v-.286h.032c.349,0,.69.029,1.035.029.3,0,.6-.029.908-.029h.032v.286h-.142c-.3.008-.619.035-.627.907v3.363a4.711,4.711,0,0,0,.044.742l0,.036Zm-.281-.065h.243a5.065,5.065,0,0,1-.04-.713v-3.363c0-.887.375-.969.691-.971h.077v-.156c-.29,0-.583.029-.876.029-.339,0-.669-.027-1-.029v.156h.131a.648.648,0,0,1,.675.728l-.01,2.793-.014.015-.023.024-3.288-3.716c-.219,0-.433.029-.657.029-.274,0-.55-.027-.819-.029v.156h.066a.7.7,0,0,1,.7.7v3.111c0,.593-.167.971-.7.973h-.072v.156c.319,0,.649-.028.973-.028s.617.027.922.028v-.156h-.093c-.582,0-.728-.255-.729-.9v-3.126l3.839,4.291Zm-.148-1.535h0l.022-.021Zm-.019-.014h0v0l-.006-.006Z" transform="translate(-1098.212 -304.725)" fill="#211e1f"/>
        <path id="Path_8799" data-name="Path 8799" d="M1274.873,322.487a2.953,2.953,0,0,0-.164.576c0,.222.311.258.554.258h.083v.223c-.3-.016-.6-.029-.9-.029-.266,0-.53.013-.8.029v-.223h.045a.667.667,0,0,0,.641-.481l1.184-3.391a6.27,6.27,0,0,0,.274-.917,3.764,3.764,0,0,0,.671-.317.168.168,0,0,1,.059-.015.051.051,0,0,1,.053.023c.022.058.043.126.067.184l1.359,3.865c.089.258.176.531.272.754a.47.47,0,0,0,.489.295h.044v.223c-.332-.016-.666-.029-1.019-.029s-.733.013-1.109.029v-.223h.082c.169,0,.458-.029.458-.214a2.366,2.366,0,0,0-.149-.532l-.288-.857h-1.677l-.236.769Zm1.078-3.274h-.015l-.687,2.091h1.381Z" transform="translate(-1208.396 -301.897)" fill="#211e1f"/>
        <path id="Path_8800" data-name="Path 8800" d="M1278.211,322.979c-.333-.015-.665-.03-1.017-.03s-.73.015-1.108.03l-.033,0v-.289h.114c.171,0,.425-.039.425-.181a2.335,2.335,0,0,0-.146-.522l-.281-.836h-1.63l-.229.746a3.123,3.123,0,0,0-.163.568c0,.18.279.224.524.224h.114v.289l-.033,0c-.3-.015-.6-.03-.892-.03-.265,0-.531.015-.8.03l-.034,0v-.289h.076a.633.633,0,0,0,.611-.458l1.183-3.391a8.537,8.537,0,0,0,.294-.937,3.754,3.754,0,0,0,.671-.317.206.206,0,0,1,.071-.017.091.091,0,0,1,.081.043c.021.061.044.127.067.186l1.361,3.865c.087.259.175.532.272.751a.433.433,0,0,0,.459.276h.075v.289l-.034,0Zm-2.094-.066h0c.366-.013.724-.027,1.077-.027s.665.014.986.027v-.154h-.01a.5.5,0,0,1-.519-.316c-.1-.224-.186-.5-.273-.757l-1.36-3.864c-.022-.059-.044-.126-.063-.178-.006-.007,0-.007-.011-.007h-.013a.155.155,0,0,0-.043.01,2.75,2.75,0,0,1-.658.3,6.131,6.131,0,0,1-.275.922l-1.182,3.392a.7.7,0,0,1-.672.5h-.012v.154c.253-.013.509-.027.766-.027.286,0,.577.014.859.027v-.154h-.048c-.24,0-.577-.03-.586-.291a2.918,2.918,0,0,1,.163-.586l.032.01-.032-.011.243-.79h1.723l.3.878a2.233,2.233,0,0,1,.15.543c-.01.227-.322.243-.49.247h-.049v.154Zm-1.51-2.173h0l.708-2.156h.04v.032l-.008,0,.008,0v-.032h.022l.7,2.156Zm.089-.064h1.293l-.643-1.98Zm.627-2.05h0l.017-.006Z" transform="translate(-1207.797 -301.3)" fill="#211e1f"/>
        <path id="Path_8801" data-name="Path 8801" d="M1363.811,317.939c-.554,0-.577.133-.688.672h-.222c.029-.206.067-.413.09-.628a4.385,4.385,0,0,0,.043-.627h.178c.059.222.245.214.443.214h3.813c.2,0,.383-.007.4-.229l.177.03c-.028.2-.057.4-.08.6s-.016.4-.016.6l-.221.083c-.014-.273-.051-.711-.546-.711h-1.212v3.932c0,.57.259.635.613.635h.14v.223c-.288,0-.8-.029-1.2-.029-.443,0-.961.029-1.249.029v-.223h.14c.407,0,.614-.036.614-.62v-3.947Z" transform="translate(-1293.07 -301.081)" fill="#211e1f"/>
        <path id="Path_8802" data-name="Path 8802" d="M1366.028,322.067c-.29,0-.807-.03-1.2-.03-.442,0-.959.03-1.249.03h-.033v-.286h.173c.407-.01.571-.015.581-.588v-3.915h-1.178v-.065h1.243v3.98c0,.593-.239.651-.645.653h-.109V322c.292,0,.788-.03,1.217-.03.386,0,.88.027,1.172.03v-.158h-.109c-.355,0-.643-.087-.644-.668v-3.965h1.244c.5,0,.561.424.575.7l.161-.059c0-.193,0-.386.015-.579s.048-.38.075-.568l-.112-.019c-.034.215-.242.227-.426.224h-3.851c-.174,0-.363-.008-.43-.216h-.121a4.4,4.4,0,0,1-.045.6c-.019.2-.056.4-.083.593h.158c.1-.515.162-.682.714-.674v.065c-.548.009-.535.1-.656.648l-.006.025h-.285l0-.037c.031-.208.068-.415.089-.628a4.279,4.279,0,0,0,.045-.624v-.032h.234l.006.023c.052.186.186.188.375.191h3.851c.2,0,.353-.007.366-.2l0-.035.035.007.209.033-.005.032c-.03.2-.058.4-.081.6s-.015.4-.015.6v.023l-.021.008-.262.1v-.043c-.019-.278-.048-.679-.515-.679h-1.18v3.9c.008.557.228.6.58.6h.173v.286Z" transform="translate(-1292.377 -300.388)" fill="#211e1f"/>
        <path id="Path_8803" data-name="Path 8803" d="M1468.588,326.756h.1c.267,0,.546-.036.546-.421v-3.871c0-.385-.279-.422-.546-.422h-.1v-.222c.289,0,.731.029,1.092.029s.814-.029,1.161-.029v.222h-.1c-.266,0-.548.036-.548.422v3.871c0,.385.282.421.548.421h.1v.223c-.355,0-.8-.029-1.167-.029s-.8.029-1.087.029Z" transform="translate(-1393.342 -305.331)" fill="#211e1f"/>
        <path id="Path_8804" data-name="Path 8804" d="M1470.25,326.422c-.357,0-.8-.03-1.168-.03s-.8.03-1.086.03h-.032v-.286h.136c.267,0,.512-.027.513-.389v-3.871c0-.361-.246-.385-.513-.39h-.136V321.2H1468c.289,0,.732.028,1.092.028s.812-.028,1.161-.028h.031v.285h-.135c-.27.005-.512.03-.516.39v3.871c0,.362.246.385.516.389h.135v.286Zm-.033-.065h0V326.2h-.07c-.265,0-.578-.047-.578-.454v-3.871c0-.408.314-.454.578-.454h.07v-.157c-.341,0-.768.029-1.128.029s-.774-.027-1.06-.029v.157h.071c.263,0,.578.046.578.454v3.871c0,.407-.316.454-.578.454h-.071v.156c.285,0,.7-.028,1.054-.028s.786.027,1.134.028Z" transform="translate(-1392.75 -304.744)" fill="#211e1f"/>
        <path id="Path_8805" data-name="Path 8805" d="M1519.624,319.66a2.592,2.592,0,0,1,2.83,2.55,2.71,2.71,0,0,1-2.792,2.83,2.61,2.61,0,0,1-2.764-2.653,2.687,2.687,0,0,1,2.725-2.727Zm.112,5.055h0c1.434,0,1.683-1.265,1.683-2.342s-.582-2.388-1.809-2.388c-1.293,0-1.677,1.153-1.677,2.142,0,1.323.606,2.587,1.8,2.587Z" transform="translate(-1439.178 -303.282)" fill="#211e1f"/>
        <path id="Path_8806" data-name="Path 8806" d="M1516.252,321.789a2.725,2.725,0,0,1,2.758-2.759v.063a2.658,2.658,0,0,0-2.7,2.7,2.581,2.581,0,0,0,2.734,2.62,2.679,2.679,0,0,0,2.762-2.8,2.562,2.562,0,0,0-2.8-2.517v-.063a2.627,2.627,0,0,1,2.863,2.581,2.747,2.747,0,0,1-2.824,2.863,2.649,2.649,0,0,1-2.8-2.684h0Zm1.035-.26h0c0-.994.39-2.176,1.709-2.176,1.254,0,1.84,1.335,1.842,2.421s-.256,2.373-1.716,2.373v-.063c1.4,0,1.648-1.233,1.652-2.31s-.577-2.354-1.778-2.355c-1.268,0-1.643,1.126-1.645,2.11,0,1.316.6,2.553,1.771,2.556v.063c-1.227,0-1.833-1.288-1.835-2.618Z" transform="translate(-1438.564 -302.684)" fill="#211e1f"/>
        <path id="Path_8807" data-name="Path 8807" d="M1633.7,325.521l.015-.014v-2.771a.61.61,0,0,0-.644-.695h-.16v-.222c.346,0,.686.029,1.032.029.3,0,.607-.029.91-.029v.222h-.112c-.31,0-.657.059-.657.938v3.363a4.768,4.768,0,0,0,.045.746h-.28l-3.806-4.242v3.045c0,.643.125.864.694.864h.126v.223c-.318,0-.635-.029-.953-.029s-.673.029-1.006.029v-.223h.1c.511,0,.664-.346.664-.937V322.7a.661.661,0,0,0-.672-.664h-.1v-.222c.281,0,.569.029.85.029.222,0,.436-.029.658-.029l3.288,3.7Z" transform="translate(-1545.448 -305.33)" fill="#211e1f"/>
        <path id="Path_8808" data-name="Path 8808" d="M1633.553,326.533l-.306-.011-3.749-4.179V325.3c.008.643.106.824.661.831h.16v.287h-.032c-.32,0-.637-.03-.953-.03-.331,0-.671.03-1.006.03h-.031v-.287h.135c.487,0,.627-.315.633-.9v-3.113a.632.632,0,0,0-.641-.633h-.128V321.2h.031c.283,0,.571.028.85.028.219,0,.432-.028.683-.017l3.246,3.656V322.15c0-.588-.4-.659-.612-.664h-.194V321.2h.033c.348,0,.689.028,1.032.028.3,0,.6-.028.911-.028h.032v.285h-.144c-.3.009-.618.036-.624.907v3.363a4.892,4.892,0,0,0,.042.742l.006.036h-.035Zm-.281-.065h.242a5.09,5.09,0,0,1-.038-.713v-3.363c0-.888.373-.969.689-.971h.08v-.156c-.292,0-.584.029-.879.029-.336,0-.667-.027-1-.029v.156h.13a.648.648,0,0,1,.675.729l-.008,2.792-.014.015-.024.023-3.288-3.716c-.218,0-.434.029-.658.029-.272,0-.549-.027-.818-.029v.156h.065a.7.7,0,0,1,.7.7v3.113c0,.591-.165.969-.7.971h-.073v.156c.321,0,.65-.028.974-.028.308,0,.614.027.921.028V326.2h-.1c-.58,0-.725-.255-.725-.9v-3.128l3.838,4.292Zm-.149-1.535h0l.023-.021Zm-.017-.014h0v0l-.006-.006Z" transform="translate(-1544.869 -304.744)" fill="#211e1f"/>
        <path id="Path_8809" data-name="Path 8809" d="M1745.649,322.487a3.107,3.107,0,0,0-.162.576c0,.222.311.258.553.258h.083v.223c-.3-.016-.6-.029-.895-.029-.267,0-.532.013-.8.029v-.223h.042a.669.669,0,0,0,.644-.481l1.184-3.391a6.113,6.113,0,0,0,.272-.917,3.812,3.812,0,0,0,.674-.317.158.158,0,0,1,.058-.015c.022,0,.036,0,.051.023.022.058.046.126.068.184l1.359,3.865c.089.258.177.531.274.754a.468.468,0,0,0,.487.295h.045v.223c-.333-.016-.666-.029-1.021-.029s-.731.013-1.108.029v-.223h.082c.168,0,.458-.029.458-.214a2.379,2.379,0,0,0-.149-.532l-.287-.857h-1.677l-.237.769Zm1.08-3.274h-.015l-.688,2.091h1.383Z" transform="translate(-1655.053 -301.897)" fill="#211e1f"/>
        <path id="Path_8810" data-name="Path 8810" d="M1748.987,323c-.333-.013-.665-.03-1.018-.03s-.73.016-1.107.03l-.033,0v-.288h.112c.172,0,.427-.04.427-.182a2.368,2.368,0,0,0-.148-.522l-.281-.836h-1.631l-.229.746a3.1,3.1,0,0,0-.16.567c0,.181.277.226.521.226h.113V323l-.033,0c-.3-.013-.6-.03-.892-.03-.265,0-.53.016-.8.03l-.032,0v-.288h.074a.639.639,0,0,0,.614-.459l1.182-3.391a9.666,9.666,0,0,0,.293-.936,3.926,3.926,0,0,0,.672-.318.193.193,0,0,1,.07-.015.083.083,0,0,1,.081.043c.022.058.044.125.068.185l1.359,3.865c.088.259.177.532.273.752a.436.436,0,0,0,.457.275h.077V323l-.034,0Zm-2.094-.065h0c.365-.014.725-.028,1.076-.028s.666.014.988.027v-.154h-.012a.5.5,0,0,1-.516-.316c-.1-.224-.185-.5-.274-.756l-1.36-3.865c-.022-.059-.045-.126-.062-.176-.006-.009-.005-.009-.011-.009h-.014a.141.141,0,0,0-.042.01,2.831,2.831,0,0,1-.659.3,6.282,6.282,0,0,1-.275.922l-1.183,3.392a.7.7,0,0,1-.673.5h-.011v.154c.254-.013.508-.027.766-.027.286,0,.578.014.862.027v-.154h-.05c-.24,0-.577-.029-.586-.292a3.084,3.084,0,0,1,.165-.585l.03.01-.03-.011.243-.79h1.723l.3.878a2.294,2.294,0,0,1,.149.543c-.011.227-.321.243-.49.247h-.049v.155Zm-1.51-2.174h0l.708-2.155h.038v.032l-.008,0,.008,0V318.6h.023l.7,2.155Zm.089-.064h1.292l-.643-1.979-.65,1.979Zm.628-2.05h0l.015-.006Z" transform="translate(-1654.454 -301.32)" fill="#211e1f"/>
        <path id="Path_8811" data-name="Path 8811" d="M1851.716,326.254c0,.3.2.384.442.414a5.367,5.367,0,0,0,.977-.015,1.057,1.057,0,0,0,.708-.4,1.676,1.676,0,0,0,.229-.532h.214c-.081.421-.184.836-.274,1.257-.649,0-1.3-.029-1.95-.029s-1.3.029-1.951.029v-.223h.1c.267,0,.557-.036.557-.494v-3.8c0-.385-.289-.422-.557-.422h-.1v-.222c.391,0,.775.029,1.166.029s.747-.029,1.124-.029v.222h-.186c-.28,0-.5.008-.5.4v3.814Z" transform="translate(-1755.318 -305.331)" fill="#211e1f"/>
        <path id="Path_8812" data-name="Path 8812" d="M1853.4,326.423c-.651,0-1.3-.03-1.949-.03s-1.3.03-1.952.03h-.031v-.286h.134c.268-.006.521-.025.524-.463v-3.8c0-.359-.255-.384-.524-.389h-.134V321.2h.031c.393,0,.778.028,1.168.028.375,0,.744-.028,1.124-.028h.03v.285h-.216c-.286.008-.465-.005-.47.367v3.814c0,.275.182.349.413.382.131.009.267.015.41.015a5.241,5.241,0,0,0,.559-.029,1.028,1.028,0,0,0,.688-.385,1.652,1.652,0,0,0,.223-.522l.007-.025h.278l-.007.039c-.083.423-.185.836-.275,1.256l-.006.025h-.025Zm-.027-.065h0c.086-.4.182-.793.262-1.192h-.152a1.692,1.692,0,0,1-.228.521,1.094,1.094,0,0,1-.732.411,5.56,5.56,0,0,1-.567.03c-.143,0-.282-.007-.415-.016-.24-.027-.474-.129-.473-.445v-3.814c0-.41.26-.431.535-.431h.153v-.157c-.364,0-.723.029-1.091.029s-.757-.027-1.136-.029v.157h.071c.264,0,.587.046.587.453v3.8c0,.478-.321.528-.587.528h-.071v.156c.639,0,1.278-.028,1.92-.028s1.284.028,1.923.028Z" transform="translate(-1754.71 -304.745)" fill="#211e1f"/>
        <path id="Path_8813" data-name="Path 8813" d="M1915.408,317.72a.778.778,0,1,1-.778.781A.765.765,0,0,1,1915.408,317.72Zm0,1.412h0a.633.633,0,1,0-.618-.631A.627.627,0,0,0,1915.408,319.132Zm-.387-.221h0v-.038c.1-.013.113-.01.113-.07v-.576c0-.081-.009-.109-.11-.1v-.039h.4c.137,0,.263.065.263.206a.244.244,0,0,1-.184.235l.128.178a.793.793,0,0,0,.172.183v.025h-.152c-.073,0-.136-.153-.28-.359h-.086v.259c0,.051.018.048.114.061v.038h-.376Zm.262-.41h.092c.1,0,.147-.076.147-.2a.146.146,0,0,0-.153-.168h-.087Z" transform="translate(-1816.531 -301.441)" fill="#211e1f"/>
        <path id="Path_8814" data-name="Path 8814" d="M19.1,25.823c7.058.034,13.5-5.756,13.5-12.8C32.6,5.321,26.153,0,19.1,0H13.021A12.736,12.736,0,0,0,0,13.024a12.937,12.937,0,0,0,13.021,12.8Z" transform="translate(0 0)" fill="#0079be" stroke="#fff" stroke-width="1"/>
        <path id="Path_8815" data-name="Path 8815" d="M35.888,20.83A11.821,11.821,0,1,0,47.706,32.651,11.821,11.821,0,0,0,35.888,20.83ZM28.4,32.651h0a7.5,7.5,0,0,1,4.809-6.992V39.642A7.5,7.5,0,0,1,28.4,32.651Zm10.171,6.994h0V25.659a7.488,7.488,0,0,1,0,13.987Z" transform="translate(-22.838 -19.763)" fill="#fff"/>
        <path id="Path_8816" data-name="Path 8816" d="M693.849,80.518c0-1.222-.637-1.141-1.248-1.154v-.353c.529.026,1.072.026,1.6.026.57,0,1.344-.026,2.35-.026,3.516,0,5.431,2.349,5.431,4.754,0,1.345-.787,4.726-5.594,4.726-.692,0-1.331-.027-1.969-.027-.611,0-1.209.013-1.819.027v-.353c.814-.082,1.209-.109,1.248-1.033V80.518Zm1.331,6.37h0c0,1.046.747,1.168,1.413,1.168,2.934,0,3.9-2.214,3.9-4.238a4.081,4.081,0,0,0-4.25-4.372c-.557,0-.814.04-1.06.054v7.388Z" transform="translate(-657.114 -74.963)" fill="#211e1f"/>
        <path id="Path_8817" data-name="Path 8817" d="M885.022,85.357h.257c.38,0,.652,0,.652-.449v-3.68c0-.6-.2-.68-.706-.95v-.218c.638-.192,1.4-.448,1.453-.489a.483.483,0,0,1,.245-.069c.067,0,.1.082.1.191v5.214c0,.449.3.449.679.449h.231v.353c-.462,0-.938-.027-1.425-.027s-.978.013-1.48.027v-.353Zm1.453-7.945h0a.666.666,0,0,1,0-1.332.666.666,0,0,1,.666.653A.679.679,0,0,1,886.475,77.412Z" transform="translate(-839.676 -72.182)" fill="#211e1f"/>
        <path id="Path_8818" data-name="Path 8818" d="M950.305,144.7c0-.5-.15-.637-.787-.9v-.258a18.188,18.188,0,0,0,1.792-.653c.041,0,.08.028.08.136v.883a3.982,3.982,0,0,1,2.352-1.019c1.153,0,1.56.842,1.56,1.9v3.5c0,.449.3.449.679.449h.244v.353c-.477,0-.951-.027-1.439-.027s-.979.013-1.467.027v-.353h.244c.381,0,.651,0,.651-.449V144.78c0-.775-.473-1.155-1.248-1.155a3.629,3.629,0,0,0-1.577.652V148.3c0,.449.3.449.681.449h.244v.353c-.475,0-.951-.027-1.44-.027s-.978.013-1.466.027v-.353h.245c.38,0,.651,0,.651-.449v-3.6Z" transform="translate(-900.765 -135.57)" fill="#211e1f"/>
        <path id="Path_8819" data-name="Path 8819" d="M1082.485,145.349a3.3,3.3,0,0,0,0,.788,2.268,2.268,0,0,0,2,2.349,2.6,2.6,0,0,0,1.834-.909l.189.191a3.185,3.185,0,0,1-2.512,1.534c-2.16,0-2.594-2.092-2.594-2.96,0-2.662,1.792-3.45,2.742-3.45a2.157,2.157,0,0,1,2.3,2.132,1.561,1.561,0,0,1-.013.245l-.123.081Zm2.4-.435h0c.339,0,.379-.177.379-.339a1.151,1.151,0,0,0-1.182-1.25c-.827,0-1.4.61-1.561,1.589Z" transform="translate(-1025.991 -135.569)" fill="#211e1f"/>
        <path id="Path_8820" data-name="Path 8820" d="M1185.821,148.744h.367c.379,0,.651,0,.651-.449v-3.816c0-.421-.5-.5-.706-.611v-.2c.991-.422,1.535-.775,1.658-.775.081,0,.12.041.12.177v1.222h.029c.339-.529.91-1.4,1.737-1.4a.74.74,0,0,1,.774.72.659.659,0,0,1-.637.694c-.423,0-.423-.327-.9-.327a1.146,1.146,0,0,0-.991,1.128v3.191c0,.449.271.449.652.449h.76v.353c-.747-.014-1.315-.027-1.9-.027-.556,0-1.127.013-1.616.027v-.353Z" transform="translate(-1125.064 -135.569)" fill="#211e1f"/>
        <path id="Path_8821" data-name="Path 8821" d="M1283.324,147.21a1.789,1.789,0,0,0,1.711,1.658.959.959,0,0,0,1.1-.964c0-1.6-2.959-1.087-2.959-3.273a1.867,1.867,0,0,1,2.1-1.739,3.565,3.565,0,0,1,1.547.4l.1,1.384h-.313a1.394,1.394,0,0,0-1.48-1.344.954.954,0,0,0-1.059.9c0,1.59,3.15,1.1,3.15,3.232,0,.9-.72,1.848-2.336,1.848a3.577,3.577,0,0,1-1.656-.461l-.15-1.562.245-.069Z" transform="translate(-1217.338 -135.57)" fill="#211e1f"/>
        <path id="Path_8822" data-name="Path 8822" d="M1446.095,77.683h-.339a2.583,2.583,0,0,0-2.906-2.227c-1.563,0-3.83,1.045-3.83,4.3,0,2.745,1.957,4.714,4.047,4.714a2.761,2.761,0,0,0,2.73-2.35l.312.081-.312,1.983a7.608,7.608,0,0,1-3,.72,4.833,4.833,0,0,1-5.186-5.107,4.993,4.993,0,0,1,5.146-4.781,9.8,9.8,0,0,1,3.2.721l.135,1.941Z" transform="translate(-1363.951 -71.176)" fill="#211e1f"/>
        <path id="Path_8823" data-name="Path 8823" d="M1612.78,71.534h.257c.381,0,.653,0,.653-.449V63.521c0-.883-.2-.911-.72-1.06v-.217a8.641,8.641,0,0,0,1.4-.585,1.421,1.421,0,0,1,.3-.15c.083,0,.11.082.11.191v9.383c0,.449.3.449.679.449h.229v.353c-.46,0-.935-.027-1.425-.027s-.977.013-1.48.027v-.353Z" transform="translate(-1530.146 -58.358)" fill="#211e1f"/>
        <path id="Path_8824" data-name="Path 8824" d="M1675.32,152.133c0,.245.149.259.379.259.163,0,.366-.013.544-.013v.286a13.867,13.867,0,0,0-1.956.42l-.068-.041v-1.1a3.664,3.664,0,0,1-2.4,1.14,1.464,1.464,0,0,1-1.494-1.615v-3.478c0-.353-.054-.693-.813-.76v-.258c.489-.013,1.573-.095,1.751-.095.151,0,.151.095.151.394v3.5c0,.408,0,1.576,1.18,1.576a3.032,3.032,0,0,0,1.642-.827v-3.655c0-.271-.651-.42-1.139-.556v-.244c1.22-.082,1.982-.19,2.117-.19.11,0,.11.095.11.245v5.01Z" transform="translate(-1583.968 -139.352)" fill="#211e1f"/>
        <path id="Path_8825" data-name="Path 8825" d="M1802.226,66.658a3.429,3.429,0,0,1,2.023-.978,2.644,2.644,0,0,1,2.525,2.852,3.429,3.429,0,0,1-3.246,3.558,4.009,4.009,0,0,1-1.887-.475l-.407.312-.284-.149a16.077,16.077,0,0,0,.19-2.417v-5.84c0-.883-.2-.91-.72-1.06v-.217a8.58,8.58,0,0,0,1.4-.585,1.4,1.4,0,0,1,.3-.15c.081,0,.108.082.108.191v4.957h0Zm0,3.694h0a1.461,1.461,0,0,0,1.4,1.386c1.453,0,2.064-1.427,2.064-2.636a2.59,2.59,0,0,0-2.172-2.688,2.088,2.088,0,0,0-1.29.639v3.3Z" transform="translate(-1708.172 -58.358)" fill="#211e1f"/>
        <path id="Path_8826" data-name="Path 8826" d="M692.3,326.756h.1c.265,0,.546-.036.546-.421v-3.871c0-.385-.281-.422-.546-.422h-.1v-.222c.289,0,.732.029,1.095.029s.812-.029,1.159-.029v.222h-.1c-.265,0-.546.036-.546.422v3.871c0,.385.281.421.546.421h.1v.223c-.355,0-.8-.029-1.167-.029s-.8.029-1.087.029v-.223Z" transform="translate(-656.828 -305.331)" fill="#211e1f"/>
        <path id="Path_8827" data-name="Path 8827" d="M693.97,326.4c-.357,0-.8-.03-1.168-.03s-.8.03-1.086.03h-.032v-.286h.135c.268-.006.512-.028.514-.389v-3.872c0-.361-.246-.385-.514-.39h-.135v-.286h.032c.291,0,.733.029,1.094.029s.81-.029,1.159-.029H694v.286h-.136c-.268.005-.513.029-.515.39v3.872c0,.361.247.383.515.389H694v.286Zm-.032-.063h0v-.158h-.072c-.264,0-.578-.046-.58-.454v-3.872c0-.408.316-.454.58-.454h.072v-.157c-.341,0-.769.029-1.128.029s-.776-.027-1.062-.029v.157h.071c.263,0,.578.046.578.454v3.872c0,.408-.315.454-.578.454h-.071v.158c.286,0,.7-.03,1.053-.03s.788.028,1.136.03Z" transform="translate(-656.244 -304.724)" fill="#211e1f"/>
        <path id="Path_8828" data-name="Path 8828" d="M746.558,325.521l.015-.014v-2.771a.609.609,0,0,0-.643-.695h-.163v-.222c.348,0,.688.029,1.034.029.3,0,.607-.029.909-.029v.222H747.6c-.311,0-.658.059-.658.938v3.363a4.892,4.892,0,0,0,.044.746H746.7l-3.8-4.242v3.045c0,.643.125.864.694.864h.125v.223c-.317,0-.634-.029-.953-.029s-.672.029-1,.029v-.223h.1c.51,0,.665-.346.665-.937V322.7a.663.663,0,0,0-.672-.664h-.1v-.222c.281,0,.569.029.849.029.222,0,.437-.029.658-.029l3.289,3.7Z" transform="translate(-703.757 -305.33)" fill="#211e1f"/>
        <path id="Path_8829" data-name="Path 8829" d="M746.372,326.534l-.3-.011-3.75-4.179V325.3c.009.643.107.825.663.832h.158v.286h-.033c-.32,0-.638-.03-.953-.03-.331,0-.67.03-1.005.03h-.032v-.286h.136c.488,0,.628-.316.633-.905v-3.112a.633.633,0,0,0-.64-.633h-.129V321.2h.032c.282,0,.572.028.849.028.22,0,.434-.028.683-.017l3.247,3.656V322.15c0-.588-.4-.659-.611-.664h-.2V321.2h.033c.349,0,.689.028,1.034.028.3,0,.6-.028.909-.028h.032v.285h-.142c-.3.009-.618.035-.627.907v3.363a4.839,4.839,0,0,0,.044.74l.007.038h-.038Zm-.281-.065h.244a4.934,4.934,0,0,1-.039-.713v-3.363c0-.887.371-.971.69-.971h.078v-.157c-.291,0-.583.029-.877.029-.338,0-.667-.027-1-.029v.157h.131a.647.647,0,0,1,.675.728l-.01,2.792-.015.015-.025.023-3.286-3.716c-.219,0-.434.029-.658.029-.271,0-.548-.027-.816-.029l0,.157h.066a.7.7,0,0,1,.7.7v3.112c0,.591-.164.969-.7.971l-.071,0v.159c.32,0,.649-.03.972-.03s.615.027.921.03V326.2h-.093c-.582,0-.726-.255-.727-.9v-3.128l3.837,4.292Zm-.147-1.535h0l.024-.022Zm-.017-.014h0v0l-.006-.005Z" transform="translate(-703.144 -304.744)" fill="#211e1f"/>
        <path id="Path_8830" data-name="Path 8830" d="M862.627,317.939c-.555,0-.576.133-.687.672h-.222c.029-.206.066-.413.089-.628a4.393,4.393,0,0,0,.044-.627h.178c.059.222.244.214.444.214h3.812c.2,0,.384-.007.4-.229l.176.03c-.029.2-.058.4-.081.6s-.013.4-.013.6l-.222.083c-.015-.273-.052-.711-.547-.711h-1.212v3.932c0,.57.259.635.612.635h.141v.223c-.288,0-.806-.029-1.2-.029-.443,0-.961.029-1.25.029v-.223h.141c.407,0,.613-.036.613-.62v-3.947Z" transform="translate(-817.567 -301.081)" fill="#211e1f"/>
        <path id="Path_8831" data-name="Path 8831" d="M864.858,322.066c-.291,0-.808-.03-1.205-.03-.443,0-.96.03-1.25.03h-.031v-.286h.172c.407-.01.571-.015.581-.588v-3.915h-1.18v-.065h1.244v3.98c0,.593-.239.653-.645.653h-.109V322c.292,0,.789-.028,1.217-.028.385,0,.879.027,1.171.028v-.156h-.108c-.357,0-.645-.088-.645-.669v-3.965h1.244c.5,0,.561.424.577.7l.159-.059c0-.193,0-.386.014-.581s.049-.379.076-.567l-.113-.019c-.034.215-.242.226-.428.224h-3.849c-.174,0-.364-.008-.43-.215H861.2a4.369,4.369,0,0,1-.044.6c-.022.2-.055.4-.083.593h.158c.1-.515.161-.682.712-.674v.065c-.546.01-.535.1-.655.648l-.005.025H861l0-.038c.03-.207.067-.413.089-.628a4.162,4.162,0,0,0,.045-.622v-.032h.234l.005.023c.051.186.188.188.376.191H865.6c.206,0,.356-.006.368-.2l0-.035.033.007.208.033,0,.032c-.03.2-.059.4-.08.6s-.015.4-.015.6v.023l-.021.008-.262.1,0-.043c-.02-.278-.049-.679-.516-.679h-1.18v3.9c.007.557.228.6.58.6h.173v.286Z" transform="translate(-816.885 -300.387)" fill="#211e1f"/>
        <path id="Path_8832" data-name="Path 8832" d="M966.691,326.756h.1c.266,0,.547-.036.547-.421v-3.871c0-.385-.281-.422-.547-.422h-.1v-.222c.45,0,1.219.029,1.839.029s1.389-.029,1.891-.029c-.012.317-.006.806.016,1.13l-.223.059c-.035-.48-.124-.864-.9-.864h-1.026v1.935h.878c.443,0,.54-.251.583-.651h.221q-.021.434-.022.865c0,.281.008.562.022.842l-.221.044c-.044-.443-.066-.731-.576-.731h-.885v1.721c0,.481.427.481.9.481.887,0,1.278-.06,1.5-.9l.207.051c-.1.392-.185.783-.251,1.176-.474,0-1.323-.029-1.988-.029s-1.545.029-1.966.029v-.223Z" transform="translate(-917.161 -305.331)" fill="#211e1f"/>
        <path id="Path_8833" data-name="Path 8833" d="M970.063,326.422c-.474,0-1.324-.03-1.987-.03s-1.544.03-1.965.03h-.031v-.286h.135c.268,0,.511-.028.514-.389v-3.871c0-.361-.246-.385-.514-.39h-.135V321.2h.031c.451,0,1.219.028,1.839.028s1.388-.028,1.891-.028h.033l0,.033c-.005.111-.007.242-.007.382,0,.256.007.535.022.745v.027l-.025.007-.26.068v-.038c-.044-.48-.108-.827-.868-.835h-1v1.871h.849c.425,0,.5-.222.552-.62l0-.029h.283v.033c-.014.288-.024.576-.024.864s.009.56.024.841v.026l-.027.006-.257.051,0-.035c-.051-.451-.054-.7-.545-.7h-.854v1.69c0,.449.388.446.87.449.889-.005,1.246-.048,1.469-.878l.007-.03.031.006.237.061-.007.031c-.1.391-.184.782-.25,1.173l-.006.026Zm-.027-.065h0c.064-.373.148-.747.239-1.119l-.146-.037c-.221.827-.65.9-1.522.9-.465,0-.932,0-.934-.513v-1.753h.918c.516-.006.569.306.605.727l.16-.033c-.014-.272-.021-.545-.021-.816s.007-.555.021-.833h-.16c-.041.385-.161.655-.612.65h-.911v-2h1.06c.769-.005.9.391.929.856l.159-.043c-.013-.209-.022-.476-.022-.723,0-.127,0-.246.007-.35-.5,0-1.25.029-1.858.029s-1.355-.027-1.807-.029v.157h.072c.263,0,.578.046.579.454v3.871c0,.407-.316.452-.579.454h-.072v.156c.431,0,1.285-.028,1.934-.028s1.484.028,1.96.028Z" transform="translate(-916.58 -304.744)" fill="#211e1f"/>
        <path id="Path_8834" data-name="Path 8834" d="M1056.02,322.593c0-.539-.3-.561-.525-.561h-.133v-.222c.237,0,.694.03,1.145.03s.8-.03,1.189-.03c.93,0,1.759.252,1.759,1.3a1.4,1.4,0,0,1-1.027,1.3l1.263,1.891a.819.819,0,0,0,.717.443v.223c-.244,0-.481-.029-.724-.029s-.466.029-.694.029a20.654,20.654,0,0,1-1.538-2.4h-.486v1.582c0,.57.265.59.6.59h.133v.223c-.422,0-.849-.029-1.271-.029-.355,0-.7.029-1.071.029v-.223h.133c.275,0,.525-.124.525-.4v-3.755Zm.946,1.714h.361c.739,0,1.137-.281,1.137-1.153a1.009,1.009,0,0,0-1.079-1.079,3.75,3.75,0,0,0-.419.03v2.2Z" transform="translate(-1001.289 -305.322)" fill="#211e1f"/>
        <path id="Path_8835" data-name="Path 8835" d="M1059.809,326.405c-.247,0-.483-.03-.725-.03-.225,0-.461.03-.719.017a20.626,20.626,0,0,1-1.53-2.381h-.437v1.548c.008.556.231.551.573.56h.166v.286h-.033c-.422,0-.851-.03-1.271-.03-.353,0-.7.03-1.07.03h-.032v-.286h.165c.266,0,.491-.117.492-.366V322c-.006-.525-.262-.522-.492-.529h-.165v-.286h.032c.239,0,.7.029,1.145.029s.8-.029,1.19-.029c.931,0,1.789.259,1.791,1.332a1.416,1.416,0,0,1-1.011,1.317l1.242,1.859a.792.792,0,0,0,.695.429l.027,0v.282h-.032Zm-3.443-2.458h.505l.009.016a23.014,23.014,0,0,0,1.511,2.379c.225,0,.463-.03.693-.03s.464.026.694.029v-.162a.845.845,0,0,1-.711-.453l-1.285-1.924.036-.015a1.36,1.36,0,0,0,1.006-1.272c0-1.025-.8-1.263-1.726-1.267-.39,0-.745.029-1.19.029s-.872-.027-1.114-.029v.157h.1c.229,0,.556.038.556.594v3.755c0,.3-.278.432-.556.432h-.1v.156c.356,0,.692-.029,1.039-.029.413,0,.83.028,1.239.029v-.156h-.1c-.337,0-.637-.043-.637-.626v-1.613h.032Zm0-.2h-.032v-2.263l.028,0a3.621,3.621,0,0,1,.424-.029,1.044,1.044,0,0,1,1.112,1.111c0,.882-.425,1.182-1.17,1.183h-.362Zm.362-.063h0c.732-.006,1.1-.26,1.107-1.119a.979.979,0,0,0-1.049-1.049,3.133,3.133,0,0,0-.388.027v2.141Z" transform="translate(-1000.689 -304.727)" fill="#211e1f"/>
        <path id="Path_8836" data-name="Path 8836" d="M1162.968,325.521l.013-.014v-2.771a.609.609,0,0,0-.642-.695h-.162v-.222c.347,0,.686.029,1.034.029.3,0,.605-.029.91-.029v.222h-.111c-.31,0-.658.059-.658.938v3.363a4.893,4.893,0,0,0,.044.746h-.28l-3.8-4.242v3.045c0,.643.125.864.694.864h.126v.223c-.317,0-.635-.029-.952-.029-.334,0-.673.029-1.005.029v-.223h.1c.51,0,.666-.346.666-.937V322.7a.662.662,0,0,0-.672-.664h-.1v-.222c.28,0,.569.029.849.029.22,0,.435-.029.657-.029l3.288,3.7Z" transform="translate(-1098.832 -305.33)" fill="#211e1f"/>
        <path id="Path_8837" data-name="Path 8837" d="M1162.776,326.514l-.3-.01-3.75-4.18v2.961c.009.643.106.825.664.833h.156v.286h-.032c-.319,0-.636-.03-.953-.03s-.671.03-1,.03h-.033v-.286h.136c.488,0,.628-.316.632-.907V322.1a.631.631,0,0,0-.638-.633h-.13v-.286h.033c.282,0,.571.029.849.029.217,0,.431-.029.679-.019l3.248,3.657V322.13c0-.587-.4-.66-.61-.663h-.2v-.286h.032c.349,0,.69.029,1.035.029.3,0,.6-.029.908-.029h.032v.286h-.142c-.3.008-.619.035-.627.907v3.363a4.711,4.711,0,0,0,.044.742l0,.036Zm-.281-.065h.243a5.065,5.065,0,0,1-.04-.713v-3.363c0-.887.375-.969.691-.971h.077v-.156c-.29,0-.583.029-.876.029-.339,0-.669-.027-1-.029v.156h.131a.648.648,0,0,1,.675.728l-.01,2.793-.014.015-.023.024-3.288-3.716c-.219,0-.433.029-.657.029-.274,0-.55-.027-.819-.029v.156h.066a.7.7,0,0,1,.7.7v3.111c0,.593-.167.971-.7.973h-.072v.156c.319,0,.649-.028.973-.028s.617.027.922.028v-.156h-.093c-.582,0-.728-.255-.729-.9v-3.126l3.839,4.291Zm-.148-1.535h0l.022-.021Zm-.019-.014h0v0l-.006-.006Z" transform="translate(-1098.212 -304.725)" fill="#211e1f"/>
        <path id="Path_8838" data-name="Path 8838" d="M1274.873,322.487a2.953,2.953,0,0,0-.164.576c0,.222.311.258.554.258h.083v.223c-.3-.016-.6-.029-.9-.029-.266,0-.53.013-.8.029v-.223h.045a.667.667,0,0,0,.641-.481l1.184-3.391a6.27,6.27,0,0,0,.274-.917,3.764,3.764,0,0,0,.671-.317.168.168,0,0,1,.059-.015.051.051,0,0,1,.053.023c.022.058.043.126.067.184l1.359,3.865c.089.258.176.531.272.754a.47.47,0,0,0,.489.295h.044v.223c-.332-.016-.666-.029-1.019-.029s-.733.013-1.109.029v-.223h.082c.169,0,.458-.029.458-.214a2.366,2.366,0,0,0-.149-.532l-.288-.857h-1.677l-.236.769Zm1.078-3.274h-.015l-.687,2.091h1.381Z" transform="translate(-1208.396 -301.897)" fill="#211e1f"/>
        <path id="Path_8839" data-name="Path 8839" d="M1278.211,322.979c-.333-.015-.665-.03-1.017-.03s-.73.015-1.108.03l-.033,0v-.289h.114c.171,0,.425-.039.425-.181a2.335,2.335,0,0,0-.146-.522l-.281-.836h-1.63l-.229.746a3.123,3.123,0,0,0-.163.568c0,.18.279.224.524.224h.114v.289l-.033,0c-.3-.015-.6-.03-.892-.03-.265,0-.531.015-.8.03l-.034,0v-.289h.076a.633.633,0,0,0,.611-.458l1.183-3.391a8.537,8.537,0,0,0,.294-.937,3.754,3.754,0,0,0,.671-.317.206.206,0,0,1,.071-.017.091.091,0,0,1,.081.043c.021.061.044.127.067.186l1.361,3.865c.087.259.175.532.272.751a.433.433,0,0,0,.459.276h.075v.289l-.034,0Zm-2.094-.066h0c.366-.013.724-.027,1.077-.027s.665.014.986.027v-.154h-.01a.5.5,0,0,1-.519-.316c-.1-.224-.186-.5-.273-.757l-1.36-3.864c-.022-.059-.044-.126-.063-.178-.006-.007,0-.007-.011-.007h-.013a.155.155,0,0,0-.043.01,2.75,2.75,0,0,1-.658.3,6.131,6.131,0,0,1-.275.922l-1.182,3.392a.7.7,0,0,1-.672.5h-.012v.154c.253-.013.509-.027.766-.027.286,0,.577.014.859.027v-.154h-.048c-.24,0-.577-.03-.586-.291a2.918,2.918,0,0,1,.163-.586l.032.01-.032-.011.243-.79h1.723l.3.878a2.233,2.233,0,0,1,.15.543c-.01.227-.322.243-.49.247h-.049v.154Zm-1.51-2.173h0l.708-2.156h.04v.032l-.008,0,.008,0v-.032h.022l.7,2.156Zm.089-.064h1.293l-.643-1.98Zm.627-2.05h0l.017-.006Z" transform="translate(-1207.797 -301.3)" fill="#211e1f"/>
        <path id="Path_8840" data-name="Path 8840" d="M1363.811,317.939c-.554,0-.577.133-.688.672h-.222c.029-.206.067-.413.09-.628a4.385,4.385,0,0,0,.043-.627h.178c.059.222.245.214.443.214h3.813c.2,0,.383-.007.4-.229l.177.03c-.028.2-.057.4-.08.6s-.016.4-.016.6l-.221.083c-.014-.273-.051-.711-.546-.711h-1.212v3.932c0,.57.259.635.613.635h.14v.223c-.288,0-.8-.029-1.2-.029-.443,0-.961.029-1.249.029v-.223h.14c.407,0,.614-.036.614-.62v-3.947Z" transform="translate(-1293.07 -301.081)" fill="#211e1f"/>
        <path id="Path_8841" data-name="Path 8841" d="M1366.028,322.067c-.29,0-.807-.03-1.2-.03-.442,0-.959.03-1.249.03h-.033v-.286h.173c.407-.01.571-.015.581-.588v-3.915h-1.178v-.065h1.243v3.98c0,.593-.239.651-.645.653h-.109V322c.292,0,.788-.03,1.217-.03.386,0,.88.027,1.172.03v-.158h-.109c-.355,0-.643-.087-.644-.668v-3.965h1.244c.5,0,.561.424.575.7l.161-.059c0-.193,0-.386.015-.579s.048-.38.075-.568l-.112-.019c-.034.215-.242.227-.426.224h-3.851c-.174,0-.363-.008-.43-.216h-.121a4.4,4.4,0,0,1-.045.6c-.019.2-.056.4-.083.593h.158c.1-.515.162-.682.714-.674v.065c-.548.009-.535.1-.656.648l-.006.025h-.285l0-.037c.031-.208.068-.415.089-.628a4.279,4.279,0,0,0,.045-.624v-.032h.234l.006.023c.052.186.186.188.375.191h3.851c.2,0,.353-.007.366-.2l0-.035.035.007.209.033-.005.032c-.03.2-.058.4-.081.6s-.015.4-.015.6v.023l-.021.008-.262.1v-.043c-.019-.278-.048-.679-.515-.679h-1.18v3.9c.008.557.228.6.58.6h.173v.286Z" transform="translate(-1292.377 -300.388)" fill="#211e1f"/>
        <path id="Path_8842" data-name="Path 8842" d="M1468.588,326.756h.1c.267,0,.546-.036.546-.421v-3.871c0-.385-.279-.422-.546-.422h-.1v-.222c.289,0,.731.029,1.092.029s.814-.029,1.161-.029v.222h-.1c-.266,0-.548.036-.548.422v3.871c0,.385.282.421.548.421h.1v.223c-.355,0-.8-.029-1.167-.029s-.8.029-1.087.029Z" transform="translate(-1393.342 -305.331)" fill="#211e1f"/>
        <path id="Path_8843" data-name="Path 8843" d="M1470.25,326.422c-.357,0-.8-.03-1.168-.03s-.8.03-1.086.03h-.032v-.286h.136c.267,0,.512-.027.513-.389v-3.871c0-.361-.246-.385-.513-.39h-.136V321.2H1468c.289,0,.732.028,1.092.028s.812-.028,1.161-.028h.031v.285h-.135c-.27.005-.512.03-.516.39v3.871c0,.362.246.385.516.389h.135v.286Zm-.033-.065h0V326.2h-.07c-.265,0-.578-.047-.578-.454v-3.871c0-.408.314-.454.578-.454h.07v-.157c-.341,0-.768.029-1.128.029s-.774-.027-1.06-.029v.157h.071c.263,0,.578.046.578.454v3.871c0,.407-.316.454-.578.454h-.071v.156c.285,0,.7-.028,1.054-.028s.786.027,1.134.028Z" transform="translate(-1392.75 -304.744)" fill="#211e1f"/>
        <path id="Path_8844" data-name="Path 8844" d="M1519.624,319.66a2.592,2.592,0,0,1,2.83,2.55,2.71,2.71,0,0,1-2.792,2.83,2.61,2.61,0,0,1-2.764-2.653,2.687,2.687,0,0,1,2.725-2.727Zm.112,5.055h0c1.434,0,1.683-1.265,1.683-2.342s-.582-2.388-1.809-2.388c-1.293,0-1.677,1.153-1.677,2.142,0,1.323.606,2.587,1.8,2.587Z" transform="translate(-1439.178 -303.282)" fill="#211e1f"/>
        <path id="Path_8845" data-name="Path 8845" d="M1516.252,321.789a2.725,2.725,0,0,1,2.758-2.759v.063a2.658,2.658,0,0,0-2.7,2.7,2.581,2.581,0,0,0,2.734,2.62,2.679,2.679,0,0,0,2.762-2.8,2.562,2.562,0,0,0-2.8-2.517v-.063a2.627,2.627,0,0,1,2.863,2.581,2.747,2.747,0,0,1-2.824,2.863,2.649,2.649,0,0,1-2.8-2.684h0Zm1.035-.26h0c0-.994.39-2.176,1.709-2.176,1.254,0,1.84,1.335,1.842,2.421s-.256,2.373-1.716,2.373v-.063c1.4,0,1.648-1.233,1.652-2.31s-.577-2.354-1.778-2.355c-1.268,0-1.643,1.126-1.645,2.11,0,1.316.6,2.553,1.771,2.556v.063c-1.227,0-1.833-1.288-1.835-2.618Z" transform="translate(-1438.564 -302.684)" fill="#211e1f"/>
        <path id="Path_8846" data-name="Path 8846" d="M1633.7,325.521l.015-.014v-2.771a.61.61,0,0,0-.644-.695h-.16v-.222c.346,0,.686.029,1.032.029.3,0,.607-.029.91-.029v.222h-.112c-.31,0-.657.059-.657.938v3.363a4.768,4.768,0,0,0,.045.746h-.28l-3.806-4.242v3.045c0,.643.125.864.694.864h.126v.223c-.318,0-.635-.029-.953-.029s-.673.029-1.006.029v-.223h.1c.511,0,.664-.346.664-.937V322.7a.661.661,0,0,0-.672-.664h-.1v-.222c.281,0,.569.029.85.029.222,0,.436-.029.658-.029l3.288,3.7Z" transform="translate(-1545.448 -305.33)" fill="#211e1f"/>
        <path id="Path_8847" data-name="Path 8847" d="M1633.553,326.533l-.306-.011-3.749-4.179V325.3c.008.643.106.824.661.831h.16v.287h-.032c-.32,0-.637-.03-.953-.03-.331,0-.671.03-1.006.03h-.031v-.287h.135c.487,0,.627-.315.633-.9v-3.113a.632.632,0,0,0-.641-.633h-.128V321.2h.031c.283,0,.571.028.85.028.219,0,.432-.028.683-.017l3.246,3.656V322.15c0-.588-.4-.659-.612-.664h-.194V321.2h.033c.348,0,.689.028,1.032.028.3,0,.6-.028.911-.028h.032v.285h-.144c-.3.009-.618.036-.624.907v3.363a4.892,4.892,0,0,0,.042.742l.006.036h-.035Zm-.281-.065h.242a5.09,5.09,0,0,1-.038-.713v-3.363c0-.888.373-.969.689-.971h.08v-.156c-.292,0-.584.029-.879.029-.336,0-.667-.027-1-.029v.156h.13a.648.648,0,0,1,.675.729l-.008,2.792-.014.015-.024.023-3.288-3.716c-.218,0-.434.029-.658.029-.272,0-.549-.027-.818-.029v.156h.065a.7.7,0,0,1,.7.7v3.113c0,.591-.165.969-.7.971h-.073v.156c.321,0,.65-.028.974-.028.308,0,.614.027.921.028V326.2h-.1c-.58,0-.725-.255-.725-.9v-3.128l3.838,4.292Zm-.149-1.535h0l.023-.021Zm-.017-.014h0v0l-.006-.006Z" transform="translate(-1544.869 -304.744)" fill="#211e1f"/>
        <path id="Path_8848" data-name="Path 8848" d="M1745.649,322.487a3.107,3.107,0,0,0-.162.576c0,.222.311.258.553.258h.083v.223c-.3-.016-.6-.029-.895-.029-.267,0-.532.013-.8.029v-.223h.042a.669.669,0,0,0,.644-.481l1.184-3.391a6.113,6.113,0,0,0,.272-.917,3.812,3.812,0,0,0,.674-.317.158.158,0,0,1,.058-.015c.022,0,.036,0,.051.023.022.058.046.126.068.184l1.359,3.865c.089.258.177.531.274.754a.468.468,0,0,0,.487.295h.045v.223c-.333-.016-.666-.029-1.021-.029s-.731.013-1.108.029v-.223h.082c.168,0,.458-.029.458-.214a2.379,2.379,0,0,0-.149-.532l-.287-.857h-1.677l-.237.769Zm1.08-3.274h-.015l-.688,2.091h1.383Z" transform="translate(-1655.053 -301.897)" fill="#211e1f"/>
        <path id="Path_8849" data-name="Path 8849" d="M1748.987,323c-.333-.013-.665-.03-1.018-.03s-.73.016-1.107.03l-.033,0v-.288h.112c.172,0,.427-.04.427-.182a2.368,2.368,0,0,0-.148-.522l-.281-.836h-1.631l-.229.746a3.1,3.1,0,0,0-.16.567c0,.181.277.226.521.226h.113V323l-.033,0c-.3-.013-.6-.03-.892-.03-.265,0-.53.016-.8.03l-.032,0v-.288h.074a.639.639,0,0,0,.614-.459l1.182-3.391a9.666,9.666,0,0,0,.293-.936,3.926,3.926,0,0,0,.672-.318.193.193,0,0,1,.07-.015.083.083,0,0,1,.081.043c.022.058.044.125.068.185l1.359,3.865c.088.259.177.532.273.752a.436.436,0,0,0,.457.275h.077V323l-.034,0Zm-2.094-.065h0c.365-.014.725-.028,1.076-.028s.666.014.988.027v-.154h-.012a.5.5,0,0,1-.516-.316c-.1-.224-.185-.5-.274-.756l-1.36-3.865c-.022-.059-.045-.126-.062-.176-.006-.009-.005-.009-.011-.009h-.014a.141.141,0,0,0-.042.01,2.831,2.831,0,0,1-.659.3,6.282,6.282,0,0,1-.275.922l-1.183,3.392a.7.7,0,0,1-.673.5h-.011v.154c.254-.013.508-.027.766-.027.286,0,.578.014.862.027v-.154h-.05c-.24,0-.577-.029-.586-.292a3.084,3.084,0,0,1,.165-.585l.03.01-.03-.011.243-.79h1.723l.3.878a2.294,2.294,0,0,1,.149.543c-.011.227-.321.243-.49.247h-.049v.155Zm-1.51-2.174h0l.708-2.155h.038v.032l-.008,0,.008,0V318.6h.023l.7,2.155Zm.089-.064h1.292l-.643-1.979-.65,1.979Zm.628-2.05h0l.015-.006Z" transform="translate(-1654.454 -301.32)" fill="#211e1f"/>
        <path id="Path_8850" data-name="Path 8850" d="M1851.716,326.254c0,.3.2.384.442.414a5.367,5.367,0,0,0,.977-.015,1.057,1.057,0,0,0,.708-.4,1.676,1.676,0,0,0,.229-.532h.214c-.081.421-.184.836-.274,1.257-.649,0-1.3-.029-1.95-.029s-1.3.029-1.951.029v-.223h.1c.267,0,.557-.036.557-.494v-3.8c0-.385-.289-.422-.557-.422h-.1v-.222c.391,0,.775.029,1.166.029s.747-.029,1.124-.029v.222h-.186c-.28,0-.5.008-.5.4v3.814Z" transform="translate(-1755.318 -305.331)" fill="#211e1f"/>
        <path id="Path_8851" data-name="Path 8851" d="M1853.4,326.423c-.651,0-1.3-.03-1.949-.03s-1.3.03-1.952.03h-.031v-.286h.134c.268-.006.521-.025.524-.463v-3.8c0-.359-.255-.384-.524-.389h-.134V321.2h.031c.393,0,.778.028,1.168.028.375,0,.744-.028,1.124-.028h.03v.285h-.216c-.286.008-.465-.005-.47.367v3.814c0,.275.182.349.413.382.131.009.267.015.41.015a5.241,5.241,0,0,0,.559-.029,1.028,1.028,0,0,0,.688-.385,1.652,1.652,0,0,0,.223-.522l.007-.025h.278l-.007.039c-.083.423-.185.836-.275,1.256l-.006.025h-.025Zm-.027-.065h0c.086-.4.182-.793.262-1.192h-.152a1.692,1.692,0,0,1-.228.521,1.094,1.094,0,0,1-.732.411,5.56,5.56,0,0,1-.567.03c-.143,0-.282-.007-.415-.016-.24-.027-.474-.129-.473-.445v-3.814c0-.41.26-.431.535-.431h.153v-.157c-.364,0-.723.029-1.091.029s-.757-.027-1.136-.029v.157h.071c.264,0,.587.046.587.453v3.8c0,.478-.321.528-.587.528h-.071v.156c.639,0,1.278-.028,1.92-.028s1.284.028,1.923.028Z" transform="translate(-1754.71 -304.745)" fill="#211e1f"/>
        <path id="Path_8852" data-name="Path 8852" d="M1915.408,317.72a.778.778,0,1,1-.778.781A.765.765,0,0,1,1915.408,317.72Zm0,1.412h0a.633.633,0,1,0-.618-.631A.627.627,0,0,0,1915.408,319.132Zm-.387-.221h0v-.038c.1-.013.113-.01.113-.07v-.576c0-.081-.009-.109-.11-.1v-.039h.4c.137,0,.263.065.263.206a.244.244,0,0,1-.184.235l.128.178a.793.793,0,0,0,.172.183v.025h-.152c-.073,0-.136-.153-.28-.359h-.086v.259c0,.051.018.048.114.061v.038h-.376Zm.262-.41h.092c.1,0,.147-.076.147-.2a.146.146,0,0,0-.153-.168h-.087Z" transform="translate(-1816.531 -301.441)" fill="#211e1f"/>
      </g>
    </g>
  </g>
</svg>
