<svg xmlns="http://www.w3.org/2000/svg" width="64" height="64" viewBox="0 0 64 64">
  <g id="emerald-default" transform="translate(-12)">
    <g id="emerald-default-2" data-name="emerald-default" transform="translate(12)">
      <g id="grocery-enclosed-outline-fullcolor">
        <rect id="enclosed-lightmonochrome" width="64" height="64" rx="32" fill="#e5f5ff"/>
      </g>
    </g>
    <g id="card-emerald" transform="translate(22.913 18.81)">
      <g id="creditcards-enclosed-outline-fullcolor" transform="translate(-494.912 -355.81)">
        <g id="Group_17239" data-name="Group 17239" transform="translate(494.912 355.81)">
          <g id="Rectangle_21477" data-name="Rectangle 21477" transform="translate(0 0)" fill="#25aa6d" stroke="#006942" stroke-linecap="round" stroke-linejoin="round" stroke-width="1">
            <rect width="42.176" height="26.38" rx="4" stroke="none"/>
            <rect x="0.5" y="0.5" width="41.176" height="25.38" rx="3.5" fill="none"/>
          </g>
          <g id="BDOonBlue" transform="translate(3.547 3.633)">
            <g id="Group_4058" data-name="Group 4058" transform="translate(8.006 0)">
              <path id="Path_964" data-name="Path 964" d="M2.515,0a2.31,2.31,0,1,0,0,4.6,2.31,2.31,0,1,0,0-4.6Zm0,4.052c-1.008,0-1.432-.826-1.432-1.752S1.507.549,2.515.549,3.948,1.374,3.948,2.3,3.523,4.052,2.515,4.052Z" transform="translate(0 0)" fill="#fff"/>
            </g>
            <path id="Path_965" data-name="Path 965" d="M5.908,0H4.2V2.631a1.182,1.182,0,0,0-.92-.654.95.95,0,0,0,.565-.9C3.85.425,3.427,0,2.427,0H0V4.336H2.647c.787,0,1.347-.221,1.557-.742v.742h1.7A2.54,2.54,0,0,0,8.291,3.3a2.278,2.278,0,0,1-.285-1.132,2.268,2.268,0,0,1,.286-1.133A2.537,2.537,0,0,0,5.908,0ZM1.019.575H2.025c.516,0,.764.247.764.627s-.248.627-.764.627H1.02V.575ZM2.407,3.762H1.02V2.4H2.407c.559,0,.827.266.827.679S2.967,3.762,2.407,3.762Zm3.381,0H5.224V.575h.564A1.482,1.482,0,0,1,7.482,2.168,1.482,1.482,0,0,1,5.789,3.762Z" transform="translate(0 0.131)" fill="#fff"/>
          </g>
          <g id="Group_17196" data-name="Group 17196" transform="translate(3.65 16.899)">
            <rect id="Rectangle_21479" data-name="Rectangle 21479" width="7.3" height="2.473" rx="1.237" transform="translate(0 0)" fill="#006942"/>
            <rect id="Rectangle_21480" data-name="Rectangle 21480" width="6.894" height="2.473" rx="1.237" transform="translate(8.516 0)" fill="#006942"/>
            <rect id="Rectangle_21481" data-name="Rectangle 21481" width="6.894" height="2.473" rx="1.237" transform="translate(16.627 0)" fill="#006942"/>
            <rect id="Rectangle_21482" data-name="Rectangle 21482" width="7.3" height="2.473" rx="1.237" transform="translate(25.143 0)" fill="#006942"/>
            <rect id="Rectangle_21483" data-name="Rectangle 21483" width="20.277" height="2.061" rx="1.03" transform="translate(0 4.946)" fill="#006942"/>
          </g>
        </g>
      </g>
    </g>
  </g>
</svg>
