<svg id="entertainment-enclosed-filled-fullcolor" xmlns="http://www.w3.org/2000/svg" xmlns:xlink="http://www.w3.org/1999/xlink" width="64" height="64" viewBox="0 0 64 64">
  <defs>
    <clipPath id="clip-path">
      <rect id="Rectangle_20361" data-name="Rectangle 20361" width="43.707" height="43.707" fill="none"/>
    </clipPath>
  </defs>
  <g id="enclosure-ctablue">
    <circle id="enclosure-darkmonochrome" cx="32" cy="32" r="32" fill="#0072d8"/>
  </g>
  <g id="Group_12568" data-name="Group 12568" transform="translate(10.146 11.707)">
    <g id="Group_12988" data-name="Group 12988">
      <g id="Group_12987" data-name="Group 12987" transform="translate(0 0)" clip-path="url(#clip-path)">
        <g id="Group_12555" data-name="Group 12555" transform="translate(4.152 3.647)">
          <path id="Path_7094" data-name="Path 7094" d="M15.8,10.063l1.048-8.371s3.991-1.214,11.816,0,9.907,3.057,9.907,3.057-.971,13.23-3.044,17.275-10.084,6.736-10.084,6.736-5.959-5.743-7.894-10.334A21.079,21.079,0,0,1,15.8,10.063Z" transform="translate(-4.151 -0.303)" fill="#fdb913"/>
          <g id="Group_12553" data-name="Group 12553" transform="translate(23.247 15.627)">
            <path id="Path_3643" data-name="Path 3643" d="M718.789,785.208a.861.861,0,0,1-.118-.005,1.106,1.106,0,0,1-.984-1.215h0a4.435,4.435,0,0,0-2.146-4.271,1.106,1.106,0,0,1,1.128-1.9,6.655,6.655,0,0,1,3.219,6.4A1.105,1.105,0,0,1,718.789,785.208Z" transform="translate(-715.015 -777.667)" fill="#0072d8"/>
          </g>
          <g id="Group_12552" data-name="Group 12552" transform="translate(10.918)">
            <path id="Path_3642" data-name="Path 3642" d="M717.284,791.428a1.106,1.106,0,0,1-.242-2.185,9.3,9.3,0,0,0,7.182-7.689l1.906-12.267a1.311,1.311,0,0,0-.926-1.344l-1.868-.583a35.353,35.353,0,0,0-13.871-1.457l-1.947.181a1.325,1.325,0,0,0-1.19,1.179l-.25,4.587a1.108,1.108,0,1,1-2.212-.122h0l.256-4.644a3.552,3.552,0,0,1,3.19-3.2l1.946-.181a37.541,37.541,0,0,1,14.733,1.55l1.867.582a3.54,3.54,0,0,1,2.462,3.74L726.4,781.894a11.5,11.5,0,0,1-8.876,9.506A1.123,1.123,0,0,1,717.284,791.428Z" transform="translate(-703.865 -763.536)" fill="#fdb913"/>
          </g>
          <g id="Group_12546" data-name="Group 12546" transform="translate(17.702 21.524)">
            <path id="Path_3637" data-name="Path 3637" d="M710,783" transform="translate(-710 -783)" fill="none" stroke="#0072d8" stroke-linecap="round" stroke-linejoin="round" stroke-width="2"/>
          </g>
          <g id="Group_12551" data-name="Group 12551" transform="translate(0 7.809)">
            <g id="Group_12547" data-name="Group 12547">
              <path id="Path_3638" data-name="Path 3638" d="M707.332,798.742a11.553,11.553,0,0,1-11.409-9.785l-1.906-12.27a3.551,3.551,0,0,1,2.455-3.794l1.865-.582a37.55,37.55,0,0,1,14.735-1.548l1.947.18a3.538,3.538,0,0,1,3.185,3.147l.69,12.451a11.552,11.552,0,0,1-10.337,12.138h0A11.627,11.627,0,0,1,707.332,798.742Z" transform="translate(-693.992 -770.597)" fill="#fff"/>
            </g>
            <g id="Group_12986" data-name="Group 12986" transform="translate(5.182 7.743)">
              <g id="Group_12548" data-name="Group 12548" transform="translate(1.62 7.656)">
                <path id="Path_3639" data-name="Path 3639" d="M706.746,792.842a6.645,6.645,0,0,1-6.594-5.942,1.106,1.106,0,0,1,2.2-.276l0,.045a4.424,4.424,0,0,0,8.8-.926h0a1.106,1.106,0,1,1,2.2-.23,6.638,6.638,0,0,1-6.6,7.328Z" transform="translate(-700.143 -784.523)" fill="#0072d8"/>
              </g>
              <g id="Group_12549" data-name="Group 12549" transform="translate(0 1.005)">
                <path id="Path_3640" data-name="Path 3640" d="M699.786,782.127a1.213,1.213,0,0,1-.228-.022,1.106,1.106,0,0,1-.856-1.309h0a2.986,2.986,0,0,1,5.271-1.12,1.106,1.106,0,1,1-1.795,1.293.784.784,0,0,0-1.107-.038.8.8,0,0,0-.206.317A1.1,1.1,0,0,1,699.786,782.127Z" transform="translate(-698.679 -778.508)" fill="#0072d8"/>
              </g>
              <g id="Group_12550" data-name="Group 12550" transform="translate(9.688)">
                <path id="Path_3641" data-name="Path 3641" d="M708.545,780.852a1.106,1.106,0,0,1-1.106-1.106,1.085,1.085,0,0,1,.1-.447,2.985,2.985,0,0,1,5.389,0,1.106,1.106,0,0,1-2.009.924l-.015-.035a.783.783,0,0,0-1.34,0A1.109,1.109,0,0,1,708.545,780.852Z" transform="translate(-707.439 -777.599)" fill="#0072d8"/>
              </g>
            </g>
          </g>
          <g id="Group_12554" data-name="Group 12554" transform="translate(25.268 7.949)">
            <path id="Path_3644" data-name="Path 3644" d="M719.8,774.347a3.066,3.066,0,0,1-.644-.069,2.917,2.917,0,0,1-2.286-2.22,1.106,1.106,0,1,1,2.165-.452h0a.782.782,0,0,0,1.313.279,1.106,1.106,0,0,1,1.794,1.294A2.876,2.876,0,0,1,719.8,774.347Z" transform="translate(-716.843 -770.725)" fill="#0072d8"/>
          </g>
        </g>
      </g>
    </g>
  </g>
</svg>
