<svg id="entertainment-enclosed-outline-fullcolor" xmlns="http://www.w3.org/2000/svg" xmlns:xlink="http://www.w3.org/1999/xlink" width="64" height="64" viewBox="0 0 64 64">
  <defs>
    <clipPath id="clip-path">
      <rect id="Rectangle_20362" data-name="Rectangle 20362" width="46.829" height="46.829" fill="none"/>
    </clipPath>
  </defs>
  <g id="enclosure-backgroundblue">
    <rect id="enclosed-lightmonochrome" width="64" height="64" rx="32" fill="#e5f5ff"/>
  </g>
  <g id="Group_12568" data-name="Group 12568" transform="translate(8.585 10.146)">
    <g id="Group_12990" data-name="Group 12990" transform="translate(0 0)">
      <g id="Group_12989" data-name="Group 12989" clip-path="url(#clip-path)">
        <g id="Group_12547" data-name="Group 12547" transform="translate(16.39 5.106)">
          <path id="Path_3638" data-name="Path 3638" d="M663.258,834.069a11.474,11.474,0,0,1-9.249-11.72l.489-12.324a3.527,3.527,0,0,1,3.118-3.229l1.931-.211a37.3,37.3,0,0,1,14.659,1.31l1.863.548a3.515,3.515,0,0,1,2.5,3.677l-1.708,12.268a11.478,11.478,0,0,1-12.4,9.854h0A11.325,11.325,0,0,1,663.258,834.069Z" transform="translate(-654 -806.361)" fill="#fff"/>
        </g>
        <g id="Group_12547-2" data-name="Group 12547" transform="translate(5.31 13.058)">
          <path id="Path_3638-2" data-name="Path 3638" d="M657.987,841.534a11.648,11.648,0,0,1-11.5-9.867l-1.922-12.373a3.582,3.582,0,0,1,2.475-3.826l1.881-.587a37.86,37.86,0,0,1,14.859-1.561l1.963.181a3.569,3.569,0,0,1,3.212,3.174l.7,12.555a11.65,11.65,0,0,1-10.424,12.24h0A11.723,11.723,0,0,1,657.987,841.534Z" transform="translate(-644.536 -813.153)" fill="#fff"/>
        </g>
        <g id="Group_12555" data-name="Group 12555" transform="translate(4.674 4.14)">
          <g id="Group_12546" data-name="Group 12546" transform="translate(18.74 22.787)">
            <path id="Path_3637" data-name="Path 3637" d="M660,825" transform="translate(-660 -825)" fill="none" stroke="#0072d8" stroke-linecap="round" stroke-linejoin="round" stroke-width="2"/>
          </g>
          <g id="Group_12551" data-name="Group 12551" transform="translate(0 8.267)">
            <g id="Group_12547-3" data-name="Group 12547">
              <path id="Path_3638-3" data-name="Path 3638" d="M658.114,842.394a12.231,12.231,0,0,1-12.078-10.36l-2.018-12.99a3.76,3.76,0,0,1,2.6-4.017l1.975-.616a39.755,39.755,0,0,1,15.6-1.639l2.062.191a3.745,3.745,0,0,1,3.372,3.332l.73,13.181a12.23,12.23,0,0,1-10.944,12.85h0A12.312,12.312,0,0,1,658.114,842.394Zm2.346-27.453a37.423,37.423,0,0,0-11.171,1.707l-1.976.616a1.406,1.406,0,0,0-.974,1.483l2.011,12.93A9.888,9.888,0,0,0,659.168,840h0a9.89,9.89,0,0,0,8.85-10.391l-.726-13.124a1.392,1.392,0,0,0-1.256-1.188l-2.06-.192Q662.216,814.942,660.461,814.942Z" transform="translate(-643.992 -812.597)" fill="#0072d8"/>
            </g>
            <g id="Group_12548" data-name="Group 12548" transform="translate(7.201 16.303)">
              <path id="Path_3639" data-name="Path 3639" d="M657.133,835.331a7.035,7.035,0,0,1-6.981-6.29,1.171,1.171,0,0,1,2.324-.293l0,.048a4.683,4.683,0,1,0,9.315-.98h0a1.171,1.171,0,1,1,2.329-.244,7.027,7.027,0,0,1-6.992,7.759Z" transform="translate(-650.143 -826.523)" fill="#fdb913"/>
            </g>
            <g id="Group_12549" data-name="Group 12549" transform="translate(5.486 9.262)">
              <path id="Path_3640" data-name="Path 3640" d="M649.851,824.34a1.282,1.282,0,0,1-.241-.023,1.17,1.17,0,0,1-.906-1.386h0a3.161,3.161,0,0,1,5.581-1.186,1.171,1.171,0,1,1-1.9,1.369.83.83,0,0,0-1.172-.04.844.844,0,0,0-.218.336A1.168,1.168,0,0,1,649.851,824.34Z" transform="translate(-648.679 -820.508)" fill="#fdb913"/>
            </g>
            <g id="Group_12550" data-name="Group 12550" transform="translate(15.742 8.197)">
              <path id="Path_3641" data-name="Path 3641" d="M658.61,823.043a1.171,1.171,0,0,1-1.171-1.171,1.153,1.153,0,0,1,.1-.473,3.16,3.16,0,0,1,5.705,0,1.171,1.171,0,0,1-2.127.979l-.016-.037a.829.829,0,0,0-1.419,0A1.173,1.173,0,0,1,658.61,823.043Z" transform="translate(-657.439 -819.599)" fill="#fdb913"/>
            </g>
          </g>
          <g id="Group_12552" data-name="Group 12552" transform="translate(11.559)">
            <path id="Path_3642" data-name="Path 3642" d="M668.072,835.065a1.171,1.171,0,0,1-.256-2.313,9.847,9.847,0,0,0,7.6-8.14l2.018-12.987a1.388,1.388,0,0,0-.98-1.422l-1.977-.617a37.428,37.428,0,0,0-14.686-1.543l-2.062.192a1.4,1.4,0,0,0-1.26,1.248l-.265,4.856a1.173,1.173,0,1,1-2.341-.129h0l.272-4.917a3.76,3.76,0,0,1,3.378-3.39l2.06-.192a39.745,39.745,0,0,1,15.6,1.641l1.976.616a3.748,3.748,0,0,1,2.606,3.959l-2.03,13.044a12.174,12.174,0,0,1-9.4,10.064A1.19,1.19,0,0,1,668.072,835.065Z" transform="translate(-653.865 -805.536)" fill="#0072d8"/>
          </g>
          <g id="Group_12553" data-name="Group 12553" transform="translate(24.612 16.544)">
            <path id="Path_3643" data-name="Path 3643" d="M669.011,827.65a.916.916,0,0,1-.125-.006,1.171,1.171,0,0,1-1.042-1.287h0a4.7,4.7,0,0,0-2.272-4.521,1.171,1.171,0,0,1,1.194-2.014,7.046,7.046,0,0,1,3.408,6.781A1.17,1.17,0,0,1,669.011,827.65Z" transform="translate(-665.015 -819.667)" fill="#0072d8"/>
          </g>
          <g id="Group_12554" data-name="Group 12554" transform="translate(26.751 8.416)">
            <path id="Path_3644" data-name="Path 3644" d="M669.969,816.559a3.243,3.243,0,0,1-.681-.073,3.088,3.088,0,0,1-2.42-2.351,1.171,1.171,0,1,1,2.292-.479h0a.828.828,0,0,0,1.39.3,1.171,1.171,0,1,1,1.9,1.37A3.045,3.045,0,0,1,669.969,816.559Z" transform="translate(-666.843 -812.725)" fill="#0072d8"/>
          </g>
        </g>
      </g>
    </g>
  </g>
</svg>
