<svg id="explore-default" xmlns="http://www.w3.org/2000/svg" xmlns:xlink="http://www.w3.org/1999/xlink" width="64" height="64" viewBox="0 0 64 64">
  <defs>
    <clipPath id="clip-path">
      <rect id="Rectangle_21630" data-name="Rectangle 21630" width="46" height="46" fill="none"/>
    </clipPath>
  </defs>
  <rect id="enclosed-lightmonochrome" width="64" height="64" rx="32" fill="#e5f5ff"/>
  <g id="explore-enclosed-outline-fullcolor" transform="translate(9 9)">
    <g id="Group_20124" data-name="Group 20124" clip-path="url(#clip-path)">
      <path id="Path_8986" data-name="Path 8986" d="M16.911,16.638a12.187,12.187,0,0,1-6.1-1.96,4.205,4.205,0,0,1-1.741-3.016A4.014,4.014,0,0,1,10.248,8.5a5.137,5.137,0,0,1,6.624-.491c1.269.934,3.2,3.452,3.373,5.563a2.657,2.657,0,0,1-.694,2.167,3.586,3.586,0,0,1-2.64.9m-3.067-7.3A2.724,2.724,0,0,0,11.9,10.1a1.748,1.748,0,0,0-.531,1.368,1.888,1.888,0,0,0,.812,1.352c1.485,1.1,5.126,1.923,5.727,1.31a.592.592,0,0,0,.049-.374,7.241,7.241,0,0,0-2.445-3.9h0a2.821,2.821,0,0,0-1.664-.522" fill="#fdb913"/>
      <path id="Path_8987" data-name="Path 8987" d="M21.978,16.92a3.148,3.148,0,0,1-1.9-.543A2.773,2.773,0,0,1,19,14.268a9.057,9.057,0,0,1,2.3-5.9,5.143,5.143,0,0,1,6.624-.492,4.206,4.206,0,0,1,1.74,3.017,4.012,4.012,0,0,1-1.174,3.161,11.1,11.1,0,0,1-6.515,2.871M24.9,9.2a2.732,2.732,0,0,0-1.95.767,6.931,6.931,0,0,0-1.656,4.112c.008.106.04.362.15.444.736.537,4.12-.763,5.4-2.081h0a1.743,1.743,0,0,0,.529-1.367,1.883,1.883,0,0,0-.812-1.352A2.812,2.812,0,0,0,24.9,9.2" fill="#fdb913"/>
      <path id="Path_8988" data-name="Path 8988" d="M29.483,22.157a5.334,5.334,0,1,0,5.334,5.333,5.339,5.339,0,0,0-5.334-5.333" fill="#fff"/>
      <path id="Path_8989" data-name="Path 8989" d="M26.05,36.8A9.923,9.923,0,0,1,32.2,17.944V16.1H6.9v5.75h3.45V36.8Z" fill="#fff"/>
      <path id="Path_8990" data-name="Path 8990" d="M20.71,15.782a1.15,1.15,0,1,0-2.3,0v5.993h2.3Z" fill="#fdb913"/>
      <path id="Path_8991" data-name="Path 8991" d="M23.608,35.474H11.09V23h9.546a9.969,9.969,0,0,1,1.623-2.3H8.2V16.946h22.71v.744a10.179,10.179,0,0,1,2.3.611V15.8a1.149,1.149,0,0,0-1.15-1.15H7.055a1.149,1.149,0,0,0-1.15,1.15V21.85A1.149,1.149,0,0,0,7.055,23H8.79V36.624a1.149,1.149,0,0,0,1.15,1.15H29.179a1.132,1.132,0,0,0,.852-.395c-.188.011-.374.029-.564.029a9.85,9.85,0,0,1-5.859-1.934" fill="#0072d8"/>
      <path id="Path_8992" data-name="Path 8992" d="M39.773,35.156l-3.749-3.749a7.663,7.663,0,1,0-1.474,1.778l3.6,3.6a1.15,1.15,0,0,0,1.626-1.627M24.15,27.49a5.334,5.334,0,1,1,5.333,5.334A5.339,5.339,0,0,1,24.15,27.49" fill="#0072d8"/>
      <path id="Path_8993" data-name="Path 8993" d="M29.484,31.134a3.648,3.648,0,0,1-3.644-3.643,1.15,1.15,0,1,1,2.3,0,1.345,1.345,0,0,0,1.344,1.343,1.331,1.331,0,0,0,.805-.267A1.149,1.149,0,1,1,31.671,30.4a3.614,3.614,0,0,1-2.187.73" fill="#0072d8"/>
    </g>
  </g>
</svg>
