<svg id="food-enclosed-outline-fullcolor" xmlns="http://www.w3.org/2000/svg" width="64" height="64" viewBox="0 0 64 64">
  <rect id="enclosed-lightmonochrome" width="64" height="64" rx="32" fill="#e5f5ff"/>
  <g id="icon" transform="translate(8.585 8.585)">
    <rect id="Rectangle_20899" data-name="Rectangle 20899" width="46.829" height="46.829" transform="translate(0)" fill="none"/>
    <path id="Path_6779" data-name="Path 6779" d="M768.436,3761.161a1.171,1.171,0,0,1-1.154-.988l-1.552-9.82a1.17,1.17,0,0,1,2.311-.365l1.552,9.819a1.169,1.169,0,0,1-.973,1.339A1.086,1.086,0,0,1,768.436,3761.161Z" transform="translate(-752 -3743.146)" fill="#fdb913"/>
    <path id="Path_8181" data-name="Path 8181" d="M2875,6687.5l14.676-2.321,1.882,19.833-12.23,1.933Zm31.474,5.365-2.386-.457a2.428,2.428,0,0,1-1.928-2.842l.969-5.068a2.429,2.429,0,0,1,2.842-1.928l2.384.456a2.428,2.428,0,0,1,1.929,2.841l-.971,5.068a2.429,2.429,0,0,1-2.84,1.93Z" transform="translate(-2869.146 -6668.314)" fill="#fff" stroke="rgba(0,0,0,0)" stroke-width="1"/>
    <path id="Path_8182" data-name="Path 8182" d="M2903.027,6713.917a1.171,1.171,0,0,1-.931-1.37l2.644-13.82a4.823,4.823,0,0,1-2.331-5.082l.514-2.682a4.813,4.813,0,0,1,9.455,1.808l-.514,2.684a4.821,4.821,0,0,1-4.724,3.91H2907l-2.608,13.623a1.169,1.169,0,0,1-1.369.931Zm3.234-24.095a2.458,2.458,0,0,0-1.038,1.579l-.514,2.684a2.472,2.472,0,1,0,4.855.93l.512-2.683a2.473,2.473,0,0,0-1.965-2.893,2.4,2.4,0,0,0-.467-.045A2.457,2.457,0,0,0,2906.261,6689.823Zm-26.9,22.87-4.329-19.446a1.172,1.172,0,0,1,.961-1.409l14.675-2.319a1.163,1.163,0,0,1,.9.229,1.177,1.177,0,0,1,.447.815l1.882,19.832a1.169,1.169,0,0,1-.982,1.267l-12.229,1.933a1.081,1.081,0,0,1-.185.015A1.168,1.168,0,0,1,2879.356,6712.693Zm7.309-16.329a1.105,1.105,0,0,1,.015.187,1.173,1.173,0,0,1-.988,1.153l-7.025,1.111,2.736,12.294,10.058-1.588-1.662-17.5-12.214,1.93.572,2.572,7.167-1.135a1.2,1.2,0,0,1,.186-.014A1.17,1.17,0,0,1,2886.665,6696.364Zm9.54,11.392v-14.4a3.647,3.647,0,0,1-3.643-3.63v-6.554a1.171,1.171,0,0,1,2.343,0v6.554a1.3,1.3,0,0,0,1.314,1.289h2.493a1.124,1.124,0,0,0,1.135-1.11v-6.733a1.171,1.171,0,1,1,2.341,0v6.733a3.468,3.468,0,0,1-3.477,3.452h-.166v14.4a1.171,1.171,0,0,1-2.341,0Zm0-19.122v-5.464a1.17,1.17,0,1,1,2.34,0v5.464a1.17,1.17,0,1,1-2.34,0Z" transform="translate(-2870.318 -6673.804)" fill="#0072d8" stroke="rgba(0,0,0,0)" stroke-width="1"/>
    <path id="Path_8184" data-name="Path 8184" d="M2881.823,6694.828a1.173,1.173,0,0,1-.93-1.37l.96-5.108a1.171,1.171,0,0,1,2.3.438l-.962,5.109a1.173,1.173,0,0,1-1.149.953A1.309,1.309,0,0,1,2881.823,6694.828Zm-6.823-6.163v-5.5a1.17,1.17,0,0,1,2.341,0v5.5a1.17,1.17,0,1,1-2.341,0Z" transform="translate(-2849.114 -6654.713)" fill="#fdb913" stroke="rgba(0,0,0,0)" stroke-width="1"/>
  </g>
</svg>
