<svg id="grocery-enclosed-outline-fullcolor" xmlns="http://www.w3.org/2000/svg" width="64" height="64" viewBox="0 0 64 64">
  <rect id="enclosed-lightmonochrome" width="64" height="64" rx="32" fill="#e5f5ff"/>
  <g id="Group_12528" data-name="Group 12528" transform="translate(7.805 10.927)">
    <path id="Path_8186" data-name="Path 8186" d="M2692.119,8675.6a4.287,4.287,0,0,1-4.22-4.342v-2.71a4.286,4.286,0,0,1,4.22-4.341h2.71a4.286,4.286,0,0,1,4.218,4.341v2.71a4.286,4.286,0,0,1-4.218,4.342Zm-11.211-1.752c-2.154,0-3.907-2.1-3.907-4.671v-3.691c0-2.573,1.753-4.668,3.907-4.668h1.353c2.156,0,3.909,2.095,3.909,4.668v3.691c0,2.575-1.753,4.671-3.909,4.671Z" transform="translate(-2665.096 -8655.798)" fill="#fdb913" stroke="rgba(0,0,0,0)" stroke-width="1"/>
    <path id="Path_8187" data-name="Path 8187" d="M2694.62,8682.857a2.878,2.878,0,1,1,2.879,2.879A2.879,2.879,0,0,1,2694.62,8682.857Zm-12.877,0a2.878,2.878,0,1,1,2.877,2.879A2.879,2.879,0,0,1,2681.743,8682.857Zm-1.393-7.754L2677,8660.816h30.516l-4.441,14.287Z" transform="translate(-2667.199 -8646.89)" fill="#fff" stroke="rgba(0,0,0,0)" stroke-width="1"/>
    <rect id="Rectangle_20273" data-name="Rectangle 20273" width="46.829" height="46.829" transform="translate(0 0)" fill="none"/>
    <path id="Path_6619" data-name="Path 6619" d="M624.98,2354.289l3.166-11.609H600.464l2.071,11.609Z" transform="translate(-589.384 -2327.622)" fill="none"/>
    <path id="Path_6620" data-name="Path 6620" d="M600.464,2342.68l2.071,11.609H624.98l3.166-11.609Z" transform="translate(-589.384 -2327.622)" fill="none"/>
    <path id="Path_8188" data-name="Path 8188" d="M2697.8,8688.18a5.22,5.22,0,1,1,5.22,5.22A5.225,5.225,0,0,1,2697.8,8688.18Zm2.341,0a2.879,2.879,0,1,0,2.879-2.879A2.882,2.882,0,0,0,2700.14,8688.18Zm-15.219,0a5.22,5.22,0,1,1,5.22,5.22A5.225,5.225,0,0,1,2684.921,8688.18Zm2.341,0a2.879,2.879,0,1,0,2.879-2.879A2.882,2.882,0,0,0,2687.262,8688.18Zm22.039-6.723H2683.74l-.489-2.586-2.531-14.189-.229-1.284h-2.249a1.291,1.291,0,0,1,.094-2.581h3.23a1.3,1.3,0,0,1,1.3,1.063l.482,2.8h29.829a1.44,1.44,0,0,1,.343.048,1.29,1.29,0,0,1,.9,1.586l-3.871,14.191a1.292,1.292,0,0,1-1.244.949Zm-23.43-2.579h22.445l3.165-11.608H2683.8Z" transform="translate(-2672.719 -8652.21)" fill="#0072d8" stroke="rgba(0,0,0,0)" stroke-width="1"/>
  </g>
</svg>
