<svg id="pay_bills-enclosed-outline-fullcolor" xmlns="http://www.w3.org/2000/svg" width="64" height="64" viewBox="0 0 64 64">
  <g id="enclosure-backgroundblue">
    <rect id="enclosed-lightmonochrome" width="64" height="64" rx="32" fill="#e5f5ff"/>
  </g>
  <g id="Group_16421" data-name="Group 16421" transform="translate(8.585 8.585)">
    <rect id="Rectangle_20897" data-name="Rectangle 20897" width="46.829" height="46.829" fill="none"/>
    <path id="Path_8190" data-name="Path 8190" d="M2414.706,9960.815a13.761,13.761,0,0,1-4.521-12.541,12.328,12.328,0,0,1,10.495,1.4l.879,1.538a22.44,22.44,0,0,1-.227-3.227c0-9.991,6.112-13.986,6.112-13.986s6.114,4,6.114,13.986a23.965,23.965,0,0,1-.118,2.4l.118-.238a12.392,12.392,0,0,1,11.2-1.874,13.762,13.762,0,0,1-4.521,12.541,10.23,10.23,0,0,1-12.531,1.154,12.263,12.263,0,0,1-6,1.65A10.162,10.162,0,0,1,2414.706,9960.815Zm-.3-14.065a14.616,14.616,0,0,1,2.281-6.87,12.942,12.942,0,0,1,5.168,1.931l-1.137,7.21Zm19.155-5.217a12.674,12.674,0,0,1,4.7-1.653,14.794,14.794,0,0,1,2.323,7.574l-6.343,1.293Z" transform="translate(-2404.146 -9927.327)" fill="#fff" stroke="rgba(0,0,0,0)" stroke-width="1"/>
    <path id="Path_6776" data-name="Path 6776" d="M560.948,3619.3a1.172,1.172,0,0,0-.711-.83,11.92,11.92,0,0,0-3.493-.654,15.709,15.709,0,0,0-2.488-7.34,1.136,1.136,0,0,0-1.048-.477,13.825,13.825,0,0,0-4.77,1.586,15.575,15.575,0,0,0-5.3-7.28,1.176,1.176,0,0,0-1.281,0,15.564,15.564,0,0,0-5.292,7.254,13.719,13.719,0,0,0-4.729-1.56,1.137,1.137,0,0,0-1.049.477,15.818,15.818,0,0,0-2.482,7.338,11.811,11.811,0,0,0-3.5.656,1.17,1.17,0,0,0-.711.83,14.837,14.837,0,0,0,4.876,13.667,11.24,11.24,0,0,0,7.742,3.09,13.824,13.824,0,0,0,6.018-1.461,12.394,12.394,0,0,0,5.742,1.487,11.069,11.069,0,0,0,7.6-3.116A14.837,14.837,0,0,0,560.948,3619.3Zm-11.76-5.466a12.751,12.751,0,0,1,3.543-1.385,14.221,14.221,0,0,1,1.664,5.451,13.689,13.689,0,0,0-4.62,1.459c0-.032,0-.059,0-.089a22.647,22.647,0,0,0-.633-5.421C549.158,3613.836,549.174,3613.837,549.188,3613.83Zm-16.875-1.384a13.026,13.026,0,0,1,3.531,1.4,22.647,22.647,0,0,0-.632,5.421v.05a13.591,13.591,0,0,0-4.567-1.413A14.386,14.386,0,0,1,532.313,3612.445Zm-1.769,18.784a12.626,12.626,0,0,1-4.266-10.776,11.269,11.269,0,0,1,8.827,1.492,1.109,1.109,0,0,0,.271.1,19.053,19.053,0,0,0,2.906,8.329,1.17,1.17,0,1,0,1.961-1.278,17.7,17.7,0,0,1-2.689-9.833c0-7.385,3.469-11.21,4.94-12.5,1.475,1.293,4.943,5.118,4.943,12.5,0,9.063-4.98,12.76-5.326,13.006C541.916,3632.391,535.861,3636.063,530.544,3631.229Zm23.952,0a8.8,8.8,0,0,1-9.695,1.762,18.318,18.318,0,0,0,4.8-10.815,11.314,11.314,0,0,1,9.166-1.723A12.625,12.625,0,0,1,554.5,3631.229Z" transform="translate(-519.339 -3599.299)" fill="#0072d8"/>
    <path id="Path_8191" data-name="Path 8191" d="M2436.481,9936.259a1.617,1.617,0,0,1-.385-.259,1.429,1.429,0,0,1-.259-.386,1.151,1.151,0,0,1-.082-.443,1.218,1.218,0,0,1,.341-.831,1.064,1.064,0,0,1,.385-.247,1.159,1.159,0,0,1,1.615,1.078,1.153,1.153,0,0,1-.093.443,1.337,1.337,0,0,1-.245.386,1.629,1.629,0,0,1-.388.259,1.246,1.246,0,0,1-.889,0Zm-25.312.082a1.17,1.17,0,0,1,0-2.341h21.074a1.17,1.17,0,0,1,0,2.341Z" transform="translate(-2400.634 -9895.366)" fill="#fdb913" stroke="rgba(0,0,0,0)" stroke-width="1"/>
  </g>
</svg>
