<svg id="pay_bills-enclosed-filled-fullcolor" xmlns="http://www.w3.org/2000/svg" width="64" height="64" viewBox="0 0 64 64">
  <g id="enclosure-ctablue">
    <circle id="enclosure-darkmonochrome" cx="32" cy="32" r="32" fill="#0072d8"/>
  </g>
  <g id="Group_15998" data-name="Group 15998" transform="translate(16 16.066)">
    <g id="Group_15996" data-name="Group 15996" transform="translate(3.147 29.727)">
      <g id="Group_15994" data-name="Group 15994">
        <path id="Path_6714" data-name="Path 6714" d="M468.332,3635.14H449.07a1.07,1.07,0,1,1,0-2.14h19.262a1.07,1.07,0,1,1,0,2.14Z" transform="translate(-448 -3633)" fill="#fdb913"/>
      </g>
      <g id="Group_15995" data-name="Group 15995" transform="translate(23.542 0.008)">
        <path id="Path_6715" data-name="Path 6715" d="M471.07,3635.14a1.069,1.069,0,0,1-.407-.075,1.553,1.553,0,0,1-.353-.236,1.319,1.319,0,0,1-.236-.353,1.073,1.073,0,0,1-.074-.407,1.117,1.117,0,0,1,.31-.76,1,1,0,0,1,.353-.224,1.059,1.059,0,0,1,1.477.984,1.065,1.065,0,0,1-.086.407,1.252,1.252,0,0,1-.225.353,1.576,1.576,0,0,1-.353.236A1.069,1.069,0,0,1,471.07,3635.14Z" transform="translate(-470 -3633.008)" fill="#fdb913"/>
      </g>
    </g>
    <g id="Group_16048" data-name="Group 16048">
      <path id="Path_6761" data-name="Path 6761" d="M579.734,3551.5l.085.072a1.055,1.055,0,0,1,.278-.077A1.073,1.073,0,0,0,579.734,3551.5Z" transform="translate(-564.03 -3525.52)" fill="#fff"/>
      <path id="Path_6762" data-name="Path 6762" d="M580.073,3551.49a1.061,1.061,0,0,1,.279.073l.085-.07A1.025,1.025,0,0,0,580.073,3551.49Z" transform="translate(-564.007 -3525.52)" fill="#fff"/>
      <g id="Group_16047" data-name="Group 16047">
        <path id="Path_6763" data-name="Path 6763" d="M574.066,3532.96a15.48,15.48,0,0,0-2.86-.838,12.209,12.209,0,0,0-2.318,5.921,14.858,14.858,0,0,1,4.062.885A20.722,20.722,0,0,1,574.066,3532.96Z" transform="translate(-564.791 -3526.876)" fill="#fff"/>
        <path id="Path_6764" data-name="Path 6764" d="M591.349,3538.051a12.866,12.866,0,0,0-2.1-5.812,15.291,15.291,0,0,0-2.819.842,20.82,20.82,0,0,1,1.066,5.86A14.62,14.62,0,0,1,591.349,3538.051Z" transform="translate(-563.561 -3526.868)" fill="#fff"/>
        <path id="Path_6765" data-name="Path 6765" d="M573.227,3540.755a12.888,12.888,0,0,0-5.266-1.14,17.162,17.162,0,0,0-2.9.207,16.187,16.187,0,0,0,5.125,10.013,10.686,10.686,0,0,0,8.011,2.978,18.629,18.629,0,0,1-4.941-11.411C573.236,3541.194,573.239,3540.968,573.227,3540.755Z" transform="translate(-565.059 -3526.352)" fill="#fff"/>
        <path id="Path_6766" data-name="Path 6766" d="M592.379,3539.641a12.312,12.312,0,0,0-4.637,1.134c0,.039,0,.078-.005.116a18.508,18.508,0,0,1-4.907,11.923,10.679,10.679,0,0,0,8-2.979,15.571,15.571,0,0,0,4.981-10.014A16.1,16.1,0,0,0,592.379,3539.641Z" transform="translate(-563.814 -3526.351)" fill="#fff"/>
        <path id="Path_6767" data-name="Path 6767" d="M586.125,3542.348c.009-.09.019-.178.027-.27.045-.552.076-1.12.076-1.717v-.034c0-.076-.007-.146-.008-.221a19.174,19.174,0,0,0-.774-5.294,16.651,16.651,0,0,0-.946-2.447,14.479,14.479,0,0,0-4.064-5.145,14.394,14.394,0,0,0-4,5,18.094,18.094,0,0,0-1.793,8.114v.022c0,.52.021,1.022.057,1.509.026.35.063.687.1,1.02.005.036.007.076.012.112a16.273,16.273,0,0,0,4.723,9.686c.2.19.384.364.551.508a1.078,1.078,0,0,1,.363,0,1.013,1.013,0,0,1,.364,0c.163-.138.345-.3.535-.483a15.961,15.961,0,0,0,4.734-9.985C586.1,3542.6,586.113,3542.475,586.125,3542.348Z" transform="translate(-564.387 -3527.22)" fill="#fff"/>
      </g>
      <path id="Path_6768" data-name="Path 6768" d="M579.813,3551.566c.1.082.189.159.272.225.087-.066.184-.144.286-.229a1.06,1.06,0,0,0-.279-.073A1.083,1.083,0,0,0,579.813,3551.566Z" transform="translate(-564.025 -3525.519)" fill="#fff"/>
    </g>
  </g>
</svg>
