<svg id="icon-n-filter" xmlns="http://www.w3.org/2000/svg" width="24" height="24" viewBox="0 0 24 24">
  <g id="Group_159" data-name="Group 159">
    <rect id="Rectangle_34" data-name="Rectangle 34" width="24" height="24" fill="none"/>
  </g>
  <g id="Group_169" data-name="Group 169" transform="translate(2.271 3.598)">
    <g id="Group_160" data-name="Group 160" transform="translate(6.423 1.771)">
      <path id="Path_115" data-name="Path 115" d="M744.063,450.789H732.5a.594.594,0,1,1,0-1.189h11.563a.594.594,0,1,1,0,1.189Z" transform="translate(-731.9 -449.6)" fill="#0072d8"/>
    </g>
    <g id="Group_161" data-name="Group 161" transform="translate(0 1.771)">
      <path id="Path_116" data-name="Path 116" d="M201.493,450.789H197.9a.594.594,0,1,1,0-1.189h3.592a.594.594,0,1,1,0,1.189Z" transform="translate(-197.3 -449.6)" fill="#0072d8"/>
    </g>
    <g id="Group_162" data-name="Group 162" transform="translate(15.053 7.763)">
      <path id="Path_117" data-name="Path 117" d="M1453.832,954.789H1450.9a.594.594,0,1,1,0-1.189h2.931a.594.594,0,1,1,0,1.189Z" transform="translate(-1450.3 -953.6)" fill="#0072d8"/>
    </g>
    <g id="Group_163" data-name="Group 163" transform="translate(0 7.763)">
      <path id="Path_118" data-name="Path 118" d="M209.948,954.789H197.9a.594.594,0,1,1,0-1.189h12.047a.594.594,0,1,1,0,1.189Z" transform="translate(-197.3 -953.6)" fill="#0072d8"/>
    </g>
    <g id="Group_164" data-name="Group 164" transform="translate(6.423 13.636)">
      <path id="Path_119" data-name="Path 119" d="M744.063,1448.789H732.5a.594.594,0,1,1,0-1.189h11.563a.594.594,0,1,1,0,1.189Z" transform="translate(-731.9 -1447.6)" fill="#0072d8"/>
    </g>
    <g id="Group_165" data-name="Group 165" transform="translate(0 13.636)">
      <path id="Path_120" data-name="Path 120" d="M201.529,1448.789H197.9a.594.594,0,1,1,0-1.189h3.628a.594.594,0,1,1,0,1.189Z" transform="translate(-197.3 -1447.6)" fill="#0072d8"/>
    </g>
    <g id="Group_166" data-name="Group 166" transform="translate(3.628)">
      <path id="Path_121" data-name="Path 121" d="M499.9,305.344a.6.6,0,0,1-.6-.594v-3.555a.6.6,0,0,1,1.2,0v3.555A.6.6,0,0,1,499.9,305.344Z" transform="translate(-499.3 -300.6)" fill="#0072d8"/>
    </g>
    <g id="Group_167" data-name="Group 167" transform="translate(14.428 5.992)">
      <path id="Path_122" data-name="Path 122" d="M1398.9,809.344a.6.6,0,0,1-.6-.594v-3.555a.6.6,0,0,1,1.2,0v3.555A.6.6,0,0,1,1398.9,809.344Z" transform="translate(-1398.3 -804.6)" fill="#0072d8"/>
    </g>
    <g id="Group_168" data-name="Group 168" transform="translate(3.616 11.972)">
      <path id="Path_123" data-name="Path 123" d="M498.9,1312.344a.6.6,0,0,1-.6-.594v-3.555a.6.6,0,0,1,1.2,0v3.555A.6.6,0,0,1,498.9,1312.344Z" transform="translate(-498.3 -1307.6)" fill="#0072d8"/>
    </g>
  </g>
</svg>
