<svg id="explore-default" xmlns="http://www.w3.org/2000/svg" width="64" height="64" viewBox="0 0 64 64">
  <rect id="enclosed-lightmonochrome" width="64" height="64" rx="32" fill="#e5f5ff"/>
  <g id="icon-travel" transform="translate(-419 -231)">
    <g id="Group_11919" data-name="Group 11919" transform="translate(432.6 246.6)">
      <path id="Path_3340" data-name="Path 3340" d="M465.993,275.319l-3.942-16.026a1.24,1.24,0,0,1,.355-1.2c.082-.078.155-.15.221-.215,1.886-1.886,7-8.224,3.755-11.466s-9.525,1.816-11.462,3.756c-.068.067-.14.143-.22.225a1.237,1.237,0,0,1-1.2.353l-16.016-3.939c-.032-.008-.066-.018-.1-.029a1.51,1.51,0,0,0-1.969.827,1.526,1.526,0,0,0-.1.415c-.068.661-.428,2.232.159,2.646l11.269,7.392a1.237,1.237,0,0,1,.355,1.712.762.762,0,0,1-.049.069c-1.8,2.37-3.6,4.821-5.051,6.945a1.235,1.235,0,0,1-1.065.536l-4.669-.17a1.237,1.237,0,0,0-.92.361l-1.174,1.173a1.235,1.235,0,0,0,.276,1.957l4.683,2.594a1.244,1.244,0,0,1,.482.482l2.594,4.683a1.239,1.239,0,0,0,1.957.276l1.171-1.171a1.235,1.235,0,0,0,.361-.927l-.2-4.825a1.235,1.235,0,0,1,.542-1.076c2.1-1.418,4.539-3.19,6.906-4.971a1.234,1.234,0,0,1,1.731.244c.016.021.032.044.047.066l7.42,11.311c.415.59,1.986.227,2.647.159h0a1.511,1.511,0,0,0,1.346-1.659,1.472,1.472,0,0,0-.1-.414A.731.731,0,0,1,465.993,275.319Z" transform="translate(-431.729 -243.797)" fill="#fff"/>
      <path id="Path_3342" data-name="Path 3342" d="M467.611,252.972c2.008-4.034.964-6.345-.263-7.574s-3.535-2.276-7.552-.284a23.3,23.3,0,0,0-5.549,4.039c-.087.089-.186.192-.3.308l-16.038-3.972a2.792,2.792,0,0,0-2.394.248,2.615,2.615,0,0,0-1.209,1.968c-.009.091-.029.223-.048.363-.149,1.033-.375,2.594.69,3.346l.015.011,11.369,7.349a1.156,1.156,0,1,0,1.3-1.91l-11.189-7.227a6.659,6.659,0,0,1,.1-1.237c.023-.166.046-.322.061-.459a.3.3,0,0,1,.136-.245.506.506,0,0,1,.44-.012c.039.014.078.025.117.036l14.94,3.7c-2.951,3.521-7.868,9.861-11.079,14.551l-5.253-.192a1.158,1.158,0,0,0-.857.338l-2.715,2.716a1.155,1.155,0,0,0,0,1.634,1.173,1.173,0,0,0,.258.194l6.141,3.4,3.4,6.141a1.156,1.156,0,0,0,.851.584,1.068,1.068,0,0,0,.16.012,1.157,1.157,0,0,0,.818-.338l2.716-2.716a1.159,1.159,0,0,0,.337-.866l-.229-5.414c4.72-3.184,11.132-8.121,14.636-11.05l3.76,15.188a1.012,1.012,0,0,0,.037.117.51.51,0,0,1-.012.44.3.3,0,0,1-.245.136c-.138.015-.294.037-.459.061a6.658,6.658,0,0,1-1.237.1l-7.388-11.9a1.156,1.156,0,0,0-1.91,1.3l7.511,12.076.01.015a2.261,2.261,0,0,0,1.972.82,9.663,9.663,0,0,0,1.374-.129c.141-.02.274-.039.363-.048a2.613,2.613,0,0,0,1.968-1.209,2.788,2.788,0,0,0,.247-2.394L463.385,258.7c.077-.072.147-.141.211-.2A23.286,23.286,0,0,0,467.611,252.972ZM444.966,269.9a1.156,1.156,0,0,0-.515,1.012l.236,5.555-1.272,1.272-2.819-5.089a1.149,1.149,0,0,0-.451-.451l-5.089-2.819,1.275-1.274,5.388.2a1.151,1.151,0,0,0,1-.508,185.868,185.868,0,0,1,13.162-17.007,20.775,20.775,0,0,1,4.942-3.6c2.236-1.11,3.881-1.162,4.89-.153,2.3,2.3-1.539,7.614-3.755,9.831A181.411,181.411,0,0,1,444.966,269.9Z" transform="translate(-432 -244)" fill="#0072d8"/>
      <path id="Path_3344" data-name="Path 3344" d="M440.469,252.856c-.949.948-4.913,3.375-5.862,2.429s1.481-4.912,2.429-5.86a2.427,2.427,0,0,1,3.432,3.432Z" transform="translate(-431.641 -243.289)" fill="#fdb913"/>
      <path id="Path_3345" data-name="Path 3345" d="M458.954,272.423c-.948.947-4.913,3.374-5.86,2.428s1.48-4.912,2.429-5.86a2.427,2.427,0,0,1,3.432,3.433Z" transform="translate(-428.868 -240.354)" fill="#fdb913"/>
      <path id="Path_3346" data-name="Path 3346" d="M445.213,255.807c-.948.948-4.912,3.374-5.859,2.429s1.48-4.913,2.428-5.86a2.427,2.427,0,0,1,3.432,3.432Z" transform="translate(-430.929 -242.846)" fill="#fdb913"/>
      <path id="Path_3347" data-name="Path 3347" d="M456.992,266.523c-.948.947-4.912,3.374-5.86,2.428s1.48-4.913,2.429-5.86a2.427,2.427,0,0,1,3.432,3.433Z" transform="translate(-429.163 -241.241)" fill="#fdb913"/>
    </g>
    <rect id="Rectangle_20357" data-name="Rectangle 20357" width="46" height="46" transform="translate(428 240)" fill="none"/>
  </g>
</svg>
