<svg id="explore-default" xmlns="http://www.w3.org/2000/svg" width="64" height="64" viewBox="0 0 64 64">
  <g id="installment-enclosed-filled-fullcolor" transform="translate(0 0.5)">
    <g id="Group_11156" data-name="Group 11156" transform="translate(0 -0.5)">
      <rect id="Rectangle_18007" data-name="Rectangle 18007" width="64" height="64" rx="32" fill="#0072d8"/>
    </g>
  </g>
  <g id="icon-travel" transform="translate(-419 -231)">
    <g id="Group_11919" data-name="Group 11919" transform="translate(434.974 247.746)">
      <path id="Path_3341" data-name="Path 3341" d="M354.613,272.5l-3.749-15.245a1.178,1.178,0,0,1,.337-1.138q.117-.111.21-.2c1.794-1.794,6.656-7.822,3.572-10.9s-9.061,1.726-10.9,3.572c-.064.063-.133.135-.208.214a1.182,1.182,0,0,1-1.138.336L327.5,245.382c-.032-.008-.063-.018-.093-.028a1.438,1.438,0,0,0-1.873.787,1.454,1.454,0,0,0-.1.395c-.064.63-.408,2.123.15,2.517l10.719,7.031a1.177,1.177,0,0,1,.339,1.629c-.015.022-.031.045-.047.066-1.713,2.254-3.422,4.586-4.805,6.606a1.176,1.176,0,0,1-1.013.51l-4.441-.162a1.176,1.176,0,0,0-.875.344l-1.116,1.116a1.177,1.177,0,0,0,0,1.664,1.2,1.2,0,0,0,.262.2l4.455,2.467a1.187,1.187,0,0,1,.459.459l2.467,4.455a1.178,1.178,0,0,0,1.6.46,1.2,1.2,0,0,0,.261-.2l1.113-1.113a1.175,1.175,0,0,0,.343-.882l-.194-4.59a1.174,1.174,0,0,1,.516-1.024c2-1.348,4.318-3.034,6.569-4.729a1.177,1.177,0,0,1,1.647.232c.015.02.03.041.044.063l7.058,10.759c.395.561,1.888.215,2.517.15h0a1.438,1.438,0,0,0,1.182-1.972A.542.542,0,0,1,354.613,272.5Z" transform="translate(-324 -244)" fill="#fff"/>
      <path id="Path_3344" data-name="Path 3344" d="M439.683,252.324c-.826.825-4.278,2.939-5.1,2.115s1.29-4.277,2.115-5.1a2.113,2.113,0,0,1,2.988,2.988Z" transform="translate(-431.997 -244.661)" fill="#fdb913"/>
      <path id="Path_3345" data-name="Path 3345" d="M458.168,271.891c-.825.824-4.278,2.938-5.1,2.114s1.289-4.277,2.115-5.1a2.113,2.113,0,0,1,2.988,2.989Z" transform="translate(-431.972 -244.636)" fill="#fdb913"/>
      <path id="Path_3346" data-name="Path 3346" d="M444.428,255.275c-.825.825-4.277,2.938-5.1,2.115s1.289-4.278,2.114-5.1a2.113,2.113,0,0,1,2.988,2.988Z" transform="translate(-431.99 -244.658)" fill="#fdb913"/>
      <path id="Path_3347" data-name="Path 3347" d="M456.206,265.99c-.825.824-4.277,2.938-5.1,2.114s1.289-4.278,2.115-5.1a2.113,2.113,0,0,1,2.988,2.989Z" transform="translate(-431.975 -244.644)" fill="#fdb913"/>
    </g>
    <rect id="Rectangle_20357" data-name="Rectangle 20357" width="46" height="46" transform="translate(428 240)" fill="none"/>
  </g>
</svg>
