<svg id="icon-n-viewall" xmlns="http://www.w3.org/2000/svg" width="20" height="20" viewBox="0 0 20 20">
  <g id="Group_393" data-name="Group 393">
    <rect id="Rectangle_83" data-name="Rectangle 83" width="20" height="20" fill="none"/>
  </g>
  <g id="Group_394" data-name="Group 394" transform="translate(7.743 5.855)">
    <path id="Path_301" data-name="Path 301" d="M780.548,587.6H773.8a.5.5,0,0,1,0-1h6.748a.5.5,0,1,1,0,1Z" transform="translate(-773.3 -586.6)" fill="#0072d8"/>
  </g>
  <g id="Group_395" data-name="Group 395" transform="translate(4.518 5.855)">
    <path id="Path_302" data-name="Path 302" d="M452.127,587.6H450.8a.5.5,0,1,1,0-1h1.328a.5.5,0,0,1,0,1Z" transform="translate(-450.3 -586.6)" fill="#0072d8"/>
  </g>
  <g id="Group_396" data-name="Group 396" transform="translate(7.743 9.439)">
    <path id="Path_303" data-name="Path 303" d="M780.548,946.6H773.8a.5.5,0,0,1,0-1h6.748a.5.5,0,1,1,0,1Z" transform="translate(-773.3 -945.6)" fill="#0072d8"/>
  </g>
  <g id="Group_397" data-name="Group 397" transform="translate(4.518 9.439)">
    <path id="Path_304" data-name="Path 304" d="M452.127,946.6H450.8a.5.5,0,1,1,0-1h1.328a.5.5,0,0,1,0,1Z" transform="translate(-450.3 -945.6)" fill="#0072d8"/>
  </g>
  <g id="Group_398" data-name="Group 398" transform="translate(7.743 13.023)">
    <path id="Path_305" data-name="Path 305" d="M780.548,1305.6H773.8a.5.5,0,1,1,0-1h6.748a.5.5,0,1,1,0,1Z" transform="translate(-773.3 -1304.6)" fill="#0072d8"/>
  </g>
  <g id="Group_399" data-name="Group 399" transform="translate(4.518 13.023)">
    <path id="Path_306" data-name="Path 306" d="M452.127,1305.6H450.8a.5.5,0,1,1,0-1h1.328a.5.5,0,1,1,0,1Z" transform="translate(-450.3 -1304.6)" fill="#0072d8"/>
  </g>
</svg>
