<svg xmlns="http://www.w3.org/2000/svg" xmlns:xlink="http://www.w3.org/1999/xlink" width="20" height="20" viewBox="0 0 20 20">
  <defs>
    <clipPath id="clip-path">
      <rect id="Rectangle_18078" data-name="Rectangle 18078" width="20" height="20" fill="none"/>
    </clipPath>
  </defs>
  <g id="icon-n-catalogue" clip-path="url(#clip-path)">
    <path id="Path_3195" data-name="Path 3195" d="M322.511,294.343a2.238,2.238,0,0,0,2.227,2.017h9.075a2.238,2.238,0,0,0,2.227-2.018.5.5,0,0,0,.009-.14c0-.027,0-.053,0-.08v-4.885A2.238,2.238,0,0,0,333.813,287h-9.075a2.238,2.238,0,0,0-2.238,2.238v4.885c0,.027,0,.053,0,.08a.5.5,0,0,0,.009.14m11.3,1.017h-9.075a1.24,1.24,0,0,1-1.2-.935l4.228-3.89,2.661,2.511a.5.5,0,0,0,.65.031l1.32-1.024,2.615,2.375a1.24,1.24,0,0,1-1.2.933M324.738,288h9.075a1.239,1.239,0,0,1,1.238,1.238v3.873l-2.292-2.081a.5.5,0,0,0-.643-.025l-1.314,1.019-2.689-2.536a.5.5,0,0,0-.682,0L323.5,293.1v-3.863A1.239,1.239,0,0,1,324.738,288" transform="translate(-319.275 -284.13)" fill="#0072d8"/>
    <path id="Path_3196" data-name="Path 3196" d="M335.55,1352H323a.5.5,0,1,0,0,1h12.55a.5.5,0,1,0,0-1" transform="translate(-319.275 -1338.48)" fill="#0072d8"/>
    <path id="Path_3197" data-name="Path 3197" d="M335.55,1613H323a.5.5,0,1,0,0,1h12.55a.5.5,0,1,0,0-1" transform="translate(-319.275 -1596.87)" fill="#0072d8"/>
  </g>
</svg>
