<svg id="icon-ua-share" xmlns="http://www.w3.org/2000/svg" width="25" height="25" viewBox="0 0 25 25">
  <g id="Group_357" data-name="Group 357">
    <g id="Group_356" data-name="Group 356">
      <rect id="Rectangle_75" data-name="Rectangle 75" width="25" height="25" fill="none"/>
    </g>
  </g>
  <g id="Group_358" data-name="Group 358" transform="translate(15.139 2.556)">
    <path id="Path_273" data-name="Path 273" d="M1206.236,204.358a2.479,2.479,0,1,1-1.752.726,2.46,2.46,0,0,1,1.752-.726m0-1.258a3.736,3.736,0,1,0,3.736,3.736,3.735,3.735,0,0,0-3.736-3.736Z" transform="translate(-1202.5 -203.1)" fill="#0072d8"/>
  </g>
  <g id="Group_359" data-name="Group 359" transform="translate(15.135 15.064)">
    <path id="Path_274" data-name="Path 274" d="M1205.936,1198.458a2.479,2.479,0,1,1-1.751.726,2.459,2.459,0,0,1,1.751-.726m0-1.258a3.736,3.736,0,1,0,3.736,3.736,3.736,3.736,0,0,0-3.736-3.736Z" transform="translate(-1202.2 -1197.2)" fill="#0072d8"/>
  </g>
  <g id="Group_360" data-name="Group 360" transform="translate(2.418 8.783)">
    <path id="Path_275" data-name="Path 275" d="M195.236,699.258a2.479,2.479,0,1,1-1.752.726,2.461,2.461,0,0,1,1.752-.726m0-1.258a3.736,3.736,0,1,0,3.736,3.736A3.736,3.736,0,0,0,195.236,698Z" transform="translate(-191.5 -698)" fill="#0072d8"/>
  </g>
  <g id="Group_361" data-name="Group 361" transform="translate(8.38 7.256)">
    <path id="Path_276" data-name="Path 276" d="M665.974,581.223a.629.629,0,0,1-.266-1.2l7.147-3.322a.629.629,0,0,1,.53,1.141l-7.147,3.322A.639.639,0,0,1,665.974,581.223Z" transform="translate(-665.343 -576.643)" fill="#0072d8"/>
  </g>
  <g id="Group_362" data-name="Group 362" transform="translate(8.329 13.667)">
    <path id="Path_277" data-name="Path 277" d="M669.141,1090.425a.616.616,0,0,1-.24-.048l-7.251-3.007a.629.629,0,1,1,.482-1.161l7.251,3.007a.629.629,0,0,1-.241,1.209Z" transform="translate(-661.26 -1086.16)" fill="#0072d8"/>
  </g>
</svg>
