<svg id="icon-n-location" xmlns="http://www.w3.org/2000/svg" width="24" height="24" viewBox="0 0 24 24">
  <g id="Group_4202" data-name="Group 4202">
    <rect id="Rectangle_493" data-name="Rectangle 493" width="24" height="24" fill="none"/>
  </g>
  <g id="Group_4203" data-name="Group 4203" transform="translate(5.39 2.444)">
    <path id="Path_1050" data-name="Path 1050" d="M455.8,220.475a.6.6,0,0,1-.4-.155,31.21,31.21,0,0,1-3.066-3.306,19.655,19.655,0,0,1-2.128-3.2,7.861,7.861,0,0,1-1-3.517,6.6,6.6,0,1,1,13.2,0,8.381,8.381,0,0,1-1,3.737,17.283,17.283,0,0,1-2.136,3.186,24.937,24.937,0,0,1-3.083,3.118A.574.574,0,0,1,455.8,220.475Zm0-15.576a5.407,5.407,0,0,0-5.4,5.4c0,1.555.992,3.618,2.869,5.966a31.026,31.026,0,0,0,2.55,2.8,25.1,25.1,0,0,0,2.533-2.626c1.3-1.571,2.849-3.912,2.849-6.142A5.408,5.408,0,0,0,455.8,204.9Z" transform="translate(-449.2 -203.7)" fill="#0072d8"/>
  </g>
  <g id="Group_4204" data-name="Group 4204" transform="translate(5.392 20.347)">
    <path id="Path_1051" data-name="Path 1051" d="M461.9,1696.8h-12a.6.6,0,1,1,0-1.2h12a.6.6,0,1,1,0,1.2Z" transform="translate(-449.3 -1695.6)" fill="#0072d8"/>
  </g>
  <g id="Group_4205" data-name="Group 4205" transform="translate(8.908 5.935)">
    <path id="Path_1052" data-name="Path 1052" d="M745.39,500.78a3.089,3.089,0,1,1,2.185-.9A3.073,3.073,0,0,1,745.39,500.78Zm0-4.98a1.89,1.89,0,1,0,1.89,1.89A1.893,1.893,0,0,0,745.39,495.8Z" transform="translate(-742.3 -494.6)" fill="#0072d8"/>
  </g>
</svg>
