<svg id="icon-ua-contact" xmlns="http://www.w3.org/2000/svg" width="24" height="24" viewBox="0 0 24 24">
  <g id="Group_6835" data-name="Group 6835" transform="translate(3.911 3.347)">
    <path id="Path_1977" data-name="Path 1977" d="M-6140.125,5616.6a12,12,0,0,1-5.977-1.6,11.891,11.891,0,0,1-3.273-2.773,11.925,11.925,0,0,1-2.133-3.9,12.053,12.053,0,0,1-.562-4.406,11.859,11.859,0,0,1,1.023-4.164,1.49,1.49,0,0,1,1.359-.883h2.68a1.569,1.569,0,0,1,1.57,1.563v3.133a1.407,1.407,0,0,1-.508,1.078l-1.477,1.211a8.2,8.2,0,0,0,.313,1.43,7.367,7.367,0,0,0,4.578,4.688l1.227-1.8a.6.6,0,0,1,.5-.266h3.227a1.655,1.655,0,0,1,1.2.508,1.649,1.649,0,0,1,.469,1.2l-.07,2.664a2.234,2.234,0,0,1-.5,1.336,2.19,2.19,0,0,1-1.219.727A12.138,12.138,0,0,1-6140.125,5616.6Zm-9.562-16.523a.289.289,0,0,0-.266.172,10.709,10.709,0,0,0-.406,7.7,10.737,10.737,0,0,0,12.406,7.227.966.966,0,0,0,.766-.922l.07-2.664a.441.441,0,0,0-.125-.336.486.486,0,0,0-.336-.141h-2.914l-1.3,1.9a.6.6,0,0,1-.664.242,8.746,8.746,0,0,1-3.547-2.023,8.767,8.767,0,0,1-1.328-1.617,8.493,8.493,0,0,1-.922-1.961,8.5,8.5,0,0,1-.375-1.812.258.258,0,0,1,0-.109.591.591,0,0,1,.2-.6l1.719-1.414a.192.192,0,0,0,.07-.148v-3.133a.36.36,0,0,0-.367-.359Z" transform="translate(6152.09 -5598.875)" fill="#0072d8"/>
  </g>
  <rect id="Rectangle_1259" data-name="Rectangle 1259" width="24" height="24" fill="none"/>
</svg>
