<svg xmlns="http://www.w3.org/2000/svg" xmlns:xlink="http://www.w3.org/1999/xlink" width="123" height="108" viewBox="0 0 123 108">
  <defs>
    <clipPath id="clip-path">
      <rect id="Rectangle_22030" data-name="Rectangle 22030" width="123" height="108" rx="8" transform="translate(117.416 392)" fill="#e5f5ff"/>
    </clipPath>
  </defs>
  <g id="img-bdorewards-desktop" transform="translate(-117.416 -392)" clip-path="url(#clip-path)">
    <g id="visual" transform="matrix(0.966, -0.259, 0.259, 0.966, 120.527, 405.235)">
      <path id="Path_9452" data-name="Path 9452" d="M66.253,0c36.591,0,66.253,30.773,66.253,68.734s-29.663,68.734-66.253,68.734S0,106.7,0,68.734,29.663,0,66.253,0Z" transform="translate(14.151 -9.659)" fill="#7eb7eb" opacity="0.392"/>
      <g id="voucher" transform="translate(-59.544 -316.137) rotate(22)">
        <path id="Path_8689" data-name="Path 8689" d="M286.186,288.09c0-2.383,2.363-4.314,4.746-4.314v-7.55H252.966v23.729h37.966V292.4C288.549,292.4,286.186,290.473,286.186,288.09Z" transform="translate(0 0.362)" fill="#ff9854" stroke="#1e4ea2" stroke-linecap="round" stroke-linejoin="round" stroke-width="1"/>
        <g id="peso" transform="translate(267.029 283.447)">
          <path id="Path_8690" data-name="Path 8690" d="M283.234,298.725v-9.017a.475.475,0,0,1,.475-.475h3.322a2.847,2.847,0,1,1,0,5.695h-.949" transform="translate(-281.337 -289.234)" fill="none" stroke="#fff" stroke-linecap="round" stroke-linejoin="round" stroke-width="2"/>
          <line id="Line_2390" data-name="Line 2390" x1="1.898" transform="translate(8.542 2.966)" fill="none" stroke="#fff" stroke-linecap="round" stroke-linejoin="round" stroke-width="2"/>
          <line id="Line_2391" data-name="Line 2391" x1="1.898" transform="translate(0 2.965)" fill="none" stroke="#fff" stroke-linecap="round" stroke-linejoin="round" stroke-width="2"/>
        </g>
        <line id="perforation" y1="19.997" transform="translate(259.248 277.002)" fill="none" stroke="#1e4ea2" stroke-linecap="round" stroke-linejoin="round" stroke-width="1" stroke-dasharray="3"/>
      </g>
      <g id="paper_bills_2-filledoutline" transform="matrix(0.966, 0.259, -0.259, 0.966, -282.375, -447.327)">
        <g id="Group_20642" data-name="Group 20642" transform="matrix(0.951, 0.309, -0.309, 0.951, 438.059, 355.802)">
          <path id="Path_8912" data-name="Path 8912" d="M1.366,12.429,0,1.108A.641.641,0,0,1,.564.4h0L3.615.028A3.832,3.832,0,0,1,7.878,3.374h0A3.833,3.833,0,0,1,4.531,7.639h0l-.18.021" transform="translate(43.094 60.051)" fill="none" stroke="#fff" stroke-linecap="round" stroke-linejoin="round" stroke-width="4"/>
          <line id="Line_2450" data-name="Line 2450" x1="3.109" y2="0.374" transform="translate(40.371 64.329)" fill="none" stroke="#fff" stroke-linecap="round" stroke-linejoin="round" stroke-width="4"/>
          <line id="Line_2451" data-name="Line 2451" x1="3.109" y2="0.374" transform="translate(50.972 63.054)" fill="none" stroke="#fff" stroke-linecap="round" stroke-linejoin="round" stroke-width="4"/>
          <path id="Path_8913" data-name="Path 8913" d="M1.442,16.079,68.014.053a1.882,1.882,0,0,1,2.27,1.39L77.954,33.3a1.882,1.882,0,0,1-1.39,2.271L9.993,51.6a1.882,1.882,0,0,1-2.271-1.39L.053,18.35a1.883,1.883,0,0,1,1.39-2.271" transform="translate(12.864 29.722)" fill="#99c1e7"/>
          <path id="Path_8914" data-name="Path 8914" d="M1.442,16.079,68.014.053a1.882,1.882,0,0,1,2.27,1.39L77.954,33.3a1.882,1.882,0,0,1-1.39,2.271L9.993,51.6a1.882,1.882,0,0,1-2.271-1.39L.053,18.35A1.883,1.883,0,0,1,1.442,16.079Z" transform="translate(12.864 29.722)" fill="none" stroke="#004ea8" stroke-linecap="round" stroke-linejoin="round" stroke-width="1"/>
          <path id="Path_8915" data-name="Path 8915" d="M12.506,0A12.506,12.506,0,1,1,0,12.506,12.506,12.506,0,0,1,12.506,0" transform="translate(39.373 43.033)" fill="#0072d8"/>
          <ellipse id="Ellipse_2143" data-name="Ellipse 2143" cx="12.506" cy="12.506" rx="12.506" ry="12.506" transform="matrix(0.181, -0.983, 0.983, 0.181, 37.317, 65.574)" fill="none" stroke="#0072d8" stroke-linecap="round" stroke-linejoin="round" stroke-width="1"/>
          <path id="Path_8916" data-name="Path 8916" d="M2.69,12.687.018,1.6A.64.64,0,0,1,.489.828h0L3.478.107a3.833,3.833,0,0,1,1.8,7.453h0L5.1,7.6" transform="translate(47.4 49.477)" fill="none" stroke="#fff" stroke-linecap="round" stroke-linejoin="round" stroke-width="1"/>
          <line id="Line_2452" data-name="Line 2452" x1="3.044" y2="0.734" transform="translate(45.123 54.183)" fill="none" stroke="#fff" stroke-linecap="round" stroke-linejoin="round" stroke-width="1"/>
          <line id="Line_2453" data-name="Line 2453" x1="3.044" y2="0.734" transform="translate(55.503 51.681)" fill="none" stroke="#fff" stroke-linecap="round" stroke-linejoin="round" stroke-width="1"/>
          <path id="Path_8917" data-name="Path 8917" d="M1.293,21.6,66.358.1a1.885,1.885,0,0,1,2.38,1.2L79.029,32.429a1.884,1.884,0,0,1-1.2,2.38L12.767,56.315a1.884,1.884,0,0,1-2.38-1.2L.1,23.981a1.884,1.884,0,0,1,1.2-2.38" transform="translate(17.171 17.113)" fill="#e5f5ff"/>
          <path id="Path_8918" data-name="Path 8918" d="M1.293,21.6,66.358.1a1.885,1.885,0,0,1,2.38,1.2L79.029,32.429a1.884,1.884,0,0,1-1.2,2.38L12.767,56.315a1.884,1.884,0,0,1-2.38-1.2L.1,23.981A1.884,1.884,0,0,1,1.293,21.6Z" transform="translate(17.171 17.113)" fill="none" stroke="#004ea8" stroke-linecap="round" stroke-linejoin="round" stroke-width="1.001"/>
          <path id="Path_8919" data-name="Path 8919" d="M1.293,21.6,66.358.1a1.885,1.885,0,0,1,2.38,1.2L79.029,32.429a1.884,1.884,0,0,1-1.2,2.38L12.767,56.315a1.884,1.884,0,0,1-2.38-1.2L.1,23.981a1.884,1.884,0,0,1,1.2-2.38" transform="translate(17.171 17.113)" fill="#fff"/>
          <path id="Path_8920" data-name="Path 8920" d="M1.293,21.6,66.358.1a1.885,1.885,0,0,1,2.38,1.2L79.029,32.429a1.884,1.884,0,0,1-1.2,2.38L12.767,56.315a1.884,1.884,0,0,1-2.38-1.2L.1,23.981A1.884,1.884,0,0,1,1.293,21.6Z" transform="translate(17.171 17.113)" fill="none" stroke="#004ea8" stroke-linecap="round" stroke-linejoin="round" stroke-width="1"/>
          <path id="Path_8921" data-name="Path 8921" d="M69.825,28.028,9.978,47.8a1.073,1.073,0,0,1-1.356-.683L.055,21.181a1.073,1.073,0,0,1,.683-1.356L60.584.055A1.074,1.074,0,0,1,61.94.737l8.568,25.935A1.074,1.074,0,0,1,69.825,28.028Z" transform="translate(21.43 21.394)" fill="none" stroke="#99c1e7" stroke-linecap="round" stroke-linejoin="round" stroke-width="1"/>
          <path id="Path_8922" data-name="Path 8922" d="M12.506,0A12.506,12.506,0,1,1,0,12.506,12.506,12.506,0,0,1,12.506,0" transform="translate(44.205 32.815)" fill="#fdb913"/>
          <ellipse id="Ellipse_2144" data-name="Ellipse 2144" cx="12.506" cy="12.506" rx="12.506" ry="12.506" transform="matrix(0.181, -0.983, 0.983, 0.181, 42.148, 55.356)" fill="none" stroke="#fdb913" stroke-linecap="round" stroke-linejoin="round" stroke-width="2"/>
          <path id="Path_8923" data-name="Path 8923" d="M3.609,12.794.033,1.968a.64.64,0,0,1,.406-.809h0L3.357.194a3.833,3.833,0,1,1,2.4,7.278L5.59,7.53" transform="translate(51.865 39.276)" fill="none" stroke="#0072d8" stroke-linecap="round" stroke-linejoin="round" stroke-width="3"/>
          <line id="Line_2454" data-name="Line 2454" x1="2.973" y2="0.982" transform="translate(49.926 44.275)" fill="none" stroke="#0072d8" stroke-linecap="round" stroke-linejoin="round" stroke-width="3"/>
          <line id="Line_2455" data-name="Line 2455" x1="2.973" y2="0.982" transform="translate(60.065 40.926)" fill="none" stroke="#0072d8" stroke-linecap="round" stroke-linejoin="round" stroke-width="3"/>
          <path id="Path_8924" data-name="Path 8924" d="M3.545,0A3.545,3.545,0,1,1,0,3.545,3.546,3.546,0,0,1,3.545,0" transform="translate(33.555 48.503)" fill="#99c1e7"/>
          <path id="Path_8925" data-name="Path 8925" d="M3.545,0A3.545,3.545,0,1,1,0,3.545,3.546,3.546,0,0,1,3.545,0" transform="translate(72.558 35.83)" fill="#99c1e7"/>
        </g>
      </g>
      <g id="cards" transform="translate(-8.807 -15.584)">
        <g id="Group_20618" data-name="Group 20618" transform="translate(24.517 11.875) rotate(30)">
          <g id="Rectangle_22022" data-name="Rectangle 22022" transform="translate(0 0)" fill="#25aa6d" stroke="#006942" stroke-linecap="round" stroke-linejoin="round" stroke-width="1">
            <rect width="63.144" height="39.494" rx="4" stroke="none"/>
            <rect x="0.5" y="0.5" width="62.144" height="38.494" rx="3.5" fill="none"/>
          </g>
          <g id="BDOonBlue" transform="translate(5.31 5.438)">
            <g id="Group_4058" data-name="Group 4058" transform="translate(11.987 0)">
              <path id="Path_964" data-name="Path 964" d="M3.765,0a3.458,3.458,0,1,0,0,6.889A3.458,3.458,0,1,0,3.765,0Zm0,6.067c-1.509,0-2.144-1.236-2.144-2.623S2.257.822,3.765.822,5.91,2.057,5.91,3.444,5.274,6.067,3.765,6.067Z" transform="translate(0 0)" fill="#fff"/>
            </g>
            <path id="Path_965" data-name="Path 965" d="M8.846,0H6.294V3.938A1.769,1.769,0,0,0,4.917,2.96a1.422,1.422,0,0,0,.846-1.354C5.764.636,5.13,0,3.634,0H0V6.492H3.964c1.178,0,2.017-.331,2.331-1.111V6.492h2.55c1.777,0,2.984-.537,3.568-1.55a3.41,3.41,0,0,1-.427-1.694,3.4,3.4,0,0,1,.428-1.7C11.83.537,10.623,0,8.846,0ZM1.526.86H3.032c.772,0,1.144.369,1.144.939s-.371.938-1.144.938H1.527V.86ZM3.6,5.632H1.528V3.6H3.6c.837,0,1.239.4,1.239,1.016S4.441,5.632,3.6,5.632Zm5.062,0H7.822V.86h.845A2.219,2.219,0,0,1,11.2,3.246,2.219,2.219,0,0,1,8.667,5.632Z" transform="translate(0 0.196)" fill="#fff"/>
          </g>
          <g id="Group_20614" data-name="Group 20614" transform="translate(5.464 25.301)">
            <rect id="Rectangle_22024" data-name="Rectangle 22024" width="10.929" height="3.703" rx="1.851" transform="translate(0 0)" fill="#006942"/>
            <rect id="Rectangle_22025" data-name="Rectangle 22025" width="10.322" height="3.703" rx="1.851" transform="translate(12.75 0)" fill="#006942"/>
            <rect id="Rectangle_22026" data-name="Rectangle 22026" width="10.322" height="3.703" rx="1.851" transform="translate(24.893 0)" fill="#006942"/>
            <rect id="Rectangle_22027" data-name="Rectangle 22027" width="10.929" height="3.703" rx="1.851" transform="translate(37.644 0)" fill="#006942"/>
            <rect id="Rectangle_22028" data-name="Rectangle 22028" width="30.358" height="3.085" rx="1.543" transform="translate(0 7.406)" fill="#006942"/>
          </g>
        </g>
        <g id="Group_20613" data-name="Group 20613" transform="matrix(0.94, 0.342, -0.342, 0.94, 9.421, 31.896)">
          <g id="Path_9453" data-name="Path 9453" transform="translate(0 0)" fill="#004ea8" stroke-linecap="round">
            <path d="M 5.823709011077881 41.50550079345703 C 4.38533878326416 41.50550079345703 3.040288925170898 40.94808197021484 2.036329030990601 39.93594360351562 C 1.03407895565033 38.92552185058594 0.4885289669036865 37.57870101928711 0.5001789927482605 36.14356231689453 L 0.7414589524269104 6.418132305145264 C 0.7657290101051331 3.428502321243286 3.220748901367188 0.9765223264694214 6.214098930358887 0.9522523283958435 L 61.97386932373047 0.5001823306083679 L 62.01887893676758 0.5000023245811462 C 63.45724868774414 0.5000023245811462 64.80230712890625 1.057422280311584 65.80626678466797 2.06957221031189 C 66.80851745605469 3.079982280731201 67.35407257080078 4.426802158355713 67.34242248535156 5.861942291259766 L 67.10113525390625 35.58737182617188 C 67.07686614990234 38.57699203491211 64.62184906005859 41.02897262573242 61.62847900390625 41.05324172973633 L 5.868719100952148 41.50532150268555 L 5.823709011077881 41.50550079345703 Z" stroke="none"/>
            <path d="M 62.01884841918945 0.9999923706054688 L 61.97792053222656 1.000164031982422 L 6.218158721923828 1.452243804931641 C 3.496047973632812 1.474311828613281 1.263496398925781 3.703823089599609 1.241447448730469 6.422191619873047 L 1.000167846679688 36.14762115478516 C 0.9896087646484375 37.44844055175781 1.483657836914062 38.66877365112305 2.391311645507812 39.58382415771484 C 3.300682067871094 40.50060272216797 4.519657135009766 41.00550079345703 5.823707580566406 41.00550079345703 L 5.864658355712891 41.00533294677734 L 61.62442016601562 40.55325317382812 C 64.34654235839844 40.53118133544922 66.57908630371094 38.30167388916016 66.60115051269531 35.58330154418945 L 66.84243011474609 5.857883453369141 C 66.85298919677734 4.556953430175781 66.35897064208984 3.336593627929688 65.45137023925781 2.421592712402344 C 64.54204559326172 1.504863739013672 63.32302093505859 0.9999923706054688 62.01884841918945 0.9999923706054688 M 62.01885223388672 -7.62939453125e-06 C 65.26618194580078 -7.62939453125e-06 67.8687744140625 2.616050720214844 67.84239959716797 5.866001129150391 L 67.60111999511719 35.59142303466797 C 67.57460784912109 38.8575325012207 64.90238189697266 41.52671051025391 61.63253021240234 41.55322265625 L 5.872768402099609 42.00530242919922 C 2.603157043457031 42.03181076049805 -0.02631378173828125 39.40560531616211 0.0001983642578125 36.13950347900391 L 0.2414779663085938 6.414073944091797 C 0.2679824829101562 3.147972106933594 2.940208435058594 0.4787826538085938 6.210048675537109 0.4522705078125 L 61.96981048583984 0.00019073486328125 C 61.9859733581543 6.103515625e-05 62.00271606445312 -7.62939453125e-06 62.01885223388672 -7.62939453125e-06 Z" stroke="none" fill="#003a7c"/>
          </g>
          <g id="BDOonBlue-2" data-name="BDOonBlue" transform="translate(5.871 6.039)">
            <g id="Group_4058-2" data-name="Group 4058" transform="translate(12.86 0)">
              <path id="Path_964-2" data-name="Path 964" d="M4.061,0C1.821.018.018,1.423,0,3.657s1.762,3.61,4,3.592S8.046,5.824,8.064,3.591,6.3-.018,4.061,0ZM4.009,6.383C2.394,6.4,1.724,5.1,1.736,3.643S2.438.878,4.054.865s2.286,1.281,2.274,2.74S5.624,6.37,4.009,6.383Z" transform="translate(0 0)" fill="#fff"/>
            </g>
            <path id="Path_965-2" data-name="Path 965" d="M9.525,0,6.794.022,6.76,4.166A1.853,1.853,0,0,0,5.295,3.148a1.524,1.524,0,0,0,.918-1.431C6.221.7,5.548.033,3.946.046h0L.055.078,0,6.907l4.244-.034c1.261-.01,2.162-.366,2.5-1.189L6.739,6.853l2.73-.022c1.9-.015,3.2-.591,3.833-1.661A3.5,3.5,0,0,1,12.86,3.39,3.567,3.567,0,0,1,13.333,1.6C12.716.539,11.428-.015,9.525,0ZM1.682.969,3.294.956c.827-.007,1.221.379,1.216.978s-.405.99-1.232,1l-1.611.013L1.683.969Zm2.184,5-2.223.018L1.66,3.85l2.223-.018c.9-.007,1.323.409,1.317,1.058S4.762,5.964,3.866,5.971Zm5.419-.044-.9.007L8.422.914l.9-.007c1.934-.016,2.705,1.047,2.694,2.488s-.8,2.517-2.734,2.532Z" transform="translate(0 0.266)" fill="#fff"/>
          </g>
          <g id="Group_20609" data-name="Group 20609" transform="translate(5.847 26.667)">
            <path id="Path_9455" data-name="Path 9455" d="M1.966.063,9.766,0A1.911,1.911,0,0,1,11.7,1.932,1.988,1.988,0,0,1,9.734,3.9l-7.8.063A1.911,1.911,0,0,1,0,2.027,1.988,1.988,0,0,1,1.966.063Z" transform="translate(0.061 0.327)" fill="#2683ef"/>
            <path id="Path_9456" data-name="Path 9456" d="M1.966.058,9.116,0A1.911,1.911,0,0,1,11.05,1.932,1.988,1.988,0,0,1,9.084,3.9l-7.15.058A1.911,1.911,0,0,1,0,2.022,1.988,1.988,0,0,1,1.966.058Z" transform="translate(13.711 0.221)" fill="#2683ef"/>
            <path id="Path_9457" data-name="Path 9457" d="M1.966.058,9.116,0A1.911,1.911,0,0,1,11.05,1.932,1.988,1.988,0,0,1,9.084,3.9l-7.15.058A1.911,1.911,0,0,1,0,2.022,1.988,1.988,0,0,1,1.966.058Z" transform="translate(26.711 0.116)" fill="#2683ef"/>
            <path id="Path_9458" data-name="Path 9458" d="M1.966.063,9.766,0A1.911,1.911,0,0,1,11.7,1.932,1.988,1.988,0,0,1,9.734,3.9l-7.8.063A1.911,1.911,0,0,1,0,2.027,1.988,1.988,0,0,1,1.966.063Z" transform="translate(40.361 0)" fill="#2683ef"/>
            <path id="Path_9459" data-name="Path 9459" d="M1.638.237,30.889,0A1.593,1.593,0,0,1,32.5,1.61a1.656,1.656,0,0,1-1.638,1.636l-29.25.237A1.593,1.593,0,0,1,0,1.874,1.656,1.656,0,0,1,1.638.237Z" transform="translate(0 7.947)" fill="#2683ef"/>
          </g>
        </g>
        <g id="Group_20620" data-name="Group 20620" transform="translate(-2.507 58.399) rotate(3)">
          <g id="Path_9471" data-name="Path 9471" transform="translate(0 0)" fill="#e2e2e2" stroke-linecap="round">
            <path d="M 6.486182689666748 41.79356384277344 C 4.863722801208496 41.79356384277344 3.345602750778198 41.1677360534668 2.211462736129761 40.03134536743164 C 1.104732632637024 38.92242431640625 0.4969326853752136 37.45422744750977 0.5000126957893372 35.89719390869141 L 0.5581826567649841 6.534145832061768 C 0.5646326541900635 3.274245738983154 3.267762660980225 0.6168657541275024 6.583902835845947 0.6104057431221008 L 63.19795227050781 0.5000157356262207 L 63.21015167236328 0.5000057220458984 C 64.83262634277344 0.5000057220458984 66.35076141357422 1.125845789909363 67.48490142822266 2.262245655059814 C 68.59162902832031 3.371165752410889 69.19942474365234 4.83936595916748 69.19633483886719 6.39637565612793 L 69.13817596435547 35.75942611694336 C 69.13172149658203 39.01932525634766 66.42858123779297 41.67670440673828 63.11244201660156 41.68316650390625 L 6.49840259552002 41.79355621337891 L 6.486182689666748 41.79356384277344 Z" stroke="none"/>
            <path d="M 63.21015167236328 0.9999961853027344 L 63.19893264770508 1.000007629394531 L 6.584880828857422 1.110404968261719 C 3.543365478515625 1.116336822509766 1.064094543457031 3.549854278564453 1.058181762695312 6.535125732421875 L 1.000015258789062 35.89818572998047 C 0.9971923828125 37.32146453857422 1.553115844726562 38.66387557983398 2.565361022949219 39.67813491821289 C 3.605033874511719 40.71986389160156 4.997482299804688 41.29356384277344 6.486202239990234 41.29356384277344 L 6.497421264648438 41.29355621337891 L 63.1114616394043 41.18316650390625 C 66.15298461914062 41.1772346496582 68.63225555419922 38.74371719360352 68.63816070556641 35.7584342956543 L 68.69631958007812 6.395374298095703 C 68.69915008544922 4.97210693359375 68.14324188232422 3.629707336425781 67.13100433349609 2.615444183349609 C 66.09133148193359 1.573707580566406 64.69888305664062 0.9999961853027344 63.21015167236328 0.9999961853027344 M 63.21015548706055 -7.62939453125e-06 C 66.80059051513672 -7.62939453125e-06 69.70335388183594 2.861518859863281 69.69631958007812 6.397365570068359 L 69.63816070556641 35.76041412353516 C 69.63114929199219 39.30058670043945 66.70991516113281 42.17615509033203 63.11341094970703 42.18316650390625 L 6.499374389648438 42.29355621337891 C 2.901374816894531 42.30056762695312 -0.00699615478515625 39.43637466430664 1.52587890625e-05 35.89620590209961 L 0.0581817626953125 6.533145904541016 C 0.06519317626953125 2.992977142333984 2.986419677734375 0.1174163818359375 6.582931518554688 0.1104049682617188 L 63.19698333740234 7.62939453125e-06 C 63.20137405395508 -3.814697265625e-06 63.20576858520508 -7.62939453125e-06 63.21015548706055 -7.62939453125e-06 Z" stroke="none" fill="#4d4d4d"/>
          </g>
          <g id="BDOonBlue-3" data-name="BDOonBlue" transform="translate(5.902 5.887)">
            <g id="Group_4058-3" data-name="Group 4058" transform="translate(13.226 0)">
              <path id="Path_964-3" data-name="Path 964" d="M4.16,0C1.853,0,0,1.419,0,3.687S1.838,7.362,4.145,7.358,8.3,5.937,8.307,3.671,6.469,0,4.16,0ZM4.147,6.48c-1.664,0-2.362-1.316-2.359-2.8S2.494.881,4.158.878s2.363,1.314,2.36,2.8S5.811,6.477,4.147,6.48Z" transform="translate(0 0)" fill="#231f20"/>
            </g>
            <path id="Path_965-3" data-name="Path 965" d="M9.769,0,6.956.006,6.947,4.212A1.939,1.939,0,0,0,5.431,3.169a1.522,1.522,0,0,0,.936-1.447c0-1.036-.7-1.713-2.346-1.71h0L.014.02,0,6.953l4.371-.009c1.3,0,2.225-.358,2.573-1.192l0,1.187,2.813-.005c1.959,0,3.292-.58,3.939-1.663a3.539,3.539,0,0,1-.467-1.809A3.546,3.546,0,0,1,13.7,1.65C13.059.567,11.729,0,9.769,0ZM1.695.935l1.661,0c.852,0,1.26.392,1.259,1s-.411,1-1.263,1l-1.66,0L1.7.935ZM3.977,6.027l-2.29,0,0-2.172,2.29,0c.923,0,1.365.423,1.364,1.083S4.9,6.025,3.977,6.027ZM9.56,6.016l-.931,0,.01-5.1.931,0c1.993,0,2.794,1.08,2.791,2.542s-.807,2.55-2.8,2.554Z" transform="translate(0 0.224)" fill="#231f20"/>
          </g>
          <path id="Path_9472" data-name="Path 9472" d="M2.013.017,10.717,0a1.984,1.984,0,0,1,2,1.973A2,2,0,0,1,10.71,3.955L2,3.972A1.984,1.984,0,0,1,0,2,2,2,0,0,1,2.013.017Z" transform="translate(52.284 5.933)" fill="#adadad"/>
          <g id="Group_20619" data-name="Group 20619" transform="translate(6.025 27.034)">
            <path id="Path_9473" data-name="Path 9473" d="M2.013.016,10.048,0a1.984,1.984,0,0,1,2,1.973A2,2,0,0,1,10.04,3.955L2,3.97A1.984,1.984,0,0,1,0,2,2,2,0,0,1,2.013.016Z" transform="translate(0.015 0.081)" fill="#adadad"/>
            <path id="Path_9474" data-name="Path 9474" d="M2.013.014,9.378,0a1.984,1.984,0,0,1,2,1.973A2,2,0,0,1,9.37,3.955L2,3.969A1.984,1.984,0,0,1,0,2,2,2,0,0,1,2.013.014Z" transform="translate(14.077 0.055)" fill="#adadad"/>
            <path id="Path_9475" data-name="Path 9475" d="M2.013.014,9.378,0a1.984,1.984,0,0,1,2,1.973A2,2,0,0,1,9.37,3.955L2,3.969A1.984,1.984,0,0,1,0,2,2,2,0,0,1,2.013.014Z" transform="translate(27.469 0.029)" fill="#adadad"/>
            <path id="Path_9476" data-name="Path 9476" d="M2.013.016,10.048,0a1.984,1.984,0,0,1,2,1.973A2,2,0,0,1,10.04,3.955L2,3.97A1.984,1.984,0,0,1,0,2,2,2,0,0,1,2.013.016Z" transform="translate(41.53 0)" fill="#adadad"/>
            <path id="Path_9477" data-name="Path 9477" d="M1.677.059,31.809,0A1.653,1.653,0,0,1,33.48,1.645,1.669,1.669,0,0,1,31.8,3.3L1.671,3.354A1.653,1.653,0,0,1,0,1.71,1.669,1.669,0,0,1,1.677.059Z" transform="translate(0 7.948)" fill="#adadad"/>
          </g>
        </g>
        <path id="Path_9486" data-name="Path 9486" d="M5.717,11.243C5.682,5.52,5.551,5.621,0,5.587,5.6,5.621,5.683,5.626,5.649,0c.035,5.679.116,5.622,5.718,5.656C5.711,5.622,5.683,5.573,5.717,11.243Z" transform="matrix(0.695, -0.719, 0.719, 0.695, 60.021, 55.746)" fill="#fff" stroke="#fff" stroke-linecap="round" stroke-linejoin="round" stroke-width="1"/>
        <path id="Path_9521" data-name="Path 9521" d="M3.475,6.834C3.454,3.355,3.374,3.416,0,3.4c3.406.02,3.454.024,3.433-3.4.021,3.452.07,3.417,3.475,3.438C3.471,3.417,3.454,3.387,3.475,6.834Z" transform="translate(72.19 43.216) rotate(-24)" fill="#fff" stroke="#fff" stroke-linecap="round" stroke-linejoin="round" stroke-width="1"/>
      </g>
      <g id="Ellipse_2153" data-name="Ellipse 2153" transform="translate(101.164 26.484)" fill="none" stroke="#fff" stroke-width="1">
        <ellipse cx="3.246" cy="3.194" rx="3.246" ry="3.194" stroke="none"/>
        <ellipse cx="3.246" cy="3.194" rx="2.746" ry="2.694" fill="none"/>
      </g>
      <g id="Ellipse_2154" data-name="Ellipse 2154" transform="translate(97.269 122.251)" fill="none" stroke="#fff" stroke-width="1">
        <ellipse cx="4.246" cy="4.194" rx="4.246" ry="4.194" stroke="none"/>
        <ellipse cx="4.246" cy="4.194" rx="3.746" ry="3.694" fill="none"/>
      </g>
      <g id="Group_11418" data-name="Group 11418" transform="translate(76.435 19.828) rotate(-2)">
        <g id="Group_4286" data-name="Group 4286" transform="translate(3.423 0.68)">
          <g id="Path_1111" data-name="Path 1111">
            <path id="Path_3225" data-name="Path 3225" d="M0,0" fill="#1e4ea2"/>
          </g>
        </g>
        <g id="Group_11412" data-name="Group 11412" transform="translate(2.911 0.014)">
          <path id="Path_3226" data-name="Path 3226" d="M6.148,13.954H6.141A.709.709,0,0,1,5.5,13.53L.057.961A.683.683,0,0,1,.116.308.7.7,0,0,1,.7,0h0L11.807.032A.711.711,0,0,1,12.4.35a.685.685,0,0,1,.054.66L6.79,13.546A.7.7,0,0,1,6.148,13.954ZM1.766,1.388,6.157,11.527,10.725,1.415Z" transform="translate(0 0)" fill="#1e4ea2"/>
        </g>
        <g id="Group_11413" data-name="Group 11413" transform="translate(0 0.015)">
          <path id="Path_3227" data-name="Path 3227" d="M9.058,13.954a.71.71,0,0,1-.5-.209L.2,5.341a.685.685,0,0,1-.079-.877L3.033.3A.708.708,0,0,1,4.01.124a.687.687,0,0,1,.183.963L1.61,4.785l7.947,7.994a.685.685,0,0,1-.008.981A.7.7,0,0,1,9.058,13.954Z" transform="translate(0 0)" fill="#1e4ea2"/>
        </g>
        <g id="Group_11414" data-name="Group 11414" transform="translate(0.12 4.183)">
          <path id="Path_3228" data-name="Path 3228" d="M17.394,1.431.705,1.385A.7.7,0,0,1,0,.69.693.693,0,0,1,.7,0L17.391.046A.7.7,0,0,1,18.1.74a.693.693,0,0,1-.7.691Z" transform="translate(0 0)" fill="#1e4ea2"/>
        </g>
        <g id="Group_11415" data-name="Group 11415" transform="translate(4.827 0)">
          <path id="Path_3229" data-name="Path 3229" d="M.7,5.581a.709.709,0,0,1-.636-.4.682.682,0,0,1,.09-.735L3.652.252a.71.71,0,0,1,.99-.094.686.686,0,0,1,.1.975l-3.494,4.2A.7.7,0,0,1,.7,5.581Z" fill="#1e4ea2"/>
        </g>
        <g id="Group_11416" data-name="Group 11416" transform="translate(8.657 0.045)">
          <path id="Path_3230" data-name="Path 3230" d="M.7,13.925A.708.708,0,0,1,.056,13.5.683.683,0,0,1,.2,12.747L8.1,4.8,5.5,1.084A.684.684,0,0,1,5.675.121.712.712,0,0,1,6.654.3L9.588,4.485a.683.683,0,0,1-.074.876L1.207,13.718A.7.7,0,0,1,.7,13.925Z" transform="translate(0 0)" fill="#1e4ea2"/>
        </g>
        <g id="Group_11417" data-name="Group 11417" transform="translate(8.619 0.001)">
          <path id="Path_3231" data-name="Path 3231" d="M4.223,5.6a.711.711,0,0,1-.545-.255L.161,1.13A.684.684,0,0,1,.255.156a.712.712,0,0,1,.99.1L4.763,4.47a.685.685,0,0,1,.094.735A.7.7,0,0,1,4.223,5.6Z" fill="#1e4ea2"/>
        </g>
      </g>
      <path id="Path_9523" data-name="Path 9523" d="M2.679,5.269C2.663,2.587,2.6,2.634,0,2.618,2.626,2.634,2.663,2.637,2.647,0c.016,2.661.054,2.635,2.679,2.65C2.676,2.634,2.663,2.612,2.679,5.269Z" transform="matrix(0.848, 0.53, -0.53, 0.848, 67.913, 14.851)" fill="#fff" stroke="#fff" stroke-linecap="round" stroke-linejoin="round" stroke-width="1"/>
    </g>
  </g>
</svg>
