<svg xmlns="http://www.w3.org/2000/svg" xmlns:xlink="http://www.w3.org/1999/xlink" width="158" height="183" viewBox="0 0 158 183"><defs><style>.a{fill:#e5f5ff;}.b{clip-path:url(#a);}.c{fill:#7eb7eb;opacity:0.392;}.d{fill:#004ea8;}.d,.g,.i,.m,.n,.o,.q{stroke-linecap:round;}.e,.q{fill:#fff;}.f{fill:#2683ef;}.g{fill:#25aa6d;stroke:#006942;}.g,.m,.n,.q{stroke-linejoin:round;}.g,.l,.m,.n,.o,.q{stroke-width:2px;}.h{fill:#006942;}.i{fill:#e2e2e2;}.j{fill:#231f20;}.k{fill:#adadad;}.l,.n,.o,.t{fill:none;}.l,.o{stroke:#76b0de;}.m{fill:#fdb913;stroke:#004ea8;}.n,.q{stroke:#fff;}.p{fill:#76b0de;}.r,.s,.u{stroke:none;}.s{fill:#003a7c;}.u{fill:#4d4d4d;}</style><clipPath id="a"><rect class="a" width="158" height="183" rx="8" transform="translate(146.58 392)"/></clipPath></defs><g class="b" transform="translate(-146.58 -392)"><path class="c" d="M93.947,0c51.885,0,93.947,43.637,93.947,97.465s-42.062,97.465-93.947,97.465S0,151.294,0,97.465,42.062,0,93.947,0Z" transform="translate(172.945 384.067)"/><g transform="translate(213.175 417.859) rotate(43)"><g class="d" transform="translate(0 0)"><path class="r" d="M 5.710440158843994 40.99670791625977 C 4.397140026092529 40.99670791625977 3.169569969177246 40.48830032348633 2.253870010375977 39.56512832641602 C 1.339880108833313 38.64369964599609 0.8423800468444824 37.41473770141602 0.8530100584030151 36.10466003417969 L 1.095630049705505 6.206149578094482 C 1.117840051651001 3.468799352645874 3.365950107574463 1.223719358444214 6.107029914855957 1.201499342918396 L 62.19086837768555 0.7468993663787842 L 62.23207855224609 0.7467293739318848 C 63.54537963867188 0.7467293739318848 64.77294158935547 1.255139350891113 65.68865203857422 2.178309440612793 C 66.60263824462891 3.09973931312561 67.10015106201172 4.328699588775635 67.08952331542969 5.638789176940918 L 66.84689331054688 35.53728866577148 C 66.82467651367188 38.27463912963867 64.57656860351562 40.51971817016602 61.83549118041992 40.54193878173828 L 5.751649856567383 40.99654006958008 L 5.710440158843994 40.99670791625977 Z"/><path class="s" d="M 62.23209381103516 1.746730804443359 L 62.19897079467773 1.746864318847656 L 6.115127563476562 2.201465606689453 C 3.916557312011719 2.219287872314453 2.1134033203125 4.019420623779297 2.095596313476562 6.214263916015625 L 1.852973937988281 36.11277389526367 C 1.844512939453125 37.15422058105469 2.239028930664062 38.13019561767578 2.963829040527344 38.86090850830078 C 3.690345764160156 39.59334182739258 4.665771484375 39.99670791625977 5.710414886474609 39.99670791625977 L 5.743537902832031 39.99657440185547 L 61.8273811340332 39.54197692871094 C 64.02594757080078 39.52415466308594 65.8291015625 37.72401809692383 65.84691619873047 35.5291633605957 L 66.08954620361328 5.63067626953125 C 66.09799194335938 4.589218139648438 65.70348358154297 3.613243103027344 64.97868347167969 2.882530212402344 C 64.25215911865234 2.150096893310547 63.27673721313477 1.746730804443359 62.23209381103516 1.746730804443359 M 62.23208999633789 -0.2532691955566406 C 65.49828338623047 -0.2532691955566406 68.11600494384766 2.378017425537109 68.08948516845703 5.646896362304688 L 67.84684753417969 35.5453987121582 C 67.8201904296875 38.83052062988281 65.1324462890625 41.51525115966797 61.84359359741211 41.54190826416016 L 5.759750366210938 41.99650955200195 C 2.469955444335938 42.02316665649414 -0.1736297607421875 39.38166427612305 -0.1469650268554688 36.09654235839844 L 0.0956573486328125 6.198028564453125 C 0.122314453125 2.912918090820312 2.81005859375 0.2281875610351562 6.098915100097656 0.2015304565429688 L 62.18276214599609 -0.2530708312988281 C 62.19902038574219 -0.2532005310058594 62.21586227416992 -0.2532691955566406 62.23208999633789 -0.2532691955566406 Z"/></g><g transform="translate(5.787 5.89)"><g transform="translate(12.921 -0.053)"><path class="e" d="M4.069-.017C1.817,0,0,1.414-.015,3.661S1.757,7.292,4.01,7.274,8.077,5.841,8.1,3.6,6.323-.035,4.069-.017ZM4.017,6.4c-1.625.013-2.3-1.29-2.286-2.757S2.438.866,4.062.853s2.3,1.288,2.287,2.756S5.642,6.391,4.017,6.4Z" transform="translate(0 0)"/></g><path class="e" d="M9.553-.039,6.805-.017,6.772,4.151A1.864,1.864,0,0,0,5.3,3.127a1.532,1.532,0,0,0,.923-1.44C6.229.661,5.552-.005,3.94.008h0L.028.039-.028,6.908,4.24,6.874c1.268-.01,2.175-.368,2.519-1.2L6.75,6.853,9.5,6.831c1.913-.016,3.217-.594,3.856-1.671a3.519,3.519,0,0,1-.445-1.789,3.588,3.588,0,0,1,.475-1.8C12.762.5,11.467-.054,9.553-.039ZM1.663.935,3.285.922c.832-.007,1.228.381,1.223.984s-.408,1-1.239,1l-1.621.013L1.664.935Zm2.2,5.031-2.236.018.017-2.152,2.236-.018c.9-.007,1.33.411,1.325,1.065S4.762,5.96,3.86,5.967Zm5.451-.044L8.4,5.93,8.443.881,9.352.873c1.946-.016,2.721,1.053,2.709,2.5s-.8,2.531-2.75,2.547Z" transform="translate(-0.001 0.237)"/></g><g transform="translate(5.773 26.774)"><path class="f" d="M1.969.024,9.815-.04A1.922,1.922,0,0,1,11.76,1.9,2,2,0,0,1,9.783,3.878l-7.845.064A1.922,1.922,0,0,1-.008,2,2,2,0,0,1,1.969.024Z" transform="translate(0.03 0.163)"/><path class="f" d="M1.969.021,9.161-.037a1.922,1.922,0,0,1,1.945,1.943A2,2,0,0,1,9.129,3.881l-7.192.058A1.922,1.922,0,0,1-.008,2,2,2,0,0,1,1.969.021Z" transform="translate(13.759 0.055)"/><path class="f" d="M1.969.021,9.161-.037a1.922,1.922,0,0,1,1.945,1.943A2,2,0,0,1,9.129,3.881l-7.192.058A1.922,1.922,0,0,1-.008,2,2,2,0,0,1,1.969.021Z" transform="translate(26.835 -0.051)"/><path class="f" d="M1.969.024,9.815-.04A1.922,1.922,0,0,1,11.76,1.9,2,2,0,0,1,9.783,3.878l-7.845.064A1.922,1.922,0,0,1-.008,2,2,2,0,0,1,1.969.024Z" transform="translate(40.564 -0.165)"/><path class="f" d="M1.641.112l29.42-.238a1.6,1.6,0,0,1,1.621,1.619,1.666,1.666,0,0,1-1.648,1.646l-29.42.238A1.6,1.6,0,0,1-.007,1.758,1.666,1.666,0,0,1,1.641.112Z" transform="translate(-0.032 7.914)"/></g></g><g transform="translate(295.374 405.782) rotate(90)"><g class="g" transform="translate(0 0)"><rect class="r" width="55.642" height="34.802" rx="6"/><rect class="t" x="1" y="1" width="53.642" height="32.802" rx="5"/></g><g transform="translate(4.68 4.792)"><g transform="translate(10.563 0)"><path class="e" d="M3.318,0a3.047,3.047,0,1,0,0,6.07,3.047,3.047,0,1,0,0-6.07Zm0,5.346c-1.33,0-1.889-1.089-1.889-2.311S1.989.724,3.318.724s1.89,1.088,1.89,2.311S4.647,5.346,3.318,5.346Z" transform="translate(0 0)"/></g><path class="e" d="M7.795,0H5.547V3.47a1.559,1.559,0,0,0-1.213-.863,1.253,1.253,0,0,0,.746-1.193C5.079.56,4.521,0,3.2,0H0V5.72H3.493c1.038,0,1.777-.292,2.054-.979V5.72H7.794c1.566,0,2.629-.473,3.144-1.366a3.005,3.005,0,0,1-.376-1.493,2.993,2.993,0,0,1,.377-1.494C10.425.473,9.361,0,7.795,0ZM1.345.758H2.672c.681,0,1.008.325,1.008.828s-.327.827-1.008.827H1.345V.758Zm1.831,4.2H1.346V3.171h1.83c.737,0,1.091.351,1.091.9S3.914,4.963,3.176,4.963Zm4.461,0H6.892V.758h.744a1.955,1.955,0,0,1,2.234,2.1,1.955,1.955,0,0,1-2.234,2.1Z" transform="translate(0 0.172)"/></g><g transform="translate(4.815 22.295)"><rect class="h" width="9.63" height="3.263" rx="1.631" transform="translate(0 0)"/><rect class="h" width="9.095" height="3.263" rx="1.631" transform="translate(11.235 0)"/><rect class="h" width="9.095" height="3.263" rx="1.631" transform="translate(21.936 0)"/><rect class="h" width="9.63" height="3.263" rx="1.631" transform="translate(33.171 0)"/><rect class="h" width="26.751" height="2.719" rx="1.359" transform="translate(0 6.526)"/></g></g><g transform="translate(158.922 473.037) rotate(7)"><g class="i" transform="translate(0 0)"><path class="r" d="M 6.932322025299072 44.38551330566406 C 5.312471866607666 44.38551330566406 3.79729175567627 43.76119232177734 2.665891885757446 42.62754058837891 C 1.563941836357117 41.52339172363281 0.9587518572807312 40.06193161010742 0.9618318676948547 38.51236343383789 L 1.024391889572144 6.956382274627686 C 1.030831813812256 3.707132339477539 3.728661775588989 1.058422327041626 7.038311958312988 1.051972389221191 L 67.87982940673828 0.9332423210144043 L 67.89205169677734 0.933232307434082 C 69.51189422607422 0.933232307434082 71.02706909179688 1.557552337646484 72.15847015380859 2.691202402114868 C 73.26042175292969 3.795352220535278 73.86560821533203 5.25681209564209 73.86253356933594 6.806382179260254 L 73.79998016357422 38.36235046386719 C 73.79354095458984 41.61160278320312 71.095703125 44.26032257080078 67.78604888916016 44.26677322387695 L 6.944541931152344 44.38550186157227 L 6.932322025299072 44.38551330566406 Z"/><path class="u" d="M 67.89202880859375 1.9332275390625 L 67.88176727294922 1.933238983154297 L 7.040267944335938 2.051971435546875 C 4.27984619140625 2.057361602783203 2.029739379882812 4.25836181640625 2.024383544921875 6.9583740234375 L 1.961822509765625 38.51435089111328 C 1.959281921386719 39.79642868041992 2.460693359375 41.00631713867188 3.373703002929688 41.92112731933594 C 4.316146850585938 42.86545181274414 5.5799560546875 43.38550567626953 6.93231201171875 43.38550567626953 L 6.942596435546875 43.38549423217773 L 67.78410339355469 43.26677322387695 C 70.54451751708984 43.26138305664062 72.79462432861328 41.06038284301758 72.79998016357422 38.36035919189453 L 72.86253356933594 6.804393768310547 C 72.86508178710938 5.522315979003906 72.36367034912109 4.312427520751953 71.45066070556641 3.397617340087891 C 70.50820159912109 2.453292846679688 69.24439239501953 1.9332275390625 67.89202880859375 1.9332275390625 M 67.89202880859375 -0.06677627563476562 C 71.75057220458984 -0.06677627563476562 74.87007141113281 3.008438110351562 74.86254119873047 6.808361053466797 L 74.79998016357422 38.36432647705078 C 74.79243469238281 42.16890716552734 71.65306091308594 45.25922775268555 67.78800201416016 45.26677322387695 L 6.946495056152344 45.38549423217773 C 3.079025268554688 45.39303970336914 -0.04571533203125 42.31493759155273 -0.038177490234375 38.51038360595703 L 0.024383544921875 6.95440673828125 C 0.03192901611328125 3.149837493896484 3.171295166015625 0.05951690673828125 7.036369323730469 0.051971435546875 L 67.87786865234375 -0.06676101684570312 C 67.88259124755859 -0.06676864624023438 67.88731384277344 -0.06677627563476562 67.89202880859375 -0.06677627563476562 Z"/></g><g transform="translate(6.312 6.278)"><g transform="translate(14.21 -0.014)"><path class="j" d="M4.467,0C1.987,0,0,1.521,0,3.958S1.971,7.908,4.451,7.9,8.918,6.376,8.923,3.94,6.948-.009,4.467,0ZM4.453,6.96c-1.788,0-2.538-1.414-2.535-3.006S2.677.943,4.465.939,7,2.352,7,3.944,6.241,6.956,4.453,6.96Z" transform="translate(0 0)"/></g><path class="j" d="M10.491-.01,7.468,0,7.459,4.516A2.084,2.084,0,0,0,5.829,3.4,1.636,1.636,0,0,0,6.835,1.84C6.837.727,6.088,0,4.314,0h0L.007.011-.007,7.462l4.7-.009c1.4,0,2.391-.385,2.765-1.281l0,1.275,3.023-.006c2.106,0,3.538-.623,4.233-1.787a3.8,3.8,0,0,1-.5-1.944,3.811,3.811,0,0,1,.511-1.947C14.027.6,12.6-.014,10.491-.01Zm-8.677,1L3.6.991c.915,0,1.355.421,1.353,1.075S4.51,3.144,3.595,3.146l-1.784,0,0-2.155ZM4.266,6.466l-2.461,0,0-2.334,2.461,0c.992,0,1.467.455,1.466,1.164S5.259,6.464,4.266,6.466Zm6-.012-1,0L9.276.98l1,0c2.141,0,3,1.161,3,2.732s-.867,2.74-3.01,2.745Z" transform="translate(0 0.233)"/></g><path class="k" d="M2.161.007l9.355-.018A2.132,2.132,0,0,1,13.67,2.109a2.152,2.152,0,0,1-2.163,2.129l-9.355.018A2.132,2.132,0,0,1,0,2.136,2.152,2.152,0,0,1,2.161.007Z" transform="translate(56.152 6.32)"/><g transform="translate(6.447 29.041)"><path class="k" d="M2.161.006,10.8-.011A2.132,2.132,0,0,1,12.951,2.11a2.152,2.152,0,0,1-2.163,2.129l-8.635.017A2.132,2.132,0,0,1,0,2.135,2.152,2.152,0,0,1,2.161.006Z" transform="translate(0.008 0.043)"/><path class="k" d="M2.161.006,10.076-.01a2.132,2.132,0,0,1,2.155,2.121A2.152,2.152,0,0,1,10.068,4.24l-7.916.015A2.132,2.132,0,0,1,0,2.135,2.152,2.152,0,0,1,2.161.006Z" transform="translate(15.12 0.014)"/><path class="k" d="M2.161.006,10.076-.01a2.132,2.132,0,0,1,2.155,2.121A2.152,2.152,0,0,1,10.068,4.24l-7.916.015A2.132,2.132,0,0,1,0,2.135,2.152,2.152,0,0,1,2.161.006Z" transform="translate(29.512 -0.014)"/><path class="k" d="M2.161.006,10.8-.011A2.132,2.132,0,0,1,12.951,2.11a2.152,2.152,0,0,1-2.163,2.129l-8.635.017A2.132,2.132,0,0,1,0,2.135,2.152,2.152,0,0,1,2.161.006Z" transform="translate(44.623 -0.044)"/><path class="k" d="M1.8.03,34.183-.034a1.777,1.777,0,0,1,1.8,1.767,1.794,1.794,0,0,1-1.8,1.774L1.794,3.571A1.777,1.777,0,0,1,0,1.8,1.794,1.794,0,0,1,1.8.03Z" transform="translate(-0.008 8.521)"/></g></g><g class="l" transform="translate(237.877 552.866)"><ellipse class="r" cx="5.5" cy="5.411" rx="5.5" ry="5.411"/><ellipse class="t" cx="5.5" cy="5.411" rx="4.5" ry="4.411"/></g><g class="l" transform="translate(321.568 415.963)"><ellipse class="r" cx="5.5" cy="5.411" rx="5.5" ry="5.411"/><ellipse class="t" cx="5.5" cy="5.411" rx="4.5" ry="4.411"/></g><g transform="matrix(0.974, -0.225, 0.225, 0.974, 232.097, 503.693)"><path class="m" d="M15.539.086l-12-.08A3.485,3.485,0,0,0,.006,3.484L.028,9.629a8.477,8.477,0,0,0,4.749,7.545h0a8.482,8.482,0,0,1,4.749,7.545l.015,4.1,5.278.111a28.13,28.13,0,0,0-.877-9.66,11.645,11.645,0,0,0-4.552-6.161c-.72-.684-3.542-2.017-3.546-3.025L5.826,5.679l10.387.082Z" transform="translate(0.025 14.165)"/><path class="m" d="M.01,5.688,10.4,5.68l.016,4.408c0,1.008-2.809,2.321-3.526,3a11.421,11.421,0,0,0-4.508,6.129,28.06,28.06,0,0,0-.807,9.654L6.849,28.8l-.015-4.1a8.336,8.336,0,0,1,4.695-7.512h0A8.332,8.332,0,0,0,16.224,9.67L16.2,3.525a3.546,3.546,0,0,0-3.554-3.5L.644.017Z" transform="translate(61.171 14.397)"/><path class="m" d="M46.87.159c.1,0,.2,0,.3.011a4.169,4.169,0,0,1,3.883,4.411l-.344,5L48.57,44.42a22.485,22.485,0,0,1-22.685,20.8h0A22.883,22.883,0,0,1,3.051,44.259L.019,4.4A4.1,4.1,0,0,1,3.87.017c.1-.007.2-.01.3-.009l42.7.151" transform="translate(13.153 0.023)"/><line class="n" x2="8.187" y2="10.47" transform="translate(44.894 10.576)"/><line class="n" x2="6.16" y2="7.889" transform="translate(44.14 18.547)"/><path class="m" d="M23.615,13.98,21.5,13.973,21.447.055,11.893.021l.05,13.918L9.451,13.93A9.3,9.3,0,0,0,.042,23.2l33.05.117A9.456,9.456,0,0,0,23.615,13.98Z" transform="translate(22.555 65.252)"/></g><line class="o" x2="7.947" y2="15.727" transform="translate(263.625 454.576) rotate(11)"/><line class="o" x2="1.871" y2="3.758" transform="translate(269.531 476.24) rotate(11)"/><line class="o" x1="5.042" y2="19.321" transform="translate(310.881 444.514) rotate(8)"/><line class="o" x1="1.007" y2="3.337" transform="translate(317.97 437.555) rotate(8)"/><line class="o" x2="9" y2="5.955" transform="translate(180.568 463.339)"/><line class="o" x2="2.512" y2="1.896" transform="translate(192.568 471.21)"/><g transform="matrix(0.985, -0.174, 0.174, 0.985, 228.864, 405.56)"><g transform="translate(3.948 0.797)"><path class="p" d="M0,0"/></g><g transform="translate(3.357 0.03)"><path class="p" d="M7.078,16.064H7.07a.816.816,0,0,1-.739-.488L.066,1.107A.786.786,0,0,1,.134.356.806.806,0,0,1,.809,0h0L13.593.038a.818.818,0,0,1,.68.365.788.788,0,0,1,.062.759L7.817,15.594A.805.805,0,0,1,7.078,16.064ZM2.034,1.6,7.089,13.27,12.347,1.63Z" transform="translate(0 0)"/></g><g transform="translate(0 0.026)"><path class="p" d="M10.435,16.068a.818.818,0,0,1-.579-.241L.24,6.154A.789.789,0,0,1,.149,5.145L3.5.349a.815.815,0,0,1,1.125-.2.791.791,0,0,1,.21,1.109L1.862,5.514l9.148,9.2A.789.789,0,0,1,11,15.844.808.808,0,0,1,10.435,16.068Z"/></g><g transform="translate(0.145 4.828)"><path class="p" d="M20.024,1.648.813,1.6A.809.809,0,0,1,0,.8.8.8,0,0,1,.808,0L20.019.054a.809.809,0,0,1,.812.8.8.8,0,0,1-.807.8Z" transform="translate(0 0)"/></g><g transform="translate(5.557 0.008)"><path class="p" d="M.819,6.431a.816.816,0,0,1-.733-.459.786.786,0,0,1,.1-.846L4.212.3A.817.817,0,0,1,5.351.189a.79.79,0,0,1,.115,1.123L1.445,6.141A.807.807,0,0,1,.819,6.431Z"/></g><g transform="translate(9.952 0.056)"><path class="p" d="M.833,16.039a.815.815,0,0,1-.747-.49.786.786,0,0,1,.165-.866l9.1-9.151-3-4.273a.788.788,0,0,1,.2-1.108A.819.819,0,0,1,7.681.357l3.377,4.815a.786.786,0,0,1-.085,1.008L1.41,15.8A.81.81,0,0,1,.833,16.039Z"/></g><g transform="translate(9.928 0.015)"><path class="p" d="M4.862,6.448a.819.819,0,0,1-.627-.293L.187,1.3A.788.788,0,0,1,.3.181a.819.819,0,0,1,1.14.113L5.483,5.146a.788.788,0,0,1,.109.846A.805.805,0,0,1,4.862,6.448Z" transform="translate(0)"/></g></g><g transform="translate(205.789 545.058) rotate(-41)"><g transform="translate(3.387 0.689)"><path class="p" d="M0,0"/></g><g transform="translate(2.877 0.019)"><path class="p" d="M6.161,14.03H6.154a.709.709,0,0,1-.638-.429L.06.964A.692.692,0,0,1,.115.309.685.685,0,0,1,.694,0h0l11,.091a.711.711,0,0,1,.587.321.7.7,0,0,1,.057.662L6.795,13.625A.683.683,0,0,1,6.161,14.03ZM1.755,1.4l4.4,10.2,4.47-10.122Z" transform="translate(0 0)"/></g><g transform="translate(0 0.008)"><path class="p" d="M9.038,14.041a.707.707,0,0,1-.5-.212L.222,5.355a.7.7,0,0,1-.083-.88L3,.311A.692.692,0,0,1,3.966.14a.7.7,0,0,1,.186.967L1.614,4.8l7.912,8.06a.705.705,0,0,1,.2.5.68.68,0,0,1-.691.681Z"/></g><g transform="translate(0.136 4.187)"><path class="p" d="M17.231,1.525.7,1.392a.709.709,0,0,1-.7-.7A.682.682,0,0,1,.694,0L17.22.136a.709.709,0,0,1,.7.7.682.682,0,0,1-.691.689Z"/></g><g transform="translate(4.78 0.019)"><path class="p" d="M.721,5.6a.71.71,0,0,1-.632-.4.69.69,0,0,1,.085-.737L3.612.267A.694.694,0,0,1,4.591.178a.7.7,0,0,1,.1.979L1.258,5.348A.685.685,0,0,1,.721,5.6Z"/></g><g transform="translate(8.583 0.087)"><path class="p" d="M.755,13.966a.711.711,0,0,1-.645-.43.689.689,0,0,1,.138-.754L8.031,4.847l-2.6-3.738A.688.688,0,0,1,5.6.144a.7.7,0,0,1,.97.185L9.5,4.541a.691.691,0,0,1-.069.878L1.251,13.76A.683.683,0,0,1,.755,13.966Z"/></g><g transform="translate(8.529 0.036)"><path class="p" d="M4.21,5.639a.707.707,0,0,1-.541-.258L.165,1.134A.691.691,0,0,1,.253.157a.7.7,0,0,1,.981.1L4.739,4.508a.7.7,0,0,1,.1.738A.682.682,0,0,1,4.21,5.639Z" transform="translate(0)"/></g></g><path class="q" d="M11.069,21.736C11,10.689,10.748,10.883.033,10.819c10.818.065,10.97.075,10.9-10.786C11,11,11.161,10.886,21.974,10.951,11.057,10.885,11,10.791,11.069,21.736Z" transform="matrix(0.914, -0.407, 0.407, 0.914, 214.374, 481.927)"/><path class="q" d="M7.914,15.542c-.048-7.9-.23-7.76-7.891-7.806,7.735.046,7.844.054,7.8-7.712.048,7.838.16,7.76,7.891,7.806C7.906,7.783,7.867,7.716,7.914,15.542Z" transform="matrix(0.914, -0.407, 0.407, 0.914, 246.155, 461.331)"/><path class="q" d="M5.886,11.555c-.033-5.873-.169-5.77-5.87-5.8,5.756.032,5.837.038,5.8-5.737.033,5.828.117,5.77,5.87,5.8C5.882,5.786,5.853,5.736,5.886,11.555Z" transform="translate(283.746 455.138) rotate(-22)"/></g></svg>