<svg xmlns="http://www.w3.org/2000/svg" xmlns:xlink="http://www.w3.org/1999/xlink" width="124" height="108" viewBox="0 0 124 108">
  <defs>
    <clipPath id="clip-path">
      <rect id="Rectangle_21847" data-name="Rectangle 21847" width="124" height="108" rx="16" transform="translate(115.416 392)" fill="#e5f5ff"/>
    </clipPath>
    <clipPath id="clip-path-2">
      <rect id="Rectangle_23659" data-name="Rectangle 23659" width="112.975" height="133.061" fill="none"/>
    </clipPath>
    <clipPath id="clip-path-4">
      <rect id="Rectangle_23657" data-name="Rectangle 23657" width="66.704" height="77.393" transform="translate(45.376 12.756)" fill="none"/>
    </clipPath>
    <clipPath id="clip-path-5">
      <rect id="Rectangle_23656" data-name="Rectangle 23656" width="80.056" height="51.492" transform="translate(12.163 26.74)" fill="none"/>
    </clipPath>
  </defs>
  <g id="img-online-and-travel-desktop" transform="translate(-115.416 -392)" clip-path="url(#clip-path)">
    <g id="Group_20535" data-name="Group 20535" transform="translate(155.289 387.318)">
      <path id="Path_9135" data-name="Path 9135" d="M55.444,0c30.621,0,55.444,25.753,55.444,57.521s-24.823,57.521-55.444,57.521S0,89.288,0,57.521,24.823,0,55.444,0Z" transform="translate(6.441 0)" fill="#7eb7eb" opacity="0.392"/>
    </g>
    <g id="Group_21086" data-name="Group 21086" transform="translate(118.416 400.785)">
      <g id="Group_21105" data-name="Group 21105" clip-path="url(#clip-path-2)">
        <g id="Group_21097" data-name="Group 21097">
          <g id="Group_21096" data-name="Group 21096" clip-path="url(#clip-path-2)">
            <path id="Path_9638" data-name="Path 9638" d="M59.14.314h39.8a13.723,13.723,0,0,1,13.724,13.722V119.023a13.723,13.723,0,0,1-13.722,13.724h-39.8a13.723,13.723,0,0,1-13.724-13.722V14.038A13.723,13.723,0,0,1,59.136.314h0" fill="#0072d8"/>
            <rect id="Rectangle_23649" data-name="Rectangle 23649" width="65.873" height="131.061" rx="11" transform="translate(46.102 1)" fill="none" stroke="#004ea8" stroke-linecap="round" stroke-linejoin="round" stroke-width="2"/>
            <path id="Path_9639" data-name="Path 9639" d="M99.988,126.864H58.42a7.115,7.115,0,0,1-7.108-7.108V13.238A7.115,7.115,0,0,1,58.42,6.13h3.9a.612.612,0,0,1,.613.613v1.3a3.288,3.288,0,0,0,3.284,3.285H92.2a3.288,3.288,0,0,0,3.285-3.285v-1.3A.612.612,0,0,1,96.1,6.13H100a7.115,7.115,0,0,1,7.108,7.108V119.756A7.115,7.115,0,0,1,100,126.864" fill="#f6f6f6"/>
            <path id="Path_9640" data-name="Path 9640" d="M58.419,6.816A6.429,6.429,0,0,0,52,13.238V119.756a6.429,6.429,0,0,0,6.422,6.422H99.987a6.429,6.429,0,0,0,6.422-6.422V13.238a6.429,6.429,0,0,0-6.422-6.422H96.164V8.042a3.975,3.975,0,0,1-3.971,3.97H66.214a3.975,3.975,0,0,1-3.971-3.97V6.816Zm0-1.372h3.9a1.3,1.3,0,0,1,1.3,1.3v1.3a2.6,2.6,0,0,0,2.6,2.6H92.2a2.6,2.6,0,0,0,2.6-2.6v-1.3a1.3,1.3,0,0,1,1.3-1.3H100a7.8,7.8,0,0,1,7.794,7.794V119.756A7.8,7.8,0,0,1,100,127.55H58.419a7.8,7.8,0,0,1-7.794-7.794V13.238a7.8,7.8,0,0,1,7.794-7.794" fill="#004ea8"/>
            <path id="Path_9641" data-name="Path 9641" d="M70.118,5.117H83.155a1.373,1.373,0,0,1,0,2.745H70.118a1.373,1.373,0,0,1,0-2.745" fill="#004ea8"/>
            <path id="Path_9642" data-name="Path 9642" d="M88.3,5.117h0a1.031,1.031,0,0,1,1.029,1.029v.686a1.029,1.029,0,1,1-2.059,0V6.146A1.031,1.031,0,0,1,88.3,5.117" fill="#004ea8"/>
            <path id="Path_9643" data-name="Path 9643" d="M61.761,22.46H73.554a3,3,0,0,1,3,3V37.253a3,3,0,0,1-3,3H61.761a3,3,0,0,1-3-3V25.46a3,3,0,0,1,3-3" fill="#fff"/>
            <rect id="Rectangle_23650" data-name="Rectangle 23650" width="16.793" height="16.793" rx="2.5" transform="translate(59.261 22.96)" fill="none" stroke="#c2c2c1" stroke-width="1"/>
            <path id="Path_9644" data-name="Path 9644" d="M61.661,45.4H73.454a3,3,0,0,1,3,3V60.2a3,3,0,0,1-3,3H61.661a3,3,0,0,1-3-3V48.4a3,3,0,0,1,3-3" fill="#fff"/>
            <rect id="Rectangle_23651" data-name="Rectangle 23651" width="16.793" height="16.793" rx="2.5" transform="translate(59.161 45.903)" fill="none" stroke="#c2c2c1" stroke-width="1"/>
            <path id="Path_9645" data-name="Path 9645" d="M61.761,79.278H96.907a3,3,0,0,1,3,3v4.9a3,3,0,0,1-3,3H61.761a3,3,0,0,1-3-3v-4.9a3,3,0,0,1,3-3" fill="#0072d8"/>
            <rect id="Rectangle_23652" data-name="Rectangle 23652" width="40.146" height="9.896" rx="2.5" transform="translate(59.261 79.778)" fill="none" stroke="#1e4ea2" stroke-width="1"/>
            <path id="Path_9646" data-name="Path 9646" d="M85.114,45.813H96.907a3,3,0,0,1,3,3V60.606a3,3,0,0,1-3,3H85.114a3,3,0,0,1-3-3V48.813a3,3,0,0,1,3-3" fill="#fff"/>
            <rect id="Rectangle_23653" data-name="Rectangle 23653" width="16.793" height="16.793" rx="2.5" transform="translate(82.614 46.313)" fill="none" stroke="#c2c2c1" stroke-width="1"/>
            <path id="Path_9647" data-name="Path 9647" d="M85.113,22.46H96.906a3,3,0,0,1,3,3V37.253a3,3,0,0,1-3,3H85.113a3,3,0,0,1-3-3V25.46a3,3,0,0,1,3-3" fill="#fff"/>
            <rect id="Rectangle_23654" data-name="Rectangle 23654" width="16.793" height="16.793" rx="2.5" transform="translate(82.613 22.96)" fill="none" stroke="#c2c2c1" stroke-width="1"/>
            <path id="Path_9648" data-name="Path 9648" d="M87.94,27.293v1.25a2.691,2.691,0,0,1-.788,1.9,2.691,2.691,0,0,0-.788,1.9V35.17a1.577,1.577,0,0,0,1.577,1.577h6.307a1.577,1.577,0,0,0,1.577-1.577V32.35a2.691,2.691,0,0,0-.788-1.9,2.691,2.691,0,0,1-.788-1.9V27.293" fill="#fdb913"/>
            <path id="Path_9649" data-name="Path 9649" d="M87.94,27.293v1.25a2.691,2.691,0,0,1-.788,1.9,2.691,2.691,0,0,0-.788,1.9V35.17a1.577,1.577,0,0,0,1.577,1.577h6.307a1.577,1.577,0,0,0,1.577-1.577V32.35a2.691,2.691,0,0,0-.788-1.9,2.691,2.691,0,0,1-.788-1.9V27.293" fill="none" stroke="#1e4ea2" stroke-linecap="round" stroke-linejoin="round" stroke-width="1"/>
            <path id="Path_9650" data-name="Path 9650" d="M89.516,27.293H87.939a.788.788,0,0,1-.788-.788h0a.788.788,0,0,1,.788-.788h6.312a.788.788,0,1,1,0,1.576H91.093" fill="#fdb913"/>
            <path id="Path_9651" data-name="Path 9651" d="M89.516,27.293H87.939a.788.788,0,0,1-.788-.788h0a.788.788,0,0,1,.788-.788h6.312a.788.788,0,1,1,0,1.576H91.093" fill="none" stroke="#1e4ea2" stroke-linecap="round" stroke-linejoin="round" stroke-width="1"/>
            <path id="Path_9652" data-name="Path 9652" d="M69.906,47.4a.468.468,0,0,0-.659.058h0l-.019.025a7.272,7.272,0,0,0-1.284,5.137l.921-.159a6.4,6.4,0,0,1,1.121-4.432.463.463,0,0,0-.078-.629" fill="#004ea8"/>
            <path id="Path_9653" data-name="Path 9653" d="M73.58,56.058a4.492,4.492,0,0,0-3.47-4.606,3.451,3.451,0,0,0-1.365.07,1.021,1.021,0,0,1-.592-.026,3.434,3.434,0,0,0-1.352-.189,4.515,4.515,0,0,0-3.879,4.284c-.283,2.783,1.476,5.186,3.8,5.288q.15.006.3,0a11.424,11.424,0,0,1,1.991.088c.1.012.2.02.3.023,2.324.1,4.294-2.137,4.268-4.935" fill="#ff3700" fill-rule="evenodd"/>
            <path id="Path_9654" data-name="Path 9654" d="M69.291,61.459c-.114-.005-.228-.015-.34-.03a10.978,10.978,0,0,0-1.909-.083c-.113.005-.228.005-.341,0a4.16,4.16,0,0,1-2.962-1.483,5.7,5.7,0,0,1-1.28-4.317,4.992,4.992,0,0,1,4.319-4.7,3.889,3.889,0,0,1,1.535.215.558.558,0,0,0,.321.017,3.912,3.912,0,0,1,1.55-.08,4.97,4.97,0,0,1,3.863,5.056,5.717,5.717,0,0,1-1.669,4.182,4.178,4.178,0,0,1-3.089,1.223m-1.25-1.043q.523.021,1.035.091c.085.012.172.019.258.023a3.253,3.253,0,0,0,2.4-.961,4.789,4.789,0,0,0,1.383-3.5,4.041,4.041,0,0,0-3.072-4.147,2.971,2.971,0,0,0-1.18.061A1.486,1.486,0,0,1,68,51.939a2.978,2.978,0,0,0-1.169-.164,4.063,4.063,0,0,0-3.441,3.865,4.768,4.768,0,0,0,1.057,3.61,3.235,3.235,0,0,0,2.3,1.167c.086,0,.173,0,.258,0,.345-.014.692-.013,1.036,0Z" fill="#004ea8"/>
            <path id="Path_9655" data-name="Path 9655" d="M65.506,47.964h0a3.092,3.092,0,0,0,2.949,3.227l.008,0a3.091,3.091,0,0,0-2.949-3.227Z" fill="#009d12" fill-rule="evenodd"/>
            <path id="Path_9656" data-name="Path 9656" d="M65.527,47.5h0a.467.467,0,0,0-.489.441,3.557,3.557,0,0,0,3.394,3.712h0l.007,0,.467.021.021-.464a3.555,3.555,0,0,0-3.393-3.712h0l-.009,0m.476,1a2.633,2.633,0,0,1,1.971,2.15A2.633,2.633,0,0,1,66,48.5Z" fill="#004ea8"/>
            <path id="Path_9657" data-name="Path 9657" d="M91,55.306c2.784-3.365.822-5.984-.425-7.9-.962,1.1-3.6,4.982.425,7.9" fill="#004ea8"/>
            <path id="Path_9658" data-name="Path 9658" d="M91,55.306c2.784-3.365.822-5.984-.425-7.9C89.611,48.5,86.975,52.385,91,55.306Z" fill="none" stroke="#004ea8" stroke-linecap="round" stroke-linejoin="round" stroke-width="1"/>
            <path id="Path_9659" data-name="Path 9659" d="M90.832,55.742c.314-4.085-2.874-3.741-4.061-5.83-.494,1.635-.846,6.723,4.061,5.83" fill="#34c361"/>
            <path id="Path_9660" data-name="Path 9660" d="M90.832,55.742c.314-4.085-2.874-3.741-4.061-5.83C86.273,51.547,85.92,56.635,90.832,55.742Z" fill="none" stroke="#004ea8" stroke-linecap="round" stroke-linejoin="round" stroke-width="1"/>
            <path id="Path_9661" data-name="Path 9661" d="M91,56.026c-.677-4.315,2.346-5.566,4.4-6.58.267,1.437.552,6.122-4.4,6.58" fill="#009d12"/>
            <path id="Path_9662" data-name="Path 9662" d="M91,56.026c-.677-4.315,2.346-5.566,4.4-6.58C95.665,50.883,95.95,55.568,91,56.026Z" fill="none" stroke="#004ea8" stroke-linecap="round" stroke-linejoin="round" stroke-width="1"/>
            <path id="Path_9663" data-name="Path 9663" d="M88.756,61.026h4.3a.756.756,0,0,0,.809-.564l.431-3.916c.037-.339-.294-.636-.741-.665H88.324a.734.734,0,0,0-.812.615.434.434,0,0,0,0,.051l.431,3.916a.756.756,0,0,0,.809.564" fill="#e5f5ff"/>
            <path id="Path_9664" data-name="Path 9664" d="M88.756,61.026h4.3a.756.756,0,0,0,.809-.564l.431-3.916c.037-.339-.294-.636-.741-.665H88.324a.734.734,0,0,0-.812.615.434.434,0,0,0,0,.051l.431,3.916A.757.757,0,0,0,88.756,61.026Z" fill="none" stroke="#004ea8" stroke-linecap="round" stroke-linejoin="round" stroke-width="1"/>
            <path id="Path_9665" data-name="Path 9665" d="M62.944,34.2h0a2.5,2.5,0,0,1,.612-3.482l5.458-3.826a2.5,2.5,0,1,1,2.87,4.1l-5.458,3.826a2.5,2.5,0,0,1-3.482-.613" fill="#e5f5ff"/>
            <path id="Path_9666" data-name="Path 9666" d="M62.944,34.2h0a2.5,2.5,0,0,1,.612-3.482l5.458-3.826a2.5,2.5,0,1,1,2.87,4.1l-5.458,3.826A2.5,2.5,0,0,1,62.944,34.2Z" fill="none" stroke="#1e4ea2" stroke-linecap="round" stroke-linejoin="round" stroke-width="1"/>
            <path id="Path_9667" data-name="Path 9667" d="M63.891,30.927l2.6-1.824,2.558,3.65-2.6,1.823a2.228,2.228,0,1,1-2.558-3.649" fill="#1e4ea2"/>
            <line id="Line_2640" data-name="Line 2640" x1="2.869" y1="4.093" transform="translate(66.285 28.809)" fill="none" stroke="#1e4ea2" stroke-linecap="round" stroke-linejoin="round" stroke-width="1"/>
          </g>
        </g>
        <g id="Group_21102" data-name="Group 21102">
          <g id="Group_21101" data-name="Group 21101" clip-path="url(#clip-path-4)">
            <g id="Group_21100" data-name="Group 21100" style="mix-blend-mode: multiply;isolation: isolate">
              <g id="Group_21099" data-name="Group 21099">
                <g id="Group_21098" data-name="Group 21098" clip-path="url(#clip-path-5)">
                  <path id="Path_9668" data-name="Path 9668" d="M89.57,48.972l-.009,0,.005-.008,2.654-9.905-7.429-1.992-6.427,8.9L53.655,39.345,63.233,31.3a1.639,1.639,0,0,0-.629-2.838l-6.252-1.672a1.636,1.636,0,0,0-1.175.132L38.8,35.365,27.38,32.3a6.836,6.836,0,0,0-4.316.264L16.455,35.22h0c-.029.012-.055.027-.084.039a6.83,6.83,0,0,0,.864,12.9v0l21.38,5.73L52.695,75.8a1.64,1.64,0,0,0,.955.7L59.9,78.176a1.639,1.639,0,0,0,1.965-2.143L55.453,58.4l4.756,1.275a32.369,32.369,0,0,0,14.87.446l3.739-.767L80.632,62.5l4.954,1.326-1.15-5.616-.01,0,.016,0Z" fill="#c2c2c1"/>
                </g>
              </g>
            </g>
          </g>
        </g>
        <g id="Group_21104" data-name="Group 21104">
          <g id="Group_21103" data-name="Group 21103" clip-path="url(#clip-path-2)">
            <path id="Path_9669" data-name="Path 9669" d="M10.2,32.393,30.011,37.7,51.57,19.6a1.639,1.639,0,0,0-.629-2.838l-6.252-1.672a1.636,1.636,0,0,0-1.175.132Z" fill="#fdb913"/>
            <path id="Path_9670" data-name="Path 9670" d="M10.2,32.393,30.011,37.7,51.57,19.6a1.639,1.639,0,0,0-.629-2.838l-6.252-1.672a1.636,1.636,0,0,0-1.175.132Z" fill="none" stroke="#004ea8" stroke-linecap="round" stroke-linejoin="round" stroke-width="1"/>
            <path id="Path_9671" data-name="Path 9671" d="M5.569,36.456,48.546,47.975a32.369,32.369,0,0,0,14.87.446L72.779,46.5l5.128-9.23L15.717,20.6a6.836,6.836,0,0,0-4.316.264L4.792,23.518a6.833,6.833,0,0,0,.777,12.943" fill="#fff"/>
            <path id="Path_9672" data-name="Path 9672" d="M5.569,36.456,48.546,47.975a32.369,32.369,0,0,0,14.87.446L72.779,46.5l5.128-9.23L15.717,20.6a6.836,6.836,0,0,0-4.316.264L4.792,23.518a6.833,6.833,0,0,0,.777,12.943Z" fill="none" stroke="#004ea8" stroke-linecap="round" stroke-linejoin="round" stroke-width="1"/>
            <path id="Path_9673" data-name="Path 9673" d="M68,34.611l9.9,2.649,2.654-9.9-7.429-1.992Z" fill="#fdb913"/>
            <path id="Path_9674" data-name="Path 9674" d="M68,34.611l9.9,2.649,2.654-9.9-7.429-1.992Z" fill="none" stroke="#004ea8" stroke-linecap="round" stroke-linejoin="round" stroke-width="1"/>
            <path id="Path_9675" data-name="Path 9675" d="M20.769,32.571,40.58,37.88l9.626,26.451a1.639,1.639,0,0,1-1.965,2.143L41.987,64.8a1.637,1.637,0,0,1-.955-.7Z" fill="#fdb913"/>
            <path id="Path_9676" data-name="Path 9676" d="M20.769,32.571,40.58,37.88l9.626,26.451a1.639,1.639,0,0,1-1.965,2.143L41.987,64.8a1.637,1.637,0,0,1-.955-.7Z" fill="none" stroke="#004ea8" stroke-linecap="round" stroke-linejoin="round" stroke-width="1"/>
            <path id="Path_9677" data-name="Path 9677" d="M59.6,37.758a2.563,2.563,0,1,1-2.563,2.563A2.563,2.563,0,0,1,59.6,37.758" fill="#99c1e7"/>
            <circle id="Ellipse_2176" data-name="Ellipse 2176" cx="2.563" cy="2.563" r="2.563" transform="translate(57.036 37.758)" fill="none" stroke="#004ea8" stroke-linecap="round" stroke-linejoin="round" stroke-width="1"/>
            <path id="Path_9678" data-name="Path 9678" d="M49.693,35.1a2.563,2.563,0,1,1-2.563,2.563A2.563,2.563,0,0,1,49.693,35.1" fill="#99c1e7"/>
            <circle id="Ellipse_2177" data-name="Ellipse 2177" cx="2.563" cy="2.563" r="2.563" transform="translate(47.13 35.104)" fill="none" stroke="#004ea8" stroke-linecap="round" stroke-linejoin="round" stroke-width="1"/>
            <path id="Path_9679" data-name="Path 9679" d="M4.793,23.519l2.776-1.114L15,24.4a1.924,1.924,0,1,1-1,3.715L2.513,25.033a6.827,6.827,0,0,1,2.276-1.514" fill="#99c1e7"/>
            <path id="Path_9680" data-name="Path 9680" d="M4.793,23.519l2.776-1.114L15,24.4a1.924,1.924,0,1,1-1,3.715L2.513,25.033A6.813,6.813,0,0,1,4.793,23.519Z" fill="none" stroke="#004ea8" stroke-linecap="round" stroke-linejoin="round" stroke-width="1"/>
            <path id="Path_9681" data-name="Path 9681" d="M72.773,46.506l1.15,5.616L68.969,50.8l-3.626-6.281Z" fill="#fdb913"/>
            <path id="Path_9682" data-name="Path 9682" d="M72.773,46.506l1.15,5.616L68.969,50.8l-3.626-6.281Z" fill="none" stroke="#004ea8" stroke-linecap="round" stroke-linejoin="round" stroke-width="1"/>
            <line id="Line_2641" data-name="Line 2641" x2="5.622" y2="1.544" transform="translate(62.007 19.833)" fill="none" stroke="#004ea8" stroke-linecap="round" stroke-width="1"/>
            <line id="Line_2642" data-name="Line 2642" x2="9.238" y2="2.285" transform="translate(58.449 62.124)" fill="none" stroke="#004ea8" stroke-linecap="round" stroke-width="1"/>
            <line id="Line_2643" data-name="Line 2643" x2="8.836" y2="2.41" transform="translate(57.589 22.584)" fill="none" stroke="#004ea8" stroke-linecap="round" stroke-width="1"/>
            <line id="Line_2644" data-name="Line 2644" x2="14.862" y2="3.585" transform="translate(54.431 55.202)" fill="none" stroke="#004ea8" stroke-linecap="round" stroke-width="1"/>
          </g>
        </g>
      </g>
    </g>
  </g>
</svg>
