<svg xmlns="http://www.w3.org/2000/svg" xmlns:xlink="http://www.w3.org/1999/xlink" width="200" height="134" viewBox="0 0 200 134">
  <defs>
    <clipPath id="clip-path">
      <rect id="Rectangle_21508" data-name="Rectangle 21508" width="200" height="134" rx="8" transform="translate(61.58 441)" fill="#e5f5ff"/>
    </clipPath>
  </defs>
  <g id="img-bdorewards-mobile" transform="translate(-61.58 -441)" clip-path="url(#clip-path)">
    <path id="Path_8853" data-name="Path 8853" d="M153.49,0c84.77,0,153.49,32.695,153.49,73.026S0,113.357,0,73.026,68.72,0,153.49,0Z" transform="translate(5.054 478.831)" fill="#7eb7eb" opacity="0.392"/>
    <g id="Group_17343" data-name="Group 17343" transform="translate(138.906 444.8) rotate(43)">
      <g id="Path_8854" data-name="Path 8854" transform="translate(0 0)" fill="#004ea8" stroke-linecap="round">
        <path d="M 5.710440158843994 40.99670791625977 C 4.397140026092529 40.99670791625977 3.169569969177246 40.48830032348633 2.253870010375977 39.56512832641602 C 1.339880108833313 38.64369964599609 0.8423800468444824 37.41473770141602 0.8530100584030151 36.10466003417969 L 1.095630049705505 6.206149578094482 C 1.117840051651001 3.468799352645874 3.365950107574463 1.223719358444214 6.107029914855957 1.201499342918396 L 62.19086837768555 0.7468993663787842 L 62.23207855224609 0.7467293739318848 C 63.54537963867188 0.7467293739318848 64.77294158935547 1.255139350891113 65.68865203857422 2.178309440612793 C 66.60263824462891 3.09973931312561 67.10015106201172 4.328699588775635 67.08952331542969 5.638789176940918 L 66.84689331054688 35.53728866577148 C 66.82467651367188 38.27463912963867 64.57656860351562 40.51971817016602 61.83549118041992 40.54193878173828 L 5.751649856567383 40.99654006958008 L 5.710440158843994 40.99670791625977 Z" stroke="none"/>
        <path d="M 62.23209381103516 1.746730804443359 L 62.19897079467773 1.746864318847656 L 6.115127563476562 2.201465606689453 C 3.916557312011719 2.219287872314453 2.1134033203125 4.019420623779297 2.095596313476562 6.214263916015625 L 1.852973937988281 36.11277389526367 C 1.844512939453125 37.15422058105469 2.239028930664062 38.13019561767578 2.963829040527344 38.86090850830078 C 3.690345764160156 39.59334182739258 4.665771484375 39.99670791625977 5.710414886474609 39.99670791625977 L 5.743537902832031 39.99657440185547 L 61.8273811340332 39.54197692871094 C 64.02594757080078 39.52415466308594 65.8291015625 37.72401809692383 65.84691619873047 35.5291633605957 L 66.08954620361328 5.63067626953125 C 66.09799194335938 4.589218139648438 65.70348358154297 3.613243103027344 64.97868347167969 2.882530212402344 C 64.25215911865234 2.150096893310547 63.27673721313477 1.746730804443359 62.23209381103516 1.746730804443359 M 62.23208999633789 -0.2532691955566406 C 65.49828338623047 -0.2532691955566406 68.11600494384766 2.378017425537109 68.08948516845703 5.646896362304688 L 67.84684753417969 35.5453987121582 C 67.8201904296875 38.83052062988281 65.1324462890625 41.51525115966797 61.84359359741211 41.54190826416016 L 5.759750366210938 41.99650955200195 C 2.469955444335938 42.02316665649414 -0.1736297607421875 39.38166427612305 -0.1469650268554688 36.09654235839844 L 0.0956573486328125 6.198028564453125 C 0.122314453125 2.912918090820312 2.81005859375 0.2281875610351562 6.098915100097656 0.2015304565429688 L 62.18276214599609 -0.2530708312988281 C 62.19902038574219 -0.2532005310058594 62.21586227416992 -0.2532691955566406 62.23208999633789 -0.2532691955566406 Z" stroke="none" fill="#003a7c"/>
      </g>
      <g id="BDOonBlue" transform="translate(5.787 5.89)">
        <g id="Group_4058" data-name="Group 4058" transform="translate(12.921 -0.053)">
          <path id="Path_964" data-name="Path 964" d="M4.069-.017C1.817,0,0,1.414-.015,3.661S1.757,7.292,4.01,7.274,8.077,5.841,8.1,3.6,6.323-.035,4.069-.017ZM4.017,6.4c-1.625.013-2.3-1.29-2.286-2.757S2.438.866,4.062.853s2.3,1.288,2.287,2.756S5.642,6.391,4.017,6.4Z" transform="translate(0 0)" fill="#fff"/>
        </g>
        <path id="Path_965" data-name="Path 965" d="M9.553-.039,6.805-.017,6.772,4.151A1.864,1.864,0,0,0,5.3,3.127a1.532,1.532,0,0,0,.923-1.44C6.229.661,5.552-.005,3.94.008h0L.028.039-.028,6.908,4.24,6.874c1.268-.01,2.175-.368,2.519-1.2L6.75,6.853,9.5,6.831c1.913-.016,3.217-.594,3.856-1.671a3.519,3.519,0,0,1-.445-1.789,3.588,3.588,0,0,1,.475-1.8C12.762.5,11.467-.054,9.553-.039ZM1.663.935,3.285.922c.832-.007,1.228.381,1.223.984s-.408,1-1.239,1l-1.621.013L1.664.935Zm2.2,5.031-2.236.018.017-2.152,2.236-.018c.9-.007,1.33.411,1.325,1.065S4.762,5.96,3.86,5.967Zm5.451-.044L8.4,5.93,8.443.881,9.352.873c1.946-.016,2.721,1.053,2.709,2.5s-.8,2.531-2.75,2.547Z" transform="translate(-0.001 0.237)" fill="#fff"/>
      </g>
      <g id="Group_17339" data-name="Group 17339" transform="translate(5.773 26.774)">
        <path id="Path_8856" data-name="Path 8856" d="M1.969.024,9.815-.04A1.922,1.922,0,0,1,11.76,1.9,2,2,0,0,1,9.783,3.878l-7.845.064A1.922,1.922,0,0,1-.008,2,2,2,0,0,1,1.969.024Z" transform="translate(0.03 0.163)" fill="#2683ef"/>
        <path id="Path_8857" data-name="Path 8857" d="M1.969.021,9.161-.037a1.922,1.922,0,0,1,1.945,1.943A2,2,0,0,1,9.129,3.881l-7.192.058A1.922,1.922,0,0,1-.008,2,2,2,0,0,1,1.969.021Z" transform="translate(13.759 0.055)" fill="#2683ef"/>
        <path id="Path_8858" data-name="Path 8858" d="M1.969.021,9.161-.037a1.922,1.922,0,0,1,1.945,1.943A2,2,0,0,1,9.129,3.881l-7.192.058A1.922,1.922,0,0,1-.008,2,2,2,0,0,1,1.969.021Z" transform="translate(26.835 -0.051)" fill="#2683ef"/>
        <path id="Path_8859" data-name="Path 8859" d="M1.969.024,9.815-.04A1.922,1.922,0,0,1,11.76,1.9,2,2,0,0,1,9.783,3.878l-7.845.064A1.922,1.922,0,0,1-.008,2,2,2,0,0,1,1.969.024Z" transform="translate(40.564 -0.165)" fill="#2683ef"/>
        <path id="Path_8860" data-name="Path 8860" d="M1.641.112l29.42-.238a1.6,1.6,0,0,1,1.621,1.619,1.666,1.666,0,0,1-1.648,1.646l-29.42.238A1.6,1.6,0,0,1-.007,1.758,1.666,1.666,0,0,1,1.641.112Z" transform="translate(-0.032 7.914)" fill="#2683ef"/>
      </g>
    </g>
    <g id="Group_17348" data-name="Group 17348" transform="matrix(-0.208, 0.978, -0.978, -0.208, 239.205, 446.092)">
      <g id="Rectangle_21500" data-name="Rectangle 21500" transform="translate(0 0)" fill="#25aa6d" stroke="#006942" stroke-linecap="round" stroke-linejoin="round" stroke-width="2">
        <rect width="52.911" height="33.094" rx="5" stroke="none"/>
        <rect x="1" y="1" width="50.911" height="31.094" rx="4" fill="none"/>
      </g>
      <g id="BDOonBlue-2" data-name="BDOonBlue" transform="translate(4.45 4.557)">
        <g id="Group_4058-2" data-name="Group 4058" transform="translate(10.044 0)">
          <path id="Path_964-2" data-name="Path 964" d="M3.155,0a2.9,2.9,0,1,0,0,5.773A2.9,2.9,0,1,0,3.155,0Zm0,5.084c-1.264,0-1.8-1.036-1.8-2.2s.532-2.2,1.8-2.2,1.8,1.035,1.8,2.2S4.419,5.084,3.155,5.084Z" transform="translate(0 0)" fill="#fff"/>
        </g>
        <path id="Path_965-2" data-name="Path 965" d="M7.412,0H5.274V3.3a1.482,1.482,0,0,0-1.154-.82A1.191,1.191,0,0,0,4.83,1.346C4.83.533,4.3,0,3.045,0H0V5.44H3.321c.987,0,1.69-.278,1.953-.931V5.44H7.411a3.186,3.186,0,0,0,2.99-1.3,2.858,2.858,0,0,1-.357-1.42A2.846,2.846,0,0,1,10.4,1.3,3.182,3.182,0,0,0,7.412,0ZM1.279.721H2.541c.647,0,.958.309.958.787s-.311.786-.958.786H1.279V.721Zm1.742,4H1.28v-1.7H3.02c.7,0,1.038.334,1.038.852S3.722,4.719,3.02,4.719Zm4.242,0H6.554v-4h.708a1.859,1.859,0,0,1,2.124,2,1.859,1.859,0,0,1-2.124,2Z" transform="translate(0 0.164)" fill="#fff"/>
      </g>
      <g id="Group_17344" data-name="Group 17344" transform="translate(4.579 21.201)">
        <rect id="Rectangle_21502" data-name="Rectangle 21502" width="9.158" height="3.103" rx="1.551" transform="translate(0 0)" fill="#006942"/>
        <rect id="Rectangle_21503" data-name="Rectangle 21503" width="8.649" height="3.103" rx="1.551" transform="translate(10.684 0)" fill="#006942"/>
        <rect id="Rectangle_21504" data-name="Rectangle 21504" width="8.649" height="3.103" rx="1.551" transform="translate(20.859 0)" fill="#006942"/>
        <rect id="Rectangle_21505" data-name="Rectangle 21505" width="9.158" height="3.103" rx="1.551" transform="translate(31.543 0)" fill="#006942"/>
        <rect id="Rectangle_21506" data-name="Rectangle 21506" width="25.438" height="2.585" rx="1.293" transform="translate(0 6.205)" fill="#006942"/>
      </g>
    </g>
    <g id="Group_17353" data-name="Group 17353" transform="matrix(0.998, 0.07, -0.07, 0.998, 79.877, 506.588)">
      <g id="Path_8872" data-name="Path 8872" transform="translate(0 0)" fill="#e2e2e2" stroke-linecap="round">
        <path d="M 7.650453090667725 49.06825637817383 C 5.836163997650146 49.06825637817383 4.138986110687256 48.36886978149414 2.871564149856567 47.09893417358398 C 1.636608481407166 45.86152267456055 0.958386242389679 44.22356796264648 0.9618306756019592 42.48678970336914 L 1.03083074092865 7.679745674133301 C 1.038052916526794 4.039156913757324 4.059964179992676 1.071434617042542 7.767186164855957 1.064201354980469 L 74.87693023681641 0.9332457780838013 L 74.89061737060547 0.933234691619873 C 76.70489501953125 0.933234691619873 78.40207672119141 1.632623553276062 79.66949462890625 2.902556896209717 C 80.90444946289062 4.139967918395996 81.58267211914062 5.777923583984375 81.57923126220703 7.514701366424561 L 81.51023864746094 42.32174682617188 C 81.50302124023438 45.96233367919922 78.48110961914062 48.93005752563477 74.77388763427734 48.93729019165039 L 7.664141654968262 49.06824493408203 L 7.650453090667725 49.06825637817383 Z" stroke="none"/>
        <path d="M 74.89063262939453 1.933235168457031 L 74.87888336181641 1.933246612548828 L 7.769126892089844 2.064208984375 C 4.611152648925781 2.070358276367188 2.036956787109375 4.590370178222656 2.030830383300781 7.681720733642578 L 1.961830139160156 42.48876953125 C 1.958915710449219 43.95806884765625 2.533370971679688 45.34444427490234 3.579368591308594 46.39252090454102 C 4.657844543457031 47.4731330871582 6.103645324707031 48.06826019287109 7.650444030761719 48.06826019287109 L 7.662193298339844 48.06824493408203 L 74.77194213867188 47.93728256225586 C 77.92991638183594 47.93113327026367 80.50411987304688 45.41110992431641 80.51024627685547 42.31975936889648 L 80.57923126220703 7.512706756591797 C 80.58214569091797 6.043418884277344 80.0076904296875 4.657047271728516 78.96169281005859 3.608970642089844 C 77.88321685791016 2.528358459472656 76.43741607666016 1.933235168457031 74.89063262939453 1.933235168457031 M 74.890625 -0.06676864624023438 C 79.14668273925781 -0.06676864624023438 82.58754730224609 3.325267791748047 82.57923126220703 7.516670227050781 L 82.51024627685547 42.32372283935547 C 82.50191497802734 46.52025985717773 79.03909301757812 49.92897033691406 74.77584075927734 49.93728256225586 L 7.666091918945312 50.06824493408203 C 3.401145935058594 50.07656860351562 -0.04650115966796875 46.68134689331055 -0.03816986083984375 42.48480987548828 L 0.03083038330078125 7.677757263183594 C 0.039154052734375 3.481231689453125 3.501953125 0.07252120971679688 7.765228271484375 0.064208984375 L 74.87498474121094 -0.06675338745117188 C 74.88018798828125 -0.06676483154296875 74.88542175292969 -0.06676864624023438 74.890625 -0.06676864624023438 Z" stroke="none" fill="#4d4d4d"/>
      </g>
      <g id="BDOonBlue-3" data-name="BDOonBlue" transform="translate(6.958 6.911)">
        <g id="Group_4058-3" data-name="Group 4058" transform="translate(15.678 0)">
          <path id="Path_964-3" data-name="Path 964" d="M4.927,0C2.192,0,0,1.678,0,4.366S2.174,8.723,4.91,8.718,9.838,7.034,9.843,4.347,7.664-.01,4.927,0ZM4.912,7.677c-1.972,0-2.8-1.56-2.8-3.315s.837-3.322,2.81-3.326,2.8,1.558,2.8,3.315S6.884,7.673,4.912,7.677Z" transform="translate(0.004 0.004)" fill="#231f20"/>
        </g>
        <path id="Path_965-3" data-name="Path 965" d="M11.573-.01,8.238,0l-.01,4.986a2.3,2.3,0,0,0-1.8-1.236A1.8,1.8,0,0,0,7.54,2.031C7.542.8,6.716,0,4.759,0h0L.009.013-.007,8.231l5.182-.01c1.54,0,2.638-.425,3.05-1.413l0,1.407,3.334-.007c2.323,0,3.9-.688,4.669-1.971a4.2,4.2,0,0,1-.554-2.144,4.2,4.2,0,0,1,.564-2.148C15.473.662,13.9-.015,11.573-.01ZM2,1.1l1.969,0c1.01,0,1.494.465,1.493,1.186s-.488,1.189-1.5,1.191L2,3.475,2,1.1ZM4.707,7.134l-2.715.005L2,4.564l2.715-.005c1.094,0,1.618.5,1.617,1.284S5.8,7.131,4.707,7.134Zm6.618-.013-1.1,0,.012-6.041,1.1,0c2.362,0,3.312,1.28,3.308,3.014s-.956,3.023-3.32,3.027Z" transform="translate(0.007 0.276)" fill="#231f20"/>
      </g>
      <path id="Path_8873" data-name="Path 8873" d="M2.384.009,12.7-.011a2.352,2.352,0,0,1,2.377,2.339,2.374,2.374,0,0,1-2.386,2.349L2.374,4.7A2.352,2.352,0,0,1,0,2.357,2.374,2.374,0,0,1,2.384.009Z" transform="translate(61.941 6.977)" fill="#adadad"/>
      <g id="Group_17349" data-name="Group 17349" transform="translate(7.104 31.98)">
        <path id="Path_8874" data-name="Path 8874" d="M2.384.008l9.525-.019a2.352,2.352,0,0,1,2.377,2.339A2.374,2.374,0,0,1,11.9,4.677L2.374,4.7A2.352,2.352,0,0,1,0,2.357,2.374,2.374,0,0,1,2.384.008Z" transform="translate(0.02 0.107)" fill="#adadad"/>
        <path id="Path_8875" data-name="Path 8875" d="M2.384.007,11.115-.01a2.352,2.352,0,0,1,2.377,2.339,2.374,2.374,0,0,1-2.386,2.349L2.374,4.7A2.352,2.352,0,0,1,0,2.356,2.374,2.374,0,0,1,2.384.007Z" transform="translate(16.688 0.075)" fill="#adadad"/>
        <path id="Path_8876" data-name="Path 8876" d="M2.384.007,11.115-.01a2.352,2.352,0,0,1,2.377,2.339,2.374,2.374,0,0,1-2.386,2.349L2.374,4.7A2.352,2.352,0,0,1,0,2.356,2.374,2.374,0,0,1,2.384.007Z" transform="translate(32.563 0.044)" fill="#adadad"/>
        <path id="Path_8877" data-name="Path 8877" d="M2.384.008l9.525-.019a2.352,2.352,0,0,1,2.377,2.339A2.374,2.374,0,0,1,11.9,4.677L2.374,4.7A2.352,2.352,0,0,1,0,2.357,2.374,2.374,0,0,1,2.384.008Z" transform="translate(49.231 0.011)" fill="#adadad"/>
        <path id="Path_8878" data-name="Path 8878" d="M1.986.036,37.7-.034a1.96,1.96,0,0,1,1.98,1.949A1.978,1.978,0,0,1,37.7,3.873l-35.718.07A1.96,1.96,0,0,1,0,1.993,1.978,1.978,0,0,1,1.986.036Z" transform="translate(0.002 9.455)" fill="#adadad"/>
      </g>
    </g>
    <g id="Ellipse_2043" data-name="Ellipse 2043" transform="translate(195.861 497.848)" fill="none" stroke="#76b0de" stroke-width="2">
      <ellipse cx="5.5" cy="5.411" rx="5.5" ry="5.411" stroke="none"/>
      <ellipse cx="5.5" cy="5.411" rx="4.5" ry="4.411" fill="none"/>
    </g>
    <g id="Group_269" data-name="Group 269" transform="matrix(0.891, -0.454, 0.454, 0.891, 171.299, 531.369)">
      <path id="Path_282" data-name="Path 282" d="M13.517.076,3.076.006A3.032,3.032,0,0,0,.006,3.031L.025,8.376a7.374,7.374,0,0,0,4.13,6.563h0A7.378,7.378,0,0,1,8.286,21.5L8.3,25.072l4.591.1a24.468,24.468,0,0,0-.763-8.4,10.129,10.129,0,0,0-3.96-5.359c-.626-.6-3.081-1.754-3.084-2.631L5.069,4.941l9.035.071Z" transform="translate(0.025 12.324)" fill="#fdb913" stroke="#004ea8" stroke-linecap="round" stroke-linejoin="round" stroke-width="2"/>
      <path id="Path_282-2" data-name="Path 282" d="M.01,4.95l9.035-.007.014,3.834c0,.877-2.444,2.019-3.067,2.61a9.934,9.934,0,0,0-3.921,5.331,24.407,24.407,0,0,0-.7,8.4l4.59-.064-.013-3.569a7.251,7.251,0,0,1,4.083-6.534h0a7.247,7.247,0,0,0,4.083-6.534l-.019-5.345A3.084,3.084,0,0,0,11,.022L.561.017Z" transform="translate(53.211 12.525)" fill="#fdb913" stroke="#004ea8" stroke-linecap="round" stroke-linejoin="round" stroke-width="2"/>
      <path id="Path_284" data-name="Path 284" d="M40.769.139c.087,0,.174,0,.26.01a3.627,3.627,0,0,1,3.377,3.837l-.3,4.35-1.858,30.3a19.558,19.558,0,0,1-19.732,18.1h0A19.9,19.9,0,0,1,2.655,38.5L.018,3.828A3.567,3.567,0,0,1,3.367.015c.086-.006.173-.008.26-.008L40.769.139" transform="translate(11.444 0.023)" fill="#fdb913" stroke="#004ea8" stroke-linecap="round" stroke-linejoin="round" stroke-width="2"/>
      <line id="Line_2393" data-name="Line 2393" x2="7.121" y2="9.107" transform="translate(39.054 9.203)" fill="none" stroke="#fff" stroke-linecap="round" stroke-linejoin="round" stroke-width="2"/>
      <line id="Line_2394" data-name="Line 2394" x2="5.358" y2="6.862" transform="translate(38.398 16.137)" fill="none" stroke="#fff" stroke-linecap="round" stroke-linejoin="round" stroke-width="2"/>
      <path id="Path_8885" data-name="Path 8885" d="M20.547,12.163,18.7,12.157,18.66.051,10.35.021l.043,12.106L8.226,12.12A8.085,8.085,0,0,0,.042,20.185l28.748.1A8.225,8.225,0,0,0,20.547,12.163Z" transform="translate(19.618 56.758)" fill="#fdb913" stroke="#004ea8" stroke-linecap="round" stroke-linejoin="round" stroke-width="2"/>
    </g>
    <line id="Line_2395" data-name="Line 2395" x2="7.947" y2="15.727" transform="translate(274.688 456.917) rotate(53)" fill="none" stroke="#76b0de" stroke-linecap="round" stroke-width="2"/>
    <line id="Line_2396" data-name="Line 2396" x2="1.871" y2="3.758" transform="translate(264.582 476.969) rotate(53)" fill="none" stroke="#76b0de" stroke-linecap="round" stroke-width="2"/>
    <line id="Line_2397" data-name="Line 2397" x2="10.553" y2="7.332" transform="translate(114.328 493.5)" fill="none" stroke="#76b0de" stroke-linecap="round" stroke-width="2"/>
    <line id="Line_2398" data-name="Line 2398" x1="1.007" y2="3.337" transform="translate(107.335 490.439) rotate(-72)" fill="none" stroke="#76b0de" stroke-linecap="round" stroke-width="2"/>
    <line id="Line_2399" data-name="Line 2399" x2="9" y2="5.955" transform="translate(190.075 456.916) rotate(50)" fill="none" stroke="#76b0de" stroke-linecap="round" stroke-width="2"/>
    <line id="Line_2400" data-name="Line 2400" x2="2.512" y2="1.896" transform="translate(191.759 471.168) rotate(50)" fill="none" stroke="#76b0de" stroke-linecap="round" stroke-width="2"/>
    <g id="Group_11418" data-name="Group 11418" transform="translate(82.507 492.96) rotate(-52)">
      <g id="Group_4286" data-name="Group 4286" transform="translate(4.035 0.818)">
        <g id="Path_1111" data-name="Path 1111">
          <path id="Path_3225" data-name="Path 3225" d="M0,0" fill="#76b0de"/>
        </g>
      </g>
      <g id="Group_11412" data-name="Group 11412" transform="translate(3.431 0.022)">
        <path id="Path_3226" data-name="Path 3226" d="M7.346,16.731H7.338a.845.845,0,0,1-.761-.511L.071,1.149A.825.825,0,0,1,.137.368.817.817,0,0,1,.827,0h0L13.942.111a.848.848,0,0,1,.7.383.83.83,0,0,1,.068.79L8.1,16.247A.814.814,0,0,1,7.346,16.731ZM2.093,1.67l5.25,12.158,5.33-12.071Z" transform="translate(-0.003 -0.003)" fill="#76b0de"/>
      </g>
      <g id="Group_11413" data-name="Group 11413" transform="translate(0.02 0.023)">
        <path id="Path_3227" data-name="Path 3227" d="M10.775,16.742a.844.844,0,0,1-.6-.253L.261,6.384a.829.829,0,0,1-.1-1.049L3.572.368a.826.826,0,0,1,1.153-.2.833.833,0,0,1,.222,1.154L1.921,5.727l9.435,9.612a.841.841,0,0,1,.242.591.811.811,0,0,1-.824.812Z" transform="translate(-0.02 -0.014)" fill="#76b0de"/>
      </g>
      <g id="Group_11414" data-name="Group 11414" transform="translate(0.162 4.992)">
        <path id="Path_3228" data-name="Path 3228" d="M20.549,1.818.84,1.66A.846.846,0,0,1,0,.825.814.814,0,0,1,.827,0L20.535.162A.846.846,0,0,1,21.373,1a.814.814,0,0,1-.824.822Z" transform="translate(-0.003 -0.003)" fill="#76b0de"/>
      </g>
      <g id="Group_11415" data-name="Group 11415" transform="translate(5.72 0.039)">
        <path id="Path_3229" data-name="Path 3229" d="M.856,6.672A.846.846,0,0,1,.1,6.192a.823.823,0,0,1,.1-.879l4.1-5A.828.828,0,0,1,5.471.209.831.831,0,0,1,5.6,1.377l-4.1,5A.817.817,0,0,1,.856,6.672Z" transform="translate(-0.02 -0.017)" fill="#76b0de"/>
      </g>
      <g id="Group_11416" data-name="Group 11416" transform="translate(10.296 0.128)">
        <path id="Path_3230" data-name="Path 3230" d="M.891,16.65a.848.848,0,0,1-.769-.513.821.821,0,0,1,.165-.9L9.568,5.776,6.47,1.318a.821.821,0,0,1,.2-1.15A.837.837,0,0,1,7.83.388L11.32,5.411a.824.824,0,0,1-.082,1.048L1.482,16.405A.815.815,0,0,1,.891,16.65Z" transform="translate(-0.054 -0.024)" fill="#76b0de"/>
      </g>
      <g id="Group_11417" data-name="Group 11417" transform="translate(10.171 0.042)">
        <path id="Path_3231" data-name="Path 3231" d="M5.021,6.725a.843.843,0,0,1-.645-.308L.2,1.352A.824.824,0,0,1,.3.187a.835.835,0,0,1,1.17.124l4.18,5.065a.83.83,0,0,1,.116.88A.814.814,0,0,1,5.021,6.725Z" transform="translate(-0.003 -0.003)" fill="#76b0de"/>
      </g>
    </g>
    <path id="Path_8886" data-name="Path 8886" d="M11.069,21.736C11,10.689,10.748,10.883.033,10.819c10.818.065,10.97.075,10.9-10.786C11,11,11.161,10.886,21.974,10.951,11.057,10.885,11,10.791,11.069,21.736Z" transform="matrix(0.914, -0.407, 0.407, 0.914, 146.275, 513.461)" fill="#fff" stroke="#fff" stroke-linecap="round" stroke-linejoin="round" stroke-width="2"/>
    <path id="Path_8887" data-name="Path 8887" d="M7.914,15.542c-.048-7.9-.23-7.76-7.891-7.806,7.735.046,7.844.054,7.8-7.712.048,7.838.16,7.76,7.891,7.806C7.906,7.783,7.867,7.716,7.914,15.542Z" transform="matrix(0.914, -0.407, 0.407, 0.914, 175.161, 487.582)" fill="#fff" stroke="#fff" stroke-linecap="round" stroke-linejoin="round" stroke-width="2"/>
    <path id="Path_8888" data-name="Path 8888" d="M5.886,11.555c-.033-5.873-.169-5.77-5.87-5.8,5.756.032,5.837.038,5.8-5.737.033,5.828.117,5.77,5.87,5.8C5.882,5.786,5.853,5.736,5.886,11.555Z" transform="translate(217.235 492.551) rotate(-22)" fill="#fff" stroke="#fff" stroke-linecap="round" stroke-linejoin="round" stroke-width="2"/>
  </g>
</svg>
