<svg xmlns="http://www.w3.org/2000/svg" xmlns:xlink="http://www.w3.org/1999/xlink" width="112" height="98" viewBox="0 0 112 98">
  <defs>
    <clipPath id="clip-path">
      <rect id="Rectangle_22030" data-name="Rectangle 22030" width="112" height="98" rx="12" transform="translate(117.027 392.001)" fill="#e5f5ff"/>
    </clipPath>
  </defs>
  <g id="img-bdorewards-mobile" transform="translate(-117.027 -392.001)" clip-path="url(#clip-path)">
    <g id="visual" transform="matrix(0.966, -0.259, 0.259, 0.966, 93.971, 401.974)">
      <path id="Path_9452" data-name="Path 9452" d="M60.119,0c33.2,0,60.119,27.924,60.119,62.37s-26.916,62.37-60.119,62.37S0,96.816,0,62.37,26.916,0,60.119,0Z" transform="translate(54.814 4.589)" fill="#7eb7eb" opacity="0.392"/>
      <g id="voucher" transform="translate(-44.286 -294.087) rotate(20)">
        <path id="Path_8689" data-name="Path 8689" d="M274.738,284a3.083,3.083,0,0,1,3.11-2.828v-4.948H252.966v15.552h24.882v-4.948A3.083,3.083,0,0,1,274.738,284Z" transform="translate(0 0.253)" fill="#ff9854" stroke="#1e4ea2" stroke-linecap="round" stroke-linejoin="round" stroke-width="1"/>
        <g id="peso" transform="translate(262.183 280.975)">
          <path id="Path_8690" data-name="Path 8690" d="M283.234,295.455v-5.91a.311.311,0,0,1,.311-.311h2.177a1.866,1.866,0,0,1,0,3.732H285.1" transform="translate(-281.991 -289.234)" fill="none" stroke="#fff" stroke-linecap="round" stroke-linejoin="round" stroke-width="2"/>
          <line id="Line_2390" data-name="Line 2390" x1="1.244" transform="translate(5.598 1.944)" fill="none" stroke="#fff" stroke-linecap="round" stroke-linejoin="round" stroke-width="2"/>
          <line id="Line_2391" data-name="Line 2391" x1="1.244" transform="translate(0 1.944)" fill="none" stroke="#fff" stroke-linecap="round" stroke-linejoin="round" stroke-width="2"/>
        </g>
        <line id="perforation" y1="17.845" transform="translate(257.256 276.467)" fill="none" stroke="#1e4ea2" stroke-linecap="round" stroke-linejoin="round" stroke-width="1" stroke-dasharray="2"/>
      </g>
      <g id="paper_bills_2-filledoutline" transform="matrix(0.966, 0.259, -0.259, 0.966, 32.549, 6.53)">
        <g id="Group_20640" data-name="Group 20640" transform="matrix(0.951, 0.309, -0.309, 0.951, 49.464, 8.838)">
          <path id="Path_8912" data-name="Path 8912" d="M1.1,10.011,0,.892A.516.516,0,0,1,.454.318h0l2.457-.3a3.087,3.087,0,0,1,3.434,2.7h0a3.087,3.087,0,0,1-2.7,3.434h0L3.5,6.17" transform="translate(34.711 48.369)" fill="none" stroke="#fff" stroke-linecap="round" stroke-linejoin="round" stroke-width="4"/>
          <line id="Line_2450" data-name="Line 2450" x1="2.504" y2="0.301" transform="translate(32.518 51.815)" fill="none" stroke="#fff" stroke-linecap="round" stroke-linejoin="round" stroke-width="4"/>
          <line id="Line_2451" data-name="Line 2451" x1="2.504" y2="0.301" transform="translate(41.057 50.788)" fill="none" stroke="#fff" stroke-linecap="round" stroke-linejoin="round" stroke-width="4"/>
          <path id="Path_8913" data-name="Path 8913" d="M1.162,12.951,54.783.043a1.516,1.516,0,0,1,1.829,1.119l6.178,25.66a1.516,1.516,0,0,1-1.119,1.829L8.049,41.56A1.516,1.516,0,0,1,6.22,40.44L.042,14.781a1.516,1.516,0,0,1,1.119-1.829" transform="translate(10.362 23.94)" fill="#99c1e7"/>
          <path id="Path_8914" data-name="Path 8914" d="M1.162,12.951,54.783.043a1.516,1.516,0,0,1,1.829,1.119l6.178,25.66a1.516,1.516,0,0,1-1.119,1.829L8.049,41.56A1.516,1.516,0,0,1,6.22,40.44L.042,14.781A1.516,1.516,0,0,1,1.162,12.951Z" transform="translate(10.362 23.94)" fill="none" stroke="#004ea8" stroke-linecap="round" stroke-linejoin="round" stroke-width="1"/>
          <path id="Path_8915" data-name="Path 8915" d="M10.073,0A10.073,10.073,0,1,1,0,10.073,10.073,10.073,0,0,1,10.073,0" transform="translate(31.714 34.662)" fill="#0072d8"/>
          <ellipse id="Ellipse_2143" data-name="Ellipse 2143" cx="10.073" cy="10.073" rx="10.073" ry="10.073" transform="matrix(0.181, -0.983, 0.983, 0.181, 30.057, 52.818)" fill="none" stroke="#0072d8" stroke-linecap="round" stroke-linejoin="round" stroke-width="1"/>
          <path id="Path_8916" data-name="Path 8916" d="M2.166,10.219.015,1.29A.516.516,0,0,1,.394.667h0L2.8.087a3.087,3.087,0,0,1,1.447,6h0l-.142.034" transform="translate(38.18 39.852)" fill="none" stroke="#fff" stroke-linecap="round" stroke-linejoin="round" stroke-width="1"/>
          <line id="Line_2452" data-name="Line 2452" x1="2.452" y2="0.591" transform="translate(36.345 43.643)" fill="none" stroke="#fff" stroke-linecap="round" stroke-linejoin="round" stroke-width="1"/>
          <line id="Line_2453" data-name="Line 2453" x1="2.452" y2="0.591" transform="translate(44.706 41.628)" fill="none" stroke="#fff" stroke-linecap="round" stroke-linejoin="round" stroke-width="1"/>
          <path id="Path_8917" data-name="Path 8917" d="M1.042,17.4,53.449.077a1.518,1.518,0,0,1,1.917.965l8.289,25.079a1.518,1.518,0,0,1-.965,1.917L10.283,45.36A1.518,1.518,0,0,1,8.366,44.4L.077,19.316A1.517,1.517,0,0,1,1.042,17.4" transform="translate(13.831 13.784)" fill="#e5f5ff"/>
          <path id="Path_8918" data-name="Path 8918" d="M1.042,17.4,53.449.077a1.518,1.518,0,0,1,1.917.965l8.289,25.079a1.518,1.518,0,0,1-.965,1.917L10.283,45.36A1.518,1.518,0,0,1,8.366,44.4L.077,19.316A1.517,1.517,0,0,1,1.042,17.4Z" transform="translate(13.831 13.784)" fill="none" stroke="#004ea8" stroke-linecap="round" stroke-linejoin="round" stroke-width="1.001"/>
          <path id="Path_8919" data-name="Path 8919" d="M1.042,17.4,53.449.077a1.518,1.518,0,0,1,1.917.965l8.289,25.079a1.518,1.518,0,0,1-.965,1.917L10.283,45.36A1.518,1.518,0,0,1,8.366,44.4L.077,19.316A1.517,1.517,0,0,1,1.042,17.4" transform="translate(13.831 13.784)" fill="#fff"/>
          <path id="Path_8920" data-name="Path 8920" d="M1.042,17.4,53.449.077a1.518,1.518,0,0,1,1.917.965l8.289,25.079a1.518,1.518,0,0,1-.965,1.917L10.283,45.36A1.518,1.518,0,0,1,8.366,44.4L.077,19.316A1.517,1.517,0,0,1,1.042,17.4Z" transform="translate(13.831 13.784)" fill="none" stroke="#004ea8" stroke-linecap="round" stroke-linejoin="round" stroke-width="1"/>
          <path id="Path_8921" data-name="Path 8921" d="M56.242,22.576,8.037,38.5a.864.864,0,0,1-1.092-.55l-6.9-20.89a.864.864,0,0,1,.55-1.092L48.8.044a.865.865,0,0,1,1.093.55l6.9,20.89A.865.865,0,0,1,56.242,22.576Z" transform="translate(17.261 17.232)" fill="none" stroke="#99c1e7" stroke-linecap="round" stroke-linejoin="round" stroke-width="1"/>
          <path id="Path_8922" data-name="Path 8922" d="M10.073,0A10.073,10.073,0,1,1,0,10.073,10.073,10.073,0,0,1,10.073,0" transform="translate(35.606 26.431)" fill="#fdb913"/>
          <ellipse id="Ellipse_2144" data-name="Ellipse 2144" cx="10.073" cy="10.073" rx="10.073" ry="10.073" transform="matrix(0.181, -0.983, 0.983, 0.181, 33.949, 44.588)" fill="none" stroke="#fdb913" stroke-linecap="round" stroke-linejoin="round" stroke-width="2"/>
          <path id="Path_8923" data-name="Path 8923" d="M2.907,10.306.026,1.585A.515.515,0,0,1,.353.934h0L2.7.157A3.087,3.087,0,1,1,4.641,6.019L4.5,6.065" transform="translate(41.776 31.636)" fill="none" stroke="#0072d8" stroke-linecap="round" stroke-linejoin="round" stroke-width="3"/>
          <line id="Line_2454" data-name="Line 2454" x1="2.395" y2="0.791" transform="translate(40.214 35.662)" fill="none" stroke="#0072d8" stroke-linecap="round" stroke-linejoin="round" stroke-width="3"/>
          <line id="Line_2455" data-name="Line 2455" x1="2.395" y2="0.791" transform="translate(48.381 32.964)" fill="none" stroke="#0072d8" stroke-linecap="round" stroke-linejoin="round" stroke-width="3"/>
          <path id="Path_8924" data-name="Path 8924" d="M2.856,0A2.856,2.856,0,1,1,0,2.856,2.856,2.856,0,0,1,2.856,0" transform="translate(27.027 39.067)" fill="#99c1e7"/>
          <path id="Path_8925" data-name="Path 8925" d="M2.856,0A2.856,2.856,0,1,1,0,2.856,2.856,2.856,0,0,1,2.856,0" transform="translate(58.444 28.86)" fill="#99c1e7"/>
        </g>
      </g>
      <g id="cards" transform="translate(35.028 16.941)">
        <g id="Group_20618" data-name="Group 20618" transform="translate(24.655 -6.919) rotate(30)">
          <g id="Rectangle_22022" data-name="Rectangle 22022" transform="translate(0 0)" fill="#25aa6d" stroke="#006942" stroke-linecap="round" stroke-linejoin="round" stroke-width="1">
            <rect width="51.953" height="32.494" rx="4" stroke="none"/>
            <rect x="0.5" y="0.5" width="50.953" height="31.494" rx="3.5" fill="none"/>
          </g>
          <g id="BDOonBlue" transform="translate(4.369 4.474)">
            <g id="Group_4058" data-name="Group 4058" transform="translate(9.862 0)">
              <path id="Path_964" data-name="Path 964" d="M3.1,0a2.845,2.845,0,1,0,0,5.668A2.845,2.845,0,1,0,3.1,0Zm0,4.992c-1.241,0-1.764-1.017-1.764-2.158S1.857.676,3.1.676,4.863,1.692,4.863,2.834,4.339,4.992,3.1,4.992Z" transform="translate(0 0)" fill="#fff"/>
            </g>
            <path id="Path_965" data-name="Path 965" d="M7.278,0h-2.1V3.24a1.456,1.456,0,0,0-1.133-.805,1.17,1.17,0,0,0,.7-1.114C4.742.523,4.221,0,2.99,0H0v5.34H3.261c.969,0,1.66-.273,1.918-.914v.914h2.1a3.129,3.129,0,0,0,2.936-1.275,2.806,2.806,0,0,1-.351-1.394,2.794,2.794,0,0,1,.352-1.4A3.125,3.125,0,0,0,7.278,0ZM1.255.708H2.495c.635,0,.941.3.941.773s-.306.772-.941.772H1.256V.708Zm1.71,3.926H1.257V2.961H2.965c.688,0,1.019.328,1.019.836S3.654,4.634,2.965,4.634Zm4.165,0H6.435V.708H7.13A1.825,1.825,0,0,1,9.216,2.671,1.825,1.825,0,0,1,7.131,4.634Z" transform="translate(0 0.161)" fill="#fff"/>
          </g>
          <g id="Group_20614" data-name="Group 20614" transform="translate(4.496 20.817)">
            <rect id="Rectangle_22024" data-name="Rectangle 22024" width="8.992" height="3.046" rx="1.523" transform="translate(0 0)" fill="#006942"/>
            <rect id="Rectangle_22025" data-name="Rectangle 22025" width="8.492" height="3.046" rx="1.523" transform="translate(10.49 0)" fill="#006942"/>
            <rect id="Rectangle_22026" data-name="Rectangle 22026" width="8.492" height="3.046" rx="1.523" transform="translate(20.481 0)" fill="#006942"/>
            <rect id="Rectangle_22027" data-name="Rectangle 22027" width="8.992" height="3.046" rx="1.523" transform="translate(30.972 0)" fill="#006942"/>
            <rect id="Rectangle_22028" data-name="Rectangle 22028" width="24.977" height="2.539" rx="1.269" transform="translate(0 6.093)" fill="#006942"/>
          </g>
        </g>
        <g id="Group_20613" data-name="Group 20613" transform="matrix(0.94, 0.342, -0.342, 0.94, 11.088, 10.937)">
          <g id="Path_9453" data-name="Path 9453" transform="translate(0 0)" fill="#004ea8" stroke-linecap="round">
            <path d="M 4.776694774627686 33.95340347290039 C 3.621074676513672 33.95340347290039 2.540504693984985 33.50565338134766 1.734044671058655 32.69262313842773 C 0.9289947152137756 31.88101387023926 0.4907947182655334 30.79907417297363 0.5001447200775146 29.64610290527344 L 0.6980447173118591 5.264963626861572 C 0.7175547480583191 2.861603736877441 2.691194772720337 0.8904536366462708 5.097614765167236 0.8709436655044556 L 50.83243560791016 0.5001436471939087 L 50.86861419677734 0.5000036358833313 C 52.02424621582031 0.5000036358833313 53.10481643676758 0.9477636218070984 53.91127395629883 1.760793685913086 C 54.71632385253906 2.5724036693573 55.15452575683594 3.654343605041504 55.14516448974609 4.807303428649902 L 54.9472541809082 29.18845367431641 C 54.9277458190918 31.59180450439453 52.9541130065918 33.56295394897461 50.54769515991211 33.58247375488281 L 4.812874794006348 33.95326232910156 L 4.776694774627686 33.95340347290039 Z" stroke="none"/>
            <path d="M 50.86860656738281 1.000003814697266 L 50.83648681640625 1.000133514404297 L 5.101665496826172 1.370933532714844 C 2.966495513916016 1.388233184814453 1.215335845947266 3.136913299560547 1.198036193847656 5.269023895263672 L 1.000133514404297 29.6501636505127 C 0.9918632507324219 30.66881370544434 1.378562927246094 31.62425422668457 2.089015960693359 32.34049224853516 C 2.800884246826172 33.05816268920898 3.755386352539062 33.45340347290039 4.776683807373047 33.45340347290039 L 4.808803558349609 33.45327377319336 L 50.54362487792969 33.08248519897461 C 52.67879486083984 33.0651741027832 54.42996597290039 31.31649398803711 54.447265625 29.18439292907715 L 54.64517593383789 4.803253173828125 C 54.65344619750977 3.78459358215332 54.2667350769043 2.829153060913086 53.5562858581543 2.1129150390625 C 52.84441375732422 1.395244598388672 51.88991546630859 1.000003814697266 50.86860656738281 1.000003814697266 M 50.86860656738281 0 C 53.53187942504883 0 55.66677474975586 2.145870208740234 55.64514541625977 4.811363220214844 L 55.44723510742188 29.19251251220703 C 55.42549514770508 31.87140274047852 53.23369598388672 34.06070327758789 50.55173492431641 34.08245468139648 L 4.816913604736328 34.45324325561523 C 2.135761260986328 34.47498321533203 -0.02158355712890625 32.32094573974609 0.000164031982421875 29.64204406738281 L 0.1980628967285156 5.260904312133789 C 0.2198028564453125 2.582004547119141 2.411594390869141 0.3927040100097656 5.093555450439453 0.3709640502929688 L 50.82837677001953 0.000164031982421875 C 50.841796875 5.340576171875e-05 50.8552131652832 0 50.86860656738281 0 Z" stroke="none" fill="#003a7c"/>
          </g>
          <g id="BDOonBlue-2" data-name="BDOonBlue" transform="translate(4.816 4.953)">
            <g id="Group_4058-2" data-name="Group 4058" transform="translate(10.548 0)">
              <path id="Path_964-2" data-name="Path 964" d="M3.331,0A3.086,3.086,0,0,0,0,3,2.971,2.971,0,0,0,3.282,5.945a3.088,3.088,0,0,0,3.332-3A2.972,2.972,0,0,0,3.331,0ZM3.288,5.236c-1.325.011-1.874-1.052-1.864-2.248S2,.72,3.325.709,5.2,1.76,5.19,2.957,4.613,5.225,3.288,5.236Z" transform="translate(0)" fill="#fff"/>
            </g>
            <path id="Path_965-2" data-name="Path 965" d="M7.813,0,5.573.018l-.028,3.4a1.52,1.52,0,0,0-1.2-.835A1.25,1.25,0,0,0,5.1,1.408C5.1.571,4.55.027,3.236.038h0L.045.064,0,5.665l3.481-.028c1.034-.008,1.774-.3,2.054-.975l-.008.959L7.767,5.6c1.56-.013,2.624-.485,3.144-1.363a2.87,2.87,0,0,1-.363-1.459,2.926,2.926,0,0,1,.388-1.466C10.43.442,9.374-.012,7.813,0ZM1.379.795,2.7.784c.678-.005,1,.311,1,.8S3.367,2.4,2.689,2.4l-1.322.011L1.38.795ZM3.171,4.9l-1.823.015.014-1.755,1.823-.015c.735-.006,1.085.335,1.081.868S3.906,4.892,3.171,4.9Zm4.445-.036-.742.006L6.908.75,7.649.744C9.236.731,9.868,1.6,9.859,2.785A1.968,1.968,0,0,1,7.616,4.862Z" transform="translate(0 0.218)" fill="#fff"/>
          </g>
          <g id="Group_20609" data-name="Group 20609" transform="translate(4.796 21.873)">
            <path id="Path_9455" data-name="Path 9455" d="M1.612.052,8.01,0A1.568,1.568,0,0,1,9.6,1.585,1.63,1.63,0,0,1,7.984,3.2l-6.4.052A1.568,1.568,0,0,1,0,1.663,1.63,1.63,0,0,1,1.612.052Z" transform="translate(0.05 0.268)" fill="#2683ef"/>
            <path id="Path_9456" data-name="Path 9456" d="M1.612.048,7.477,0A1.568,1.568,0,0,1,9.064,1.585,1.63,1.63,0,0,1,7.451,3.2l-5.865.048A1.568,1.568,0,0,1,0,1.658,1.63,1.63,0,0,1,1.612.048Z" transform="translate(11.246 0.182)" fill="#2683ef"/>
            <path id="Path_9457" data-name="Path 9457" d="M1.612.048,7.477,0A1.568,1.568,0,0,1,9.064,1.585,1.63,1.63,0,0,1,7.451,3.2l-5.865.048A1.568,1.568,0,0,1,0,1.658,1.63,1.63,0,0,1,1.612.048Z" transform="translate(21.909 0.095)" fill="#2683ef"/>
            <path id="Path_9458" data-name="Path 9458" d="M1.612.052,8.01,0A1.568,1.568,0,0,1,9.6,1.585,1.63,1.63,0,0,1,7.984,3.2l-6.4.052A1.568,1.568,0,0,1,0,1.663,1.63,1.63,0,0,1,1.612.052Z" transform="translate(33.105 0)" fill="#2683ef"/>
            <path id="Path_9459" data-name="Path 9459" d="M1.344.195,25.335,0a1.306,1.306,0,0,1,1.322,1.321,1.359,1.359,0,0,1-1.344,1.342L1.322,2.857A1.306,1.306,0,0,1,0,1.537,1.359,1.359,0,0,1,1.344.195Z" transform="translate(0 6.518)" fill="#2683ef"/>
          </g>
        </g>
        <g id="Group_20620" data-name="Group 20620" transform="translate(2.072 32.983) rotate(3)">
          <g id="Path_9471" data-name="Path 9471" transform="translate(0 0)" fill="#e2e2e2" stroke-linecap="round">
            <path d="M 5.209717273712158 33.47008895874023 C 3.932777404785156 33.47008895874023 2.738117456436157 32.97770690917969 1.84581732749939 32.08363723754883 C 0.9755373597145081 31.21162796020508 0.4975773394107819 30.05709838867188 0.5000073313713074 28.83272933959961 L 0.5467273592948914 5.248398780822754 C 0.5518173575401306 2.684108734130859 2.67890739440918 0.593758761882782 5.28836727142334 0.588678777217865 L 50.76061630249023 0.500008761882782 L 50.77022552490234 0.4999987483024597 C 52.04706573486328 0.4999987483024597 53.24169921875 0.9924187660217285 54.13404846191406 1.886538743972778 C 55.00436782836914 2.758588790893555 55.48233795166016 3.913088798522949 55.47990798950195 5.137358665466309 L 55.43319702148438 28.7216796875 C 55.42811584472656 31.28597831726074 53.30102920532227 33.37632751464844 50.69155883789062 33.38140869140625 L 5.219307422637939 33.47007751464844 L 5.209717273712158 33.47008895874023 Z" stroke="none"/>
            <path d="M 50.77022552490234 1 L 50.7615966796875 1.000007629394531 L 5.289348602294922 1.088680267333984 C 2.954498291015625 1.093227386474609 1.051265716552734 2.959718704223633 1.046726226806641 5.2493896484375 L 1.000007629394531 28.83371925354004 C 0.9978485107421875 29.92424774169922 1.423938751220703 30.95295906066895 2.199798583984375 31.73034858703613 C 2.997669219970703 32.52980041503906 4.066596984863281 32.97007751464844 5.209697723388672 32.97007751464844 L 5.218326568603516 32.97006988525391 L 50.69057846069336 32.88140869140625 C 53.02542877197266 32.87685775756836 54.92865753173828 31.01036834716797 54.93318557739258 28.72068786621094 L 54.97990798950195 5.136358261108398 C 54.98207855224609 4.045839309692383 54.55598831176758 3.017127990722656 53.78013610839844 2.239738464355469 C 52.98226928710938 1.440277099609375 51.91332626342773 1 50.77022552490234 1 M 50.77022933959961 0 C 53.654052734375 0 55.98554992675781 2.298358917236328 55.97990798950195 5.138349533081055 L 55.93318557739258 28.7226676940918 C 55.92755889892578 31.56612777709961 53.58122634887695 33.87577819824219 50.69252777099609 33.88140869140625 L 5.22027587890625 33.97006988525391 C 2.332473754882812 33.97570037841797 -0.00562286376953125 31.67518997192383 7.62939453125e-06 28.83173942565918 L 0.04672622680664062 5.247407913208008 C 0.0523681640625 2.403947830200195 2.398685455322266 0.09430694580078125 5.287395477294922 0.08868026733398438 L 50.75964736938477 7.62939453125e-06 C 50.7631721496582 0 50.76670455932617 0 50.77022933959961 0 Z" stroke="none" fill="#4d4d4d"/>
          </g>
          <g id="BDOonBlue-3" data-name="BDOonBlue" transform="translate(4.74 4.728)">
            <g id="Group_4058-3" data-name="Group 4058" transform="translate(10.623 0)">
              <path id="Path_964-3" data-name="Path 964" d="M3.341,0A3.052,3.052,0,0,0,0,2.961,3.024,3.024,0,0,0,3.33,5.91,3.053,3.053,0,0,0,6.672,2.948,3.024,3.024,0,0,0,3.341,0Zm-.01,5.2c-1.336,0-1.9-1.057-1.895-2.246S2,.708,3.34.705s1.9,1.056,1.9,2.246S4.667,5.2,3.331,5.2Z" transform="translate(0 0)" fill="#231f20"/>
            </g>
            <path id="Path_965-3" data-name="Path 965" d="M7.847,0,5.587,0,5.58,3.383a1.558,1.558,0,0,0-1.218-.837,1.223,1.223,0,0,0,.752-1.163C5.116.551,4.555.007,3.23.01h0L.011.016,0,5.584l3.511-.007c1.043,0,1.787-.288,2.066-.957l0,.953,2.259,0c1.574,0,2.644-.466,3.164-1.336a2.843,2.843,0,0,1-.375-1.453,2.848,2.848,0,0,1,.382-1.455C10.489.456,9.421,0,7.847,0ZM1.361.751,2.7.748c.684,0,1.012.315,1.011.8s-.33.806-1.015.807l-1.333,0,0-1.611Zm1.833,4.09-1.839,0,0-1.744L3.2,3.1c.741,0,1.1.34,1.1.87S3.936,4.839,3.194,4.841Zm4.484-.009H6.93L6.938.74h.748c1.6,0,2.244.867,2.242,2.042S9.28,4.829,7.679,4.832Z" transform="translate(0 0.18)" fill="#231f20"/>
          </g>
          <path id="Path_9472" data-name="Path 9472" d="M1.617.014,8.608,0a1.593,1.593,0,0,1,1.61,1.585A1.609,1.609,0,0,1,8.6,3.176L1.61,3.19A1.593,1.593,0,0,1,0,1.6,1.609,1.609,0,0,1,1.617.014Z" transform="translate(41.994 4.765)" fill="#adadad"/>
          <g id="Group_20619" data-name="Group 20619" transform="translate(4.839 21.714)">
            <path id="Path_9473" data-name="Path 9473" d="M1.617.013,8.07,0a1.593,1.593,0,0,1,1.61,1.585A1.609,1.609,0,0,1,8.064,3.176L1.61,3.189A1.593,1.593,0,0,1,0,1.6,1.609,1.609,0,0,1,1.617.013Z" transform="translate(0.012 0.065)" fill="#adadad"/>
            <path id="Path_9474" data-name="Path 9474" d="M1.617.012,7.533,0a1.593,1.593,0,0,1,1.61,1.585A1.609,1.609,0,0,1,7.526,3.176L1.61,3.188A1.593,1.593,0,0,1,0,1.6,1.609,1.609,0,0,1,1.617.012Z" transform="translate(11.306 0.044)" fill="#adadad"/>
            <path id="Path_9475" data-name="Path 9475" d="M1.617.012,7.533,0a1.593,1.593,0,0,1,1.61,1.585A1.609,1.609,0,0,1,7.526,3.176L1.61,3.188A1.593,1.593,0,0,1,0,1.6,1.609,1.609,0,0,1,1.617.012Z" transform="translate(22.063 0.023)" fill="#adadad"/>
            <path id="Path_9476" data-name="Path 9476" d="M1.617.013,8.07,0a1.593,1.593,0,0,1,1.61,1.585A1.609,1.609,0,0,1,8.064,3.176L1.61,3.189A1.593,1.593,0,0,1,0,1.6,1.609,1.609,0,0,1,1.617.013Z" transform="translate(33.357 0)" fill="#adadad"/>
            <path id="Path_9477" data-name="Path 9477" d="M1.347.047,25.549,0a1.328,1.328,0,0,1,1.342,1.321,1.341,1.341,0,0,1-1.347,1.326l-24.2.047A1.328,1.328,0,0,1,0,1.373,1.341,1.341,0,0,1,1.347.047Z" transform="translate(0 6.384)" fill="#adadad"/>
          </g>
        </g>
        <path id="Path_9486" data-name="Path 9486" d="M4.644,9.132C4.616,4.484,4.509,4.565,0,4.538,4.552,4.566,4.616,4.57,4.588,0c.028,4.613.094,4.567,4.644,4.594C4.639,4.566,4.616,4.527,4.644,9.132Z" transform="matrix(0.695, -0.719, 0.719, 0.695, 54.522, 31.144)" fill="#fff" stroke="#fff" stroke-linecap="round" stroke-linejoin="round" stroke-width="1"/>
        <path id="Path_9521" data-name="Path 9521" d="M2.822,5.55C2.805,2.725,2.74,2.775,0,2.758,2.767,2.775,2.806,2.778,2.789,0c.017,2.8.057,2.776,2.823,2.792C2.819,2.775,2.805,2.751,2.822,5.55Z" transform="translate(64.434 18.656) rotate(-24)" fill="#fff" stroke="#fff" stroke-linecap="round" stroke-linejoin="round" stroke-width="1"/>
      </g>
      <g id="Ellipse_2153" data-name="Ellipse 2153" transform="translate(116.2 47.351)" fill="none" stroke="#fff" stroke-width="1">
        <ellipse cx="2.945" cy="2.898" rx="2.945" ry="2.898" stroke="none"/>
        <ellipse cx="2.945" cy="2.898" rx="2.445" ry="2.398" fill="none"/>
      </g>
      <g id="Group_11418" data-name="Group 11418" transform="translate(109.725 30.164) rotate(3)">
        <g id="Group_4286" data-name="Group 4286" transform="translate(2.77 0.55)">
          <g id="Path_1111" data-name="Path 1111">
            <path id="Path_3225" data-name="Path 3225" d="M0,0" fill="#1e4ea2"/>
          </g>
        </g>
        <g id="Group_11412" data-name="Group 11412" transform="translate(2.356 0.011)">
          <path id="Path_3226" data-name="Path 3226" d="M4.975,11.294H4.97a.574.574,0,0,1-.519-.343L.046.778A.553.553,0,0,1,.094.249.567.567,0,0,1,.568,0h0L9.556.026a.575.575,0,0,1,.478.257.554.554,0,0,1,.043.534L5.5,10.963A.566.566,0,0,1,4.975,11.294ZM1.429,1.123,4.984,9.33l3.7-8.184Z" transform="translate(0 0)" fill="#1e4ea2"/>
        </g>
        <g id="Group_11413" data-name="Group 11413" transform="translate(0 0.012)">
          <path id="Path_3227" data-name="Path 3227" d="M7.331,11.293a.575.575,0,0,1-.407-.17L.163,4.323A.555.555,0,0,1,.1,3.613L2.455.241A.573.573,0,0,1,3.246.1a.556.556,0,0,1,.148.78L1.3,3.873l6.432,6.47a.555.555,0,0,1-.006.794A.568.568,0,0,1,7.331,11.293Z" transform="translate(0 0)" fill="#1e4ea2"/>
        </g>
        <g id="Group_11414" data-name="Group 11414" transform="translate(0.097 3.385)">
          <path id="Path_3228" data-name="Path 3228" d="M14.078,1.158.571,1.121A.569.569,0,0,1,0,.559.561.561,0,0,1,.568,0L14.075.037A.569.569,0,0,1,14.646.6a.561.561,0,0,1-.568.559Z" transform="translate(0 0)" fill="#1e4ea2"/>
        </g>
        <g id="Group_11415" data-name="Group 11415" transform="translate(3.907 0)">
          <path id="Path_3229" data-name="Path 3229" d="M.57,4.517a.574.574,0,0,1-.515-.322A.552.552,0,0,1,.128,3.6L2.956.2a.575.575,0,0,1,.8-.076.556.556,0,0,1,.081.789L1.01,4.313A.567.567,0,0,1,.57,4.517Z" transform="translate(0 0)" fill="#1e4ea2"/>
        </g>
        <g id="Group_11416" data-name="Group 11416" transform="translate(7.007 0.036)">
          <path id="Path_3230" data-name="Path 3230" d="M.57,11.27a.573.573,0,0,1-.525-.345.553.553,0,0,1,.116-.609l6.4-6.434L4.45.877A.554.554,0,0,1,4.593.1a.576.576,0,0,1,.792.146L7.76,3.63a.553.553,0,0,1-.06.709L.977,11.1A.57.57,0,0,1,.57,11.27Z" transform="translate(0 0)" fill="#1e4ea2"/>
        </g>
        <g id="Group_11417" data-name="Group 11417" transform="translate(6.976 0.001)">
          <path id="Path_3231" data-name="Path 3231" d="M3.418,4.532a.576.576,0,0,1-.441-.206L.13.915A.554.554,0,0,1,.207.126a.576.576,0,0,1,.8.08L3.855,3.618a.554.554,0,0,1,.076.6A.566.566,0,0,1,3.418,4.532Z" transform="translate(0 0)" fill="#1e4ea2"/>
        </g>
      </g>
      <path id="Path_9523" data-name="Path 9523" d="M2.145,4.219C2.132,2.072,2.083,2.109,0,2.1c2.1.013,2.133.015,2.12-2.1.013,2.131.043,2.11,2.146,2.122C2.143,2.11,2.132,2.091,2.145,4.219Z" transform="matrix(0.848, 0.53, -0.53, 0.848, 99.934, 25.062)" fill="#fff" stroke="#fff" stroke-linecap="round" stroke-linejoin="round" stroke-width="1"/>
    </g>
  </g>
</svg>
