<svg xmlns="http://www.w3.org/2000/svg" xmlns:xlink="http://www.w3.org/1999/xlink" width="123.5" height="108" viewBox="0 0 123.5 108">
  <defs>
    <clipPath id="clip-path">
      <rect id="Rectangle_21993" data-name="Rectangle 21993" width="123.5" height="108" rx="8" transform="translate(68.088 405)" fill="#e5f5ff"/>
    </clipPath>
    <clipPath id="clip-path-2">
      <path id="Path_9424" data-name="Path 9424" d="M10.983,2.187c-.012.954.849,1.489,1.5,1.8.669.326.89.535.89.826-.006.448-.535.64-1.03.652a3.621,3.621,0,0,1-1.763-.419L10.273,6.5a5.223,5.223,0,0,0,1.908.355c1.8,0,2.978-.89,2.984-2.269.006-1.751-2.42-1.85-2.4-2.629.006-.238.233-.489.727-.553a3.2,3.2,0,0,1,1.693.3L15.485.3A4.567,4.567,0,0,0,13.88,0c-1.7,0-2.891.9-2.9,2.187m7.4-2.071A.773.773,0,0,0,17.655.6L15.084,6.748h1.8l.361-.989h2.2l.209.989h1.588L19.86.116H18.382m.25,1.792L19.15,4.4H17.725l.907-2.49M8.8.116,7.376,6.748H9.092L10.512.116H8.8m-2.536,0L4.473,4.63,3.752.791A.8.8,0,0,0,2.961.116H.041L0,.308A6.955,6.955,0,0,1,1.693.873a.73.73,0,0,1,.407.582L3.467,6.748H5.282L8.063.116h-1.8" transform="translate(0 0)" fill="#132a7a"/>
    </clipPath>
  </defs>
  <g id="img-creditcard-desktop" transform="translate(-68.088 -405)" clip-path="url(#clip-path)">
    <path id="Path_9381" data-name="Path 9381" d="M55.444,0c30.621,0,55.444,26.175,55.444,58.464s-24.823,58.464-55.444,58.464S0,90.752,0,58.464,24.823,0,55.444,0Z" transform="translate(113.402 399.356)" fill="#7eb7eb" opacity="0.392"/>
    <g id="Group_20566" data-name="Group 20566" transform="matrix(0.848, -0.53, 0.53, 0.848, 83.264, 438.442)">
      <g id="Group_20565" data-name="Group 20565" transform="translate(0 0)">
        <g id="Rectangle_21952" data-name="Rectangle 21952" fill="#919191" stroke="#656565" stroke-linecap="round" stroke-linejoin="round" stroke-width="1">
          <rect width="51.786" height="31.868" rx="4" stroke="none"/>
          <rect x="0.5" y="0.5" width="50.786" height="30.868" rx="3.5" fill="none"/>
        </g>
        <g id="BDOonBlue" transform="translate(4.355 4.388)">
          <g id="Group_4058" data-name="Group 4058" transform="translate(9.831 0)">
            <path id="Path_964" data-name="Path 964" d="M3.088,0A2.829,2.829,0,0,0,0,2.779a2.829,2.829,0,0,0,3.088,2.78,2.831,2.831,0,0,0,3.089-2.78A2.83,2.83,0,0,0,3.088,0Zm0,4.9c-1.237,0-1.758-1-1.758-2.116S1.851.663,3.088.663s1.759,1,1.759,2.116S4.325,4.9,3.088,4.9Z" transform="translate(0 0)" fill="#fcb715"/>
          </g>
          <path id="Path_965" data-name="Path 965" d="M7.255,0H5.162V3.178a1.45,1.45,0,0,0-1.129-.79A1.146,1.146,0,0,0,4.727,1.3C4.727.513,4.208,0,2.98,0H0V5.238H3.251c.966,0,1.654-.267,1.912-.9v.9H7.254a3.138,3.138,0,0,0,2.927-1.25,2.715,2.715,0,0,1-.35-1.367,2.7,2.7,0,0,1,.351-1.368A3.134,3.134,0,0,0,7.255,0Zm-6,.694H2.487c.633,0,.938.3.938.758s-.3.757-.938.757H1.252V.694Zm1.7,3.85h-1.7V2.9h1.7c.686,0,1.016.322,1.016.82S3.643,4.544,2.956,4.544Zm4.152,0H6.415V.694h.693A1.806,1.806,0,0,1,9.187,2.619,1.806,1.806,0,0,1,7.108,4.544Z" transform="translate(0 0.158)" fill="#fff"/>
        </g>
        <rect id="Rectangle_21953" data-name="Rectangle 21953" width="9.461" height="2.988" rx="1.494" transform="translate(38.839 4.482)" fill="#fff"/>
        <g id="Group_20563" data-name="Group 20563" transform="translate(5.477 10.955)">
          <rect id="Rectangle_21959" data-name="Rectangle 21959" width="7.967" height="4.481" rx="2" transform="translate(0 0)" fill="#fff" stroke="#919191" stroke-linecap="round" stroke-linejoin="round" stroke-width="1"/>
          <path id="Path_9383" data-name="Path 9383" d="M3.591,4.193l-.57-1.14a.249.249,0,0,1-.027-.112V1.486a.243.243,0,0,1,.027-.111L3.59.235a.426.426,0,0,1,.761,0l.415.829h3.2v.5H4.948v1H7.967v.5H4.92L4.352,4.192a.425.425,0,0,1-.761,0Zm-.1-2.648V2.882l.479.957.479-.957V1.545L3.971.587ZM0,3.055v-.5H2.988v.5ZM0,1.561v-.5H2.988v.5Z" transform="translate(0 0.679)" fill="#919191"/>
        </g>
        <g id="Group_20564" data-name="Group 20564" transform="translate(46.573 11.665)">
          <path id="Path_9384" data-name="Path 9384" d="M0,.768A.541.541,0,0,0,.159.384.541.541,0,0,0,0,0" transform="translate(0 1.152)" fill="none" stroke="#fff" stroke-linecap="round" stroke-linejoin="round" stroke-width="0.5"/>
          <path id="Path_9385" data-name="Path 9385" d="M0,1.536A1.084,1.084,0,0,0,.318.768,1.083,1.083,0,0,0,0,0" transform="translate(0.748 0.768)" fill="none" stroke="#fff" stroke-linecap="round" stroke-linejoin="round" stroke-width="0.5"/>
          <path id="Path_9386" data-name="Path 9386" d="M0,2.3A1.625,1.625,0,0,0,.477,1.152,1.625,1.625,0,0,0,0,0" transform="translate(1.495 0.384)" fill="none" stroke="#fff" stroke-linecap="round" stroke-linejoin="round" stroke-width="0.5"/>
          <path id="Path_9387" data-name="Path 9387" d="M0,3.071A2.164,2.164,0,0,0,.636,1.536,2.164,2.164,0,0,0,0,0" transform="translate(2.243 0)" fill="none" stroke="#fff" stroke-linecap="round" stroke-linejoin="round" stroke-width="0.5"/>
        </g>
      </g>
      <g id="surface1" transform="translate(37.084 17.358) rotate(1)">
        <path id="Path_9388" data-name="Path 9388" d="M0,0H10.955V10.955H0V0" transform="translate(0 0)" fill="#016fd0"/>
        <path id="Path_9389" data-name="Path 9389" d="M0,3.926V0L6.987.006V1.091l-.808.863.808.871V3.932H5.7l-.685-.756-.68.759L0,3.926" transform="translate(3.968 5.296)" fill="#fff"/>
        <path id="Path_9390" data-name="Path 9390" d="M0,3.063V0H2.6V.706H.841v.479H2.556v.694H.841v.47H2.6v.714H0" transform="translate(4.435 5.728)" fill="#016fd0"/>
        <path id="Path_9391" data-name="Path 9391" d="M0,3.063,1.437,1.53,0,0H1.112L1.99.971,2.871,0H3.936V.024L2.529,1.53,3.936,3.02v.043H2.86l-.894-.98-.885.98H0" transform="translate(7.02 5.728)" fill="#016fd0"/>
        <path id="Path_9392" data-name="Path 9392" d="M1.73,0H3.414l.591,1.343V0H6.085l.359,1.006L6.8,0H8.39V3.925H0L1.73,0" transform="translate(2.565 1.812)" fill="#fff"/>
        <path id="Path_9393" data-name="Path 9393" d="M1.359,0,0,3.06H.932l.256-.613H2.578l.256.613h.955L2.436,0Zm.117,1.761L1.883.786l.407.974Zm0,0" transform="translate(3.254 2.239)" fill="#016fd0"/>
        <path id="Path_9394" data-name="Path 9394" d="M0,3.06V0L1.31,0l.674,1.881L2.663,0H3.924V3.06l-.811.007V.965l-.766,2.1H1.606L.824.958v2.1H0" transform="translate(7.031 2.238)" fill="#016fd0"/>
      </g>
    </g>
    <g id="Group_1" data-name="Group 1" transform="translate(157.513 494.914)">
      <line id="Line_1" data-name="Line 1" y2="6.575" transform="translate(3.287 0)" fill="none" stroke="#fff" stroke-linecap="round" stroke-linejoin="round" stroke-width="1"/>
      <line id="Line_2" data-name="Line 2" x1="6.575" transform="translate(0 3.288)" fill="none" stroke="#fff" stroke-linecap="round" stroke-linejoin="round" stroke-width="1"/>
    </g>
    <g id="Ellipse_2149" data-name="Ellipse 2149" transform="translate(161.088 410)" fill="none" stroke="#fff" stroke-width="1">
      <circle cx="4" cy="4" r="4" stroke="none"/>
      <circle cx="4" cy="4" r="3.5" fill="none"/>
    </g>
    <g id="shop-filled" transform="translate(149.301 436.736) rotate(-16)">
      <path id="Path_3407" data-name="Path 3407" d="M1135.359,453.457h18.175v18.175h-18.175Z" transform="translate(-1135.359 -453.457)" fill="none"/>
      <path id="Path_7730" data-name="Path 7730" d="M11826.795,6803.013a.482.482,0,0,1-.433-.524l.971-10.431a.387.387,0,0,1,.006-.05.481.481,0,0,1,.509-.409v-.007h1.086v2.42a1.1,1.1,0,0,0,1.076,1.093h.01a1.1,1.1,0,0,0,1.092-1.093v-2.43h3.958v2.43a1.093,1.093,0,1,0,2.186,0v-2.43h1.038a.485.485,0,0,1,.48.43l1.172,10.464a.492.492,0,0,1,0,.054.485.485,0,0,1-.484.484h-12.666Zm8.881-9v-3a2.585,2.585,0,1,0-5.171,0v3a.482.482,0,1,1-.965,0v-3a3.554,3.554,0,0,1,7.108,0v3a.486.486,0,1,1-.973,0Z" transform="translate(-11824.065 -6786.15)" fill="#004ea8"/>
    </g>
    <g id="Group_16387" data-name="Group 16387" transform="translate(141.375 417.604)">
      <path id="Rectangle_21032" data-name="Rectangle 21032" d="M2115.208,901.646h-42.546c-.658,0-1.192.39-1.192.87v31.063c0,.481.534.871,1.192.871h42.546c.658,0,1.192-.39,1.192-.871V902.516C2116.4,902.036,2115.866,901.646,2115.208,901.646Z" transform="translate(-2071.469 -863.355)" fill="#fff" stroke="#004ea8" stroke-linecap="round" stroke-width="1"/>
      <g id="Group_20576" data-name="Group 20576" transform="translate(21.741 0)">
        <path id="Path_7051" data-name="Path 7051" d="M2078.894,820.485c-1.642-5.774-9.576-7.584-12.209-1.088s8.026,19.189,8.026,19.189S2080.536,826.259,2078.894,820.485Z" transform="translate(-2053.689 -815.276)" fill="#fdb913" stroke="#004ea8" stroke-linecap="round" stroke-linejoin="round" stroke-width="1"/>
        <path id="Path_9410" data-name="Path 9410" d="M2076.9,827.215c5.073,4.3,1.04,15.867,1.04,15.867" transform="translate(-2058.671 -821.922)" fill="#fdb913" stroke="#004ea8" stroke-linecap="round" stroke-linejoin="round" stroke-width="1"/>
        <path id="Path_7051-2" data-name="Path 7051" d="M2024.077,877.126s7.078,14.753,13.992,15.028,8.515-7.6,3.99-11.424S2024.077,877.126,2024.077,877.126Z" transform="translate(-2000.408 -849.705)" fill="#fdb913" stroke="#004ea8" stroke-linecap="round" stroke-linejoin="round" stroke-width="1"/>
        <path id="Rectangle_21033" data-name="Rectangle 21033" d="M2079.507,866.05l-25.41-39.389a1.5,1.5,0,0,0-1.977-.69l-6.781,4.375a1.5,1.5,0,0,0-.186,2.085l25.41,39.389a1.5,1.5,0,0,0,1.977.69l6.781-4.374A1.5,1.5,0,0,0,2079.507,866.05Z" transform="translate(-2044.83 -821.137)" fill="#fff" stroke="#004ea8" stroke-linecap="round" stroke-width="1"/>
        <rect id="Rectangle_21036" data-name="Rectangle 21036" width="11.214" height="13.829" transform="matrix(-0.542, -0.84, 0.84, -0.542, 16.173, 35.866)" fill="#fdb913" stroke="#004ea8" stroke-linecap="round" stroke-width="1"/>
        <path id="Rectangle_21036-2" data-name="Rectangle 21036" d="M2064.067,868.446l4.049-2.612s1.15-2.188-1.258-5.921-4.821-3.5-4.821-3.5l-4.048,2.612Z" transform="translate(-2039.224 -838.173)" fill="#fdb913" stroke="#004ea8" stroke-linecap="round" stroke-width="1"/>
        <path id="Path_9411" data-name="Path 9411" d="M2050.255,890.06c-1.807-6.315-13.848-7.392-13.848-7.392" transform="translate(-2011.521 -852.791)" fill="#fdb913" stroke="#004ea8" stroke-linecap="round" stroke-linejoin="round" stroke-width="1"/>
      </g>
      <g id="Group_20577" data-name="Group 20577" transform="translate(9.905 43.281)">
        <g id="Ellipse_2150" data-name="Ellipse 2150" transform="translate(2.05 0) rotate(14)" fill="none" stroke="#004ea8" stroke-width="2">
          <circle cx="4.237" cy="4.237" r="4.237" stroke="none"/>
          <circle cx="4.237" cy="4.237" r="3.237" fill="none"/>
        </g>
        <g id="Ellipse_2151" data-name="Ellipse 2151" transform="translate(16.404 12.551) rotate(14)" fill="none" stroke="#004ea8" stroke-width="2">
          <circle cx="4.237" cy="4.237" r="4.237" stroke="none"/>
          <circle cx="4.237" cy="4.237" r="3.237" fill="none"/>
        </g>
        <line id="Line_2543" data-name="Line 2543" x1="14.831" y2="20.563" transform="translate(5.136 1.309)" fill="none" stroke="#004ea8" stroke-linecap="round" stroke-width="2"/>
      </g>
    </g>
    <g id="travel-filled" transform="translate(146.351 417.604) rotate(1)">
      <rect id="Rectangle_21977" data-name="Rectangle 21977" width="11.743" height="11.743" fill="none"/>
      <path id="Path_3341" data-name="Path 3341" d="M.4,8.348,1.5,3.882a.345.345,0,0,0-.1-.334l-.062-.06C.814,2.963-.61,1.2.293.295S2.948.8,3.487,1.341l.061.063a.346.346,0,0,0,.334.1L8.345.4,8.372.4a.421.421,0,0,1,.549.231A.426.426,0,0,1,8.95.743c.019.185.119.622-.044.737L5.766,3.54a.345.345,0,0,0-.1.477l.014.019c.5.66,1,1.343,1.408,1.935a.345.345,0,0,0,.3.149l1.3-.048a.344.344,0,0,1,.256.1l.327.327a.345.345,0,0,1,0,.488.352.352,0,0,1-.077.058L7.887,7.77a.348.348,0,0,0-.134.134L7.03,9.209a.345.345,0,0,1-.469.135.353.353,0,0,1-.077-.058L6.159,8.96a.344.344,0,0,1-.1-.258l.057-1.345a.344.344,0,0,0-.151-.3C5.379,6.662,4.7,6.168,4.039,5.671a.345.345,0,0,0-.483.068l-.013.018L1.476,8.909c-.116.164-.553.063-.737.044h0a.421.421,0,0,1-.346-.578A.156.156,0,0,0,.4,8.348Z" transform="translate(1.19 1.173)" fill="#004ea8"/>
    </g>
    <g id="Group_20583" data-name="Group 20583" transform="translate(88.843 444.906) rotate(-8)">
      <g id="Group_20582" data-name="Group 20582" transform="translate(0 0)">
        <g id="Rectangle_21978" data-name="Rectangle 21978" fill="#0072d8" stroke="#004ea8" stroke-linecap="round" stroke-linejoin="round" stroke-width="1">
          <rect width="59.946" height="36.89" rx="4" stroke="none"/>
          <rect x="0.5" y="0.5" width="58.946" height="35.89" rx="3.5" fill="none"/>
        </g>
        <g id="BDOonBlue-2" data-name="BDOonBlue" transform="translate(5.041 5.08)">
          <g id="Group_4058-2" data-name="Group 4058" transform="translate(11.38 0)">
            <path id="Path_964-2" data-name="Path 964" d="M3.575,0A3.275,3.275,0,0,0,0,3.217,3.275,3.275,0,0,0,3.575,6.435,3.277,3.277,0,0,0,7.151,3.217,3.276,3.276,0,0,0,3.575,0Zm0,5.667c-1.432,0-2.035-1.155-2.035-2.45S2.142.768,3.575.768,5.611,1.921,5.611,3.217,5.007,5.667,3.575,5.667Z" fill="#fcb715"/>
          </g>
          <path id="Path_965-2" data-name="Path 965" d="M8.4,0H5.976V3.679a1.679,1.679,0,0,0-1.307-.914,1.326,1.326,0,0,0,.8-1.264c0-.906-.6-1.5-2.022-1.5H0V6.064H3.763c1.118,0,1.915-.31,2.213-1.038V6.064H8.4c1.687,0,2.833-.5,3.388-1.447a3.144,3.144,0,0,1-.405-1.583,3.132,3.132,0,0,1,.406-1.584C11.231.5,10.085,0,8.4,0ZM1.449.8h1.43c.733,0,1.086.345,1.086.877s-.353.876-1.086.876H1.45V.8ZM3.422,5.26H1.45v-1.9H3.422c.794,0,1.176.372,1.176.949S4.216,5.26,3.422,5.26Zm4.806,0h-.8V.8h.8a2.09,2.09,0,0,1,2.407,2.228A2.09,2.09,0,0,1,8.228,5.26Z" transform="translate(0 0.183)" fill="#fff"/>
        </g>
        <rect id="Rectangle_21979" data-name="Rectangle 21979" width="10.952" height="3.458" rx="1.729" transform="translate(44.959 5.188)" fill="#e5f5ff"/>
        <g id="Group_20580" data-name="Group 20580" transform="translate(6.34 12.681)">
          <rect id="Rectangle_21985" data-name="Rectangle 21985" width="9.222" height="5.188" rx="1" fill="#c2c2c1" stroke="#919191" stroke-linecap="round" stroke-linejoin="round" stroke-width="1"/>
          <g id="Group_20579" data-name="Group 20579" transform="translate(3.755 1.074)">
            <path id="Path_9412" data-name="Path 9412" d="M1.025,3.552,1.685,2.5V1.147L1.025.09A.23.23,0,0,0,.66.09L0,1.147V2.5L.66,3.552A.23.23,0,0,0,1.025,3.552Z" transform="translate(0 0)" fill="none" stroke="#919191" stroke-linecap="round" stroke-linejoin="round" stroke-width="1"/>
          </g>
          <line id="Line_2544" data-name="Line 2544" x2="3.458" transform="translate(0 2.306)" fill="none" stroke="#919191" stroke-linecap="round" stroke-linejoin="round" stroke-width="1"/>
          <line id="Line_2545" data-name="Line 2545" x2="3.458" transform="translate(0 4.035)" fill="none" stroke="#919191" stroke-linecap="round" stroke-linejoin="round" stroke-width="1"/>
          <line id="Line_2546" data-name="Line 2546" x2="4.035" transform="translate(5.188 2.306)" fill="none" stroke="#919191" stroke-linecap="round" stroke-linejoin="round" stroke-width="1"/>
          <line id="Line_2547" data-name="Line 2547" x2="4.035" transform="translate(5.188 4.035)" fill="none" stroke="#919191" stroke-linecap="round" stroke-linejoin="round" stroke-width="1"/>
        </g>
        <g id="Group_20581" data-name="Group 20581" transform="translate(53.912 13.503)">
          <path id="Path_9413" data-name="Path 9413" d="M0,.889A.627.627,0,0,0,.184.444.627.627,0,0,0,0,0" transform="translate(0 1.333)" fill="none" stroke="#e5f5ff" stroke-linecap="round" stroke-linejoin="round" stroke-width="0.5"/>
          <path id="Path_9414" data-name="Path 9414" d="M0,1.778A1.254,1.254,0,0,0,.368.889,1.253,1.253,0,0,0,0,0" transform="translate(0.865 0.889)" fill="none" stroke="#e5f5ff" stroke-linecap="round" stroke-linejoin="round" stroke-width="0.5"/>
          <path id="Path_9415" data-name="Path 9415" d="M0,2.667A1.88,1.88,0,0,0,.552,1.333,1.88,1.88,0,0,0,0,0" transform="translate(1.731 0.444)" fill="none" stroke="#e5f5ff" stroke-linecap="round" stroke-linejoin="round" stroke-width="0.5"/>
          <path id="Path_9416" data-name="Path 9416" d="M0,3.555A2.505,2.505,0,0,0,.737,1.778,2.5,2.5,0,0,0,0,0" transform="translate(2.596 0)" fill="none" stroke="#e5f5ff" stroke-linecap="round" stroke-linejoin="round" stroke-width="0.5"/>
        </g>
      </g>
      <g id="Mastercard-Logo.wine" transform="translate(42.085 23.26)">
        <path id="rect887" d="M0,0H4.188V6.84H0Z" transform="translate(4.944 0.93)" fill="#ff5f00"/>
        <path id="path889" d="M5.376,4.349A4.342,4.342,0,0,1,7.037.93a4.349,4.349,0,1,0,0,6.84,4.342,4.342,0,0,1-1.661-3.42Z" transform="translate(0 0.002)" fill="#eb001b"/>
        <path id="path891" d="M.083.169V.029h.06V0H0V.029H.057v.14Zm.279,0V0H.319L.268.121.217,0H.174V.169H.205V.041l.047.11H.285L.332.041V.169Z" transform="translate(13.576 6.877)" fill="#f79e1b"/>
        <path id="path893" d="M7.038,4.351A4.35,4.35,0,0,1,0,7.77,4.35,4.35,0,0,0,1.662,4.35,4.35,4.35,0,0,0,0,.93,4.35,4.35,0,0,1,7.038,4.349Z" transform="translate(7.037 0)" fill="#f79e1b"/>
      </g>
    </g>
    <g id="Group_20589" data-name="Group 20589" transform="matrix(0.998, 0.07, -0.07, 0.998, 88.889, 464.566)">
      <g id="Group_20587" data-name="Group 20587" transform="translate(0 0)">
        <g id="Rectangle_21986" data-name="Rectangle 21986" fill="#a58c3d" stroke="#59400a" stroke-linecap="round" stroke-linejoin="round" stroke-width="1">
          <rect width="64.607" height="39.598" rx="4" stroke="none"/>
          <rect x="0.5" y="0.5" width="63.607" height="38.598" rx="3.5" fill="none"/>
        </g>
        <g id="BDOonBlue-3" data-name="BDOonBlue" transform="translate(5.428 5.469)">
          <g id="Group_4058-3" data-name="Group 4058" transform="translate(12.251 0)">
            <path id="Path_964-3" data-name="Path 964" d="M3.848,0C1.71,0,0,1.328,0,3.464S1.71,6.928,3.848,6.928,7.7,5.6,7.7,3.464,5.988,0,3.848,0Zm0,6.1c-1.542,0-2.191-1.243-2.191-2.637S2.307.827,3.848.827,6.041,2.068,6.041,3.464,5.39,6.1,3.848,6.1Z" transform="translate(0 0)" fill="#fcb715"/>
          </g>
          <path id="Path_965-3" data-name="Path 965" d="M9.041,0H6.433V3.96a1.808,1.808,0,0,0-1.407-.984,1.428,1.428,0,0,0,.865-1.361C5.891.639,5.244,0,3.714,0H0V6.528H4.051c1.2,0,2.061-.333,2.382-1.117V6.528H9.04c1.816,0,3.05-.54,3.647-1.558a3.386,3.386,0,0,1-.436-1.7,3.371,3.371,0,0,1,.437-1.705C12.091.54,10.858,0,9.041,0ZM1.56.865H3.1c.789,0,1.169.371,1.169.944s-.38.944-1.169.944H1.561V.865Zm2.124,4.8H1.562V3.619H3.684c.855,0,1.266.4,1.266,1.022S4.539,5.663,3.684,5.663Zm5.174,0H7.994V.865h.863c1.847,0,2.591,1.022,2.591,2.4s-.743,2.4-2.591,2.4Z" transform="translate(0 0.197)" fill="#fff"/>
        </g>
        <rect id="Rectangle_21987" data-name="Rectangle 21987" width="12.505" height="4.168" rx="2.084" transform="translate(47.934 5.21)" fill="#f5f3e9"/>
        <g id="Group_20585" data-name="Group 20585" transform="translate(6.516 13.342)">
          <path id="Path_9417" data-name="Path 9417" d="M1.241,0H8.688A1.241,1.241,0,0,1,9.929,1.241v3.1A1.241,1.241,0,0,1,8.688,5.585H1.241A1.241,1.241,0,0,1,0,4.344v-3.1A1.241,1.241,0,0,1,1.241,0Z" transform="translate(0.31 0.31)" fill="#f9f0ba"/>
          <path id="Path_9418" data-name="Path 9418" d="M4.785,6.382,4.7,6.206H1.551A1.553,1.553,0,0,1,0,4.654v-3.1A1.553,1.553,0,0,1,1.551,0H9a1.554,1.554,0,0,1,1.551,1.551v3.1A1.553,1.553,0,0,1,9,6.206H5.821l-.088.176a.53.53,0,0,1-.948,0ZM9,5.585a.932.932,0,0,0,.877-.62H6.441l-.31.62Zm-3.561,0,.418-.836V3.082l-.6-1.193-.6,1.193V4.748l.418.836Zm-3.886,0H4.387l-.312-.624a.311.311,0,0,1-.033-.138V3.009a.311.311,0,0,1,.033-.138l.71-1.421a.53.53,0,0,1,.948,0l.517,1.034H9.928V1.551A.932.932,0,0,0,9,.62H1.551a.932.932,0,0,0-.93.931v.931H4.033V3.1H.62V4.344H4.033v.621H.674A.932.932,0,0,0,1.551,5.585ZM9.928,4.344V3.1H6.476V4.344Z" transform="translate(0)" fill="#967224"/>
        </g>
        <g id="Group_20586" data-name="Group 20586" transform="translate(58.042 14.537)">
          <path id="Path_9419" data-name="Path 9419" d="M0,.957A.674.674,0,0,0,.2.478.674.674,0,0,0,0,0" transform="translate(0 1.435)" fill="#f5f3e9" stroke="#e5f5ff" stroke-linecap="round" stroke-linejoin="round" stroke-width="0.5"/>
          <path id="Path_9420" data-name="Path 9420" d="M0,1.914A1.351,1.351,0,0,0,.4.957,1.349,1.349,0,0,0,0,0" transform="translate(0.932 0.957)" fill="#f5f3e9" stroke="#e5f5ff" stroke-linecap="round" stroke-linejoin="round" stroke-width="0.5"/>
          <path id="Path_9421" data-name="Path 9421" d="M0,2.871A2.024,2.024,0,0,0,.594,1.435,2.025,2.025,0,0,0,0,0" transform="translate(1.864 0.478)" fill="#f5f3e9" stroke="#e5f5ff" stroke-linecap="round" stroke-linejoin="round" stroke-width="0.5"/>
          <path id="Path_9422" data-name="Path 9422" d="M0,3.828A2.7,2.7,0,0,0,.793,1.914,2.7,2.7,0,0,0,0,0" transform="translate(2.795 0)" fill="#f5f3e9" stroke="#e5f5ff" stroke-linecap="round" stroke-linejoin="round" stroke-width="0.5"/>
        </g>
      </g>
      <g id="XMLID_1_" transform="translate(39.376 26.31)">
        <g id="XMLID_2_" transform="translate(0 0)">
          <g id="Group_20588" data-name="Group 20588" transform="translate(0 0)" clip-path="url(#clip-path-2)">
            <path id="Path_9423" data-name="Path 9423" d="M0,7.7,20.919,0l4.758,12.926-20.919,7.7" transform="translate(-2.222 -6.888)" fill="#132a7a"/>
          </g>
        </g>
      </g>
    </g>
  </g>
</svg>
