<svg xmlns="http://www.w3.org/2000/svg" xmlns:xlink="http://www.w3.org/1999/xlink" width="155" height="183" viewBox="0 0 155 183"><defs><style>.a,.j{fill:#e5f5ff;}.b{fill:#f6f6f6;}.b,.g,.h,.i,.j,.k,.l,.n{stroke:#004ea8;}.b,.h,.i,.j,.k,.l,.n,.q,.r,.s,.t{stroke-linecap:round;}.b,.g,.h,.i,.j,.k,.l,.n,.q,.r,.s{stroke-linejoin:round;}.b,.g,.h,.i,.j,.k,.l,.n,.t{stroke-width:2px;}.c{fill:#fff;}.d{clip-path:url(#a);}.e{fill:#7eb7eb;opacity:0.4;}.f{clip-path:url(#b);}.g,.l,.r,.s,.t,.z{fill:none;}.h{fill:#fdb913;}.i{fill:#009d12;}.k{fill:#99c1e7;}.m{clip-path:url(#c);}.n{fill:#0072d8;}.o{fill:#fcb715;}.p{fill:#004ea8;}.q{fill:#c2c2c1;}.q,.r{stroke:#919191;}.s{stroke:#e5f5ff;}.t{stroke:#fdb913;}.u{fill:#ff5f00;}.v{fill:#eb001b;}.w{fill:#f79e1b;}.x{clip-path:url(#d);}.y{stroke:none;}</style><clipPath id="a"><rect class="a" width="155" height="183" rx="8" transform="translate(131.749 -0.17)"/></clipPath><clipPath id="b"><rect class="a" width="282" height="183" rx="8" transform="translate(-0.315 -0.044)"/></clipPath><clipPath id="c"><path class="b" d="M101.033,95.91H4.137A4.134,4.134,0,0,1,.005,91.571L4.391,3.926A4.135,4.135,0,0,1,8.522,0H96.647a4.134,4.134,0,0,1,4.131,3.926l4.386,87.645A4.134,4.134,0,0,1,101.033,95.91Z"/></clipPath><clipPath id="d"><path class="c" d="M12.316,2.443C12.3,3.51,13.268,4.109,14,4.46c.75.364,1,.6,1,.924-.007.5-.6.716-1.155.729a4.067,4.067,0,0,1-1.977-.468l-.346,1.627a5.869,5.869,0,0,0,2.14.4c2.022,0,3.34-1,3.347-2.539.007-1.959-2.713-2.068-2.693-2.94.007-.267.261-.547.816-.618a3.6,3.6,0,0,1,1.9.331l.34-1.575A5.132,5.132,0,0,0,15.565,0c-1.9,0-3.242,1.009-3.249,2.447m8.3-2.319A.867.867,0,0,0,19.8.671L16.914,7.543h2.022l.4-1.106h2.466l.235,1.106h1.781L22.271.124H20.614m.28,2,.58,2.785h-1.6l1.018-2.785M9.864.127,8.27,7.546h1.924L11.788.127H9.864m-2.844,0-2,5.05L4.207.884A.894.894,0,0,0,3.32.129H.046L0,.345A7.809,7.809,0,0,1,1.9.975a.816.816,0,0,1,.456.651L3.886,7.547H5.921L9.042.128H7.019"/></clipPath></defs><g class="d" transform="translate(-131.749 0.17)"><g transform="translate(5.063 -11.693)"><g transform="translate(0 0)"><ellipse class="e" cx="101.5" cy="102" rx="101.5" ry="102" transform="translate(152.685 -0.478)"/><g class="f" transform="translate(0 9.567)"><g transform="translate(182.017 -6.378)"><path class="g" d="M0,28.99V19.327A19.354,19.354,0,0,1,19.378,0h0A19.352,19.352,0,0,1,38.755,19.327V28.99" transform="translate(33.698 0)"/><path class="h" d="M3.555,4.4,21.449.128a4.633,4.633,0,0,1,5.6,3.478L31.871,24.97a4.619,4.619,0,0,1-3.47,5.516l-18.128,4.2A4.632,4.632,0,0,1,4.7,31.158L.1,9.861A4.619,4.619,0,0,1,3.555,4.4Z" transform="translate(15.029 26.592)"/><path class="i" d="M.172,24.574,7.33,2.433A3.52,3.52,0,0,1,11.411.077L51.765,8.632a3.508,3.508,0,0,1,2.586,4.6l-5.07,14.288a3.518,3.518,0,0,1-3.376,2.339l-42.441-.7A3.512,3.512,0,0,1,.172,24.574Z" transform="translate(36.282 22.576)"/><path class="j" d="M101.977,96.635H4.175a4.168,4.168,0,0,1-4.17-4.372L4.432,3.956A4.17,4.17,0,0,1,8.6,0H97.55a4.169,4.169,0,0,1,4.169,3.956l4.427,88.307A4.169,4.169,0,0,1,101.977,96.635Z" transform="translate(0 48.317)"/><ellipse class="k" cx="5.153" cy="5.14" rx="5.153" ry="5.14" transform="translate(28.349 57.898)"/><ellipse class="k" cx="4.684" cy="5.14" rx="4.684" ry="5.14" transform="translate(67.697 57.898)"/><path class="l" d="M0,0V21.631C0,33.578,8.676,43.261,19.378,43.261h0c10.7,0,19.378-9.688,19.378-21.631V0" transform="translate(33.698 63.037)"/></g><g transform="translate(133.969 68.567) rotate(-8)"><g transform="translate(11.986 11.911)"><g class="n" transform="translate(0 0)"><rect class="y" width="85.711" height="52.63" rx="7"/><rect class="z" x="1" y="1" width="83.711" height="50.63" rx="6"/></g><g transform="translate(7.209 7.246)"><g transform="translate(16.267 0.006)"><path class="o" d="M5.11,0C2.271,0,0,1.759,0,4.587s2.272,4.588,5.112,4.59,5.111-1.759,5.11-4.586S7.951,0,5.11,0Zm0,8.08C3.065,8.081,2.2,6.434,2.2,4.588S3.063,1.1,5.11,1.1,8.022,2.742,8.022,4.59,7.16,8.083,5.113,8.082Z" transform="translate(0 0)"/></g><path class="c" d="M12,0H8.542l0,5.245a2.4,2.4,0,0,0-1.869-1.3,1.889,1.889,0,0,0,1.148-1.8C7.822.85,6.962,0,4.931,0h0L0,0,0,8.646l5.379,0c1.6,0,2.737-.44,3.162-1.478v1.48h3.461c2.411,0,4.049-.714,4.842-2.062a4.476,4.476,0,0,1-.58-2.257,4.455,4.455,0,0,1,.58-2.258C16.055.721,14.416.005,12,0ZM2.071,1.147H4.115c1.048,0,1.552.492,1.552,1.251s-.5,1.249-1.552,1.249H2.073v-2.5ZM4.894,7.5H2.076V4.793H4.893c1.135,0,1.681.531,1.681,1.354S6.03,7.5,4.894,7.5Zm6.87,0H10.617l0-6.355h1.146c2.452,0,3.441,1.355,3.442,3.178S14.217,7.506,11.764,7.5Z" transform="translate(0 0.261)"/></g><rect class="p" width="14.833" height="4.937" rx="2.468" transform="translate(7.428 33.699)"/><rect class="p" width="14.009" height="4.936" rx="2.468" transform="translate(24.731 33.705)"/><rect class="p" width="14.009" height="4.936" rx="2.468" transform="translate(41.21 33.711)"/><rect class="a" width="15.657" height="4.937" rx="2.468" transform="translate(64.271 7.42)"/><rect class="p" width="41.199" height="4.124" rx="2.062" transform="translate(7.432 43.562)"/><g transform="translate(9.07 18.084)"><rect class="q" width="13.186" height="7.402" rx="2" transform="translate(0 0)"/><g transform="translate(5.368 1.533)"><path class="r" d="M1.467,6.326,2.41,4.445v-2.4L1.465.161a.292.292,0,0,0-.522,0L0,2.042v2.4L.945,6.326A.292.292,0,0,0,1.467,6.326Z" transform="translate(0 0)"/></g><line class="r" x2="4.944" y2="0.002" transform="translate(0.001 3.287)"/><line class="r" x2="4.944" y2="0.002" transform="translate(0.002 5.753)"/><line class="r" x2="5.768" y2="0.002" transform="translate(7.417 3.29)"/><line class="r" x2="5.768" y2="0.002" transform="translate(7.418 5.756)"/></g><g transform="translate(77.073 19.281)"><path class="s" d="M0,1.267A.892.892,0,0,0,.263.634.893.893,0,0,0,0,0" transform="translate(0.001 1.901)"/><path class="s" d="M0,2.535A1.785,1.785,0,0,0,.526,1.267,1.785,1.785,0,0,0,0,0" transform="translate(1.238 1.268)"/><path class="s" d="M0,3.8A2.676,2.676,0,0,0,.79,1.9,2.68,2.68,0,0,0,0,0" transform="translate(2.474 0.634)"/><path class="s" d="M0,5.069A3.565,3.565,0,0,0,1.054,2.535,3.57,3.57,0,0,0,0,0" transform="translate(3.711 0.001)"/></g></g><g transform="translate(0 0)"><line class="t" x1="0.002" y1="5.011" transform="translate(17.583 0.006)"/><line class="t" x1="4.397" y1="3.76" transform="translate(3.142 5.349)"/><line class="t" x2="6.279" y2="0.002" transform="translate(0.008 20.676)"/></g><g transform="translate(75.693 49.506)"><path class="u" d="M0,0,4.643,0l0,7.563L0,7.563Z" transform="translate(5.482 1.031)"/><path class="v" d="M5.962,4.811A4.794,4.794,0,0,1,7.8,1.031a4.814,4.814,0,1,0,0,7.563A4.8,4.8,0,0,1,5.962,4.811Z" transform="translate(0 0.002)"/><path class="w" d="M.093.187V.032H.159V0H0V.032H.063V.187ZM.4.187V0H.354L.3.134.241,0H.193V.187H.228V.046L.28.167H.316L.368.046V.187Z" transform="translate(15.053 7.61)"/><path class="w" d="M7.8,4.814A4.82,4.82,0,0,1,0,8.592,4.8,4.8,0,0,0,1.844,4.811,4.809,4.809,0,0,0,0,1.029,4.826,4.826,0,0,1,7.8,4.813Z" transform="translate(7.802 0.003)"/></g></g><g transform="matrix(0.995, 0.105, -0.105, 0.995, 165.68, 114.659)"><g transform="translate(0 0)"><g class="n" transform="translate(0 0)"><rect class="y" width="85.679" height="52.575" rx="7"/><rect class="z" x="1" y="1" width="83.679" height="50.575" rx="6"/></g><g transform="translate(7.205 7.241)"><g transform="translate(16.267 -0.004)"><path class="o" d="M5.11,0C2.271,0,0,1.759,0,4.587S2.268,9.174,5.108,9.173s5.112-1.763,5.113-4.589S7.951,0,5.11,0Zm0,8.08C3.06,8.079,2.2,6.433,2.2,4.586S3.062,1.094,5.11,1.093,8.02,2.737,8.02,4.585,7.155,8.078,5.108,8.079Z" transform="translate(0 0)"/></g><path class="c" d="M12,0H8.542V5.243a2.4,2.4,0,0,0-1.868-1.3,1.892,1.892,0,0,0,1.149-1.8C7.822.845,6.962,0,4.931,0H0L0,8.646H5.377c1.6,0,2.737-.442,3.164-1.48v1.48H12c2.411,0,4.05-.716,4.843-2.065a4.472,4.472,0,0,1-.579-2.256,4.459,4.459,0,0,1,.581-2.259C16.055.711,14.417,0,12,0ZM2.071,1.145H4.114c1.048,0,1.552.491,1.552,1.25s-.5,1.25-1.552,1.25H2.071v-2.5ZM4.889,7.5H2.071V4.792H4.89c1.135,0,1.681.53,1.681,1.353S6.025,7.5,4.889,7.5Zm6.87,0H10.613l0-6.355h1.146c2.452,0,3.44,1.353,3.44,3.176S14.213,7.5,11.76,7.5Z" transform="translate(0 0.261)"/></g><rect class="p" width="14.83" height="4.927" rx="2.463" transform="translate(7.406 33.694)"/><rect class="p" width="14.006" height="4.927" rx="2.464" transform="translate(24.71 33.689)"/><rect class="p" width="14.006" height="4.927" rx="2.464" transform="translate(41.189 33.684)"/><rect class="a" width="15.654" height="4.927" rx="2.463" transform="translate(64.268 7.379)"/><rect class="p" width="41.198" height="4.098" rx="2.049" transform="translate(7.404 43.556)"/><g transform="translate(9.059 18.078)"><rect class="q" width="13.182" height="7.393" rx="2" transform="translate(0 0)"/><g transform="translate(5.367 1.53)"><path class="r" d="M1.463,6.325l.944-1.881v-2.4L1.465.16a.292.292,0,0,0-.522,0L0,2.042v2.4L.941,6.325A.292.292,0,0,0,1.463,6.325Z" transform="translate(0 0)"/></g><line class="r" y1="0.001" x2="4.944" transform="translate(-0.001 3.286)"/><line class="r" y1="0.001" x2="4.944" transform="translate(-0.002 5.752)"/><line class="r" y1="0.002" x2="5.768" transform="translate(7.415 3.284)"/><line class="r" y1="0.002" x2="5.768" transform="translate(7.414 5.749)"/></g><g transform="translate(77.063 19.231)"><path class="s" d="M0,1.267A.893.893,0,0,0,.263.633.892.892,0,0,0,0,0" transform="translate(-0.001 1.901)"/><path class="s" d="M0,2.535A1.788,1.788,0,0,0,.526,1.267,1.783,1.783,0,0,0,0,0" transform="translate(1.237 1.267)"/><path class="s" d="M0,3.8a2.679,2.679,0,0,0,.79-1.9A2.676,2.676,0,0,0,0,0" transform="translate(2.474 0.633)"/><path class="s" d="M0,5.069A3.569,3.569,0,0,0,1.052,2.534,3.565,3.565,0,0,0,0,0" transform="translate(3.712 -0.001)"/></g><g transform="translate(56.509 38.474)"><g transform="translate(0 0)"><g class="x" transform="translate(0 0)"><path class="c" d="M0,8.615,23.459-.006,28.791,14.45,5.33,23.071" transform="translate(-2.49 -7.703)"/></g></g></g></g></g></g></g></g></g></svg>