<svg xmlns="http://www.w3.org/2000/svg" xmlns:xlink="http://www.w3.org/1999/xlink" width="82" height="98" viewBox="0 0 82 98">
  <defs>
    <clipPath id="clip-path">
      <rect id="Rectangle_21847" data-name="Rectangle 21847" width="82" height="98" rx="12" transform="translate(145.935 392)" fill="#e5f5ff"/>
    </clipPath>
    <clipPath id="clip-path-2"/>
  </defs>
  <g id="img-onlineexclusives-mobile" transform="translate(-145.935 -392)" clip-path="url(#clip-path)">
    <g id="Group_20535" data-name="Group 20535" transform="translate(157.441 387.752)">
      <path id="Path_9135" data-name="Path 9135" d="M50.311,0C78.1,0,100.621,23.368,100.621,52.195S78.1,104.39,50.311,104.39,0,81.021,0,52.195,22.525,0,50.311,0Z" transform="translate(0 0)" fill="#7eb7eb" opacity="0.392"/>
    </g>
    <g id="mobile-filledoutline" transform="translate(167.892 394.526)">
      <g id="Group_20320" data-name="Group 20320" transform="translate(1.229 2.42)" clip-path="url(#clip-path-2)">
        <path id="Path_9023" data-name="Path 9023" d="M556.93,19.257h31.384a10.822,10.822,0,0,1,10.822,10.822v82.788a10.822,10.822,0,0,1-10.822,10.822H556.93a10.822,10.822,0,0,1-10.822-10.822V30.079A10.822,10.822,0,0,1,556.93,19.257" transform="translate(-546.108 -19.257)" fill="#0072d8"/>
        <rect id="Rectangle_21743" data-name="Rectangle 21743" width="51.945" height="103.349" rx="10" transform="translate(0.541 0.541)" fill="none" stroke="#004ea8" stroke-linecap="round" stroke-linejoin="round" stroke-width="2"/>
        <path id="Path_9024" data-name="Path 9024" d="M593.084,122.939H560.305a5.612,5.612,0,0,1-5.605-5.605v-84a5.612,5.612,0,0,1,5.605-5.605h3.073a.484.484,0,0,1,.483.483V29.24a2.593,2.593,0,0,0,2.59,2.59h20.487a2.593,2.593,0,0,0,2.59-2.59V28.216a.484.484,0,0,1,.483-.483h3.073a5.612,5.612,0,0,1,5.605,5.605v84a5.612,5.612,0,0,1-5.605,5.605" transform="translate(-550.051 -23.147)" fill="#f6f6f6"/>
        <path id="Path_9025" data-name="Path 9025" d="M559.845,27.815a5.07,5.07,0,0,0-5.064,5.064v84a5.07,5.07,0,0,0,5.064,5.064h32.779a5.07,5.07,0,0,0,5.064-5.064v-84a5.07,5.07,0,0,0-5.064-5.064h-3.015v.966a3.134,3.134,0,0,1-3.131,3.131H565.992a3.134,3.134,0,0,1-3.131-3.131v-.966Zm0-1.082h3.073a1.024,1.024,0,0,1,1.024,1.024v1.024a2.049,2.049,0,0,0,2.049,2.049h20.486a2.049,2.049,0,0,0,2.049-2.049V27.757a1.024,1.024,0,0,1,1.024-1.024h3.073a6.147,6.147,0,0,1,6.146,6.146v84a6.147,6.147,0,0,1-6.146,6.146H559.845a6.146,6.146,0,0,1-6.146-6.146v-84a6.146,6.146,0,0,1,6.146-6.146" transform="translate(-549.592 -22.688)" fill="#004ea8"/>
        <path id="Path_9031" data-name="Path 9031" d="M581.19,26.257h10.281a1.082,1.082,0,0,1,0,2.164H581.19a1.082,1.082,0,1,1,0-2.164" transform="translate(-561.711 -22.469)" fill="#004ea8"/>
        <path id="Path_9032" data-name="Path 9032" d="M607.92,26.257h0a.812.812,0,0,1,.812.812v.541a.812.812,0,1,1-1.623,0v-.541a.812.812,0,0,1,.812-.812" transform="translate(-574.101 -22.469)" fill="#004ea8"/>
        <g id="Rectangle_21848" data-name="Rectangle 21848" transform="translate(10.523 17.463)" fill="#fff" stroke="#c2c2c1" stroke-width="1">
          <rect width="14.031" height="14.031" rx="3" stroke="none"/>
          <rect x="0.5" y="0.5" width="13.031" height="13.031" rx="2.5" fill="none"/>
        </g>
        <g id="Rectangle_21851" data-name="Rectangle 21851" transform="translate(10.444 35.556)" fill="#fff" stroke="#c2c2c1" stroke-width="1">
          <rect width="14.031" height="14.031" rx="3" stroke="none"/>
          <rect x="0.5" y="0.5" width="13.031" height="13.031" rx="2.5" fill="none"/>
        </g>
        <g id="Rectangle_21852" data-name="Rectangle 21852" transform="translate(10.523 62.268)" fill="#0072d8" stroke="#1e4ea2" stroke-width="1">
          <rect width="32.446" height="8.592" rx="3" stroke="none"/>
          <rect x="0.5" y="0.5" width="31.446" height="7.592" rx="2.5" fill="none"/>
        </g>
        <g id="Rectangle_21850" data-name="Rectangle 21850" transform="translate(28.938 35.879)" fill="#fff" stroke="#c2c2c1" stroke-width="1">
          <rect width="14.031" height="14.031" rx="3" stroke="none"/>
          <rect x="0.5" y="0.5" width="13.031" height="13.031" rx="2.5" fill="none"/>
        </g>
        <g id="Rectangle_21849" data-name="Rectangle 21849" transform="translate(28.938 17.463)" fill="#fff" stroke="#c2c2c1" stroke-width="1">
          <rect width="14.031" height="14.031" rx="3" stroke="none"/>
          <rect x="0.5" y="0.5" width="13.031" height="13.031" rx="2.5" fill="none"/>
        </g>
        <g id="Group_20541" data-name="Group 20541" transform="translate(32.289 20.031)">
          <g id="Group_20537" data-name="Group 20537">
            <path id="Path_66" data-name="Path 66" d="M65.243,44v.986a2.123,2.123,0,0,1-.622,1.5h0a2.123,2.123,0,0,0-.622,1.5v2.229a1.243,1.243,0,0,0,1.243,1.243h4.973a1.243,1.243,0,0,0,1.243-1.243V47.988a2.123,2.123,0,0,0-.622-1.5h0a2.123,2.123,0,0,1-.622-1.5V44" transform="translate(-64 -42.757)" fill="#fdb913" stroke="#1e4ea2" stroke-linecap="round" stroke-linejoin="round" stroke-width="1"/>
            <path id="Path_67" data-name="Path 67" d="M69.865,37.243H68.622A.622.622,0,0,1,68,36.622h0A.622.622,0,0,1,68.622,36h4.973a.622.622,0,0,1,.622.622h0a.622.622,0,0,1-.622.622H71.108" transform="translate(-67.378 -36)" fill="#fdb913" stroke="#1e4ea2" stroke-linecap="round" stroke-linejoin="round" stroke-width="1"/>
          </g>
        </g>
        <g id="Group_20543" data-name="Group 20543" transform="matrix(0.966, -0.259, 0.259, 0.966, 11.532, 38.408)">
          <path id="Path_8766" data-name="Path 8766" d="M2.561.158A.369.369,0,0,0,2.047.067l-.02.015A5.733,5.733,0,0,0,0,3.732L.733,3.8A5.048,5.048,0,0,1,2.491.653a.366.366,0,0,0,.069-.5" transform="translate(5.093 0.678)" fill="#004ea8"/>
          <path id="Path_8767" data-name="Path 8767" d="M8.315,5.058A3.541,3.541,0,0,0,6.612.841,2.718,2.718,0,0,0,5.558.616a.807.807,0,0,1-.445-.14A2.712,2.712,0,0,0,4.122.055,3.561,3.561,0,0,0,.293,2.526c-.784,2.062.065,4.251,1.814,4.8q.114.036.228.061a9,9,0,0,1,1.5.473q.109.044.223.081c1.749.552,3.708-.751,4.258-2.887" transform="translate(0.37 3.123)" fill="#ff3700"/>
          <path id="Path_8769" data-name="Path 8769" d="M4.315,8.66c-.085-.027-.17-.058-.253-.092a8.643,8.643,0,0,0-1.437-.454c-.087-.019-.174-.043-.26-.07A3.28,3.28,0,0,1,.413,6.306,4.494,4.494,0,0,1,.319,2.761,3.937,3.937,0,0,1,4.566.062,3.079,3.079,0,0,1,5.691.539a.435.435,0,0,0,.241.076,3.088,3.088,0,0,1,1.2.255A3.918,3.918,0,0,1,9.041,5.515,4.512,4.512,0,0,1,6.916,8.359a3.3,3.3,0,0,1-2.6.3M3.576,7.61q.391.123.77.28c.062.026.127.049.192.07a2.564,2.564,0,0,0,2.021-.243A3.775,3.775,0,0,0,8.328,5.332,3.186,3.186,0,0,0,6.835,1.543a2.349,2.349,0,0,0-.911-.195,1.169,1.169,0,0,1-.649-.2A2.346,2.346,0,0,0,4.418.78a3.2,3.2,0,0,0-3.41,2.241,3.761,3.761,0,0,0,.068,2.965A2.551,2.551,0,0,0,2.589,7.344c.065.02.131.038.2.053.265.06.529.132.789.213Z" transform="translate(0 2.757)" fill="#004ea8"/>
          <path id="Path_8770" data-name="Path 8770" d="M.114,0h0A2.437,2.437,0,0,0,1.7,3.06l.007,0A2.437,2.437,0,0,0,.121,0L.114,0" transform="translate(4.074 0.367)" fill="#009d12"/>
          <path id="Path_8771" data-name="Path 8771" d="M.593.017h0A.368.368,0,0,0,.131.256a2.8,2.8,0,0,0,1.828,3.52l.006,0,.351.111.111-.35A2.8,2.8,0,0,0,.6.019l-.007,0m.156.86a2.076,2.076,0,0,1,1.062,2.04A2.076,2.076,0,0,1,.748.878Z" transform="translate(3.706 0)" fill="#004ea8"/>
        </g>
        <g id="Group_20544" data-name="Group 20544" transform="translate(32.395 37.133)">
          <path id="Path_9337" data-name="Path 9337" d="M423.24,103.007c2.2-2.653.648-4.719-.335-6.232-.759.867-2.837,3.929.335,6.232" transform="translate(-419.69 -96.775)" fill="#004ea8"/>
          <path id="Path_9338" data-name="Path 9338" d="M423.24,103.007c2.2-2.653.648-4.719-.335-6.232C422.146,97.642,420.067,100.7,423.24,103.007Z" transform="translate(-419.69 -96.775)" fill="none" stroke="#004ea8" stroke-linecap="round" stroke-linejoin="round" stroke-width="1"/>
          <path id="Path_9339" data-name="Path 9339" d="M414.58,112.507c.248-3.222-2.266-2.95-3.2-4.6-.389,1.29-.667,5.3,3.2,4.6" transform="translate(-411.165 -105.931)" fill="#34c361"/>
          <path id="Path_9340" data-name="Path 9340" d="M414.58,112.507c.248-3.222-2.266-2.95-3.2-4.6C410.988,109.2,410.71,113.212,414.58,112.507Z" transform="translate(-411.165 -105.931)" fill="none" stroke="#004ea8" stroke-linecap="round" stroke-linejoin="round" stroke-width="1"/>
          <path id="Path_9341" data-name="Path 9341" d="M430.794,111.029c-.534-3.4,1.85-4.389,3.468-5.189.21,1.133.435,4.827-3.468,5.189" transform="translate(-427.243 -104.229)" fill="#009d12"/>
          <path id="Path_9342" data-name="Path 9342" d="M430.794,111.029c-.534-3.4,1.85-4.389,3.468-5.189C434.472,106.973,434.7,110.667,430.794,111.029Z" transform="translate(-427.243 -104.229)" fill="none" stroke="#004ea8" stroke-linecap="round" stroke-linejoin="round" stroke-width="1"/>
          <path id="Path_9343" data-name="Path 9343" d="M416.651,138.445h3.391a.6.6,0,0,0,.638-.445l.34-3.088c.029-.267-.232-.5-.584-.524l-.054,0h-4.071a.579.579,0,0,0-.64.485.393.393,0,0,0,0,.041l.34,3.088a.6.6,0,0,0,.638.445" transform="translate(-414.87 -127.702)" fill="#e5f5ff"/>
          <path id="Path_9344" data-name="Path 9344" d="M416.651,138.445h3.391a.6.6,0,0,0,.638-.445l.34-3.088c.029-.267-.232-.5-.584-.524l-.054,0h-4.071a.579.579,0,0,0-.64.485.393.393,0,0,0,0,.041l.34,3.088A.6.6,0,0,0,416.651,138.445Z" transform="translate(-414.87 -127.702)" fill="none" stroke="#004ea8" stroke-linecap="round" stroke-linejoin="round" stroke-width="1"/>
        </g>
        <g id="Group_20545" data-name="Group 20545" transform="matrix(0.819, -0.574, 0.574, 0.819, 12.569, 25.506)">
          <path id="Path_8722" data-name="Path 8722" d="M0,1.971H0A1.971,1.971,0,0,1,1.971,0H7.225a1.971,1.971,0,1,1,0,3.941H1.971A1.971,1.971,0,0,1,0,1.971Z" transform="translate(0 0)" fill="#e5f5ff" stroke="#1e4ea2" stroke-linecap="round" stroke-linejoin="round" stroke-width="1"/>
          <path id="Rectangle_21932" data-name="Rectangle 21932" d="M1.757,0H4.262a0,0,0,0,1,0,0V3.514a0,0,0,0,1,0,0H1.757A1.757,1.757,0,0,1,0,1.757v0A1.757,1.757,0,0,1,1.757,0Z" transform="translate(0.337 0.285)" fill="#1e4ea2"/>
          <line id="Line_2412" data-name="Line 2412" y1="3.941" transform="translate(4.598 0)" fill="none" stroke="#1e4ea2" stroke-linecap="round" stroke-linejoin="round" stroke-width="1"/>
        </g>
      </g>
    </g>
    <g id="grocery-twocolor" transform="translate(138.923 427.461)">
      <g id="Group_20641" data-name="Group 20641" transform="translate(-0.221 0.13)">
        <path id="Path_24" data-name="Path 24" d="M52.576,43.371V34.324l-3.191-1.008L48.287,33A2.385,2.385,0,0,0,45.9,35.385a.116.116,0,0,0,0,.012,2.373,2.373,0,0,0-3.757,2.415,2.381,2.381,0,0,0-1.492,3.774c.435.579-.477,1.908-.477,1.908" transform="translate(-18.89 -17.249)" fill="#fdb913" stroke="#1e4ea2" stroke-linecap="round" stroke-linejoin="round" stroke-width="1"/>
        <path id="Path_26" data-name="Path 26" d="M77.632,32.52V22.889a3.256,3.256,0,0,0-.954-2.3h0a3.256,3.256,0,0,1-.954-2.3V12.736A.735.735,0,0,0,74.989,12H72.644a.735.735,0,0,0-.736.736v5.548a3.256,3.256,0,0,1-.954,2.3h0a3.256,3.256,0,0,0-.954,2.3v10.1" transform="translate(-36.31 -6.267)" fill="#009d12" stroke="#1e4ea2" stroke-linecap="round" stroke-linejoin="round" stroke-width="1"/>
        <path id="Path_9482" data-name="Path 9482" d="M0,0H2.411" transform="translate(36.233 9.41)" fill="none" stroke="#1e4ea2" stroke-linecap="round" stroke-width="2"/>
        <path id="Path_27" data-name="Path 27" d="M70,47.386V40h3.572v7.632" transform="translate(-36.066 -20.91)" fill="#fff" stroke="#1e4ea2" stroke-linecap="round" stroke-linejoin="round" stroke-width="1"/>
        <path id="Path_28" data-name="Path 28" d="M36,56H76.07L72.62,74.974a2.454,2.454,0,0,1-2.415,2.015H39.816" transform="translate(-18.529 -29.278)" fill="#e5f5ff" stroke="#1e4ea2" stroke-linecap="round" stroke-linejoin="round" stroke-width="1"/>
        <line id="Line_19" data-name="Line 19" x2="6" y2="28" transform="translate(15.233 19.41)" fill="none" stroke="#1e4ea2" stroke-linecap="round" stroke-linejoin="round" stroke-width="1"/>
        <path id="Path_29" data-name="Path 29" d="M25.724,40H21.908A1.908,1.908,0,0,0,20,41.908h0a1.908,1.908,0,0,0,1.908,1.908h3.816" transform="translate(-10.161 -20.91)" fill="none" stroke="#1e4ea2" stroke-linecap="round" stroke-linejoin="round" stroke-width="1"/>
        <path id="Path_30" data-name="Path 30" d="M39.632,100h-4.77A2.862,2.862,0,0,0,32,102.862h0a2.862,2.862,0,0,0,2.862,2.862H73.978" transform="translate(-16.437 -52.289)" fill="none" stroke="#1e4ea2" stroke-linecap="round" stroke-linejoin="round" stroke-width="1"/>
        <ellipse id="Ellipse_5" data-name="Ellipse 5" cx="3.5" cy="4" rx="3.5" ry="4" transform="translate(20.233 53.41)" fill="#d0d0d0" stroke="#1e4ea2" stroke-linecap="round" stroke-linejoin="round" stroke-width="1"/>
        <ellipse id="Ellipse_7" data-name="Ellipse 7" cx="3.5" cy="4" rx="3.5" ry="4" transform="translate(48.233 53.41)" fill="#d0d0d0" stroke="#1e4ea2" stroke-linecap="round" stroke-linejoin="round" stroke-width="1"/>
        <line id="Line_20" data-name="Line 20" x2="10.335" transform="translate(20.492 41.987)" fill="none" stroke="#1e4ea2" stroke-linecap="round" stroke-linejoin="round" stroke-width="1"/>
        <line id="Line_21" data-name="Line 21" x2="17.809" transform="translate(36.552 41.987)" fill="none" stroke="#1e4ea2" stroke-linecap="round" stroke-linejoin="round" stroke-width="1"/>
        <rect id="Rectangle_13" data-name="Rectangle 13" width="1" height="1" rx="0.5" transform="translate(29.233 19.41)" fill="#fff"/>
        <rect id="Rectangle_14" data-name="Rectangle 14" width="3" height="1" rx="0.5" transform="translate(24.233 23.41)" fill="#fff"/>
      </g>
    </g>
  </g>
</svg>
