<svg xmlns="http://www.w3.org/2000/svg" xmlns:xlink="http://www.w3.org/1999/xlink" width="124" height="108" viewBox="0 0 124 108">
  <defs>
    <clipPath id="clip-path">
      <rect id="Rectangle_21847" data-name="Rectangle 21847" width="124" height="108" rx="11" transform="translate(115.416 392)" fill="#e5f5ff"/>
    </clipPath>
    <clipPath id="clip-path-2"/>
    <clipPath id="clip-path-3">
      <rect id="SVGID" width="92" height="92" fill="none"/>
    </clipPath>
  </defs>
  <g id="img-onlineexclusives-desktop" transform="translate(-115.416 -392)" clip-path="url(#clip-path)">
    <g id="Group_20535" data-name="Group 20535" transform="translate(155.289 387.318)">
      <path id="Path_9135" data-name="Path 9135" d="M55.444,0c30.621,0,55.444,25.753,55.444,57.521s-24.823,57.521-55.444,57.521S0,89.288,0,57.521,24.823,0,55.444,0Z" transform="translate(6.441 0)" fill="#7eb7eb" opacity="0.392"/>
    </g>
    <g id="mobile-filledoutline" transform="translate(-380.314 375.527)">
      <g id="Group_20320" data-name="Group 20320" transform="translate(546.108 19.257)" clip-path="url(#clip-path-2)">
        <path id="Path_9023" data-name="Path 9023" d="M559.832,19.257h39.8a13.723,13.723,0,0,1,13.724,13.724V137.966A13.723,13.723,0,0,1,599.63,151.69h-39.8a13.723,13.723,0,0,1-13.724-13.724V32.981a13.723,13.723,0,0,1,13.724-13.724" transform="translate(-546.108 -19.257)" fill="#0072d8"/>
        <rect id="Rectangle_21743" data-name="Rectangle 21743" width="65.873" height="131.061" rx="11" transform="translate(0.686 0.686)" fill="none" stroke="#004ea8" stroke-linecap="round" stroke-linejoin="round" stroke-width="2"/>
        <path id="Path_9024" data-name="Path 9024" d="M603.376,148.467H561.808a7.116,7.116,0,0,1-7.108-7.108V34.841a7.116,7.116,0,0,1,7.108-7.108h3.9a.613.613,0,0,1,.613.613v1.3a3.288,3.288,0,0,0,3.284,3.285h25.98a3.288,3.288,0,0,0,3.285-3.285v-1.3a.613.613,0,0,1,.613-.613h3.9a7.116,7.116,0,0,1,7.108,7.108V141.359a7.116,7.116,0,0,1-7.108,7.108" transform="translate(-548.804 -21.917)" fill="#f6f6f6"/>
        <path id="Path_9025" data-name="Path 9025" d="M561.493,28.105a6.429,6.429,0,0,0-6.422,6.422V141.045a6.429,6.429,0,0,0,6.422,6.422h41.568a6.429,6.429,0,0,0,6.422-6.422V34.527a6.429,6.429,0,0,0-6.422-6.422h-3.823v1.226a3.975,3.975,0,0,1-3.971,3.97H569.288a3.975,3.975,0,0,1-3.971-3.97V28.105Zm0-1.372h3.9a1.3,1.3,0,0,1,1.3,1.3v1.3a2.6,2.6,0,0,0,2.6,2.6h25.979a2.6,2.6,0,0,0,2.6-2.6v-1.3a1.3,1.3,0,0,1,1.3-1.3h3.9a7.8,7.8,0,0,1,7.794,7.794V141.045a7.8,7.8,0,0,1-7.794,7.794H561.493a7.8,7.8,0,0,1-7.794-7.794V34.527a7.8,7.8,0,0,1,7.794-7.794" transform="translate(-548.49 -21.603)" fill="#004ea8"/>
        <path id="Path_9031" data-name="Path 9031" d="M581.48,26.257h13.037a1.372,1.372,0,0,1,0,2.745H581.48a1.372,1.372,0,1,1,0-2.745" transform="translate(-556.778 -21.454)" fill="#004ea8"/>
        <path id="Path_9032" data-name="Path 9032" d="M608.137,26.257h0a1.03,1.03,0,0,1,1.029,1.029v.686a1.029,1.029,0,1,1-2.059,0v-.686a1.03,1.03,0,0,1,1.029-1.029" transform="translate(-565.251 -21.454)" fill="#004ea8"/>
        <g id="Rectangle_21848" data-name="Rectangle 21848" transform="translate(13.345 22.146)" fill="#fff" stroke="#c2c2c1" stroke-width="1">
          <rect width="17.793" height="17.793" rx="3" stroke="none"/>
          <rect x="0.5" y="0.5" width="16.793" height="16.793" rx="2.5" fill="none"/>
        </g>
        <g id="Rectangle_21851" data-name="Rectangle 21851" transform="translate(13.245 45.089)" fill="#fff" stroke="#c2c2c1" stroke-width="1">
          <rect width="17.793" height="17.793" rx="3" stroke="none"/>
          <rect x="0.5" y="0.5" width="16.793" height="16.793" rx="2.5" fill="none"/>
        </g>
        <g id="Rectangle_21852" data-name="Rectangle 21852" transform="translate(13.345 78.964)" fill="#0072d8" stroke="#1e4ea2" stroke-width="1">
          <rect width="41.146" height="10.896" rx="3" stroke="none"/>
          <rect x="0.5" y="0.5" width="40.146" height="9.896" rx="2.5" fill="none"/>
        </g>
        <g id="Rectangle_21850" data-name="Rectangle 21850" transform="translate(36.698 45.499)" fill="#fff" stroke="#c2c2c1" stroke-width="1">
          <rect width="17.793" height="17.793" rx="3" stroke="none"/>
          <rect x="0.5" y="0.5" width="16.793" height="16.793" rx="2.5" fill="none"/>
        </g>
        <g id="Rectangle_21849" data-name="Rectangle 21849" transform="translate(36.697 22.146)" fill="#fff" stroke="#c2c2c1" stroke-width="1">
          <rect width="17.793" height="17.793" rx="3" stroke="none"/>
          <rect x="0.5" y="0.5" width="16.793" height="16.793" rx="2.5" fill="none"/>
        </g>
        <g id="Group_20541" data-name="Group 20541" transform="translate(-1001.053 -744.911)">
          <g id="Group_20537" data-name="Group 20537" transform="translate(1042 770.313)">
            <path id="Path_66" data-name="Path 66" d="M65.577,44v1.25a2.692,2.692,0,0,1-.788,1.9h0a2.692,2.692,0,0,0-.788,1.9v2.827a1.577,1.577,0,0,0,1.577,1.577h6.307a1.577,1.577,0,0,0,1.577-1.577V49.057a2.692,2.692,0,0,0-.788-1.9h0a2.692,2.692,0,0,1-.788-1.9V44" transform="translate(-64 -42.423)" fill="#fdb913" stroke="#1e4ea2" stroke-linecap="round" stroke-linejoin="round" stroke-width="1"/>
            <path id="Path_67" data-name="Path 67" d="M70.365,37.577H68.788A.788.788,0,0,1,68,36.788h0A.788.788,0,0,1,68.788,36H75.1a.788.788,0,0,1,.788.788h0a.788.788,0,0,1-.788.788H71.942" transform="translate(-67.212 -36)" fill="#fdb913" stroke="#1e4ea2" stroke-linecap="round" stroke-linejoin="round" stroke-width="1"/>
          </g>
        </g>
        <g id="Group_20543" data-name="Group 20543" transform="matrix(0.966, -0.259, 0.259, 0.966, -1183.103, -418.165)">
          <path id="Path_8766" data-name="Path 8766" d="M103.037,82.569a.468.468,0,0,0-.652-.115l-.025.019a7.27,7.27,0,0,0-2.57,4.629l.93.085a6.4,6.4,0,0,1,2.23-3.99.464.464,0,0,0,.088-.628" transform="translate(942.75 679.449)" fill="#004ea8"/>
          <path id="Path_8767" data-name="Path 8767" d="M89.113,99.766a4.491,4.491,0,0,0-2.159-5.347,3.446,3.446,0,0,0-1.336-.286,1.024,1.024,0,0,1-.565-.178,3.439,3.439,0,0,0-1.257-.533,4.515,4.515,0,0,0-4.855,3.133c-.994,2.615.082,5.391,2.3,6.091q.144.045.29.078a11.41,11.41,0,0,1,1.9.6q.138.056.282.1c2.218.7,4.7-.952,5.4-3.661" transform="translate(957.98 671.565)" fill="#ff3700"/>
          <path id="Path_8769" data-name="Path 8769" d="M82.378,102.691c-.108-.034-.216-.073-.32-.117A10.961,10.961,0,0,0,80.235,102c-.11-.025-.221-.054-.329-.089a4.16,4.16,0,0,1-2.476-2.2,5.7,5.7,0,0,1-.119-4.5A4.992,4.992,0,0,1,82.7,91.788a3.9,3.9,0,0,1,1.427.605.552.552,0,0,0,.306.1,3.915,3.915,0,0,1,1.517.324A4.969,4.969,0,0,1,88.372,98.7a5.721,5.721,0,0,1-2.695,3.607,4.178,4.178,0,0,1-3.3.381m-.937-1.331q.5.156.976.356c.079.033.161.063.243.089a3.251,3.251,0,0,0,2.563-.308,4.787,4.787,0,0,0,2.243-3.025,4.04,4.04,0,0,0-1.893-4.8,2.979,2.979,0,0,0-1.156-.247,1.483,1.483,0,0,1-.823-.26,2.976,2.976,0,0,0-1.087-.461,4.062,4.062,0,0,0-4.324,2.842,4.77,4.77,0,0,0,.086,3.76,3.235,3.235,0,0,0,1.919,1.722c.082.026.166.049.25.067.336.076.671.167,1,.27Z" transform="translate(959.174 672.745)" fill="#004ea8"/>
          <path id="Path_8770" data-name="Path 8770" d="M95.354,80.973h0a3.091,3.091,0,0,0,2.013,3.88l.008,0a3.091,3.091,0,0,0-2.013-3.88l-.008,0" transform="translate(946.037 680.451)" fill="#009d12"/>
          <path id="Path_8771" data-name="Path 8771" d="M94.308,79.344h0a.467.467,0,0,0-.586.3,3.556,3.556,0,0,0,2.318,4.464l.008,0,.445.141.141-.443a3.556,3.556,0,0,0-2.317-4.464l-.009,0m.2,1.091a2.632,2.632,0,0,1,1.347,2.587A2.632,2.632,0,0,1,94.5,80.436Z" transform="translate(947.224 681.635)" fill="#004ea8"/>
        </g>
        <g id="Group_20544" data-name="Group 20544" transform="translate(-370.084 -49.686)">
          <path id="Path_9337" data-name="Path 9337" d="M423.7,104.678c2.784-3.365.822-5.984-.425-7.9-.962,1.1-3.6,4.982.425,7.9" transform="translate(-8.031)" fill="#004ea8"/>
          <path id="Path_9338" data-name="Path 9338" d="M423.7,104.678c2.784-3.365.822-5.984-.425-7.9C422.31,97.874,419.674,101.757,423.7,104.678Z" transform="translate(-8.031)" fill="none" stroke="#004ea8" stroke-linecap="round" stroke-linejoin="round" stroke-width="1"/>
          <path id="Path_9339" data-name="Path 9339" d="M415.5,113.74c.314-4.085-2.874-3.741-4.061-5.83-.494,1.635-.846,6.723,4.061,5.83" transform="translate(0 -8.626)" fill="#34c361"/>
          <path id="Path_9340" data-name="Path 9340" d="M415.5,113.74c.314-4.085-2.874-3.741-4.061-5.83C410.941,109.545,410.588,114.633,415.5,113.74Z" transform="translate(0 -8.626)" fill="none" stroke="#004ea8" stroke-linecap="round" stroke-linejoin="round" stroke-width="1"/>
          <path id="Path_9341" data-name="Path 9341" d="M430.814,112.42c-.677-4.315,2.346-5.566,4.4-6.58.267,1.437.552,6.122-4.4,6.58" transform="translate(-15.146 -7.022)" fill="#009d12"/>
          <path id="Path_9342" data-name="Path 9342" d="M430.814,112.42c-.677-4.315,2.346-5.566,4.4-6.58C435.479,107.277,435.764,111.962,430.814,112.42Z" transform="translate(-15.146 -7.022)" fill="none" stroke="#004ea8" stroke-linecap="round" stroke-linejoin="round" stroke-width="1"/>
          <path id="Path_9343" data-name="Path 9343" d="M416.914,139.533h4.3a.756.756,0,0,0,.809-.564l.431-3.916c.037-.339-.294-.636-.741-.665l-.068,0h-5.163a.734.734,0,0,0-.812.615.493.493,0,0,0,0,.051l.431,3.916a.756.756,0,0,0,.809.564" transform="translate(-3.49 -29.135)" fill="#e5f5ff"/>
          <path id="Path_9344" data-name="Path 9344" d="M416.914,139.533h4.3a.756.756,0,0,0,.809-.564l.431-3.916c.037-.339-.294-.636-.741-.665l-.068,0h-5.163a.734.734,0,0,0-.812.615.493.493,0,0,0,0,.051l.431,3.916A.756.756,0,0,0,416.914,139.533Z" transform="translate(-3.49 -29.135)" fill="none" stroke="#004ea8" stroke-linecap="round" stroke-linejoin="round" stroke-width="1"/>
        </g>
        <g id="Group_20545" data-name="Group 20545" transform="matrix(0.819, -0.574, 0.574, 0.819, -1153.955, -1.819)">
          <path id="Path_8722" data-name="Path 8722" d="M42.253,487.735h0a2.5,2.5,0,0,1,2.5-2.5h6.664a2.5,2.5,0,0,1,0,5H44.752A2.5,2.5,0,0,1,42.253,487.735Z" transform="translate(896.473 213.774)" fill="#e5f5ff" stroke="#1e4ea2" stroke-linecap="round" stroke-linejoin="round" stroke-width="1"/>
          <path id="Rectangle_21932" data-name="Rectangle 21932" d="M2.228,0H5.405a0,0,0,0,1,0,0V4.456a0,0,0,0,1,0,0H2.228A2.228,2.228,0,0,1,0,2.228v0A2.228,2.228,0,0,1,2.228,0Z" transform="translate(939.153 699.371)" fill="#1e4ea2"/>
          <line id="Line_2412" data-name="Line 2412" y1="4.998" transform="translate(944.557 699.01)" fill="none" stroke="#1e4ea2" stroke-linecap="round" stroke-linejoin="round" stroke-width="1"/>
        </g>
      </g>
    </g>
    <g id="grocery-twocolor" transform="translate(107.416 415)">
      <g id="Group_17" data-name="Group 17" clip-path="url(#clip-path-3)">
        <path id="Path_24" data-name="Path 24" d="M56.755,47.5V34.851l-4.267-1.409L51.021,33a3.264,3.264,0,0,0-3.189,3.334c0,.005,0,.011,0,.017a3.073,3.073,0,0,0-1.915-.683A3.264,3.264,0,0,0,42.729,39a3.435,3.435,0,0,0,.081.725A3.291,3.291,0,0,0,40.178,43a3.418,3.418,0,0,0,.638,2c.582.809-.638,2.667-.638,2.667" transform="translate(-11.959 -11.797)" fill="#fdb913" stroke="#1e4ea2" stroke-linecap="round" stroke-linejoin="round" stroke-width="1"/>
        <path id="Path_26" data-name="Path 26" d="M80.2,39.437V26.56a4.354,4.354,0,0,0-1.276-3.079h0A4.354,4.354,0,0,1,77.654,20.4V12.984A.983.983,0,0,0,76.67,12H73.535a.983.983,0,0,0-.984.984V20.4a4.354,4.354,0,0,1-1.276,3.079h0A4.354,4.354,0,0,0,70,26.56v13.5" transform="translate(-25.198 -4.191)" fill="#009d12" stroke="#1e4ea2" stroke-linecap="round" stroke-linejoin="round" stroke-width="1"/>
        <line id="Line_15" data-name="Line 15" x2="4" transform="translate(48 13)" fill="none" stroke="#1e4ea2" stroke-linecap="round" stroke-linejoin="round" stroke-width="2"/>
        <path id="Path_27" data-name="Path 27" d="M70,49.876V40h4.775V50.2" transform="translate(-24.871 -14.332)" fill="#fff" stroke="#1e4ea2" stroke-linecap="round" stroke-linejoin="round" stroke-width="1"/>
        <path id="Path_28" data-name="Path 28" d="M36,56H89.576L84.963,81.37a3.281,3.281,0,0,1-3.229,2.694H41.1" transform="translate(-12.884 -20.127)" fill="#e5f5ff" stroke="#1e4ea2" stroke-linecap="round" stroke-linejoin="round" stroke-width="1"/>
        <line id="Line_19" data-name="Line 19" x2="7" y2="38" transform="translate(21 26)" fill="none" stroke="#1e4ea2" stroke-linecap="round" stroke-linejoin="round" stroke-width="1"/>
        <path id="Path_29" data-name="Path 29" d="M27.654,40h-5.1A2.551,2.551,0,0,0,20,42.551h0A2.551,2.551,0,0,0,22.551,45.1h5.1" transform="translate(-7.089 -14.332)" fill="none" stroke="#1e4ea2" stroke-linecap="round" stroke-linejoin="round" stroke-width="1"/>
        <path id="Path_30" data-name="Path 30" d="M42.2,100H35.827A3.827,3.827,0,0,0,32,103.827h0a3.827,3.827,0,0,0,3.827,3.827h52.3" transform="translate(-11.435 -36.064)" fill="none" stroke="#1e4ea2" stroke-linecap="round" stroke-linejoin="round" stroke-width="1"/>
        <circle id="Ellipse_5" data-name="Ellipse 5" cx="5" cy="5" r="5" transform="translate(26 72)" fill="#d0d0d0" stroke="#1e4ea2" stroke-linecap="round" stroke-linejoin="round" stroke-width="1"/>
        <circle id="Ellipse_7" data-name="Ellipse 7" cx="5" cy="5" r="5" transform="translate(64 72)" fill="#d0d0d0" stroke="#1e4ea2" stroke-linecap="round" stroke-linejoin="round" stroke-width="1"/>
        <line id="Line_20" data-name="Line 20" x2="13.819" transform="translate(27.156 56.283)" fill="none" stroke="#1e4ea2" stroke-linecap="round" stroke-linejoin="round" stroke-width="1"/>
        <line id="Line_21" data-name="Line 21" x2="23.812" transform="translate(48.629 56.283)" fill="none" stroke="#1e4ea2" stroke-linecap="round" stroke-linejoin="round" stroke-width="1"/>
        <rect id="Rectangle_13" data-name="Rectangle 13" width="3" height="2" rx="1" transform="translate(38 26)" fill="#fff"/>
        <rect id="Rectangle_14" data-name="Rectangle 14" width="3" height="2" rx="1" transform="translate(33 31)" fill="#fff"/>
      </g>
    </g>
  </g>
</svg>
