<svg xmlns="http://www.w3.org/2000/svg" xmlns:xlink="http://www.w3.org/1999/xlink" width="82" height="98" viewBox="0 0 82 98">
  <defs>
    <clipPath id="clip-path">
      <rect id="Rectangle_23691" data-name="Rectangle 23691" width="82" height="98" transform="translate(0 4)" fill="none"/>
    </clipPath>
    <clipPath id="clip-path-2">
      <path id="Rectangle_23689" data-name="Rectangle 23689" d="M12,0H70A12,12,0,0,1,82,12V86A12,12,0,0,1,70,98H12A12,12,0,0,1,0,86V12A12,12,0,0,1,12,0Z" transform="translate(0 4.196)" fill="none"/>
    </clipPath>
    <clipPath id="clip-path-3">
      <rect id="Rectangle_23687" data-name="Rectangle 23687" width="100.621" height="104.39" transform="translate(11.214)" fill="none"/>
    </clipPath>
    <clipPath id="clip-path-4">
      <path id="Path_9814" data-name="Path 9814" d="M37.159,62.128V102.2H70a11.982,11.982,0,0,0,3.923-.656V62.128Z" fill="none"/>
    </clipPath>
    <clipPath id="clip-path-5">
      <rect id="Rectangle_23690" data-name="Rectangle 23690" width="62.833" height="40.428" transform="translate(11.096 62.126)" fill="none"/>
    </clipPath>
    <clipPath id="clip-path-6">
      <path id="Path_9831" data-name="Path 9831" d="M1.546,41.141V96.092A12,12,0,0,0,12,102.2H70a12,12,0,0,0,11.213-7.718V41.141Z" fill="none"/>
    </clipPath>
  </defs>
  <g id="img-online-and-travel-mobile" transform="translate(0 -4)">
    <g id="Group_21145" data-name="Group 21145" clip-path="url(#clip-path)">
      <g id="Group_21137" data-name="Group 21137">
        <g id="Group_21136" data-name="Group 21136" clip-path="url(#clip-path-2)">
          <g id="Group_21135" data-name="Group 21135" opacity="0.392" style="mix-blend-mode: normal;isolation: isolate">
            <g id="Group_21134" data-name="Group 21134">
              <g id="Group_21133" data-name="Group 21133" clip-path="url(#clip-path-3)">
                <path id="Path_9779" data-name="Path 9779" d="M61.525,0c27.789,0,50.31,23.368,50.31,52.195S89.314,104.39,61.525,104.39,11.214,81.021,11.214,52.195,33.739,0,61.525,0" fill="#7eb7eb"/>
              </g>
            </g>
          </g>
          <path id="Path_9780" data-name="Path 9780" d="M34.008,9.141H65.392A10.822,10.822,0,0,1,76.214,19.963v82.788a10.822,10.822,0,0,1-10.822,10.822H34.008a10.822,10.822,0,0,1-10.822-10.822V19.963A10.822,10.822,0,0,1,34.008,9.141" fill="#0072d8"/>
          <rect id="Rectangle_23688" data-name="Rectangle 23688" width="51.945" height="103.349" rx="10" transform="translate(23.727 9.682)" fill="none" stroke="#004ea8" stroke-linecap="round" stroke-linejoin="round" stroke-width="2"/>
          <path id="Path_9781" data-name="Path 9781" d="M66.219,108.933H33.44a5.612,5.612,0,0,1-5.6-5.6v-84a5.612,5.612,0,0,1,5.6-5.6h3.073a.484.484,0,0,1,.483.483v1.028a2.593,2.593,0,0,0,2.59,2.59H60.073a2.593,2.593,0,0,0,2.59-2.59V14.21a.484.484,0,0,1,.483-.483h3.073a5.612,5.612,0,0,1,5.6,5.605v84a5.612,5.612,0,0,1-5.6,5.6" fill="#f6f6f6"/>
          <path id="Path_9782" data-name="Path 9782" d="M33.439,14.268a5.07,5.07,0,0,0-5.064,5.064v84a5.07,5.07,0,0,0,5.064,5.064H66.218a5.07,5.07,0,0,0,5.064-5.064v-84a5.07,5.07,0,0,0-5.064-5.064H63.2v.966a3.134,3.134,0,0,1-3.131,3.131H39.586a3.134,3.134,0,0,1-3.131-3.131v-.966Zm0-1.082h3.073a1.023,1.023,0,0,1,1.024,1.024v1.024a2.049,2.049,0,0,0,2.049,2.049H60.071a2.049,2.049,0,0,0,2.049-2.049V14.21a1.023,1.023,0,0,1,1.024-1.024h3.073a6.148,6.148,0,0,1,6.146,6.146v84a6.148,6.148,0,0,1-6.146,6.146H33.439a6.146,6.146,0,0,1-6.146-6.146v-84a6.146,6.146,0,0,1,6.146-6.146" fill="#004ea8"/>
          <path id="Path_9783" data-name="Path 9783" d="M42.665,12.929H52.946a1.082,1.082,0,1,1,0,2.164H42.665a1.082,1.082,0,1,1,0-2.164Z" fill="#004ea8"/>
          <path id="Path_9784" data-name="Path 9784" d="M57.005,12.929h0a.813.813,0,0,1,.812.812v.541a.812.812,0,0,1-1.623.057.541.541,0,0,1,0-.057v-.541a.813.813,0,0,1,.812-.812" fill="#004ea8"/>
          <path id="Path_9785" data-name="Path 9785" d="M36.709,26.6H44.74a3,3,0,0,1,3,3v8.031a3,3,0,0,1-3,3H36.709a3,3,0,0,1-3-3V29.6a3,3,0,0,1,3-3" fill="#fff"/>
          <path id="Path_9786" data-name="Path 9786" d="M44.74,40.634H36.709a3,3,0,0,1-3-3V29.6a3,3,0,0,1,3-3H44.74a3,3,0,0,1,3,3v8.03a3,3,0,0,1-3,3M36.709,27.6a2,2,0,0,0-2,2v8.03a2,2,0,0,0,2,2H44.74a2,2,0,0,0,2-2V29.6a2,2,0,0,0-2-2Z" fill="#c2c2c1"/>
          <path id="Path_9787" data-name="Path 9787" d="M36.63,44.7h8.031a3,3,0,0,1,3,3v8.031a3,3,0,0,1-3,3H36.63a3,3,0,0,1-3-3V47.7a3,3,0,0,1,3-3" fill="#fff"/>
          <path id="Path_9788" data-name="Path 9788" d="M44.661,58.728H36.63a3,3,0,0,1-3-3V47.7a3,3,0,0,1,3-3h8.031a3,3,0,0,1,3,3v8.031a3,3,0,0,1-3,3M36.63,45.7a2,2,0,0,0-2,2v8.031a2,2,0,0,0,2,2h8.031a2,2,0,0,0,2-2V47.7a2,2,0,0,0-2-2Z" fill="#c2c2c1"/>
          <path id="Path_9789" data-name="Path 9789" d="M36.709,71.409H63.155a3,3,0,0,1,3,3V77a3,3,0,0,1-3,3H36.709a3,3,0,0,1-3-3V74.409a3,3,0,0,1,3-3" fill="#0072d8"/>
          <path id="Path_9790" data-name="Path 9790" d="M63.155,80H36.709a3,3,0,0,1-3-3V74.409a3,3,0,0,1,3-3H63.155a3,3,0,0,1,3,3V77a3,3,0,0,1-3,3M36.709,72.409a2,2,0,0,0-2,2V77a2,2,0,0,0,2,2H63.155a2,2,0,0,0,2-2V74.409a2,2,0,0,0-2-2Z" fill="#1e4ea2"/>
          <path id="Path_9791" data-name="Path 9791" d="M55.124,45.02h8.031a3,3,0,0,1,3,3v8.031a3,3,0,0,1-3,3H55.124a3,3,0,0,1-3-3V48.02a3,3,0,0,1,3-3" fill="#fff"/>
          <path id="Path_9792" data-name="Path 9792" d="M63.155,59.05H55.124a3,3,0,0,1-3-3V48.02a3,3,0,0,1,3-3h8.031a3,3,0,0,1,3,3v8.03a3,3,0,0,1-3,3M55.124,46.02a2,2,0,0,0-2,2v8.03a2,2,0,0,0,2,2h8.031a2,2,0,0,0,2-2V48.02a2,2,0,0,0-2-2Z" fill="#c2c2c1"/>
          <path id="Path_9793" data-name="Path 9793" d="M55.124,26.6h8.031a3,3,0,0,1,3,3v8.031a3,3,0,0,1-3,3H55.124a3,3,0,0,1-3-3V29.6a3,3,0,0,1,3-3" fill="#fff"/>
          <path id="Path_9794" data-name="Path 9794" d="M63.155,40.634H55.124a3,3,0,0,1-3-3V29.6a3,3,0,0,1,3-3h8.031a3,3,0,0,1,3,3v8.03a3,3,0,0,1-3,3M55.124,27.6a2,2,0,0,0-2,2v8.03a2,2,0,0,0,2,2h8.031a2,2,0,0,0,2-2V29.6a2,2,0,0,0-2-2Z" fill="#c2c2c1"/>
          <path id="Path_9795" data-name="Path 9795" d="M56.718,30.415V31.4a2.121,2.121,0,0,1-.622,1.5,2.121,2.121,0,0,0-.622,1.5v2.23a1.244,1.244,0,0,0,1.243,1.243H61.69a1.244,1.244,0,0,0,1.243-1.243V34.4a2.121,2.121,0,0,0-.622-1.5,2.121,2.121,0,0,1-.622-1.5v-.988" fill="#fdb913"/>
          <path id="Path_9796" data-name="Path 9796" d="M57.962,30.415H56.719a.622.622,0,1,1,0-1.243h4.973a.622.622,0,1,1,0,1.244H59.205" fill="#fdb913"/>
          <path id="Path_9797" data-name="Path 9797" d="M62.664,32.55a1.623,1.623,0,0,1-.475-1.147v-.616a1.114,1.114,0,0,0-.5-2.115h-4.97a1.113,1.113,0,0,0-.5,2.111V31.4a1.614,1.614,0,0,1-.475,1.147,2.64,2.64,0,0,0-.769,1.853v2.23a1.745,1.745,0,0,0,1.743,1.743H61.69a1.745,1.745,0,0,0,1.743-1.743V34.4a2.633,2.633,0,0,0-.769-1.853m-.231,4.08a.743.743,0,0,1-.743.743H56.717a.743.743,0,0,1-.743-.743V34.4a1.638,1.638,0,0,1,.476-1.147,2.6,2.6,0,0,0,.768-1.854v-.486h.744a.5.5,0,0,0,0-1H56.719a.122.122,0,1,1,0-.243h4.973a.122.122,0,0,1,0,.244H59.205a.5.5,0,0,0,0,1h1.984V31.4a2.614,2.614,0,0,0,.768,1.853,1.629,1.629,0,0,1,.476,1.146Z" fill="#1e4ea2"/>
          <path id="Path_9798" data-name="Path 9798" d="M42.328,46.374a.369.369,0,0,0-.52.045l-.016.02A5.735,5.735,0,0,0,40.78,50.49l.725-.124a5.053,5.053,0,0,1,.884-3.5.366.366,0,0,0-.063-.5" fill="#004ea8"/>
          <path id="Path_9799" data-name="Path 9799" d="M45.227,53.2a3.543,3.543,0,0,0-2.737-3.633,2.735,2.735,0,0,0-1.077.056.8.8,0,0,1-.466-.02,2.7,2.7,0,0,0-1.066-.15,3.562,3.562,0,0,0-3.059,3.379c-.223,2.195,1.164,4.089,3,4.167h.237a8.972,8.972,0,0,1,1.571.068c.078.01.157.016.236.021,1.833.08,3.388-1.686,3.366-3.892" fill="#ff3700" fill-rule="evenodd"/>
          <path id="Path_9800" data-name="Path 9800" d="M41.843,57.46a2.2,2.2,0,0,1-.268-.023,8.616,8.616,0,0,0-1.506-.067H39.8a3.283,3.283,0,0,1-2.336-1.17,4.5,4.5,0,0,1-1.009-3.4,3.937,3.937,0,0,1,3.4-3.707,3.077,3.077,0,0,1,1.211.17.442.442,0,0,0,.252.011,3.068,3.068,0,0,1,1.225-.065A3.92,3.92,0,0,1,45.594,53.2a4.512,4.512,0,0,1-1.317,3.3,3.3,3.3,0,0,1-2.433.964m-.987-.822c.273.012.545.035.816.071.067.009.136.014.2.018a2.565,2.565,0,0,0,1.889-.758,3.774,3.774,0,0,0,1.091-2.762,3.186,3.186,0,0,0-2.423-3.274,2.357,2.357,0,0,0-.931.048,1.169,1.169,0,0,1-.678-.025,2.343,2.343,0,0,0-.924-.134,3.2,3.2,0,0,0-2.713,3.048,3.762,3.762,0,0,0,.833,2.847,2.555,2.555,0,0,0,1.814.92h.207c.271-.011.545-.009.817,0Z" fill="#004ea8"/>
          <path id="Path_9801" data-name="Path 9801" d="M38.859,46.819h0a2.437,2.437,0,0,0,2.324,2.545h.006a2.437,2.437,0,0,0-2.324-2.545Z" fill="#009d12" fill-rule="evenodd"/>
          <path id="Path_9802" data-name="Path 9802" d="M38.875,46.452h0a.366.366,0,0,0-.384.35,2.8,2.8,0,0,0,2.668,2.927h.015l.368.016.016-.367a2.8,2.8,0,0,0-2.67-2.925h-.012m.373.79a2.076,2.076,0,0,1,1.554,1.7,2.076,2.076,0,0,1-1.555-1.7Z" fill="#004ea8"/>
          <path id="Path_9803" data-name="Path 9803" d="M59.131,52.506c2.2-2.653.648-4.719-.335-6.232-.759.867-2.837,3.929.335,6.232" fill="#004ea8"/>
          <path id="Path_9804" data-name="Path 9804" d="M59.131,53.006a.5.5,0,0,1-.294-.1,4.209,4.209,0,0,1-1.889-2.953,5.728,5.728,0,0,1,1.472-4.011.481.481,0,0,1,.412-.17.5.5,0,0,1,.383.226l.142.216c.992,1.512,2.491,3.8.159,6.608a.5.5,0,0,1-.385.18m-.368-5.867a4.23,4.23,0,0,0-.822,2.708,3.047,3.047,0,0,0,1.1,1.95c1.308-1.871.56-3.348-.281-4.658" fill="#004ea8"/>
          <path id="Path_9805" data-name="Path 9805" d="M59,52.85c.248-3.222-2.266-2.95-3.2-4.6-.389,1.29-.667,5.3,3.2,4.6" fill="#34c361"/>
          <path id="Path_9806" data-name="Path 9806" d="M58.14,53.432a2.81,2.81,0,0,1-2.208-.9c-1.2-1.342-.85-3.65-.614-4.426a.5.5,0,0,1,.424-.352.506.506,0,0,1,.49.251,3.438,3.438,0,0,0,1.246,1.107A3.581,3.581,0,0,1,59.5,52.888a.5.5,0,0,1-.409.455,5.375,5.375,0,0,1-.946.09m.86-.584Zm-2.9-3.484a3.457,3.457,0,0,0,.576,2.5,2.047,2.047,0,0,0,1.836.547,2.561,2.561,0,0,0-1.576-2.46,8.429,8.429,0,0,1-.836-.588" fill="#004ea8"/>
          <path id="Path_9807" data-name="Path 9807" d="M59.132,53.074c-.534-3.4,1.85-4.389,3.468-5.189.21,1.133.435,4.827-3.468,5.189" fill="#009d12"/>
          <path id="Path_9808" data-name="Path 9808" d="M59.131,53.574a.5.5,0,0,1-.493-.423c-.566-3.607,1.888-4.808,3.512-5.6l.228-.112a.5.5,0,0,1,.713.356,5.743,5.743,0,0,1-.782,4.2,4.209,4.209,0,0,1-3.131,1.573h-.047m3.056-4.929c-1.39.7-2.784,1.59-2.617,3.863A3.039,3.039,0,0,0,61.511,51.4a4.225,4.225,0,0,0,.676-2.752" fill="#004ea8"/>
          <path id="Path_9809" data-name="Path 9809" d="M57.362,57.017h3.391a.6.6,0,0,0,.638-.445l.34-3.088c.029-.267-.232-.5-.584-.524H57.022a.579.579,0,0,0-.64.485.281.281,0,0,0,0,.041l.34,3.088a.6.6,0,0,0,.638.445" fill="#e5f5ff"/>
          <path id="Path_9810" data-name="Path 9810" d="M57.3,57.52a1.1,1.1,0,0,1-1.06-.816l-.354-3.163a1.145,1.145,0,0,1,0-.131,1.088,1.088,0,0,1,1.2-.947H61.1a1.246,1.246,0,0,1,.925.4.9.9,0,0,1,.21.675l-.34,3.088a1.106,1.106,0,0,1-1.182.888H57.3M57.235,56.5c.016,0,.049.008.082.011a.424.424,0,0,1,.051,0h3.39c.094.008.142-.025.155-.07l.322-2.982c-.013.017-.055,0-.117-.006h-4.1c-.106-.009-.139.022-.146.064l.343,3a.01.01,0,0,1,.011-.011" fill="#004ea8"/>
          <path id="Path_9811" data-name="Path 9811" d="M36.886,36.261h0a1.971,1.971,0,0,1,.483-2.746l4.3-3.015A1.971,1.971,0,1,1,44,33.676c-.024.018-.048.035-.073.051l-4.3,3.016a1.971,1.971,0,0,1-2.745-.482" fill="#e5f5ff"/>
          <path id="Path_9812" data-name="Path 9812" d="M44.831,30.625a2.472,2.472,0,0,0-3.446-.534l-4.3,3.016a2.476,2.476,0,0,0-.606,3.442h0a2.473,2.473,0,0,0,3.441.6l4.3-3.012c.005,0,.082-.058.087-.06a2.476,2.476,0,0,0,.528-3.456M44.3,32.307a1.513,1.513,0,0,1-.646,1.008L41.5,34.826l-1.689-2.409,2.16-1.513A1.471,1.471,0,0,1,44.3,32.311" fill="#1e4ea2"/>
          <line id="Line_2666" data-name="Line 2666" x1="2.262" y1="3.228" transform="translate(39.521 32.007)" fill="none" stroke="#1e4ea2" stroke-linecap="round" stroke-linejoin="round" stroke-width="1"/>
        </g>
      </g>
      <g id="Group_21142" data-name="Group 21142">
        <g id="Group_21141" data-name="Group 21141" clip-path="url(#clip-path-4)">
          <g id="Group_21140" data-name="Group 21140" style="mix-blend-mode: multiply;isolation: isolate">
            <g id="Group_21139" data-name="Group 21139">
              <g id="Group_21138" data-name="Group 21138" clip-path="url(#clip-path-5)">
                <path id="Path_9813" data-name="Path 9813" d="M71.844,79.577h-.007v-.006L73.929,71.8,68.1,70.232,63.049,77.22l-19.393-5.2,7.517-6.311a1.286,1.286,0,0,0-.494-2.227L45.772,62.17a1.283,1.283,0,0,0-.922.1L32,68.9l-8.965-2.4a5.364,5.364,0,0,0-3.387.207l-5.187,2.084c-.023.009-.043.021-.066.031a5.361,5.361,0,0,0,.678,10.127l16.78,4.5,11.053,17.2a1.286,1.286,0,0,0,.75.549l4.908,1.315a1.285,1.285,0,0,0,1.542-1.682l-5.038-13.85,3.733,1a25.408,25.408,0,0,0,11.671.35l2.935-.6,1.422,2.46,3.888,1.041-.9-4.408h0Z" fill="#c2c2c1"/>
              </g>
            </g>
          </g>
        </g>
      </g>
      <g id="Group_21144" data-name="Group 21144">
        <g id="Group_21143" data-name="Group 21143" clip-path="url(#clip-path-6)">
          <path id="Path_9815" data-name="Path 9815" d="M9.552,66.564,25.1,70.731,42.02,56.525a1.286,1.286,0,0,0-.494-2.227L36.62,52.985a1.283,1.283,0,0,0-.922.1Z" fill="#fdb913"/>
          <path id="Path_9816" data-name="Path 9816" d="M9.552,66.564,25.1,70.731,42.02,56.525a1.286,1.286,0,0,0-.494-2.227L36.62,52.985a1.283,1.283,0,0,0-.922.1Z" fill="none" stroke="#004ea8" stroke-linecap="round" stroke-linejoin="round" stroke-width="1"/>
          <path id="Path_9817" data-name="Path 9817" d="M5.916,69.753l33.73,9.041a25.408,25.408,0,0,0,11.671.35l7.348-1.508,4.025-7.244L13.881,57.309a5.364,5.364,0,0,0-3.387.207L5.307,59.6a5.363,5.363,0,0,0,.609,10.159" fill="#fff"/>
          <path id="Path_9818" data-name="Path 9818" d="M46.23,80.157a26.059,26.059,0,0,1-6.718-.88L5.855,70.254a.5.5,0,0,1-.067-.013,5.863,5.863,0,0,1-.667-11.106l5.187-2.083a5.914,5.914,0,0,1,3.7-.227L62.82,69.908a.5.5,0,0,1,.308.727L59.1,77.879a.5.5,0,0,1-.337.247l-7.348,1.508a25.963,25.963,0,0,1-5.188.523M5.983,69.258a.464.464,0,0,1,.063.012l33.73,9.041a24.991,24.991,0,0,0,11.44.343l7.124-1.461,3.6-6.484L13.752,57.792a4.89,4.89,0,0,0-3.071.188L5.494,60.063a4.863,4.863,0,0,0,.489,9.2" fill="#004ea8"/>
          <path id="Path_9819" data-name="Path 9819" d="M54.916,68.3l7.772,2.079,2.083-7.774L58.94,61.047Z" fill="#fdb913"/>
          <path id="Path_9820" data-name="Path 9820" d="M62.687,70.883a.51.51,0,0,1-.128-.016l-7.772-2.079a.5.5,0,0,1-.309-.726L58.5,60.8a.507.507,0,0,1,.567-.241L64.9,62.127a.5.5,0,0,1,.354.613l-2.083,7.773a.5.5,0,0,1-.484.37m-7.023-2.9,6.67,1.784,1.824-6.807-4.971-1.333Z" fill="#004ea8"/>
          <path id="Path_9821" data-name="Path 9821" d="M17.846,66.7l15.548,4.167,7.555,20.762a1.286,1.286,0,0,1-1.542,1.682L34.5,92a1.286,1.286,0,0,1-.75-.549Z" fill="#fdb913"/>
          <path id="Path_9822" data-name="Path 9822" d="M17.846,66.7l15.548,4.167,7.555,20.762a1.286,1.286,0,0,1-1.542,1.682L34.5,92a1.286,1.286,0,0,1-.75-.549Z" fill="none" stroke="#004ea8" stroke-linecap="round" stroke-linejoin="round" stroke-width="1"/>
          <path id="Path_9823" data-name="Path 9823" d="M48.322,70.775a2.012,2.012,0,1,1-2.012,2.012,2.012,2.012,0,0,1,2.012-2.012" fill="#99c1e7"/>
          <path id="Path_9824" data-name="Path 9824" d="M48.321,75.3a2.511,2.511,0,1,1,2.513-2.511A2.511,2.511,0,0,1,48.321,75.3m0-4.023a1.511,1.511,0,1,0,1.513,1.512,1.511,1.511,0,0,0-1.513-1.512" fill="#004ea8"/>
          <path id="Path_9825" data-name="Path 9825" d="M40.548,68.688A2.012,2.012,0,1,1,38.536,70.7a2.012,2.012,0,0,1,2.012-2.012" fill="#99c1e7"/>
          <path id="Path_9826" data-name="Path 9826" d="M40.547,73.215A2.511,2.511,0,1,1,43.059,70.7a2.511,2.511,0,0,1-2.512,2.515m0-4.023A1.511,1.511,0,1,0,42.059,70.7a1.511,1.511,0,0,0-1.512-1.512" fill="#004ea8"/>
          <path id="Path_9827" data-name="Path 9827" d="M5.3,59.6l2.181-.879,5.831,1.563a1.51,1.51,0,1,1-.753,2.925l-.032-.009L3.518,60.788A5.353,5.353,0,0,1,5.3,59.6" fill="#99c1e7"/>
          <path id="Path_9828" data-name="Path 9828" d="M12.944,63.757a2.033,2.033,0,0,1-.505-.064l-9.05-2.421a.5.5,0,0,1-.226-.836,5.809,5.809,0,0,1,1.954-1.3h0l2.183-.88a.511.511,0,0,1,.316-.019l5.83,1.563a2.011,2.011,0,0,1-.5,3.957m-8.368-3.2,8.084,2.162a1.01,1.01,0,1,0,.531-1.948L7.517,59.246l-2.025.817a4.8,4.8,0,0,0-.916.491" fill="#004ea8"/>
          <path id="Path_9829" data-name="Path 9829" d="M58.661,77.641l.9,4.408-3.888-1.041-2.846-4.93Z" fill="#fdb913"/>
          <path id="Path_9830" data-name="Path 9830" d="M59.561,82.549a.513.513,0,0,1-.129-.017l-3.888-1.041a.5.5,0,0,1-.3-.233L52.4,76.328a.5.5,0,0,1,.036-.555.507.507,0,0,1,.525-.178L58.8,77.157a.5.5,0,0,1,.361.384l.9,4.408a.5.5,0,0,1-.49.6M56,80.578l2.907.778-.676-3.312-4.37-1.171Z" fill="#004ea8"/>
          <line id="Line_2667" data-name="Line 2667" x2="4.412" y2="1.212" transform="translate(50.212 56.707)" fill="none" stroke="#004ea8" stroke-linecap="round" stroke-width="1"/>
          <line id="Line_2668" data-name="Line 2668" x2="7.25" y2="1.793" transform="translate(47.419 89.898)" fill="none" stroke="#004ea8" stroke-linecap="round" stroke-width="1"/>
          <line id="Line_2669" data-name="Line 2669" x2="6.935" y2="1.891" transform="translate(46.744 58.866)" fill="none" stroke="#004ea8" stroke-linecap="round" stroke-width="1"/>
          <line id="Line_2670" data-name="Line 2670" x2="11.664" y2="2.814" transform="translate(44.266 84.466)" fill="none" stroke="#004ea8" stroke-linecap="round" stroke-width="1"/>
        </g>
      </g>
    </g>
  </g>
</svg>
