<svg xmlns="http://www.w3.org/2000/svg" xmlns:xlink="http://www.w3.org/1999/xlink" width="155" height="183" viewBox="0 0 155 183"><defs><style>.a{fill:#e5f5ff;}.b{fill:#132a7a;}.c{clip-path:url(#a);}.d{fill:#7eb7eb;opacity:0.392;}.e{fill:#004ea8;}.f,.j{fill:#919191;}.f{stroke:#656565;}.ac,.ag,.f,.i,.k,.n,.q,.r,.s,.u,.v,.w,.x,.y{stroke-linecap:round;}.ac,.ag,.f,.i,.k,.n,.r,.v,.w,.x,.y{stroke-linejoin:round;}.ac,.f,.n,.o,.q,.r,.s,.v{stroke-width:2px;}.g{fill:#fcb715;}.h,.i,.m,.q{fill:#fff;}.i,.w,.x{stroke:#919191;}.k,.n,.o,.p,.t,.u,.x,.y{fill:none;}.k,.n,.o{stroke:#fff;}.l{fill:#016fd0;}.l,.m{fill-rule:evenodd;}.q,.r,.s,.t,.u,.v{stroke:#004ea8;}.r,.s{fill:#fdb913;}.t,.u{stroke-width:4px;}.v{fill:#0072d8;}.w{fill:#c2c2c1;}.ag,.y{stroke:#e5f5ff;}.z{fill:#ff5f00;}.aa{fill:#eb001b;}.ab{fill:#f79e1b;}.ac{fill:#a58c3d;stroke:#59400a;}.ad,.ag{fill:#f5f3e9;}.ae{fill:#f9f0ba;}.af{fill:#967224;}.ah{clip-path:url(#b);}.ai{stroke:none;}</style><clipPath id="a"><rect class="a" width="155" height="183" rx="8" transform="translate(97.973 405)"/></clipPath><clipPath id="b"><path class="b" d="M10.041,2c-.011.872.777,1.362,1.372,1.649.612.3.814.489.814.755-.005.41-.489.585-.941.6a3.31,3.31,0,0,1-1.612-.383l-.282,1.33a4.775,4.775,0,0,0,1.744.324c1.649,0,2.723-.814,2.728-2.074.005-1.6-2.212-1.691-2.2-2.4.005-.218.213-.447.665-.505a2.925,2.925,0,0,1,1.548.271L14.158.271A4.176,4.176,0,0,0,12.69,0c-1.553,0-2.643.824-2.649,2M16.806.106a.706.706,0,0,0-.665.447L13.791,6.169H15.44l.33-.9h2.01l.191.9h1.452L18.157.106H16.806m.229,1.638.473,2.276h-1.3l.83-2.276M8.042.106l-1.3,6.063H8.313L9.611.106H8.042m-2.319,0L4.09,4.234,3.43.723A.73.73,0,0,0,2.707.106H.037L0,.282A6.359,6.359,0,0,1,1.548.8a.667.667,0,0,1,.372.532l1.25,4.84H4.829L7.371.106H5.723"/></clipPath></defs><g class="c" transform="translate(-97.973 -405)"><path class="d" d="M93.947,0c51.885,0,93.947,44.352,93.947,99.063s-42.062,99.063-93.947,99.063S0,153.774,0,99.063,42.062,0,93.947,0Z" transform="translate(121.339 395.437)"/><path class="e" d="M21.019,5.424a.678.678,0,0,0,.678-.679V.678A.677.677,0,0,0,21.019,0H8.814V.678a.678.678,0,1,1-1.356,0V0H.678A.677.677,0,0,0,0,.678V4.746a.678.678,0,0,0,.678.679,2.712,2.712,0,1,1,0,5.424A.678.678,0,0,0,0,11.526v4.068a.677.677,0,0,0,.678.678h6.78v-.678a.678.678,0,1,1,1.356,0v.678h12.2a.677.677,0,0,0,.678-.678V11.526a.678.678,0,0,0-.678-.678,2.712,2.712,0,1,1,0-5.424Zm-12.2,7.458a.678.678,0,1,1-1.356,0V11.526a.678.678,0,1,1,1.356,0Zm0-4.068a.678.678,0,1,1-1.356,0V7.458a.678.678,0,1,1,1.356,0Zm0-4.068a.678.678,0,1,1-1.356,0V3.39a.678.678,0,1,1,1.356,0Z" transform="translate(198.119 467.488) rotate(48)"/><g transform="translate(188.906 456.245) rotate(-66)"><g transform="translate(0 0)"><g class="f"><rect class="ai" width="48.985" height="30.145" rx="6"/><rect class="p" x="1" y="1" width="46.985" height="28.145" rx="5"/></g><g transform="translate(4.12 4.151)"><g transform="translate(9.299 0)"><path class="g" d="M2.921,0A2.676,2.676,0,0,0,0,2.629,2.676,2.676,0,0,0,2.921,5.258,2.678,2.678,0,0,0,5.843,2.629,2.677,2.677,0,0,0,2.921,0Zm0,4.631c-1.17,0-1.663-.944-1.663-2s.493-2,1.663-2,1.664.943,1.664,2S4.091,4.631,2.921,4.631Z" transform="translate(0)"/></g><path class="h" d="M6.862,0H4.883V3.006a1.372,1.372,0,0,0-1.068-.747,1.084,1.084,0,0,0,.657-1.033C4.471.485,3.98,0,2.819,0H0V4.955H3.075c.914,0,1.565-.253,1.808-.848v.848H6.861A2.969,2.969,0,0,0,9.63,3.772,2.568,2.568,0,0,1,9.3,2.479a2.558,2.558,0,0,1,.332-1.294A2.965,2.965,0,0,0,6.862,0ZM1.184.657H2.352c.6,0,.887.282.887.717s-.288.716-.887.716H1.184V.657ZM2.8,4.3H1.185V2.747H2.8c.649,0,.961.3.961.776S3.445,4.3,2.8,4.3Zm3.927,0H6.068V.657h.655A1.708,1.708,0,0,1,8.69,2.477,1.708,1.708,0,0,1,6.723,4.3Z" transform="translate(0 0.149)"/></g><rect class="h" width="8.949" height="2.826" rx="1.413" transform="translate(36.739 4.239)"/><g transform="translate(5.181 10.362)"><rect class="i" width="7.536" height="4.239" rx="2" transform="translate(0 0)"/><path class="j" d="M3.4,3.966,2.858,2.888a.235.235,0,0,1-.025-.106V1.406A.23.23,0,0,1,2.858,1.3L3.4.222a.4.4,0,0,1,.72,0l.392.784H7.536v.471H4.68v.942H7.536V2.89H4.654L4.116,3.965a.4.4,0,0,1-.719,0ZM3.3,1.461V2.727l.453.905.453-.905V1.461L3.756.555ZM0,2.89V2.419H2.826V2.89ZM0,1.477V1.006H2.826v.471Z" transform="translate(0 0.643)"/></g><g transform="translate(44.054 11.034)"><path class="k" d="M0,.726A.512.512,0,0,0,.15.363.512.512,0,0,0,0,0" transform="translate(0 1.09)"/><path class="k" d="M0,1.453A1.026,1.026,0,0,0,.3.726,1.024,1.024,0,0,0,0,0" transform="translate(0.707 0.726)"/><path class="k" d="M0,2.179A1.537,1.537,0,0,0,.451,1.09,1.537,1.537,0,0,0,0,0" transform="translate(1.414 0.363)"/><path class="k" d="M0,2.905A2.047,2.047,0,0,0,.6,1.453,2.047,2.047,0,0,0,0,0" transform="translate(2.122)"/></g></g><g transform="translate(-175.549 -293.304) rotate(1)"><path class="l" d="M216,306h10.363v10.363H216V306"/><path class="m" d="M281.2,396.733V393.02l6.609.006v1.026l-.764.816.764.824v1.047h-1.22l-.648-.715-.644.718-4.1-.009" transform="translate(-61.449 -82.01)"/><path class="l" d="M288.871,403.015v-2.9h2.457v.667h-1.661v.453h1.622v.656h-1.622v.445h1.661v.675h-2.457" transform="translate(-68.676 -88.699)"/><path class="l" d="M331.336,403.018l1.359-1.45-1.359-1.447h1.052l.831.918.833-.918h1.007v.023l-1.33,1.424,1.33,1.409v.041h-1.017l-.845-.927-.837.927h-1.023" transform="translate(-108.696 -88.702)"/><path class="m" d="M259.777,335.773h1.593l.56,1.271v-1.271H263.9l.339.952.34-.952h1.5v3.713h-7.937l1.636-3.713" transform="translate(-39.715 -28.059)"/><path class="l" d="M270.754,342.781l-1.286,2.895h.882l.242-.58h1.314l.242.58h.9l-1.28-2.895Zm.11,1.666.385-.922.385.922Zm0,0" transform="translate(-50.391 -34.664)"/><path class="l" d="M331.523,345.668v-2.895l1.239,0,.638,1.78.642-1.784h1.193v2.895l-.768.007v-1.989l-.725,1.982h-.7l-.74-1.989v1.989h-.779" transform="translate(-108.873 -34.656)"/></g></g><g transform="translate(174.885 498.942)"><line class="n" y2="11.141" transform="translate(5.57 0)"/><line class="n" x1="11.141" transform="translate(0 5.571)"/></g><g class="o" transform="translate(232.973 454)"><ellipse class="ai" cx="6.5" cy="6" rx="6.5" ry="6"/><ellipse class="p" cx="6.5" cy="6" rx="5.5" ry="5"/></g><g transform="translate(169.791 522.427) rotate(-16)"><path class="p" d="M1135.359,453.457h37v37h-37Z" transform="translate(-1135.359 -453.457)"/><path class="e" d="M11827.244,6819.121a.978.978,0,0,1-.879-1.068l1.977-21.232a.869.869,0,0,1,.01-.1.979.979,0,0,1,1.036-.831v-.015h2.212v4.926a2.226,2.226,0,0,0,2.189,2.224h.02a2.227,2.227,0,0,0,2.223-2.224v-4.947h8.06v4.947a2.224,2.224,0,0,0,4.448,0v-4.947h2.113a.984.984,0,0,1,.977.876l2.387,21.3a1,1,0,0,1,0,.108.985.985,0,0,1-.986.986h-25.711C11827.293,6819.125,11827.268,6819.123,11827.244,6819.121Zm18.081-18.323v-6.105a5.264,5.264,0,1,0-10.527,0v6.105a.982.982,0,1,1-1.964,0v-6.105a7.235,7.235,0,0,1,14.471,0v6.105a.99.99,0,1,1-1.979,0Z" transform="translate(-11821.688 -6784.792)"/></g><g transform="translate(161.959 482.557)"><path class="q" d="M2145.582,901.646h-72.092c-1.116,0-2.02.661-2.02,1.475v52.634c0,.815.9,1.475,2.02,1.475h72.092c1.115,0,2.02-.66,2.02-1.475V903.121C2147.6,902.306,2146.7,901.646,2145.582,901.646Z" transform="translate(-2071.469 -836.765)"/><g transform="translate(36.838 0)"><path class="r" d="M2087.663,824.1c-2.782-9.784-16.226-12.85-20.688-1.844s13.6,32.514,13.6,32.514S2090.445,833.885,2087.663,824.1Z" transform="translate(-2044.955 -815.276)"/><path class="r" d="M2076.9,827.215c8.6,7.294,1.761,26.886,1.761,26.886" transform="translate(-2046.016 -818.247)"/><path class="r" d="M2024.077,877.128s11.993,25,23.709,25.463,14.429-12.874,6.761-19.358S2024.077,877.128,2024.077,877.128Z" transform="translate(-1983.972 -830.664)"/><path class="q" d="M2103.589,894l-43.057-66.743c-.838-1.3-2.338-1.822-3.35-1.169l-11.49,7.413c-1.012.653-1.154,2.235-.315,3.534l43.056,66.743c.838,1.3,2.338,1.822,3.35,1.169l11.49-7.412C2104.285,896.878,2104.427,895.3,2103.589,894Z" transform="translate(-2044.83 -817.896)"/><rect class="s" width="19.001" height="23.432" transform="matrix(-0.542, -0.84, 0.84, -0.542, 27.404, 60.773)"/><path class="s" d="M2068.289,876.8l6.86-4.425s1.949-3.707-2.132-10.033-8.169-5.933-8.169-5.933l-6.86,4.425Z" transform="translate(-2026.194 -825.51)"/><path class="r" d="M2059.872,895.193c-3.062-10.7-23.465-12.526-23.465-12.526" transform="translate(-1994.239 -832.043)"/></g><g transform="translate(16.783 73.337)"><g class="t" transform="translate(3.474 0) rotate(14)"><circle class="ai" cx="7.18" cy="7.18" r="7.18"/><circle class="p" cx="7.18" cy="7.18" r="5.18"/></g><g class="t" transform="translate(27.796 21.266) rotate(14)"><circle class="ai" cx="7.18" cy="7.18" r="7.18"/><circle class="p" cx="7.18" cy="7.18" r="5.18"/></g><line class="u" x1="25.13" y2="34.842" transform="translate(8.703 2.218)"/></g></g><g transform="translate(159.884 407.747) rotate(19)"><rect class="p" width="30.881" height="30.881"/><path class="e" d="M1.057,21.954,3.945,10.21a.907.907,0,0,0-.26-.877q-.09-.086-.162-.157C2.14,7.793-1.6,3.149.771.775s6.981,1.33,8.4,2.752c.049.049.1.1.16.165a.911.911,0,0,0,.877.259L21.945,1.064c.025-.006.049-.014.072-.022a1.108,1.108,0,0,1,1.443.606,1.119,1.119,0,0,1,.076.3c.049.485.314,1.635-.116,1.939L15.163,9.309a.907.907,0,0,0-.262,1.255c.012.017.024.035.036.051,1.32,1.736,2.637,3.533,3.7,5.089a.906.906,0,0,0,.781.393l3.421-.125a.906.906,0,0,1,.674.265l.86.86a.907.907,0,0,1,0,1.282.926.926,0,0,1-.2.152l-3.432,1.9a.915.915,0,0,0-.353.353l-1.9,3.432a.907.907,0,0,1-1.233.354.928.928,0,0,1-.2-.152l-.858-.858a.905.905,0,0,1-.265-.68l.15-3.536a.9.9,0,0,0-.4-.789c-1.537-1.038-3.326-2.337-5.06-3.643a.906.906,0,0,0-1.269.179c-.012.015-.023.032-.034.049L3.882,23.43c-.3.432-1.455.166-1.939.116h0a1.108,1.108,0,0,1-.91-1.519A.412.412,0,0,0,1.057,21.954Z" transform="translate(3.13 3.086)"/></g><g transform="translate(133.181 440) rotate(26)"><g transform="translate(0 0)"><g class="v"><rect class="ai" width="57.488" height="35.377" rx="6"/><rect class="p" x="1" y="1" width="55.488" height="33.377" rx="5"/></g><g transform="translate(4.835 4.872)"><g transform="translate(10.913 0)"><path class="g" d="M3.428,0A3.141,3.141,0,0,0,0,3.085,3.141,3.141,0,0,0,3.428,6.171,3.142,3.142,0,0,0,6.857,3.085,3.142,3.142,0,0,0,3.428,0Zm0,5.435c-1.374,0-1.952-1.107-1.952-2.349S2.055.736,3.428.736,5.381,1.843,5.381,3.085,4.8,5.435,3.428,5.435Z" transform="translate(0 0)"/></g><path class="h" d="M8.053,0H5.731V3.528a1.61,1.61,0,0,0-1.254-.877,1.272,1.272,0,0,0,.771-1.212C5.248.569,4.671,0,3.308,0H0V5.815H3.609c1.072,0,1.836-.3,2.122-1v1H8.052c1.618,0,2.717-.481,3.249-1.388a3.015,3.015,0,0,1-.388-1.518A3,3,0,0,1,11.3,1.39C10.771.481,9.672,0,8.053,0ZM1.389.771H2.76c.7,0,1.041.331,1.041.841s-.338.84-1.041.84H1.39V.771ZM3.282,5.045H1.391V3.223H3.282c.762,0,1.127.357,1.127.91S4.044,5.045,3.282,5.045Zm4.609,0H7.121V.771H7.89A2,2,0,0,1,10.2,2.908,2,2,0,0,1,7.891,5.045Z" transform="translate(0 0.175)"/></g><rect class="a" width="10.503" height="3.317" rx="1.658" transform="translate(43.116 4.975)"/><g transform="translate(6.08 12.161)"><rect class="w" width="8.844" height="4.975" rx="2"/><g transform="translate(3.601 1.03)"><path class="x" d="M.983,4.254l.633-1.265V1.373L.983.108a.2.2,0,0,0-.35,0L0,1.373V2.989L.632,4.254A.2.2,0,0,0,.983,4.254Z" transform="translate(0 0)"/></g><line class="x" x2="3.317" transform="translate(0 2.211)"/><line class="x" x2="3.317" transform="translate(0 3.869)"/><line class="x" x2="3.869" transform="translate(4.975 2.211)"/><line class="x" x2="3.869" transform="translate(4.975 3.869)"/></g><g transform="translate(51.702 12.949)"><path class="y" d="M0,.852A.6.6,0,0,0,.176.426.6.6,0,0,0,0,0" transform="translate(0 1.279)"/><path class="y" d="M0,1.7A1.2,1.2,0,0,0,.353.852,1.2,1.2,0,0,0,0,0" transform="translate(0.83 0.853)"/><path class="y" d="M0,2.557A1.8,1.8,0,0,0,.529,1.279,1.8,1.8,0,0,0,0,0" transform="translate(1.66 0.426)"/><path class="y" d="M0,3.409A2.4,2.4,0,0,0,.706,1.7,2.4,2.4,0,0,0,0,0" transform="translate(2.49)"/></g></g><g transform="translate(40.36 22.306)"><path class="z" d="M0,0H4.016V6.559H0Z" transform="translate(4.742 0.892)"/><path class="aa" d="M5.155,4.171A4.164,4.164,0,0,1,6.749.892a4.171,4.171,0,1,0,0,6.559,4.164,4.164,0,0,1-1.593-3.28Z" transform="translate(0 0.002)"/><path class="ab" d="M.08.162V.028H.138V0H0V.028H.054V.162Zm.268,0V0H.306L.257.116.208,0H.167V.162H.2V.039L.242.145H.273L.319.039V.162Z" transform="translate(13.019 6.595)"/><path class="ab" d="M6.749,4.172A4.171,4.171,0,0,1,0,7.451a4.171,4.171,0,0,0,1.594-3.28A4.171,4.171,0,0,0,0,.892,4.171,4.171,0,0,1,6.749,4.171Z" transform="translate(6.749 0)"/></g></g><g transform="translate(105.924 507.163) rotate(-8)"><g transform="translate(0 0)"><g class="ac"><rect class="ai" width="59.069" height="36.203" rx="6"/><rect class="p" x="1" y="1" width="57.069" height="34.203" rx="5"/></g><g transform="translate(4.962 5)"><g transform="translate(11.201)"><path class="g" d="M3.519,0A3.224,3.224,0,0,0,0,3.167,3.224,3.224,0,0,0,3.519,6.334a3.225,3.225,0,0,0,3.52-3.167A3.225,3.225,0,0,0,3.519,0Zm0,5.578c-1.41,0-2-1.137-2-2.411s.594-2.411,2-2.411,2,1.135,2,2.411S4.928,5.578,3.519,5.578Z" transform="translate(0)"/></g><path class="h" d="M8.266,0H5.882V3.621a1.653,1.653,0,0,0-1.287-.9,1.305,1.305,0,0,0,.791-1.244C5.386.584,4.794,0,3.4,0H0V5.968H3.7c1.1,0,1.885-.3,2.178-1.021V5.968H8.265c1.66,0,2.788-.494,3.335-1.425a3.1,3.1,0,0,1-.4-1.558,3.082,3.082,0,0,1,.4-1.559C11.055.494,9.927,0,8.266,0ZM1.426.791H2.833c.722,0,1.069.339,1.069.863s-.347.863-1.069.863H1.427V.791ZM3.368,5.178H1.428V3.308h1.94c.782,0,1.157.366,1.157.934S4.15,5.178,3.368,5.178Zm4.73,0H7.309V.791H8.1a2.058,2.058,0,0,1,2.369,2.193A2.057,2.057,0,0,1,8.1,5.178Z" transform="translate(0 0.18)"/></g><rect class="ad" width="11.433" height="3.811" rx="1.905" transform="translate(43.825 4.764)"/><g transform="translate(5.958 12.198)"><path class="ae" d="M1.135,0H7.943A1.135,1.135,0,0,1,9.078,1.135V3.971A1.135,1.135,0,0,1,7.943,5.106H1.135A1.135,1.135,0,0,1,0,3.971V1.135A1.135,1.135,0,0,1,1.135,0Z" transform="translate(0.283 0.284)"/><path class="af" d="M4.375,5.835l-.081-.161H1.418A1.42,1.42,0,0,1,0,4.255V1.419A1.42,1.42,0,0,1,1.418,0H8.226A1.42,1.42,0,0,1,9.645,1.419V4.255A1.42,1.42,0,0,1,8.226,5.674h-2.9l-.08.161a.484.484,0,0,1-.867,0Zm3.852-.729a.852.852,0,0,0,.8-.567H5.889l-.283.567Zm-3.255,0,.383-.765V2.818L4.808,1.727,4.263,2.818V4.342l.382.765Zm-3.553,0H4.011l-.285-.571a.284.284,0,0,1-.03-.127V2.751a.285.285,0,0,1,.03-.127l.649-1.3a.485.485,0,0,1,.867,0l.472.945H9.077V1.419A.852.852,0,0,0,8.226.567H1.418a.852.852,0,0,0-.851.851V2.27h3.12v.567H.567V3.972h3.12v.568H.616A.852.852,0,0,0,1.418,5.106ZM9.077,3.972V2.837H5.921V3.972Z" transform="translate(0 0)"/></g><g transform="translate(53.066 13.291)"><path class="ag" d="M0,.875A.616.616,0,0,0,.181.437.616.616,0,0,0,0,0" transform="translate(0 1.312)"/><path class="ag" d="M0,1.75A1.235,1.235,0,0,0,.362.875,1.233,1.233,0,0,0,0,0" transform="translate(0.852 0.875)"/><path class="ag" d="M0,2.625A1.851,1.851,0,0,0,.543,1.312,1.851,1.851,0,0,0,0,0" transform="translate(1.704 0.437)"/><path class="ag" d="M0,3.5A2.466,2.466,0,0,0,.725,1.75,2.465,2.465,0,0,0,0,0" transform="translate(2.556)"/></g></g><g transform="translate(36.001 24.054)"><g transform="translate(0 0)"><g class="ah" transform="translate(0 0)"><path class="b" d="M0,7.042,19.125,0l4.351,11.818L4.351,18.859" transform="translate(-2.032 -6.297)"/></g></g></g></g></g></svg>