<svg xmlns="http://www.w3.org/2000/svg" width="158" height="176" viewBox="0 0 158 176">
  <g id="img-noresultsfound" transform="translate(-16.199 5856.777)">
    <g id="Group_7841" data-name="Group 7841" transform="translate(43.28 -5812.931)">
      <g id="Group_7835" data-name="Group 7835" transform="translate(63.523 64.757)">
        <rect id="Rectangle_1310" data-name="Rectangle 1310" width="10.725" height="45.855" transform="translate(0.845 8.429) rotate(-45)" fill="#e5f5ff"/>
        <path id="Path_2357" data-name="Path 2357" d="M276.5-5545.021l-33.27-33.27,8.429-8.429,33.27,33.27Zm-31.579-33.27,31.579,31.58,6.739-6.739L251.66-5585.03Z" transform="translate(-243.231 5586.72)" fill="#99c1e7"/>
      </g>
      <g id="Group_7836" data-name="Group 7836" transform="translate(85.973 87.207)">
        <rect id="Rectangle_1311" data-name="Rectangle 1311" width="17.709" height="45.855" rx="8.854" transform="translate(0 12.522) rotate(-45)" fill="#4b4b4b"/>
        <path id="Path_2358" data-name="Path 2358" d="M335.673-5484.194a7.863,7.863,0,0,1-5.6-2.318L308-5508.59a7.923,7.923,0,0,1,0-11.192l2.175-2.175a7.865,7.865,0,0,1,5.6-2.318,7.865,7.865,0,0,1,5.6,2.318l22.077,22.078a7.923,7.923,0,0,1,0,11.192h0l-2.175,2.174A7.861,7.861,0,0,1,335.673-5484.194Zm-19.9-38.886a6.674,6.674,0,0,0-4.751,1.969l-2.175,2.175a6.726,6.726,0,0,0,0,9.5l22.078,22.077a6.674,6.674,0,0,0,4.751,1.969,6.673,6.673,0,0,0,4.751-1.969l2.175-2.174h0a6.727,6.727,0,0,0,0-9.5l-22.077-22.077A6.674,6.674,0,0,0,315.77-5523.08Z" transform="translate(-303.249 5526.708)" fill="#99c1e7"/>
      </g>
      <g id="Group_7837" data-name="Group 7837" transform="translate(0 0)">
        <circle id="Ellipse_169" data-name="Ellipse 169" cx="44.356" cy="44.356" r="44.356" transform="translate(0.598 0.598)" fill="#e5f5ff"/>
        <path id="Path_2359" data-name="Path 2359" d="M128.772-5659.323a45.005,45.005,0,0,1-44.954-44.955,45,45,0,0,1,44.954-44.954,45,45,0,0,1,44.954,44.954A45.005,45.005,0,0,1,128.772-5659.323Zm0-88.713a43.808,43.808,0,0,0-43.758,43.758,43.808,43.808,0,0,0,43.758,43.759,43.808,43.808,0,0,0,43.758-43.759A43.808,43.808,0,0,0,128.772-5748.036Z" transform="translate(-83.818 5749.231)" fill="#99c1e7"/>
      </g>
      <g id="Group_7838" data-name="Group 7838" transform="translate(6.879 6.878)">
        <circle id="Ellipse_170" data-name="Ellipse 170" cx="37.478" cy="37.478" r="37.478" transform="translate(0.598 0.598)" fill="#0072d8"/>
        <path id="Path_2360" data-name="Path 2360" d="M139.155-5655.818a38.119,38.119,0,0,1-38.075-38.076,38.118,38.118,0,0,1,38.075-38.076,38.119,38.119,0,0,1,38.076,38.076A38.119,38.119,0,0,1,139.155-5655.818Zm0-74.956a36.922,36.922,0,0,0-36.88,36.88,36.922,36.922,0,0,0,36.88,36.88,36.922,36.922,0,0,0,36.88-36.88A36.922,36.922,0,0,0,139.155-5730.774Z" transform="translate(-101.08 5731.969)" fill="#99c1e7"/>
      </g>
      <g id="Group_7840" data-name="Group 7840" transform="translate(15.117 21.471)">
        <g id="Group_7839" data-name="Group 7839">
          <path id="Path_2361" data-name="Path 2361" d="M126.87-5666.519a3.615,3.615,0,0,1-3.615-3.615,28.754,28.754,0,0,1,3.152-13.078,28.923,28.923,0,0,1,8.408-9.925,3.615,3.615,0,0,1,5.059.74,3.616,3.616,0,0,1-.741,5.06,21.263,21.263,0,0,0-8.647,17.2A3.615,3.615,0,0,1,126.87-5666.519Z" transform="translate(-122.657 5694.448)" fill="#fff"/>
          <path id="Path_2362" data-name="Path 2362" d="M125.969-5666.819a4.219,4.219,0,0,1-4.214-4.214,29.348,29.348,0,0,1,3.218-13.351,29.516,29.516,0,0,1,8.583-10.132,4.218,4.218,0,0,1,5.9.863,4.218,4.218,0,0,1-.863,5.9,20.67,20.67,0,0,0-8.407,16.724A4.218,4.218,0,0,1,125.969-5666.819Zm10.1-27.333a3,3,0,0,0-1.8.6,28.313,28.313,0,0,0-8.233,9.719,28.151,28.151,0,0,0-3.086,12.8,3.021,3.021,0,0,0,3.018,3.019,3.021,3.021,0,0,0,3.018-3.019,21.853,21.853,0,0,1,8.888-17.682,3.022,3.022,0,0,0,.618-4.224A3.017,3.017,0,0,0,136.068-5694.152Z" transform="translate(-121.755 5695.348)" fill="#99c1e7"/>
        </g>
      </g>
    </g>
    <g id="Group_7858" data-name="Group 7858" transform="translate(16.199 -5856.777)">
      <g id="Group_7843" data-name="Group 7843" transform="translate(0 87.848)">
        <g id="Group_7842" data-name="Group 7842">
          <path id="Path_2363" data-name="Path 2363" d="M36.987-5634.307l-.063,0-20.19-2.094a.6.6,0,0,1-.533-.656.6.6,0,0,1,.656-.533l20.19,2.094a.6.6,0,0,1,.533.656A.6.6,0,0,1,36.987-5634.307Z" transform="translate(-16.199 5637.597)" fill="#99c1e7"/>
        </g>
      </g>
      <g id="Group_7845" data-name="Group 7845" transform="translate(64.215 16.301)">
        <g id="Group_7844" data-name="Group 7844" transform="translate(0)">
          <path id="Path_2364" data-name="Path 2364" d="M179.9-5806.6a.6.6,0,0,1-.578-.448l-2.094-8.075a.6.6,0,0,1,.429-.729.6.6,0,0,1,.729.429l2.094,8.075a.6.6,0,0,1-.429.729A.613.613,0,0,1,179.9-5806.6Z" transform="translate(-177.206 5815.868)" fill="#99c1e7"/>
        </g>
      </g>
      <g id="Group_7847" data-name="Group 7847" transform="translate(79.782 153.386)">
        <g id="Group_7846" data-name="Group 7846">
          <path id="Path_2365" data-name="Path 2365" d="M218.032-5458.784a.6.6,0,0,1-.595-.548l-1.2-14.357a.6.6,0,0,1,.546-.645.6.6,0,0,1,.645.546l1.2,14.357a.6.6,0,0,1-.546.645Z" transform="translate(-216.239 5474.336)" fill="#99c1e7"/>
        </g>
      </g>
      <g id="Group_7849" data-name="Group 7849" transform="translate(141.912 87.842)">
        <g id="Group_7848" data-name="Group 7848">
          <path id="Path_2366" data-name="Path 2366" d="M386.5-5636.251h-.006l-13.908-.149a.6.6,0,0,1-.591-.6.6.6,0,0,1,.6-.591h.006l13.908.149a.6.6,0,0,1,.591.6A.6.6,0,0,1,386.5-5636.251Z" transform="translate(-371.992 5637.596)" fill="#99c1e7"/>
        </g>
      </g>
      <g id="Group_7851" data-name="Group 7851" transform="translate(58.976)">
        <g id="Group_7850" data-name="Group 7850">
          <path id="Path_2367" data-name="Path 2367" d="M167.51-5844.664a.6.6,0,0,1-.578-.447l-2.842-10.917a.6.6,0,0,1,.428-.729.6.6,0,0,1,.729.428l2.842,10.917a.6.6,0,0,1-.428.729A.577.577,0,0,1,167.51-5844.664Z" transform="translate(-164.07 5856.777)" fill="#99c1e7"/>
        </g>
      </g>
      <g id="Group_7853" data-name="Group 7853" transform="translate(121.099 40.772)">
        <g id="Group_7852" data-name="Group 7852">
          <path id="Path_2368" data-name="Path 2368" d="M320.422-5746.694a.6.6,0,0,1-.422-.175.6.6,0,0,1,0-.845l7.178-7.178a.6.6,0,0,1,.845,0,.6.6,0,0,1,0,.845l-7.178,7.178A.6.6,0,0,1,320.422-5746.694Z" transform="translate(-319.824 5755.067)" fill="#99c1e7"/>
        </g>
      </g>
      <g id="Group_7855" data-name="Group 7855" transform="translate(14.955 116.292)">
        <g id="Group_7854" data-name="Group 7854">
          <path id="Path_2369" data-name="Path 2369" d="M54.328-5559.933a.6.6,0,0,1-.524-.309.6.6,0,0,1,.234-.812l10.02-5.533a.6.6,0,0,1,.812.234.6.6,0,0,1-.234.813l-10.02,5.533A.6.6,0,0,1,54.328-5559.933Z" transform="translate(-53.73 5566.663)" fill="#99c1e7"/>
        </g>
      </g>
      <g id="Group_7857" data-name="Group 7857" transform="translate(60.175 149.348)">
        <g id="Group_7856" data-name="Group 7856">
          <path id="Path_2370" data-name="Path 2370" d="M167.671-5459.346a.608.608,0,0,1-.152-.02.6.6,0,0,1-.426-.73l6.281-23.928a.6.6,0,0,1,.73-.427.6.6,0,0,1,.426.73l-6.281,23.929A.6.6,0,0,1,167.671-5459.346Z" transform="translate(-167.073 5484.47)" fill="#99c1e7"/>
        </g>
      </g>
    </g>
  </g>
</svg>
