<svg xmlns="http://www.w3.org/2000/svg" width="139.506" height="24" viewBox="0 0 139.506 24"><defs><style>.a{fill:#fff;}.b{fill:#fcb715;}</style></defs><g transform="translate(73.626)"><g transform="translate(0)"><path class="a" d="M-5388.885-4504.845c0,1,.061,2.086.121,2.691h-3.84a10.232,10.232,0,0,1-.152-1.723,4.66,4.66,0,0,1-4.171,2.086c-4.233,0-7.257-3.326-7.257-7.831,0-4.353,2.933-7.77,7.135-7.77,2.57,0,3.78,1.058,4.2,1.844v-8.5h3.961Zm-7.559-.544c2.056,0,3.658-1.572,3.658-4.263,0-2.662-1.6-4.143-3.658-4.143s-3.689,1.511-3.689,4.172S-5398.56-4505.389-5396.443-4505.389Z" transform="translate(5404.184 4524.044)"/><path class="a" d="M-5355.281-4499.746a6.7,6.7,0,0,1-6.773,4.717,7.535,7.535,0,0,1-7.68-7.952,7.469,7.469,0,0,1,7.316-7.832c4.6,0,7.347,2.934,7.347,7.71,0,.575-.061,1.179-.061,1.24h-10.643a3.623,3.623,0,0,0,3.75,3.386,3.284,3.284,0,0,0,3.386-2.267Zm-3.749-4.868a2.993,2.993,0,0,0-3.326-2.933,3.219,3.219,0,0,0-3.326,2.933Z" transform="translate(5386.817 4517.374)"/><path class="a" d="M-5334.072-4504.039l3.659-.545c.847-.122,1.119-.544,1.119-1.058,0-1.059-.816-1.935-2.51-1.935a2.639,2.639,0,0,0-2.842,2.418l-3.567-.756c.242-2.328,2.389-4.9,6.379-4.9,4.717,0,6.47,2.661,6.47,5.655v7.317a16.64,16.64,0,0,0,.182,2.358h-3.689a10.068,10.068,0,0,1-.151-1.784,4.974,4.974,0,0,1-4.384,2.208c-3.174,0-5.11-2.147-5.11-4.476C-5338.516-4502.2-5336.551-4503.677-5334.072-4504.039Zm4.778,2.539v-.666l-3.356.515a1.878,1.878,0,0,0-1.845,1.875,1.746,1.746,0,0,0,1.936,1.723C-5330.867-4498.053-5329.294-4498.87-5329.294-4501.5Z" transform="translate(5371.079 4517.374)"/><path class="a" d="M-5306.75-4502.154v-21.89h4.021v21.89Z" transform="translate(5355.064 4524.044)"/><path class="a" d="M-5292.023-4500.381a2.474,2.474,0,0,0,2.722,2.267c1.33,0,1.966-.694,1.966-1.481,0-.666-.454-1.209-1.6-1.452l-1.966-.453c-2.872-.635-4.173-2.358-4.173-4.445,0-2.66,2.358-4.868,5.563-4.868,4.233,0,5.653,2.691,5.836,4.294l-3.356.756a2.266,2.266,0,0,0-2.448-2c-1.059,0-1.905.634-1.905,1.481,0,.726.544,1.179,1.36,1.331l2.117.453c2.932.6,4.413,2.389,4.413,4.566,0,2.418-1.874,4.9-5.775,4.9-4.475,0-6.016-2.9-6.2-4.6Z" transform="translate(5349.377 4517.374)"/></g></g><g transform="translate(0 0.297)"><g transform="translate(41.921)"><path class="b" d="M-5454.954-4523.445c-7.317,0-13.169,4.546-13.169,11.852s5.852,11.852,13.169,11.852,13.173-4.549,13.173-11.852S-5447.633-4523.445-5454.954-4523.445Zm0,20.875c-5.276,0-7.5-4.253-7.5-9.024s2.221-9.023,7.5-9.023,7.5,4.25,7.5,9.023S-5449.678-4502.569-5454.954-4502.569Z" transform="translate(5468.123 4523.445)"/></g><g transform="translate(0 0.673)"><path class="a" d="M-5521.728-4522.087h-8.922v13.551a6.182,6.182,0,0,0-4.815-3.367,4.885,4.885,0,0,0,2.96-4.657c0-3.339-2.215-5.523-7.451-5.523h-12.708v22.334h13.862c4.12,0,7.055-1.141,8.151-3.823v3.823h8.919c6.215,0,10.436-1.848,12.479-5.333a11.575,11.575,0,0,1-1.491-5.829,11.548,11.548,0,0,1,1.5-5.836C-5511.289-4520.239-5515.51-4522.087-5521.728-4522.087Zm-25.6,2.96h5.267c2.7,0,4,1.27,4,3.231s-1.3,3.23-4,3.23h-5.265v-6.461Zm7.268,16.418h-7.263v-7h7.263c2.926,0,4.332,1.371,4.332,3.5S-5537.13-4502.708-5540.057-4502.708Zm17.7,0h-2.953v-16.418h2.954c6.32,0,8.866,3.5,8.866,8.208s-2.542,8.21-8.865,8.21Z" transform="translate(5552.663 4522.087)"/></g></g></svg>