<svg xmlns="http://www.w3.org/2000/svg" width="54" height="72" viewBox="0 0 54 72">
  <g id="Group_11248" data-name="Group 11248" transform="translate(-3657.771 -1849.409)">
    <rect id="Rectangle_18028" data-name="Rectangle 18028" width="54" height="53" rx="12" transform="translate(3657.771 1849.409)" fill="#0072d8"/>
    <path id="Polygon_1" data-name="Polygon 1" d="M13,0,26,22H0Z" transform="translate(3697.771 1921.409) rotate(180)" fill="#0072d8"/>
    <g id="Group_11320" data-name="Group 11320" transform="translate(3661.271 1852.409)">
      <g id="Group_4222" data-name="Group 4222" transform="translate(0 0)">
        <rect id="Rectangle_498" data-name="Rectangle 498" width="47" height="47" fill="none"/>
      </g>
      <g id="Group_11125" data-name="Group 11125" transform="translate(4.738 5.039)">
        <path id="Path_3174" data-name="Path 3174" d="M24.006,26.082a1.549,1.549,0,1,0-1.549-1.549A1.549,1.549,0,0,0,24.006,26.082Z" transform="translate(-9.893 -10.314)" fill="#fff"/>
        <path id="Path_3175" data-name="Path 3175" d="M35.88,34.825h0a1.549,1.549,0,1,0,1.549,1.549A1.549,1.549,0,0,0,35.88,34.825Z" transform="translate(-12.618 -13.032)" fill="#fff"/>
        <path id="Path_3176" data-name="Path 3176" d="M37.454,54.665h0Z" transform="translate(-13.334 -17.585)" fill="#fff"/>
        <path id="Path_3177" data-name="Path 3177" d="M42.057,19.937,38.915,18.05a1.023,1.023,0,0,1-.5-.864l-.063-3.666a3.423,3.423,0,0,0-.041-.468,3.383,3.383,0,0,0-3.869-2.812l-3.621.573a1.031,1.031,0,0,1-.94-.343L27.476,7.7a3.441,3.441,0,0,0-.335-.335,3.381,3.381,0,0,0-4.769.335l-2.4,2.766a1.027,1.027,0,0,1-.94.343l-3.621-.573a3.286,3.286,0,0,0-.468-.041A3.382,3.382,0,0,0,11.5,13.52l-.063,3.666a1.023,1.023,0,0,1-.5.864L7.79,19.937A3.382,3.382,0,0,0,6.9,24.964l2.311,2.851a1.021,1.021,0,0,1,.174.985L8.2,32.267a3.382,3.382,0,0,0,2.552,4.42l3.6.7a1.024,1.024,0,0,1,.766.642l1.31,3.422a3.437,3.437,0,0,0,.2.432,3.38,3.38,0,0,0,4.6,1.314l3.205-1.779a1.022,1.022,0,0,1,1,0l3.205,1.779a3.378,3.378,0,0,0,4.8-1.746l1.31-3.422a1.024,1.024,0,0,1,.766-.642l3.6-.7a3.378,3.378,0,0,0,2.552-4.42L40.458,28.8a1.021,1.021,0,0,1,.174-.985l2.311-2.851a3.435,3.435,0,0,0,.27-.386A3.381,3.381,0,0,0,42.057,19.937Zm-25.693.82a3.9,3.9,0,0,1,7.8,0v0a3.9,3.9,0,0,1-7.8,0ZM18.674,33.1a1.175,1.175,0,0,1-1.661-1.661L30.934,17.513a1.175,1.175,0,0,1,1.661,1.661Zm10.738.683a3.9,3.9,0,1,1,3.9-3.9A3.9,3.9,0,0,1,29.412,33.778Z" transform="translate(-6.15 -6.54)" fill="#fff"/>
      </g>
      <g id="Group_4222-2" data-name="Group 4222" transform="translate(0 0)">
        <rect id="Rectangle_498-2" data-name="Rectangle 498" width="47" height="47" fill="none"/>
      </g>
      <g id="Group_4223" data-name="Group 4223" transform="translate(24.102 24.48)">
        <path id="Path_1064" data-name="Path 1064" d="M35.18,39.569a3.9,3.9,0,1,1,3.9-3.9A3.9,3.9,0,0,1,35.18,39.569Zm0-5.445a1.549,1.549,0,1,0,1.549,1.549,1.549,1.549,0,0,0-1.549-1.549Z" transform="translate(-31.281 -31.772)" fill="#fdb913"/>
      </g>
      <g id="Group_4224" data-name="Group 4224" transform="translate(14.953 15.357)">
        <path id="Path_1065" data-name="Path 1065" d="M23.306,27.729a3.9,3.9,0,1,1,3.9-3.9v0A3.9,3.9,0,0,1,23.306,27.729Zm0-5.445a1.549,1.549,0,1,0,1.549,1.549A1.549,1.549,0,0,0,23.306,22.284Z" transform="translate(-19.407 -19.932)" fill="#fdb913"/>
      </g>
      <g id="Group_4225" data-name="Group 4225" transform="translate(15.258 15.689)">
        <path id="Path_1066" data-name="Path 1066" d="M20.978,36.61a1.174,1.174,0,0,1-.832-2L34.067,20.686a1.175,1.175,0,0,1,1.661,1.661L21.807,36.268A1.171,1.171,0,0,1,20.978,36.61Z" transform="translate(-19.803 -20.362)" fill="#fdb913"/>
      </g>
      <g id="Group_4226" data-name="Group 4226" transform="translate(4.738 5.039)">
        <path id="Path_1067" data-name="Path 1067" d="M30.27,43.62a3.376,3.376,0,0,1-1.64-.425l-3.205-1.779a1.022,1.022,0,0,0-1,0l-3.205,1.779a3.38,3.38,0,0,1-4.6-1.314,3.437,3.437,0,0,1-.2-.432l-1.31-3.422a1.024,1.024,0,0,0-.766-.642l-3.6-.7A3.382,3.382,0,0,1,8.2,32.267L9.389,28.8a1.021,1.021,0,0,0-.174-.985L6.9,24.964a3.382,3.382,0,0,1,.5-4.756,3.272,3.272,0,0,1,.386-.27l3.142-1.887a1.023,1.023,0,0,0,.5-.864L11.5,13.52A3.382,3.382,0,0,1,14.937,10.2a3.286,3.286,0,0,1,.468.041l3.621.573a1.027,1.027,0,0,0,.94-.343l2.4-2.766a3.381,3.381,0,0,1,4.769-.335,3.441,3.441,0,0,1,.335.335l2.4,2.766a1.031,1.031,0,0,0,.94.343l3.621-.573a3.381,3.381,0,0,1,3.91,3.281l.063,3.666a1.023,1.023,0,0,0,.5.864l3.142,1.887a3.381,3.381,0,0,1,1.157,4.641,3.435,3.435,0,0,1-.27.386l-2.311,2.851a1.021,1.021,0,0,0-.174.985l1.193,3.467a3.378,3.378,0,0,1-2.552,4.42l-3.6.7a1.024,1.024,0,0,0-.766.642l-1.31,3.422a3.382,3.382,0,0,1-3.159,2.171Zm-5.346-4.682a3.359,3.359,0,0,1,1.64.425l3.205,1.779a1.032,1.032,0,0,0,1.464-.532l1.31-3.422a3.373,3.373,0,0,1,2.512-2.108l3.6-.7a1.03,1.03,0,0,0,.815-1.207.979.979,0,0,0-.037-.139l-1.193-3.467a3.378,3.378,0,0,1,.569-3.231l2.311-2.851a1.031,1.031,0,0,0-.153-1.45,1.042,1.042,0,0,0-.118-.082l-3.142-1.887a3.386,3.386,0,0,1-1.64-2.841L36,13.561a1.031,1.031,0,0,0-1.049-1.014,1.011,1.011,0,0,0-.145.012l-3.621.573a3.383,3.383,0,0,1-3.082-1.121L25.7,9.245a1.03,1.03,0,0,0-1.453-.1,1.072,1.072,0,0,0-.1.1l-2.4,2.761a3.383,3.383,0,0,1-3.082,1.121l-3.621-.573a1.033,1.033,0,0,0-1.181.857,1.136,1.136,0,0,0-.012.145l-.063,3.666a3.386,3.386,0,0,1-1.64,2.841L9,21.95a1.008,1.008,0,0,0-.484.7,1.019,1.019,0,0,0,.214.828l2.311,2.851a3.378,3.378,0,0,1,.569,3.231l-1.193,3.467a1.03,1.03,0,0,0,.639,1.309.983.983,0,0,0,.139.038l3.6.7a3.373,3.373,0,0,1,2.512,2.108l1.31,3.422a1.032,1.032,0,0,0,1.334.592,1,1,0,0,0,.13-.061l3.205-1.779a3.411,3.411,0,0,1,1.638-.42Z" transform="translate(-6.15 -6.54)" fill="#004ea8"/>
      </g>
    </g>
  </g>
</svg>
