<svg id="pay_bills-enclosed-outline-fullcolor" xmlns="http://www.w3.org/2000/svg" width="64" height="64" viewBox="0 0 64 64">
  <g id="enclosure-backgroundblue">
    <rect id="enclosed-lightmonochrome" width="64" height="64" rx="32" fill="#e5f5ff"/>
  </g>
  <g id="pay_bills" data-name="pay bills" transform="translate(10.146 10.146)">
    <path id="Path_7249" data-name="Path 7249" d="M407,485.057v32.78l2.8-1.383,2.809,1.705,3.438-1.919L418.29,518l3.2-1.679,2.479,1.6,2.879-1.6L429.4,518l3.118-1.759,2.8,1.839V484.388l-3.5,2.017-2.18-1.51-3.278,1.759-3.039-1.679-1.993,1.363-2.965-1.2-2.639,1.2-3.038-1.2-2.8,1.439Z" transform="translate(-399.351 -479.667)" fill="#fff"/>
    <rect id="Rectangle_20925" data-name="Rectangle 20925" width="43.707" height="43.707" fill="none"/>
    <path id="Path_7250" data-name="Path 7250" d="M435.5,484.068a1.093,1.093,0,0,0-1.093,1.093v30.95l-1.252-.679a1.1,1.1,0,0,0-1.042,0l-2.3,1.248-2.3-1.248a1.1,1.1,0,0,0-1.042,0l-2.3,1.246-2.3-1.247a1.092,1.092,0,0,0-1.043,0l-2.3,1.248-2.3-1.247a1.1,1.1,0,0,0-1.042,0l-2.376,1.287-2.375-1.287a1.1,1.1,0,0,0-1.042,0l-1.208.655V487l1.208.655a1.094,1.094,0,0,0,1.042,0l2.3-1.247,2.3,1.247a1.091,1.091,0,0,0,1.041,0l2.3-1.247,2.3,1.247a1.1,1.1,0,0,0,.521.132,1.114,1.114,0,0,0,.522-.13l2.3-1.249,2.3,1.247a1.091,1.091,0,0,0,1.041,0l2.393-1.3.941.468a1.091,1.091,0,0,0,.487.115h0a1.092,1.092,0,0,0,.488-2.069l-1.37-.684a1.819,1.819,0,0,0-1.16.019l-2.3,1.249-2.106-1.143a1.066,1.066,0,0,0-.582-.228,1,1,0,0,0-.189-.012.881.881,0,0,0-.1.013,1.073,1.073,0,0,0-.589.248l-2.073,1.124-2.1-1.142a1.068,1.068,0,0,0-.6-.235,1.206,1.206,0,0,0-.166-.011,1.193,1.193,0,0,0-.125.016,1.083,1.083,0,0,0-.58.245l-2.071,1.124-2.114-1.147a1.085,1.085,0,0,0-1.229-.1l-2.3,1.249-2.3-1.249c-.014-.007-.029-.005-.044-.012a1.055,1.055,0,0,0-.288-.083c-.031,0-.06-.016-.092-.019a.953.953,0,0,0-.1-.02A1.093,1.093,0,0,0,406,485.161v32.781c0,.015.008.027.009.041a1.1,1.1,0,0,0,.035.178,1.084,1.084,0,0,0,.082.266c0,.005,0,.012.005.017s.025.026.035.042a1.079,1.079,0,0,0,.239.286l.021.014a1.076,1.076,0,0,0,.667.248,1.061,1.061,0,0,0,.525-.153l2.3-1.247,2.3,1.249a1.088,1.088,0,0,0,.521.132h0a.988.988,0,0,0,.125-.017,1.051,1.051,0,0,0,.545-.115l2.3-1.249,2.3,1.249a1.137,1.137,0,0,0,.186.073c.012,0,.023.01.036.014a1.1,1.1,0,0,0,.3.045h0c.024,0,.046-.008.07-.01s.057-.008.086-.012a1.076,1.076,0,0,0,.33-.1c.011-.007.024-.006.035-.011l.036-.02h0l2.266-1.228,2.3,1.249a1.132,1.132,0,0,0,.151.059c.027.01.051.024.079.031a1.066,1.066,0,0,0,.288.043v0c.02,0,.037-.007.057-.008a.819.819,0,0,0,.115-.015,1.06,1.06,0,0,0,.292-.09c.018-.009.039-.008.057-.017l2.3-1.249,2.3,1.249a1.074,1.074,0,0,0,.175.069c.017.005.033.015.051.02a1.061,1.061,0,0,0,.294.044h0c.022,0,.043-.008.064-.009s.069-.009.1-.014a1.088,1.088,0,0,0,.3-.092c.017-.009.037-.008.055-.017l2.3-1.249,2.3,1.249a.988.988,0,0,0,.106.041c.028.013.057.023.086.034a1.138,1.138,0,0,0,.209.043,1.032,1.032,0,0,0,.165.033,1.093,1.093,0,0,0,1.093-1.093V485.161A1.093,1.093,0,0,0,435.5,484.068Z" transform="translate(-399.444 -479.697)" fill="#0072d8"/>
    <g id="Group_11904" data-name="Group 11904" transform="translate(13.216 15.388)">
      <g id="Group_277" data-name="Group 277" transform="translate(0.037)">
        <path id="Path_201" data-name="Path 201" d="M428.386,496.317H413.177a1.084,1.084,0,0,1-.008-2.167h15.217a1.084,1.084,0,0,1,0,2.167Z" transform="translate(-412.128 -494.15)" fill="#0072d8"/>
      </g>
      <g id="Group_278" data-name="Group 278" transform="translate(0 7.729)">
        <path id="Path_202" data-name="Path 202" d="M416.623,503.391h-3.444a1.084,1.084,0,1,1,0-2.168h3.444a1.084,1.084,0,0,1,0,2.168Z" transform="translate(-412.095 -501.223)" fill="#0072d8"/>
      </g>
      <path id="Path_3336" data-name="Path 3336" d="M427.949,501.395H427.3a3.207,3.207,0,0,0-3.07-2.294h-2.294a.908.908,0,0,0-.907.907v1.418h-.9a.907.907,0,0,0,.012,1.814h.887v3.615h0a.907.907,0,0,0,.906.907h0a.905.905,0,0,0,.9-.9v0h0v-4.325a.868.868,0,0,0,0-.382v-1.224h1.384a1.384,1.384,0,0,1,1.379,1.243.837.837,0,0,0,0,.285,1.384,1.384,0,0,1-1.381,1.246.906.906,0,0,0,0,1.813,3.2,3.2,0,0,0,3.07-2.295h.656a.906.906,0,1,0,0-1.812Z" transform="translate(-411.434 -493.691)" fill="#fdb913"/>
    </g>
  </g>
</svg>
