<svg id="pay_bills-enclosed-filled-fullcolor" xmlns="http://www.w3.org/2000/svg" width="64" height="64" viewBox="0 0 64 64">
  <g id="enclosure-ctablue">
    <circle id="enclosure-darkmonochrome" cx="32" cy="32" r="32" fill="#0072d8"/>
  </g>
  <g id="pay_bills" data-name="pay bills" transform="translate(12.488 12.488)">
    <rect id="Rectangle_20925" data-name="Rectangle 20925" width="39.024" height="39.024" fill="none"/>
    <path id="Path_7253" data-name="Path 7253" d="M512.082,484.067a.938.938,0,0,0-.494.156c-.3.154-1.952,1.1-1.952,1.1s-.458-.276-.892-.514c-.018-.01-.028-.027-.046-.036l-1.211-.6a1.609,1.609,0,0,0-1.026.016l-2.033,1.1-1.862-1.01a.944.944,0,0,0-.515-.2.885.885,0,0,0-.167-.011.8.8,0,0,0-.093.012.949.949,0,0,0-.521.219l-1.833.994-1.856-1.009a.943.943,0,0,0-.531-.208,1.069,1.069,0,0,0-.147-.01,1.044,1.044,0,0,0-.11.015.956.956,0,0,0-.513.216l-1.831.994-1.869-1.014a.959.959,0,0,0-1.087-.09l-2.033,1.1-2.034-1.1c-.013-.006-.026,0-.039-.011a.934.934,0,0,0-.255-.073c-.027,0-.053-.015-.081-.016a.853.853,0,0,0-.086-.017.966.966,0,0,0-.966.966v28.98c0,.014.007.024.008.037a.982.982,0,0,0,.031.157.955.955,0,0,0,.072.235s0,.011,0,.016.022.023.031.037a.953.953,0,0,0,.212.253l.018.013a.951.951,0,0,0,.589.219.938.938,0,0,0,.464-.135l2.03-1.1,2.033,1.1a.961.961,0,0,0,.461.117h0a.875.875,0,0,0,.11-.015.927.927,0,0,0,.482-.1l2.033-1.1,2.033,1.1a1,1,0,0,0,.164.065c.011,0,.02.009.032.013a.972.972,0,0,0,.264.04h0c.021,0,.041-.007.062-.009s.05-.007.076-.01a.952.952,0,0,0,.292-.089c.01-.006.021,0,.031-.01l.032-.017h0l2-1.086,2.032,1.1a.966.966,0,0,0,.133.052c.024.009.045.021.07.028a.951.951,0,0,0,.255.038v0c.018,0,.033-.006.05-.007a.7.7,0,0,0,.1-.014.941.941,0,0,0,.258-.079c.016-.008.035-.007.05-.015l2.033-1.1,2.036,1.1a.92.92,0,0,0,.154.061c.016,0,.029.014.045.017a.944.944,0,0,0,.26.039h0c.019,0,.038-.007.057-.008s.061-.008.092-.013a.962.962,0,0,0,.266-.081c.015-.008.033-.007.048-.015l2.033-1.1,2.033,1.1a.851.851,0,0,0,.094.037c.025.012.05.02.076.03a.991.991,0,0,0,.185.038.9.9,0,0,0,.146.029.966.966,0,0,0,.966-.966v-28.98A.966.966,0,0,0,512.082,484.067Z" transform="translate(-480.012 -480.01)" fill="#fff"/>
    <g id="Group_11904" data-name="Group 11904" transform="translate(11.876 13.796)">
      <g id="Group_277" data-name="Group 277" transform="translate(0.032)">
        <path id="Path_201" data-name="Path 201" d="M506.5,496.065H493.055a.958.958,0,0,1-.007-1.916H506.5a.958.958,0,0,1,0,1.916Z" transform="translate(-492.128 -494.15)" fill="#0072d8"/>
      </g>
      <g id="Group_278" data-name="Group 278" transform="translate(0 6.832)">
        <path id="Path_202" data-name="Path 202" d="M496.1,503.139h-3.045a.958.958,0,1,1,0-1.917H496.1a.958.958,0,0,1,0,1.917Z" transform="translate(-492.095 -501.223)" fill="#0072d8"/>
      </g>
      <path id="Path_3336" data-name="Path 3336" d="M506.937,501.129h-.576a2.835,2.835,0,0,0-2.714-2.028H501.62a.8.8,0,0,0-.8.8v1.254h-.8a.8.8,0,0,0,.011,1.6h.784v3.2h0a.8.8,0,0,0,.8.8h0a.8.8,0,0,0,.8-.8v0h0v-3.823a.767.767,0,0,0,0-.338v-1.082h1.224a1.224,1.224,0,0,1,1.219,1.1.8.8,0,0,0-.011.145.85.85,0,0,0,.011.107,1.224,1.224,0,0,1-1.221,1.1.8.8,0,0,0,0,1.6,2.829,2.829,0,0,0,2.714-2.029h.58a.8.8,0,1,0,0-1.6Z" transform="translate(-492.338 -494.318)" fill="#fdb913"/>
    </g>
  </g>
</svg>
