<svg xmlns="http://www.w3.org/2000/svg" width="64" height="64" viewBox="0 0 64 64">
  <g id="sapphire-default" transform="translate(-12)">
    <g id="essentials" transform="translate(12)">
      <g id="grocery-enclosed-outline-fullcolor">
        <rect id="enclosed-lightmonochrome" width="64" height="64" rx="32" fill="#e5f5ff"/>
      </g>
    </g>
    <g id="card-sapphire" transform="translate(23.147 19.25)">
      <g id="Path_8736" data-name="Path 8736" transform="translate(0)" fill="#004ea8" stroke-linecap="round">
        <path d="M 3.458216667175293 25.25172996520996 C 2.618846654891968 25.25172996520996 1.834146618843079 24.92667007446289 1.248666644096375 24.3364200592041 C 0.6642566323280334 23.74724960327148 0.3461466133594513 22.96160125732422 0.3529365956783295 22.12421989440918 L 0.502276599407196 3.721590280532837 C 0.5164666175842285 1.974070429801941 1.951566576957703 0.5408303737640381 3.701366662979126 0.5266403555870056 L 38.22115707397461 0.2468403875827789 L 38.24747848510742 0.246740385890007 C 39.08677673339844 0.246740385890007 39.87144470214844 0.5718203783035278 40.45695495605469 1.162090420722961 C 41.04139709472656 1.75130033493042 41.35952758789062 2.536930322647095 41.35273742675781 3.374250411987305 L 41.20339584350586 21.77687072753906 C 41.18920516967773 23.52439117431641 39.75409698486328 24.9576301574707 38.00429534912109 24.97182083129883 L 3.484516620635986 25.25163078308105 L 3.458216667175293 25.25172996520996 Z" stroke="none"/>
        <path d="M 38.24747467041016 0.7467403411865234 L 38.22521591186523 0.7468299865722656 L 3.705425262451172 1.026630401611328 C 2.22686767578125 1.038610458374023 1.014236450195312 2.2493896484375 1.002265930175781 3.725641250610352 L 0.8529281616210938 22.12828063964844 C 0.8472175598144531 22.83127021789551 1.113845825195312 23.49040031433105 1.603694915771484 23.98425102233887 C 2.094608306884766 24.47916030883789 2.753215789794922 24.7517204284668 3.458194732666016 24.7517204284668 L 3.480457305908203 24.75163078308105 L 38.00023651123047 24.47183036804199 C 39.47879791259766 24.4598503112793 40.69142532348633 23.24907112121582 40.70340728759766 21.77281951904297 L 40.85274505615234 3.370180130004883 C 40.85845565795898 2.667190551757812 40.59182739257812 2.008060455322266 40.10197830200195 1.514209747314453 C 39.61106491088867 1.01930046081543 38.95245742797852 0.7467403411865234 38.24747467041016 0.7467403411865234 M 38.24747467041016 -0.2532634735107422 C 40.25766372680664 -0.2532634735107422 41.86904525756836 1.366420745849609 41.85271835327148 3.378299713134766 L 41.70337677001953 21.78092956542969 C 41.68696594238281 23.80293083190918 40.03264617919922 25.45539093017578 38.00834655761719 25.47179985046387 L 3.488567352294922 25.75160026550293 C 1.463626861572266 25.76801490783691 -0.1634521484375 24.14215850830078 -0.1470451354980469 22.12016105651855 L 0.00229644775390625 3.717531204223633 C 0.01869583129882812 1.695529937744141 1.673015594482422 0.04306983947753906 3.697315216064453 0.02666091918945312 L 38.21710586547852 -0.2531394958496094 C 38.22723770141602 -0.2532215118408203 38.23736572265625 -0.2532634735107422 38.24747467041016 -0.2532634735107422 Z" stroke="none" fill="#d8d8d8"/>
      </g>
      <g id="BDOonBlue" transform="translate(3.488 3.485)">
        <g id="Group_4058" data-name="Group 4058" transform="translate(7.962 0)">
          <path id="Path_964" data-name="Path 964" d="M2.5-.017A2.33,2.33,0,0,0-.015,2.247,2.243,2.243,0,0,0,2.462,4.471,2.331,2.331,0,0,0,4.977,2.207,2.243,2.243,0,0,0,2.5-.017ZM2.467,3.935c-1,.008-1.414-.794-1.407-1.7S1.495.527,2.495.519s1.415.793,1.408,1.7S3.467,3.927,2.467,3.935Z" transform="translate(0.015 0.017)" fill="#fff"/>
        </g>
        <path id="Path_965" data-name="Path 965" d="M5.869-.039,4.178-.025,4.157,2.54a1.147,1.147,0,0,0-.907-.63.943.943,0,0,0,.568-.886C3.823.392,3.406-.018,2.415-.01h0L.006.009-.028,4.237,2.6,4.216c.781-.006,1.339-.227,1.551-.736L4.144,4.2l1.69-.014A2.58,2.58,0,0,0,8.207,3.161a2.166,2.166,0,0,1-.274-1.1A2.208,2.208,0,0,1,8.226.953,2.493,2.493,0,0,0,5.869-.039Zm-4.856.6,1-.008c.512,0,.756.234.753.606s-.251.613-.763.617L1,1.784,1.014.561Zm1.352,3.1L.989,3.669,1,2.344l1.376-.011c.555,0,.819.253.816.655S2.92,3.653,2.365,3.658ZM5.72,3.63l-.56,0L5.186.527l.56,0c1.2-.01,1.675.648,1.668,1.54A1.485,1.485,0,0,1,5.721,3.63Z" transform="translate(0.028 0.204)" fill="#fff"/>
      </g>
      <g id="Group_17191" data-name="Group 17191" transform="translate(3.473 16.256)">
        <path id="Path_8738" data-name="Path 8738" d="M1.209,0,6.038-.04a1.183,1.183,0,0,1,1.2,1.2A1.23,1.23,0,0,1,6.018,2.372l-4.829.039a1.183,1.183,0,0,1-1.2-1.2A1.23,1.23,0,0,1,1.209,0Z" transform="translate(0.046 0.242)" fill="#2683ef"/>
        <path id="Path_8739" data-name="Path 8739" d="M1.209,0,5.635-.037a1.183,1.183,0,0,1,1.2,1.2A1.23,1.23,0,0,1,5.616,2.374L1.189,2.41a1.183,1.183,0,0,1-1.2-1.2A1.23,1.23,0,0,1,1.209,0Z" transform="translate(8.496 0.174)" fill="#2683ef"/>
        <path id="Path_8740" data-name="Path 8740" d="M1.209,0,5.635-.037a1.183,1.183,0,0,1,1.2,1.2A1.23,1.23,0,0,1,5.616,2.374L1.189,2.41a1.183,1.183,0,0,1-1.2-1.2A1.23,1.23,0,0,1,1.209,0Z" transform="translate(16.544 0.109)" fill="#2683ef"/>
        <path id="Path_8741" data-name="Path 8741" d="M1.209,0,6.038-.04a1.183,1.183,0,0,1,1.2,1.2A1.23,1.23,0,0,1,6.018,2.372l-4.829.039a1.183,1.183,0,0,1-1.2-1.2A1.23,1.23,0,0,1,1.209,0Z" transform="translate(24.995 0.04)" fill="#2683ef"/>
        <path id="Path_8742" data-name="Path 8742" d="M1.007.02,19.115-.126a.986.986,0,0,1,1,1A1.025,1.025,0,0,1,19.1,1.883L.991,2.03a.986.986,0,0,1-1-1A1.025,1.025,0,0,1,1.007.02Z" transform="translate(0.007 5.046)" fill="#2683ef"/>
      </g>
    </g>
  </g>
</svg>
