<svg id="Scheme-Mastercard" xmlns="http://www.w3.org/2000/svg" width="36.861" height="24.379" viewBox="0 0 36.861 24.379">
  <g id="Group_5070" data-name="Group 5070" opacity="0">
    <rect id="Rectangle_814" data-name="Rectangle 814" width="36.861" height="24.379" fill="#fff"/>
  </g>
  <rect id="Rectangle_815" data-name="Rectangle 815" width="9.704" height="15.899" transform="translate(13.58 4.239)" fill="#ff5f00"/>
  <path id="Path_966" data-name="Path 966" d="M19.9,17.557a10.1,10.1,0,0,1,3.85-7.943,10.093,10.093,0,1,0,0,15.888,10.1,10.1,0,0,1-3.85-7.946Z" transform="translate(-5.361 -5.367)" fill="#eb001b"/>
  <path id="Path_967" data-name="Path 967" d="M120,64.752v-.325h.14V64.36h-.333v.067h.132v.325Zm.647,0V64.36h-.1l-.118.28-.118-.28h-.1v.392h.073v-.3l.109.255h.076l.109-.255v.3Z" transform="translate(-86.191 -46.304)" fill="#f79e1b"/>
  <path id="Path_968" data-name="Path 968" d="M82,17.547A10.077,10.077,0,0,1,65.69,25.49a10.12,10.12,0,0,0,0-15.888A10.077,10.077,0,0,1,82,17.544Z" transform="translate(-47.223 -5.357)" fill="#f79e1b"/>
</svg>
