<svg id="search-outline" xmlns="http://www.w3.org/2000/svg" width="24" height="24" viewBox="0 0 24 24">
  <rect id="Rectangle_70" data-name="Rectangle 70" width="24" height="24" fill="none"/>
  <path id="Path_7639" data-name="Path 7639" d="M12227.133-5222.993l-4.351-4.352a.6.6,0,0,1,0-.849.6.6,0,0,1,.847,0l4.353,4.353a.6.6,0,0,1,0,.848.594.594,0,0,1-.423.174A.6.6,0,0,1,12227.133-5222.993ZM12209-5234.214a7.787,7.787,0,0,1,7.786-7.785,7.785,7.785,0,0,1,7.786,7.785,7.787,7.787,0,0,1-7.786,7.786A7.788,7.788,0,0,1,12209-5234.214Zm5.224-6.069a6.61,6.61,0,0,0-1.118.606,6.744,6.744,0,0,0-.976.805,6.441,6.441,0,0,0-.8.976,6.868,6.868,0,0,0-.609,1.118,6.589,6.589,0,0,0-.516,2.563,6.585,6.585,0,0,0,.516,2.564,6.794,6.794,0,0,0,.609,1.117,6.542,6.542,0,0,0,.8.976,6.456,6.456,0,0,0,.976.8,6.508,6.508,0,0,0,1.118.606,6.532,6.532,0,0,0,2.563.518,6.553,6.553,0,0,0,2.564-.518,6.694,6.694,0,0,0,1.118-.606,6.589,6.589,0,0,0,.974-.8,6.541,6.541,0,0,0,.807-.976,6.568,6.568,0,0,0,.606-1.117,6.556,6.556,0,0,0,.517-2.564,6.55,6.55,0,0,0-.517-2.563,6.637,6.637,0,0,0-.606-1.118,6.648,6.648,0,0,0-.807-.976,6.664,6.664,0,0,0-.974-.805,6.8,6.8,0,0,0-1.118-.606,6.555,6.555,0,0,0-2.564-.517A6.538,6.538,0,0,0,12214.223-5240.283Zm.708,10.461a4.754,4.754,0,0,1-1.517-1.02,4.767,4.767,0,0,1-1.021-1.516,4.747,4.747,0,0,1-.374-1.856.6.6,0,0,1,.6-.6.6.6,0,0,1,.6.6,3.571,3.571,0,0,0,3.566,3.567.6.6,0,0,1,.6.6.6.6,0,0,1-.6.6A4.734,4.734,0,0,1,12214.931-5229.822Z" transform="translate(-12206.539 5244.417)" fill="#0072d8"/>
</svg>
