<svg id="share" xmlns="http://www.w3.org/2000/svg" width="32" height="32" viewBox="0 0 32 32">
  <g id="Group_4916" data-name="Group 4916">
    <g id="Group_4915" data-name="Group 4915">
      <rect id="Rectangle_1003" data-name="Rectangle 1003" width="32" height="32" fill="none"/>
    </g>
  </g>
  <g id="Group_4917" data-name="Group 4917" transform="translate(19.24 3.25)">
    <path id="Path_1300" data-name="Path 1300" d="M1207.25,204.7a3.152,3.152,0,1,1-2.227.923,3.129,3.129,0,0,1,2.227-.923m0-1.6a4.75,4.75,0,1,0,4.75,4.75,4.75,4.75,0,0,0-4.75-4.75Z" transform="translate(-1202.5 -203.1)" fill="#0072d8"/>
  </g>
  <g id="Group_4918" data-name="Group 4918" transform="translate(19.235 19.155)">
    <path id="Path_1301" data-name="Path 1301" d="M1206.95,1198.8a3.152,3.152,0,1,1-2.227.923,3.129,3.129,0,0,1,2.227-.923m0-1.6a4.75,4.75,0,1,0,4.75,4.75,4.75,4.75,0,0,0-4.75-4.75Z" transform="translate(-1202.2 -1197.2)" fill="#0072d8"/>
  </g>
  <g id="Group_4919" data-name="Group 4919" transform="translate(3.064 11.168)">
    <path id="Path_1302" data-name="Path 1302" d="M196.25,699.6a3.152,3.152,0,1,1-2.227.923,3.128,3.128,0,0,1,2.227-.923m0-1.6a4.75,4.75,0,1,0,4.75,4.75,4.75,4.75,0,0,0-4.75-4.75Z" transform="translate(-191.5 -698)" fill="#0072d8"/>
  </g>
  <g id="Group_4920" data-name="Group 4920" transform="translate(10.645 9.226)">
    <path id="Path_1303" data-name="Path 1303" d="M666.144,582.466a.8.8,0,0,1-.338-1.525l9.088-4.224a.8.8,0,0,1,.674,1.451l-9.088,4.224A.812.812,0,0,1,666.144,582.466Z" transform="translate(-665.343 -576.643)" fill="#0072d8"/>
  </g>
  <g id="Group_4921" data-name="Group 4921" transform="translate(10.58 17.379)">
    <path id="Path_1304" data-name="Path 1304" d="M671.28,1091.583a.791.791,0,0,1-.306-.061l-9.221-3.824a.8.8,0,1,1,.613-1.477l9.221,3.824a.8.8,0,0,1-.307,1.538Z" transform="translate(-661.26 -1086.16)" fill="#0072d8"/>
  </g>
</svg>
