<svg xmlns="http://www.w3.org/2000/svg" width="66" height="66" viewBox="0 0 66 66">
  <g id="success" transform="translate(-2304 1988)">
    <g id="Group_4724" data-name="Group 4724" transform="translate(2304 -1988)">
      <circle id="Ellipse_1" data-name="Ellipse 1" cx="33" cy="33" r="33" fill="#00a995"/>
      <path id="Shape_271" data-name="Shape 271" d="M12882.2,406.152l-8.4,8.419-2.727,2.732a.919.919,0,0,1-1.3,0l-2.727-2.732-2.988-2.794a.927.927,0,0,1,0-1.3l1.072-1.076a.919.919,0,0,1,1.3,0l3.916,3.52a.392.392,0,0,0,.557,0l8.932-9.145a.922.922,0,0,1,1.3,0l1.07,1.076a.918.918,0,0,1,0,1.3Z" transform="translate(-12840.616 -377.468)" fill="#fff"/>
    </g>
  </g>
</svg>
