<svg xmlns="http://www.w3.org/2000/svg" width="50" height="50" viewBox="0 0 50 50">
  <g id="unionpay-default" transform="translate(-309 -919)">
  <!--  <g id="essentials" transform="translate(309 919)">
      <g id="grocery-enclosed-outline-fullcolor">
        <rect id="enclosed-lightmonochrome" width="50" height="50" rx="8" fill="#e5f5ff" opacity="0.8"/>
      </g>
    </g>-->
    <g id="UnionPay_logo" transform="translate(315.494 932.424)">
      <path id="Path_8771" data-name="Path 8771" d="M7.248,0h9.238a1.8,1.8,0,0,1,1.791,2.345l-4.3,18.465a3.139,3.139,0,0,1-2.885,2.341H1.854A1.8,1.8,0,0,1,.063,20.811l4.3-18.465A3.131,3.131,0,0,1,7.248,0" transform="translate(0)" fill="#e21836"/>
      <path id="Path_8772" data-name="Path 8772" d="M65.723,0H76.347c1.289,0,.708,1.051.4,2.345l-4.3,18.465c-.3,1.289-.208,2.341-1.5,2.341H60.328a1.8,1.8,0,0,1-1.788-2.341l4.3-18.465A3.137,3.137,0,0,1,65.723,0" transform="translate(-50.006)" fill="#00447c"/>
      <path id="Path_8773" data-name="Path 8773" d="M136.16,0H145.4a1.8,1.8,0,0,1,1.79,2.345l-4.3,18.465A3.141,3.141,0,0,1,140,23.152h-9.233a1.8,1.8,0,0,1-1.791-2.341l4.3-18.465A3.13,3.13,0,0,1,136.16,0" transform="translate(-110.241)" fill="#007b84"/>
      <path id="Path_8774" data-name="Path 8774" d="M34.212,40.664a9.927,9.927,0,0,1-1.32-.021c-.034.164-.675,3.121-.677,3.123a2.165,2.165,0,0,1-.58,1.3,1.033,1.033,0,0,1-.682.237.63.63,0,0,1-.708-.606l-.008-.136s.128-.8.128-.806.673-2.695.793-3.051a.26.26,0,0,0,.01-.041,9.888,9.888,0,0,1-1.558-.021c-.009.029-.041.2-.041.2l-.687,3.037-.059.258-.114.843a1.24,1.24,0,0,0,.147.626c.313.547,1.206.629,1.711.629a3.32,3.32,0,0,0,1.674-.391,2.48,2.48,0,0,0,1.07-1.672l.077-.3s.693-2.8.811-3.163A.127.127,0,0,1,34.212,40.664Zm2.358,2.258a1.83,1.83,0,0,0-.747.175c-.1.051-.194.11-.293.169l.09-.324-.049-.054c-.582.118-.712.134-1.249.209l-.045.03a15.891,15.891,0,0,1-.349,1.923c-.088.375-.179.753-.271,1.127l.025.048c.551-.029.718-.029,1.2-.021l.039-.042c.061-.311.069-.384.2-1.015.063-.3.2-.956.26-1.19a.892.892,0,0,1,.35-.11c.268,0,.236.234.225.327-.011.156-.109.668-.209,1.106l-.067.283c-.047.209-.1.412-.144.62l.02.041c.543-.029.708-.029,1.172-.021l.054-.042c.084-.486.108-.617.257-1.325l.075-.325c.145-.637.218-.96.108-1.223A.632.632,0,0,0,36.57,42.921Zm2.634.667c-.288.055-.472.092-.655.116s-.358.055-.637.094l-.022.02-.02.016c-.029.208-.049.387-.088.6s-.083.466-.165.822a3.231,3.231,0,0,1-.132.464,4.007,4.007,0,0,0-.145.457l.017.025.014.023c.261-.012.431-.021.606-.023s.356,0,.637,0l.025-.02.026-.022c.041-.242.047-.307.071-.425s.067-.3.171-.77c.049-.22.1-.439.155-.663s.108-.443.161-.663l-.008-.027Zm.006-.9a1.057,1.057,0,0,0-1.032.108c-.309.209-.344.507-.083.663a1.054,1.054,0,0,0,1.026-.11C39.43,43.137,39.469,42.842,39.211,42.689ZM40.8,46.272a1.97,1.97,0,0,0,1.483-.58,2.627,2.627,0,0,0,.509-1.09,1.387,1.387,0,0,0-.123-1.251,1.365,1.365,0,0,0-1.113-.409,2.043,2.043,0,0,0-1.4.484,2.291,2.291,0,0,0-.62,1.207c-.1.437-.215,1.224.508,1.517A2.12,2.12,0,0,0,40.8,46.272Zm-.041-1.607c.122-.541.267-.995.635-.995.289,0,.31.338.181.88a2.426,2.426,0,0,1-.271.759.447.447,0,0,1-.347.226c-.039,0-.269,0-.273-.342A2.329,2.329,0,0,1,40.754,44.665ZM44.113,46.2l.041-.042c.059-.311.068-.385.2-1.015.065-.3.2-.956.263-1.19a.88.88,0,0,1,.352-.11c.266,0,.234.234.223.327a10.636,10.636,0,0,1-.209,1.106l-.063.283c-.048.209-.1.412-.148.62l.02.041c.544-.029.7-.029,1.17-.021l.056-.042c.082-.487.1-.617.257-1.325l.073-.326c.146-.637.22-.959.112-1.222a.639.639,0,0,0-.653-.366,1.822,1.822,0,0,0-.747.175c-.1.051-.2.11-.291.169l.084-.324-.045-.055c-.581.118-.714.134-1.251.209l-.041.03a16.482,16.482,0,0,1-.349,1.923c-.088.375-.179.753-.271,1.127l.025.048C43.471,46.194,43.636,46.194,44.113,46.2Zm4,.021c.034-.167.238-1.157.239-1.157s.173-.727.184-.753a.43.43,0,0,1,.109-.106h.08a3.722,3.722,0,0,0,2.28-.492,2.43,2.43,0,0,0,.906-1.443,2.18,2.18,0,0,0,.063-.5,1.055,1.055,0,0,0-.181-.641c-.341-.478-1.021-.486-1.806-.49l-.387,0c-1,.012-1.407.009-1.573-.011-.014.073-.04.2-.04.2s-.36,1.668-.36,1.67l-.9,3.712C47.6,46.207,47.962,46.207,48.113,46.223Zm.667-2.962s.383-1.664.381-1.658l.012-.085.005-.065.153.016.807.07a.658.658,0,0,1,.35.836,1.216,1.216,0,0,1-.631.832,1.993,1.993,0,0,1-.886.138h-.208ZM51.162,44.7c-.1.431-.217,1.218.5,1.5a1.406,1.406,0,0,0,.645.116,1.064,1.064,0,0,0,.615-.282l-.051.2.033.042c.518-.022.679-.022,1.24-.018l.051-.039c.082-.482.159-.95.372-1.872.1-.442.207-.879.314-1.319l-.017-.048c-.58.107-.734.13-1.292.209l-.042.034c-.006.045-.011.088-.017.131a.8.8,0,0,0-.406-.334,1.552,1.552,0,0,0-1.331.484A2.26,2.26,0,0,0,51.162,44.7Zm1.217.026c.124-.531.267-.981.636-.981.233,0,.356.215.331.583-.02.092-.041.188-.067.3-.037.158-.077.314-.116.471a1.142,1.142,0,0,1-.136.276.638.638,0,0,1-.451.218c-.037,0-.265,0-.273-.336A2.309,2.309,0,0,1,52.379,44.722Zm6.356-1.754-.045-.051c-.573.116-.677.135-1.2.206l-.039.039c0,.006,0,.016-.006.025l0-.009c-.392.9-.381.71-.7,1.422,0-.032,0-.053,0-.087l-.08-1.544-.05-.051c-.6.116-.615.135-1.17.206l-.043.039a.419.419,0,0,0-.01.061l0,.008a7.793,7.793,0,0,1,.122.835c.032.274.076.551.108.822.055.454.085.677.152,1.369-.375.618-.463.852-.824,1.395l0,.005-.254.4a.192.192,0,0,1-.092.084.383.383,0,0,1-.166.024h-.141l-.209.7.718.012a.885.885,0,0,0,.829-.464l.451-.773h-.007l.048-.054C56.427,46.929,58.735,42.968,58.735,42.968Zm-7.574,9.138h-.3l1.127-3.727h.374L52.476,48l.011.427c-.014.264.194.5.739.459h.631l.217-.718h-.237c-.136,0-.2-.034-.192-.108l-.011-.434H52.466v0a16.373,16.373,0,0,0-1.734.1,2.041,2.041,0,0,0-.567.281l.114-.384H49.187l-.228.763-1.142,3.784H47.6l-.217.712h2.176l-.073.238h1.072l.071-.238h.3Zm-.893-2.969a4.881,4.881,0,0,0-.5.2l.29-.952h.868l-.209.694A2.821,2.821,0,0,0,50.269,49.136Zm.017,1.361s-.273.034-.452.075a4.423,4.423,0,0,0-.508.222l.3-.991H50.5ZM49.8,52.115h-.871l.252-.836h.868ZM51.9,49.8h1.255l-.18.584H51.7l-.191.639h1.113l-.843,1.186a.347.347,0,0,1-.171.143.5.5,0,0,1-.226.065h-.309l-.212.7h.807a.982.982,0,0,0,.851-.442l.578-.791.124.8a.378.378,0,0,0,.208.273.748.748,0,0,0,.282.12c.127.005.218.01.279.01h.4l.238-.783h-.156a.654.654,0,0,1-.271-.043.425.425,0,0,1-.041-.167l-.126-.8h-.515l.226-.269h1.269l.2-.639H54.031l.183-.584h1.172l.217-.72H52.11ZM41.3,52.277l.293-.975h1.2l.22-.725H41.808l.184-.6h1.178l.218-.7H40.441l-.214.7H40.9l-.179.6h-.671l-.222.737h.669L40.1,52.6a.308.308,0,0,0,.074.315.322.322,0,0,0,.215.157,1.3,1.3,0,0,0,.309.042h1.357l.242-.8-.6.083C41.583,52.4,41.261,52.385,41.3,52.277Zm.138-4.665-.305.551a.64.64,0,0,1-.177.23.586.586,0,0,1-.273.041H40.52l-.213.705h.529a1.2,1.2,0,0,0,.543-.14c.1-.054.127-.023.2-.1l.179-.155h1.651l.219-.734H42.423l.211-.4Zm2.437,4.679c-.028-.041-.008-.112.035-.261l.451-1.494h1.605c.234,0,.4-.006.513-.014a1.049,1.049,0,0,0,.386-.13.722.722,0,0,0,.281-.259,2.2,2.2,0,0,0,.277-.628l.567-1.89-1.666.01a5.279,5.279,0,0,0-.739.159,3.02,3.02,0,0,0-.553.354l.15-.518H44.15L42.709,52.4a2.947,2.947,0,0,0-.093.4c0,.087.11.173.183.238a.656.656,0,0,0,.336.065c.129.01.311.016.564.016h.791l.243-.82-.708.067A.186.186,0,0,1,43.871,52.291Zm.777-2.763h1.686l-.107.336a1.215,1.215,0,0,0-.223,0h-1.46Zm.338-1.127h1.7l-.122.4s-.8-.008-.93.016a1.9,1.9,0,0,0-.895.4Zm1.279,2.588a.18.18,0,0,1-.067.1.333.333,0,0,1-.172.03h-.24l.014-.409h-1l-.041,2c0,.144.012.228.118.295a2.005,2.005,0,0,0,.869.094h.626l.226-.749-.545.03-.181.011a.207.207,0,0,1-.075-.047c-.023-.023-.062-.009-.055-.153l0-.513.572-.024a.741.741,0,0,0,.553-.2.613.613,0,0,0,.183-.34l.1-.454h-.786Z" transform="translate(-24.551 -34.745)" fill="#fefefe"/>
    </g>
  </g>
</svg>
