<svg id="view_all_list-default" xmlns="http://www.w3.org/2000/svg" width="20" height="20" viewBox="0 0 20 20">
  <rect id="Rectangle_83" data-name="Rectangle 83" width="20" height="20" fill="none"/>
  <path id="Path_7641" data-name="Path 7641" d="M11918.982-5233.833a.5.5,0,0,1-.5-.5.5.5,0,0,1,.5-.5h6.749a.5.5,0,0,1,.5.5.5.5,0,0,1-.5.5Zm-3.225,0a.5.5,0,0,1-.5-.5.5.5,0,0,1,.5-.5h1.327a.5.5,0,0,1,.5.5.5.5,0,0,1-.5.5Zm3.225-3.584a.5.5,0,0,1-.5-.5.5.5,0,0,1,.5-.5h6.749a.5.5,0,0,1,.5.5.5.5,0,0,1-.5.5Zm-3.225,0a.5.5,0,0,1-.5-.5.5.5,0,0,1,.5-.5h1.327a.5.5,0,0,1,.5.5.5.5,0,0,1-.5.5Zm3.225-3.583a.5.5,0,0,1-.5-.5.5.5,0,0,1,.5-.5h6.749a.5.5,0,0,1,.5.5.5.5,0,0,1-.5.5Zm-3.225,0a.5.5,0,0,1-.5-.5.5.5,0,0,1,.5-.5h1.327a.5.5,0,0,1,.5.5.5.5,0,0,1-.5.5Z" transform="translate(-11910.74 5247.854)" fill="#0072d8"/>
</svg>
