<svg id="view_all_list-selected" xmlns="http://www.w3.org/2000/svg" width="20" height="20" viewBox="0 0 20 20">
  <rect id="Rectangle_83" data-name="Rectangle 83" width="20" height="20" fill="none"/>
  <path id="Path_8192" data-name="Path 8192" d="M10460.26-5233.833a1.166,1.166,0,0,1,1.166-1.167,1.167,1.167,0,0,1,1.167,1.167,1.167,1.167,0,0,1-1.167,1.167A1.166,1.166,0,0,1,10460.26-5233.833Zm3.908.521a.5.5,0,0,1-.5-.5.5.5,0,0,1,.5-.5h6.748a.5.5,0,0,1,.5.5.5.5,0,0,1-.5.5Zm-3.908-3.854a1.165,1.165,0,0,1,1.166-1.167,1.166,1.166,0,0,1,1.167,1.167,1.167,1.167,0,0,1-1.167,1.167A1.166,1.166,0,0,1,10460.26-5237.166Zm3.908.269a.5.5,0,0,1-.5-.5.5.5,0,0,1,.5-.5h6.748a.5.5,0,0,1,.5.5.5.5,0,0,1-.5.5Zm-3.908-3.936a1.166,1.166,0,0,1,1.166-1.167,1.167,1.167,0,0,1,1.167,1.167,1.167,1.167,0,0,1-1.167,1.167A1.166,1.166,0,0,1,10460.26-5240.833Zm3.908.353a.5.5,0,0,1-.5-.5.5.5,0,0,1,.5-.5h6.748a.5.5,0,0,1,.5.5.5.5,0,0,1-.5.5Z" transform="translate(-10455.926 5247.333)" fill="#0072d8"/>
</svg>
