<svg width="16" height="16" viewBox="0 0 16 16" fill="none" xmlns="http://www.w3.org/2000/svg">
<path d="M13.3325 2.66666H2.66585C1.93052 2.66666 1.33252 3.26466 1.33252 3.99999V12C1.33252 12.7353 1.93052 13.3333 2.66585 13.3333H13.3325C14.0679 13.3333 14.6659 12.7353 14.6659 12V3.99999C14.6659 3.26466 14.0679 2.66666 13.3325 2.66666ZM4.33252 4.66666C4.88519 4.66666 5.33252 5.11466 5.33252 5.66666C5.33252 6.21866 4.88519 6.66666 4.33252 6.66666C3.77985 6.66666 3.33252 6.21866 3.33252 5.66666C3.33252 5.11466 3.77985 4.66666 4.33252 4.66666ZM7.99919 11.3333H5.99919H3.33252L5.99919 7.99999L6.99919 9.33332L8.99919 6.66666L12.6659 11.3333H7.99919Z" fill="white"/>
</svg>
