<svg xmlns="http://www.w3.org/2000/svg" width="18" height="18" viewBox="0 0 18 18">
    <g fill="#FFF" fill-rule="nonzero" opacity=".5">
        <path d="M15.492 9.492H8.508V2.508A.506.506 0 0 0 8 2c-4.41 0-8 3.59-8 8s3.59 8 8 8 8-3.59 8-8a.51.51 0 0 0-.508-.508zM8 16.984c-3.85 0-6.984-3.135-6.984-6.984a6.99 6.99 0 0 1 6.476-6.965V10c0 .282.226.508.508.508h6.965A6.99 6.99 0 0 1 8 16.984z"/>
        <path d="M18 8.435a8.476 8.476 0 0 0-2.118-5.573A8.468 8.468 0 0 0 9.537 0 .535.535 0 0 0 9 .537v7.926c0 .298.239.537.537.537h7.926A.535.535 0 0 0 18 8.463v-.028zm-7.925-.506V1.1a7.386 7.386 0 0 1 5 2.48 7.381 7.381 0 0 1 1.83 4.35h-6.83z"/>
    </g>
</svg>
