<svg xmlns="http://www.w3.org/2000/svg" width="31" height="31" fill="none" viewBox="0 0 31 31">
    <path fill="#3E4E73" fill-rule="evenodd" d="M15.5 27.944c2.235 0 4.322-.572 6.26-1.714a12.066 12.066 0 0 0 4.47-4.471 12.112 12.112 0 0 0 1.715-6.26c0-1.416-.224-2.776-.671-4.08a11.936 11.936 0 0 0-1.938-3.558L7.863 25.335a11.931 11.931 0 0 0 3.558 1.938c1.304.447 2.664.67 4.08.67zM3.055 15.499c0 1.416.223 2.776.67 4.08a11.934 11.934 0 0 0 1.938 3.559L23.138 5.663a11.934 11.934 0 0 0-3.559-1.938 12.492 12.492 0 0 0-4.08-.67c-2.235 0-4.322.571-6.26 1.714a12.067 12.067 0 0 0-4.47 4.47 12.112 12.112 0 0 0-1.714 6.26zM15.5 0c2.832 0 5.452.708 7.862 2.124a14.691 14.691 0 0 1 5.514 5.514C30.292 10.048 31 12.668 31 15.5s-.708 5.452-2.124 7.862a14.692 14.692 0 0 1-5.514 5.514C20.952 30.292 18.332 31 15.5 31s-5.452-.708-7.862-2.124a14.968 14.968 0 0 1-5.514-5.552A15.176 15.176 0 0 1 0 15.5c0-2.807.708-5.415 2.124-7.825a15.255 15.255 0 0 1 5.551-5.551A15.176 15.176 0 0 1 15.5 0z" clip-rule="evenodd"/>
</svg>
