<svg width="20" height="20" viewBox="0 0 20 20" fill="none" xmlns="http://www.w3.org/2000/svg">
<path d="M4.43213 16.0166H15.5683C15.5683 13.5241 13.8322 11.4312 11.4727 10.8015C12.7086 10.2406 13.5706 8.998 13.5706 7.55268C13.5706 5.58063 11.9711 3.9834 10.0013 3.9834C8.02972 3.9834 6.43159 5.58198 6.43159 7.55268C6.43159 8.99935 7.29267 10.2402 8.52947 10.8015C6.16823 11.4312 4.43213 13.5241 4.43213 16.0166Z" fill="white"/>
<path d="M0.674127 6.36785C1.04625 6.36785 1.34825 6.06584 1.34825 5.69372V1.94738H5.0946C5.46672 1.94738 5.76873 1.64537 5.76873 1.27325C5.76873 0.90113 5.46672 0.599121 5.0946 0.599121H1.24714C0.559076 0.599121 0 1.1582 0 1.84626V5.69372C0 6.06584 0.30111 6.36785 0.674127 6.36785Z" fill="white"/>
<path d="M18.753 0.599121H14.9051C14.5334 0.599121 14.231 0.90113 14.231 1.27325C14.231 1.64537 14.5334 1.94738 14.9051 1.94738H18.6514V5.69372C18.6514 6.06584 18.9539 6.36785 19.3256 6.36785C19.6972 6.36785 19.9997 6.06584 19.9997 5.69372V1.84671C20.0001 1.1591 19.4402 0.599121 18.753 0.599121Z" fill="white"/>
<path d="M19.326 13.6323C18.9539 13.6323 18.6519 13.9343 18.6519 14.3065V18.0528H14.9056C14.5335 18.0528 14.2314 18.3548 14.2314 18.7269C14.2314 19.099 14.5335 19.4011 14.9056 19.4011H18.7526C19.4402 19.4011 20.0002 18.8411 20.0002 18.1535V14.3065C20.0002 13.9343 19.6982 13.6323 19.326 13.6323Z" fill="white"/>
<path d="M5.0946 18.0528H1.34825V14.3065C1.34825 13.9343 1.04625 13.6323 0.674127 13.6323C0.30111 13.6323 0 13.9343 0 14.3065V18.1535C0 18.8411 0.559076 19.4011 1.24714 19.4011H5.0946C5.46672 19.4011 5.76873 19.099 5.76873 18.7269C5.76873 18.3548 5.46717 18.0528 5.0946 18.0528Z" fill="white"/>
</svg>
