<svg width="62" height="23" viewBox="0 0 62 23" fill="none" xmlns="http://www.w3.org/2000/svg">
<path d="M45.0954 16.9046H49.6797L61 1H57.0122L45.0954 16.9046Z" fill="#70C1DC"/>
<path d="M31.331 7.16304C30.6527 5.60767 29.0155 4.41482 27.1093 4.41482C25.168 4.41482 23.519 5.54919 22.8641 7.16304H31.331V7.16304ZM35.0966 9.08094C35.0966 9.47855 35.0615 9.87617 35.0031 10.2738L22.6887 10.227C22.9226 11.607 23.8699 12.449 24.5598 12.9635C25.2615 13.4781 26.3491 13.6535 27.2262 13.6535C28.4424 13.6535 29.8692 12.9869 30.6644 12.028L32.5823 14.9048C31.0503 16.3549 29.226 17.0917 27.1209 17.0917C24.8873 17.0917 23.0045 16.3199 21.4491 14.7645C19.8937 13.2091 19.1219 11.3263 19.1219 9.09263C19.1219 6.88237 19.9054 4.99955 21.4608 3.45587C23.0279 1.9005 24.9107 1.12866 27.1209 1.12866C29.3312 1.12866 31.214 1.9005 32.7694 3.45587C34.3248 4.99955 35.0966 6.87067 35.0966 9.08094Z" fill="#268ABF"/>
<path d="M38.5231 3.53793C40.1253 1.94748 44.0195 -0.484986 49.3172 2.62576L46.9783 5.3155C43.7506 3.77182 42.0549 5.18686 41.3181 5.98209C40.4527 6.89426 40.0668 7.93507 40.02 9.20978V17.0451L36.1257 17.0568V9.31503C36.1257 7.04629 36.921 5.12839 38.5231 3.53793Z" fill="#268ABF"/>
<path d="M13.3565 16.4718C14.2804 16.0742 15.1341 15.4661 15.9059 14.6708C17.4262 13.1038 18.1629 11.2209 18.1162 8.99898C18.0928 7.89969 17.8823 6.88227 17.473 5.94671C17.0637 5.01115 16.4672 4.16914 15.6837 3.42069C14.0816 1.9004 12.1987 1.19873 10.0235 1.19873C8.02379 1.19873 5.95385 1.77176 4.21137 3.54933C-2.52468 9.79421 3.42784 22.284 3.42784 22.284L6.76078 20.3076C5.48607 17.536 4.86626 15.1386 4.86626 15.1386C6.65553 16.7875 8.66698 17.1384 10.3393 17.1033C11.4269 17.0799 12.4326 16.8694 13.3565 16.4718ZM5.88369 7.38514C6.11758 6.8238 6.44502 6.33263 6.85433 5.92332C7.26364 5.50232 7.75481 5.17487 8.30445 4.92929C8.86579 4.6837 9.46221 4.55506 10.1171 4.55506C10.7486 4.55506 11.3567 4.67201 11.9181 4.91759C12.4794 5.16318 12.9589 5.49062 13.3799 5.91163C13.7892 6.33263 14.1283 6.8238 14.3622 7.37344C14.6078 7.93478 14.7248 8.5195 14.7248 9.15101C14.7248 9.78251 14.6078 10.3789 14.3622 10.9286C14.1283 11.4899 13.8009 11.9694 13.3799 12.3904C12.9589 12.8114 12.4794 13.1505 11.9181 13.3961C11.3567 13.6417 10.7603 13.7703 10.1171 13.7703C9.47391 13.7703 8.86579 13.6534 8.30445 13.4078C7.74312 13.1622 7.26364 12.8348 6.85433 12.4138C6.44502 11.9928 6.11758 11.5133 5.87199 10.952C5.62641 10.3906 5.50946 9.79421 5.50946 9.1627C5.52116 8.54289 5.6498 7.94647 5.88369 7.38514Z" fill="#268ABF"/>
<path d="M60.2983 17.1384H55.8427L48.4868 6.90569L50.9076 4.04053L60.2983 17.1384Z" fill="#268ABF"/>
<path d="M21.4725 19.1267H32.9331L30.5942 22.1673H19.1336L21.4725 19.1267Z" fill="#DF542A"/>
</svg>
