<svg width="320" height="640" viewBox="0 0 320 640" fill="none" xmlns="http://www.w3.org/2000/svg">
<g clip-path="url(#clip0)">
<path fill-rule="evenodd" clip-rule="evenodd" d="M270.54 0H49.4615C23.3863 0 2.24823 21.1381 2.24823 47.2133L2.24825 86.1829C1.00658 86.1829 0 87.1895 0 88.4312V107.916C0 109.158 1.00658 110.164 2.24825 110.164V132.647C1.00658 132.647 0 133.653 0 134.895V176.862C0 178.104 1.00658 179.111 2.24825 179.111V191.101C1.00658 191.101 0 192.108 0 193.35V235.317C0 236.559 1.00658 237.565 2.24825 237.565L2.24823 595.787C2.24823 621.862 23.3863 643 49.4615 643H270.54C296.615 643 317.753 621.862 317.753 595.787V222.577C318.995 222.577 320.001 221.57 320.001 220.329V149.884C320.001 148.642 318.995 147.635 317.753 147.635V47.2133C317.753 21.1381 296.615 0 270.54 0ZM45.5367 622.609C46.7715 622.764 48.0299 622.843 49.307 622.843H269.697C269.776 622.843 269.856 622.843 269.936 622.843C271.131 622.833 272.309 622.754 273.467 622.609C288.141 620.766 299.493 608.312 299.579 593.18V593.082L299.579 593.007V46.993L299.579 46.9183V46.8205C299.486 30.4151 286.15 17.1562 269.697 17.1562H243.175C239.874 17.1562 237.199 19.8279 237.199 23.1235V23.8694C237.199 32.9697 229.878 40.2797 220.763 40.2797H98.2413C89.1269 40.2797 81.8054 32.9697 81.8054 23.8694V23.1235C81.8054 19.8279 79.1296 17.1562 75.8288 17.1562H49.3074C32.7968 17.1562 19.4241 30.5082 19.4241 46.993V593.007C19.4241 608.217 30.8081 620.759 45.5367 622.609Z" fill="#333333"/>
<path opacity="0.6" fill-rule="evenodd" clip-rule="evenodd" d="M109.82 613.147C109.82 612.117 110.657 611.282 111.688 611.282H208.062C209.093 611.282 209.929 612.117 209.929 613.147C209.929 614.177 209.093 615.012 208.062 615.012H111.688C110.657 615.012 109.82 614.177 109.82 613.147Z" fill="#333333"/>
<path d="M198.35 23.8694C198.35 26.7531 196.009 29.0908 193.12 29.0908C190.232 29.0908 187.891 26.7531 187.891 23.8694C187.891 20.9857 190.232 18.648 193.12 18.648C196.009 18.648 198.35 20.9857 198.35 23.8694Z" fill="#4F4F4F"/>
<path d="M142.693 21.6316C141.455 21.6316 140.451 22.6335 140.451 23.8694C140.451 25.1053 141.455 26.1071 142.693 26.1071H175.564C176.803 26.1071 177.805 25.1053 177.805 23.8694C177.805 22.6335 176.803 21.6316 175.564 21.6316H142.693Z" fill="#4F4F4F"/>
</g>
<defs>
<clipPath id="clip0">
<rect width="320" height="640" fill="white"/>
</clipPath>
</defs>
</svg>
