<svg xmlns="http://www.w3.org/2000/svg" width="18" height="18" viewBox="0 0 18 18">
    <path fill="#FFF" fill-rule="nonzero" d="M16.418 4.219h-2.146c.332-.441.529-.99.529-1.582A2.64 2.64 0 0 0 12.164 0c-.876 0-1.521.314-2.032.987-.428.564-.74 1.351-1.132 2.345-.392-.994-.704-1.78-1.132-2.345C7.358.314 6.712 0 5.836 0a2.64 2.64 0 0 0-2.637 2.637c0 .593.197 1.14.529 1.582H1.582C.71 4.219 0 4.929 0 5.8v1.054c0 .688.44 1.274 1.055 1.492v8.071c0 .872.71 1.582 1.582 1.582h12.726c.873 0 1.582-.71 1.582-1.582V8.347A1.585 1.585 0 0 0 18 6.855V5.801c0-.873-.71-1.582-1.582-1.582zm-6.45-.466c.808-2.05 1.115-2.698 2.196-2.698.872 0 1.582.71 1.582 1.582 0 .872-.71 1.582-1.582 1.582h-2.38l.184-.466zM5.836 1.055c1.081 0 1.388.648 2.196 2.698l.184.466h-2.38c-.872 0-1.582-.71-1.582-1.582 0-.873.71-1.582 1.582-1.582zm1.055 15.89H2.637a.528.528 0 0 1-.528-.527v-7.98h4.782v8.507zm0-9.562H1.582a.528.528 0 0 1-.527-.528V5.801c0-.291.236-.528.527-.528h5.309v2.11zm3.164 9.562h-2.11V5.273h2.11v11.672zm5.836-.527c0 .29-.237.527-.528.527H11.11V8.437h4.782v7.981zm1.054-9.563c0 .291-.236.528-.527.528h-5.309v-2.11h5.309c.29 0 .527.237.527.528v1.054z" opacity=".5"/>
</svg>
