<?xml version="1.0" encoding="UTF-8"?>
<svg width="1000px" height="1000px" viewBox="0 0 1000 1000" version="1.1" xmlns="http://www.w3.org/2000/svg" xmlns:xlink="http://www.w3.org/1999/xlink">
    <!-- Generator: Sketch 57.1 (83088) - https://sketch.com -->
    <title>audience-empty-illustration</title>
    <desc>Created with Sketch.</desc>
    <g id="audience-empty-illustration" stroke="none" stroke-width="1" fill="none" fill-rule="evenodd">
        <g id="drawkit-support-man-monochrome" transform="translate(61.000000, 0.000000)">
            <path d="M459.57563,930 L459.57563,477" id="Path" stroke="#DFDFDF" stroke-width="7" stroke-linecap="round" stroke-linejoin="round"></path>
            <path d="M397.086976,696.503196 C395.76207,703.376987 510.896379,887 520.113938,887 C531.93399,887 559.07563,866.852028 559.07563,861.161741 C559.07563,855.471453 507.224498,723.212514 507.224498,700.877427 C507.224498,678.542339 408.462238,637.3564 397.086976,696.503196 Z" id="Path" fill="#000000" fill-rule="nonzero"></path>
            <path d="M376.57563,981 L376.57563,477" id="Path" stroke="#DFDFDF" stroke-width="7" stroke-linecap="round" stroke-linejoin="round"></path>
            <polygon id="Rectangle" fill="#DFDFDF" fill-rule="nonzero" transform="translate(802.622991, 563.384590) rotate(13.260000) translate(-802.622991, -563.384590) " points="786.712256 304.546288 818.533726 304.546288 818.533726 822.222892 786.712256 822.222892"></polygon>
            <polygon id="Rectangle" fill="#DFDFDF" fill-rule="nonzero" transform="translate(617.443462, 769.388398) rotate(103.260000) translate(-617.443462, -769.388398) " points="601.532726 620.499905 633.354197 620.499905 633.354197 918.27689 601.532726 918.27689"></polygon>
            <rect id="Rectangle" fill="#2665EE" fill-rule="nonzero" x="376.07563" y="139" width="159" height="107"></rect>
            <polygon id="Path" fill="#2665EE" fill-rule="nonzero" points="564.07563 192 493.07563 175 493.07563 209"></polygon>
            <circle id="Oval" fill="#FFFFFF" fill-rule="nonzero" cx="420.07563" cy="193" r="8"></circle>
            <circle id="Oval" fill="#FFFFFF" fill-rule="nonzero" cx="456.07563" cy="193" r="8"></circle>
            <circle id="Oval" fill="#FFFFFF" fill-rule="nonzero" cx="493.07563" cy="193" r="8"></circle>
            <path d="M587.07563,448 C604.243845,370.299888 641.996927,281.077455 711.07563,254" id="Path" stroke="#000000" stroke-width="2.5" stroke-linecap="round" stroke-linejoin="round"></path>
            <path d="M775.910414,250 C804.764892,261.592811 817.07563,297.329406 817.07563,323.996666 C817.07563,472.938674 786.46924,621.994523 768.779655,633.264785 C737.529319,653.186964 591.580776,605.753204 578.436695,574.446922 C574.544608,565.178365 573.777554,538.966469 577.489715,505.136711" id="Path" stroke="#000000" stroke-width="2.5" stroke-linecap="round" stroke-linejoin="round"></path>
            <path d="M711.134684,254 C712.12421,242.022736 712.281216,229.996786 711.604684,218" id="Path" stroke="#000000" stroke-width="2.5" stroke-linecap="round" stroke-linejoin="round"></path>
            <path d="M764.631186,174 C763.668223,179.6902 765.594149,228.056902 779.07563,258.404636 C776.119334,263.061117 758.29489,271.283456 740.07563,273" id="Path" stroke="#000000" stroke-width="2.5" stroke-linecap="round" stroke-linejoin="round"></path>
            <path d="M745.07563,173.352778 C737.215875,201.440556 719.67007,221 699.274865,221 C671.5458,221 649.07563,184.846667 649.07563,140.25 C649.068467,133.130889 649.656923,126.023364 650.835057,119" id="Path" stroke="#000000" stroke-width="2.5" stroke-linecap="round" stroke-linejoin="round"></path>
            <path d="M633.233525,116.729288 C596.684051,108.845383 591.07563,79.7889182 591.07563,68.3905013 C591.07563,33.2453826 622.338788,32.2955145 635.601946,24.6965699 C650.702999,16.0432718 662.128262,0 683.917736,0 C704.759841,0 720.39142,19.9472296 733.180893,26.5963061 C754.970367,37.994723 807.07563,36.0949868 807.07563,75.9894459 C807.07563,104.485488 796.654578,112.084433 796.654578,125.382586 C796.654578,132.98153 798.549314,135.831135 798.549314,151.029024 C798.549314,168.421108 783.39142,177.862797 772.648262,180" id="Path" stroke="#000000" stroke-width="2.5" stroke-linecap="round" stroke-linejoin="round"></path>
            <path d="M741.07563,131 C751.016756,131 759.07563,138.835017 759.07563,148.5 C759.07563,158.164983 751.016756,166 741.07563,166" id="Path" stroke="#000000" stroke-width="2.5" stroke-linecap="round" stroke-linejoin="round"></path>
            <path d="M692.404797,431.341463 C687.109825,444.015549 679.143686,466.310976 677.722852,487.103659 C663.514519,481.432927 527.114519,420 501.539519,420 C451.336741,420 438.07563,436.067073 438.07563,443.628049 C438.07563,457.804878 499.645075,455.914634 508.170075,460.640244 C516.695075,465.365854 685.30063,575 706.139519,575 C724.960825,575 769.300297,502.499695 779.07563,472.46372" id="Path" stroke="#000000" stroke-width="2.5" stroke-linecap="round" stroke-linejoin="round"></path>
            <path d="M803.07563,444.241162 C797.576025,461.708839 790.824785,473.709605 784.82263,473.983423 C763.962057,474.927622 688.105431,435.271273 682.416184,422.996689 C678.623352,414.904906 707.069587,358.347399 739.924989,327" id="Path" stroke="#000000" stroke-width="2.5" stroke-linecap="round" stroke-linejoin="round"></path>
            <rect id="Rectangle" fill="#DFDFDF" fill-rule="nonzero" x="0.0756302521" y="465" width="483" height="19"></rect>
            <path d="M30.5756303,981 L30.5756303,477" id="Path" stroke="#DFDFDF" stroke-width="7" stroke-linecap="round" stroke-linejoin="round"></path>
            <path d="M117.57563,930 L117.57563,477" id="Path" stroke="#DFDFDF" stroke-width="7" stroke-linecap="round" stroke-linejoin="round"></path>
            <rect id="Rectangle" fill="#000000" fill-rule="nonzero" x="356.07563" y="455" width="109" height="11"></rect>
            <polygon id="Rectangle" fill="#000000" fill-rule="nonzero" transform="translate(330.552456, 390.397430) rotate(-109.650000) translate(-330.552456, -390.397430) " points="256.387594 388.830033 404.717317 388.830033 404.717317 391.964826 256.387594 391.964826"></polygon>
            <path d="M708.07563,800 L774.07563,999" id="Path" stroke="#DFDFDF" stroke-width="7" stroke-linecap="round" stroke-linejoin="round"></path>
            <path d="M549.07563,909 L486.07563,992" id="Path" stroke="#DFDFDF" stroke-width="7" stroke-linecap="round" stroke-linejoin="round"></path>
            <path d="M639.07563,789 L570.07563,881" id="Path" stroke="#DFDFDF" stroke-width="7" stroke-linecap="round" stroke-linejoin="round"></path>
            <path d="M536.07563,765 L384.07563,967" id="Path" stroke="#DFDFDF" stroke-width="7" stroke-linecap="round" stroke-linejoin="round"></path>
            <path d="M610.07563,782 L676.07563,981" id="Path" stroke="#DFDFDF" stroke-width="7" stroke-linecap="round" stroke-linejoin="round"></path>
            <path d="M760.993097,635.26023 C718.738673,646.026594 590.182791,602.648106 577.852656,573.403436 C576.942233,571.000605 576.305891,568.502681 575.955712,565.957096 C520.090717,551.586134 459.919659,541 407.573495,541 C321.499669,541 251.07563,917.965033 251.07563,924.462795 C257.980506,926.492753 304.683262,933 304.683262,933 C304.683262,933 421.677272,694.147973 424.930531,677.898826 C436.710552,686.018657 585.117951,763.194991 642.415139,763.194991 C705.213464,763.194991 764.07563,698.691664 764.07563,639.301174 C764.07563,638.295681 763.013342,636.958185 760.993097,635.26023 Z" id="Path" fill="#000000" fill-rule="nonzero"></path>
            <polyline id="Path" stroke="#000000" stroke-width="2.5" stroke-linecap="round" stroke-linejoin="round" points="303.07563 927.771858 291.079682 1000 177.07563 981.706284 267.25794 963.95765 274.820397 923"></polyline>
            <polyline id="Path" stroke="#000000" stroke-width="2.5" stroke-linecap="round" stroke-linejoin="round" points="553.583347 861 595.07563 920.509185 500.07563 987 552.859755 911.58139 529.876191 877.315663"></polyline>
        </g>
    </g>
</svg>