<?xml version="1.0" encoding="UTF-8"?>
<svg width="1000px" height="1000px" viewBox="0 0 1000 1000" version="1.1" xmlns="http://www.w3.org/2000/svg" xmlns:xlink="http://www.w3.org/1999/xlink">
    <!-- Generator: Sketch 57.1 (83088) - https://sketch.com -->
    <title>campaign-empty-illustration</title>
    <desc>Created with Sketch.</desc>
    <g id="campaign-empty-illustration" stroke="none" stroke-width="1" fill="none" fill-rule="evenodd">
        <g id="drawkit-list-app-monochrome" transform="translate(2.000000, 0.000000)">
            <g id="Backgrund" transform="translate(0.034517, 0.000000)">
                <path d="M313.212983,392.227027 L313.212983,392.227027 C309.012091,389.178784 306.112884,386.308108 305.087314,383.970135 C302.700892,378.435946 308.341526,356.683919 319.701685,332.436081 L0,332.436081 L0,438 L307.601933,438 C309.357235,418.082838 311.556293,402.328649 313.212983,392.227027 Z" id="Path" fill="#E4EAF8" fill-rule="nonzero"></path>
                <rect id="Rectangle" fill="#DFDFDF" fill-rule="nonzero" x="859.40783" y="0.493243243" width="135.099108" height="185.459459"></rect>
                <rect id="Rectangle" fill="#F3F3F3" fill-rule="nonzero" x="859.40783" y="0.493243243" width="135.099108" height="12.8243243"></rect>
                <rect id="Rectangle" fill="#E4EAF8" fill-rule="nonzero" x="0" y="73.9864865" width="329.365709" height="105.554054"></rect>
                <ellipse id="Oval" fill="#2665EE" fill-rule="nonzero" cx="53.7438057" cy="125.777027" rx="34.5143707" ry="34.527027"></ellipse>
                <rect id="Rectangle" fill="#2665EE" fill-rule="nonzero" x="111.925173" y="93.222973" width="193.280476" height="11.8378378"></rect>
                <rect id="Rectangle" fill="#2665EE" fill-rule="nonzero" x="111.925173" y="120.844595" width="65.0842418" height="11.8378378"></rect>
                <polyline id="Path" stroke="#F3F3F3" stroke-width="6" points="76.8092666 111.887297 48.3201189 140.386892 36.5359267 128.588514"></polyline>
                <rect id="Rectangle" fill="#E4EAF8" fill-rule="nonzero" x="0" y="203.216216" width="329.365709" height="105.554054"></rect>
                <ellipse id="Oval" fill="#2665EE" fill-rule="nonzero" cx="53.7438057" cy="255.006757" rx="34.5143707" ry="34.527027"></ellipse>
                <rect id="Rectangle" fill="#2665EE" fill-rule="nonzero" x="111.925173" y="222.452703" width="193.280476" height="11.8378378"></rect>
                <rect id="Rectangle" fill="#2665EE" fill-rule="nonzero" x="111.925173" y="250.074324" width="65.0842418" height="11.8378378"></rect>
                <polyline id="Path" stroke="#F3F3F3" stroke-width="6" points="76.8092666 241.117027 48.3201189 269.616622 36.5359267 257.818243"></polyline>
                <ellipse id="Oval" fill="#2665EE" fill-rule="nonzero" cx="53.7438057" cy="384.236486" rx="34.5143707" ry="34.527027"></ellipse>
                <rect id="Rectangle" fill="#2665EE" fill-rule="nonzero" x="111.925173" y="351.682432" width="193.280476" height="11.8378378"></rect>
                <rect id="Rectangle" fill="#2665EE" fill-rule="nonzero" x="111.925173" y="379.304054" width="65.0842418" height="11.8378378"></rect>
                <polyline id="Path" stroke="#F3F3F3" stroke-width="6" points="76.8092666 370.346757 48.3201189 398.836486 36.5359267 387.047973"></polyline>
                <rect id="Rectangle" fill="#F3F3F3" fill-rule="nonzero" x="832.782458" y="31.0743243" width="135.099108" height="185.459459"></rect>
                <rect id="Rectangle" fill="#DFDFDF" fill-rule="nonzero" x="832.782458" y="31.0743243" width="135.099108" height="12.8243243"></rect>
                <rect id="Rectangle" fill="#DFDFDF" fill-rule="nonzero" x="847.574331" y="66.5878378" width="106.501487" height="8.87837838"></rect>
                <rect id="Rectangle" fill="#DFDFDF" fill-rule="nonzero" x="847.574331" y="84.3445946" width="106.501487" height="8.87837838"></rect>
                <rect id="Rectangle" fill="#DFDFDF" fill-rule="nonzero" x="847.574331" y="102.101351" width="106.501487" height="8.87837838"></rect>
                <path d="M609.918236,283.614865 C609.918236,273.75 627.668484,257.966216 658.238355,257.966216 C695.7111,257.966216 746.989594,337.871622 804.184836,337.871622 C843.629832,337.871622 897.8667,305.317568 897.8667,246.128378" id="Path" stroke="#DFDFDF" stroke-width="11" stroke-dasharray="22"></path>
            </g>
            <g id="Vector" transform="translate(303.034517, 3.000000)">
                <path d="M159.923077,997 L64.1666667,997 C64.1666667,997 31.5897436,660.722057 31.5897436,653.818991 C37.5128205,659.735905 36.525641,661.70821 61.2051282,668.611276 C76.0128205,684.389713 180.653846,946.706231 180.653846,946.706231 L159.923077,997 Z" id="Path" fill="#000000" fill-rule="nonzero"></path>
                <path d="M283.320513,653.818991 L283.320513,997 L159.923077,997 L61.0866667,668.384461 C95.7564103,674.52819 227.051282,679.458952 283.320513,653.818991 Z" id="Path" fill="#000000" fill-rule="nonzero"></path>
                <path d="M9.49666667,389.135707 C2.58641026,431.402196 -13.8896154,572.56004 32.5769231,705.098912 C33.8041889,705.41228 35.1072333,705.102529 36.0616667,704.270544" id="Path" stroke="#000000" stroke-width="2.5" stroke-linecap="round" stroke-linejoin="round"></path>
                <path d="M28.6282051,400.220059 C14.5411538,393.316993 3.59333333,386.029327 1.37217949,380.891474 C-3.95858974,368.544847 30.7407692,275.373175 79.8332051,254.032839" id="Path" stroke="#000000" stroke-width="2.5" stroke-linecap="round" stroke-linejoin="round"></path>
                <path d="M179.666667,218.639832 C191.295641,223.038071 201.828846,230.47366 211.355128,240.18726" id="Path" stroke="#000000" stroke-width="2.5" stroke-linecap="round" stroke-linejoin="round"></path>
                <path d="M292.205128,547.373709 C293.774744,604.965005 289.648333,648.37543 283.320513,653.818991 C262.589744,671.569733 50.3461538,688.334322 31.5897436,653.818991 C13.8994872,621.275964 -3.78089744,259.052354 128.333333,217.811464" id="Path" stroke="#000000" stroke-width="2.5" stroke-linecap="round" stroke-linejoin="round"></path>
                <path d="M199.70641,249.683907 C201.962617,247.039937 204.512797,244.661143 207.307692,242.593472 C245.807692,213.995054 335.641026,328.388724 334.653846,349.097923 C333.666667,369.807122 258.641026,413.197824 242.846154,409.253215 C238.778974,408.267062 230.842051,399.391691 222.233846,386.118081" id="Path" stroke="#000000" stroke-width="2.5" stroke-linecap="round" stroke-linejoin="round"></path>
                <path d="M128.333333,217.811464 L128.333333,198.502601" id="Path" stroke="#000000" stroke-width="2.5" stroke-linecap="round" stroke-linejoin="round"></path>
                <path d="M179.666667,168.839139 L179.666667,232.731949 C179.666667,239.822384 163.960641,243.29364 149.932821,242.642779" id="Path" stroke="#000000" stroke-width="2.5" stroke-linecap="round" stroke-linejoin="round"></path>
                <path d="M128.333333,198.502601 C106.220513,188.710109 89.8330685,153.218487 89.8330685,110.942136 C89.8152752,101.181492 90.7209279,91.4409968 92.5382051,81.8506429" id="Path" stroke="#000000" stroke-width="2.5" stroke-linecap="round" stroke-linejoin="round"></path>
                <path d="M140.673077,201.175074 C136.417656,201.159277 132.213233,200.248707 128.333333,198.502601" id="Path" stroke="#000000" stroke-width="2.5" stroke-linecap="round" stroke-linejoin="round"></path>
                <path d="M189.360769,136.996281 C187.610157,147.814863 184.43,158.353507 179.90359,168.336202" id="Path" stroke="#000000" stroke-width="2.5" stroke-linecap="round" stroke-linejoin="round"></path>
                <path d="M181.917436,163.701286 L190.525641,163.701286 C203.358974,163.701286 209.282051,158.770524 229.025641,158.770524 C263.576923,158.770524 311.948718,201.175074 371.179487,201.175074 C435.346154,201.175074 462,152.85361 462,98.6152324 C462,26.6261128 393.884615,7.8892186 361.307692,7.8892186 C322.807692,7.8892186 291.217949,35.5014837 249.75641,35.5014837 C220.141026,35.5014837 191.512821,0 150.051282,0 C96.7435897,0 79.9615385,28.5984174 79.9615385,48.3214639 C79.9615385,64.0999011 89.5766667,81.8506429 92.5382051,81.8506429 C93.4266667,76.6338971 98.7179487,59.1691395 100.692308,57.1968348 C101.284615,59.2776162 105.480128,65.135361 112.044872,72.2948269" id="Path" stroke="#000000" stroke-width="2.5" stroke-linecap="round" stroke-linejoin="round"></path>
                <path d="M180.653846,112.697488 C185.260094,109.620716 191.291573,109.712217 195.802171,112.927298 C200.312769,116.142378 202.36128,121.810162 200.947098,127.162186 C199.532917,132.514211 194.951132,136.433694 189.439744,137.006142" id="Path" stroke="#000000" stroke-width="2.5" stroke-linecap="round" stroke-linejoin="round"></path>
                <path d="M100.692308,425.40639 C82.9823077,415.199713 74.6011538,396.591019 81.9358974,383.859792 C86.7335897,375.566251 97.0101282,371.818872 108.491026,373.012117 L101.126667,324.266607 L39.4871795,333.556162 L55.4301282,439.163215 L113.041923,430.485074 C108.714962,429.356241 104.560754,427.647855 100.692308,425.40639 L100.692308,425.40639 Z" id="Path" fill="#333333" fill-rule="nonzero"></path>
                <path d="M246.380256,409.509614 C254.741667,427.901355 281.15859,461.775687 291.217949,474.339268 C209.282051,438.837784 153.012821,403.336301 148.076923,398.405539 C147.367414,397.840818 146.419763,397.673759 145.559615,397.961771 C141.438098,390.099898 135.107788,383.611655 127.346154,379.293907 C109.636154,369.077369 89.32,371.128566 81.9358974,383.859792 C74.5517949,396.591019 82.9230769,415.199713 100.692308,425.40639 C107.009666,429.127185 114.10707,431.328467 121.423077,431.836103 C121.710964,432.233051 122.042049,432.596866 122.410256,432.92087 C133.269231,442.782394 289.24359,563.092977 336.628205,563.092977 C348.474359,563.092977 367.230769,544.356083 367.230769,506.882295 C367.230769,493.845361 358.425128,421.856241 326.667564,363.219624" id="Path" stroke="#000000" stroke-width="2.5" stroke-linecap="round" stroke-linejoin="round"></path>
            </g>
        </g>
    </g>
</svg>