<?xml version="1.0" encoding="UTF-8"?>
<svg width="1000px" height="1000px" viewBox="0 0 1000 1000" version="1.1" xmlns="http://www.w3.org/2000/svg" xmlns:xlink="http://www.w3.org/1999/xlink">
    <!-- Generator: Sketch 57.1 (83088) - https://sketch.com -->
    <title>engagements-empty-illustration</title>
    <desc>Created with Sketch.</desc>
    <g id="engagements-empty-illustration" stroke="none" stroke-width="1" fill="none" fill-rule="evenodd">
        <g id="holding-phone-monochrome" transform="translate(1.000000, 41.000000)">
            <path d="M993.40154,193.320756 C966.797697,100.992127 820.519014,38.3132888 703.929088,21.8129044 C587.098594,5.31251997 499.956858,34.962311 429.329315,54.6440034 C408.881149,60.2289664 389.819779,65.007998 371.083881,69.5042467 C382.9141,82.2294789 390.145251,97.2169746 390.145251,102.292928 C390.145251,111.624765 369.116894,192.161346 349.248918,192.161346 C329.380942,192.161346 308.366736,110.394659 308.366736,90.5574364 C308.385921,88.4203284 308.532407,86.2862562 308.805416,84.1665421 C282.527046,90.416045 254.72037,97.3159486 222.725004,106.251889 C141.328565,128.973498 33.1018679,165.099019 6.78104463,228.244449 C-19.5539297,291.630244 35.9886679,382.050088 84.6114361,486.340436 C133.02194,590.404556 174.611671,708.565407 256.248676,754.729721 C267.697982,761.171153 279.841698,766.294001 292.446883,770 C292.942168,767.582206 293.394999,765.36236 293.777075,763.397018 C283.262897,713.217186 285.640262,622.981151 289.135554,613.635175 C289.135554,613.635175 484.334176,653.139951 497.154964,655.656719 C500.494595,644.529211 518.961624,594.929083 528.612593,587.873649 C538.263562,580.818215 633.329847,548.185064 633.329847,548.185064 C633.329847,548.185064 633.259092,496.662013 634.433623,484.997217 C497.763456,390.462881 579.924047,308.257881 584.593871,314.054931 C589.263694,319.851981 759.429232,463.463296 759.910365,472.795133 C760.349046,483.017736 739.75937,568.531296 723.216874,619.460503 C762.004711,586.063838 799.717073,548.08609 838.306796,505.48484 C926.807027,407.88231 1019.93463,285.88975 993.40154,193.320756 Z M303.696913,530.553548 C280.333644,530.553548 214.927813,438.352171 214.927813,401.010684 C214.927813,379.999912 227.776903,330.97949 263.989262,330.97949 C274.50344,330.97949 297.866709,349.657303 301.362001,354.323221 C304.961744,358.048177 308.779801,361.556153 312.795993,364.828607 C312.060142,368.547203 309.965797,378.840502 307.814848,389.586254 C325.475271,409.53659 358.602716,451.529856 358.602716,482.706675 C358.602716,509.556915 352.758361,530.553548 303.696913,530.553548 Z M323.508285,364.828607 C307.149752,364.828607 269.73456,311.099849 269.73456,245.79113 C269.73456,225.996324 286.093093,207.276094 310.630893,207.276094 C366.697077,207.276094 371.367318,323.980612 371.367318,333.312449 C371.451806,346.150794 358.602716,364.828607 323.564889,364.828607 L323.508285,364.828607 Z" id="Shape" fill="#E4EAF8" fill-rule="nonzero"></path>
            <path d="M333.604257,50 C314.860183,50 309,79.1021746 309,90.7345845 C309,110.474432 330.085309,192 349.992905,192 C369.900502,192 391,111.630623 391,102.381094 C391,93.1315659 366.395743,50 333.604257,50 Z" id="Path" stroke="#000000" stroke-width="2.5" stroke-linecap="round" stroke-linejoin="round"></path>
            <path d="M700.04581,55.7411453 L418.982502,0.658168927 C399.545884,-3.08880367 380.727114,9.540656 376.859099,28.9275948 L339.180169,220.636707 C368.43725,251.266629 371.395513,326.293686 371.395513,333.71441 C371.395513,346.548729 358.543346,365.220685 323.497128,365.220685 C320.29824,365.220685 316.292554,363.142882 311.918854,359.368914 L311.041283,363.835483 C312.159478,364.796644 312.725653,365.248955 312.725653,365.248955 C312.017934,368.825037 309.894779,379.609823 307.743315,389.998837 C325.407968,409.900513 358.543346,451.88061 358.543346,483.047652 C358.543346,509.903607 352.697591,530.879521 303.624393,530.879521 C297.962646,530.879521 289.951273,525.550734 280.977403,516.928559 L269.653908,574.880882 C266.577748,590.82244 274.566745,606.847719 289.158628,614.005768 C290.022045,614.175384 484.0926,653.427482 497.227855,656 L497.227855,656 C500.568286,644.875981 519.039738,595.291408 528.693017,588.238186 C538.346297,581.184964 633.435349,548.562047 633.435349,548.562047 C633.435349,548.562047 633.364577,497.055153 634.53939,485.394015 C497.836493,390.889324 580.01676,308.710103 584.687702,314.505335 C586.98071,317.332278 628.792716,353.107236 671.029354,389.998837 L728.340394,97.806051 C732.093249,78.4009688 719.453957,59.610425 700.04581,55.7411453 Z" id="Path" fill="#2665EE" fill-rule="nonzero"></path>
            <path d="M636,43.2495817 L632.458222,61.2949245 C630.633231,70.4861558 621.719468,76.4720931 612.519848,74.6843149 L491.704304,50.9812844 C482.516589,49.1495595 476.533478,40.2421801 478.31328,31.0453428 L481.925611,13" id="Path" fill="#E4EAF8" fill-rule="nonzero"></path>
            <path d="M248,546 L521,600" id="Path" stroke="#E4EAF8" stroke-width="3"></path>
            <circle id="Oval" fill="#E4EAF8" fill-rule="nonzero" cx="440" cy="614" r="14"></circle>
            <path d="M311.032851,208 C286.41314,208 270,226.716683 270,246.624428 C270,312.161177 307.511693,366 323.953229,366 C359.108018,366 372,347.269138 372,334.394328 C371.971604,324.96509 367.286192,208 311.032851,208 Z" id="Path" stroke="#000000" stroke-width="2.5" stroke-linecap="round" stroke-linejoin="round"></path>
            <path d="M308.097213,389.731846 C325.797597,409.724761 359,451.807651 359,483.05101 C359,509.972724 353.142421,531 303.96996,531 C280.553826,531 215,438.601842 215,401.180659 C215,380.125044 227.878164,331 264.172461,331 C274.71043,331 298.126564,349.717676 301.629765,354.393553 C305.237653,358.126459 309.06435,361.641922 313.089629,364.92136 C312.352113,368.647892 310.253029,378.96316 308.097213,389.731846" id="Path" stroke="#000000" stroke-width="2.5" stroke-linecap="round" stroke-linejoin="round"></path>
            <path d="M298,379 C299.514286,380.534211 303.2,384.427632 308,390" id="Path" stroke="#000000" stroke-width="2.5" stroke-linecap="round" stroke-linejoin="round"></path>
            <path d="M316,399 C316,399 298.443775,378.235075 288,369" id="Path" stroke="#000000" stroke-width="2.5" stroke-linecap="round" stroke-linejoin="round"></path>
            <path d="M512.397718,917.94342 L538.0912,815.194491 C538.0912,815.194491 694.515833,678.568402 709.697058,654.069346 C724.878284,629.570289 760.503938,486.522392 759.994595,473.098833 C759.584292,463.763165 589.478163,320.135325 584.809194,314.29346 C580.140224,308.451595 497.994654,390.6762 634.639834,485.305927 C633.465517,496.975512 633.536259,548.519716 633.536259,548.519716 C633.536259,548.519716 538.487355,581.180409 528.838151,588.224595 C519.188947,595.268781 500.725294,644.903417 497.386273,656.035494 C484.539533,653.517693 289.404897,613.996697 289.404897,613.996697 C285.910243,623.346511 283.533313,713.619592 294.045569,763.820026 C286.971373,800.016958 259,918 259,918" id="Path" stroke="#000000" stroke-width="2.5" stroke-linecap="round" stroke-linejoin="round"></path>
            <path d="M478,714 C481.119093,701.887324 496.243226,658.380282 500,648" id="Path" stroke="#000000" stroke-width="2.5" stroke-linecap="round" stroke-linejoin="round"></path>
        </g>
    </g>
</svg>