<svg width="91" height="100" viewBox="0 0 91 100" fill="none" xmlns="http://www.w3.org/2000/svg">
  <path d="M34.4513 91.5398C33.8995 91.541 33.3545 91.4176 32.8571 91.1786C32.3596 90.9397 31.9226 90.5915 31.5786 90.16C24.2865 81.0853 0.5 50.2915 0.5 34.6466C0.5 25.6422 4.077 17.0065 10.4441 10.6394C16.8112 4.27231 25.4468 0.695313 34.4513 0.695312C43.4557 0.695313 52.0914 4.27231 58.4585 10.6394C64.8256 17.0065 68.4026 25.6422 68.4026 34.6466C68.4026 50.2964 44.6161 81.0853 37.3239 90.1354C36.9829 90.572 36.5471 90.9253 36.0494 91.1686C35.5517 91.4119 35.0053 91.5388 34.4513 91.5398ZM34.4513 8.37045C29.252 8.37045 24.1695 9.91234 19.8466 12.8011C15.5236 15.6899 12.1545 19.7958 10.1653 24.5995C8.17604 29.4032 7.65606 34.6889 8.67111 39.7882C9.68616 44.8874 12.1906 49.5711 15.8678 53.2469C19.5449 56.9227 24.2295 59.4254 29.3292 60.4385C34.4288 61.4517 39.7143 60.9297 44.5173 58.9387C49.3203 56.9477 53.4249 53.577 56.3121 49.253C59.1992 44.929 60.7392 39.8459 60.7373 34.6466C60.7295 27.6775 57.9576 20.9961 53.0297 16.0682C48.1018 11.1403 41.4204 8.36842 34.4513 8.36062V8.37045Z" fill="#ECB760"/>
  <path d="M34.4514 57.0483C30.0193 57.0493 25.6866 55.7359 22.0011 53.2742C18.3155 50.8125 15.4429 47.3131 13.7464 43.2186C12.0498 39.1241 11.6057 34.6184 12.4701 30.2715C13.3345 25.9246 15.4686 21.9317 18.6026 18.7977C21.7365 15.6638 25.7294 13.5297 30.0764 12.6653C34.4233 11.8009 38.9289 12.245 43.0234 13.9415C47.1179 15.638 50.6173 18.5107 53.079 22.1962C55.5407 25.8817 56.8541 30.2145 56.8531 34.6465C56.8466 40.5859 54.4844 46.2801 50.2846 50.4798C46.0849 54.6795 40.3907 57.0418 34.4514 57.0483Z" fill="#ECB760"/>
  <path d="M34.4514 1.28949C25.6045 1.28949 17.12 4.80389 10.8643 11.0596C4.60864 17.3152 1.09424 25.7998 1.09424 34.6466C1.09424 50.0362 24.3799 80.2555 32.0305 89.7769C32.3204 90.1376 32.6875 90.4285 33.1048 90.6285C33.522 90.8284 33.9788 90.9322 34.4415 90.9322C34.9042 90.9322 35.361 90.8284 35.7783 90.6285C36.1956 90.4285 36.5627 90.1376 36.8526 89.7769C44.513 80.2555 67.7888 50.0362 67.7888 34.6466C67.7888 25.8032 64.2771 17.3216 58.0257 11.0665C51.7743 4.8114 43.2948 1.2947 34.4514 1.28949ZM34.4514 61.5268C29.1338 61.5268 23.9356 59.9499 19.5143 56.9955C15.093 54.0411 11.6471 49.8419 9.61233 44.929C7.57761 40.0161 7.04548 34.6102 8.08324 29.3949C9.12101 24.1796 11.682 19.3891 15.4425 15.6294C19.2029 11.8696 23.9938 9.30944 29.2094 8.27263C34.4249 7.23582 39.8307 7.76893 44.7432 9.80455C49.6557 11.8402 53.8543 15.2869 56.8079 19.7087C59.7614 24.1306 61.3374 29.329 61.3364 34.6466C61.3351 41.7761 58.502 48.6132 53.4602 53.654C48.4184 58.6949 41.5809 61.5268 34.4514 61.5268Z" fill="#ECB760"/>
  <path d="M56.2587 34.6466C56.2587 38.9597 54.9798 43.176 52.5835 46.7622C50.1873 50.3485 46.7814 53.1436 42.7966 54.7942C38.8117 56.4447 34.427 56.8766 30.1967 56.0351C25.9664 55.1937 22.0807 53.1167 19.0309 50.0669C15.981 47.017 13.904 43.1313 13.0626 38.901C12.2211 34.6708 12.653 30.286 14.3036 26.3012C15.9541 22.3164 18.7493 18.9105 22.3355 16.5142C25.9217 14.118 30.138 12.839 34.4512 12.839C40.2349 12.839 45.7817 15.1366 49.8714 19.2263C53.9612 23.316 56.2587 28.8628 56.2587 34.6466Z" fill="#ECB760"/>
  <g opacity="0.5">
    <path d="M7.5663 34.6467C7.56015 29.61 8.97055 24.673 11.6364 20.3996C14.3023 16.1262 18.1163 12.6886 22.6427 10.4794C27.1691 8.27025 32.2256 7.37851 37.2346 7.90604C42.2437 8.43357 47.0034 10.3591 50.9703 13.4628C51.0323 10.7612 50.8681 8.05915 50.4793 5.38497C45.3988 2.6031 39.6816 1.19187 33.8903 1.29014C28.0989 1.38841 22.4329 2.99279 17.4497 5.94542C12.4666 8.89804 8.338 13.0972 5.47024 18.1296C2.60248 23.1621 1.09435 28.8545 1.09424 34.6467C1.09424 43.0879 8.10645 55.9927 15.6981 67.4931C19.8169 65.6783 23.6786 63.3289 27.1838 60.5055C21.542 58.9231 16.5719 55.5403 13.0305 50.8721C9.489 46.2039 7.57021 40.5062 7.5663 34.6467Z" fill="url(#paint0_linear_247_29173)"/>
    <path d="M7.5663 34.6467C7.56015 29.61 8.97055 24.673 11.6364 20.3996C14.3023 16.1262 18.1163 12.6886 22.6427 10.4794C27.1691 8.27025 32.2256 7.37851 37.2346 7.90604C42.2437 8.43357 47.0034 10.3591 50.9703 13.4628C51.0323 10.7612 50.8681 8.05915 50.4793 5.38497C45.3988 2.6031 39.6816 1.19187 33.8903 1.29014C28.0989 1.38841 22.4329 2.99279 17.4497 5.94542C12.4666 8.89804 8.338 13.0972 5.47024 18.1296C2.60248 23.1621 1.09435 28.8545 1.09424 34.6467C1.09424 43.0879 8.10645 55.9927 15.6981 67.4931C19.8169 65.6783 23.6786 63.3289 27.1838 60.5055C21.542 58.9231 16.5719 55.5403 13.0305 50.8721C9.489 46.2039 7.57021 40.5062 7.5663 34.6467Z" fill="url(#paint1_linear_247_29173)"/>
    <path d="M42.5095 42.4937C46.5648 35.5169 49.2514 27.8304 50.4252 19.8464C48.0403 17.2669 45.0671 15.3021 41.7589 14.1196C38.4508 12.937 34.9058 12.5718 31.4261 13.055C27.9463 13.5382 24.635 14.8555 21.7742 16.8947C18.9134 18.9338 16.588 21.6343 14.9962 24.7661C13.4043 27.8979 12.5932 31.3681 12.6319 34.8811C12.6707 38.394 13.5581 41.8455 15.2186 44.9414C16.8792 48.0373 19.2635 50.6859 22.1686 52.6615C25.0736 54.637 28.4132 55.881 31.9028 56.2873C36.0398 52.1849 39.6072 47.5456 42.5095 42.4937Z" fill="url(#paint2_linear_247_29173)"/>
    <path d="M42.5095 42.4937C46.5648 35.5169 49.2514 27.8304 50.4252 19.8464C48.0403 17.2669 45.0671 15.3021 41.7589 14.1196C38.4508 12.937 34.9058 12.5718 31.4261 13.055C27.9463 13.5382 24.635 14.8555 21.7742 16.8947C18.9134 18.9338 16.588 21.6343 14.9962 24.7661C13.4043 27.8979 12.5932 31.3681 12.6319 34.8811C12.6707 38.394 13.5581 41.8455 15.2186 44.9414C16.8792 48.0373 19.2635 50.6859 22.1686 52.6615C25.0736 54.637 28.4132 55.881 31.9028 56.2873C36.0398 52.1849 39.6072 47.5456 42.5095 42.4937Z" fill="url(#paint3_linear_247_29173)"/>
  </g>
  <path d="M48.8245 71.8977L58.3656 55.3689C58.8853 54.4685 59.6329 53.7207 60.5333 53.2008C61.4336 52.681 62.455 52.4073 63.4946 52.4073C64.5343 52.4073 65.5557 52.681 66.456 53.2008C67.3563 53.7207 68.104 54.4685 68.6237 55.3689L78.1648 71.8977L87.7059 88.4265C88.226 89.3262 88.4999 90.3471 88.5001 91.3863C88.5003 92.4255 88.2268 93.4465 87.7072 94.3464C87.1875 95.2464 86.44 95.9936 85.5398 96.5129C84.6396 97.0323 83.6186 97.3053 82.5794 97.3047H44.4099C43.3736 97.3034 42.3558 97.0298 41.4583 96.5115C40.5609 95.9932 39.8154 95.2483 39.2963 94.3514C38.7772 93.4544 38.5028 92.4368 38.5005 91.4005C38.4982 90.3641 38.7682 89.3454 39.2834 88.4461L48.8245 71.8977Z" fill="#E75252" stroke="white" stroke-width="4" stroke-miterlimit="10"/>
  <path d="M63.4969 82.9955L59.1118 87.3757L55.9053 84.1741L60.2904 79.789L55.9053 75.4039L59.1118 72.1973L63.4969 76.5824L67.8771 72.1973L71.0837 75.4039L66.6986 79.789L71.0837 84.1741L67.8771 87.3757L63.4969 82.9955Z" fill="white"/>
  <defs>
    <linearGradient id="paint0_linear_247_29173" x1="63.6247" y1="59.6069" x2="15.0794" y2="22.7829" gradientUnits="userSpaceOnUse">
      <stop stop-color="white"/>
      <stop offset="1" stop-color="white"/>
    </linearGradient>
    <linearGradient id="paint1_linear_247_29173" x1="64.7605" y1="113.994" x2="40.9337" y2="57.6819" gradientUnits="userSpaceOnUse">
      <stop stop-color="white"/>
      <stop offset="1" stop-color="white"/>
    </linearGradient>
    <linearGradient id="paint2_linear_247_29173" x1="64.9849" y1="57.8145" x2="16.4396" y2="20.9906" gradientUnits="userSpaceOnUse">
      <stop stop-color="white"/>
      <stop offset="1" stop-color="white"/>
    </linearGradient>
    <linearGradient id="paint3_linear_247_29173" x1="67.1435" y1="112.982" x2="43.3235" y2="56.6684" gradientUnits="userSpaceOnUse">
      <stop stop-color="white"/>
      <stop offset="1" stop-color="white"/>
    </linearGradient>
  </defs>
</svg>
