<svg width="20" height="20" viewBox="0 0 20 20" fill="none" xmlns="http://www.w3.org/2000/svg">
<path d="M9.99984 10.6945C12.3925 10.6945 14.3332 8.66983 14.3332 6.17371C14.3332 3.67757 12.3925 1.66675 9.99984 1.66675C7.60722 1.66675 5.6665 3.69142 5.6665 6.17371C5.6665 8.656 7.60719 10.6945 9.99984 10.6945ZM9.99984 2.84549C11.7544 2.84549 13.19 4.34318 13.19 6.17371C13.19 8.00424 11.7544 9.50191 9.99984 9.50191C8.24525 9.50191 6.80965 8.00421 6.80965 6.17368C6.80965 4.34315 8.24522 2.84549 9.99984 2.84549Z" fill="#666666"/>
<path d="M2.25505 18.3333H17.7449C18.0733 18.3333 18.3333 18.0705 18.3333 17.7387C18.3333 14.6275 15.8292 12.0833 12.7367 12.0833H7.26327C4.18445 12.0833 1.66666 14.6137 1.66666 17.7387C1.66666 18.0705 1.92664 18.3333 2.25505 18.3333ZM7.26327 13.2724H12.7367C14.9808 13.2724 16.8281 14.9593 17.1155 17.1441H2.8845C3.17184 14.9732 5.01916 13.2724 7.26327 13.2724Z" fill="#666666"/>
</svg>
