<svg width="20" height="20" viewBox="0 0 20 20" fill="none" xmlns="http://www.w3.org/2000/svg">
<path d="M5.33614 12.1931H7.25627C7.5834 12.1931 7.83942 11.9982 7.83942 11.7491C7.83942 11.5 7.5834 11.3159 7.25627 11.3159H5.33614C5.00901 11.3159 4.75299 11.5108 4.75299 11.7599C4.75299 12.009 5.02323 12.1931 5.33614 12.1931Z" fill="#666666"/>
<path d="M17.7453 1.66675H2.2691C1.9392 1.66675 1.68103 2.03757 1.68103 2.51141V7.76482C1.66669 7.82662 1.66669 7.88842 1.66669 7.95022C1.66669 8.01203 1.66669 8.07383 1.68103 8.13564V17.4887C1.68103 17.9626 1.9392 18.3334 2.2691 18.3334H17.7453C18.0752 18.3334 18.3334 17.9626 18.3334 17.4887V2.51141C18.3334 2.05818 18.0752 1.66675 17.7453 1.66675ZM17.1572 16.6647H2.85716V8.79491H17.1572V16.6647ZM17.1572 7.12616H2.85716V3.35607H17.1572V7.12616Z" fill="#666666"/>
</svg>
