<svg width="20" height="20" viewBox="0 0 20 20" fill="none" xmlns="http://www.w3.org/2000/svg">
<path d="M17.2249 10.216C17.1578 10.0788 17.1578 9.92142 17.2249 9.78425L17.8464 8.51267C18.1925 7.8046 17.9184 6.96069 17.2222 6.59132L15.9719 5.92792C15.8369 5.85636 15.7444 5.72902 15.7181 5.57867L15.4735 4.18451C15.3374 3.40827 14.6194 2.88666 13.8392 2.99704L12.4377 3.19528C12.2864 3.21664 12.1369 3.16801 12.0271 3.06186L11.0099 2.07775C10.4434 1.52976 9.55611 1.52973 8.98969 2.07775L7.97235 3.06195C7.86259 3.16813 7.71301 3.21667 7.56177 3.19538L6.16031 2.99714C5.37989 2.88669 4.66211 3.40836 4.52596 4.1846L4.28142 5.5787C4.25502 5.72909 4.16254 5.8564 4.02768 5.92798L2.77736 6.59139C2.08121 6.96072 1.80699 7.8047 2.15308 8.51275L2.77466 9.78433C2.84171 9.92158 2.84171 10.0789 2.77466 10.2161L2.15305 11.4877C1.80696 12.1957 2.08117 13.0397 2.77733 13.409L4.02765 14.0724C4.16254 14.1439 4.25502 14.2713 4.28142 14.4217L4.52596 15.8158C4.64991 16.5224 5.25583 17.018 5.95221 17.0179C6.0208 17.0179 6.0904 17.0132 6.16035 17.0032L7.56181 16.805C7.71295 16.7836 7.86261 16.8322 7.97238 16.9384L8.98969 17.9226C9.27294 18.1966 9.63627 18.3336 9.99977 18.3335C10.3631 18.3335 10.7267 18.1965 11.0099 17.9226L12.0271 16.9384C12.1369 16.8322 12.2865 16.7837 12.4377 16.805L13.8392 17.0032C14.6197 17.1137 15.3374 16.592 15.4735 15.8157L15.7181 14.4217C15.7445 14.2713 15.837 14.144 15.9719 14.0724L17.2222 13.409C17.9184 13.0397 18.1925 12.1957 17.8464 11.4877L17.2249 10.216ZM16.7716 12.5598L15.5213 13.2232C15.1227 13.4347 14.8493 13.811 14.7713 14.2555L14.5268 15.6497C14.4807 15.9123 14.2379 16.0887 13.9738 16.0514L12.5724 15.8532C12.1254 15.7898 11.6832 15.9337 11.3588 16.2475L10.3414 17.2316C10.1499 17.4169 9.84969 17.4169 9.65802 17.2316L8.64069 16.2474C8.36652 15.9822 8.00816 15.8385 7.63401 15.8385C7.56546 15.8385 7.49635 15.8433 7.42714 15.8532L6.02568 16.0514C5.76181 16.0887 5.51881 15.9122 5.47272 15.6497L5.22816 14.2555C5.15016 13.8109 4.8768 13.4347 4.47813 13.2232L3.22781 12.5597C2.99227 12.4348 2.8995 12.1493 3.01659 11.9097L3.6382 10.6381C3.83637 10.2327 3.83637 9.76758 3.6382 9.36216L3.01659 8.09051C2.8995 7.85096 2.99227 7.56544 3.22781 7.44047L4.47813 6.77706C4.87676 6.56551 5.15016 6.18927 5.22813 5.74475L5.47266 4.35062C5.51876 4.08799 5.76152 3.91156 6.02561 3.94886L7.42707 4.1471C7.87385 4.21035 8.31626 4.06657 8.64061 3.7528L9.65794 2.76869C9.84952 2.58334 10.1498 2.58334 10.3414 2.76869L11.3587 3.7528C11.6831 4.0666 12.1254 4.21035 12.5723 4.1471L13.9738 3.94886C14.2376 3.91152 14.4806 4.08799 14.5267 4.35062L14.7713 5.74478C14.8492 6.18931 15.1226 6.56557 15.5213 6.77706L16.7716 7.44047C17.0071 7.56544 17.0999 7.85096 16.9828 8.09051L16.3612 9.36208C16.163 9.76758 16.163 10.2327 16.3612 10.6381L16.9828 11.9097C17.0999 12.1493 17.0072 12.4348 16.7716 12.5598Z" fill="#666666"/>
<path d="M13.5122 6.48794C13.3245 6.30025 13.0201 6.30025 12.8324 6.48794L6.48843 12.832C6.30073 13.0197 6.30073 13.324 6.48843 13.5117C6.58228 13.6055 6.70528 13.6525 6.82827 13.6525C6.95125 13.6525 7.07429 13.6056 7.16811 13.5117L13.5121 7.16769C13.6998 6.97996 13.6998 6.67567 13.5122 6.48794Z" fill="#666666"/>
<path d="M8.07747 5.67456C7.10572 5.67456 6.31512 6.46515 6.31512 7.43689C6.31512 8.40862 7.10572 9.1992 8.07747 9.1992C9.04919 9.1992 9.83977 8.40862 9.83977 7.43689C9.83977 6.46515 9.04919 5.67456 8.07747 5.67456ZM8.07747 8.23794C7.63577 8.23794 7.27642 7.87859 7.27642 7.43686C7.27642 6.99516 7.63577 6.63582 8.07747 6.63582C8.51919 6.63582 8.87852 6.99516 8.87852 7.43686C8.87852 7.87859 8.51919 8.23794 8.07747 8.23794Z" fill="#666666"/>
<path d="M11.9222 10.801C10.9505 10.801 10.1599 11.5916 10.1599 12.5634C10.1599 13.5351 10.9505 14.3257 11.9222 14.3257C12.894 14.3257 13.6846 13.5351 13.6846 12.5634C13.6846 11.5916 12.894 10.801 11.9222 10.801ZM11.9222 13.3644C11.4806 13.3644 11.1212 13.005 11.1212 12.5634C11.1212 12.1216 11.4805 11.7623 11.9222 11.7623C12.3639 11.7623 12.7233 12.1216 12.7233 12.5634C12.7233 13.005 12.3639 13.3644 11.9222 13.3644Z" fill="#666666"/>
</svg>
