<svg width="20" height="20" viewBox="0 0 20 20" fill="none" xmlns="http://www.w3.org/2000/svg">
<path d="M13.3333 9.16675H15V13.3334H13.3333V9.16675Z" fill="#666666"/>
<path d="M16.6667 5.00008V3.33341C16.6667 2.41425 15.9192 1.66675 15 1.66675H4.16666C3.16166 1.66675 1.66666 2.33258 1.66666 4.16675V15.0001C1.66666 16.8342 3.16166 17.5001 4.16666 17.5001H16.6667C17.5858 17.5001 18.3333 16.7526 18.3333 15.8334V6.66675C18.3333 5.74758 17.5858 5.00008 16.6667 5.00008ZM4.16666 3.33341H15V5.00008H4.17666C3.79166 4.99008 3.33332 4.83758 3.33332 4.16675C3.33332 3.49591 3.79166 3.34341 4.16666 3.33341ZM16.6667 15.8334H4.17666C3.79166 15.8234 3.33332 15.6709 3.33332 15.0001V6.52758C3.62166 6.62341 3.90916 6.66675 4.16666 6.66675H16.6667V15.8334Z" fill="#666666"/>
</svg>
