<svg width="42" height="42" viewBox="0 0 42 42" fill="none" xmlns="http://www.w3.org/2000/svg">
<path d="M41.5 42L0 0H37L40 1L41.5 3.5V42Z" fill="#116FFF"/>
<path fill-rule="evenodd" clip-rule="evenodd" d="M35.9327 8.4375C35.9776 8.52083 36 8.58333 36 8.625C36 8.66667 35.9776 8.72917 35.9327 8.8125L27.5529 18.8125C27.4183 18.9375 27.3173 19 27.25 19C27.1378 19 27.0256 18.9479 26.9135 18.8438L22.1683 14.5938L22.0673 14.5C22.0224 14.4167 22 14.3542 22 14.3125C22 14.2917 22.0224 14.2396 22.0673 14.1562L22.1346 14.0938C22.7628 13.4687 23.2564 12.9896 23.6154 12.6562C23.75 12.5312 23.8397 12.4688 23.8846 12.4688C23.9744 12.4688 24.0865 12.5312 24.2212 12.6562L26.9135 15.0938L33.6442 7.0625C33.6891 7.02083 33.7564 7 33.8462 7C33.9135 7 33.992 7.02083 34.0817 7.0625L35.9327 8.4375Z" fill="white"/>
</svg>
