<svg width="56" height="63" viewBox="0 0 56 63" fill="none" xmlns="http://www.w3.org/2000/svg">
<path d="M19.3789 4.47363H28.5397" stroke="#344154" stroke-width="1.5" stroke-linecap="round" stroke-linejoin="round"/>
<path d="M28.9757 62.1857H4.45257C3.48226 62.1843 2.55219 61.7993 1.86658 61.1152C1.18098 60.4312 0.795897 59.504 0.795898 58.5373V4.45746C0.796611 3.97743 0.892402 3.50225 1.07778 3.05917C1.26316 2.61609 1.53449 2.21381 1.87621 1.87539C2.21793 1.53697 2.62333 1.26905 3.06918 1.087C3.51502 0.904953 3.99254 0.812346 4.47437 0.81449H43.4389C43.9191 0.81449 44.3946 0.908718 44.8383 1.09179C45.2819 1.27487 45.6851 1.54321 46.0246 1.88149C46.3642 2.21977 46.6335 2.62137 46.8173 3.06335C47.001 3.50534 47.0956 3.97906 47.0956 4.45746V21.7928" stroke="#344154" stroke-width="1.5" stroke-linecap="round" stroke-linejoin="round"/>
<path d="M19.3789 58.5264H28.5397" stroke="#344154" stroke-width="1.5" stroke-linecap="round" stroke-linejoin="round"/>
<path d="M0.817871 8.13281H47.0958" stroke="#344154" stroke-width="1.5" stroke-linecap="round" stroke-linejoin="round"/>
<path d="M28.5399 54.8672H0.817871" stroke="#344154" stroke-width="1.5" stroke-linecap="round" stroke-linejoin="round"/>
<path d="M10.4309 13.2041H7.63522C6.66308 13.2041 5.875 13.9892 5.875 14.9577V17.7429C5.875 18.7114 6.66308 19.4965 7.63522 19.4965H10.4309C11.403 19.4965 12.1911 18.7114 12.1911 17.7429V14.9577C12.1911 13.9892 11.403 13.2041 10.4309 13.2041Z" fill="#FFC124"/>
<path d="M20.2238 13.2041H17.4282C16.456 13.2041 15.668 13.9892 15.668 14.9577V17.7429C15.668 18.7114 16.456 19.4965 17.4282 19.4965H20.2238C21.196 19.4965 21.984 18.7114 21.984 17.7429V14.9577C21.984 13.9892 21.196 13.2041 20.2238 13.2041Z" fill="#35B4CF"/>
<path d="M30.0168 13.2041H27.2212C26.249 13.2041 25.4609 13.9892 25.4609 14.9577V17.7429C25.4609 18.7114 26.249 19.4965 27.2212 19.4965H30.0168C30.9889 19.4965 31.777 18.7114 31.777 17.7429V14.9577C31.777 13.9892 30.9889 13.2041 30.0168 13.2041Z" fill="#35B4CF"/>
<path d="M10.4309 23.3833H7.63522C6.66308 23.3833 5.875 24.1684 5.875 25.1369V27.9221C5.875 28.8906 6.66308 29.6757 7.63522 29.6757H10.4309C11.403 29.6757 12.1911 28.8906 12.1911 27.9221V25.1369C12.1911 24.1684 11.403 23.3833 10.4309 23.3833Z" fill="#35B4CF"/>
<path d="M20.2238 23.3833H17.4282C16.456 23.3833 15.668 24.1684 15.668 25.1369V27.9221C15.668 28.8906 16.456 29.6757 17.4282 29.6757H20.2238C21.196 29.6757 21.984 28.8906 21.984 27.9221V25.1369C21.984 24.1684 21.196 23.3833 20.2238 23.3833Z" fill="#FFC124"/>
<path d="M10.4309 33.563H7.63522C6.66308 33.563 5.875 34.3481 5.875 35.3166V38.1018C5.875 39.0703 6.66308 39.8554 7.63522 39.8554H10.4309C11.403 39.8554 12.1911 39.0703 12.1911 38.1018V35.3166C12.1911 34.3481 11.403 33.563 10.4309 33.563Z" fill="#FFC124"/>
<path d="M20.2238 33.563H17.4282C16.456 33.563 15.668 34.3481 15.668 35.3166V38.1018C15.668 39.0703 16.456 39.8554 17.4282 39.8554H20.2238C21.196 39.8554 21.984 39.0703 21.984 38.1018V35.3166C21.984 34.3481 21.196 33.563 20.2238 33.563Z" fill="#35B4CF"/>
<path d="M40.8721 31.1202V25.0449H43.259C43.892 25.0449 44.4992 25.2955 44.9468 25.7414C45.3944 26.1874 45.6459 26.7922 45.6459 27.4229" stroke="#344154" stroke-width="1.5" stroke-linecap="round" stroke-linejoin="round"/>
<path d="M55.1667 35.9302C55.055 40.4356 54.2971 44.902 52.916 49.1936C52.6518 50.0069 52.4299 50.8332 52.2512 51.6693H42.0005" stroke="#344154" stroke-width="1.5" stroke-linecap="round" stroke-linejoin="round"/>
<path d="M40.8724 25.0446V18.7305C40.8724 18.0998 40.6209 17.495 40.1733 17.049C39.7256 16.6031 39.1185 16.3525 38.4855 16.3525V16.3525C37.8524 16.3525 37.2453 16.6031 36.7976 17.049C36.35 17.495 36.0985 18.0998 36.0985 18.7305V36.3319L34.4637 32.0645C34.258 31.534 33.8959 31.0779 33.4252 30.7562C32.9544 30.4345 32.3969 30.2622 31.8261 30.2621V30.2621C31.4542 30.2613 31.0858 30.3337 30.742 30.475C30.3982 30.6163 30.0858 30.8237 29.8226 31.0854C29.5594 31.3471 29.3506 31.658 29.2081 32.0002C29.0656 32.3424 28.9923 32.7093 28.9923 33.0798V33.0798C28.9833 35.9341 29.7517 38.7374 31.2157 41.191C31.8042 42.1794 32.4828 43.1117 33.2429 43.9761C36.1748 47.2336 36.9541 51.6638 36.9541 51.6638" stroke="#344154" stroke-width="1.5" stroke-linecap="round" stroke-linejoin="round"/>
<path d="M45.6406 32.8955V26.8203H48.0275C48.6602 26.8217 49.2664 27.0727 49.7138 27.5184C50.1611 27.964 50.413 28.568 50.4145 29.1983V34.9586" stroke="#344154" stroke-width="1.5" stroke-linecap="round" stroke-linejoin="round"/>
<path d="M50.4146 29.8604H52.8015C53.4336 29.8618 54.0393 30.113 54.4858 30.5588C54.9322 31.0046 55.1829 31.6086 55.1829 32.2383V35.9302" stroke="#344154" stroke-width="1.5" stroke-linecap="round" stroke-linejoin="round"/>
<path d="M53.5752 54.8672H35.0684V62.1857H53.5752V54.8672Z" stroke="#344154" stroke-width="1.5" stroke-linecap="round" stroke-linejoin="round"/>
<path d="M50.1366 58.5264C50.1366 58.39 50.096 58.2567 50.02 58.1434C49.9439 58.03 49.8359 57.9416 49.7094 57.8894C49.5829 57.8372 49.4438 57.8236 49.3095 57.8502C49.1753 57.8768 49.0519 57.9424 48.9552 58.0389C48.8584 58.1353 48.7924 58.2582 48.7657 58.3919C48.739 58.5257 48.7527 58.6643 48.8051 58.7903C48.8575 58.9163 48.9462 59.024 49.06 59.0997C49.1738 59.1755 49.3077 59.2159 49.4445 59.2159C49.6281 59.2159 49.8041 59.1433 49.9339 59.014C50.0637 58.8847 50.1366 58.7093 50.1366 58.5264V58.5264Z" stroke="#344154" stroke-width="1.5" stroke-linecap="round" stroke-linejoin="round"/>
</svg>
