<svg width="51" height="71" viewBox="0 0 51 71" fill="none" xmlns="http://www.w3.org/2000/svg">
<path d="M43.1403 18.5881V4.29395H29.0513L43.1403 18.5881Z" fill="#FFC124"/>
<path d="M0.873047 48.4116V62.6469H14.9621L0.873047 48.4116Z" fill="#FFC124"/>
<path d="M30.4484 62.9998H0.873047V4.29395H14.9621" stroke="#344154" stroke-width="1.5" stroke-miterlimit="10"/>
<path d="M29.0513 4.29395H43.1403V50.1763" stroke="#344154" stroke-width="1.5" stroke-miterlimit="10"/>
<path d="M10.4209 21.5293H33.5921" stroke="#344154" stroke-width="1.5" stroke-miterlimit="10"/>
<path d="M10.4209 29.647H33.5921" stroke="#344154" stroke-width="1.5" stroke-miterlimit="10"/>
<path d="M10.4209 37.7056H33.5921" stroke="#344154" stroke-width="1.5" stroke-miterlimit="10"/>
<path d="M10.4209 45.7646H33.5921" stroke="#344154" stroke-width="1.5" stroke-miterlimit="10"/>
<path d="M14.9619 1.8235V9.11762C14.9619 9.8235 15.5441 10.3529 16.1845 10.3529H16.7085C17.3489 10.3529 17.8729 9.88232 17.9311 9.29409V9.11762C18.2222 6.94115 20.027 5.29409 22.2393 5.29409C24.3934 5.29409 26.2564 6.94115 26.5475 9.11762V9.29409C26.6057 9.94115 27.1297 10.3529 27.7701 10.3529C28.4688 10.3529 28.9927 9.76468 28.9927 9.11762V1.8235C28.9927 1.29409 28.5852 0.882324 28.0612 0.882324H15.9516C15.4277 0.882324 14.9619 1.29409 14.9619 1.8235Z" stroke="#344154" stroke-width="1.5" stroke-miterlimit="10"/>
<path d="M40.0543 70.059C45.6169 70.059 50.1263 65.5028 50.1263 59.8825C50.1263 54.2622 45.6169 49.7061 40.0543 49.7061C34.4918 49.7061 29.9824 54.2622 29.9824 59.8825C29.9824 65.5028 34.4918 70.059 40.0543 70.059Z" stroke="#35B4CF" stroke-width="1.5" stroke-miterlimit="10"/>
<path d="M35.688 59.8822L39.7633 63.5292L45.5852 56.2939" stroke="#35B4CF" stroke-width="1.5" stroke-miterlimit="10" stroke-linecap="round"/>
</svg>
