<svg width="35" height="35" viewBox="0 0 35 35" fill="none" xmlns="http://www.w3.org/2000/svg">
<path fill-rule="evenodd" clip-rule="evenodd" d="M17.5 35C27.165 35 35 27.165 35 17.5C35 7.83502 27.165 0 17.5 0C7.83502 0 0 7.83502 0 17.5C0 27.165 7.83502 35 17.5 35Z" fill="#8db5e3"/>
<path d="M23.925 11.875C23.925 9.75 22.725 8 21.225 8C19.725 8 18.525 9.75 18.525 11.875C18.525 13.5 19.225 14.901 20.199 15.475C20.399 15.6 20.524 15.8 20.499 16.025L20.249 27C20.224 27.55 20.675 28 21.224 28C21.774 28 22.224 27.55 22.199 27L21.924 16.05C21.924 15.825 22.024 15.6 22.224 15.5C23.25 14.9 23.924 13.5 23.924 11.875H23.925ZM15.825 8C15.625 8 15.475 8.175 15.475 8.375V12.45C15.475 12.65 15.325 12.825 15.126 12.825C14.926 12.825 14.751 12.675 14.751 12.45V8.375C14.75 8.175 14.6 8 14.4 8C14.2 8 14.024 8.15 14.024 8.375V12.475C14.024 12.675 13.874 12.85 13.674 12.85C13.474 12.85 13.3 12.7 13.3 12.475V8.375C13.3 8.175 13.15 8 12.95 8C12.75 8 12.575 8.15 12.575 8.375V12.475C12.575 12.675 12.425 12.85 12.225 12.85C12.025 12.85 11.851 12.7 11.851 12.475V8.375C11.85 8.175 11.7 8 11.5 8C11.3 8 11.125 8.15 11.125 8.375V13.099C11.1246 13.59 11.2659 14.0706 11.532 14.4832C11.7981 14.8958 12.1776 15.2228 12.625 15.425C12.875 15.525 13.025 15.775 13 16.05L12.675 27C12.65 27.55 13.1 28 13.65 28C14.2 28 14.65 27.55 14.624 27L14.324 16.05C14.324 15.774 14.474 15.524 14.699 15.425C15.574 15.025 16.174 14.125 16.174 13.1V8.375C16.2 8.15 16.026 8 15.826 8H15.825Z" fill="#1862b8"/>
</svg>
