<svg width="35" height="35" viewBox="0 0 35 35" fill="none" xmlns="http://www.w3.org/2000/svg">
<path d="M17.5 35C27.165 35 35 27.165 35 17.5C35 7.83502 27.165 0 17.5 0C7.83502 0 0 7.83502 0 17.5C0 27.165 7.83502 35 17.5 35Z" fill="#8db5e3"/>
<path d="M13.6742 11.7685C12.061 12.5303 10.7477 13.808 9.94201 15.3998C9.13628 16.9915 8.88406 18.8063 9.22522 20.5575C9.75546 19.8474 10.4728 19.2988 11.297 18.9731C12.1212 18.6475 13.0198 18.5576 13.8922 18.7135C14.3786 17.8501 15.1211 17.1591 16.0171 16.736C16.9132 16.3129 17.9185 16.1785 18.8942 16.3515C19.3288 15.5795 19.9693 14.9435 20.7443 14.5144C21.5193 14.0853 22.3983 13.88 23.2832 13.9215C22.149 12.5449 20.5882 11.5859 18.8477 11.1959C17.1072 10.806 15.2864 11.0075 13.6732 11.7685H13.6742Z" fill="#1862b8"/>
<path d="M16.4975 16.0703C16.2703 16.1326 16.0488 16.2142 15.8355 16.3143C15.6231 16.4158 15.4197 16.5352 15.2275 16.6713L17.8595 22.2493H19.4125L16.4975 16.0713V16.0703Z" fill="#1862b8"/>
<path d="M25.746 16.9029C25.5401 16.7723 25.2909 16.7288 25.0529 16.7818C24.815 16.8349 24.6078 16.9802 24.477 17.1859L21.477 21.9079H9.00498L8.12598 24.8499H10.046L10.376 23.7469H21.466L22.136 24.8499H24.286L23.066 22.8399L26.032 18.1719C26.0967 18.0698 26.1407 17.956 26.1614 17.8369C26.1821 17.7178 26.1791 17.5958 26.1527 17.4778C26.1262 17.3599 26.0767 17.2483 26.0071 17.1495C25.9375 17.0507 25.8491 16.9665 25.747 16.9019L25.746 16.9029Z" fill="#1862b8"/>
</svg>
