<svg viewBox="0 0 40 40" fill="none" xmlns="http://www.w3.org/2000/svg">
<path d="M33.6939 29.9782C33.119 25.8414 31.4378 22.168 27.6764 21.6601C25.73 23.7836 22.9202 25.134 19.8228 25.134C16.7255 25.134 13.9156 23.7848 11.9693 21.6601C8.20789 22.1693 6.52667 25.8414 5.95181 29.9782C9.02682 34.3145 14.0928 37.1689 19.8228 37.1689C25.5529 37.1689 30.6188 34.3145 33.6939 29.9782ZM28.3182 14.5139C28.3182 9.82335 24.5134 6.0186 19.8228 6.0186C15.1323 6.0186 11.3275 9.82335 11.3275 14.5139C11.3275 19.2045 15.1323 23.0093 19.8228 23.0093C24.5134 23.0093 28.3182 19.2045 28.3182 14.5139ZM39.6457 20.1783C39.6457 31.0858 30.796 40.0011 19.8228 40.0011C8.87196 40.0011 0 31.1069 0 20.1783C0 9.22743 8.87196 0.355469 19.8228 0.355469C30.7737 0.355469 39.6457 9.22743 39.6457 20.1783Z" fill="#A4B0C3"/>
</svg>
