<?xml version="1.0" encoding="utf-8"?>
<!-- Generator: Adobe Illustrator 19.1.0, SVG Export Plug-In . SVG Version: 6.00 Build 0)  -->
<svg version="1.1" id="Layer_1" xmlns="http://www.w3.org/2000/svg" xmlns:xlink="http://www.w3.org/1999/xlink" x="0px" y="0px"
	 viewBox="-459 261 40 40" style="enable-background:new -459 261 40 40;" xml:space="preserve">
<style type="text/css">
	.st0{fill:#FFFFFF;}
</style>
<path class="st0" d="M-439,283.9c4.7,0,8.6-3.8,8.6-8.6c0-4.7-3.8-8.6-8.6-8.6c-4.7,0-8.6,3.8-8.6,8.6
	C-447.6,280-443.7,283.9-439,283.9z M-431.1,282.5c-2,2.1-4.8,3.5-7.9,3.5c-3.1,0-6-1.4-7.9-3.5c-3.8,0.5-5.5,4.2-6.1,8.4
	c1.3,1.8,2.8,3.3,4.7,4.5h0v0c2.7,1.7,5.9,2.8,9.3,2.8c5.8,0,10.9-2.9,14-7.3C-425.6,286.7-427.3,283-431.1,282.5z"/>
</svg>
